<?xml version="1.0" encoding="utf-8"?>
<!-- Generator: Adobe Illustrator 22.1.0, SVG Export Plug-In . SVG Version: 6.00 Build 0)  -->
<svg version="1.1" id="Capa_1" xmlns="http://www.w3.org/2000/svg" xmlns:xlink="http://www.w3.org/1999/xlink" x="0px" y="0px"
	 viewBox="0 0 579 213" style="enable-background:new 0 0 579 213;" xml:space="preserve">
<style type="text/css">
	.st0{enable-background:new    ;}
	.st1{fill:#54515C;}
</style>
<g class="st0">
	<path class="st1" d="M67.4,107.9H9.6V96.6l26.7-30.2c4-4.7,6.8-8.7,8.5-11.9c1.7-3.3,2.5-6.2,2.5-9c0-3.5-0.9-6.4-2.7-8.5
		c-1.8-2.1-4.4-3.2-8-3.2c-3.7,0-6.6,1.4-8.7,4.1c-2.1,2.7-3.1,6.2-3.1,10.3H8.1L8,47.9c-0.2-7.6,2.3-14.1,7.6-19.4
		c5.2-5.3,12.3-8,21.1-8c8.8,0,15.7,2.3,20.6,6.8c4.9,4.5,7.3,10.6,7.3,18.2c0,5.2-1.4,9.9-4.1,14.1c-2.7,4.3-7.5,10.2-14.2,17.7
		l-14.2,17l0.1,0.3h35.2V107.9z"/>
	<path class="st1" d="M136.9,107.9H79.1V96.6l26.7-30.2c4-4.7,6.8-8.7,8.5-11.9c1.7-3.3,2.5-6.2,2.5-9c0-3.5-0.9-6.4-2.7-8.5
		c-1.8-2.1-4.4-3.2-8-3.2c-3.7,0-6.6,1.4-8.7,4.1c-2.1,2.7-3.1,6.2-3.1,10.3H77.6l-0.1-0.4c-0.2-7.6,2.3-14.1,7.6-19.4
		c5.2-5.3,12.3-8,21.1-8c8.8,0,15.7,2.3,20.6,6.8c4.9,4.5,7.3,10.6,7.3,18.2c0,5.2-1.4,9.9-4.1,14.1c-2.7,4.3-7.5,10.2-14.2,17.7
		l-14.2,17l0.1,0.3h35.2V107.9z"/>
	<path class="st1" d="M198.2,75.8h9.7v13.4h-9.7v18.7h-17.3V89.2h-35.1L145,78.8l35.7-57.1h17.4V75.8z M160.7,75.8h20.2V44.5
		l-0.4-0.1l-1.8,3.8L160.7,75.8z"/>
	<path class="st1" d="M236.9,107.9h-17.3V92.7h17.3V107.9z"/>
	<path class="st1" d="M310.3,76.7c0,10.1-2.7,18-8,23.8c-5.3,5.8-12.3,8.6-21.1,8.6c-8.8,0-15.9-2.9-21.2-8.6
		c-5.3-5.8-8-13.7-8-23.8V53c0-10.1,2.7-18,8-23.8c5.3-5.8,12.3-8.7,21.1-8.7c8.8,0,15.8,2.9,21.1,8.7c5.3,5.8,8,13.7,8,23.8V76.7z
		 M293.1,51.2c0-5.5-1.1-9.8-3.2-12.8c-2.1-3-5-4.6-8.8-4.6c-3.8,0-6.7,1.5-8.8,4.6c-2.1,3-3.1,7.3-3.1,12.8v27.1c0,5.6,1,10,3.1,13
		c2.1,3,5,4.5,8.9,4.5c3.7,0,6.7-1.5,8.7-4.5c2.1-3,3.1-7.3,3.1-13V51.2z"/>
	<path class="st1" d="M379.7,76.7c0,10.1-2.7,18-8,23.8c-5.3,5.8-12.3,8.6-21.1,8.6c-8.8,0-15.9-2.9-21.2-8.6
		c-5.3-5.8-8-13.7-8-23.8V53c0-10.1,2.7-18,8-23.8c5.3-5.8,12.3-8.7,21.1-8.7c8.8,0,15.8,2.9,21.1,8.7s8,13.7,8,23.8V76.7z
		 M362.5,51.2c0-5.5-1.1-9.8-3.2-12.8c-2.1-3-5-4.6-8.8-4.6c-3.8,0-6.7,1.5-8.8,4.6c-2.1,3-3.1,7.3-3.1,12.8v27.1c0,5.6,1,10,3.1,13
		c2.1,3,5,4.5,8.9,4.5c3.7,0,6.7-1.5,8.7-4.5c2.1-3,3.1-7.3,3.1-13V51.2z"/>
	<path class="st1" d="M449.2,76.7c0,10.1-2.7,18-8,23.8c-5.3,5.8-12.3,8.6-21.1,8.6c-8.8,0-15.9-2.9-21.2-8.6
		c-5.3-5.8-8-13.7-8-23.8V53c0-10.1,2.7-18,8-23.8c5.3-5.8,12.3-8.7,21.1-8.7c8.8,0,15.8,2.9,21.1,8.7s8,13.7,8,23.8V76.7z
		 M432,51.2c0-5.5-1.1-9.8-3.2-12.8c-2.1-3-5-4.6-8.8-4.6c-3.8,0-6.7,1.5-8.8,4.6c-2.1,3-3.1,7.3-3.1,12.8v27.1c0,5.6,1,10,3.1,13
		c2.1,3,5,4.5,8.9,4.5c3.7,0,6.7-1.5,8.7-4.5c2.1-3,3.1-7.3,3.1-13V51.2z"/>
</g>
<g class="st0">
	<path class="st1" d="M23,195.6c0,3.3-0.7,5.9-2.2,7.9c-1.5,2-3.6,2.9-6.2,2.9c-1.6,0-2.9-0.3-4.1-0.9s-2.1-1.4-2.8-2.5v11.4H5.2
		v-30.6h2.1l0.3,3.4c0.7-1.2,1.7-2.2,2.8-2.8c1.2-0.7,2.5-1,4.1-1c2.7,0,4.7,1.1,6.2,3.2c1.5,2.1,2.2,4.9,2.2,8.5V195.6z
		 M20.5,195.1c0-2.8-0.6-5.1-1.7-6.9c-1.1-1.8-2.7-2.7-4.9-2.7c-1.6,0-3,0.4-4,1.2c-1,0.8-1.8,1.8-2.3,3.1v10.6
		c0.6,1.2,1.4,2.2,2.4,2.9s2.4,1,3.9,1c2.1,0,3.8-0.8,4.9-2.4c1.1-1.6,1.7-3.7,1.7-6.4V195.1z"/>
	<path class="st1" d="M38.6,186l-1.8-0.1c-1.5,0-2.8,0.4-3.8,1.3s-1.7,2.1-2.1,3.6V206h-2.4v-22.1h2.1l0.3,3.7v0.2
		c0.6-1.4,1.5-2.4,2.6-3.2c1.1-0.8,2.4-1.1,3.8-1.1c0.3,0,0.6,0,0.9,0.1c0.3,0,0.5,0.1,0.7,0.2L38.6,186z"/>
	<path class="st1" d="M40.9,194.6c0-3.3,0.9-5.9,2.7-8c1.8-2.1,4.1-3.1,7.1-3.1c3,0,5.3,1,7.1,3.1c1.8,2.1,2.7,4.7,2.7,8v0.7
		c0,3.3-0.9,5.9-2.7,8c-1.8,2.1-4.1,3.1-7.1,3.1c-3,0-5.3-1-7.1-3.1c-1.8-2.1-2.7-4.7-2.7-8V194.6z M43.4,195.3
		c0,2.6,0.6,4.7,1.9,6.4c1.3,1.7,3.1,2.6,5.4,2.6c2.3,0,4.1-0.9,5.4-2.6c1.3-1.7,1.9-3.9,1.9-6.4v-0.7c0-2.5-0.7-4.6-2-6.4
		c-1.3-1.8-3.1-2.6-5.4-2.6s-4.1,0.9-5.4,2.6c-1.3,1.8-1.9,3.9-1.9,6.4V195.3z"/>
	<path class="st1" d="M64.6,195.1c0-3.5,0.7-6.3,2.2-8.5s3.6-3.2,6.2-3.2c1.5,0,2.9,0.3,4,1c1.1,0.7,2.1,1.6,2.8,2.8v-13.1h2.4V206
		h-2.2l-0.2-3.2c-0.7,1.2-1.7,2.1-2.8,2.7c-1.2,0.6-2.5,0.9-4.1,0.9c-2.6,0-4.7-1-6.2-2.9c-1.5-2-2.2-4.6-2.2-7.9V195.1z M67,195.6
		c0,2.7,0.5,4.8,1.6,6.4c1.1,1.6,2.7,2.4,4.8,2.4c1.6,0,2.9-0.4,3.9-1.1c1.1-0.7,1.9-1.7,2.5-3v-10.4c-0.6-1.3-1.3-2.3-2.4-3.1
		c-1-0.8-2.4-1.2-4-1.2c-2.1,0-3.8,0.9-4.8,2.7c-1.1,1.8-1.6,4.1-1.6,6.9V195.6z"/>
	<path class="st1" d="M103.3,202.4c-0.7,1.3-1.7,2.3-2.9,3c-1.2,0.7-2.6,1.1-4.2,1.1c-2.3,0-4.1-0.8-5.5-2.4c-1.3-1.6-2-4-2-7.3
		v-12.8h2.4v12.9c0,2.7,0.5,4.6,1.4,5.8c0.9,1.2,2.2,1.8,3.9,1.8c1.8,0,3.3-0.4,4.4-1.2c1.1-0.8,1.9-2,2.3-3.4v-15.7h2.4V206h-2.2
		L103.3,202.4z"/>
	<path class="st1" d="M120.3,204.3c1.6,0,3-0.5,4.3-1.4c1.2-0.9,1.9-2.2,1.9-3.8h2.2l0,0.1c0.1,2-0.7,3.7-2.4,5.1
		c-1.7,1.4-3.7,2.1-5.9,2.1c-3,0-5.3-1-7-3.1c-1.6-2.1-2.5-4.7-2.5-7.9v-0.9c0-3.2,0.8-5.8,2.5-7.9c1.6-2.1,4-3.1,6.9-3.1
		c2.4,0,4.4,0.7,6.1,2.1c1.6,1.4,2.4,3.3,2.3,5.6l0,0.1h-2.2c0-1.8-0.6-3.2-1.8-4.2c-1.2-1.1-2.6-1.6-4.4-1.6
		c-2.4,0-4.1,0.8-5.3,2.5c-1.1,1.7-1.7,3.8-1.7,6.4v0.9c0,2.6,0.6,4.8,1.7,6.4C116.1,203.5,117.9,204.3,120.3,204.3z"/>
	<path class="st1" d="M141.9,204.3c1.6,0,3-0.5,4.3-1.4c1.2-0.9,1.9-2.2,1.9-3.8h2.2l0,0.1c0.1,2-0.7,3.7-2.4,5.1
		c-1.7,1.4-3.7,2.1-5.9,2.1c-3,0-5.3-1-7-3.1c-1.6-2.1-2.5-4.7-2.5-7.9v-0.9c0-3.2,0.8-5.8,2.5-7.9c1.6-2.1,4-3.1,6.9-3.1
		c2.4,0,4.4,0.7,6.1,2.1c1.6,1.4,2.4,3.3,2.3,5.6l0,0.1h-2.2c0-1.8-0.6-3.2-1.8-4.2c-1.2-1.1-2.6-1.6-4.4-1.6
		c-2.4,0-4.1,0.8-5.3,2.5c-1.1,1.7-1.7,3.8-1.7,6.4v0.9c0,2.6,0.6,4.8,1.7,6.4C137.8,203.5,139.5,204.3,141.9,204.3z"/>
	<path class="st1" d="M158.1,177.6h-2.4v-3.4h2.4V177.6z M158.1,206h-2.4v-22.1h2.4V206z"/>
	<path class="st1" d="M163.5,194.6c0-3.3,0.9-5.9,2.7-8c1.8-2.1,4.1-3.1,7.1-3.1c3,0,5.3,1,7.1,3.1c1.8,2.1,2.7,4.7,2.7,8v0.7
		c0,3.3-0.9,5.9-2.7,8c-1.8,2.1-4.1,3.1-7.1,3.1c-3,0-5.3-1-7.1-3.1c-1.8-2.1-2.7-4.7-2.7-8V194.6z M166,195.3
		c0,2.6,0.6,4.7,1.9,6.4c1.3,1.7,3.1,2.6,5.4,2.6c2.3,0,4.1-0.9,5.4-2.6c1.3-1.7,1.9-3.9,1.9-6.4v-0.7c0-2.5-0.7-4.6-2-6.4
		c-1.3-1.8-3.1-2.6-5.4-2.6s-4.1,0.9-5.4,2.6c-1.3,1.8-1.9,3.9-1.9,6.4V195.3z M176.2,175.4h3l0.1,0.1l-5.1,5.3H172L176.2,175.4z"/>
	<path class="st1" d="M190.3,183.9l0.2,3.9c0.7-1.4,1.7-2.4,2.9-3.2s2.6-1.1,4.3-1.1c2.4,0,4.2,0.7,5.5,2.2c1.3,1.5,1.9,3.7,1.9,6.8
		V206h-2.4v-13.5c0-2.5-0.5-4.3-1.4-5.4c-0.9-1-2.3-1.6-4-1.6c-1.7,0-3.1,0.5-4.2,1.4s-1.9,2.1-2.3,3.6V206h-2.4v-22.1H190.3z"/>
	<path class="st1" d="M235.5,206c-0.2-0.7-0.3-1.4-0.3-1.9c-0.1-0.5-0.1-1.1-0.1-1.7c-0.8,1.2-1.9,2.1-3.3,2.9s-2.9,1.1-4.6,1.1
		c-2.1,0-3.8-0.6-5-1.7c-1.2-1.1-1.8-2.7-1.8-4.6c0-2,0.9-3.7,2.6-4.9c1.8-1.2,4.1-1.8,7.1-1.8h4.9v-2.7c0-1.6-0.5-2.8-1.5-3.7
		c-1-0.9-2.4-1.3-4.3-1.3c-1.7,0-3.1,0.4-4.2,1.3c-1.1,0.9-1.7,1.9-1.7,3.1l-2.2,0l0-0.1c-0.1-1.6,0.7-3.1,2.3-4.4
		c1.6-1.3,3.6-1.9,6.1-1.9c2.4,0,4.4,0.6,5.9,1.9c1.5,1.2,2.2,3,2.2,5.3v10.9c0,0.8,0,1.5,0.1,2.3c0.1,0.7,0.2,1.5,0.4,2.2H235.5z
		 M227.5,204.3c1.8,0,3.3-0.4,4.7-1.2c1.3-0.8,2.3-1.9,2.9-3.2v-4.6h-4.9c-2.2,0-4,0.5-5.3,1.4c-1.3,0.9-2,2.1-2,3.5
		c0,1.2,0.4,2.2,1.2,2.9S226.1,204.3,227.5,204.3z"/>
	<path class="st1" d="M246.2,183.9l0.2,3.9c0.7-1.4,1.7-2.4,2.9-3.2s2.6-1.1,4.3-1.1c2.4,0,4.2,0.7,5.5,2.2c1.3,1.5,1.9,3.7,1.9,6.8
		V206h-2.4v-13.5c0-2.5-0.5-4.3-1.4-5.4c-0.9-1-2.3-1.6-4-1.6c-1.7,0-3.1,0.5-4.2,1.4s-1.9,2.1-2.3,3.6V206H244v-22.1H246.2z"/>
	<path class="st1" d="M281.8,202.4c-0.7,1.3-1.7,2.3-2.9,3c-1.2,0.7-2.6,1.1-4.2,1.1c-2.3,0-4.1-0.8-5.5-2.4c-1.3-1.6-2-4-2-7.3
		v-12.8h2.4v12.9c0,2.7,0.5,4.6,1.4,5.8c0.9,1.2,2.2,1.8,3.9,1.8c1.8,0,3.3-0.4,4.4-1.2c1.1-0.8,1.9-2,2.3-3.4v-15.7h2.4V206H282
		L281.8,202.4z"/>
	<path class="st1" d="M304.5,206c-0.2-0.7-0.3-1.4-0.3-1.9c-0.1-0.5-0.1-1.1-0.1-1.7c-0.8,1.2-1.9,2.1-3.3,2.9s-2.9,1.1-4.6,1.1
		c-2.1,0-3.8-0.6-5-1.7c-1.2-1.1-1.8-2.7-1.8-4.6c0-2,0.9-3.7,2.6-4.9c1.8-1.2,4.1-1.8,7.1-1.8h4.9v-2.7c0-1.6-0.5-2.8-1.5-3.7
		c-1-0.9-2.4-1.3-4.3-1.3c-1.7,0-3.1,0.4-4.2,1.3c-1.1,0.9-1.7,1.9-1.7,3.1l-2.2,0l0-0.1c-0.1-1.6,0.7-3.1,2.3-4.4s3.6-1.9,6.1-1.9
		c2.4,0,4.4,0.6,5.9,1.9s2.2,3,2.2,5.3v10.9c0,0.8,0,1.5,0.1,2.3c0.1,0.7,0.2,1.5,0.4,2.2H304.5z M296.5,204.3
		c1.8,0,3.3-0.4,4.7-1.2s2.3-1.9,2.9-3.2v-4.6h-4.9c-2.2,0-4,0.5-5.3,1.4c-1.3,0.9-2,2.1-2,3.5c0,1.2,0.4,2.2,1.2,2.9
		S295.1,204.3,296.5,204.3z"/>
	<path class="st1" d="M315.8,206h-2.4v-31.8h2.4V206z"/>
	<path class="st1" d="M341,206.4c-2.8,0-5.1-1-6.9-3.1c-1.8-2-2.7-4.6-2.7-7.8v-1.1c0-3.2,0.9-5.8,2.7-7.9c1.8-2.1,4-3.1,6.6-3.1
		c2.7,0,4.8,0.9,6.4,2.6c1.6,1.7,2.3,4,2.3,6.9v2.1h-15.6v0.6c0,2.5,0.7,4.6,2,6.2c1.3,1.7,3.1,2.5,5.2,2.5c1.5,0,2.8-0.2,3.9-0.6
		c1.1-0.4,2-1,2.8-1.8l1,1.7c-0.8,0.9-1.9,1.6-3.2,2.1C344.2,206.2,342.7,206.4,341,206.4z M340.7,185.6c-1.8,0-3.3,0.7-4.6,2.1
		s-1.9,3.1-2.1,5.2l0,0.1h12.9v-0.6c0-1.9-0.6-3.5-1.7-4.8C344.1,186.2,342.6,185.6,340.7,185.6z"/>
	<path class="st1" d="M367.4,200.4c0-1-0.4-1.9-1.3-2.7c-0.9-0.8-2.4-1.4-4.6-1.9c-2.6-0.6-4.6-1.3-5.8-2.3c-1.3-0.9-1.9-2.3-1.9-4
		c0-1.7,0.7-3.1,2.1-4.3c1.4-1.2,3.3-1.7,5.6-1.7c2.5,0,4.5,0.6,5.9,1.8c1.5,1.2,2.1,2.8,2.1,4.6l0,0.1h-2.3c0-1.2-0.5-2.3-1.5-3.2
		c-1-0.9-2.4-1.3-4.2-1.3c-1.8,0-3.1,0.4-4,1.1c-0.9,0.8-1.3,1.7-1.3,2.7c0,1,0.4,1.9,1.2,2.5c0.8,0.7,2.3,1.2,4.6,1.7
		c2.6,0.6,4.6,1.4,5.9,2.4c1.3,1,2,2.4,2,4.1c0,1.8-0.7,3.3-2.2,4.5c-1.5,1.1-3.5,1.7-5.9,1.7c-2.7,0-4.8-0.6-6.3-1.9
		c-1.5-1.3-2.3-2.8-2.2-4.6l0-0.1h2.2c0.1,1.6,0.7,2.7,1.9,3.5s2.6,1.1,4.3,1.1c1.8,0,3.2-0.4,4.2-1.2
		C366.9,202.4,367.4,201.5,367.4,200.4z"/>
	<path class="st1" d="M379.3,178.3v5.7h4.9v2h-4.9v14.4c0,1.4,0.3,2.5,0.8,3.1c0.5,0.6,1.2,0.9,2.1,0.9c0.4,0,0.8,0,1.2-0.1
		c0.4,0,0.8-0.1,1.3-0.2l0.4,1.8c-0.4,0.2-0.9,0.3-1.5,0.4c-0.6,0.1-1.2,0.1-1.8,0.1c-1.6,0-2.8-0.5-3.6-1.5c-0.9-1-1.3-2.5-1.3-4.7
		v-14.4H373v-2h3.8v-5.7H379.3z"/>
	<path class="st1" d="M392.1,177.6h-2.4v-3.4h2.4V177.6z M392.1,206h-2.4v-22.1h2.4V206z"/>
	<path class="st1" d="M400.9,183.9l0.2,3.7c0.7-1.3,1.6-2.3,2.8-3s2.6-1.1,4.2-1.1c1.7,0,3.1,0.4,4.2,1.2s1.9,2.1,2.4,3.7
		c0.7-1.6,1.6-2.8,2.8-3.6s2.7-1.3,4.5-1.3c2.4,0,4.2,0.8,5.4,2.3s1.9,4,1.9,7.3V206h-2.4v-12.9c0-2.7-0.5-4.7-1.4-5.8
		c-1-1.1-2.3-1.7-4-1.7c-1.9,0-3.4,0.6-4.4,1.8c-1,1.2-1.7,2.7-1.9,4.6c0,0.1,0,0.2,0,0.4c0,0.2,0,0.3,0,0.4V206h-2.5v-12.9
		c0-2.7-0.5-4.6-1.5-5.7c-1-1.2-2.3-1.7-4-1.7c-1.7,0-3.1,0.4-4.1,1.3c-1,0.9-1.7,2.1-2.1,3.5V206h-2.5v-22.1H400.9z"/>
	<path class="st1" d="M449.9,206c-0.2-0.7-0.3-1.4-0.3-1.9s-0.1-1.1-0.1-1.7c-0.8,1.2-1.9,2.1-3.3,2.9s-2.9,1.1-4.6,1.1
		c-2.2,0-3.8-0.6-5-1.7c-1.2-1.1-1.8-2.7-1.8-4.6c0-2,0.9-3.7,2.6-4.9c1.8-1.2,4.1-1.8,7.1-1.8h4.9v-2.7c0-1.6-0.5-2.8-1.5-3.7
		c-1-0.9-2.4-1.3-4.3-1.3c-1.7,0-3.1,0.4-4.2,1.3s-1.7,1.9-1.7,3.1l-2.2,0l0-0.1c-0.1-1.6,0.7-3.1,2.3-4.4c1.6-1.3,3.6-1.9,6-1.9
		c2.4,0,4.4,0.6,5.9,1.9c1.5,1.2,2.2,3,2.2,5.3v10.9c0,0.8,0,1.5,0.1,2.3s0.2,1.5,0.4,2.2H449.9z M441.9,204.3
		c1.8,0,3.3-0.4,4.7-1.2c1.3-0.8,2.3-1.9,2.9-3.2v-4.6h-4.9c-2.2,0-4,0.5-5.3,1.4s-2,2.1-2,3.5c0,1.2,0.4,2.2,1.2,2.9
		S440.4,204.3,441.9,204.3z"/>
	<path class="st1" d="M457.4,195.1c0-3.5,0.7-6.3,2.2-8.5c1.5-2.1,3.6-3.2,6.2-3.2c1.5,0,2.9,0.3,4,1c1.1,0.7,2.1,1.6,2.8,2.8v-13.1
		h2.4V206H473l-0.2-3.2c-0.7,1.2-1.7,2.1-2.8,2.7c-1.2,0.6-2.5,0.9-4.1,0.9c-2.6,0-4.7-1-6.2-2.9c-1.5-2-2.2-4.6-2.2-7.9V195.1z
		 M459.9,195.6c0,2.7,0.5,4.8,1.6,6.4s2.7,2.4,4.8,2.4c1.6,0,2.9-0.4,3.9-1.1c1.1-0.7,1.9-1.7,2.5-3v-10.4c-0.6-1.3-1.3-2.3-2.4-3.1
		c-1-0.8-2.4-1.2-4-1.2c-2.1,0-3.8,0.9-4.8,2.7c-1.1,1.8-1.6,4.1-1.6,6.9V195.6z"/>
	<path class="st1" d="M495.6,206c-0.2-0.7-0.3-1.4-0.3-1.9c-0.1-0.5-0.1-1.1-0.1-1.7c-0.8,1.2-1.9,2.1-3.3,2.9s-2.9,1.1-4.6,1.1
		c-2.1,0-3.8-0.6-5-1.7c-1.2-1.1-1.8-2.7-1.8-4.6c0-2,0.9-3.7,2.6-4.9c1.8-1.2,4.1-1.8,7.1-1.8h4.9v-2.7c0-1.6-0.5-2.8-1.5-3.7
		c-1-0.9-2.4-1.3-4.3-1.3c-1.7,0-3.1,0.4-4.2,1.3c-1.1,0.9-1.7,1.9-1.7,3.1l-2.2,0l0-0.1c-0.1-1.6,0.7-3.1,2.3-4.4s3.6-1.9,6.1-1.9
		c2.4,0,4.4,0.6,5.9,1.9s2.2,3,2.2,5.3v10.9c0,0.8,0,1.5,0.1,2.3c0.1,0.7,0.2,1.5,0.4,2.2H495.6z M487.6,204.3
		c1.8,0,3.3-0.4,4.7-1.2s2.3-1.9,2.9-3.2v-4.6h-4.9c-2.2,0-4,0.5-5.3,1.4c-1.3,0.9-2,2.1-2,3.5c0,1.2,0.4,2.2,1.2,2.9
		S486.1,204.3,487.6,204.3z"/>
</g>
<g class="st0">
	<path class="st1" d="M14.9,124.2v6.8h4.7v5.3h-4.7v14.2c0,1.1,0.2,1.9,0.7,2.3c0.5,0.5,1.1,0.7,1.8,0.7c0.4,0,0.7,0,1-0.1
		c0.3,0,0.6-0.1,1-0.2l0.6,5.4c-0.8,0.3-1.5,0.5-2.2,0.6s-1.5,0.2-2.3,0.2c-2.6,0-4.6-0.7-6-2.1c-1.4-1.4-2.1-3.7-2.1-6.8v-14.2H3.3
		v-5.3h4.1v-6.8H14.9z"/>
	<path class="st1" d="M23.1,144.8c0-4.2,1.2-7.6,3.5-10.2c2.3-2.7,5.5-4,9.6-4c4.1,0,7.4,1.3,9.7,4c2.3,2.6,3.5,6.1,3.5,10.2v0.5
		c0,4.2-1.2,7.6-3.5,10.3c-2.3,2.6-5.6,4-9.7,4c-4.1,0-7.4-1.3-9.7-4c-2.3-2.6-3.5-6.1-3.5-10.3V144.8z M30.6,145.3
		c0,2.5,0.4,4.6,1.3,6.1c0.9,1.5,2.3,2.3,4.3,2.3c1.9,0,3.4-0.8,4.3-2.3c0.9-1.5,1.4-3.6,1.4-6.1v-0.5c0-2.5-0.5-4.5-1.4-6.1
		c-0.9-1.6-2.3-2.3-4.3-2.3c-1.9,0-3.4,0.8-4.3,2.4c-0.9,1.6-1.4,3.6-1.4,6V145.3z"/>
	<path class="st1" d="M61,131.1l0.3,4c0.9-1.4,2.1-2.5,3.4-3.3c1.4-0.8,2.9-1.2,4.6-1.2c2.8,0,5,0.9,6.6,2.7
		c1.6,1.8,2.4,4.7,2.4,8.6V159h-7.6v-17.1c0-2-0.3-3.4-1-4.2c-0.7-0.8-1.7-1.3-3.1-1.3c-1.1,0-2.1,0.2-3,0.6c-0.9,0.4-1.6,1-2.1,1.7
		V159H54v-27.9H61z"/>
	<path class="st1" d="M96,159.5c-4.2,0-7.4-1.3-9.8-3.8c-2.3-2.6-3.5-5.8-3.5-9.9v-1c0-4.2,1.1-7.6,3.4-10.3s5.4-4,9.4-4
		c3.7,0,6.6,1.1,8.6,3.4c2,2.3,3,5.4,3,9.3v3.9H90.5l-0.1,0.2c0.1,1.9,0.7,3.5,1.7,4.6c1,1.2,2.6,1.8,4.6,1.8c1.7,0,3.1-0.2,4.3-0.5
		c1.2-0.3,2.4-0.9,3.7-1.6l2,4.6c-1.1,0.9-2.6,1.7-4.5,2.3S98.3,159.5,96,159.5z M95.5,136.4c-1.5,0-2.7,0.5-3.5,1.6
		c-0.8,1-1.3,2.4-1.5,4.1l0.1,0.1h9.2v-0.6c0-1.6-0.3-2.9-1-3.9S97,136.4,95.5,136.4z"/>
	<path class="st1" d="M119.5,159H112v-40.2h7.5V159z"/>
	<path class="st1" d="M142.1,159c-0.3-0.6-0.5-1.3-0.7-2c-0.2-0.7-0.3-1.4-0.4-2.2c-0.8,1.4-1.8,2.5-3.1,3.4s-2.8,1.3-4.5,1.3
		c-2.9,0-5.2-0.8-6.8-2.3c-1.6-1.5-2.4-3.6-2.4-6.2c0-2.7,1.1-4.9,3.2-6.4s5.2-2.3,9.2-2.3h4.2v-2.2c0-1.3-0.4-2.4-1.1-3.1
		c-0.7-0.7-1.8-1.1-3.1-1.1c-1.2,0-2.2,0.3-2.8,0.9c-0.7,0.6-1,1.4-1,2.4h-7.2l-0.1-0.2c-0.1-2.4,0.9-4.4,3.1-6.1
		c2.2-1.7,5-2.6,8.5-2.6c3.4,0,6.1,0.8,8.1,2.5c2.1,1.7,3.1,4.1,3.1,7.2v11.5c0,1.3,0.1,2.5,0.3,3.7s0.5,2.3,0.9,3.4H142.1z
		 M135.3,154c1.3,0,2.5-0.3,3.5-1c1-0.7,1.7-1.4,2.1-2.3v-3.9h-4.2c-1.6,0-2.8,0.4-3.6,1.2s-1.2,1.8-1.2,2.9c0,0.9,0.3,1.7,0.9,2.3
		C133.3,153.7,134.2,154,135.3,154z"/>
	<path class="st1" d="M152.9,145.3c0-4.4,1-8,2.9-10.7c1.9-2.7,4.6-4.1,8-4.1c1.4,0,2.6,0.3,3.8,0.9c1.1,0.6,2.1,1.5,2.9,2.6v-15.3
		h7.6V159h-6.4l-0.6-3.4c-0.9,1.3-1.9,2.3-3.1,3c-1.2,0.7-2.6,1-4.1,1c-3.4,0-6.1-1.3-8-3.8c-1.9-2.5-2.9-5.8-2.9-10V145.3z
		 M160.4,145.8c0,2.4,0.4,4.4,1.2,5.8c0.8,1.4,2.2,2.1,4,2.1c1.1,0,2-0.2,2.8-0.7s1.5-1.1,2-1.9v-11.9c-0.5-0.9-1.2-1.6-2-2.1
		s-1.7-0.7-2.8-0.7c-1.8,0-3.2,0.8-4,2.5c-0.9,1.6-1.3,3.8-1.3,6.4V145.8z"/>
	<path class="st1" d="M200.3,159c-0.3-0.6-0.5-1.3-0.7-2c-0.2-0.7-0.3-1.4-0.4-2.2c-0.8,1.4-1.8,2.5-3.1,3.4s-2.8,1.3-4.5,1.3
		c-2.9,0-5.2-0.8-6.8-2.3c-1.6-1.5-2.4-3.6-2.4-6.2c0-2.7,1.1-4.9,3.2-6.4s5.2-2.3,9.2-2.3h4.2v-2.2c0-1.3-0.4-2.4-1.1-3.1
		c-0.7-0.7-1.8-1.1-3.1-1.1c-1.2,0-2.2,0.3-2.8,0.9c-0.7,0.6-1,1.4-1,2.4h-7.2l-0.1-0.2c-0.1-2.4,0.9-4.4,3.1-6.1
		c2.2-1.7,5-2.6,8.5-2.6c3.4,0,6.1,0.8,8.1,2.5c2.1,1.7,3.1,4.1,3.1,7.2v11.5c0,1.3,0.1,2.5,0.3,3.7s0.5,2.3,0.9,3.4H200.3z
		 M193.5,154c1.3,0,2.5-0.3,3.5-1c1-0.7,1.7-1.4,2.1-2.3v-3.9h-4.2c-1.6,0-2.8,0.4-3.6,1.2s-1.2,1.8-1.2,2.9c0,0.9,0.3,1.7,0.9,2.3
		C191.5,153.7,192.4,154,193.5,154z"/>
	<path class="st1" d="M227.4,151.3c0-0.8-0.4-1.5-1.2-2.1c-0.8-0.6-2.3-1.1-4.5-1.6c-3.3-0.7-5.7-1.6-7.4-3
		c-1.7-1.3-2.5-3.1-2.5-5.4c0-2.4,1-4.4,3-6.1c2-1.7,4.7-2.5,8.1-2.5c3.5,0,6.4,0.8,8.5,2.5c2.1,1.7,3.1,3.8,3.1,6.3l-0.1,0.2h-7.3
		c0-1.1-0.4-2-1.1-2.7c-0.7-0.7-1.8-1.1-3.1-1.1c-1.2,0-2.2,0.3-2.9,0.9c-0.7,0.6-1.1,1.3-1.1,2.2c0,0.9,0.4,1.6,1.1,2.1
		c0.7,0.5,2.2,1,4.5,1.5c3.4,0.7,6,1.7,7.6,3c1.7,1.3,2.5,3.2,2.5,5.5c0,2.5-1.1,4.6-3.2,6.2c-2.2,1.6-5,2.4-8.5,2.4
		c-3.7,0-6.7-0.9-8.8-2.8c-2.2-1.9-3.2-4-3.1-6.4l0.1-0.2h6.9c0.1,1.5,0.5,2.6,1.5,3.3s2.1,1,3.6,1c1.4,0,2.5-0.3,3.2-0.8
		C227,153,227.4,152.2,227.4,151.3z"/>
	<path class="st1" d="M251.5,145.3c0-4.4,1-8,2.9-10.7c1.9-2.7,4.6-4.1,8-4.1c1.4,0,2.6,0.3,3.8,0.9c1.1,0.6,2.1,1.5,2.9,2.6v-15.3
		h7.6V159h-6.4l-0.6-3.4c-0.9,1.3-1.9,2.3-3.1,3c-1.2,0.7-2.6,1-4.1,1c-3.4,0-6.1-1.3-8-3.8c-1.9-2.5-2.9-5.8-2.9-10V145.3z
		 M259,145.8c0,2.4,0.4,4.4,1.2,5.8c0.8,1.4,2.2,2.1,4,2.1c1.1,0,2-0.2,2.8-0.7s1.5-1.1,2-1.9v-11.9c-0.5-0.9-1.2-1.6-2-2.1
		s-1.7-0.7-2.8-0.7c-1.8,0-3.2,0.8-4,2.5c-0.9,1.6-1.3,3.8-1.3,6.4V145.8z"/>
	<path class="st1" d="M294.6,159.5c-4.2,0-7.4-1.3-9.8-3.8c-2.3-2.6-3.5-5.8-3.5-9.9v-1c0-4.2,1.1-7.6,3.4-10.3s5.4-4,9.4-4
		c3.8,0,6.6,1.1,8.6,3.4c2,2.3,3,5.4,3,9.3v3.9h-16.6l-0.1,0.2c0.1,1.9,0.7,3.5,1.7,4.6c1,1.2,2.6,1.8,4.6,1.8
		c1.7,0,3.1-0.2,4.3-0.5c1.2-0.3,2.4-0.9,3.7-1.6l2,4.6c-1.1,0.9-2.6,1.7-4.5,2.3C298.9,159.2,296.8,159.5,294.6,159.5z
		 M294.1,136.4c-1.5,0-2.7,0.5-3.5,1.6c-0.8,1-1.3,2.4-1.5,4.1l0.1,0.1h9.2v-0.6c0-1.6-0.3-2.9-1-3.9S295.6,136.4,294.1,136.4z"/>
	<path class="st1" d="M334.9,153.8c1.3,0,2.3-0.4,3.1-1.2c0.8-0.8,1.2-1.8,1.2-3.1h6.9l0.1,0.2c0.1,2.8-1,5.2-3.1,7.1
		c-2.2,1.9-4.8,2.9-8,2.9c-4.1,0-7.3-1.3-9.6-4c-2.3-2.6-3.4-6-3.4-10.1v-0.8c0-4.1,1.1-7.5,3.4-10.1s5.4-4,9.5-4
		c3.4,0,6.1,1,8.2,2.9s3.1,4.5,3,7.7l-0.1,0.2h-6.9c0-1.4-0.4-2.6-1.1-3.6c-0.8-1-1.8-1.4-3.2-1.4c-1.9,0-3.3,0.8-4.1,2.3
		c-0.8,1.6-1.2,3.5-1.2,6v0.8c0,2.5,0.4,4.5,1.2,6C331.6,153,333,153.8,334.9,153.8z"/>
	<path class="st1" d="M349.4,144.8c0-4.2,1.2-7.6,3.5-10.2c2.3-2.7,5.5-4,9.7-4c4.1,0,7.4,1.3,9.7,4s3.5,6.1,3.5,10.2v0.5
		c0,4.2-1.2,7.6-3.5,10.3c-2.3,2.6-5.6,4-9.7,4c-4.1,0-7.4-1.3-9.7-4c-2.3-2.6-3.5-6.1-3.5-10.3V144.8z M356.9,145.3
		c0,2.5,0.4,4.6,1.3,6.1c0.9,1.5,2.3,2.3,4.3,2.3c1.9,0,3.4-0.8,4.3-2.3c0.9-1.5,1.4-3.6,1.4-6.1v-0.5c0-2.5-0.5-4.5-1.4-6.1
		c-0.9-1.6-2.3-2.3-4.3-2.3c-1.9,0-3.4,0.8-4.3,2.4c-0.9,1.6-1.4,3.6-1.4,6V145.3z"/>
	<path class="st1" d="M405.5,145.8c0,4.2-0.9,7.5-2.8,10s-4.5,3.7-8,3.7c-1.6,0-3.1-0.3-4.3-1c-1.2-0.7-2.2-1.7-3.1-3l-0.6,3.5h-6.4
		v-40.2h7.5v15.3c0.8-1.1,1.8-2,2.9-2.6c1.1-0.6,2.4-0.9,3.9-0.9c3.5,0,6.2,1.3,8.1,4c1.9,2.7,2.8,6.2,2.8,10.7V145.8z M398,145.3
		c0-2.7-0.4-4.9-1.2-6.5c-0.8-1.6-2.2-2.4-4.1-2.4c-1.2,0-2.2,0.2-3,0.7c-0.8,0.5-1.4,1.2-1.9,2.1v11.8c0.5,0.8,1.1,1.5,1.9,1.9
		s1.8,0.7,3,0.7c1.9,0,3.3-0.7,4.1-2.1c0.8-1.4,1.2-3.3,1.2-5.8V145.3z"/>
	<path class="st1" d="M424.9,137.6l-2.8-0.1c-1.1,0-2,0.2-2.8,0.7c-0.7,0.5-1.3,1.1-1.7,2V159h-7.5v-27.9h7l0.3,4.1
		c0.7-1.5,1.5-2.6,2.5-3.4c1-0.8,2.2-1.2,3.6-1.2c0.4,0,0.7,0,1,0.1c0.3,0.1,0.6,0.1,1,0.2L424.9,137.6z"/>
	<path class="st1" d="M440.4,159.5c-4.2,0-7.4-1.3-9.8-3.8c-2.3-2.6-3.5-5.8-3.5-9.9v-1c0-4.2,1.1-7.6,3.4-10.3s5.4-4,9.4-4
		c3.7,0,6.6,1.1,8.6,3.4s3,5.4,3,9.3v3.9h-16.6l-0.1,0.2c0.1,1.9,0.7,3.5,1.7,4.6c1,1.2,2.6,1.8,4.6,1.8c1.7,0,3.1-0.2,4.3-0.5
		c1.2-0.3,2.4-0.9,3.7-1.6l2,4.6c-1.1,0.9-2.6,1.7-4.5,2.3C444.7,159.2,442.6,159.5,440.4,159.5z M439.9,136.4
		c-1.5,0-2.7,0.5-3.5,1.6c-0.8,1-1.3,2.4-1.5,4.1l0.1,0.1h9.2v-0.6c0-1.6-0.3-2.9-1-3.9S441.4,136.4,439.9,136.4z"/>
</g>
</svg>
