<?xml version="1.0" encoding="utf-8"?>
<!-- Generator: Adobe Illustrator 22.1.0, SVG Export Plug-In . SVG Version: 6.00 Build 0)  -->
<svg version="1.1" id="Capa_1" xmlns="http://www.w3.org/2000/svg" xmlns:xlink="http://www.w3.org/1999/xlink" x="0px" y="0px"
	 viewBox="0 0 579 213" style="enable-background:new 0 0 579 213;" xml:space="preserve">
<style type="text/css">
	.st0{enable-background:new    ;}
	.st1{fill:#54515C;}
</style>
<g class="st0">
	<path class="st1" d="M72.7,115.5H9.9v-12.3l29-32.8c4.3-5.1,7.4-9.4,9.2-12.9c1.8-3.6,2.7-6.7,2.7-9.8c0-3.8-1-6.9-2.9-9.2
		c-2-2.3-4.8-3.5-8.7-3.5c-4,0-7.2,1.5-9.4,4.5c-2.3,2.9-3.4,6.7-3.4,11.2H8.3l-0.1-0.3c-0.2-8.3,2.5-15.3,8.3-21.1
		c5.6-5.8,13.4-8.7,22.9-8.7s17,2.5,22.4,7.4s7.9,11.5,7.9,19.8c0,5.6-1.5,10.7-4.5,15.3c-2.9,4.7-8.1,11.1-15.4,19.2l-15.4,18.5
		l0.1,0.3h38.2C72.7,101.1,72.7,115.5,72.7,115.5z"/>
	<path class="st1" d="M105.9,115.5H87.1V99h18.8V115.5z"/>
	<path class="st1" d="M159.1,20.6c3.7,0,7.1,0.3,10.1,1c3.1,0.7,6.2,1.6,9.2,2.9l-3.4,13.8c-2.9-1-5.5-1.7-7.8-2.2
		c-2.3-0.5-5-0.8-8-0.8c-5.4,0-9.9,2.1-13.2,6.3c-3.4,4.2-5,10-5,17.5v3c2.5-2.4,5.4-4.3,8.9-5.6s7.3-2.1,11.5-2.1
		c8,0,14.2,2.8,18.8,8.5c4.5,5.6,6.7,13,6.7,22.2c0,9.3-2.9,17-8.7,22.8c-5.9,5.9-13.5,8.8-22.8,8.8c-9.8,0-17.7-3.4-23.9-10
		c-6.2-6.6-9.2-15.9-9.2-27.4V59.8c0-11.8,3.5-21.4,10.4-28.4C139.7,24.2,148.5,20.6,159.1,20.6z M155.1,68.7
		c-3.4,0-6.3,0.5-8.7,1.6c-2.4,1.1-4.2,2.6-5.5,4.6v5c0,7.2,1.3,12.7,3.9,16.7c2.6,3.9,6.1,5.9,10.4,5.9c3.9,0,6.9-1.6,9.3-4.9
		c2.3-3.3,3.5-7.4,3.5-12.4c0-5.1-1.2-9.1-3.5-12.1C162.3,70.1,159.1,68.7,155.1,68.7z"/>
	<path class="st1" d="M261,81.7c0,11-2.9,19.5-8.7,25.8c-5.8,6.3-13.4,9.3-22.9,9.3s-17.3-3.1-23-9.3c-5.8-6.3-8.7-14.9-8.7-25.8
		V55.9c0-11,2.9-19.5,8.7-25.8s13.4-9.4,22.9-9.4s17.2,3.1,22.9,9.4s8.7,14.9,8.7,25.8v25.7H261z M242.3,54c0-6-1.2-10.6-3.5-13.9
		c-2.3-3.3-5.4-5-9.6-5c-4.1,0-7.3,1.6-9.6,5c-2.3,3.3-3.4,7.9-3.4,13.9v29.4c0,6.1,1.1,10.9,3.4,14.1c2.3,3.3,5.4,4.9,9.7,4.9
		c4,0,7.3-1.6,9.4-4.9c2.3-3.3,3.4-7.9,3.4-14.1V54H242.3z"/>
	<path class="st1" d="M336.4,81.7c0,11-2.9,19.5-8.7,25.8s-13.4,9.3-22.9,9.3c-9.6,0-17.3-3.1-23-9.3c-5.8-6.3-8.7-14.9-8.7-25.8
		V55.9c0-11,2.9-19.5,8.7-25.8c5.8-6.3,13.4-9.4,22.9-9.4c9.6,0,17.2,3.1,22.9,9.4c5.8,6.3,8.7,14.9,8.7,25.8v25.7H336.4z M317.7,54
		c0-6-1.2-10.6-3.5-13.9c-2.3-3.3-5.4-5-9.6-5c-4.1,0-7.3,1.6-9.6,5c-2.3,3.3-3.4,7.9-3.4,13.9v29.4c0,6.1,1.1,10.9,3.4,14.1
		c2.3,3.3,5.4,4.9,9.7,4.9c4,0,7.3-1.6,9.4-4.9c2.3-3.3,3.4-7.9,3.4-14.1V54H317.7z"/>
</g>
<g class="st0">
	<path class="st1" d="M4.3,195.1c0-3.5,0.7-6.3,2.2-8.5s3.6-3.2,6.2-3.2c1.5,0,2.9,0.3,4,1s2.1,1.6,2.8,2.8v-13.1H22V206h-2.2
		l-0.2-3.2c-0.7,1.2-1.7,2.1-2.8,2.7c-1.2,0.6-2.5,0.9-4.1,0.9c-2.6,0-4.7-1-6.2-2.9c-1.5-2-2.2-4.6-2.2-7.9
		C4.3,195.6,4.3,195.1,4.3,195.1z M6.7,195.6c0,2.7,0.5,4.8,1.6,6.4c1.1,1.6,2.7,2.4,4.8,2.4c1.6,0,2.9-0.4,3.9-1.1
		c1.1-0.7,1.9-1.7,2.5-3v-10.4c-0.6-1.3-1.3-2.3-2.4-3.1c-1-0.8-2.4-1.2-4-1.2c-2.1,0-3.8,0.9-4.8,2.7c-1.1,1.8-1.6,4.1-1.6,6.9
		C6.7,195.2,6.7,195.6,6.7,195.6z"/>
	<path class="st1" d="M42.9,202.4c-0.7,1.3-1.7,2.3-2.9,3s-2.6,1.1-4.2,1.1c-2.3,0-4.1-0.8-5.5-2.4c-1.3-1.6-2-4-2-7.3V184h2.4v12.9
		c0,2.7,0.5,4.6,1.4,5.8c0.9,1.2,2.2,1.8,3.9,1.8c1.8,0,3.3-0.4,4.4-1.2c1.1-0.8,1.9-2,2.3-3.4v-15.7h2.4V206h-2.2V202.4z"/>
	<path class="st1" d="M61.9,186l-1.8-0.1c-1.5,0-2.8,0.4-3.8,1.3s-1.7,2.1-2.1,3.6V206h-2.4v-22.1h2.1l0.3,3.7v0.2
		c0.6-1.4,1.5-2.4,2.6-3.2s2.4-1.1,3.8-1.1c0.3,0,0.6,0,0.9,0.1c0.3,0,0.5,0.1,0.7,0.2L61.9,186z"/>
	<path class="st1" d="M79.9,206c-0.2-0.7-0.3-1.4-0.3-1.9c-0.1-0.5-0.1-1.1-0.1-1.7c-0.8,1.2-1.9,2.1-3.3,2.9s-2.9,1.1-4.6,1.1
		c-2.1,0-3.8-0.6-5-1.7c-1.2-1.1-1.8-2.7-1.8-4.6c0-2,0.9-3.7,2.6-4.9c1.8-1.2,4.1-1.8,7.1-1.8h4.9v-2.7c0-1.6-0.5-2.8-1.5-3.7
		s-2.4-1.3-4.3-1.3c-1.7,0-3.1,0.4-4.2,1.3c-1.1,0.9-1.7,1.9-1.7,3.1h-2.2V190c-0.1-1.6,0.7-3.1,2.3-4.4c1.6-1.3,3.6-1.9,6.1-1.9
		c2.4,0,4.4,0.6,5.9,1.9c1.5,1.2,2.2,3,2.2,5.3v10.9c0,0.8,0,1.5,0.1,2.3c0.1,0.7,0.2,1.5,0.4,2.2h-2.6V206z M71.9,204.3
		c1.8,0,3.3-0.4,4.7-1.2c1.3-0.8,2.3-1.9,2.9-3.2v-4.6h-4.9c-2.2,0-4,0.5-5.3,1.4s-2,2.1-2,3.5c0,1.2,0.4,2.2,1.2,2.9
		S70.5,204.3,71.9,204.3z"/>
	<path class="st1" d="M90.6,183.9l0.2,3.9c0.7-1.4,1.7-2.4,2.9-3.2s2.6-1.1,4.3-1.1c2.4,0,4.2,0.7,5.5,2.2s1.9,3.7,1.9,6.8V206H103
		v-13.5c0-2.5-0.5-4.3-1.4-5.4c-0.9-1-2.3-1.6-4-1.6s-3.1,0.5-4.2,1.4s-1.9,2.1-2.3,3.6V206h-2.4v-22.1H90.6z"/>
	<path class="st1" d="M115.5,178.3v5.7h4.9v2h-4.9v14.4c0,1.4,0.3,2.5,0.8,3.1s1.2,0.9,2.1,0.9c0.4,0,0.8,0,1.2-0.1
		c0.4,0,0.8-0.1,1.3-0.2l0.4,1.8c-0.4,0.2-0.9,0.3-1.5,0.4c-0.6,0.1-1.2,0.1-1.8,0.1c-1.6,0-2.8-0.5-3.6-1.5s-1.3-2.5-1.3-4.7v-14.4
		h-3.8v-2h3.8v-5.7h2.4V178.3z"/>
	<path class="st1" d="M133.9,206.4c-2.8,0-5.1-1-6.9-3.1c-1.8-2-2.7-4.6-2.7-7.8v-1.1c0-3.2,0.9-5.8,2.7-7.9c1.8-2.1,4-3.1,6.6-3.1
		c2.7,0,4.8,0.9,6.4,2.6c1.6,1.7,2.3,4,2.3,6.9v2.1h-15.6v0.6c0,2.5,0.7,4.6,2,6.2c1.3,1.7,3.1,2.5,5.2,2.5c1.5,0,2.8-0.2,3.9-0.6
		c1.1-0.4,2-1,2.8-1.8l1,1.7c-0.8,0.9-1.9,1.6-3.2,2.1C137.1,206.2,135.6,206.4,133.9,206.4z M133.6,185.6c-1.8,0-3.3,0.7-4.6,2.1
		c-1.2,1.4-1.9,3.1-2.1,5.2v0.1h12.9v-0.6c0-1.9-0.6-3.5-1.7-4.8C137,186.2,135.5,185.6,133.6,185.6z"/>
	<path class="st1" d="M160,206h-2.4v-31.8h2.4V206z"/>
	<path class="st1" d="M180.7,206c-0.2-0.7-0.3-1.4-0.3-1.9c-0.1-0.5-0.1-1.1-0.1-1.7c-0.8,1.2-1.9,2.1-3.3,2.9s-2.9,1.1-4.6,1.1
		c-2.1,0-3.8-0.6-5-1.7c-1.2-1.1-1.8-2.7-1.8-4.6c0-2,0.9-3.7,2.6-4.9c1.8-1.2,4.1-1.8,7.1-1.8h4.9v-2.7c0-1.6-0.5-2.8-1.5-3.7
		s-2.4-1.3-4.3-1.3c-1.7,0-3.1,0.4-4.2,1.3c-1.1,0.9-1.7,1.9-1.7,3.1h-2.2V190c-0.1-1.6,0.7-3.1,2.3-4.4c1.6-1.3,3.6-1.9,6.1-1.9
		c2.4,0,4.4,0.6,5.9,1.9c1.5,1.2,2.2,3,2.2,5.3v10.9c0,0.8,0,1.5,0.1,2.3c0.1,0.7,0.2,1.5,0.4,2.2h-2.6V206z M172.7,204.3
		c1.8,0,3.3-0.4,4.7-1.2c1.3-0.8,2.3-1.9,2.9-3.2v-4.6h-4.9c-2.2,0-4,0.5-5.3,1.4s-2,2.1-2,3.5c0,1.2,0.4,2.2,1.2,2.9
		S171.3,204.3,172.7,204.3z"/>
	<path class="st1" d="M207.6,204.3c1.6,0,3-0.5,4.3-1.4c1.2-0.9,1.9-2.2,1.9-3.8h2.2v0.1c0.1,2-0.7,3.7-2.4,5.1
		c-1.7,1.4-3.7,2.1-5.9,2.1c-3,0-5.3-1-7-3.1c-1.6-2.1-2.5-4.7-2.5-7.9v-0.9c0-3.2,0.8-5.8,2.5-7.9c1.6-2.1,4-3.1,6.9-3.1
		c2.4,0,4.4,0.7,6.1,2.1c1.6,1.4,2.4,3.3,2.3,5.6v0.1h-2.2c0-1.8-0.6-3.2-1.8-4.2c-1.2-1.1-2.6-1.6-4.4-1.6c-2.4,0-4.1,0.8-5.3,2.5
		c-1.1,1.7-1.7,3.8-1.7,6.4v0.9c0,2.6,0.6,4.8,1.7,6.4C203.4,203.5,205.2,204.3,207.6,204.3z"/>
	<path class="st1" d="M219.7,194.6c0-3.3,0.9-5.9,2.7-8s4.1-3.1,7.1-3.1s5.3,1,7.1,3.1s2.7,4.7,2.7,8v0.7c0,3.3-0.9,5.9-2.7,8
		s-4.1,3.1-7.1,3.1s-5.3-1-7.1-3.1s-2.7-4.7-2.7-8V194.6z M222.1,195.3c0,2.6,0.6,4.7,1.9,6.4c1.3,1.7,3.1,2.6,5.4,2.6
		c2.3,0,4.1-0.9,5.4-2.6c1.3-1.7,1.9-3.9,1.9-6.4v-0.7c0-2.5-0.7-4.6-2-6.4c-1.3-1.8-3.1-2.6-5.4-2.6s-4.1,0.9-5.4,2.6
		c-1.3,1.8-1.9,3.9-1.9,6.4v0.7H222.1z"/>
	<path class="st1" d="M246.5,183.9l0.2,3.9c0.7-1.4,1.7-2.4,2.9-3.2s2.6-1.1,4.3-1.1c2.4,0,4.2,0.7,5.5,2.2s1.9,3.7,1.9,6.8V206
		h-2.4v-13.5c0-2.5-0.5-4.3-1.4-5.4c-0.9-1-2.3-1.6-4-1.6s-3.1,0.5-4.2,1.4s-1.9,2.1-2.3,3.6V206h-2.4v-22.1H246.5z"/>
	<path class="st1" d="M280.8,200.4c0-1-0.4-1.9-1.3-2.7s-2.4-1.4-4.6-1.9c-2.6-0.6-4.6-1.3-5.8-2.3c-1.3-0.9-1.9-2.3-1.9-4
		s0.7-3.1,2.1-4.3s3.3-1.7,5.6-1.7c2.5,0,4.5,0.6,5.9,1.8c1.5,1.2,2.1,2.8,2.1,4.6v0.1h-2.3c0-1.2-0.5-2.3-1.5-3.2s-2.4-1.3-4.2-1.3
		c-1.8,0-3.1,0.4-4,1.1c-0.9,0.8-1.3,1.7-1.3,2.7s0.4,1.9,1.2,2.5c0.8,0.7,2.3,1.2,4.6,1.7c2.6,0.6,4.6,1.4,5.9,2.4s2,2.4,2,4.1
		c0,1.8-0.7,3.3-2.2,4.5s-3.5,1.7-5.9,1.7c-2.7,0-4.8-0.6-6.3-1.9c-1.5-1.3-2.3-2.8-2.2-4.6v-0.1h2.2c0.1,1.6,0.7,2.7,1.9,3.5
		s2.6,1.1,4.3,1.1c1.8,0,3.2-0.4,4.2-1.2C280.3,202.4,280.8,201.5,280.8,200.4z"/>
	<path class="st1" d="M292.7,178.3v5.7h4.9v2h-4.9v14.4c0,1.4,0.3,2.5,0.8,3.1s1.2,0.9,2.1,0.9c0.4,0,0.8,0,1.2-0.1
		c0.4,0,0.8-0.1,1.3-0.2l0.4,1.8c-0.4,0.2-0.9,0.3-1.5,0.4c-0.6,0.1-1.2,0.1-1.8,0.1c-1.6,0-2.8-0.5-3.6-1.5c-0.9-1-1.3-2.5-1.3-4.7
		v-14.4h-3.8v-2h3.8v-5.7h2.4V178.3z"/>
	<path class="st1" d="M312.9,186l-1.8-0.1c-1.5,0-2.8,0.4-3.8,1.3s-1.7,2.1-2.1,3.6V206h-2.4v-22.1h2.1l0.3,3.7v0.2
		c0.6-1.4,1.5-2.4,2.6-3.2s2.4-1.1,3.8-1.1c0.3,0,0.6,0,0.9,0.1c0.3,0,0.5,0.1,0.7,0.2L312.9,186z"/>
	<path class="st1" d="M331.4,202.4c-0.7,1.3-1.7,2.3-2.9,3c-1.2,0.7-2.6,1.1-4.2,1.1c-2.3,0-4.1-0.8-5.5-2.4c-1.3-1.6-2-4-2-7.3V184
		h2.4v12.9c0,2.7,0.5,4.6,1.4,5.8s2.2,1.8,3.9,1.8c1.8,0,3.3-0.4,4.4-1.2s1.9-2,2.3-3.4v-15.7h2.4V206h-2.2L331.4,202.4z"/>
	<path class="st1" d="M348.4,204.3c1.6,0,3-0.5,4.3-1.4c1.2-0.9,1.9-2.2,1.9-3.8h2.2v0.1c0.1,2-0.7,3.7-2.4,5.1
		c-1.7,1.4-3.7,2.1-5.9,2.1c-3,0-5.3-1-7-3.1s-2.5-4.7-2.5-7.9v-0.9c0-3.2,0.8-5.8,2.5-7.9c1.6-2.1,4-3.1,6.9-3.1
		c2.4,0,4.4,0.7,6.1,2.1c1.6,1.4,2.4,3.3,2.3,5.6v0.1h-2.2c0-1.8-0.6-3.2-1.8-4.2c-1.2-1.1-2.7-1.6-4.4-1.6c-2.4,0-4.1,0.8-5.3,2.5
		c-1.1,1.7-1.7,3.8-1.7,6.4v0.9c0,2.6,0.6,4.8,1.7,6.4C344.2,203.5,346,204.3,348.4,204.3z"/>
	<path class="st1" d="M370,204.3c1.6,0,3-0.5,4.3-1.4s1.9-2.2,1.9-3.8h2.2v0.1c0.1,2-0.7,3.7-2.4,5.1c-1.7,1.4-3.7,2.1-5.9,2.1
		c-3,0-5.3-1-7-3.1c-1.6-2.1-2.5-4.7-2.5-7.9v-0.9c0-3.2,0.8-5.8,2.5-7.9c1.6-2.1,4-3.1,6.9-3.1c2.4,0,4.4,0.7,6.1,2.1
		c1.6,1.4,2.4,3.3,2.3,5.6v0.1h-2.2c0-1.8-0.6-3.2-1.8-4.2c-1.2-1.1-2.6-1.6-4.4-1.6c-2.4,0-4.1,0.8-5.3,2.5
		c-1.1,1.7-1.7,3.8-1.7,6.4v0.9c0,2.6,0.6,4.8,1.7,6.4C365.9,203.5,367.7,204.3,370,204.3z"/>
	<path class="st1" d="M386.2,177.6h-2.4v-3.4h2.4V177.6z M386.2,206h-2.4v-22.1h2.4V206z"/>
	<path class="st1" d="M391.6,194.6c0-3.3,0.9-5.9,2.7-8c1.8-2.1,4.1-3.1,7.1-3.1s5.3,1,7.1,3.1c1.8,2.1,2.7,4.7,2.7,8v0.7
		c0,3.3-0.9,5.9-2.7,8c-1.8,2.1-4.1,3.1-7.1,3.1s-5.3-1-7.1-3.1c-1.8-2.1-2.7-4.7-2.7-8V194.6z M394.1,195.3c0,2.6,0.6,4.7,1.9,6.4
		s3.1,2.6,5.4,2.6s4.1-0.9,5.4-2.6c1.3-1.7,1.9-3.9,1.9-6.4v-0.7c0-2.5-0.7-4.6-2-6.4s-3.1-2.6-5.4-2.6s-4.1,0.9-5.4,2.6
		c-1.3,1.8-1.9,3.9-1.9,6.4v0.7H394.1z M404.4,175.4h3l0.1,0.1l-5.1,5.3h-2.2L404.4,175.4z"/>
	<path class="st1" d="M418.4,183.9l0.2,3.9c0.7-1.4,1.7-2.4,2.9-3.2s2.6-1.1,4.3-1.1c2.4,0,4.2,0.7,5.5,2.2s1.9,3.7,1.9,6.8V206
		h-2.4v-13.5c0-2.5-0.5-4.3-1.4-5.4s-2.3-1.6-4-1.6s-3.1,0.5-4.2,1.4s-1.9,2.1-2.3,3.6V206h-2.4v-22.1H418.4z"/>
</g>
<g>
	<path class="st1" d="M26.4,148.5c0,3.3-0.8,5.9-2.3,7.9c-1.5,2-3.7,3-6.4,3c-1.2,0-2.2-0.2-3.1-0.6c-0.9-0.4-1.7-1.1-2.3-1.9v10.7
		h-6v-30.8h5.4l0.4,2.6c0.7-1,1.5-1.7,2.4-2.3c0.9-0.5,2-0.8,3.2-0.8c2.8,0,4.9,1.1,6.4,3.2c1.5,2.2,2.3,5,2.3,8.5V148.5z M20.4,148
		c0-2.1-0.4-3.8-1.1-5.1c-0.7-1.3-1.8-2-3.2-2c-0.9,0-1.7,0.2-2.3,0.6c-0.6,0.4-1.1,0.9-1.5,1.6v9.8c0.4,0.6,0.9,1.1,1.5,1.4
		c0.6,0.3,1.4,0.5,2.4,0.5c1.5,0,2.5-0.6,3.2-1.7s1-2.7,1-4.6V148z"/>
	<path class="st1" d="M43.8,155.7c-0.7,1.2-1.6,2.1-2.6,2.8c-1.1,0.6-2.3,1-3.7,1c-2.3,0-4.2-0.8-5.5-2.4c-1.3-1.6-2-4.1-2-7.4
		v-12.9h6v13c0,2,0.3,3.3,0.8,4c0.5,0.7,1.3,1.1,2.5,1.1c1,0,1.8-0.2,2.5-0.5c0.7-0.3,1.2-0.8,1.7-1.4v-16.2h6V159h-5L43.8,155.7z"
		/>
	<path class="st1" d="M63.6,159.4c-3.3,0-5.9-1-7.8-3.1c-1.9-2-2.8-4.7-2.8-7.9v-0.8c0-3.3,0.9-6.1,2.7-8.2c1.8-2.1,4.3-3.2,7.5-3.2
		c3,0,5.3,0.9,6.9,2.7c1.6,1.8,2.4,4.3,2.4,7.4v3.1H59.2l-0.1,0.1c0.1,1.5,0.6,2.8,1.4,3.7s2.1,1.4,3.7,1.4c1.3,0,2.5-0.1,3.4-0.4
		c0.9-0.3,1.9-0.7,2.9-1.3l1.6,3.7c-0.9,0.7-2.1,1.3-3.6,1.8S65.4,159.4,63.6,159.4z M63.2,140.9c-1.2,0-2.1,0.4-2.8,1.2
		c-0.7,0.8-1,1.9-1.2,3.3l0,0.1h7.3v-0.5c0-1.3-0.3-2.3-0.8-3.1C65.2,141.3,64.4,140.9,63.2,140.9z"/>
	<path class="st1" d="M88,152.8c0-0.7-0.3-1.2-1-1.7c-0.6-0.5-1.8-0.9-3.6-1.2c-2.6-0.5-4.6-1.3-5.9-2.4c-1.4-1.1-2-2.5-2-4.3
		c0-1.9,0.8-3.5,2.4-4.9c1.6-1.3,3.8-2,6.5-2c2.8,0,5.1,0.7,6.8,2c1.7,1.3,2.5,3,2.4,5l0,0.1h-5.8c0-0.9-0.3-1.6-0.9-2.2
		c-0.6-0.6-1.4-0.8-2.5-0.8c-1,0-1.7,0.2-2.3,0.7c-0.6,0.5-0.8,1.1-0.8,1.8c0,0.7,0.3,1.2,0.9,1.7c0.6,0.4,1.8,0.8,3.6,1.2
		c2.7,0.5,4.8,1.4,6.1,2.4c1.3,1.1,2,2.5,2,4.4c0,2-0.9,3.6-2.6,4.9c-1.7,1.3-4,1.9-6.8,1.9c-3,0-5.3-0.8-7-2.3
		c-1.7-1.5-2.5-3.2-2.5-5.1l0-0.1h5.5c0,1.2,0.4,2.1,1.2,2.6s1.7,0.8,2.9,0.8c1.1,0,2-0.2,2.5-0.7S88,153.6,88,152.8z"/>
	<path class="st1" d="M104.9,131.3v5.5h3.8v4.2h-3.8v11.3c0,0.9,0.2,1.5,0.5,1.9c0.4,0.4,0.8,0.6,1.4,0.6c0.3,0,0.6,0,0.8-0.1
		s0.5-0.1,0.8-0.2l0.5,4.3c-0.6,0.2-1.2,0.4-1.8,0.5c-0.6,0.1-1.2,0.2-1.9,0.2c-2.1,0-3.7-0.6-4.8-1.7c-1.1-1.1-1.7-2.9-1.7-5.4
		v-11.4h-3.3v-4.2h3.3v-5.5H104.9z"/>
	<path class="st1" d="M111.5,147.7c0-3.3,0.9-6,2.8-8.2c1.9-2.1,4.4-3.2,7.7-3.2c3.3,0,5.9,1.1,7.7,3.2c1.9,2.1,2.8,4.8,2.8,8.2v0.4
		c0,3.3-0.9,6.1-2.8,8.2s-4.4,3.2-7.7,3.2c-3.3,0-5.9-1.1-7.7-3.2s-2.8-4.8-2.8-8.2V147.7z M117.5,148.1c0,2,0.4,3.7,1.1,4.9
		c0.7,1.2,1.9,1.8,3.5,1.8c1.6,0,2.7-0.6,3.4-1.9c0.7-1.2,1.1-2.9,1.1-4.9v-0.4c0-2-0.4-3.6-1.1-4.8c-0.7-1.2-1.9-1.9-3.4-1.9
		c-1.6,0-2.7,0.6-3.4,1.9s-1.1,2.9-1.1,4.8V148.1z"/>
	<path class="st1" d="M148.3,152.8c0-0.7-0.3-1.2-1-1.7c-0.6-0.5-1.8-0.9-3.6-1.2c-2.6-0.5-4.6-1.3-5.9-2.4c-1.4-1.1-2-2.5-2-4.3
		c0-1.9,0.8-3.5,2.4-4.9c1.6-1.3,3.8-2,6.5-2c2.8,0,5.1,0.7,6.8,2c1.7,1.3,2.5,3,2.4,5l0,0.1H148c0-0.9-0.3-1.6-0.9-2.2
		c-0.6-0.6-1.4-0.8-2.5-0.8c-1,0-1.7,0.2-2.3,0.7c-0.6,0.5-0.8,1.1-0.8,1.8c0,0.7,0.3,1.2,0.9,1.7c0.6,0.4,1.8,0.8,3.6,1.2
		c2.7,0.5,4.8,1.4,6.1,2.4c1.3,1.1,2,2.5,2,4.4c0,2-0.9,3.6-2.6,4.9c-1.7,1.3-4,1.9-6.8,1.9c-3,0-5.3-0.8-7-2.3
		c-1.7-1.5-2.5-3.2-2.5-5.1l0-0.1h5.5c0,1.2,0.4,2.1,1.2,2.6s1.7,0.8,2.9,0.8c1.1,0,2-0.2,2.5-0.7S148.3,153.6,148.3,152.8z"/>
	<path class="st1" d="M167.5,148c0-3.5,0.8-6.3,2.3-8.5c1.5-2.2,3.7-3.2,6.4-3.2c1.1,0,2.1,0.2,3,0.7c0.9,0.5,1.7,1.2,2.3,2.1v-12.2
		h6V159h-5.1l-0.5-2.7c-0.7,1-1.5,1.8-2.5,2.4s-2.1,0.8-3.3,0.8c-2.7,0-4.9-1-6.4-3c-1.5-2-2.3-4.7-2.3-7.9V148z M173.5,148.5
		c0,2,0.3,3.5,1,4.6c0.7,1.1,1.7,1.7,3.2,1.7c0.9,0,1.6-0.2,2.3-0.5c0.6-0.3,1.2-0.9,1.6-1.5v-9.5c-0.4-0.7-0.9-1.2-1.6-1.6
		c-0.6-0.4-1.4-0.6-2.2-0.6c-1.5,0-2.5,0.7-3.2,2c-0.7,1.3-1,3-1,5.1V148.5z"/>
	<path class="st1" d="M201.9,159.4c-3.3,0-5.9-1-7.8-3.1c-1.9-2-2.8-4.7-2.8-7.9v-0.8c0-3.3,0.9-6.1,2.7-8.2
		c1.8-2.1,4.3-3.2,7.5-3.2c3,0,5.3,0.9,6.9,2.7c1.6,1.8,2.4,4.3,2.4,7.4v3.1h-13.3l-0.1,0.1c0.1,1.5,0.6,2.8,1.4,3.7
		s2.1,1.4,3.7,1.4c1.3,0,2.5-0.1,3.4-0.4c0.9-0.3,1.9-0.7,2.9-1.3l1.6,3.7c-0.9,0.7-2.1,1.3-3.6,1.8S203.7,159.4,201.9,159.4z
		 M201.5,140.9c-1.2,0-2.1,0.4-2.8,1.2c-0.7,0.8-1,1.9-1.2,3.3l0,0.1h7.3v-0.5c0-1.3-0.3-2.3-0.8-3.1
		C203.6,141.3,202.7,140.9,201.5,140.9z"/>
	<path class="st1" d="M232,131.3v5.5h3.8v4.2H232v11.3c0,0.9,0.2,1.5,0.5,1.9c0.4,0.4,0.8,0.6,1.4,0.6c0.3,0,0.6,0,0.8-0.1
		s0.5-0.1,0.8-0.2l0.5,4.3c-0.6,0.2-1.2,0.4-1.8,0.5c-0.6,0.1-1.2,0.2-1.9,0.2c-2.1,0-3.7-0.6-4.8-1.7c-1.1-1.1-1.7-2.9-1.7-5.4
		v-11.4h-3.3v-4.2h3.3v-5.5H232z"/>
	<path class="st1" d="M251.2,141.9l-2.2-0.1c-0.9,0-1.6,0.2-2.2,0.6c-0.6,0.4-1,0.9-1.3,1.6V159h-6v-22.3h5.6l0.3,3.3
		c0.5-1.2,1.2-2.1,2-2.7c0.8-0.7,1.8-1,2.9-1c0.3,0,0.6,0,0.8,0.1c0.3,0,0.5,0.1,0.8,0.2L251.2,141.9z"/>
	<path class="st1" d="M267.5,159c-0.2-0.5-0.4-1-0.6-1.6c-0.2-0.6-0.3-1.1-0.3-1.7c-0.6,1.1-1.4,2-2.5,2.7s-2.2,1.1-3.6,1.1
		c-2.3,0-4.1-0.6-5.4-1.8c-1.3-1.2-1.9-2.8-1.9-4.9c0-2.2,0.8-3.9,2.5-5.1c1.7-1.2,4.1-1.8,7.4-1.8h3.4v-1.8c0-1.1-0.3-1.9-0.8-2.5
		c-0.6-0.6-1.4-0.9-2.5-0.9c-1,0-1.7,0.2-2.3,0.7c-0.5,0.5-0.8,1.1-0.8,1.9h-5.8l0-0.1c-0.1-1.9,0.7-3.5,2.5-4.9c1.7-1.4,4-2,6.8-2
		c2.7,0,4.8,0.7,6.5,2c1.7,1.3,2.5,3.3,2.5,5.8v9.2c0,1,0.1,2,0.2,2.9c0.2,0.9,0.4,1.8,0.8,2.7H267.5z M262,155c1,0,2-0.3,2.8-0.8
		s1.4-1.1,1.7-1.8v-3.2h-3.4c-1.3,0-2.2,0.3-2.9,0.9c-0.7,0.6-1,1.4-1,2.3c0,0.8,0.2,1.4,0.7,1.8S261.1,155,262,155z"/>
	<path class="st1" d="M297.1,148.5c0,3.3-0.7,6-2.2,8c-1.5,2-3.6,3-6.4,3c-1.3,0-2.4-0.3-3.4-0.8c-1-0.5-1.8-1.4-2.5-2.4l-0.5,2.8
		H277v-32.1h6v12.2c0.6-0.9,1.4-1.6,2.3-2.1c0.9-0.5,1.9-0.7,3.1-0.7c2.8,0,5,1.1,6.5,3.2c1.5,2.1,2.2,5,2.2,8.5V148.5z M291.1,148
		c0-2.2-0.3-3.9-1-5.2c-0.6-1.3-1.7-1.9-3.3-1.9c-0.9,0-1.7,0.2-2.4,0.6c-0.6,0.4-1.2,1-1.5,1.7v9.4c0.4,0.7,0.9,1.2,1.5,1.5
		c0.7,0.4,1.5,0.5,2.4,0.5c1.6,0,2.6-0.5,3.3-1.6c0.6-1.1,0.9-2.6,0.9-4.6V148z"/>
	<path class="st1" d="M313.9,159c-0.2-0.5-0.4-1-0.6-1.6c-0.2-0.6-0.3-1.1-0.3-1.7c-0.6,1.1-1.4,2-2.5,2.7s-2.2,1.1-3.6,1.1
		c-2.3,0-4.1-0.6-5.4-1.8c-1.3-1.2-1.9-2.8-1.9-4.9c0-2.2,0.8-3.9,2.5-5.1c1.7-1.2,4.1-1.8,7.4-1.8h3.4v-1.8c0-1.1-0.3-1.9-0.8-2.5
		c-0.6-0.6-1.4-0.9-2.5-0.9c-1,0-1.7,0.2-2.3,0.7s-0.8,1.1-0.8,1.9h-5.8l0-0.1c-0.1-1.9,0.7-3.5,2.5-4.9c1.7-1.4,4-2,6.8-2
		c2.7,0,4.8,0.7,6.5,2c1.7,1.3,2.5,3.3,2.5,5.8v9.2c0,1,0.1,2,0.2,2.9c0.2,0.9,0.4,1.8,0.8,2.7H313.9z M308.4,155c1,0,2-0.3,2.8-0.8
		s1.4-1.1,1.7-1.8v-3.2h-3.4c-1.3,0-2.2,0.3-2.9,0.9c-0.7,0.6-1,1.4-1,2.3c0,0.8,0.2,1.4,0.7,1.8S307.6,155,308.4,155z"/>
	<path class="st1" d="M329.9,136.7v23.1c0,2.6-0.7,4.6-2.1,6s-3.3,2.1-5.8,2.1c-0.5,0-1.1,0-1.5-0.1c-0.5-0.1-0.9-0.1-1.4-0.3
		l0.3-4.6c0.3,0.1,0.6,0.1,0.9,0.2c0.3,0,0.7,0.1,1,0.1c0.8,0,1.4-0.3,1.9-0.9s0.7-1.4,0.7-2.6v-23.1H329.9z M329.8,131.3h-6v-4.5h6
		V131.3z"/>
	<path class="st1" d="M333.7,147.7c0-3.3,0.9-6,2.8-8.2c1.9-2.1,4.4-3.2,7.7-3.2c3.3,0,5.9,1.1,7.7,3.2c1.9,2.1,2.8,4.8,2.8,8.2v0.4
		c0,3.3-0.9,6.1-2.8,8.2c-1.9,2.1-4.4,3.2-7.7,3.2c-3.3,0-5.9-1.1-7.7-3.2s-2.8-4.8-2.8-8.2V147.7z M339.7,148.1
		c0,2,0.4,3.7,1.1,4.9s1.9,1.8,3.5,1.8c1.6,0,2.7-0.6,3.4-1.9c0.7-1.2,1.1-2.9,1.1-4.9v-0.4c0-2-0.4-3.6-1.1-4.8
		c-0.7-1.2-1.9-1.9-3.4-1.9c-1.6,0-2.7,0.6-3.4,1.9s-1.1,2.9-1.1,4.8V148.1z"/>
	<path class="st1" d="M378.6,159.4c-3.3,0-5.9-1-7.8-3.1c-1.9-2-2.8-4.7-2.8-7.9v-0.8c0-3.3,0.9-6.1,2.7-8.2
		c1.8-2.1,4.3-3.2,7.5-3.2c3,0,5.3,0.9,6.9,2.7c1.6,1.8,2.4,4.3,2.4,7.4v3.1h-13.3l-0.1,0.1c0.1,1.5,0.6,2.8,1.4,3.7
		s2.1,1.4,3.7,1.4c1.3,0,2.5-0.1,3.4-0.4c0.9-0.3,1.9-0.7,2.9-1.3l1.6,3.7c-0.9,0.7-2.1,1.3-3.6,1.8
		C382.1,159.2,380.4,159.4,378.6,159.4z M378.2,140.9c-1.2,0-2.1,0.4-2.8,1.2c-0.7,0.8-1,1.9-1.2,3.3l0,0.1h7.3v-0.5
		c0-1.3-0.3-2.3-0.8-3.1S379.4,140.9,378.2,140.9z"/>
	<path class="st1" d="M403.1,152.8c0-0.7-0.3-1.2-1-1.7c-0.6-0.5-1.8-0.9-3.6-1.2c-2.6-0.5-4.6-1.3-5.9-2.4c-1.4-1.1-2-2.5-2-4.3
		c0-1.9,0.8-3.5,2.4-4.9c1.6-1.3,3.8-2,6.5-2c2.8,0,5.1,0.7,6.8,2c1.7,1.3,2.5,3,2.4,5l0,0.1h-5.8c0-0.9-0.3-1.6-0.9-2.2
		c-0.6-0.6-1.4-0.8-2.5-0.8c-1,0-1.7,0.2-2.3,0.7c-0.6,0.5-0.8,1.1-0.8,1.8c0,0.7,0.3,1.2,0.9,1.7c0.6,0.4,1.8,0.8,3.6,1.2
		c2.7,0.5,4.8,1.4,6.1,2.4c1.3,1.1,2,2.5,2,4.4c0,2-0.9,3.6-2.6,4.9c-1.7,1.3-4,1.9-6.8,1.9c-3,0-5.3-0.8-7-2.3
		c-1.7-1.5-2.5-3.2-2.5-5.1l0-0.1h5.5c0,1.2,0.4,2.1,1.2,2.6s1.7,0.8,2.9,0.8c1.1,0,2-0.2,2.5-0.7
		C402.8,154.2,403.1,153.6,403.1,152.8z"/>
	<path class="st1" d="M420,131.3v5.5h3.8v4.2H420v11.3c0,0.9,0.2,1.5,0.5,1.9c0.4,0.4,0.8,0.6,1.4,0.6c0.3,0,0.6,0,0.8-0.1
		s0.5-0.1,0.8-0.2l0.5,4.3c-0.6,0.2-1.2,0.4-1.8,0.5c-0.6,0.1-1.2,0.2-1.9,0.2c-2.1,0-3.7-0.6-4.8-1.7c-1.1-1.1-1.7-2.9-1.7-5.4
		v-11.4h-3.3v-4.2h3.3v-5.5H420z"/>
	<path class="st1" d="M433.8,131.4h-6v-4.5h6V131.4z M433.8,159h-6v-22.3h6V159z"/>
	<path class="st1" d="M444.3,136.7l0.2,2.9c0.7-1.1,1.6-1.9,2.7-2.5c1.1-0.6,2.3-0.9,3.7-0.9c1.4,0,2.6,0.3,3.7,0.9s1.8,1.6,2.3,2.9
		c0.7-1.2,1.6-2.1,2.7-2.8c1.1-0.7,2.4-1,3.9-1c2.2,0,3.9,0.8,5.2,2.3c1.3,1.6,1.9,3.9,1.9,7.1V159h-6v-13.2c0-1.8-0.3-3-0.8-3.7
		c-0.5-0.7-1.4-1-2.5-1c-0.9,0-1.6,0.2-2.2,0.6c-0.6,0.4-1.1,0.9-1.5,1.6c0,0.3,0,0.5,0,0.7s0,0.4,0,0.6V159h-6v-13.2
		c0-1.7-0.3-3-0.8-3.7s-1.4-1.1-2.5-1.1c-0.8,0-1.5,0.2-2.1,0.5c-0.6,0.3-1.1,0.7-1.5,1.3V159h-6v-22.3H444.3z"/>
	<path class="st1" d="M488.3,159c-0.2-0.5-0.4-1-0.6-1.6c-0.2-0.6-0.3-1.1-0.3-1.7c-0.6,1.1-1.4,2-2.5,2.7s-2.2,1.1-3.6,1.1
		c-2.3,0-4.1-0.6-5.4-1.8c-1.3-1.2-1.9-2.8-1.9-4.9c0-2.2,0.8-3.9,2.5-5.1c1.7-1.2,4.1-1.8,7.4-1.8h3.4v-1.8c0-1.1-0.3-1.9-0.8-2.5
		c-0.6-0.6-1.4-0.9-2.5-0.9c-1,0-1.7,0.2-2.3,0.7s-0.8,1.1-0.8,1.9h-5.8l0-0.1c-0.1-1.9,0.7-3.5,2.5-4.9c1.7-1.4,4-2,6.8-2
		c2.7,0,4.8,0.7,6.5,2c1.7,1.3,2.5,3.3,2.5,5.8v9.2c0,1,0.1,2,0.2,2.9c0.2,0.9,0.4,1.8,0.8,2.7H488.3z M482.8,155c1,0,2-0.3,2.8-0.8
		s1.4-1.1,1.7-1.8v-3.2h-3.4c-1.3,0-2.2,0.3-2.9,0.9c-0.7,0.6-1,1.4-1,2.3c0,0.8,0.2,1.4,0.7,1.8S482,155,482.8,155z"/>
	<path class="st1" d="M496.9,148c0-3.5,0.8-6.3,2.3-8.5c1.5-2.2,3.7-3.2,6.4-3.2c1.1,0,2.1,0.2,3,0.7s1.7,1.2,2.3,2.1v-12.2h6V159
		h-5.1l-0.5-2.7c-0.7,1-1.5,1.8-2.5,2.4s-2.1,0.8-3.3,0.8c-2.7,0-4.9-1-6.4-3c-1.5-2-2.3-4.7-2.3-7.9V148z M502.9,148.5
		c0,2,0.3,3.5,1,4.6c0.7,1.1,1.7,1.7,3.2,1.7c0.9,0,1.6-0.2,2.3-0.5c0.6-0.3,1.2-0.9,1.6-1.5v-9.5c-0.4-0.7-0.9-1.2-1.6-1.6
		c-0.6-0.4-1.4-0.6-2.2-0.6c-1.5,0-2.5,0.7-3.2,2c-0.7,1.3-1,3-1,5.1V148.5z"/>
	<path class="st1" d="M520.7,147.7c0-3.3,0.9-6,2.8-8.2c1.9-2.1,4.4-3.2,7.7-3.2c3.3,0,5.9,1.1,7.7,3.2c1.9,2.1,2.8,4.8,2.8,8.2v0.4
		c0,3.3-0.9,6.1-2.8,8.2c-1.9,2.1-4.4,3.2-7.7,3.2c-3.3,0-5.9-1.1-7.7-3.2s-2.8-4.8-2.8-8.2V147.7z M526.7,148.1
		c0,2,0.4,3.7,1.1,4.9s1.9,1.8,3.5,1.8c1.6,0,2.7-0.6,3.4-1.9c0.7-1.2,1.1-2.9,1.1-4.9v-0.4c0-2-0.4-3.6-1.1-4.8
		c-0.7-1.2-1.9-1.9-3.4-1.9c-1.6,0-2.7,0.6-3.4,1.9s-1.1,2.9-1.1,4.8V148.1z"/>
	<path class="st1" d="M557.5,152.8c0-0.7-0.3-1.2-1-1.7c-0.6-0.5-1.8-0.9-3.6-1.2c-2.6-0.5-4.6-1.3-5.9-2.4c-1.4-1.1-2-2.5-2-4.3
		c0-1.9,0.8-3.5,2.4-4.9c1.6-1.3,3.8-2,6.5-2c2.8,0,5.1,0.7,6.8,2c1.7,1.3,2.5,3,2.4,5l0,0.1h-5.8c0-0.9-0.3-1.6-0.9-2.2
		c-0.6-0.6-1.4-0.8-2.5-0.8c-1,0-1.7,0.2-2.3,0.7c-0.6,0.5-0.8,1.1-0.8,1.8c0,0.7,0.3,1.2,0.9,1.7c0.6,0.4,1.8,0.8,3.6,1.2
		c2.7,0.5,4.8,1.4,6.1,2.4c1.3,1.1,2,2.5,2,4.4c0,2-0.9,3.6-2.6,4.9c-1.7,1.3-4,1.9-6.8,1.9c-3,0-5.3-0.8-7-2.3
		c-1.7-1.5-2.5-3.2-2.5-5.1l0-0.1h5.5c0,1.2,0.4,2.1,1.2,2.6s1.7,0.8,2.9,0.8c1.1,0,2-0.2,2.5-0.7
		C557.2,154.2,557.5,153.6,557.5,152.8z"/>
</g>
</svg>
