<?xml version="1.0" encoding="utf-8"?>
<!-- Generator: Adobe Illustrator 22.1.0, SVG Export Plug-In . SVG Version: 6.00 Build 0)  -->
<svg version="1.1" id="Capa_1" xmlns="http://www.w3.org/2000/svg" xmlns:xlink="http://www.w3.org/1999/xlink" x="0px" y="0px"
	 viewBox="0 0 579 213" style="enable-background:new 0 0 579 213;" xml:space="preserve">
<style type="text/css">
	.st0{fill:#54515C;}
</style>
<g>
	<path class="st0" d="M48.5,82.5H7.6v-8l18.9-21.3c2.8-3.3,4.8-6.1,6-8.4c1.2-2.3,1.8-4.4,1.8-6.3c0-2.5-0.6-4.5-1.9-6
		c-1.3-1.5-3.1-2.3-5.6-2.3c-2.6,0-4.7,1-6.1,2.9c-1.4,1.9-2.2,4.4-2.2,7.3H6.6l-0.1-0.3c-0.1-5.4,1.6-10,5.4-13.7
		c3.7-3.7,8.7-5.6,14.9-5.6s11.1,1.6,14.5,4.8c3.5,3.2,5.2,7.5,5.2,12.9c0,3.7-1,7-2.9,10s-5.3,7.2-10,12.5l-10,12l0.1,0.2h24.9
		V82.5z"/>
	<path class="st0" d="M78.1,20.8c2.4,0,4.6,0.2,6.6,0.6c2,0.4,4,1.1,6,1.9l-2.2,8.9c-1.9-0.6-3.6-1.1-5.1-1.4
		c-1.5-0.3-3.2-0.5-5.2-0.5c-3.6,0-6.4,1.4-8.6,4.1c-2.2,2.7-3.3,6.5-3.3,11.4v2c1.6-1.6,3.5-2.8,5.8-3.7c2.2-0.9,4.7-1.3,7.5-1.3
		c5.2,0,9.3,1.8,12.2,5.5c2.9,3.7,4.4,8.5,4.4,14.4c0,6.1-1.9,11.1-5.7,14.9c-3.8,3.8-8.7,5.7-14.8,5.7c-6.4,0-11.5-2.2-15.5-6.5
		c-4-4.3-6-10.3-6-17.8V46.3c0-7.7,2.3-13.9,6.8-18.5C65.4,23.1,71.2,20.8,78.1,20.8z M75.5,52c-2.2,0-4.1,0.4-5.6,1.1
		c-1.5,0.7-2.8,1.7-3.6,2.9v3.3c0,4.7,0.9,8.3,2.6,10.9c1.7,2.6,4,3.8,6.8,3.8c2.5,0,4.6-1.1,6.1-3.2c1.5-2.1,2.3-4.8,2.3-8
		c0-3.3-0.8-6-2.3-7.9C80.2,53,78.1,52,75.5,52z"/>
	<path class="st0" d="M119.8,74c3,0,5.5-1.1,7.4-3.4c1.9-2.3,2.9-5.4,2.9-9.5v-3.9c-1.4,1.8-3,3.1-4.8,4c-1.9,0.9-3.9,1.3-6,1.3
		c-5.7,0-10.1-1.8-13.3-5.5s-4.8-8.7-4.8-15c0-6.1,1.9-11.2,5.7-15.2c3.8-4,8.7-6,14.6-6c6.1,0,11.1,2.1,15,6.2
		c3.9,4.1,5.8,9.8,5.8,17.1v16.4c0,7-2.1,12.6-6.3,16.7c-4.2,4.1-9.6,6.2-16.1,6.2c-2.1,0-4.3-0.2-6.5-0.7c-2.2-0.5-4.4-1.1-6.3-1.9
		l2-8.8c1.8,0.7,3.5,1.3,5.1,1.6C115.8,73.8,117.7,74,119.8,74z M121.3,53.5c2,0,3.7-0.4,5.2-1.2c1.5-0.8,2.7-1.9,3.6-3.3V42
		c0-3.8-0.8-6.7-2.3-8.8c-1.6-2-3.7-3-6.3-3c-2.5,0-4.4,1.1-5.9,3.4c-1.5,2.3-2.3,5.1-2.3,8.4c0,3.5,0.7,6.3,2,8.4
		C116.7,52.5,118.7,53.5,121.3,53.5z"/>
	<path class="st0" d="M163.2,82.5H151V71.8h12.2V82.5z"/>
	<path class="st0" d="M213.3,60.5c0,7.1-1.9,12.7-5.6,16.8c-3.7,4.1-8.7,6.1-14.9,6.1c-6.2,0-11.2-2-15-6.1
		c-3.8-4.1-5.6-9.7-5.6-16.8V43.7c0-7.1,1.9-12.7,5.6-16.8c3.7-4.1,8.7-6.1,14.9-6.1c6.2,0,11.2,2,14.9,6.1
		c3.8,4.1,5.7,9.7,5.7,16.8V60.5z M201.2,42.5c0-3.9-0.7-6.9-2.2-9.1c-1.5-2.1-3.6-3.2-6.2-3.2c-2.7,0-4.7,1.1-6.2,3.2
		s-2.2,5.2-2.2,9.1v19.2c0,4,0.7,7,2.2,9.2c1.5,2.1,3.6,3.2,6.3,3.2c2.6,0,4.7-1.1,6.2-3.2c1.5-2.1,2.2-5.2,2.2-9.2V42.5z"/>
	<path class="st0" d="M260.7,60.5c0,7.1-1.9,12.7-5.6,16.8c-3.7,4.1-8.7,6.1-14.9,6.1c-6.2,0-11.2-2-15-6.1
		c-3.8-4.1-5.6-9.7-5.6-16.8V43.7c0-7.1,1.9-12.7,5.6-16.8c3.7-4.1,8.7-6.1,14.9-6.1c6.2,0,11.2,2,14.9,6.1
		c3.8,4.1,5.7,9.7,5.7,16.8V60.5z M248.6,42.5c0-3.9-0.7-6.9-2.2-9.1c-1.5-2.1-3.6-3.2-6.2-3.2c-2.7,0-4.7,1.1-6.2,3.2
		s-2.2,5.2-2.2,9.1v19.2c0,4,0.7,7,2.2,9.2c1.5,2.1,3.6,3.2,6.3,3.2c2.6,0,4.7-1.1,6.2-3.2c1.5-2.1,2.2-5.2,2.2-9.2V42.5z"/>
	<path class="st0" d="M308.1,60.5c0,7.1-1.9,12.7-5.6,16.8c-3.7,4.1-8.7,6.1-14.9,6.1c-6.2,0-11.2-2-15-6.1
		c-3.8-4.1-5.6-9.7-5.6-16.8V43.7c0-7.1,1.9-12.7,5.6-16.8c3.7-4.1,8.7-6.1,14.9-6.1c6.2,0,11.2,2,14.9,6.1
		c3.8,4.1,5.7,9.7,5.7,16.8V60.5z M296,42.5c0-3.9-0.7-6.9-2.2-9.1c-1.5-2.1-3.6-3.2-6.2-3.2c-2.7,0-4.7,1.1-6.2,3.2
		s-2.2,5.2-2.2,9.1v19.2c0,4,0.7,7,2.2,9.2c1.5,2.1,3.6,3.2,6.3,3.2c2.6,0,4.7-1.1,6.2-3.2c1.5-2.1,2.2-5.2,2.2-9.2V42.5z"/>
</g>
<g>
	<g>
		<path class="st0" d="M318.1,73.7c0-2.6,0.7-4.7,2.1-6.3c1.4-1.6,3.4-2.5,5.9-2.5c2.5,0,4.5,0.8,6,2.4c1.4,1.6,2.2,3.7,2.2,6.3v0.3
			c0,2.6-0.7,4.7-2.2,6.3c-1.4,1.6-3.4,2.4-6,2.4c-2.5,0-4.5-0.8-6-2.4c-1.4-1.6-2.2-3.7-2.2-6.3V73.7z M322.8,74.1
			c0,1.6,0.3,2.8,0.8,3.8s1.4,1.4,2.7,1.4c1.2,0,2.1-0.5,2.6-1.4c0.6-1,0.8-2.2,0.8-3.8v-0.3c0-1.5-0.3-2.8-0.8-3.7
			c-0.6-1-1.4-1.4-2.7-1.4c-1.2,0-2.1,0.5-2.6,1.5c-0.6,1-0.8,2.2-0.8,3.7V74.1z"/>
		<path class="st0" d="M341.5,65.3l0.2,2.5c0.6-0.9,1.3-1.6,2.1-2c0.8-0.5,1.8-0.7,2.8-0.7c1.7,0,3.1,0.6,4.1,1.7
			c1,1.1,1.5,2.9,1.5,5.3v10.5h-4.7V72c0-1.2-0.2-2.1-0.6-2.6c-0.4-0.5-1.1-0.8-1.9-0.8c-0.7,0-1.3,0.1-1.8,0.4
			c-0.5,0.3-1,0.6-1.3,1.1v12.4h-4.6V65.3H341.5z"/>
		<path class="st0" d="M360.8,78.9h8.5v3.6H355v-2.7l8.2-10.9h-7.9v-3.6H369V68L360.8,78.9z"/>
		<path class="st0" d="M382.3,82.5c-0.2-0.4-0.3-0.8-0.4-1.2c-0.1-0.4-0.2-0.9-0.3-1.3c-0.5,0.8-1.1,1.5-1.9,2.1
			c-0.8,0.6-1.7,0.8-2.8,0.8c-1.8,0-3.2-0.5-4.2-1.4c-1-0.9-1.5-2.2-1.5-3.8c0-1.7,0.6-3,1.9-3.9c1.3-0.9,3.2-1.4,5.7-1.4h2.6V71
			c0-0.8-0.2-1.5-0.7-1.9c-0.4-0.5-1.1-0.7-1.9-0.7c-0.8,0-1.3,0.2-1.7,0.5c-0.4,0.4-0.6,0.9-0.6,1.5h-4.5l0-0.1
			c-0.1-1.5,0.6-2.7,1.9-3.8c1.3-1.1,3.1-1.6,5.3-1.6c2.1,0,3.7,0.5,5,1.6c1.3,1,1.9,2.5,1.9,4.5v7.1c0,0.8,0.1,1.6,0.2,2.3
			c0.1,0.7,0.3,1.4,0.6,2.1H382.3z M378.1,79.4c0.8,0,1.5-0.2,2.2-0.6c0.6-0.4,1.1-0.9,1.3-1.4V75H379c-1,0-1.7,0.2-2.2,0.7
			s-0.8,1.1-0.8,1.8c0,0.6,0.2,1,0.6,1.4C376.9,79.2,377.4,79.4,378.1,79.4z"/>
		<path class="st0" d="M399,77.7c0-0.5-0.2-0.9-0.7-1.3c-0.5-0.4-1.4-0.7-2.7-1c-2-0.4-3.5-1-4.6-1.8c-1-0.8-1.6-1.9-1.6-3.3
			c0-1.5,0.6-2.7,1.9-3.8c1.2-1,2.9-1.6,5-1.6c2.2,0,3.9,0.5,5.2,1.6c1.3,1,1.9,2.3,1.9,3.9l0,0.1h-4.5c0-0.7-0.2-1.2-0.7-1.7
			c-0.4-0.4-1.1-0.7-1.9-0.7c-0.7,0-1.3,0.2-1.8,0.6c-0.4,0.4-0.7,0.8-0.7,1.4c0,0.5,0.2,1,0.7,1.3c0.5,0.3,1.4,0.6,2.7,0.9
			c2.1,0.4,3.7,1,4.7,1.9c1,0.8,1.5,2,1.5,3.4c0,1.5-0.7,2.8-2,3.8s-3.1,1.5-5.2,1.5c-2.3,0-4.1-0.6-5.4-1.7c-1.3-1.2-2-2.5-1.9-4
			l0-0.1h4.2c0,0.9,0.3,1.6,0.9,2s1.3,0.6,2.2,0.6c0.9,0,1.5-0.2,2-0.5S399,78.3,399,77.7z"/>
		<path class="st0" d="M413.9,74c0-2.7,0.6-4.9,1.8-6.6c1.2-1.7,2.8-2.5,5-2.5c0.9,0,1.6,0.2,2.3,0.6c0.7,0.4,1.3,0.9,1.8,1.6v-9.4
			h4.7v24.8h-4l-0.4-2.1c-0.5,0.8-1.2,1.4-1.9,1.8s-1.6,0.6-2.5,0.6c-2.1,0-3.7-0.8-4.9-2.3c-1.2-1.5-1.8-3.6-1.8-6.1V74z
			 M418.5,74.4c0,1.5,0.3,2.7,0.8,3.6c0.5,0.9,1.3,1.3,2.5,1.3c0.7,0,1.2-0.1,1.7-0.4s0.9-0.7,1.2-1.2v-7.3c-0.3-0.5-0.7-1-1.2-1.3
			c-0.5-0.3-1.1-0.5-1.7-0.5c-1.1,0-2,0.5-2.5,1.5c-0.5,1-0.8,2.3-0.8,3.9V74.4z"/>
		<path class="st0" d="M440.4,82.8c-2.6,0-4.6-0.8-6-2.4c-1.4-1.6-2.2-3.6-2.2-6.1v-0.6c0-2.6,0.7-4.7,2.1-6.3s3.3-2.5,5.8-2.4
			c2.3,0,4.1,0.7,5.3,2.1c1.2,1.4,1.9,3.3,1.9,5.7v2.4H437l0,0.1c0.1,1.2,0.4,2.1,1.1,2.9c0.6,0.7,1.6,1.1,2.9,1.1
			c1,0,1.9-0.1,2.6-0.3s1.5-0.5,2.2-1l1.3,2.9c-0.7,0.6-1.6,1-2.8,1.4S441.8,82.8,440.4,82.8z M440.1,68.6c-0.9,0-1.7,0.3-2.2,1
			c-0.5,0.6-0.8,1.5-0.9,2.6l0,0.1h5.7v-0.3c0-1-0.2-1.8-0.6-2.4C441.7,68.9,441,68.6,440.1,68.6z"/>
		<path class="st0" d="M457.4,73.7c0-2.6,0.7-4.7,2.1-6.3c1.4-1.6,3.4-2.5,5.9-2.5c2.5,0,4.5,0.8,6,2.4s2.2,3.7,2.2,6.3v0.3
			c0,2.6-0.7,4.7-2.2,6.3c-1.4,1.6-3.4,2.4-6,2.4c-2.5,0-4.5-0.8-6-2.4c-1.4-1.6-2.2-3.7-2.2-6.3V73.7z M462,74.1
			c0,1.6,0.3,2.8,0.8,3.8c0.6,0.9,1.4,1.4,2.7,1.4c1.2,0,2.1-0.5,2.6-1.4c0.6-1,0.8-2.2,0.8-3.8v-0.3c0-1.5-0.3-2.8-0.8-3.7
			c-0.6-1-1.4-1.4-2.7-1.4c-1.2,0-2.1,0.5-2.6,1.5c-0.6,1-0.8,2.2-0.8,3.7V74.1z"/>
		<path class="st0" d="M485.5,69.3l-1.7,0c-0.7,0-1.3,0.1-1.7,0.4c-0.4,0.3-0.8,0.7-1,1.2v11.6h-4.6V65.3h4.3l0.2,2.5
			c0.4-0.9,0.9-1.6,1.6-2.1c0.6-0.5,1.4-0.8,2.2-0.8c0.2,0,0.4,0,0.6,0.1c0.2,0,0.4,0.1,0.6,0.1L485.5,69.3z"/>
		<path class="st0" d="M486.9,73.7c0-2.6,0.7-4.7,2.1-6.3c1.4-1.6,3.4-2.5,5.9-2.5c2.5,0,4.5,0.8,6,2.4s2.2,3.7,2.2,6.3v0.3
			c0,2.6-0.7,4.7-2.2,6.3c-1.4,1.6-3.4,2.4-6,2.4c-2.5,0-4.5-0.8-6-2.4c-1.4-1.6-2.2-3.7-2.2-6.3V73.7z M491.5,74.1
			c0,1.6,0.3,2.8,0.8,3.8c0.6,0.9,1.4,1.4,2.7,1.4c1.2,0,2.1-0.5,2.6-1.4c0.6-1,0.8-2.2,0.8-3.8v-0.3c0-1.5-0.3-2.8-0.8-3.7
			c-0.6-1-1.4-1.4-2.7-1.4c-1.2,0-2.1,0.5-2.6,1.5c-0.6,1-0.8,2.2-0.8,3.7V74.1z"/>
	</g>
</g>
<g>
	<path class="st0" d="M32,159.7H19.9v-50.2H7.3v-9.3L32,97.9V159.7z"/>
	<path class="st0" d="M64.4,159.7H52.2V149h12.2V159.7z"/>
	<path class="st0" d="M115.1,108.2c-6.9,8.1-11.6,15.3-14,21.8c-2.5,6.5-3.7,13.8-3.7,22.2v7.5H85.2v-7.5c0-8.5,1.6-16.2,4.7-23.2
		c3.1-7,7.6-13.9,13.6-20.8H72.3v-9.4h42.8V108.2z"/>
	<path class="st0" d="M161.9,137.6c0,7.1-1.9,12.7-5.6,16.8c-3.7,4.1-8.7,6.1-14.9,6.1c-6.2,0-11.2-2-15-6.1
		c-3.8-4.1-5.6-9.7-5.6-16.8v-16.8c0-7.1,1.9-12.7,5.6-16.8c3.7-4.1,8.7-6.1,14.9-6.1c6.2,0,11.2,2,14.9,6.1
		c3.8,4.1,5.7,9.7,5.7,16.8V137.6z M149.7,119.6c0-3.9-0.7-6.9-2.2-9.1c-1.5-2.1-3.6-3.2-6.2-3.2c-2.7,0-4.7,1.1-6.2,3.2
		s-2.2,5.2-2.2,9.1v19.2c0,4,0.7,7,2.2,9.2c1.5,2.1,3.6,3.2,6.3,3.2c2.6,0,4.7-1.1,6.2-3.2c1.5-2.1,2.2-5.2,2.2-9.2V119.6z"/>
	<path class="st0" d="M209.3,137.6c0,7.1-1.9,12.7-5.6,16.8c-3.7,4.1-8.7,6.1-14.9,6.1c-6.2,0-11.2-2-15-6.1
		c-3.8-4.1-5.6-9.7-5.6-16.8v-16.8c0-7.1,1.9-12.7,5.6-16.8c3.7-4.1,8.7-6.1,14.9-6.1c6.2,0,11.2,2,14.9,6.1
		c3.8,4.1,5.7,9.7,5.7,16.8V137.6z M197.2,119.6c0-3.9-0.7-6.9-2.2-9.1c-1.5-2.1-3.6-3.2-6.2-3.2c-2.7,0-4.7,1.1-6.2,3.2
		s-2.2,5.2-2.2,9.1v19.2c0,4,0.7,7,2.2,9.2c1.5,2.1,3.6,3.2,6.3,3.2c2.6,0,4.7-1.1,6.2-3.2c1.5-2.1,2.2-5.2,2.2-9.2V119.6z"/>
</g>
<g>
	<g>
		<path class="st0" d="M227.4,138.3v4.2h2.9v3.3h-2.9v8.8c0,0.7,0.1,1.1,0.4,1.4s0.6,0.4,1.1,0.4c0.2,0,0.5,0,0.6,0
			c0.2,0,0.4-0.1,0.6-0.1l0.4,3.4c-0.5,0.2-0.9,0.3-1.4,0.4c-0.4,0.1-0.9,0.1-1.4,0.1c-1.6,0-2.8-0.4-3.7-1.3
			c-0.9-0.9-1.3-2.3-1.3-4.2v-8.8h-2.5v-3.3h2.5v-4.2H227.4z"/>
		<path class="st0" d="M232.5,150.9c0-2.6,0.7-4.7,2.1-6.3s3.4-2.5,5.9-2.5c2.5,0,4.5,0.8,6,2.4c1.4,1.6,2.2,3.7,2.2,6.3v0.3
			c0,2.6-0.7,4.7-2.2,6.3c-1.4,1.6-3.4,2.4-6,2.4c-2.5,0-4.5-0.8-6-2.4s-2.2-3.7-2.2-6.3V150.9z M237.1,151.2c0,1.6,0.3,2.8,0.8,3.8
			c0.6,0.9,1.4,1.4,2.7,1.4c1.2,0,2.1-0.5,2.6-1.4c0.6-1,0.8-2.2,0.8-3.8v-0.3c0-1.5-0.3-2.8-0.8-3.7s-1.4-1.4-2.7-1.4
			c-1.2,0-2.1,0.5-2.6,1.5c-0.6,1-0.8,2.2-0.8,3.7V151.2z"/>
		<path class="st0" d="M255.8,142.5l0.2,2.5c0.6-0.9,1.3-1.6,2.1-2c0.8-0.5,1.8-0.7,2.8-0.7c1.7,0,3.1,0.6,4.1,1.7
			c1,1.1,1.5,2.9,1.5,5.3v10.5h-4.7v-10.5c0-1.2-0.2-2.1-0.6-2.6s-1.1-0.8-1.9-0.8c-0.7,0-1.3,0.1-1.8,0.4c-0.5,0.3-1,0.6-1.3,1.1
			v12.4h-4.6v-17.2H255.8z"/>
		<path class="st0" d="M277.4,160c-2.6,0-4.6-0.8-6-2.4c-1.4-1.6-2.2-3.6-2.2-6.1v-0.6c0-2.6,0.7-4.7,2.1-6.3
			c1.4-1.6,3.3-2.5,5.8-2.4c2.3,0,4.1,0.7,5.3,2.1c1.2,1.4,1.9,3.3,1.9,5.7v2.4H274l0,0.1c0.1,1.2,0.4,2.1,1.1,2.9
			c0.6,0.7,1.6,1.1,2.9,1.1c1,0,1.9-0.1,2.6-0.3c0.7-0.2,1.5-0.5,2.2-1l1.3,2.9c-0.7,0.6-1.6,1-2.8,1.4
			C280,159.8,278.8,160,277.4,160z M277.1,145.7c-0.9,0-1.7,0.3-2.2,1c-0.5,0.6-0.8,1.5-0.9,2.5l0,0.1h5.7V149c0-1-0.2-1.8-0.6-2.4
			C278.7,146,278,145.7,277.1,145.7z"/>
		<path class="st0" d="M291.8,159.7h-4.6v-24.8h4.6V159.7z"/>
		<path class="st0" d="M305.8,159.7c-0.2-0.4-0.3-0.8-0.4-1.2c-0.1-0.4-0.2-0.9-0.3-1.3c-0.5,0.8-1.1,1.5-1.9,2.1
			c-0.8,0.5-1.7,0.8-2.8,0.8c-1.8,0-3.2-0.5-4.2-1.4c-1-0.9-1.5-2.2-1.5-3.8c0-1.7,0.6-3,1.9-3.9s3.2-1.4,5.7-1.4h2.6v-1.4
			c0-0.8-0.2-1.5-0.7-1.9c-0.4-0.5-1.1-0.7-1.9-0.7c-0.8,0-1.3,0.2-1.7,0.5c-0.4,0.4-0.6,0.9-0.6,1.5h-4.5l0-0.1
			c-0.1-1.5,0.6-2.7,1.9-3.8c1.3-1.1,3.1-1.6,5.3-1.6c2.1,0,3.7,0.5,5,1.6c1.3,1,1.9,2.5,1.9,4.5v7.1c0,0.8,0.1,1.6,0.2,2.3
			c0.1,0.7,0.3,1.4,0.6,2.1H305.8z M301.5,156.6c0.8,0,1.5-0.2,2.2-0.6c0.6-0.4,1.1-0.9,1.3-1.4v-2.4h-2.6c-1,0-1.7,0.2-2.2,0.7
			s-0.8,1.1-0.8,1.8c0,0.6,0.2,1,0.6,1.4C300.3,156.4,300.9,156.6,301.5,156.6z"/>
		<path class="st0" d="M312.4,151.2c0-2.7,0.6-4.9,1.8-6.6c1.2-1.7,2.8-2.5,5-2.5c0.9,0,1.6,0.2,2.3,0.6c0.7,0.4,1.3,0.9,1.8,1.6
			v-9.4h4.7v24.8h-4l-0.4-2.1c-0.5,0.8-1.2,1.4-1.9,1.8s-1.6,0.6-2.5,0.6c-2.1,0-3.7-0.8-4.9-2.3c-1.2-1.5-1.8-3.6-1.8-6.1V151.2z
			 M317,151.5c0,1.5,0.3,2.7,0.8,3.6c0.5,0.9,1.3,1.3,2.5,1.3c0.7,0,1.2-0.1,1.7-0.4s0.9-0.7,1.2-1.2v-7.3c-0.3-0.5-0.7-1-1.2-1.3
			c-0.5-0.3-1.1-0.5-1.7-0.5c-1.1,0-2,0.5-2.5,1.5c-0.5,1-0.8,2.3-0.8,3.9V151.5z"/>
		<path class="st0" d="M341.6,159.7c-0.2-0.4-0.3-0.8-0.4-1.2c-0.1-0.4-0.2-0.9-0.3-1.3c-0.5,0.8-1.1,1.5-1.9,2.1
			c-0.8,0.5-1.7,0.8-2.8,0.8c-1.8,0-3.2-0.5-4.2-1.4c-1-0.9-1.5-2.2-1.5-3.8c0-1.7,0.6-3,1.9-3.9s3.2-1.4,5.7-1.4h2.6v-1.4
			c0-0.8-0.2-1.5-0.7-1.9c-0.4-0.5-1.1-0.7-1.9-0.7c-0.8,0-1.3,0.2-1.7,0.5c-0.4,0.4-0.6,0.9-0.6,1.5h-4.5l0-0.1
			c-0.1-1.5,0.6-2.7,1.9-3.8c1.3-1.1,3.1-1.6,5.3-1.6c2.1,0,3.7,0.5,5,1.6c1.3,1,1.9,2.5,1.9,4.5v7.1c0,0.8,0.1,1.6,0.2,2.3
			c0.1,0.7,0.3,1.4,0.6,2.1H341.6z M337.4,156.6c0.8,0,1.5-0.2,2.2-0.6c0.6-0.4,1.1-0.9,1.3-1.4v-2.4h-2.6c-1,0-1.7,0.2-2.2,0.7
			s-0.8,1.1-0.8,1.8c0,0.6,0.2,1,0.6,1.4C336.2,156.4,336.7,156.6,337.4,156.6z"/>
		<path class="st0" d="M358.3,154.9c0-0.5-0.2-0.9-0.7-1.3s-1.4-0.7-2.7-1c-2-0.4-3.5-1-4.6-1.8c-1-0.8-1.6-1.9-1.6-3.3
			c0-1.5,0.6-2.7,1.9-3.8s2.9-1.6,5-1.6c2.2,0,3.9,0.5,5.2,1.6c1.3,1,1.9,2.3,1.9,3.9l0,0.1h-4.5c0-0.7-0.2-1.2-0.7-1.7
			c-0.4-0.4-1.1-0.7-1.9-0.7c-0.7,0-1.3,0.2-1.8,0.6c-0.4,0.4-0.7,0.8-0.7,1.4c0,0.5,0.2,1,0.7,1.3c0.5,0.3,1.4,0.6,2.7,0.9
			c2.1,0.4,3.7,1,4.7,1.9c1,0.8,1.5,2,1.5,3.4c0,1.5-0.7,2.8-2,3.8c-1.3,1-3.1,1.5-5.2,1.5c-2.3,0-4.1-0.6-5.4-1.7
			c-1.3-1.2-2-2.5-1.9-4l0-0.1h4.2c0,0.9,0.3,1.6,0.9,2s1.3,0.6,2.2,0.6c0.9,0,1.5-0.2,2-0.5C358,156,358.3,155.5,358.3,154.9z"/>
		<path class="st0" d="M373.1,151.2c0-2.7,0.6-4.9,1.8-6.6c1.2-1.7,2.8-2.5,5-2.5c0.9,0,1.6,0.2,2.3,0.6c0.7,0.4,1.3,0.9,1.8,1.6
			v-9.4h4.7v24.8h-4l-0.4-2.1c-0.5,0.8-1.2,1.4-1.9,1.8s-1.6,0.6-2.5,0.6c-2.1,0-3.7-0.8-4.9-2.3c-1.2-1.5-1.8-3.6-1.8-6.1V151.2z
			 M377.8,151.5c0,1.5,0.3,2.7,0.8,3.6c0.5,0.9,1.3,1.3,2.5,1.3c0.7,0,1.2-0.1,1.7-0.4s0.9-0.7,1.2-1.2v-7.3c-0.3-0.5-0.7-1-1.2-1.3
			c-0.5-0.3-1.1-0.5-1.7-0.5c-1.1,0-2,0.5-2.5,1.5c-0.5,1-0.8,2.3-0.8,3.9V151.5z"/>
		<path class="st0" d="M399.7,160c-2.6,0-4.6-0.8-6-2.4s-2.2-3.6-2.2-6.1v-0.6c0-2.6,0.7-4.7,2.1-6.3c1.4-1.6,3.3-2.5,5.8-2.4
			c2.3,0,4.1,0.7,5.3,2.1c1.2,1.4,1.9,3.3,1.9,5.7v2.4h-10.2l0,0.1c0.1,1.2,0.4,2.1,1.1,2.9c0.6,0.7,1.6,1.1,2.9,1.1
			c1,0,1.9-0.1,2.6-0.3s1.5-0.5,2.2-1l1.3,2.9c-0.7,0.6-1.6,1-2.8,1.4C402.3,159.8,401.1,160,399.7,160z M399.4,145.7
			c-0.9,0-1.7,0.3-2.2,1s-0.8,1.5-0.9,2.5l0,0.1h5.7V149c0-1-0.2-1.8-0.6-2.4C401,146,400.3,145.7,399.4,145.7z"/>
		<path class="st0" d="M421.6,142.5l0.2,2.3c0.5-0.8,1.2-1.5,2.1-1.9s1.8-0.7,2.9-0.7c1.1,0,2,0.2,2.8,0.7s1.4,1.2,1.8,2.2
			c0.5-0.9,1.2-1.6,2.1-2.2c0.8-0.5,1.8-0.8,3-0.8c1.7,0,3,0.6,4,1.8c1,1.2,1.5,3,1.5,5.5v10.2h-4.6v-10.2c0-1.4-0.2-2.3-0.6-2.9
			c-0.4-0.5-1.1-0.8-1.9-0.8c-0.7,0-1.2,0.1-1.7,0.4c-0.5,0.3-0.9,0.7-1.2,1.2c0,0.2,0,0.4,0,0.5s0,0.3,0,0.4v11.3h-4.6v-10.2
			c0-1.3-0.2-2.3-0.6-2.9c-0.4-0.6-1.1-0.8-1.9-0.8c-0.6,0-1.2,0.1-1.6,0.4c-0.5,0.2-0.9,0.6-1.2,1v12.5h-4.6v-17.2H421.6z"/>
		<path class="st0" d="M444.8,150.9c0-2.6,0.7-4.7,2.1-6.3c1.4-1.6,3.4-2.5,5.9-2.5c2.5,0,4.5,0.8,6,2.4c1.4,1.6,2.2,3.7,2.2,6.3
			v0.3c0,2.6-0.7,4.7-2.2,6.3s-3.4,2.4-6,2.4c-2.5,0-4.5-0.8-6-2.4s-2.2-3.7-2.2-6.3V150.9z M449.4,151.2c0,1.6,0.3,2.8,0.8,3.8
			c0.6,0.9,1.4,1.4,2.7,1.4c1.2,0,2.1-0.5,2.6-1.4c0.6-1,0.8-2.2,0.8-3.8v-0.3c0-1.5-0.3-2.8-0.8-3.7s-1.4-1.4-2.7-1.4
			c-1.2,0-2.1,0.5-2.6,1.5c-0.6,1-0.8,2.2-0.8,3.7V151.2z"/>
		<path class="st0" d="M468.7,159.7h-4.6v-24.8h4.6V159.7z"/>
		<path class="st0" d="M477.4,138.4h-4.6v-3.5h4.6V138.4z M477.4,159.7h-4.6v-17.2h4.6V159.7z"/>
		<path class="st0" d="M496.8,151.5c0,2.6-0.6,4.6-1.7,6.1c-1.1,1.5-2.8,2.3-5,2.3c-1,0-1.9-0.2-2.6-0.6s-1.4-1-1.9-1.9l-0.4,2.2
			h-3.9v-24.8h4.6v9.4c0.5-0.7,1.1-1.2,1.8-1.6c0.7-0.4,1.5-0.6,2.4-0.6c2.2,0,3.8,0.8,5,2.5c1.1,1.6,1.7,3.8,1.7,6.6V151.5z
			 M492.1,151.2c0-1.7-0.2-3-0.7-4c-0.5-1-1.3-1.5-2.5-1.5c-0.7,0-1.3,0.2-1.8,0.5c-0.5,0.3-0.9,0.7-1.2,1.3v7.3
			c0.3,0.5,0.7,0.9,1.2,1.2s1.1,0.4,1.9,0.4c1.2,0,2-0.4,2.5-1.3c0.5-0.8,0.7-2,0.7-3.6V151.2z"/>
		<path class="st0" d="M498.9,151.2c0-2.7,0.6-4.9,1.8-6.6c1.2-1.7,2.8-2.5,5-2.5c0.9,0,1.6,0.2,2.3,0.6c0.7,0.4,1.3,0.9,1.8,1.6
			v-9.4h4.7v24.8h-4l-0.4-2.1c-0.5,0.8-1.2,1.4-1.9,1.8s-1.6,0.6-2.5,0.6c-2.1,0-3.7-0.8-4.9-2.3c-1.2-1.5-1.8-3.6-1.8-6.1V151.2z
			 M503.5,151.5c0,1.5,0.3,2.7,0.8,3.6c0.5,0.9,1.3,1.3,2.5,1.3c0.7,0,1.2-0.1,1.7-0.4s0.9-0.7,1.2-1.2v-7.3c-0.3-0.5-0.7-1-1.2-1.3
			c-0.5-0.3-1.1-0.5-1.7-0.5c-1.1,0-2,0.5-2.5,1.5c-0.5,1-0.8,2.3-0.8,3.9V151.5z"/>
		<path class="st0" d="M525.4,160c-2.6,0-4.6-0.8-6-2.4s-2.2-3.6-2.2-6.1v-0.6c0-2.6,0.7-4.7,2.1-6.3c1.4-1.6,3.3-2.5,5.8-2.4
			c2.3,0,4.1,0.7,5.3,2.1c1.2,1.4,1.9,3.3,1.9,5.7v2.4h-10.2l0,0.1c0.1,1.2,0.4,2.1,1.1,2.9c0.6,0.7,1.6,1.1,2.9,1.1
			c1,0,1.9-0.1,2.6-0.3s1.5-0.5,2.2-1l1.3,2.9c-0.7,0.6-1.6,1-2.8,1.4C528.1,159.8,526.8,160,525.4,160z M525.1,145.7
			c-0.9,0-1.7,0.3-2.2,1s-0.8,1.5-0.9,2.5l0,0.1h5.7V149c0-1-0.2-1.8-0.6-2.4C526.7,146,526.1,145.7,525.1,145.7z"/>
		<path class="st0" d="M539.3,142.5l0.2,2.5c0.6-0.9,1.3-1.6,2.1-2s1.8-0.7,2.8-0.7c1.7,0,3.1,0.6,4.1,1.7c1,1.1,1.5,2.9,1.5,5.3
			v10.5h-4.7v-10.5c0-1.2-0.2-2.1-0.6-2.6s-1.1-0.8-1.9-0.8c-0.7,0-1.3,0.1-1.8,0.4c-0.5,0.3-1,0.6-1.3,1.1v12.4h-4.6v-17.2H539.3z"
			/>
		<path class="st0" d="M552.7,150.9c0-2.6,0.7-4.7,2.1-6.3c1.4-1.6,3.4-2.5,5.9-2.5c2.5,0,4.5,0.8,6,2.4c1.4,1.6,2.2,3.7,2.2,6.3
			v0.3c0,2.6-0.7,4.7-2.2,6.3s-3.4,2.4-6,2.4c-2.5,0-4.5-0.8-6-2.4s-2.2-3.7-2.2-6.3V150.9z M557.3,151.2c0,1.6,0.3,2.8,0.8,3.8
			c0.6,0.9,1.4,1.4,2.7,1.4c1.2,0,2.1-0.5,2.6-1.4c0.6-1,0.8-2.2,0.8-3.8v-0.3c0-1.5-0.3-2.8-0.8-3.7s-1.4-1.4-2.7-1.4
			c-1.2,0-2.1,0.5-2.6,1.5c-0.6,1-0.8,2.2-0.8,3.7V151.2z"/>
	</g>
</g>
<g>
	<path class="st0" d="M4,196.6c0-3.1,0.6-5.5,1.9-7.3c1.3-1.8,3.1-2.8,5.4-2.8c1.3,0,2.5,0.3,3.5,0.8s1.8,1.4,2.4,2.4v-11.4h2.1V206
		h-1.9l-0.2-2.8c-0.6,1-1.5,1.8-2.5,2.3c-1,0.5-2.2,0.8-3.5,0.8c-2.3,0-4.1-0.9-5.4-2.6c-1.3-1.7-1.9-4-1.9-6.9V196.6z M6.1,197
		c0,2.3,0.5,4.2,1.4,5.5c0.9,1.4,2.3,2.1,4.2,2.1c1.4,0,2.5-0.3,3.4-0.9s1.6-1.5,2.1-2.6v-9c-0.5-1.1-1.2-2-2.1-2.7
		c-0.9-0.7-2-1-3.5-1c-1.9,0-3.3,0.8-4.2,2.3c-0.9,1.5-1.4,3.5-1.4,6V197z"/>
	<path class="st0" d="M37.5,202.9c-0.6,1.1-1.4,2-2.5,2.6c-1,0.6-2.3,0.9-3.7,0.9c-2,0-3.6-0.7-4.7-2.1c-1.1-1.4-1.7-3.5-1.7-6.4
		v-11.1H27V198c0,2.3,0.4,4,1.2,5c0.8,1,1.9,1.5,3.4,1.5c1.6,0,2.9-0.4,3.8-1.1c1-0.7,1.6-1.7,2-3v-13.7h2.1V206h-1.9L37.5,202.9z"
		/>
	<path class="st0" d="M54,188.7l-1.6-0.1c-1.3,0-2.4,0.4-3.3,1.1c-0.9,0.8-1.5,1.8-1.8,3.1V206h-2.1v-19.2H47l0.3,3.2v0.2
		c0.6-1.2,1.3-2.1,2.2-2.8c0.9-0.7,2-1,3.3-1c0.3,0,0.5,0,0.8,0.1c0.3,0,0.5,0.1,0.6,0.1L54,188.7z"/>
	<path class="st0" d="M69.6,206c-0.1-0.6-0.2-1.2-0.3-1.7c-0.1-0.5-0.1-1-0.1-1.4c-0.7,1-1.7,1.8-2.8,2.5c-1.2,0.7-2.5,1-4,1
		c-1.9,0-3.3-0.5-4.3-1.5c-1-1-1.5-2.3-1.5-4c0-1.8,0.8-3.2,2.3-4.2c1.5-1.1,3.6-1.6,6.2-1.6h4.2v-2.4c0-1.4-0.4-2.4-1.3-3.2
		c-0.9-0.8-2.1-1.2-3.7-1.2c-1.5,0-2.7,0.4-3.7,1.1s-1.5,1.7-1.5,2.7l-1.9,0l0-0.1c-0.1-1.4,0.6-2.7,2-3.8c1.4-1.1,3.1-1.7,5.3-1.7
		c2.1,0,3.8,0.5,5.1,1.6c1.3,1.1,1.9,2.6,1.9,4.6v9.4c0,0.7,0,1.3,0.1,2c0.1,0.6,0.2,1.3,0.4,1.9H69.6z M62.7,204.5
		c1.5,0,2.9-0.4,4-1.1c1.2-0.7,2-1.6,2.5-2.7v-4H65c-1.9,0-3.5,0.4-4.6,1.2c-1.2,0.8-1.7,1.8-1.7,3.1c0,1,0.4,1.9,1.1,2.5
		S61.4,204.5,62.7,204.5z"/>
	<path class="st0" d="M78.9,186.8l0.2,3.3c0.6-1.2,1.4-2.1,2.5-2.7s2.3-1,3.7-1c2.1,0,3.7,0.6,4.7,1.9c1.1,1.3,1.6,3.2,1.6,5.9V206
		h-2.1v-11.7c0-2.2-0.4-3.8-1.2-4.7c-0.8-0.9-2-1.4-3.5-1.4c-1.5,0-2.7,0.4-3.6,1.2c-0.9,0.8-1.6,1.8-2,3.1V206H77v-19.2H78.9z"/>
	<path class="st0" d="M100.5,181.9v4.9h4.2v1.7h-4.2v12.5c0,1.3,0.2,2.1,0.7,2.7s1.1,0.8,1.8,0.8c0.3,0,0.7,0,1,0
		c0.3,0,0.7-0.1,1.1-0.2l0.3,1.6c-0.4,0.2-0.8,0.3-1.3,0.4c-0.5,0.1-1,0.1-1.5,0.1c-1.3,0-2.4-0.4-3.1-1.3c-0.8-0.8-1.1-2.2-1.1-4
		v-12.5h-3.3v-1.7h3.3v-4.9H100.5z"/>
	<path class="st0" d="M116.4,206.4c-2.4,0-4.4-0.9-6-2.7c-1.6-1.8-2.4-4-2.4-6.7v-1c0-2.7,0.8-5,2.4-6.8c1.6-1.8,3.5-2.7,5.7-2.7
		c2.3,0,4.2,0.7,5.5,2.2c1.3,1.5,2,3.5,2,6v1.8h-13.5v0.5c0,2.2,0.6,4,1.7,5.4c1.1,1.4,2.7,2.2,4.5,2.2c1.3,0,2.4-0.2,3.4-0.5
		s1.7-0.9,2.4-1.6l0.9,1.5c-0.7,0.8-1.6,1.4-2.7,1.8C119.3,206.1,118,206.4,116.4,206.4z M116.2,188.3c-1.6,0-2.9,0.6-3.9,1.8
		s-1.7,2.7-1.9,4.5l0,0.1h11.2v-0.5c0-1.7-0.5-3-1.5-4.2C119.2,188.8,117.8,188.3,116.2,188.3z"/>
	<path class="st0" d="M139.1,206H137v-27.6h2.1V206z"/>
	<path class="st0" d="M143.8,196.1c0-2.8,0.8-5.1,2.3-6.9c1.5-1.8,3.6-2.7,6.1-2.7c2.6,0,4.6,0.9,6.2,2.7c1.5,1.8,2.3,4.1,2.3,6.9
		v0.6c0,2.8-0.8,5.2-2.3,7c-1.5,1.8-3.6,2.7-6.1,2.7c-2.6,0-4.6-0.9-6.2-2.7c-1.5-1.8-2.3-4.1-2.3-7V196.1z M145.9,196.7
		c0,2.2,0.6,4.1,1.7,5.6c1.1,1.5,2.7,2.3,4.7,2.3c2,0,3.5-0.8,4.6-2.3c1.1-1.5,1.7-3.4,1.7-5.6v-0.6c0-2.2-0.6-4-1.7-5.6
		s-2.7-2.3-4.7-2.3s-3.5,0.8-4.7,2.3s-1.7,3.4-1.7,5.6V196.7z"/>
	<path class="st0" d="M176.6,201.1c0-0.9-0.4-1.7-1.1-2.3c-0.7-0.7-2.1-1.2-4-1.6c-2.3-0.5-4-1.2-5.1-2c-1.1-0.8-1.6-2-1.6-3.5
		c0-1.5,0.6-2.7,1.9-3.7c1.2-1,2.9-1.5,4.9-1.5c2.2,0,3.9,0.5,5.1,1.6c1.3,1.1,1.9,2.4,1.8,4l0,0.1h-2c0-1.1-0.4-2-1.3-2.7
		c-0.9-0.8-2.1-1.2-3.6-1.2c-1.5,0-2.7,0.3-3.5,1c-0.8,0.7-1.2,1.4-1.2,2.3c0,0.9,0.3,1.6,1,2.2c0.7,0.6,2,1.1,4,1.5
		c2.3,0.5,4,1.2,5.1,2.1c1.1,0.9,1.7,2.1,1.7,3.6c0,1.6-0.6,2.9-1.9,3.9c-1.3,1-3,1.5-5.1,1.5c-2.3,0-4.2-0.6-5.5-1.7
		c-1.3-1.1-2-2.4-1.9-4l0-0.1h1.9c0.1,1.4,0.6,2.4,1.7,3c1,0.6,2.3,0.9,3.7,0.9c1.5,0,2.7-0.3,3.6-1
		C176.2,202.9,176.6,202.1,176.6,201.1z"/>
	<path class="st0" d="M193,194.3l1.4-14.1H207v2h-10.7l-1,9.2c0.6-0.6,1.4-1,2.1-1.4c0.8-0.3,1.8-0.5,3.2-0.5c2.2,0,4,0.7,5.3,2.2
		c1.3,1.5,2,3.5,2,6.1c0,2.6-0.7,4.7-2,6.3c-1.3,1.6-3.3,2.3-5.9,2.3c-2.1,0-3.9-0.6-5.3-1.8c-1.4-1.2-2.1-2.9-2-5.3l0-0.1h1.9
		c0,1.7,0.5,3.1,1.5,4c1,0.9,2.3,1.4,3.9,1.4c1.9,0,3.3-0.6,4.3-1.7c1-1.2,1.4-2.8,1.4-5c0-1.9-0.5-3.5-1.4-4.6
		c-1-1.2-2.3-1.7-4-1.7c-1.7,0-2.9,0.3-3.8,0.8c-0.9,0.5-1.5,1.3-1.9,2.4L193,194.3z"/>
	<path class="st0" d="M236.8,197c0,2.9-0.6,5.2-1.9,6.9c-1.3,1.7-3.1,2.6-5.4,2.6c-1.3,0-2.5-0.3-3.5-0.8s-1.8-1.2-2.5-2.2v9.9h-2.1
		v-26.5h1.8l0.3,3c0.6-1.1,1.5-1.9,2.5-2.5c1-0.6,2.2-0.9,3.6-0.9c2.3,0,4.1,0.9,5.4,2.8s1.9,4.3,1.9,7.3V197z M234.7,196.6
		c0-2.4-0.5-4.4-1.5-6c-1-1.5-2.4-2.3-4.3-2.3c-1.4,0-2.6,0.3-3.5,1c-0.9,0.7-1.6,1.6-2,2.7v9.2c0.5,1.1,1.2,1.9,2.1,2.5
		c0.9,0.6,2.1,0.9,3.4,0.9c1.9,0,3.3-0.7,4.2-2.1c1-1.4,1.4-3.2,1.4-5.5V196.6z"/>
	<path class="st0" d="M250.4,188.7l-1.6-0.1c-1.3,0-2.4,0.4-3.3,1.1c-0.9,0.8-1.5,1.8-1.8,3.1V206h-2.1v-19.2h1.9l0.3,3.2v0.2
		c0.6-1.2,1.3-2.1,2.2-2.8c0.9-0.7,2-1,3.3-1c0.3,0,0.5,0,0.8,0.1c0.3,0,0.5,0.1,0.6,0.1L250.4,188.7z"/>
	<path class="st0" d="M256.3,181.3h-2.1v-3h2.1V181.3z M256.3,206h-2.1v-19.2h2.1V206z"/>
	<path class="st0" d="M263.9,186.8l0.2,3.2c0.6-1.1,1.4-2,2.5-2.6c1-0.6,2.2-0.9,3.7-0.9c1.5,0,2.7,0.4,3.7,1.1
		c1,0.7,1.7,1.8,2.1,3.2c0.6-1.3,1.4-2.4,2.5-3.2c1.1-0.8,2.4-1.1,3.9-1.1c2,0,3.6,0.7,4.7,2c1.1,1.4,1.7,3.5,1.7,6.3V206h-2.1
		v-11.2c0-2.4-0.4-4-1.2-5c-0.8-1-2-1.5-3.5-1.5c-1.6,0-2.9,0.5-3.8,1.5c-0.9,1-1.5,2.3-1.7,4c0,0.1,0,0.2,0,0.4s0,0.3,0,0.3V206
		h-2.1v-11.2c0-2.3-0.4-4-1.3-5c-0.8-1-2-1.5-3.5-1.5c-1.5,0-2.7,0.4-3.6,1.1c-0.9,0.8-1.5,1.8-1.9,3.1V206H262v-19.2H263.9z"/>
	<path class="st0" d="M301.5,206.4c-2.4,0-4.4-0.9-6-2.7c-1.6-1.8-2.4-4-2.4-6.7v-1c0-2.7,0.8-5,2.4-6.8c1.6-1.8,3.5-2.7,5.7-2.7
		c2.3,0,4.2,0.7,5.5,2.2c1.3,1.5,2,3.5,2,6v1.8h-13.5v0.5c0,2.2,0.6,4,1.7,5.4c1.1,1.4,2.7,2.2,4.5,2.2c1.3,0,2.4-0.2,3.4-0.5
		c0.9-0.4,1.7-0.9,2.4-1.6l0.9,1.5c-0.7,0.8-1.6,1.4-2.7,1.8C304.3,206.1,303,206.4,301.5,206.4z M301.2,188.3
		c-1.6,0-2.9,0.6-3.9,1.8s-1.7,2.7-1.9,4.5l0,0.1h11.2v-0.5c0-1.7-0.5-3-1.5-4.2C304.2,188.8,302.9,188.3,301.2,188.3z"/>
	<path class="st0" d="M321.8,188.7l-1.6-0.1c-1.3,0-2.4,0.4-3.3,1.1c-0.9,0.8-1.5,1.8-1.8,3.1V206H313v-19.2h1.9l0.3,3.2v0.2
		c0.6-1.2,1.3-2.1,2.2-2.8s2-1,3.3-1c0.3,0,0.5,0,0.8,0.1c0.3,0,0.5,0.1,0.6,0.1L321.8,188.7z"/>
	<path class="st0" d="M323.8,196.1c0-2.8,0.8-5.1,2.3-6.9c1.5-1.8,3.6-2.7,6.1-2.7c2.6,0,4.6,0.9,6.2,2.7c1.5,1.8,2.3,4.1,2.3,6.9
		v0.6c0,2.8-0.8,5.2-2.3,7c-1.5,1.8-3.6,2.7-6.1,2.7c-2.6,0-4.6-0.9-6.2-2.7c-1.5-1.8-2.3-4.1-2.3-7V196.1z M325.9,196.7
		c0,2.2,0.6,4.1,1.7,5.6c1.1,1.5,2.7,2.3,4.7,2.3c2,0,3.5-0.8,4.6-2.3c1.1-1.5,1.7-3.4,1.7-5.6v-0.6c0-2.2-0.6-4-1.7-5.6
		s-2.7-2.3-4.7-2.3s-3.5,0.8-4.7,2.3s-1.7,3.4-1.7,5.6V196.7z"/>
	<path class="st0" d="M356.6,201.1c0-0.9-0.4-1.7-1.1-2.3c-0.7-0.7-2.1-1.2-4-1.6c-2.3-0.5-4-1.2-5.1-2c-1.1-0.8-1.6-2-1.6-3.5
		c0-1.5,0.6-2.7,1.9-3.7c1.2-1,2.9-1.5,4.9-1.5c2.2,0,3.9,0.5,5.1,1.6s1.9,2.4,1.8,4l0,0.1h-2c0-1.1-0.4-2-1.3-2.7s-2.1-1.2-3.6-1.2
		c-1.5,0-2.7,0.3-3.5,1c-0.8,0.7-1.2,1.4-1.2,2.3c0,0.9,0.3,1.6,1,2.2c0.7,0.6,2,1.1,4,1.5c2.3,0.5,4,1.2,5.1,2.1
		c1.1,0.9,1.7,2.1,1.7,3.6c0,1.6-0.6,2.9-1.9,3.9c-1.3,1-3,1.5-5.1,1.5c-2.3,0-4.2-0.6-5.5-1.7c-1.3-1.1-2-2.4-1.9-4l0-0.1h1.9
		c0.1,1.4,0.6,2.4,1.7,3s2.3,0.9,3.7,0.9c1.5,0,2.7-0.3,3.6-1C356.2,202.9,356.6,202.1,356.6,201.1z"/>
	<path class="st0" d="M384.6,206c-0.1-0.6-0.2-1.2-0.3-1.7c-0.1-0.5-0.1-1-0.1-1.4c-0.7,1-1.7,1.8-2.8,2.5s-2.5,1-4,1
		c-1.9,0-3.3-0.5-4.3-1.5c-1-1-1.5-2.3-1.5-4c0-1.8,0.8-3.2,2.3-4.2s3.6-1.6,6.2-1.6h4.2v-2.4c0-1.4-0.4-2.4-1.3-3.2
		c-0.9-0.8-2.1-1.2-3.7-1.2c-1.5,0-2.7,0.4-3.7,1.1c-1,0.7-1.5,1.7-1.5,2.7l-1.9,0l0-0.1c-0.1-1.4,0.6-2.7,2-3.8
		c1.4-1.1,3.1-1.7,5.3-1.7c2.1,0,3.8,0.5,5.1,1.6c1.3,1.1,1.9,2.6,1.9,4.6v9.4c0,0.7,0,1.3,0.1,2c0.1,0.6,0.2,1.3,0.4,1.9H384.6z
		 M377.6,204.5c1.5,0,2.9-0.4,4-1.1c1.2-0.7,2-1.6,2.5-2.7v-4h-4.3c-1.9,0-3.5,0.4-4.6,1.2c-1.2,0.8-1.7,1.8-1.7,3.1
		c0,1,0.4,1.9,1.1,2.5C375.4,204.2,376.3,204.5,377.6,204.5z"/>
	<path class="st0" d="M393.8,186.8l0.2,3.3c0.6-1.2,1.4-2.1,2.5-2.7s2.3-1,3.7-1c2.1,0,3.7,0.6,4.7,1.9c1.1,1.3,1.6,3.2,1.6,5.9V206
		h-2.1v-11.7c0-2.2-0.4-3.8-1.2-4.7c-0.8-0.9-2-1.4-3.5-1.4c-1.5,0-2.7,0.4-3.6,1.2c-0.9,0.8-1.6,1.8-2,3.1V206h-2.1v-19.2H393.8z
		 M405,179.4c0,1-0.3,1.9-1,2.6s-1.5,1-2.4,1c-0.9,0-1.8-0.3-2.7-1s-1.7-1-2.3-1c-0.6,0-1,0.2-1.4,0.6c-0.4,0.4-0.6,0.9-0.6,1.6
		l-1.4-0.3c0-1,0.3-1.9,1-2.6c0.6-0.7,1.4-1,2.4-1c0.8,0,1.6,0.3,2.6,1c1,0.6,1.8,1,2.4,1c0.5,0,1-0.2,1.4-0.6
		c0.4-0.4,0.6-1,0.6-1.6L405,179.4z"/>
	<path class="st0" d="M410.9,196.1c0-2.8,0.8-5.1,2.3-6.9c1.5-1.8,3.6-2.7,6.1-2.7c2.6,0,4.6,0.9,6.2,2.7c1.5,1.8,2.3,4.1,2.3,6.9
		v0.6c0,2.8-0.8,5.2-2.3,7c-1.5,1.8-3.6,2.7-6.1,2.7c-2.6,0-4.6-0.9-6.2-2.7c-1.5-1.8-2.3-4.1-2.3-7V196.1z M413.1,196.7
		c0,2.2,0.6,4.1,1.7,5.6c1.1,1.5,2.7,2.3,4.7,2.3c2,0,3.5-0.8,4.6-2.3c1.1-1.5,1.7-3.4,1.7-5.6v-0.6c0-2.2-0.6-4-1.7-5.6
		s-2.7-2.3-4.7-2.3s-3.5,0.8-4.7,2.3s-1.7,3.4-1.7,5.6V196.7z"/>
	<path class="st0" d="M443.8,201.1c0-0.9-0.4-1.7-1.1-2.3c-0.7-0.7-2.1-1.2-4-1.6c-2.3-0.5-4-1.2-5.1-2c-1.1-0.8-1.6-2-1.6-3.5
		c0-1.5,0.6-2.7,1.9-3.7c1.2-1,2.9-1.5,4.9-1.5c2.2,0,3.9,0.5,5.1,1.6s1.9,2.4,1.8,4l0,0.1h-2c0-1.1-0.4-2-1.3-2.7s-2.1-1.2-3.6-1.2
		c-1.5,0-2.7,0.3-3.5,1c-0.8,0.7-1.2,1.4-1.2,2.3c0,0.9,0.3,1.6,1,2.2c0.7,0.6,2,1.1,4,1.5c2.3,0.5,4,1.2,5.1,2.1
		c1.1,0.9,1.7,2.1,1.7,3.6c0,1.6-0.6,2.9-1.9,3.9c-1.3,1-3,1.5-5.1,1.5c-2.3,0-4.2-0.6-5.5-1.7c-1.3-1.1-2-2.4-1.9-4l0-0.1h1.9
		c0.1,1.4,0.6,2.4,1.7,3s2.3,0.9,3.7,0.9c1.5,0,2.7-0.3,3.6-1C443.4,202.9,443.8,202.1,443.8,201.1z"/>
	<path class="st0" d="M458.8,196.6c0-3.1,0.6-5.5,1.9-7.3c1.3-1.8,3.1-2.8,5.4-2.8c1.3,0,2.5,0.3,3.5,0.8c1,0.6,1.8,1.4,2.4,2.4
		v-11.4h2.1V206h-1.9l-0.2-2.8c-0.6,1-1.5,1.8-2.5,2.3c-1,0.5-2.2,0.8-3.5,0.8c-2.3,0-4.1-0.9-5.4-2.6c-1.3-1.7-1.9-4-1.9-6.9V196.6
		z M460.9,197c0,2.3,0.5,4.2,1.4,5.5c0.9,1.4,2.3,2.1,4.2,2.1c1.4,0,2.5-0.3,3.4-0.9c0.9-0.6,1.6-1.5,2.1-2.6v-9
		c-0.5-1.1-1.2-2-2.1-2.7s-2-1-3.5-1c-1.9,0-3.3,0.8-4.2,2.3c-0.9,1.5-1.4,3.5-1.4,6V197z"/>
	<path class="st0" d="M487,206.4c-2.4,0-4.4-0.9-6-2.7c-1.6-1.8-2.4-4-2.4-6.7v-1c0-2.7,0.8-5,2.4-6.8c1.6-1.8,3.5-2.7,5.7-2.7
		c2.3,0,4.2,0.7,5.5,2.2c1.3,1.5,2,3.5,2,6v1.8h-13.5v0.5c0,2.2,0.6,4,1.7,5.4c1.1,1.4,2.7,2.2,4.5,2.2c1.3,0,2.4-0.2,3.4-0.5
		c0.9-0.4,1.7-0.9,2.4-1.6l0.9,1.5c-0.7,0.8-1.6,1.4-2.7,1.8C489.8,206.1,488.5,206.4,487,206.4z M486.7,188.3
		c-1.6,0-2.9,0.6-3.9,1.8s-1.7,2.7-1.9,4.5l0,0.1h11.2v-0.5c0-1.7-0.5-3-1.5-4.2C489.7,188.8,488.4,188.3,486.7,188.3z"/>
	<path class="st0" d="M512.8,201.2l0.6,2.2h0.1l0.7-2.2l5.2-14.4h2.2l-7.3,19.2h-1.7l-7.3-19.2h2.2L512.8,201.2z"/>
	<path class="st0" d="M527.4,181.3h-2.1v-3h2.1V181.3z M527.4,206h-2.1v-19.2h2.1V206z"/>
	<path class="st0" d="M532.4,196.6c0-3.1,0.6-5.5,1.9-7.3c1.3-1.8,3.1-2.8,5.4-2.8c1.3,0,2.5,0.3,3.5,0.8c1,0.6,1.8,1.4,2.4,2.4
		v-11.4h2.1V206h-1.9l-0.2-2.8c-0.6,1-1.5,1.8-2.5,2.3c-1,0.5-2.2,0.8-3.5,0.8c-2.3,0-4.1-0.9-5.4-2.6c-1.3-1.7-1.9-4-1.9-6.9V196.6
		z M534.6,197c0,2.3,0.5,4.2,1.4,5.5c0.9,1.4,2.3,2.1,4.2,2.1c1.4,0,2.5-0.3,3.4-0.9c0.9-0.6,1.6-1.5,2.1-2.6v-9
		c-0.5-1.1-1.2-2-2.1-2.7s-2-1-3.5-1c-1.9,0-3.3,0.8-4.2,2.3c-0.9,1.5-1.4,3.5-1.4,6V197z"/>
	<path class="st0" d="M565.6,206c-0.1-0.6-0.2-1.2-0.3-1.7c-0.1-0.5-0.1-1-0.1-1.4c-0.7,1-1.7,1.8-2.8,2.5s-2.5,1-4,1
		c-1.9,0-3.3-0.5-4.3-1.5c-1-1-1.5-2.3-1.5-4c0-1.8,0.8-3.2,2.3-4.2s3.6-1.6,6.2-1.6h4.2v-2.4c0-1.4-0.4-2.4-1.3-3.2
		c-0.9-0.8-2.1-1.2-3.7-1.2c-1.5,0-2.7,0.4-3.7,1.1c-1,0.7-1.5,1.7-1.5,2.7l-1.9,0l0-0.1c-0.1-1.4,0.6-2.7,2-3.8
		c1.4-1.1,3.1-1.7,5.3-1.7c2.1,0,3.8,0.5,5.1,1.6c1.3,1.1,1.9,2.6,1.9,4.6v9.4c0,0.7,0,1.3,0.1,2c0.1,0.6,0.2,1.3,0.4,1.9H565.6z
		 M558.6,204.5c1.5,0,2.9-0.4,4-1.1c1.2-0.7,2-1.6,2.5-2.7v-4h-4.3c-1.9,0-3.5,0.4-4.6,1.2c-1.2,0.8-1.7,1.8-1.7,3.1
		c0,1,0.4,1.9,1.1,2.5C556.4,204.2,557.4,204.5,558.6,204.5z"/>
</g>
</svg>
