<?xml version="1.0" encoding="utf-8"?>
<!-- Generator: Adobe Illustrator 22.1.0, SVG Export Plug-In . SVG Version: 6.00 Build 0)  -->
<svg version="1.1" id="Capa_1" xmlns="http://www.w3.org/2000/svg" xmlns:xlink="http://www.w3.org/1999/xlink" x="0px" y="0px"
	 viewBox="0 0 1194 1280" style="enable-background:new 0 0 1194 1280;" xml:space="preserve">
<style type="text/css">
	.st0{fill:#FFFFFF;}
</style>
<polygon class="st0" points="374.8,119.8 413.8,56.8 545.8,68.8 557,80 596.8,227.8 614.8,356.8 917.9,374.8 955,400 1022.9,455.8 
	1076.9,449.8 1114,480 1151.9,542.8 1136.9,857.8 1114,880 1035,1040 955,1200 914.9,1226.9 876,1200 821.8,1178.9 796,1200 
	671.8,1238.9 452.8,1229.9 398,1120 203.8,920.8 159,800 95.8,749.8 80,720 35.8,671.8 56.8,584.8 98.8,542.8 221.8,527.8 
	248.8,581.8 359.8,590.8 "/>
<g transform="translate(0.000000,1280.000000) scale(0.100000,-0.100000)">
	<path d="M3978,12403l-3-398l-397-3l-398-2V9600V7200l-392,2l-393,3l-3,398l-2,397h-790H810v-400v-400h790h790v-400v-400h395h395
		v-385v-385h400h400v3185v3185h795h795V9600V7200h400h400v800v800h795h795v-800v-800h400h400v800v800h390h390l-2,403l-3,402H7952
		H6370v1197v1198l-397,2l-398,3l-3,398l-2,397h-795h-795L3978,12403z"/>
	<path d="M9550,8000v-800h400h400v400v400h395h395V6010V4020h400h400v1990v1990l-385,1c-212,1-391,2-397,3c-10,1-14,89-16,399
		l-2,397h-795h-795V8000z"/>
	<path d="M0,6400v-800h400h400v-397l-1-398l396-3l395-2v-800v-800h400h400v-400v-400h395h395v-400v-400h400h400V800V0h1985h1985v400
		v400H6365H4780l-2,400l-3,401l-397-1h-398v400v400l-397,2l-398,3l-3,398l-2,397h-395h-395v800v800h-400h-400v403v402l-395-3l-395-2
		v800v800H400H0V6400z"/>
	<path d="M5570,4000V2400h400h400v1600v1600h-400h-400V4000z"/>
	<path d="M7160,4000V2400h400h400v1600v1600h-400h-400V4000z"/>
	<path d="M8752,4003l3-1598l398-3l397-2v-800V800h-395h-395v400v400h-400h-400v-400V800h400h400V400V0h795h795v1200v1200h395h395
		v800v800h-395h-395v-800v-800h-400h-400v1600v1600h-400h-400L8752,4003z"/>
</g>
</svg>
