<?xml version="1.0" encoding="utf-8"?>
<!-- Generator: Adobe Illustrator 22.1.0, SVG Export Plug-In . SVG Version: 6.00 Build 0)  -->
<svg version="1.1" id="Capa_1" xmlns="http://www.w3.org/2000/svg" xmlns:xlink="http://www.w3.org/1999/xlink" x="0px" y="0px"
	 viewBox="0 0 579 213" style="enable-background:new 0 0 579 213;" xml:space="preserve">
<style type="text/css">
	.st0{fill:#54515C;}
	.st1{fill:#54515D;}
</style>
<g>
	<path class="st0" d="M56.1,78.9c6.5,0,11.3-1.7,14.5-5.1c3.1-3.4,4.7-8.1,4.7-14.2c0-5.1-1.7-9.4-5-12.7c-3.3-3.4-7.9-5.1-13.8-5.1
		c-5,0-9.2,1.5-12.6,4.6s-5.1,7-5.1,11.7H12.5l-0.2-0.6C11.9,47,16,38.2,24.6,31.2c8.6-6.9,19.2-10.4,31.9-10.4
		c14.1,0,25.3,3.3,33.6,10c8.3,6.6,12.4,16.2,12.4,28.6c0,6.2-1.8,12-5.4,17.2c-3.6,5.2-8.5,9.3-14.7,12.3
		c7.1,2.7,12.6,6.8,16.5,12.2c3.9,5.5,5.8,12.1,5.8,19.8c0,12.5-4.5,22.3-13.5,29.4c-9,7.1-20.6,10.7-34.7,10.7
		c-12.4,0-23.3-3.4-32.5-10.1c-9.3-6.7-13.8-16.2-13.5-28.3l0.2-0.6h26.6c0,5.1,1.8,9.4,5.4,12.9c3.6,3.5,8.2,5.2,13.9,5.2
		c6.2,0,11.3-1.8,15.2-5.5c3.9-3.7,5.8-8.3,5.8-13.9c0-7.2-1.8-12.5-5.4-15.9c-3.6-3.5-8.9-5.2-15.9-5.2H41.1V78.9H56.1z"/>
	<path class="st0" d="M210.7,58.2c0,6.7-1.7,12.7-5.2,17.9s-8.3,9.3-14.4,12.2c7.4,3.1,13.3,7.4,17.7,13.1s6.5,12.2,6.5,19.6
		c0,12.6-4.4,22.4-13.1,29.4c-8.8,7-20,10.5-33.6,10.5c-14.3,0-26-3.5-35.2-10.5s-13.7-16.8-13.7-29.4c0-7.4,2.3-13.9,6.8-19.6
		s10.6-10.1,18.4-13.1c-6.4-2.9-11.5-7-15.1-12.2c-3.6-5.2-5.5-11.2-5.5-17.9c0-12,4.1-21.2,12.3-27.6c8.2-6.5,18.8-9.7,31.9-9.7
		c12.5,0,22.7,3.2,30.6,9.7S210.7,46.2,210.7,58.2z M187.9,119.7c0-6-1.9-11-5.7-14.9s-8.4-5.8-14-5.8c-6.1,0-11.2,1.9-15.2,5.8
		c-4.1,3.9-6.1,8.9-6.1,14.9c0,6.2,2,11.1,6,14.8s9.2,5.5,15.5,5.5c5.6,0,10.3-1.8,13.9-5.5C186.1,130.8,187.9,125.9,187.9,119.7z
		 M183.4,59.4c0-5.4-1.4-9.6-4.2-12.8c-2.8-3.1-6.5-4.7-10.9-4.7c-5.1,0-9.2,1.5-12.3,4.6s-4.6,7.4-4.6,12.9c0,5.6,1.6,10,4.7,13.4
		c3.1,3.4,7.2,5.1,12.3,5.1c4.5,0,8.1-1.7,10.8-5.1C182.1,69.5,183.4,65,183.4,59.4z"/>
</g>
<g>
	<path class="st0" d="M256.5,159c-0.4-1-0.8-2-1.1-3.1c-0.3-1.1-0.5-2.2-0.6-3.3c-1.2,2.1-2.7,3.8-4.7,5.2c-1.9,1.4-4.2,2-6.9,2
		c-4.5,0-7.9-1.1-10.3-3.4c-2.4-2.3-3.6-5.4-3.6-9.4c0-4.2,1.6-7.4,4.8-9.7s7.9-3.4,14.1-3.4h6.5v-3.4c0-2-0.5-3.6-1.6-4.8
		c-1.1-1.1-2.7-1.7-4.8-1.7c-1.9,0-3.3,0.5-4.3,1.4s-1.5,2.1-1.5,3.7h-11.1l-0.1-0.2c-0.2-3.6,1.4-6.7,4.7-9.3
		c3.3-2.6,7.7-3.9,13-3.9c5.1,0,9.3,1.3,12.4,3.9c3.2,2.6,4.7,6.3,4.7,11.1v17.6c0,2,0.2,3.9,0.5,5.6c0.3,1.8,0.8,3.5,1.4,5.2h-11.5
		V159z M246,151.3c2,0,3.8-0.5,5.3-1.5c1.6-1,2.6-2.1,3.2-3.5v-6H248c-2.4,0-4.3,0.6-5.5,1.8c-1.2,1.2-1.9,2.7-1.9,4.4
		c0,1.4,0.5,2.6,1.4,3.4C243,150.9,244.3,151.3,246,151.3z"/>
	<path class="st0" d="M285.2,116.4l0.5,6.1c1.4-2.2,3.2-3.9,5.2-5.1c2.1-1.2,4.4-1.8,7-1.8c4.3,0,7.7,1.4,10.1,4.2s3.6,7.1,3.6,13.1
		V159H300v-26c0-3-0.5-5.2-1.6-6.5s-2.7-1.9-4.8-1.9c-1.7,0-3.2,0.3-4.5,1c-1.3,0.6-2.4,1.5-3.2,2.7V159h-11.5v-42.6H285.2z
		 M307.7,98.7c0,2.5-0.8,4.7-2.3,6.4c-1.6,1.8-3.5,2.7-5.9,2.7c-1.8,0-3.9-0.6-6.2-1.7c-2.3-1.1-4.2-1.7-5.5-1.7
		c-0.9,0-1.7,0.4-2.4,1.3c-0.6,0.9-0.9,1.9-0.9,3l-6.1-1.7c0-2.5,0.8-4.6,2.3-6.4c1.6-1.8,3.5-2.7,5.9-2.7c1.5,0,3.5,0.6,6,1.7
		s4.5,1.7,5.8,1.7c0.9,0,1.7-0.4,2.4-1.3c0.7-0.8,1-1.9,1-3.1L307.7,98.7z"/>
	<path class="st0" d="M318.4,137.3c0-6.3,1.8-11.5,5.3-15.6s8.4-6.1,14.7-6.1c6.3,0,11.2,2,14.8,6.1c3.6,4,5.3,9.2,5.3,15.6v0.8
		c0,6.4-1.8,11.6-5.3,15.6c-3.6,4-8.5,6-14.7,6c-6.3,0-11.2-2-14.8-6s-5.3-9.2-5.3-15.6V137.3z M329.8,138.2c0,3.9,0.7,7,2,9.3
		c1.4,2.3,3.6,3.5,6.6,3.5s5.1-1.2,6.5-3.5s2.1-5.5,2.1-9.3v-0.8c0-3.8-0.7-6.9-2.1-9.2c-1.4-2.4-3.6-3.6-6.6-3.6s-5.1,1.2-6.5,3.6
		c-1.4,2.4-2.1,5.5-2.1,9.2v0.8H329.8z"/>
	<path class="st0" d="M388.6,147.2c0-1.3-0.6-2.3-1.8-3.2c-1.2-0.9-3.5-1.7-6.8-2.4c-5-1-8.8-2.5-11.3-4.5s-3.9-4.8-3.9-8.2
		c0-3.6,1.5-6.8,4.6-9.3c3.1-2.6,7.2-3.9,12.4-3.9c5.4,0,9.7,1.3,12.9,3.9c3.2,2.6,4.8,5.8,4.7,9.6l-0.1,0.2h-11.1
		c0-1.7-0.6-3.1-1.7-4.2s-2.7-1.6-4.8-1.6c-1.8,0-3.3,0.5-4.4,1.4s-1.6,2-1.6,3.4c0,1.3,0.6,2.4,1.7,3.2s3.4,1.6,6.8,2.2
		c5.2,1,9.1,2.6,11.7,4.6s3.8,4.8,3.8,8.4c0,3.8-1.6,7-4.9,9.4s-7.6,3.7-13,3.7c-5.7,0-10.1-1.4-13.4-4.3c-3.3-2.9-4.9-6.1-4.7-9.8
		l0.1-0.2h10.5c0.1,2.3,0.8,3.9,2.2,5c1.4,1,3.3,1.5,5.5,1.5c2.1,0,3.7-0.4,4.9-1.3C388.1,149.8,388.6,148.7,388.6,147.2z"/>
</g>
<g>
	<g>
		<path class="st1" d="M13.5,206.4c-2.8,0-5.1-1-6.9-3.1c-1.8-2-2.7-4.6-2.7-7.8v-1.1c0-3.2,0.9-5.8,2.7-7.9c1.8-2.1,4-3.1,6.6-3.1
			c2.7,0,4.8,0.9,6.4,2.6c1.6,1.7,2.3,4,2.3,6.9v2.1H6.3v0.6c0,2.5,0.7,4.6,2,6.2c1.3,1.7,3.1,2.5,5.2,2.5c1.5,0,2.8-0.2,3.9-0.6
			c1.1-0.4,2-1,2.8-1.8l1,1.7c-0.8,0.9-1.9,1.6-3.2,2.1C16.8,206.2,15.3,206.4,13.5,206.4z M13.2,185.6c-1.8,0-3.3,0.7-4.6,2.1
			c-1.2,1.4-1.9,3.1-2.1,5.2l0,0.1h12.9v-0.6c0-1.9-0.6-3.5-1.7-4.8C16.7,186.2,15.1,185.6,13.2,185.6z"/>
		<path class="st1" d="M40,200.4c0-1-0.4-1.9-1.3-2.7c-0.9-0.8-2.4-1.4-4.6-1.9c-2.6-0.6-4.6-1.3-5.8-2.3c-1.3-0.9-1.9-2.3-1.9-4
			c0-1.7,0.7-3.1,2.1-4.3c1.4-1.2,3.3-1.7,5.6-1.7c2.5,0,4.5,0.6,5.9,1.8c1.5,1.2,2.1,2.8,2.1,4.6l0,0.1h-2.3c0-1.2-0.5-2.3-1.5-3.2
			c-1-0.9-2.4-1.3-4.2-1.3c-1.8,0-3.1,0.4-4,1.1c-0.9,0.8-1.3,1.7-1.3,2.7c0,1,0.4,1.9,1.2,2.5c0.8,0.7,2.3,1.2,4.6,1.7
			c2.6,0.6,4.6,1.4,5.9,2.4c1.3,1,2,2.4,2,4.1c0,1.8-0.7,3.3-2.2,4.5s-3.5,1.7-5.9,1.7c-2.7,0-4.8-0.6-6.3-1.9
			c-1.5-1.3-2.3-2.8-2.2-4.6l0-0.1h2.2c0.1,1.6,0.7,2.7,1.9,3.5s2.6,1.1,4.3,1.1c1.8,0,3.2-0.4,4.2-1.2
			C39.5,202.4,40,201.5,40,200.4z"/>
		<path class="st1" d="M51.9,178.3v5.7h4.9v2h-4.9v14.4c0,1.4,0.3,2.5,0.8,3.1s1.2,0.9,2.1,0.9c0.4,0,0.8,0,1.2-0.1
			c0.4,0,0.8-0.1,1.3-0.2l0.4,1.8c-0.4,0.2-0.9,0.3-1.5,0.4c-0.6,0.1-1.2,0.1-1.8,0.1c-1.6,0-2.8-0.5-3.6-1.5s-1.3-2.5-1.3-4.7
			v-14.4h-3.8v-2h3.8v-5.7H51.9z"/>
		<path class="st1" d="M64.6,177.6h-2.4v-3.4h2.4V177.6z M64.6,206h-2.4v-22.1h2.4V206z"/>
		<path class="st1" d="M73.5,183.9l0.2,3.7c0.7-1.3,1.6-2.3,2.8-3s2.6-1.1,4.2-1.1c1.7,0,3.1,0.4,4.2,1.2c1.1,0.8,1.9,2.1,2.4,3.7
			c0.7-1.6,1.6-2.8,2.8-3.6c1.2-0.9,2.7-1.3,4.5-1.3c2.4,0,4.2,0.8,5.4,2.3s1.9,4,1.9,7.3V206h-2.4v-12.9c0-2.7-0.5-4.7-1.4-5.8
			c-1-1.1-2.3-1.7-4-1.7c-1.9,0-3.4,0.6-4.4,1.8c-1,1.2-1.7,2.7-1.9,4.6c0,0.1,0,0.2,0,0.4c0,0.2,0,0.3,0,0.4V206h-2.5v-12.9
			c0-2.7-0.5-4.6-1.5-5.7c-1-1.2-2.3-1.7-4-1.7c-1.7,0-3.1,0.4-4.1,1.3c-1,0.9-1.7,2.1-2.1,3.5V206h-2.5v-22.1H73.5z"/>
		<path class="st1" d="M122.4,206c-0.2-0.7-0.3-1.4-0.3-1.9c-0.1-0.5-0.1-1.1-0.1-1.7c-0.8,1.2-1.9,2.1-3.3,2.9s-2.9,1.1-4.6,1.1
			c-2.1,0-3.8-0.6-5-1.7c-1.2-1.1-1.8-2.7-1.8-4.6c0-2,0.9-3.7,2.6-4.9c1.8-1.2,4.1-1.8,7.1-1.8h4.9v-2.7c0-1.6-0.5-2.8-1.5-3.7
			c-1-0.9-2.4-1.3-4.3-1.3c-1.7,0-3.1,0.4-4.2,1.3c-1.1,0.9-1.7,1.9-1.7,3.1l-2.2,0l0-0.1c-0.1-1.6,0.7-3.1,2.3-4.4
			c1.6-1.3,3.6-1.9,6.1-1.9c2.4,0,4.4,0.6,5.9,1.9c1.5,1.2,2.2,3,2.2,5.3v10.9c0,0.8,0,1.5,0.1,2.3c0.1,0.7,0.2,1.5,0.4,2.2H122.4z
			 M114.4,204.3c1.8,0,3.3-0.4,4.7-1.2c1.3-0.8,2.3-1.9,2.9-3.2v-4.6H117c-2.2,0-4,0.5-5.3,1.4c-1.3,0.9-2,2.1-2,3.5
			c0,1.2,0.4,2.2,1.2,2.9S112.9,204.3,114.4,204.3z"/>
		<path class="st1" d="M129.9,195.1c0-3.5,0.7-6.3,2.2-8.5s3.6-3.2,6.2-3.2c1.5,0,2.9,0.3,4,1s2.1,1.6,2.8,2.8v-13.1h2.4V206h-2.2
			l-0.2-3.2c-0.7,1.2-1.7,2.1-2.8,2.7c-1.2,0.6-2.5,0.9-4.1,0.9c-2.6,0-4.7-1-6.2-2.9c-1.5-2-2.2-4.6-2.2-7.9V195.1z M132.4,195.6
			c0,2.7,0.5,4.8,1.6,6.4c1.1,1.6,2.7,2.4,4.8,2.4c1.6,0,2.9-0.4,3.9-1.1c1.1-0.7,1.9-1.7,2.5-3v-10.4c-0.6-1.3-1.3-2.3-2.4-3.1
			c-1-0.8-2.4-1.2-4-1.2c-2.1,0-3.8,0.9-4.8,2.7c-1.1,1.8-1.6,4.1-1.6,6.9V195.6z"/>
		<path class="st1" d="M152.8,194.6c0-3.3,0.9-5.9,2.7-8c1.8-2.1,4.1-3.1,7.1-3.1c3,0,5.3,1,7.1,3.1c1.8,2.1,2.7,4.7,2.7,8v0.7
			c0,3.3-0.9,5.9-2.7,8c-1.8,2.1-4.1,3.1-7.1,3.1c-3,0-5.3-1-7.1-3.1c-1.8-2.1-2.7-4.7-2.7-8V194.6z M155.2,195.3
			c0,2.6,0.6,4.7,1.9,6.4c1.3,1.7,3.1,2.6,5.4,2.6c2.3,0,4.1-0.9,5.4-2.6c1.3-1.7,1.9-3.9,1.9-6.4v-0.7c0-2.5-0.7-4.6-2-6.4
			c-1.3-1.8-3.1-2.6-5.4-2.6s-4.1,0.9-5.4,2.6c-1.3,1.8-1.9,3.9-1.9,6.4V195.3z"/>
		<path class="st1" d="M190.7,200.4c0-1-0.4-1.9-1.3-2.7c-0.9-0.8-2.4-1.4-4.6-1.9c-2.6-0.6-4.6-1.3-5.8-2.3c-1.3-0.9-1.9-2.3-1.9-4
			c0-1.7,0.7-3.1,2.1-4.3c1.4-1.2,3.3-1.7,5.6-1.7c2.5,0,4.5,0.6,5.9,1.8c1.5,1.2,2.1,2.8,2.1,4.6l0,0.1h-2.3c0-1.2-0.5-2.3-1.5-3.2
			c-1-0.9-2.4-1.3-4.2-1.3c-1.8,0-3.1,0.4-4,1.1c-0.9,0.8-1.3,1.7-1.3,2.7c0,1,0.4,1.9,1.2,2.5c0.8,0.7,2.3,1.2,4.6,1.7
			c2.6,0.6,4.6,1.4,5.9,2.4c1.3,1,2,2.4,2,4.1c0,1.8-0.7,3.3-2.2,4.5s-3.5,1.7-5.9,1.7c-2.7,0-4.8-0.6-6.3-1.9
			c-1.5-1.3-2.3-2.8-2.2-4.6l0-0.1h2.2c0.1,1.6,0.7,2.7,1.9,3.5s2.6,1.1,4.3,1.1c1.8,0,3.2-0.4,4.2-1.2
			C190.1,202.4,190.7,201.5,190.7,200.4z"/>
		<path class="st1" d="M207.9,195.1c0-3.5,0.7-6.3,2.2-8.5s3.6-3.2,6.2-3.2c1.5,0,2.9,0.3,4,1s2.1,1.6,2.8,2.8v-13.1h2.4V206h-2.2
			l-0.2-3.2c-0.7,1.2-1.7,2.1-2.8,2.7c-1.2,0.6-2.5,0.9-4.1,0.9c-2.6,0-4.7-1-6.2-2.9c-1.5-2-2.2-4.6-2.2-7.9V195.1z M210.4,195.6
			c0,2.7,0.5,4.8,1.6,6.4c1.1,1.6,2.7,2.4,4.8,2.4c1.6,0,2.9-0.4,3.9-1.1c1.1-0.7,1.9-1.7,2.5-3v-10.4c-0.6-1.3-1.3-2.3-2.4-3.1
			c-1-0.8-2.4-1.2-4-1.2c-2.1,0-3.8,0.9-4.8,2.7c-1.1,1.8-1.6,4.1-1.6,6.9V195.6z"/>
		<path class="st1" d="M240.4,206.4c-2.8,0-5.1-1-6.9-3.1c-1.8-2-2.7-4.6-2.7-7.8v-1.1c0-3.2,0.9-5.8,2.7-7.9c1.8-2.1,4-3.1,6.6-3.1
			c2.7,0,4.8,0.9,6.4,2.6c1.6,1.7,2.3,4,2.3,6.9v2.1h-15.6v0.6c0,2.5,0.7,4.6,2,6.2c1.3,1.7,3.1,2.5,5.2,2.5c1.5,0,2.8-0.2,3.9-0.6
			c1.1-0.4,2-1,2.8-1.8l1,1.7c-0.8,0.9-1.9,1.6-3.2,2.1C243.7,206.2,242.2,206.4,240.4,206.4z M240.1,185.6c-1.8,0-3.3,0.7-4.6,2.1
			c-1.2,1.4-1.9,3.1-2.1,5.2l0,0.1h12.9v-0.6c0-1.9-0.6-3.5-1.7-4.8C243.6,186.2,242,185.6,240.1,185.6z"/>
		<path class="st1" d="M270.1,200.5l0.7,2.6h0.1l0.8-2.6l6-16.5h2.5l-8.4,22.1h-2l-8.4-22.1h2.5L270.1,200.5z"/>
		<path class="st1" d="M287,177.6h-2.4v-3.4h2.4V177.6z M287,206h-2.4v-22.1h2.4V206z"/>
		<path class="st1" d="M292.8,195.1c0-3.5,0.7-6.3,2.2-8.5c1.5-2.1,3.6-3.2,6.2-3.2c1.5,0,2.9,0.3,4,1c1.1,0.7,2.1,1.6,2.8,2.8
			v-13.1h2.4V206h-2.2l-0.2-3.2c-0.7,1.2-1.7,2.1-2.8,2.7c-1.2,0.6-2.5,0.9-4.1,0.9c-2.6,0-4.7-1-6.2-2.9c-1.5-2-2.2-4.6-2.2-7.9
			V195.1z M295.3,195.6c0,2.7,0.5,4.8,1.6,6.4c1.1,1.6,2.7,2.4,4.8,2.4c1.6,0,2.9-0.4,3.9-1.1c1.1-0.7,1.9-1.7,2.5-3v-10.4
			c-0.6-1.3-1.3-2.3-2.4-3.1c-1-0.8-2.4-1.2-4-1.2c-2.1,0-3.8,0.9-4.8,2.7c-1.1,1.8-1.6,4.1-1.6,6.9V195.6z"/>
		<path class="st1" d="M331,206c-0.2-0.7-0.3-1.4-0.3-1.9c-0.1-0.5-0.1-1.1-0.1-1.7c-0.8,1.2-1.9,2.1-3.3,2.9s-2.9,1.1-4.6,1.1
			c-2.1,0-3.8-0.6-5-1.7c-1.2-1.1-1.8-2.7-1.8-4.6c0-2,0.9-3.7,2.6-4.9c1.8-1.2,4.1-1.8,7.1-1.8h4.9v-2.7c0-1.6-0.5-2.8-1.5-3.7
			c-1-0.9-2.4-1.3-4.3-1.3c-1.7,0-3.1,0.4-4.2,1.3c-1.1,0.9-1.7,1.9-1.7,3.1l-2.2,0l0-0.1c-0.1-1.6,0.7-3.1,2.3-4.4s3.6-1.9,6.1-1.9
			c2.4,0,4.4,0.6,5.9,1.9s2.2,3,2.2,5.3v10.9c0,0.8,0,1.5,0.1,2.3c0.1,0.7,0.2,1.5,0.4,2.2H331z M323,204.3c1.8,0,3.3-0.4,4.7-1.2
			s2.3-1.9,2.9-3.2v-4.6h-4.9c-2.2,0-4,0.5-5.3,1.4c-1.3,0.9-2,2.1-2,3.5c0,1.2,0.4,2.2,1.2,2.9S321.5,204.3,323,204.3z"/>
		<path class="st1" d="M364.1,202.4c-0.7,1.3-1.7,2.3-2.9,3c-1.2,0.7-2.6,1.1-4.2,1.1c-2.3,0-4.1-0.8-5.5-2.4c-1.3-1.6-2-4-2-7.3
			v-12.8h2.4v12.9c0,2.7,0.5,4.6,1.4,5.8c0.9,1.2,2.2,1.8,3.9,1.8c1.8,0,3.3-0.4,4.4-1.2c1.1-0.8,1.9-2,2.3-3.4v-15.7h2.4V206h-2.2
			L364.1,202.4z M361,175.8h3l0.1,0.1l-5.1,5.3h-2.2L361,175.8z"/>
		<path class="st1" d="M376.8,178.3v5.7h4.9v2h-4.9v14.4c0,1.4,0.3,2.5,0.8,3.1c0.5,0.6,1.2,0.9,2.1,0.9c0.4,0,0.8,0,1.2-0.1
			c0.4,0,0.8-0.1,1.3-0.2l0.4,1.8c-0.4,0.2-0.9,0.3-1.5,0.4c-0.6,0.1-1.2,0.1-1.8,0.1c-1.6,0-2.8-0.5-3.6-1.5
			c-0.9-1-1.3-2.5-1.3-4.7v-14.4h-3.8v-2h3.8v-5.7H376.8z"/>
		<path class="st1" d="M389.5,177.6h-2.4v-3.4h2.4V177.6z M389.5,206h-2.4v-22.1h2.4V206z"/>
		<path class="st1" d="M399,206h-2.4v-31.8h2.4V206z"/>
	</g>
</g>
</svg>
