<?xml version="1.0" encoding="utf-8"?>
<!-- Generator: Adobe Illustrator 22.1.0, SVG Export Plug-In . SVG Version: 6.00 Build 0)  -->
<svg version="1.1" id="Capa_1" xmlns="http://www.w3.org/2000/svg" xmlns:xlink="http://www.w3.org/1999/xlink" x="0px" y="0px"
	 viewBox="0 0 579 213" style="enable-background:new 0 0 579 213;" xml:space="preserve">
<style type="text/css">
	.st0{fill:#54515C;}
</style>
<g>
	<path class="st0" d="M48.3,97.5h7.9v10.8h-7.9v15.1h-14v-15.1H5.9L5.2,100l28.9-46.2h14.1V97.5z M17.9,97.5h16.4V72.2l-0.3,0
		l-1.4,3.1L17.9,97.5z"/>
	<path class="st0" d="M77.8,123.5h-14v-12.3h14V123.5z"/>
	<path class="st0" d="M135.2,98.2c0,8.2-2.1,14.6-6.4,19.3c-4.3,4.7-10,7-17.1,7c-7.2,0-12.9-2.3-17.2-7c-4.3-4.7-6.5-11.1-6.5-19.3
		V79c0-8.1,2.1-14.6,6.4-19.3c4.3-4.7,10-7,17.1-7c7.1,0,12.8,2.3,17.1,7c4.3,4.7,6.5,11.1,6.5,19.3V98.2z M121.3,77.6
		c0-4.5-0.9-7.9-2.6-10.4c-1.7-2.5-4.1-3.7-7.1-3.7c-3.1,0-5.4,1.2-7.1,3.7c-1.7,2.5-2.5,5.9-2.5,10.4v22c0,4.6,0.8,8.1,2.5,10.5
		c1.7,2.4,4.1,3.7,7.2,3.7c3,0,5.4-1.2,7.1-3.7c1.7-2.4,2.5-5.9,2.5-10.5V77.6z"/>
	<path class="st0" d="M189.5,98.2c0,8.2-2.1,14.6-6.4,19.3c-4.3,4.7-10,7-17.1,7c-7.2,0-12.9-2.3-17.2-7c-4.3-4.7-6.5-11.1-6.5-19.3
		V79c0-8.1,2.1-14.6,6.4-19.3c4.3-4.7,10-7,17.1-7c7.1,0,12.8,2.3,17.1,7c4.3,4.7,6.5,11.1,6.5,19.3V98.2z M175.6,77.6
		c0-4.5-0.9-7.9-2.6-10.4c-1.7-2.5-4.1-3.7-7.1-3.7c-3.1,0-5.4,1.2-7.1,3.7c-1.7,2.5-2.5,5.9-2.5,10.4v22c0,4.6,0.8,8.1,2.5,10.5
		c1.7,2.4,4.1,3.7,7.2,3.7c3,0,5.4-1.2,7.1-3.7c1.7-2.4,2.5-5.9,2.5-10.5V77.6z"/>
	<path class="st0" d="M243.9,98.2c0,8.2-2.1,14.6-6.4,19.3c-4.3,4.7-10,7-17.1,7c-7.2,0-12.9-2.3-17.2-7c-4.3-4.7-6.5-11.1-6.5-19.3
		V79c0-8.1,2.1-14.6,6.4-19.3c4.3-4.7,10-7,17.1-7c7.1,0,12.8,2.3,17.1,7c4.3,4.7,6.5,11.1,6.5,19.3V98.2z M229.9,77.6
		c0-4.5-0.9-7.9-2.6-10.4c-1.7-2.5-4.1-3.7-7.1-3.7c-3.1,0-5.4,1.2-7.1,3.7c-1.7,2.5-2.5,5.9-2.5,10.4v22c0,4.6,0.8,8.1,2.5,10.5
		c1.7,2.4,4.1,3.7,7.2,3.7c3,0,5.4-1.2,7.1-3.7c1.7-2.4,2.5-5.9,2.5-10.5V77.6z"/>
</g>
<g>
	<g>
		<path class="st0" d="M268.2,114.7l0.2,1.2h0.1l4-13.4h6.1l-8.5,24.1c-0.6,1.5-1.4,2.8-2.4,3.8c-1,1-2.6,1.5-4.6,1.5
			c-0.5,0-0.9,0-1.3-0.1c-0.4-0.1-0.9-0.2-1.5-0.3l0.7-4.1c0.2,0,0.3,0.1,0.5,0.1c0.2,0,0.4,0,0.5,0c0.9,0,1.6-0.2,2.2-0.7
			c0.5-0.5,0.9-1,1.2-1.7l0.7-1.6l-7.5-21h6.1L268.2,114.7z"/>
	</g>
</g>
<g>
	<path class="st0" d="M344.4,71.8c0,3.4-0.9,6.5-2.7,9.2c-1.8,2.7-4.2,4.8-7.4,6.3c3.8,1.6,6.8,3.8,9.1,6.7c2.2,2.9,3.4,6.3,3.4,10
		c0,6.5-2.2,11.5-6.7,15.1c-4.5,3.6-10.2,5.4-17.2,5.4c-7.3,0-13.3-1.8-18-5.4c-4.7-3.6-7-8.6-7-15.1c0-3.8,1.2-7.1,3.5-10
		c2.3-2.9,5.5-5.2,9.4-6.7c-3.3-1.5-5.9-3.6-7.7-6.3c-1.9-2.7-2.8-5.7-2.8-9.2c0-6.1,2.1-10.9,6.3-14.2c4.2-3.3,9.6-5,16.3-5
		c6.4,0,11.6,1.7,15.7,5C342.3,61,344.4,65.7,344.4,71.8z M332.7,103.4c0-3.1-1-5.6-2.9-7.6c-1.9-2-4.3-3-7.2-3c-3.1,0-5.7,1-7.8,3
		c-2.1,2-3.1,4.5-3.1,7.6c0,3.2,1,5.7,3.1,7.6c2.1,1.9,4.7,2.8,7.9,2.8c2.9,0,5.3-0.9,7.1-2.8C331.8,109,332.7,106.5,332.7,103.4z
		 M330.4,72.5c0-2.7-0.7-4.9-2.2-6.5c-1.4-1.6-3.3-2.4-5.6-2.4c-2.6,0-4.7,0.8-6.3,2.4c-1.6,1.6-2.3,3.8-2.3,6.6
		c0,2.8,0.8,5.1,2.4,6.9c1.6,1.7,3.7,2.6,6.3,2.6c2.3,0,4.2-0.9,5.6-2.6S330.4,75.3,330.4,72.5z"/>
	<path class="st0" d="M369,123.5h-14v-12.3h14V123.5z"/>
	<path class="st0" d="M426.4,98.2c0,8.2-2.1,14.6-6.4,19.3c-4.3,4.7-10,7-17.1,7c-7.2,0-12.9-2.3-17.2-7s-6.5-11.1-6.5-19.3V79
		c0-8.1,2.1-14.6,6.4-19.3c4.3-4.7,10-7,17.1-7c7.1,0,12.8,2.3,17.1,7c4.3,4.7,6.5,11.1,6.5,19.3V98.2z M412.5,77.6
		c0-4.5-0.9-7.9-2.6-10.4c-1.7-2.5-4.1-3.7-7.1-3.7c-3.1,0-5.4,1.2-7.1,3.7c-1.7,2.5-2.5,5.9-2.5,10.4v22c0,4.6,0.8,8.1,2.5,10.5
		c1.7,2.4,4.1,3.7,7.2,3.7c3,0,5.4-1.2,7.1-3.7c1.7-2.4,2.5-5.9,2.5-10.5V77.6z"/>
	<path class="st0" d="M480.7,98.2c0,8.2-2.1,14.6-6.4,19.3c-4.3,4.7-10,7-17.1,7c-7.2,0-12.9-2.3-17.2-7s-6.5-11.1-6.5-19.3V79
		c0-8.1,2.1-14.6,6.4-19.3c4.3-4.7,10-7,17.1-7c7.1,0,12.8,2.3,17.1,7c4.3,4.7,6.5,11.1,6.5,19.3V98.2z M466.8,77.6
		c0-4.5-0.9-7.9-2.6-10.4c-1.7-2.5-4.1-3.7-7.1-3.7c-3.1,0-5.4,1.2-7.1,3.7c-1.7,2.5-2.5,5.9-2.5,10.4v22c0,4.6,0.8,8.1,2.5,10.5
		c1.7,2.4,4.1,3.7,7.2,3.7c3,0,5.4-1.2,7.1-3.7c1.7-2.4,2.5-5.9,2.5-10.5V77.6z"/>
	<path class="st0" d="M535.1,98.2c0,8.2-2.1,14.6-6.4,19.3c-4.3,4.7-10,7-17.1,7c-7.2,0-12.9-2.3-17.2-7s-6.5-11.1-6.5-19.3V79
		c0-8.1,2.1-14.6,6.4-19.3c4.3-4.7,10-7,17.1-7c7.1,0,12.8,2.3,17.1,7c4.3,4.7,6.5,11.1,6.5,19.3V98.2z M521.1,77.6
		c0-4.5-0.9-7.9-2.6-10.4c-1.7-2.5-4.1-3.7-7.1-3.7c-3.1,0-5.4,1.2-7.1,3.7c-1.7,2.5-2.5,5.9-2.5,10.4v22c0,4.6,0.8,8.1,2.5,10.5
		c1.7,2.4,4.1,3.7,7.2,3.7c3,0,5.4-1.2,7.1-3.7c1.7-2.4,2.5-5.9,2.5-10.5V77.6z"/>
</g>
<g>
	<path class="st0" d="M4.3,195.1c0-3.5,0.7-6.3,2.2-8.5s3.6-3.2,6.2-3.2c1.5,0,2.9,0.3,4,1s2.1,1.6,2.8,2.8v-13.1H22V206h-2.2
		l-0.2-3.2c-0.7,1.2-1.7,2.1-2.8,2.7c-1.2,0.6-2.5,0.9-4.1,0.9c-2.6,0-4.7-1-6.2-2.9c-1.5-2-2.2-4.6-2.2-7.9V195.1z M6.7,195.6
		c0,2.7,0.5,4.8,1.6,6.4c1.1,1.6,2.7,2.4,4.8,2.4c1.6,0,2.9-0.4,3.9-1.1c1.1-0.7,1.9-1.7,2.5-3v-10.4c-0.6-1.3-1.3-2.3-2.4-3.1
		c-1-0.8-2.4-1.2-4-1.2c-2.1,0-3.8,0.9-4.8,2.7c-1.1,1.8-1.6,4.1-1.6,6.9V195.6z"/>
	<path class="st0" d="M42.9,202.4c-0.7,1.3-1.7,2.3-2.9,3c-1.2,0.7-2.6,1.1-4.2,1.1c-2.3,0-4.1-0.8-5.5-2.4c-1.3-1.6-2-4-2-7.3
		v-12.8h2.4v12.9c0,2.7,0.5,4.6,1.4,5.8c0.9,1.2,2.2,1.8,3.9,1.8c1.8,0,3.3-0.4,4.4-1.2c1.1-0.8,1.9-2,2.3-3.4v-15.7h2.4V206h-2.2
		L42.9,202.4z"/>
	<path class="st0" d="M61.9,186l-1.8-0.1c-1.5,0-2.8,0.4-3.8,1.3s-1.7,2.1-2.1,3.6V206h-2.4v-22.1h2.1l0.3,3.7v0.2
		c0.6-1.4,1.5-2.4,2.6-3.2c1.1-0.8,2.4-1.1,3.8-1.1c0.3,0,0.6,0,0.9,0.1c0.3,0,0.5,0.1,0.7,0.2L61.9,186z"/>
	<path class="st0" d="M79.9,206c-0.2-0.7-0.3-1.4-0.3-1.9c-0.1-0.5-0.1-1.1-0.1-1.7c-0.8,1.2-1.9,2.1-3.3,2.9s-2.9,1.1-4.6,1.1
		c-2.1,0-3.8-0.6-5-1.7c-1.2-1.1-1.8-2.7-1.8-4.6c0-2,0.9-3.7,2.6-4.9c1.8-1.2,4.1-1.8,7.1-1.8h4.9v-2.7c0-1.6-0.5-2.8-1.5-3.7
		c-1-0.9-2.4-1.3-4.3-1.3c-1.7,0-3.1,0.4-4.2,1.3c-1.1,0.9-1.7,1.9-1.7,3.1l-2.2,0l0-0.1c-0.1-1.6,0.7-3.1,2.3-4.4
		c1.6-1.3,3.6-1.9,6.1-1.9c2.4,0,4.4,0.6,5.9,1.9c1.5,1.2,2.2,3,2.2,5.3v10.9c0,0.8,0,1.5,0.1,2.3c0.1,0.7,0.2,1.5,0.4,2.2H79.9z
		 M71.9,204.3c1.8,0,3.3-0.4,4.7-1.2c1.3-0.8,2.3-1.9,2.9-3.2v-4.6h-4.9c-2.2,0-4,0.5-5.3,1.4c-1.3,0.9-2,2.1-2,3.5
		c0,1.2,0.4,2.2,1.2,2.9S70.5,204.3,71.9,204.3z"/>
	<path class="st0" d="M90.6,183.9l0.2,3.9c0.7-1.4,1.7-2.4,2.9-3.2s2.6-1.1,4.3-1.1c2.4,0,4.2,0.7,5.5,2.2c1.3,1.5,1.9,3.7,1.9,6.8
		V206h-2.4v-13.5c0-2.5-0.5-4.3-1.4-5.4c-0.9-1-2.3-1.6-4-1.6c-1.7,0-3.1,0.5-4.2,1.4s-1.9,2.1-2.3,3.6V206h-2.4v-22.1H90.6z"/>
	<path class="st0" d="M115.5,178.3v5.7h4.9v2h-4.9v14.4c0,1.4,0.3,2.5,0.8,3.1s1.2,0.9,2.1,0.9c0.4,0,0.8,0,1.2-0.1
		c0.4,0,0.8-0.1,1.3-0.2l0.4,1.8c-0.4,0.2-0.9,0.3-1.5,0.4c-0.6,0.1-1.2,0.1-1.8,0.1c-1.6,0-2.8-0.5-3.6-1.5s-1.3-2.5-1.3-4.7v-14.4
		h-3.8v-2h3.8v-5.7H115.5z"/>
	<path class="st0" d="M133.9,206.4c-2.8,0-5.1-1-6.9-3.1c-1.8-2-2.7-4.6-2.7-7.8v-1.1c0-3.2,0.9-5.8,2.7-7.9c1.8-2.1,4-3.1,6.6-3.1
		c2.7,0,4.8,0.9,6.4,2.6c1.6,1.7,2.3,4,2.3,6.9v2.1h-15.6v0.6c0,2.5,0.7,4.6,2,6.2c1.3,1.7,3.1,2.5,5.2,2.5c1.5,0,2.8-0.2,3.9-0.6
		c1.1-0.4,2-1,2.8-1.8l1,1.7c-0.8,0.9-1.9,1.6-3.2,2.1C137.1,206.2,135.6,206.4,133.9,206.4z M133.6,185.6c-1.8,0-3.3,0.7-4.6,2.1
		c-1.2,1.4-1.9,3.1-2.1,5.2l0,0.1h12.9v-0.6c0-1.9-0.6-3.5-1.7-4.8C137,186.2,135.5,185.6,133.6,185.6z"/>
	<path class="st0" d="M160,206h-2.4v-31.8h2.4V206z"/>
	<path class="st0" d="M180.7,206c-0.2-0.7-0.3-1.4-0.3-1.9c-0.1-0.5-0.1-1.1-0.1-1.7c-0.8,1.2-1.9,2.1-3.3,2.9s-2.9,1.1-4.6,1.1
		c-2.1,0-3.8-0.6-5-1.7c-1.2-1.1-1.8-2.7-1.8-4.6c0-2,0.9-3.7,2.6-4.9c1.8-1.2,4.1-1.8,7.1-1.8h4.9v-2.7c0-1.6-0.5-2.8-1.5-3.7
		c-1-0.9-2.4-1.3-4.3-1.3c-1.7,0-3.1,0.4-4.2,1.3c-1.1,0.9-1.7,1.9-1.7,3.1l-2.2,0l0-0.1c-0.1-1.6,0.7-3.1,2.3-4.4
		c1.6-1.3,3.6-1.9,6.1-1.9c2.4,0,4.4,0.6,5.9,1.9c1.5,1.2,2.2,3,2.2,5.3v10.9c0,0.8,0,1.5,0.1,2.3c0.1,0.7,0.2,1.5,0.4,2.2H180.7z
		 M172.7,204.3c1.8,0,3.3-0.4,4.7-1.2c1.3-0.8,2.3-1.9,2.9-3.2v-4.6h-4.9c-2.2,0-4,0.5-5.3,1.4c-1.3,0.9-2,2.1-2,3.5
		c0,1.2,0.4,2.2,1.2,2.9S171.3,204.3,172.7,204.3z"/>
	<path class="st0" d="M207.6,204.3c1.6,0,3-0.5,4.3-1.4c1.2-0.9,1.9-2.2,1.9-3.8h2.2l0,0.1c0.1,2-0.7,3.7-2.4,5.1
		c-1.7,1.4-3.7,2.1-5.9,2.1c-3,0-5.3-1-7-3.1c-1.6-2.1-2.5-4.7-2.5-7.9v-0.9c0-3.2,0.8-5.8,2.5-7.9c1.6-2.1,4-3.1,6.9-3.1
		c2.4,0,4.4,0.7,6.1,2.1c1.6,1.4,2.4,3.3,2.3,5.6l0,0.1h-2.2c0-1.8-0.6-3.2-1.8-4.2c-1.2-1.1-2.6-1.6-4.4-1.6
		c-2.4,0-4.1,0.8-5.3,2.5c-1.1,1.7-1.7,3.8-1.7,6.4v0.9c0,2.6,0.6,4.8,1.7,6.4C203.4,203.5,205.2,204.3,207.6,204.3z"/>
	<path class="st0" d="M219.7,194.6c0-3.3,0.9-5.9,2.7-8c1.8-2.1,4.1-3.1,7.1-3.1c3,0,5.3,1,7.1,3.1c1.8,2.1,2.7,4.7,2.7,8v0.7
		c0,3.3-0.9,5.9-2.7,8c-1.8,2.1-4.1,3.1-7.1,3.1c-3,0-5.3-1-7.1-3.1c-1.8-2.1-2.7-4.7-2.7-8V194.6z M222.1,195.3
		c0,2.6,0.6,4.7,1.9,6.4c1.3,1.7,3.1,2.6,5.4,2.6c2.3,0,4.1-0.9,5.4-2.6c1.3-1.7,1.9-3.9,1.9-6.4v-0.7c0-2.5-0.7-4.6-2-6.4
		c-1.3-1.8-3.1-2.6-5.4-2.6s-4.1,0.9-5.4,2.6c-1.3,1.8-1.9,3.9-1.9,6.4V195.3z"/>
	<path class="st0" d="M246.5,183.9l0.2,3.9c0.7-1.4,1.7-2.4,2.9-3.2s2.6-1.1,4.3-1.1c2.4,0,4.2,0.7,5.5,2.2c1.3,1.5,1.9,3.7,1.9,6.8
		V206h-2.4v-13.5c0-2.5-0.5-4.3-1.4-5.4c-0.9-1-2.3-1.6-4-1.6c-1.7,0-3.1,0.5-4.2,1.4s-1.9,2.1-2.3,3.6V206h-2.4v-22.1H246.5z"/>
	<path class="st0" d="M280.8,200.4c0-1-0.4-1.9-1.3-2.7c-0.9-0.8-2.4-1.4-4.6-1.9c-2.6-0.6-4.6-1.3-5.8-2.3c-1.3-0.9-1.9-2.3-1.9-4
		c0-1.7,0.7-3.1,2.1-4.3c1.4-1.2,3.3-1.7,5.6-1.7c2.5,0,4.5,0.6,5.9,1.8c1.5,1.2,2.1,2.8,2.1,4.6l0,0.1h-2.3c0-1.2-0.5-2.3-1.5-3.2
		c-1-0.9-2.4-1.3-4.2-1.3c-1.8,0-3.1,0.4-4,1.1c-0.9,0.8-1.3,1.7-1.3,2.7c0,1,0.4,1.9,1.2,2.5c0.8,0.7,2.3,1.2,4.6,1.7
		c2.6,0.6,4.6,1.4,5.9,2.4c1.3,1,2,2.4,2,4.1c0,1.8-0.7,3.3-2.2,4.5s-3.5,1.7-5.9,1.7c-2.7,0-4.8-0.6-6.3-1.9
		c-1.5-1.3-2.3-2.8-2.2-4.6l0-0.1h2.2c0.1,1.6,0.7,2.7,1.9,3.5s2.6,1.1,4.3,1.1c1.8,0,3.2-0.4,4.2-1.2
		C280.3,202.4,280.8,201.5,280.8,200.4z"/>
	<path class="st0" d="M292.7,178.3v5.7h4.9v2h-4.9v14.4c0,1.4,0.3,2.5,0.8,3.1c0.5,0.6,1.2,0.9,2.1,0.9c0.4,0,0.8,0,1.2-0.1
		c0.4,0,0.8-0.1,1.3-0.2l0.4,1.8c-0.4,0.2-0.9,0.3-1.5,0.4c-0.6,0.1-1.2,0.1-1.8,0.1c-1.6,0-2.8-0.5-3.6-1.5c-0.9-1-1.3-2.5-1.3-4.7
		v-14.4h-3.8v-2h3.8v-5.7H292.7z"/>
	<path class="st0" d="M312.9,186l-1.8-0.1c-1.5,0-2.8,0.4-3.8,1.3s-1.7,2.1-2.1,3.6V206h-2.4v-22.1h2.1l0.3,3.7v0.2
		c0.6-1.4,1.5-2.4,2.6-3.2c1.1-0.8,2.4-1.1,3.8-1.1c0.3,0,0.6,0,0.9,0.1c0.3,0,0.5,0.1,0.7,0.2L312.9,186z"/>
	<path class="st0" d="M331.4,202.4c-0.7,1.3-1.7,2.3-2.9,3c-1.2,0.7-2.6,1.1-4.2,1.1c-2.3,0-4.1-0.8-5.5-2.4s-2-4-2-7.3v-12.8h2.4
		v12.9c0,2.7,0.5,4.6,1.4,5.8c0.9,1.2,2.2,1.8,3.9,1.8c1.8,0,3.3-0.4,4.4-1.2c1.1-0.8,1.9-2,2.3-3.4v-15.7h2.4V206h-2.2L331.4,202.4
		z"/>
	<path class="st0" d="M348.4,204.3c1.6,0,3-0.5,4.3-1.4c1.2-0.9,1.9-2.2,1.9-3.8h2.2l0,0.1c0.1,2-0.7,3.7-2.4,5.1
		c-1.7,1.4-3.7,2.1-5.9,2.1c-3,0-5.3-1-7-3.1s-2.5-4.7-2.5-7.9v-0.9c0-3.2,0.8-5.8,2.5-7.9c1.6-2.1,4-3.1,6.9-3.1
		c2.4,0,4.4,0.7,6.1,2.1c1.6,1.4,2.4,3.3,2.3,5.6l0,0.1h-2.2c0-1.8-0.6-3.2-1.8-4.2c-1.2-1.1-2.6-1.6-4.4-1.6
		c-2.4,0-4.1,0.8-5.3,2.5c-1.1,1.7-1.7,3.8-1.7,6.4v0.9c0,2.6,0.6,4.8,1.7,6.4C344.2,203.5,346,204.3,348.4,204.3z"/>
	<path class="st0" d="M370,204.3c1.6,0,3-0.5,4.3-1.4c1.2-0.9,1.9-2.2,1.9-3.8h2.2l0,0.1c0.1,2-0.7,3.7-2.4,5.1
		c-1.7,1.4-3.7,2.1-5.9,2.1c-3,0-5.3-1-7-3.1s-2.5-4.7-2.5-7.9v-0.9c0-3.2,0.8-5.8,2.5-7.9c1.6-2.1,4-3.1,6.9-3.1
		c2.4,0,4.4,0.7,6.1,2.1c1.6,1.4,2.4,3.3,2.3,5.6l0,0.1h-2.2c0-1.8-0.6-3.2-1.8-4.2c-1.2-1.1-2.6-1.6-4.4-1.6
		c-2.4,0-4.1,0.8-5.3,2.5c-1.1,1.7-1.7,3.8-1.7,6.4v0.9c0,2.6,0.6,4.8,1.7,6.4C365.9,203.5,367.7,204.3,370,204.3z"/>
	<path class="st0" d="M386.2,177.6h-2.4v-3.4h2.4V177.6z M386.2,206h-2.4v-22.1h2.4V206z"/>
	<path class="st0" d="M391.6,194.6c0-3.3,0.9-5.9,2.7-8c1.8-2.1,4.1-3.1,7.1-3.1c3,0,5.3,1,7.1,3.1c1.8,2.1,2.7,4.7,2.7,8v0.7
		c0,3.3-0.9,5.9-2.7,8c-1.8,2.1-4.1,3.1-7.1,3.1c-3,0-5.3-1-7.1-3.1c-1.8-2.1-2.7-4.7-2.7-8V194.6z M394.1,195.3
		c0,2.6,0.6,4.7,1.9,6.4c1.3,1.7,3.1,2.6,5.4,2.6c2.3,0,4.1-0.9,5.4-2.6c1.3-1.7,1.9-3.9,1.9-6.4v-0.7c0-2.5-0.7-4.6-2-6.4
		c-1.3-1.8-3.1-2.6-5.4-2.6s-4.1,0.9-5.4,2.6c-1.3,1.8-1.9,3.9-1.9,6.4V195.3z M404.4,175.4h3l0.1,0.1l-5.1,5.3h-2.2L404.4,175.4z"
		/>
	<path class="st0" d="M418.4,183.9l0.2,3.9c0.7-1.4,1.7-2.4,2.9-3.2c1.2-0.7,2.6-1.1,4.3-1.1c2.4,0,4.2,0.7,5.5,2.2
		c1.3,1.5,1.9,3.7,1.9,6.8V206h-2.4v-13.5c0-2.5-0.5-4.3-1.4-5.4s-2.3-1.6-4-1.6c-1.7,0-3.1,0.5-4.2,1.4c-1.1,0.9-1.9,2.1-2.3,3.6
		V206h-2.4v-22.1H418.4z"/>
</g>
<g>
	<g>
		<path class="st0" d="M21.7,152.2c0,2.7-0.6,5-1.9,6.6c-1.3,1.7-3,2.5-5.3,2.5c-1,0-1.8-0.2-2.6-0.5c-0.8-0.4-1.4-0.9-1.9-1.6v8.9
			h-5v-25.7h4.5l0.3,2.2c0.5-0.8,1.2-1.4,2-1.9c0.8-0.4,1.7-0.7,2.7-0.7c2.3,0,4.1,0.9,5.4,2.7s1.9,4.2,1.9,7.1V152.2z M16.7,151.9
			c0-1.8-0.3-3.2-0.9-4.3s-1.5-1.6-2.7-1.6c-0.8,0-1.4,0.2-1.9,0.5s-1,0.8-1.3,1.3v8.1c0.3,0.5,0.7,0.9,1.3,1.2
			c0.5,0.3,1.2,0.4,2,0.4c1.2,0,2.1-0.5,2.7-1.4c0.6-1,0.9-2.2,0.9-3.9V151.9z"/>
		<path class="st0" d="M36.2,158.3c-0.6,1-1.3,1.8-2.2,2.3s-1.9,0.8-3.1,0.8c-2,0-3.5-0.7-4.6-2c-1.1-1.3-1.7-3.4-1.7-6.2v-10.8h5
			v10.8c0,1.6,0.2,2.7,0.7,3.3s1.1,0.9,2.1,0.9c0.8,0,1.5-0.1,2.1-0.4c0.6-0.3,1-0.6,1.4-1.1v-13.5h5V161h-4.2L36.2,158.3z"/>
		<path class="st0" d="M52.7,161.4c-2.8,0-4.9-0.8-6.5-2.6c-1.6-1.7-2.3-3.9-2.3-6.6v-0.7c0-2.8,0.8-5.1,2.3-6.8
			c1.5-1.8,3.6-2.7,6.2-2.6c2.5,0,4.4,0.8,5.7,2.3c1.3,1.5,2,3.6,2,6.2v2.6H49l-0.1,0.1c0.1,1.3,0.5,2.3,1.2,3.1
			c0.7,0.8,1.7,1.2,3.1,1.2c1.1,0,2.1-0.1,2.9-0.3c0.8-0.2,1.6-0.6,2.4-1l1.4,3.1c-0.7,0.6-1.8,1.1-3,1.5
			C55.6,161.2,54.2,161.4,52.7,161.4z M52.4,145.9c-1,0-1.8,0.3-2.3,1c-0.5,0.7-0.9,1.6-1,2.8l0,0.1h6.1v-0.4c0-1.1-0.2-1.9-0.7-2.6
			C54.1,146.2,53.4,145.9,52.4,145.9z"/>
		<path class="st0" d="M73.1,155.8c0-0.5-0.3-1-0.8-1.4c-0.5-0.4-1.5-0.7-3-1c-2.2-0.4-3.8-1.1-5-2s-1.7-2.1-1.7-3.6
			c0-1.6,0.7-2.9,2-4.1c1.4-1.1,3.1-1.7,5.4-1.7c2.3,0,4.2,0.6,5.6,1.7c1.4,1.1,2.1,2.5,2,4.2l0,0.1h-4.8c0-0.7-0.2-1.4-0.7-1.8
			c-0.5-0.5-1.2-0.7-2.1-0.7c-0.8,0-1.4,0.2-1.9,0.6c-0.5,0.4-0.7,0.9-0.7,1.5c0,0.6,0.2,1,0.7,1.4c0.5,0.4,1.5,0.7,3,1
			c2.3,0.5,4,1.1,5.1,2c1.1,0.9,1.7,2.1,1.7,3.7c0,1.7-0.7,3-2.1,4.1c-1.4,1.1-3.3,1.6-5.7,1.6c-2.5,0-4.4-0.6-5.9-1.9
			s-2.1-2.7-2.1-4.3l0-0.1h4.6c0,1,0.4,1.7,1,2.2c0.6,0.4,1.4,0.7,2.4,0.7c0.9,0,1.6-0.2,2.1-0.6C72.8,157,73.1,156.5,73.1,155.8z"
			/>
		<path class="st0" d="M87.2,137.9v4.6h3.1v3.5h-3.1v9.5c0,0.7,0.2,1.2,0.5,1.5c0.3,0.3,0.7,0.5,1.2,0.5c0.3,0,0.5,0,0.7,0
			s0.4-0.1,0.7-0.1l0.4,3.6c-0.5,0.2-1,0.3-1.5,0.4c-0.5,0.1-1,0.1-1.6,0.1c-1.7,0-3.1-0.5-4-1.4c-0.9-1-1.4-2.5-1.4-4.5v-9.5h-2.7
			v-3.5h2.7v-4.6H87.2z"/>
		<path class="st0" d="M92.7,151.5c0-2.8,0.8-5,2.3-6.8s3.7-2.7,6.4-2.7c2.7,0,4.9,0.9,6.5,2.6c1.6,1.8,2.3,4,2.3,6.8v0.4
			c0,2.8-0.8,5.1-2.3,6.8c-1.6,1.8-3.7,2.6-6.4,2.6c-2.7,0-4.9-0.9-6.5-2.6c-1.6-1.8-2.3-4-2.3-6.8V151.5z M97.7,151.9
			c0,1.7,0.3,3.1,0.9,4.1c0.6,1,1.6,1.5,2.9,1.5c1.3,0,2.2-0.5,2.8-1.5c0.6-1,0.9-2.4,0.9-4.1v-0.4c0-1.6-0.3-3-0.9-4
			s-1.6-1.6-2.9-1.6c-1.3,0-2.2,0.5-2.8,1.6s-0.9,2.4-0.9,4V151.9z"/>
		<path class="st0" d="M123.3,155.8c0-0.5-0.3-1-0.8-1.4c-0.5-0.4-1.5-0.7-3-1c-2.2-0.4-3.8-1.1-5-2s-1.7-2.1-1.7-3.6
			c0-1.6,0.7-2.9,2-4.1c1.4-1.1,3.1-1.7,5.4-1.7c2.3,0,4.2,0.6,5.6,1.7c1.4,1.1,2.1,2.5,2,4.2l0,0.1h-4.8c0-0.7-0.2-1.4-0.7-1.8
			c-0.5-0.5-1.2-0.7-2.1-0.7c-0.8,0-1.4,0.2-1.9,0.6c-0.5,0.4-0.7,0.9-0.7,1.5c0,0.6,0.2,1,0.7,1.4c0.5,0.4,1.5,0.7,3,1
			c2.3,0.5,4,1.1,5.1,2c1.1,0.9,1.7,2.1,1.7,3.7c0,1.7-0.7,3-2.1,4.1c-1.4,1.1-3.3,1.6-5.7,1.6c-2.5,0-4.4-0.6-5.9-1.9
			s-2.1-2.7-2.1-4.3l0-0.1h4.6c0,1,0.4,1.7,1,2.2c0.6,0.4,1.4,0.7,2.4,0.7c0.9,0,1.6-0.2,2.1-0.6C123.1,157,123.3,156.5,123.3,155.8
			z"/>
		<path class="st0" d="M139.4,151.9c0-2.9,0.6-5.3,1.9-7.1c1.3-1.8,3-2.7,5.4-2.7c0.9,0,1.8,0.2,2.5,0.6c0.7,0.4,1.4,1,2,1.7v-10.2
			h5V161h-4.3l-0.4-2.3c-0.6,0.9-1.3,1.5-2.1,2c-0.8,0.5-1.7,0.7-2.7,0.7c-2.3,0-4.1-0.8-5.3-2.5c-1.3-1.7-1.9-3.9-1.9-6.6V151.9z
			 M144.4,152.2c0,1.6,0.3,2.9,0.8,3.8s1.4,1.4,2.7,1.4c0.7,0,1.4-0.1,1.9-0.4c0.5-0.3,1-0.7,1.3-1.3v-7.9c-0.3-0.6-0.8-1-1.3-1.4
			c-0.5-0.3-1.2-0.5-1.9-0.5c-1.2,0-2.1,0.5-2.7,1.6c-0.6,1.1-0.9,2.5-0.9,4.3V152.2z"/>
		<path class="st0" d="M168.1,161.4c-2.8,0-4.9-0.8-6.5-2.6c-1.6-1.7-2.3-3.9-2.3-6.6v-0.7c0-2.8,0.8-5.1,2.3-6.8
			c1.5-1.8,3.6-2.7,6.2-2.6c2.5,0,4.4,0.8,5.7,2.3c1.3,1.5,2,3.6,2,6.2v2.6h-11.1l-0.1,0.1c0.1,1.3,0.5,2.3,1.2,3.1
			c0.7,0.8,1.7,1.2,3.1,1.2c1.1,0,2.1-0.1,2.9-0.3c0.8-0.2,1.6-0.6,2.4-1l1.4,3.1c-0.7,0.6-1.8,1.1-3,1.5
			C171,161.2,169.6,161.4,168.1,161.4z M167.8,145.9c-1,0-1.8,0.3-2.3,1c-0.5,0.7-0.9,1.6-1,2.8l0,0.1h6.1v-0.4
			c0-1.1-0.2-1.9-0.7-2.6C169.5,146.2,168.8,145.9,167.8,145.9z"/>
		<path class="st0" d="M193.2,137.9v4.6h3.1v3.5h-3.1v9.5c0,0.7,0.2,1.2,0.5,1.5c0.3,0.3,0.7,0.5,1.2,0.5c0.3,0,0.5,0,0.7,0
			s0.4-0.1,0.7-0.1l0.4,3.6c-0.5,0.2-1,0.3-1.5,0.4c-0.5,0.1-1,0.1-1.6,0.1c-1.7,0-3.1-0.5-4-1.4c-0.9-1-1.4-2.5-1.4-4.5v-9.5h-2.7
			v-3.5h2.7v-4.6H193.2z"/>
		<path class="st0" d="M209.2,146.7l-1.8-0.1c-0.7,0-1.4,0.2-1.8,0.5c-0.5,0.3-0.8,0.7-1.1,1.3V161h-5v-18.6h4.7l0.2,2.7
			c0.4-1,1-1.7,1.7-2.3s1.5-0.8,2.4-0.8c0.3,0,0.5,0,0.7,0.1s0.4,0.1,0.6,0.1L209.2,146.7z"/>
		<path class="st0" d="M222.8,161c-0.2-0.4-0.3-0.9-0.5-1.3c-0.1-0.5-0.2-1-0.3-1.4c-0.5,0.9-1.2,1.7-2,2.3c-0.8,0.6-1.9,0.9-3,0.9
			c-1.9,0-3.4-0.5-4.5-1.5c-1.1-1-1.6-2.4-1.6-4.1c0-1.8,0.7-3.2,2.1-4.2c1.4-1,3.4-1.5,6.1-1.5h2.8v-1.5c0-0.9-0.2-1.6-0.7-2.1
			s-1.2-0.7-2.1-0.7c-0.8,0-1.4,0.2-1.9,0.6c-0.4,0.4-0.7,0.9-0.7,1.6h-4.8l0-0.1c-0.1-1.6,0.6-2.9,2.1-4.1c1.4-1.1,3.3-1.7,5.7-1.7
			c2.2,0,4,0.6,5.4,1.7s2.1,2.7,2.1,4.8v7.7c0,0.9,0.1,1.7,0.2,2.5c0.1,0.8,0.3,1.5,0.6,2.3H222.8z M218.2,157.6
			c0.9,0,1.6-0.2,2.3-0.7c0.7-0.4,1.2-0.9,1.4-1.5v-2.6h-2.8c-1.1,0-1.9,0.3-2.4,0.8c-0.5,0.5-0.8,1.2-0.8,1.9
			c0,0.6,0.2,1.1,0.6,1.5C216.9,157.5,217.5,157.6,218.2,157.6z"/>
		<path class="st0" d="M247.5,152.2c0,2.8-0.6,5-1.9,6.6s-3,2.5-5.4,2.5c-1.1,0-2-0.2-2.8-0.7c-0.8-0.5-1.5-1.1-2.1-2L235,161h-4.2
			v-26.8h5v10.2c0.5-0.7,1.2-1.3,1.9-1.7c0.8-0.4,1.6-0.6,2.6-0.6c2.4,0,4.2,0.9,5.4,2.7c1.2,1.8,1.9,4.2,1.9,7.1V152.2z
			 M242.5,151.9c0-1.8-0.3-3.2-0.8-4.3c-0.5-1.1-1.4-1.6-2.7-1.6c-0.8,0-1.4,0.2-2,0.5c-0.5,0.3-1,0.8-1.3,1.4v7.9
			c0.3,0.6,0.7,1,1.3,1.3s1.2,0.4,2,0.4c1.3,0,2.2-0.5,2.7-1.4c0.5-0.9,0.8-2.2,0.8-3.9V151.9z"/>
		<path class="st0" d="M261.5,161c-0.2-0.4-0.3-0.9-0.5-1.3c-0.1-0.5-0.2-1-0.3-1.4c-0.5,0.9-1.2,1.7-2,2.3c-0.8,0.6-1.9,0.9-3,0.9
			c-1.9,0-3.4-0.5-4.5-1.5c-1.1-1-1.6-2.4-1.6-4.1c0-1.8,0.7-3.2,2.1-4.2c1.4-1,3.4-1.5,6.1-1.5h2.8v-1.5c0-0.9-0.2-1.6-0.7-2.1
			s-1.2-0.7-2.1-0.7c-0.8,0-1.4,0.2-1.9,0.6c-0.4,0.4-0.7,0.9-0.7,1.6h-4.8l0-0.1c-0.1-1.6,0.6-2.9,2.1-4.1c1.4-1.1,3.3-1.7,5.7-1.7
			c2.2,0,4,0.6,5.4,1.7s2.1,2.7,2.1,4.8v7.7c0,0.9,0.1,1.7,0.2,2.5c0.1,0.8,0.3,1.5,0.6,2.3H261.5z M257,157.6
			c0.9,0,1.6-0.2,2.3-0.7c0.7-0.4,1.2-0.9,1.4-1.5v-2.6h-2.8c-1.1,0-1.9,0.3-2.4,0.8c-0.5,0.5-0.8,1.2-0.8,1.9
			c0,0.6,0.2,1.1,0.6,1.5C255.7,157.5,256.2,157.6,257,157.6z"/>
		<path class="st0" d="M274.9,142.4v19.3c0,2.2-0.6,3.9-1.7,5s-2.8,1.8-4.8,1.8c-0.5,0-0.9,0-1.3-0.1s-0.8-0.1-1.2-0.2l0.2-3.8
			c0.3,0.1,0.5,0.1,0.8,0.2c0.3,0,0.5,0.1,0.8,0.1c0.7,0,1.2-0.2,1.6-0.7c0.4-0.5,0.5-1.2,0.5-2.2v-19.3H274.9z M274.8,137.9h-5
			v-3.7h5V137.9z"/>
		<path class="st0" d="M278,151.5c0-2.8,0.8-5,2.3-6.8s3.7-2.7,6.4-2.7c2.7,0,4.9,0.9,6.5,2.6s2.3,4,2.3,6.8v0.4
			c0,2.8-0.8,5.1-2.3,6.8c-1.6,1.8-3.7,2.6-6.4,2.6c-2.7,0-4.9-0.9-6.5-2.6c-1.6-1.8-2.3-4-2.3-6.8V151.5z M283,151.9
			c0,1.7,0.3,3.1,0.9,4.1c0.6,1,1.6,1.5,2.9,1.5c1.3,0,2.2-0.5,2.8-1.5c0.6-1,0.9-2.4,0.9-4.1v-0.4c0-1.6-0.3-3-0.9-4
			s-1.6-1.6-2.9-1.6c-1.3,0-2.2,0.5-2.8,1.6s-0.9,2.4-0.9,4V151.9z"/>
	</g>
</g>
<g>
	<g>
		<path class="st0" d="M13,43.9c-2.8,0-4.9-0.9-6.5-2.6c-1.6-1.7-2.3-3.9-2.3-6.6v-0.7c0-2.8,0.8-5.1,2.3-6.8
			c1.5-1.8,3.6-2.7,6.2-2.6c2.5,0,4.4,0.8,5.7,2.3s2,3.6,2,6.2v2.6H9.3l-0.1,0.1c0.1,1.3,0.5,2.3,1.2,3.1s1.7,1.2,3.1,1.2
			c1.1,0,2.1-0.1,2.9-0.3c0.8-0.2,1.6-0.6,2.4-1l1.4,3.1c-0.7,0.6-1.8,1.1-3,1.5C15.9,43.7,14.5,43.9,13,43.9z M12.7,28.4
			c-1,0-1.8,0.3-2.3,1s-0.9,1.6-1,2.8l0,0.1h6.1v-0.4c0-1.1-0.2-1.9-0.7-2.6C14.4,28.8,13.7,28.4,12.7,28.4z"/>
		<path class="st0" d="M27.9,24.9l0.2,2.7c0.6-1,1.4-1.7,2.3-2.2s1.9-0.8,3-0.8c1.9,0,3.3,0.6,4.4,1.8c1.1,1.2,1.6,3.1,1.6,5.7v11.4
			h-5V32.1c0-1.3-0.2-2.3-0.7-2.8c-0.5-0.6-1.2-0.8-2.1-0.8c-0.7,0-1.4,0.1-2,0.4c-0.6,0.3-1,0.7-1.4,1.2v13.4h-5V24.9H27.9z"/>
		<path class="st0" d="M49.2,20.4v4.6h3.1v3.5h-3.1v9.5c0,0.7,0.2,1.2,0.5,1.5c0.3,0.3,0.7,0.5,1.2,0.5c0.3,0,0.5,0,0.7,0
			c0.2,0,0.4-0.1,0.7-0.1l0.4,3.6c-0.5,0.2-1,0.3-1.5,0.4c-0.5,0.1-1,0.1-1.6,0.1c-1.7,0-3.1-0.5-4-1.4c-0.9-1-1.4-2.5-1.4-4.5v-9.5
			h-2.7v-3.5h2.7v-4.6H49.2z"/>
		<path class="st0" d="M65.2,29.2l-1.8-0.1c-0.7,0-1.4,0.2-1.8,0.5c-0.5,0.3-0.8,0.7-1.1,1.3v12.6h-5V24.9h4.7l0.2,2.7
			c0.4-1,1-1.7,1.7-2.3c0.7-0.5,1.5-0.8,2.4-0.8c0.3,0,0.5,0,0.7,0.1s0.4,0.1,0.6,0.1L65.2,29.2z"/>
		<path class="st0" d="M75.5,43.9c-2.8,0-4.9-0.9-6.5-2.6c-1.6-1.7-2.3-3.9-2.3-6.6v-0.7c0-2.8,0.8-5.1,2.3-6.8
			c1.5-1.8,3.6-2.7,6.2-2.6c2.5,0,4.4,0.8,5.7,2.3s2,3.6,2,6.2v2.6H71.9l-0.1,0.1c0.1,1.3,0.5,2.3,1.2,3.1s1.7,1.2,3.1,1.2
			c1.1,0,2.1-0.1,2.9-0.3c0.8-0.2,1.6-0.6,2.4-1l1.4,3.1c-0.7,0.6-1.8,1.1-3,1.5C78.4,43.7,77,43.9,75.5,43.9z M75.2,28.4
			c-1,0-1.8,0.3-2.3,1s-0.9,1.6-1,2.8l0,0.1h6.1v-0.4c0-1.1-0.2-1.9-0.7-2.6C76.9,28.8,76.2,28.4,75.2,28.4z"/>
	</g>
</g>
</svg>
