<?xml version="1.0" encoding="utf-8"?>
<!-- Generator: Adobe Illustrator 22.1.0, SVG Export Plug-In . SVG Version: 6.00 Build 0)  -->
<svg version="1.1" id="Capa_1" xmlns="http://www.w3.org/2000/svg" xmlns:xlink="http://www.w3.org/1999/xlink" x="0px" y="0px"
	 viewBox="0 0 579 213" style="enable-background:new 0 0 579 213;" xml:space="preserve">
<style type="text/css">
	.st0{fill:#54515C;}
</style>
<g>
	<path class="st0" d="M78.9,21.8v56.4c0,9.7-3.2,17.3-9.6,22.8c-6.4,5.5-14.8,8.2-25,8.2c-10.2,0-18.5-2.7-24.9-8.2
		C13,95.4,9.8,87.8,9.8,78.1V21.8h17.3v56.4c0,5.8,1.5,10.2,4.6,13.2c3.1,3,7.2,4.6,12.5,4.6c5.3,0,9.5-1.5,12.7-4.6
		c3.1-3,4.7-7.4,4.7-13.2V21.8H78.9z"/>
	<path class="st0" d="M136.3,85.4c0-3.3-1.2-6-3.5-8c-2.3-2-6.4-3.9-12.2-5.7c-9.9-3-17.5-6.5-22.6-10.6c-5.1-4.1-7.7-9.6-7.7-16.6
		c0-7.1,2.9-12.8,8.7-17.3c5.8-4.5,13.2-6.7,22.2-6.7c9.5,0,17.2,2.4,23,7.2c5.8,4.8,8.6,11.1,8.4,18.9l-0.1,0.4h-16.7
		c0-4.3-1.3-7.6-3.9-9.9c-2.6-2.3-6.2-3.5-10.9-3.5c-4.3,0-7.5,1-9.9,3.1c-2.3,2-3.5,4.7-3.5,7.9c0,2.9,1.3,5.3,3.8,7.2
		c2.5,1.9,6.9,3.9,13.1,5.9c9.5,2.7,16.7,6.2,21.6,10.5s7.5,10,7.5,17.1c0,7.4-2.9,13.2-8.6,17.4c-5.8,4.3-13.4,6.4-22.8,6.4
		c-9.3,0-17.2-2.3-23.9-6.9c-6.6-4.6-9.9-11.5-9.7-20.6l0.1-0.4h16.7c0,5.1,1.5,8.8,4.5,11.2c3,2.4,7.1,3.6,12.2,3.6
		c4.6,0,8.1-1,10.6-2.9C135.1,91.2,136.3,88.6,136.3,85.4z"/>
	<path class="st0" d="M204.2,85.2c0-3.2-0.9-5.8-2.8-7.8c-1.9-2-5.1-3.8-9.9-5.6c-8.9-3-15.5-6.5-19.8-10.5c-4.3-4-6.4-9.6-6.4-16.8
		c0-6.7,2.1-12.1,6.4-16.3c4.3-4.2,10.1-6.7,17.5-7.5V8.1h9.4v12.8c7.1,1,12.7,3.8,16.7,8.3c4,4.6,6,10.5,5.9,17.8l-0.1,0.3h-16.9
		c0-4.3-1-7.6-2.9-9.9s-4.7-3.5-8.2-3.5c-3.7,0-6.4,1-8,2.9c-1.7,1.9-2.5,4.5-2.5,7.8c0,3,0.9,5.5,2.6,7.3c1.8,1.8,5.1,3.8,10.1,5.9
		c8.8,2.8,15.3,6.3,19.6,10.4c4.3,4.1,6.5,9.8,6.5,16.9c0,6.9-2.1,12.3-6.4,16.5c-4.3,4.1-10.1,6.6-17.5,7.3v11.6H188v-11.6
		c-7.6-0.7-13.8-3.2-18.7-7.5c-4.9-4.4-7.2-10.8-7.1-19.2l0.2-0.4h16.8c0,5,1.2,8.6,3.7,10.8c2.5,2.1,5.7,3.2,9.6,3.2
		c3.9,0,6.8-0.9,8.7-2.8C203.2,91.1,204.2,88.5,204.2,85.2z"/>
	<path class="st0" d="M317.9,35.1c-9.7,11.4-16.4,21.7-19.9,30.8c-3.5,9.1-5.3,19.6-5.3,31.4v10.6h-17.3V97.2
		c0-12,2.2-22.9,6.6-32.8s10.8-19.7,19.2-29.4h-43.9V21.8h60.5V35.1z"/>
	<path class="st0" d="M346,107.9h-17.3V92.7H346V107.9z"/>
	<path class="st0" d="M417.7,107.9h-57.8V96.6l26.7-30.2c4-4.7,6.8-8.7,8.5-11.9c1.7-3.3,2.5-6.2,2.5-9c0-3.5-0.9-6.4-2.7-8.5
		c-1.8-2.1-4.4-3.2-8-3.2c-3.7,0-6.6,1.4-8.7,4.1c-2,2.7-3.1,6.2-3.1,10.3h-16.8l-0.1-0.4c-0.2-7.6,2.3-14.1,7.6-19.4
		c5.2-5.3,12.3-8,21.1-8c8.8,0,15.7,2.3,20.6,6.8c4.9,4.5,7.3,10.6,7.3,18.2c0,5.2-1.4,9.9-4.1,14.1c-2.7,4.3-7.5,10.2-14.2,17.7
		l-14.2,17l0.1,0.3h35.2V107.9z"/>
	<path class="st0" d="M483.9,76.7c0,10.1-2.7,18-8,23.8c-5.3,5.8-12.3,8.6-21.1,8.6c-8.8,0-15.9-2.9-21.2-8.6
		c-5.3-5.8-8-13.7-8-23.8V53c0-10.1,2.7-18,8-23.8c5.3-5.8,12.3-8.7,21.1-8.7c8.8,0,15.8,2.9,21.1,8.7c5.3,5.8,8,13.7,8,23.8V76.7z
		 M466.7,51.2c0-5.5-1.1-9.8-3.2-12.8c-2.1-3-5-4.6-8.8-4.6c-3.8,0-6.7,1.5-8.8,4.6c-2.1,3-3.1,7.3-3.1,12.8v27.1c0,5.6,1,10,3.1,13
		c2.1,3,5,4.5,8.9,4.5c3.7,0,6.7-1.5,8.7-4.5c2.1-3,3.1-7.3,3.1-13V51.2z"/>
	<path class="st0" d="M551,76.7c0,10.1-2.7,18-8,23.8c-5.3,5.8-12.3,8.6-21.1,8.6c-8.8,0-15.9-2.9-21.2-8.6c-5.3-5.8-8-13.7-8-23.8
		V53c0-10.1,2.7-18,8-23.8c5.3-5.8,12.3-8.7,21.1-8.7c8.8,0,15.8,2.9,21.1,8.7c5.3,5.8,8,13.7,8,23.8V76.7z M533.8,51.2
		c0-5.5-1.1-9.8-3.2-12.8c-2.1-3-5-4.6-8.8-4.6c-3.8,0-6.7,1.5-8.8,4.6c-2.1,3-3.1,7.3-3.1,12.8v27.1c0,5.6,1,10,3.1,13
		c2.1,3,5,4.5,8.9,4.5c3.7,0,6.7-1.5,8.7-4.5c2.1-3,3.1-7.3,3.1-13V51.2z"/>
</g>
<g>
	<path class="st0" d="M8,177.6H5.5v-3.4H8V177.6z M8,206H5.5v-22.1H8V206z"/>
	<path class="st0" d="M16.9,183.9l0.2,3.9c0.7-1.4,1.7-2.4,2.9-3.2s2.6-1.1,4.3-1.1c2.4,0,4.2,0.7,5.5,2.2c1.3,1.5,1.9,3.7,1.9,6.8
		V206h-2.4v-13.5c0-2.5-0.5-4.3-1.4-5.4c-0.9-1-2.3-1.6-4-1.6c-1.7,0-3.1,0.5-4.2,1.4s-1.9,2.1-2.3,3.6V206h-2.4v-22.1H16.9z"/>
	<path class="st0" d="M44.3,200.5l0.7,2.6h0.1l0.8-2.6l6-16.5h2.5L46,206h-2l-8.4-22.1h2.5L44.3,200.5z"/>
	<path class="st0" d="M66.4,206.4c-2.8,0-5.1-1-6.9-3.1c-1.8-2-2.7-4.6-2.7-7.8v-1.1c0-3.2,0.9-5.8,2.7-7.9c1.8-2.1,4-3.1,6.6-3.1
		c2.7,0,4.8,0.9,6.4,2.6c1.6,1.7,2.3,4,2.3,6.9v2.1H59.3v0.6c0,2.5,0.7,4.6,2,6.2c1.3,1.7,3.1,2.5,5.2,2.5c1.5,0,2.8-0.2,3.9-0.6
		c1.1-0.4,2-1,2.8-1.8l1,1.7c-0.8,0.9-1.9,1.6-3.2,2.1C69.7,206.2,68.2,206.4,66.4,206.4z M66.1,185.6c-1.8,0-3.3,0.7-4.6,2.1
		c-1.2,1.4-1.9,3.1-2.1,5.2l0,0.1h12.9v-0.6c0-1.9-0.6-3.5-1.7-4.8C69.6,186.2,68.1,185.6,66.1,185.6z"/>
	<path class="st0" d="M89.8,186l-1.8-0.1c-1.5,0-2.8,0.4-3.8,1.3s-1.7,2.1-2.1,3.6V206h-2.4v-22.1h2.1l0.3,3.7v0.2
		c0.6-1.4,1.5-2.4,2.6-3.2c1.1-0.8,2.4-1.1,3.8-1.1c0.3,0,0.6,0,0.9,0.1c0.3,0,0.5,0.1,0.7,0.2L89.8,186z"/>
	<path class="st0" d="M107.1,200.4c0-1-0.4-1.9-1.3-2.7c-0.9-0.8-2.4-1.4-4.6-1.9c-2.6-0.6-4.6-1.3-5.8-2.3c-1.3-0.9-1.9-2.3-1.9-4
		c0-1.7,0.7-3.1,2.1-4.3c1.4-1.2,3.3-1.7,5.6-1.7c2.5,0,4.5,0.6,5.9,1.8c1.5,1.2,2.1,2.8,2.1,4.6l0,0.1H107c0-1.2-0.5-2.3-1.5-3.2
		c-1-0.9-2.4-1.3-4.2-1.3c-1.8,0-3.1,0.4-4,1.1c-0.9,0.8-1.3,1.7-1.3,2.7c0,1,0.4,1.9,1.2,2.5c0.8,0.7,2.3,1.2,4.6,1.7
		c2.6,0.6,4.6,1.4,5.9,2.4c1.3,1,2,2.4,2,4.1c0,1.8-0.7,3.3-2.2,4.5s-3.5,1.7-5.9,1.7c-2.7,0-4.8-0.6-6.3-1.9
		c-1.5-1.3-2.3-2.8-2.2-4.6l0-0.1h2.2c0.1,1.6,0.7,2.7,1.9,3.5s2.6,1.1,4.3,1.1c1.8,0,3.2-0.4,4.2-1.2
		C106.6,202.4,107.1,201.5,107.1,200.4z"/>
	<path class="st0" d="M117.9,177.6h-2.4v-3.4h2.4V177.6z M117.9,206h-2.4v-22.1h2.4V206z"/>
	<path class="st0" d="M123.3,194.6c0-3.3,0.9-5.9,2.7-8c1.8-2.1,4.1-3.1,7.1-3.1c3,0,5.3,1,7.1,3.1c1.8,2.1,2.7,4.7,2.7,8v0.7
		c0,3.3-0.9,5.9-2.7,8c-1.8,2.1-4.1,3.1-7.1,3.1c-3,0-5.3-1-7.1-3.1c-1.8-2.1-2.7-4.7-2.7-8V194.6z M125.8,195.3
		c0,2.6,0.6,4.7,1.9,6.4c1.3,1.7,3.1,2.6,5.4,2.6c2.3,0,4.1-0.9,5.4-2.6c1.3-1.7,1.9-3.9,1.9-6.4v-0.7c0-2.5-0.7-4.6-2-6.4
		c-1.3-1.8-3.1-2.6-5.4-2.6s-4.1,0.9-5.4,2.6c-1.3,1.8-1.9,3.9-1.9,6.4V195.3z M136,175.4h3l0.1,0.1l-5.1,5.3h-2.2L136,175.4z"/>
	<path class="st0" d="M150.1,183.9l0.2,3.9c0.7-1.4,1.7-2.4,2.9-3.2s2.6-1.1,4.3-1.1c2.4,0,4.2,0.7,5.5,2.2c1.3,1.5,1.9,3.7,1.9,6.8
		V206h-2.4v-13.5c0-2.5-0.5-4.3-1.4-5.4c-0.9-1-2.3-1.6-4-1.6c-1.7,0-3.1,0.5-4.2,1.4s-1.9,2.1-2.3,3.6V206h-2.4v-22.1H150.1z"/>
	<path class="st0" d="M189.7,206.4c-2.8,0-5.1-1-6.9-3.1c-1.8-2-2.7-4.6-2.7-7.8v-1.1c0-3.2,0.9-5.8,2.7-7.9c1.8-2.1,4-3.1,6.6-3.1
		c2.7,0,4.8,0.9,6.4,2.6c1.6,1.7,2.3,4,2.3,6.9v2.1h-15.6v0.6c0,2.5,0.7,4.6,2,6.2c1.3,1.7,3.1,2.5,5.2,2.5c1.5,0,2.8-0.2,3.9-0.6
		c1.1-0.4,2-1,2.8-1.8l1,1.7c-0.8,0.9-1.9,1.6-3.2,2.1C192.9,206.2,191.4,206.4,189.7,206.4z M189.3,185.6c-1.8,0-3.3,0.7-4.6,2.1
		c-1.2,1.4-1.9,3.1-2.1,5.2l0,0.1h12.9v-0.6c0-1.9-0.6-3.5-1.7-4.8C192.8,186.2,191.3,185.6,189.3,185.6z"/>
	<path class="st0" d="M216.1,200.4c0-1-0.4-1.9-1.3-2.7c-0.9-0.8-2.4-1.4-4.6-1.9c-2.6-0.6-4.6-1.3-5.8-2.3c-1.3-0.9-1.9-2.3-1.9-4
		c0-1.7,0.7-3.1,2.1-4.3c1.4-1.2,3.3-1.7,5.6-1.7c2.5,0,4.5,0.6,5.9,1.8c1.5,1.2,2.1,2.8,2.1,4.6l0,0.1H216c0-1.2-0.5-2.3-1.5-3.2
		c-1-0.9-2.4-1.3-4.2-1.3c-1.8,0-3.1,0.4-4,1.1c-0.9,0.8-1.3,1.7-1.3,2.7c0,1,0.4,1.9,1.2,2.5c0.8,0.7,2.3,1.2,4.6,1.7
		c2.6,0.6,4.6,1.4,5.9,2.4c1.3,1,2,2.4,2,4.1c0,1.8-0.7,3.3-2.2,4.5s-3.5,1.7-5.9,1.7c-2.7,0-4.8-0.6-6.3-1.9
		c-1.5-1.3-2.3-2.8-2.2-4.6l0-0.1h2.2c0.1,1.6,0.7,2.7,1.9,3.5s2.6,1.1,4.3,1.1c1.8,0,3.2-0.4,4.2-1.2
		C215.6,202.4,216.1,201.5,216.1,200.4z"/>
	<path class="st0" d="M228,178.3v5.7h4.9v2H228v14.4c0,1.4,0.3,2.5,0.8,3.1s1.2,0.9,2.1,0.9c0.4,0,0.8,0,1.2-0.1
		c0.4,0,0.8-0.1,1.3-0.2l0.4,1.8c-0.4,0.2-0.9,0.3-1.5,0.4c-0.6,0.1-1.2,0.1-1.8,0.1c-1.6,0-2.8-0.5-3.6-1.5s-1.3-2.5-1.3-4.7v-14.4
		h-3.8v-2h3.8v-5.7H228z"/>
	<path class="st0" d="M240.8,177.6h-2.4v-3.4h2.4V177.6z M240.8,206h-2.4v-22.1h2.4V206z"/>
	<path class="st0" d="M249.6,183.9l0.2,3.7c0.7-1.3,1.6-2.3,2.8-3s2.6-1.1,4.2-1.1c1.7,0,3.1,0.4,4.2,1.2c1.1,0.8,1.9,2.1,2.4,3.7
		c0.7-1.6,1.6-2.8,2.8-3.6c1.2-0.9,2.7-1.3,4.5-1.3c2.4,0,4.2,0.8,5.4,2.3s1.9,4,1.9,7.3V206h-2.4v-12.9c0-2.7-0.5-4.7-1.4-5.8
		c-1-1.1-2.3-1.7-4-1.7c-1.9,0-3.4,0.6-4.4,1.8c-1,1.2-1.7,2.7-1.9,4.6c0,0.1,0,0.2,0,0.4c0,0.2,0,0.3,0,0.4V206h-2.5v-12.9
		c0-2.7-0.5-4.6-1.5-5.7c-1-1.2-2.3-1.7-4-1.7c-1.7,0-3.1,0.4-4.1,1.3c-1,0.9-1.7,2.1-2.1,3.5V206h-2.5v-22.1H249.6z"/>
	<path class="st0" d="M298.6,206c-0.2-0.7-0.3-1.4-0.3-1.9c-0.1-0.5-0.1-1.1-0.1-1.7c-0.8,1.2-1.9,2.1-3.3,2.9
		c-1.4,0.8-2.9,1.1-4.6,1.1c-2.1,0-3.8-0.6-5-1.7c-1.2-1.1-1.8-2.7-1.8-4.6c0-2,0.9-3.7,2.6-4.9c1.8-1.2,4.1-1.8,7.1-1.8h4.9v-2.7
		c0-1.6-0.5-2.8-1.5-3.7c-1-0.9-2.4-1.3-4.3-1.3c-1.7,0-3.1,0.4-4.2,1.3c-1.1,0.9-1.7,1.9-1.7,3.1l-2.2,0l0-0.1
		c-0.1-1.6,0.7-3.1,2.3-4.4s3.6-1.9,6.1-1.9c2.4,0,4.4,0.6,5.9,1.9c1.5,1.2,2.2,3,2.2,5.3v10.9c0,0.8,0,1.5,0.1,2.3
		c0.1,0.7,0.2,1.5,0.4,2.2H298.6z M290.5,204.3c1.8,0,3.3-0.4,4.7-1.2s2.3-1.9,2.9-3.2v-4.6h-4.9c-2.2,0-4,0.5-5.3,1.4
		c-1.3,0.9-2,2.1-2,3.5c0,1.2,0.4,2.2,1.2,2.9S289.1,204.3,290.5,204.3z"/>
	<path class="st0" d="M306.1,195.1c0-3.5,0.7-6.3,2.2-8.5c1.5-2.1,3.6-3.2,6.2-3.2c1.5,0,2.9,0.3,4,1s2.1,1.6,2.8,2.8v-13.1h2.4V206
		h-2.2l-0.2-3.2c-0.7,1.2-1.7,2.1-2.8,2.7c-1.2,0.6-2.5,0.9-4.1,0.9c-2.6,0-4.7-1-6.2-2.9c-1.5-2-2.2-4.6-2.2-7.9V195.1z
		 M308.5,195.6c0,2.7,0.5,4.8,1.6,6.4c1.1,1.6,2.7,2.4,4.8,2.4c1.6,0,2.9-0.4,3.9-1.1c1.1-0.7,1.9-1.7,2.5-3v-10.4
		c-0.6-1.3-1.3-2.3-2.4-3.1c-1-0.8-2.4-1.2-4-1.2c-2.1,0-3.8,0.9-4.8,2.7c-1.1,1.8-1.6,4.1-1.6,6.9V195.6z"/>
	<path class="st0" d="M344.3,206c-0.2-0.7-0.3-1.4-0.3-1.9c-0.1-0.5-0.1-1.1-0.1-1.7c-0.8,1.2-1.9,2.1-3.3,2.9
		c-1.4,0.8-2.9,1.1-4.6,1.1c-2.1,0-3.8-0.6-5-1.7c-1.2-1.1-1.8-2.7-1.8-4.6c0-2,0.9-3.7,2.6-4.9c1.8-1.2,4.1-1.8,7.1-1.8h4.9v-2.7
		c0-1.6-0.5-2.8-1.5-3.7c-1-0.9-2.4-1.3-4.3-1.3c-1.7,0-3.1,0.4-4.2,1.3c-1.1,0.9-1.7,1.9-1.7,3.1l-2.2,0l0-0.1
		c-0.1-1.6,0.7-3.1,2.3-4.4s3.6-1.9,6.1-1.9c2.4,0,4.4,0.6,5.9,1.9c1.5,1.2,2.2,3,2.2,5.3v10.9c0,0.8,0,1.5,0.1,2.3
		c0.1,0.7,0.2,1.5,0.4,2.2H344.3z M336.3,204.3c1.8,0,3.3-0.4,4.7-1.2s2.3-1.9,2.9-3.2v-4.6h-4.9c-2.2,0-4,0.5-5.3,1.4
		c-1.3,0.9-2,2.1-2,3.5c0,1.2,0.4,2.2,1.2,2.9S334.8,204.3,336.3,204.3z"/>
</g>
<g>
	<path class="st0" d="M12.9,131.1l0.3,3.7c0.9-1.3,2-2.4,3.4-3.1c1.3-0.7,2.9-1.1,4.7-1.1c1.8,0,3.3,0.4,4.6,1.2
		c1.3,0.8,2.2,2,2.9,3.6c0.9-1.5,2-2.7,3.4-3.5c1.4-0.8,3-1.3,4.9-1.3c2.8,0,4.9,1,6.5,2.9c1.6,2,2.4,4.9,2.4,8.9V159h-7.5v-16.6
		c0-2.2-0.3-3.8-1-4.7c-0.7-0.9-1.7-1.3-3.1-1.3c-1.1,0-2,0.2-2.8,0.7s-1.4,1.1-1.9,2c0,0.3,0,0.6,0,0.8c0,0.2,0,0.5,0,0.7V159h-7.5
		v-16.6c0-2.2-0.3-3.7-1-4.6c-0.7-0.9-1.7-1.4-3.1-1.4c-1,0-1.9,0.2-2.7,0.6c-0.8,0.4-1.4,0.9-1.9,1.6V159H5.9v-27.9H12.9z"/>
	<path class="st0" d="M59.5,124.4H52v-5.7h7.5V124.4z M59.5,159H52v-27.9h7.5V159z"/>
	<path class="st0" d="M73.6,159h-7.5v-40.2h7.5V159z"/>
	<path class="st0" d="M87.8,159h-7.5v-40.2h7.5V159z"/>
	<path class="st0" d="M92.8,144.8c0-4.2,1.2-7.6,3.5-10.2c2.3-2.7,5.5-4,9.6-4c4.1,0,7.4,1.3,9.7,4c2.3,2.6,3.5,6.1,3.5,10.2v0.5
		c0,4.2-1.2,7.6-3.5,10.3c-2.3,2.6-5.6,4-9.7,4c-4.1,0-7.4-1.3-9.7-4c-2.3-2.6-3.5-6.1-3.5-10.3V144.8z M100.3,145.3
		c0,2.5,0.4,4.6,1.3,6.1c0.9,1.5,2.3,2.3,4.3,2.3c1.9,0,3.4-0.8,4.3-2.3c0.9-1.5,1.4-3.6,1.4-6.1v-0.5c0-2.5-0.5-4.5-1.4-6.1
		c-0.9-1.6-2.3-2.3-4.3-2.3c-1.9,0-3.4,0.8-4.3,2.4c-0.9,1.6-1.4,3.6-1.4,6V145.3z"/>
	<path class="st0" d="M130.7,131.1l0.3,4c0.9-1.4,2.1-2.5,3.4-3.3c1.4-0.8,2.9-1.2,4.6-1.2c2.8,0,5,0.9,6.6,2.7
		c1.6,1.8,2.4,4.7,2.4,8.6V159h-7.6v-17.1c0-2-0.3-3.4-1-4.2c-0.7-0.8-1.7-1.3-3.1-1.3c-1.1,0-2.1,0.2-3,0.6c-0.9,0.4-1.6,1-2.1,1.7
		V159h-7.5v-27.9H130.7z"/>
	<path class="st0" d="M165.7,159.5c-4.2,0-7.4-1.3-9.8-3.8c-2.3-2.6-3.5-5.8-3.5-9.9v-1c0-4.2,1.1-7.6,3.4-10.3s5.4-4,9.4-4
		c3.7,0,6.6,1.1,8.6,3.4c2,2.3,3,5.4,3,9.3v3.9h-16.6l-0.1,0.2c0.1,1.9,0.7,3.5,1.7,4.6c1,1.2,2.6,1.8,4.6,1.8
		c1.7,0,3.1-0.2,4.3-0.5c1.2-0.3,2.4-0.9,3.7-1.6l2,4.6c-1.1,0.9-2.6,1.7-4.5,2.3S168,159.5,165.7,159.5z M165.2,136.4
		c-1.5,0-2.7,0.5-3.5,1.6c-0.8,1-1.3,2.4-1.5,4.1l0.1,0.1h9.2v-0.6c0-1.6-0.3-2.9-1-3.9S166.7,136.4,165.2,136.4z"/>
	<path class="st0" d="M196.3,151.3c0-0.8-0.4-1.5-1.2-2.1c-0.8-0.6-2.3-1.1-4.5-1.6c-3.3-0.7-5.7-1.6-7.4-3
		c-1.7-1.3-2.5-3.1-2.5-5.4c0-2.4,1-4.4,3-6.1c2-1.7,4.7-2.5,8.1-2.5c3.5,0,6.4,0.8,8.5,2.5c2.1,1.7,3.1,3.8,3.1,6.3l-0.1,0.2H196
		c0-1.1-0.4-2-1.1-2.7c-0.7-0.7-1.8-1.1-3.1-1.1c-1.2,0-2.2,0.3-2.9,0.9c-0.7,0.6-1.1,1.3-1.1,2.2c0,0.9,0.4,1.6,1.1,2.1
		c0.7,0.5,2.2,1,4.5,1.5c3.4,0.7,6,1.7,7.6,3c1.7,1.3,2.5,3.2,2.5,5.5c0,2.5-1.1,4.6-3.2,6.2c-2.2,1.6-5,2.4-8.5,2.4
		c-3.7,0-6.7-0.9-8.8-2.8c-2.2-1.9-3.2-4-3.1-6.4l0.1-0.2h6.9c0.1,1.5,0.5,2.6,1.5,3.3s2.1,1,3.6,1c1.4,0,2.5-0.3,3.2-0.8
		C196,153,196.3,152.2,196.3,151.3z"/>
</g>
</svg>
