<?xml version="1.0" encoding="utf-8"?>
<!-- Generator: Adobe Illustrator 22.1.0, SVG Export Plug-In . SVG Version: 6.00 Build 0)  -->
<svg version="1.1"
	 id="svg4318" mapsvg:geoViewBox="-109.449403 -17.500036 -66.416233 -55.907355" xmlns:cc="http://creativecommons.org/ns#" xmlns:dc="http://purl.org/dc/elements/1.1/" xmlns:mapsvg="http://mapsvg.com" xmlns:rdf="http://www.w3.org/1999/02/22-rdf-syntax-ns#" xmlns:svg="http://www.w3.org/2000/svg"
	 xmlns="http://www.w3.org/2000/svg" xmlns:xlink="http://www.w3.org/1999/xlink" x="0px" y="0px" viewBox="0 0 138.6 587.2"
	 style="enable-background:new 0 0 138.6 587.2;" xml:space="preserve">
<style type="text/css">
	.st0{fill:#54515C;}
</style>
<g>
	<polygon class="st0" points="42.4,377.5 41.2,377.9 41.1,378.1 41.2,378.7 41.4,378.9 41.8,379.2 41.8,379.2 41.9,379.2 
		42.2,379.3 42.4,379.2 42.6,379 42.8,377.8 42.8,377.7 42.6,377.5 	"/>
	<polygon class="st0" points="40.1,381.1 40.1,381.2 40.3,381.2 40.4,381.3 40.6,381.2 40.8,381.1 40.9,380.9 40.9,380.7 
		40.9,380.2 40.2,378.4 40.1,378.2 39.8,378.1 39.6,378.1 39.4,378.2 39.2,378.3 39.1,378.5 39,378.7 39.1,379.9 39.1,380 
		39.3,380.2 39.6,380.7 	"/>
	<polygon class="st0" points="39.9,371.2 40,371.2 40.3,371.2 40.5,371.1 40.6,371 40.6,370.8 40.5,370.2 40.4,370.1 38.6,370.3 
		38.7,370.8 38.8,371 39.9,371.2 	"/>
	<polygon class="st0" points="38.9,374.5 38.9,374.3 38.9,374 38.8,373.7 38.8,373.5 38.6,373.4 38.5,373.3 38.3,373.2 38,373.1 
		36.8,373 36.7,374.1 36.8,374.3 36.9,374.4 37.1,374.5 37.5,374.6 37.8,374.7 37.8,374.7 38.7,374.6 	"/>
	<polygon class="st0" points="35.9,381.8 36.1,381.7 36.7,381.7 37.6,381.7 37.8,381.7 38.5,381.5 38.8,381.4 39.2,381.2 
		39.3,381.1 39.2,380.9 38.8,380.3 38.7,380.2 36.6,379.6 36.4,379.6 36.2,379.7 36,379.8 34.3,381.5 34.1,381.9 34.2,382 35,382.3 
		35.1,382.3 35.8,381.8 	"/>
	<polygon class="st0" points="34.1,384.2 33.8,384.3 33.7,384.5 33.5,385.4 33.5,385.6 33.6,385.8 33.7,385.9 33.9,386.1 
		34.5,386.6 34.6,386.7 34.7,386.7 34.8,386.6 35.2,385.2 34.3,384.3 	"/>
	<polygon class="st0" points="39.1,372.8 39.1,371.5 37.3,371 37.1,371 37.3,371.9 37.5,372.1 38.7,372.7 38.8,372.9 39.1,373 	"/>
	<polygon class="st0" points="37.6,368.3 36.9,369 37.2,370.4 37.4,370.7 37.9,371 38,371.1 38.2,371.1 38.2,371.1 38.2,370.4 
		38.1,370.2 38.2,369.9 38.8,369.7 38.4,369.2 37.7,368.3 	"/>
	<polygon class="st0" points="40.1,368.9 40.2,368.8 40.2,368.5 39.7,367.8 39.2,367.5 39.1,367.4 38.9,367.5 38.6,367.7 
		38.2,368.2 38.2,368.4 38.3,368.5 38.4,368.6 38.5,368.7 38.9,368.8 39.8,369 40,369 	"/>
	<polygon class="st0" points="39.8,369 39.8,369 39.8,369 	"/>
	<polygon class="st0" points="38,379.4 38.4,379.3 38.6,379.2 38.7,379 38.8,378.4 38.7,378.2 38.2,378.1 38,378.2 37.8,378.3 
		37.5,378.4 37.4,378.5 37,378.6 36.4,378.7 36.2,378.8 36.3,379 37.5,379.5 37.8,379.5 37.8,379.5 	"/>
	<polygon class="st0" points="25.3,379.4 25.7,380.5 25.8,380.6 25.9,380.6 26.1,380.6 26.7,380.1 26.7,379.3 26,378.3 25.9,378.2 
		25.6,378.3 25.4,378.6 25.2,378.8 25.2,379 25.2,379.2 	"/>
	<polygon class="st0" points="39.4,392.5 39.5,392 39.5,391.7 39.2,391.2 38.7,390.7 38.1,390.4 38,390.4 37.6,390.7 37,391.4 
		37,391.7 37.2,392.3 37.6,393.2 37.7,393.4 38.3,393.5 38.4,393.5 39.1,393.1 	"/>
	<polygon class="st0" points="37.7,393.7 37.3,394.1 37.2,394.2 37.1,394.5 37.2,394.9 37.5,395.4 38,396.6 38,396.6 38.1,396.6 
		38.4,396.4 38.6,395.9 38.7,395.7 38.7,394.5 38.7,394 37.9,393.7 	"/>
	<polygon class="st0" points="46.5,375.1 45.4,375.3 45.3,375.3 44.9,375.3 44.8,375.4 44.4,376.1 44.6,377.1 44.8,377.5 
		45.1,378.3 45.2,378.4 45.4,378.5 45.6,378.5 45.7,378.4 45.8,378.3 46.3,378 47,378.3 47.3,378.6 47.2,378.7 46.7,378.8 
		46.6,378.6 46.4,378.5 46.2,378.4 45.1,378.8 45,379 45.1,379.1 45.1,379.3 46.4,380.7 46.5,380.8 46.7,380.9 47.1,380.8 
		47.4,380.7 48.1,380.4 48.9,379.7 49,379.6 49.1,379.4 49.2,379.2 50,378.4 50.5,378.1 51.1,377.6 51.1,377.6 51.1,377.6 
		51.3,377.5 51.4,377.2 51.6,376.8 51.5,376.6 51.1,376.5 50.7,376.4 50,375.9 49.9,375.8 49.9,375.5 50.5,375.8 50.7,375.9 
		50.8,376 51.5,376.1 51.7,376.1 51.8,376 52,375.9 52.8,374.6 52.9,374.4 52.8,374.2 52.3,373.4 52.1,373.2 51.2,372.9 49.8,371.8 
		49.7,371.7 48.7,372 47.2,372.4 47.1,372.5 47,372.7 46.7,373.3 46.7,373.5 46.7,373.7 46.7,374.3 	"/>
	<polygon class="st0" points="36.8,391.1 36.9,390.9 37,390.6 37.2,390.4 37.5,390.3 37.7,390.2 37.8,390.1 38.2,390.2 38.5,390.4 
		38.7,390.4 39,390.4 39.2,390.7 39.4,390.8 39.5,390.8 39.7,391 39.9,390.9 39.9,390.6 40.1,390.3 40.2,390 40.3,389.8 40.4,389.4 
		40.3,389.2 40.2,389.1 40,389.1 39.7,389.4 39.5,389.4 39.4,389.3 39.2,389.2 38.9,389 38.8,388.9 38.7,388.8 38.6,388.8 
		38.3,388.8 38.1,388.8 37.9,388.7 37.8,388.6 37.6,388.6 37.5,388.7 37.4,388.9 37.3,389.1 37.1,389.3 37.1,389.5 37,389.9 
		36.9,390 36.8,390.1 36.7,390.4 36.7,390.8 36.6,391 36.7,391.1 36.7,391.1 	"/>
	<polygon class="st0" points="33.1,394.4 33.1,394.4 33.1,394.4 	"/>
	<polygon class="st0" points="42.3,368 42.6,367.6 42.7,367.1 42.4,366 41.6,364.9 41.4,364.9 41.3,365 41.1,365.3 41.1,365.6 
		41.1,365.8 41.4,366.6 42.2,368 42.2,368 	"/>
	<polygon class="st0" points="33.8,394.2 35.6,392.8 35.7,392.6 35.9,392 35.8,391.4 35.5,390.5 35.4,390.2 35.2,389.7 35,389.6 
		34.9,389.4 33.8,388.9 33.5,389 33.4,389.3 33.2,389.6 33.1,390 33,390.2 33,390.5 33,390.7 33,390.9 33.1,391.5 33.2,392.1 
		33.2,392.8 33,393.1 32.7,393.4 32.6,393.6 32.6,393.8 32.8,394.1 32.9,394.3 33.1,394.4 33.7,394.2 	"/>
	<polygon class="st0" points="40.3,374.9 40.3,375.1 40.3,376.6 41,377.7 41.2,377.7 41.2,377.7 41.6,377.6 42.8,377.2 42.9,377.2 
		43,377 42.5,375.7 42.2,374.7 42,374.6 41.8,374.5 41.6,374.5 40.5,374.7 	"/>
	<polygon class="st0" points="42.2,394.1 42.3,394 42.4,393.9 42.7,393 43.1,389.9 43,389.4 42.9,389.2 42.1,388.9 41.9,388.9 
		41.7,388.9 41.5,389 40.9,389.9 40.8,390.2 40.7,390.3 40.7,390.6 40.7,390.9 40.8,392.6 41.9,393.9 42.1,394 	"/>
	<polygon class="st0" points="32.3,374.1 32.5,374.3 33.7,374.6 33.7,374.6 33.6,374 33.7,373.9 34.5,373.7 35.5,373.5 35.8,373.4 
		35.8,373.2 35.7,373 35.3,372.3 34.7,372.1 32.5,372.8 32.4,372.9 32.1,373.2 32,373.4 32.2,374 	"/>
	<polygon class="st0" points="30.6,376.5 30.6,376.7 31.1,376.9 32.5,376.9 33,377 33.1,376.8 33,376 32.8,375.9 32,375.8 
		31.7,375.7 31.5,375.7 31.3,375.7 31.1,375.8 30.7,376.3 	"/>
	<polygon class="st0" points="41,396.3 40.8,396.4 40.3,397.5 40.2,397.7 40.3,397.9 40.6,398.1 41.7,398.4 41.8,398.4 41.9,398.3 
		41.6,396.7 41.1,396.2 	"/>
	<polygon class="st0" points="40.5,401.1 40.9,401.4 40.9,401.4 41,401.4 41.1,401.3 41.3,401 41.9,399.8 42,399.5 41.9,399.2 
		41.7,399 41.2,398.6 40.2,398.2 40,398.2 39.5,398.2 39.3,398.3 39.2,398.4 39,398.8 39,399.1 40.4,401 	"/>
	<polygon class="st0" points="30.3,393.7 30.4,393.8 31,394 31.2,394 31.4,394 31.5,393.9 31.7,393.7 32,392.9 32.2,391.3 
		32.1,391.2 32,391.1 31.7,391.1 31.1,391.4 30.9,391.4 30.8,391.5 30.7,391.7 30.6,391.9 30.5,392 30.3,392.9 30.3,393.1 
		30.3,393.4 30.3,393.6 30.3,393.6 	"/>
	<polygon class="st0" points="29.6,376.7 29.8,376.5 30,375.6 30,375.3 30,375.1 29.9,374.9 29.3,374.6 29.1,374.6 29,374.7 
		28.9,374.9 28.9,375.5 28.9,375.8 28.9,376.2 29,376.3 29.2,376.7 29.3,376.8 29.4,376.8 	"/>
	<polygon class="st0" points="29.3,376.8 29.3,376.8 29.3,376.8 	"/>
	<polygon class="st0" points="36.8,387 38.1,387.5 38.3,387.5 38.3,387.5 38.7,387.4 39.7,387.4 40.5,387.4 40.6,387.3 40.8,387.1 
		40.7,386.8 40.6,386.4 40.5,386.2 40.4,386.1 40.2,386 39.9,385.9 39.6,386 39.2,386.1 39,386.1 38.5,386.1 38.3,386 38.2,386 
		38,385.9 37.9,385.8 37.8,385.3 37.7,385.2 37.5,385.1 37.3,385.2 36.6,385.5 36.4,385.8 36.6,386.8 	"/>
	<polygon class="st0" points="33.6,376 33.6,376.6 33.6,376.8 34,377.8 34.3,378.2 34.4,378.3 34.6,378.4 34.8,378.5 35.1,378.7 
		35.3,378.7 35.3,378.7 35.9,378.3 36.2,378.2 38.1,377.3 39.7,376.9 39.7,376.6 39.4,376.2 39.2,376 39.1,375.9 38.8,375.7 
		38.7,375.6 38.3,375.5 36.5,375.4 35.5,375.4 35.3,375.4 33.7,375.8 	"/>
	<polygon class="st0" points="33.2,377.2 32.5,377.4 32.4,377.5 32.3,377.7 32.3,377.9 33,379 33.7,379.5 33.9,379.5 34,379.5 
		34.7,379.3 34.7,379.2 33.4,377.3 	"/>
	<polygon class="st0" points="35,373.8 34.2,374.2 34.1,374.4 34.1,374.6 34.2,374.7 34.4,374.9 34.5,375.1 34.6,375.1 34.6,375.1 
		36.1,374.8 36.7,374.6 36.1,373.7 	"/>
	<polygon class="st0" points="32.3,387 32.5,387.3 32.7,387.4 32.8,387.5 33.9,388.2 33.9,388.2 33.9,388.3 34.2,388.4 34.4,388.3 
		34.6,388.2 34.7,388.1 34.3,387 34.2,386.8 34,386.5 33.8,386.4 33.6,386.3 33.1,386.3 32.9,386.3 32.7,386.3 32.5,386.4 
		32.3,386.6 32.3,386.8 	"/>
	<polygon class="st0" points="36.7,384.4 37,384.2 38.1,385.4 38.2,385.6 38.3,385.7 38.5,385.7 38.9,385.8 39.1,385.8 39.7,385.6 
		40.2,385.6 40.6,386.1 41.3,386.3 41.3,386.3 41.7,384.8 41.7,384.3 41.7,384.1 41.7,383.9 41.5,383.5 41.1,382.7 41,382.6 
		40.9,382.5 40.7,382.4 40.1,381.8 39.9,381.8 39.7,381.7 39.5,381.7 39.3,381.7 39.2,381.8 38.7,382.1 38.5,382.1 37.6,382.3 
		37.1,382.4 36.9,382.3 36.8,382.2 36.5,382.2 36.3,382.2 36.1,382.4 35.7,382.8 35.6,383 35.5,383.3 35.5,383.5 35.5,384 
		35.6,384.4 35.7,384.5 35.9,384.5 	"/>
	<polygon class="st0" points="39.1,397.6 39.2,397.7 39.3,397.8 39.3,397.8 39.9,397.6 40.3,396.8 40.5,396.1 40.7,396 41.2,395.9 
		41.4,396 41.5,396.1 41.7,396.2 41.6,395.4 41.6,395.1 41.5,395 41.4,394.7 41.2,394.7 39.6,395.7 39.4,395.9 39.1,396.4 39,396.5 
		38.9,396.8 38.9,397 	"/>
	<polygon class="st0" points="39,387.7 38.7,387.7 38.2,387.9 38.1,388 38,388.3 38.1,388.4 38.4,388.5 39.2,388.8 39.4,388.8 
		39.5,388.7 40.3,388.3 40.3,388 40.3,387.8 40.1,387.7 	"/>
	<polygon class="st0" points="40.7,363 39.9,362.1 39.2,362.7 37.7,362.9 37.6,362.9 36.9,362.8 36.7,362.9 36.5,363 36.3,363.9 
		36.4,364 36.9,364.2 38.1,364.6 38.4,364.9 38.4,364.9 38.5,364.9 38.7,364.8 39.1,364.4 38.8,364.2 38.8,364 38.6,363.9 
		38.7,363.5 39.4,363.4 39.7,363.4 39.8,363.5 39.7,363.7 39.5,363.8 39.6,364 39.8,364.1 39.9,364.2 41,364.1 40.9,363.8 	"/>
	<polygon class="st0" points="25.9,395.8 25.7,395.9 25.6,396.1 26.1,397.6 26.2,397.8 26.3,397.8 26.8,397.8 27.1,397.7 
		27.4,397.8 27.4,398.1 27.3,398 25.9,398.4 25.8,398.5 25.7,398.7 25.9,399.2 26,399.4 26.1,399.5 26.1,399.5 26.2,399.7 
		26.6,399.8 26.9,399.8 27.7,399.8 27.9,399.7 29.1,398.5 29.4,398.1 29.5,398 29.6,397.8 30.1,395.5 30.2,395.3 30.2,395 30,394.8 
		29.8,394.8 29.2,395.1 28.2,396 27.5,396.4 27.3,396.2 27.2,396.1 26.1,395.7 	"/>
	<polygon class="st0" points="35.2,439.2 35.2,439.2 35.2,439.2 	"/>
	<polygon class="st0" points="30.3,433.9 30.2,433.7 30,433.4 29.9,433.3 29.7,433.5 29.7,433.6 29.5,433.9 29.1,436.4 29,436.7 
		29,436.9 29.2,437.5 29.3,437.7 29.7,438.5 30,438.5 30.1,438.6 30.2,438.8 30.2,439 29.7,439.7 29.2,439.3 29.1,439.1 29,438.8 
		28.8,438.4 28.7,438.2 28.5,438.2 27.8,438.3 27.6,438.4 26.8,439.3 26.7,439.4 26.6,439.6 26.5,439.9 26.7,441.2 26.8,441.4 
		27,441.5 27.7,441.9 29,442.2 29.2,442.2 29.4,442.1 29.6,442 29.8,442 31.2,443 31.2,443 31.4,443.2 31.6,443.1 31.8,443.1 
		32.4,442.7 32.5,442.6 32.6,442.4 32.7,442.1 32.8,441.7 32.8,441.4 32.7,441.3 32.5,441.2 32.4,441.1 32.3,441.2 32.3,441.4 
		32.3,441.6 32.3,441.7 32.2,441.9 32.1,441.8 31.5,441.1 31.4,440.8 31.4,440 31.4,439 31.6,438.2 30.6,436.3 30.4,435.1 
		30.4,434.5 30.4,434.2 	"/>
	<polygon class="st0" points="23.3,439.7 23.5,441.3 23.7,442.1 24.2,443.3 24.5,443.3 24.6,443.2 24.6,443.2 25.9,441.8 26,441.7 
		26.1,441.4 26,439.9 25.4,438.2 25,437.5 24.6,437.1 24.4,436.3 23.9,435 23.9,434 23.8,433.7 23.1,431.5 23,431.4 22.8,431.3 
		21.1,431.8 20.8,432.1 20.3,432.7 20.2,432.8 20.6,436.5 20.8,436.7 22.3,436.6 22.8,436.2 23,436.3 22.8,436.6 22.6,436.9 
		22.4,437 22.2,437.1 22,437.2 21.8,437.2 21.3,437.3 21,437.4 20.8,437.5 20.6,437.7 20.5,437.9 20.6,438.1 20.6,438.3 20.9,438.4 
		21,438.5 21.2,438.5 21.5,438.4 21.7,438.4 22.4,438 23.6,438.7 23.3,439.4 	"/>
	<polygon class="st0" points="29.1,428.7 29,428.1 28.8,428 28.2,428.3 27.4,429.4 26.4,430.1 26.1,430.1 25.8,430.2 25,430.4 
		24.9,430.5 24.5,430.8 23.9,431.7 24.1,431.9 24.3,431.9 24.7,431.9 25,431.8 25.1,431.8 25.3,431.5 25.6,431.2 25.8,431 26.1,431 
		26.4,431.1 26.6,431.3 26.5,431.6 26.6,431.8 26.7,431.9 27.4,432.2 28,432.4 28.2,432.4 28.4,432.4 28.5,432.3 29.1,431.9 
		29.1,429.5 29.1,428.9 	"/>
	<path class="st0" d="M20.4,413.5l0.7,0.2l0.1,0l0.1,0l0.2-0.1l0.6-0.3l0.7-0.5l0.1-0.4l-0.9-2.7l-0.3-0.2l-0.3,0l-1.2,0.9l-0.6,0.5
		l-0.2-0.3l0.6-1.1l0.3-0.3l0.7-0.4l0.8-0.3l0.5,0l0.5,0.1l1.8-0.5l0.8-0.5l0.4-0.4l1.1-1.2l0.2-0.5l0.3-0.4l0.1,1.1l-0.8,0.8
		l-0.6,0.8l-0.2,0.4l0,0.5l0.8,1.6l1.4,0.7l2.7,1.3l0.9,0.4l0.7,0.1l0.3,0l0.3-0.3l0.1-0.4l-1.3-0.4l-0.5,0l-0.4,0.1l0-0.9l3.2-0.3
		l0.8,0.4l0,0.4l0.2,1l1.2,1.9l0.3,0.1l0.3-0.2l0.2-0.1l0.3,0l0.3,0.1l0.9,0.9l-1.2,1.9l-0.8,0.8l-0.1,0.3l-0.1,0.6v0.4l0.3,1
		l0.1,0.2l-0.1-0.1l-0.5-1.1l0-0.6l-0.1-0.5l-0.2-0.1l-1.4,0.2l-0.2,0.4l-0.2,0.4l-0.3,0.5l-1.2,1.2l-0.6,1.1l0.1,0.3l2.4,2.5
		l0.2,0.1l1.3-0.3l0.4-0.4l0.8-0.4l0.2,1.4l-0.5,0.2h-0.3l-0.6-0.3l-1,0.3l-0.5,0.8l0.2,0.6l0.3,0.3l0.6,0.2l0.3,0l-0.3,0.1
		l-0.4-0.1l-0.4-0.2l-0.5-0.6l-0.4-1.1l-0.3-0.9l-0.6-0.5l-0.3-0.1l-1-0.1l-0.2,0l-0.5,0.3l-1.6,2.4l0.3,0.5l0.8,0.4l0.3,0.1
		l0.8,0.1l0.6-0.1l0.3-0.2l1-0.3l0.9,0.2l1.9,0.4l0.6,0l0.4,0.1l0.3,0.7l0.2,0.1l0.9,0.2l1.4-0.6l0.3-0.2l0.2-0.2l0.5-2.5l-0.1-0.4
		l-0.4-0.3l0.5-1.1l0.6,0.6l0.2,1.1l-0.3,0.5l-0.4,0.4l-0.2,0.3l-0.1,0.4l0.3,0.8l2.2,2.8l0.5,0.4l0.4,0.1l0.4-0.1l0.3,0l0.4,0
		l0.8,0.2l0.5,0.4l-2.4-0.1l-0.6-0.2l-0.2-0.1l-0.2-0.1l-0.4-0.5l-0.1-0.5h-1l0.1,1.3l0.8,1.1l1.1,1.2l1,0.6l0.3,0.1l0.2,0l0.5-0.4
		l0.2-0.3l0.1-0.9l0.2,0.4l0,0.6l-0.1,0.5l-0.2,0.2l-0.6,0.5l-0.5,0l-0.3-0.2l-0.3-0.1l-0.6,0l-0.5,0.6l-0.2,0.6l-0.4-1l0-0.8
		l-2-1.8l-1,0.3l-1.2,0l-0.6-0.2l-0.4-0.4l-0.3-0.2l-1.4-0.1l-1.2,0l-0.3,0.2l0.1,0.3l0.7,1.3l0.9,2.2l-0.3,0.1l-0.7-0.7l-0.2-1.4
		l-0.2-0.6l-0.2-0.4l-0.2-0.4l-0.7-0.6l-1.3-0.5l-1.2,0.7l-0.3,0.5l0.1,0.8l0.3,0.1l0.4,0l1.1,0.8l1,1.2l1.5,1.4l1.7,0.6l-1,0.2
		l-0.3,0.3l0.6,0.1l0.3,0l0.2,0.2l0.3,0.4l1,0.3l-0.1,2.1l-0.2,0.2l-1.2-0.9l-0.6-0.4l-0.6,0.4l-1.1,1.2l-0.5,0.7l0.3,1.1l0.7,0.9
		l0.4,0l0.2-0.1l0.2-0.1l0.4-0.2l0.3,0l0.6,0.1l0.6,0.4l0,0.2l3.9,3.4l2.7,2.3l3.4,2.9l0.2,0.1l-0.1-0.2l0-0.4l1.1-2.7l0.8-1.2
		l0.3-0.3l0.4-0.2l0.4-0.2l0.2-0.1l0.4,0l0.5-0.1l0.3-0.1l0.3-0.2l0.2-0.1l0.3-0.3l1.4-1.4l0.3-0.4l0.1-0.4v-0.8l-0.1-1.4l-0.1-1.1
		l-0.1-0.4l-0.3-1.2l0.1-0.4l0.2-0.3l0.2-0.2l0.8-0.4l0.7-0.3l1.5-1l-0.1-2.7l-0.2-1.9l-1-1.2l-0.5-0.1l-0.3-0.2l-0.4-0.5l-0.2-0.3
		l0-0.4l0.9-2.6l0.3-0.7l0.3-0.5l0.6-0.9l0.2-0.3l0.1-0.4l0.2-1.5l-0.4-0.3l-0.2-0.2l0.1-0.5l0.2-0.2l0.2-0.2l0.2-0.1l0.4-0.2l0.3,0
		l0.4,0.1l0.4-0.1l0.9-1l0.7-1.3l1.5-0.7l0.2-0.2l0.2-0.8l-0.1-0.6l-0.3-0.4l-1-1.4l0.4-3.6l0.2-0.3l0.8-0.1l0.4-0.2l1.4-1.4
		l0.2-0.3l0.1-0.5l0-1.9l-0.2-0.8l-0.4-1l-0.2-2.6l-0.1-0.4l-0.2-0.4l-0.4-0.2l-0.4-0.1l-0.8-0.8l0.6-0.3l0.3,0l0.4-0.1l0.3-0.1
		l0.3-0.3l0.2-0.5l0.2-0.4l0.4-0.5l0.2-0.2l0.1,0l0.4-0.3l-0.3-1.2L65,396l-0.5-0.2l-0.3-0.1l-0.3-0.2l-0.4-2l0.1-1.2l0.4-1.6
		l0.4-0.3l0.5-0.2l0.3-0.1l0.2,0l0.3,0l1.6-0.7l1.9-2.8l-0.4-1.2l-1.9-2.5l-0.6-1.2l-0.4-0.4l-1.8-0.6l-0.8-0.1l-1.5-0.1l-1.5-0.3
		l-0.2-1.8l0.1-0.3l0.3-0.2l0.3,0.1l0.3,0.2l0.2,0.1l0.3,0.1l1.3,0.2l0.3-0.1l0.2-0.4l0.3-0.1l0.6,0.1l0.2,0.1l0.2,0.1l0.2,0.1
		l0.3,0l0.2-0.1l0.6-0.3l0.4-0.2h0.3l0.2,0.1l0.3,0.2l0.5,0.4l0.3,0.2l0.3,0.1h0.4l0.3-0.1l0.6-0.8l0.1-0.5l-0.1-0.5l0-0.4l0.5-1.1
		l0.5-0.1l0.3-0.3l0.1-0.5l-0.6-1.3l-0.4-0.3l-2.3-0.5l-0.9,0l-0.7,0.1h-0.9l-1.7,0l-0.6-0.1l-0.3-0.4l0.1-0.3l0.5-0.4l0-1.8
		l-0.1-0.4l-0.2-0.4l0.4-1.2l0.4-0.4l1-1.6l0.1-0.3l0-0.3l-0.6-0.8l-0.1,0l-0.6-0.7l-0.6-0.9v-0.5l0.2-0.1l0.2-0.1l0.7-0.5l0.1-0.4
		l-0.1-1l-1.7-1.6l-1-0.7l0.1-1l0.4-1l1.1-0.4l0.4,0.1l0.2-0.2l0.1-0.3l-0.1-1.6l-1.1-0.7l-0.4-0.1l-0.7-0.1l-0.3,0l-0.5,0l-0.6-0.3
		l-0.3-0.2l-0.5-0.8l-0.2-0.5l0-0.8l0.1-0.3l0.1-0.3l0.1-0.5l0-0.4l-0.1-1.5l0-0.6l-0.2-0.8l-0.1-1.2l0-0.3l0.1-0.3l0.2-0.3l0.8-2.4
		l-0.1-0.3l-0.6-0.5l-0.2-0.5l1-2.1l0.2-0.2l0.3-0.1l0.4,0.1l0.2,0.3l0.1,0.4l0.4,0.1l1.5-0.7l0.6-0.5l-0.1-1l-0.3-0.5l0-0.8
		l-0.2-0.9l-0.1-0.4l-0.7-1.4l-0.7-1.7v-0.4l0.3-0.3l0.5-0.8l-0.2-1.8l-0.3-0.7l-0.1-0.5l0.2-0.9l0.2-0.4l0-0.4l0.2-2.8l-0.2-0.7
		l0.2-0.8l-0.1-0.6l-0.7-1.6l-0.4-1.2l0.2-0.4l0.3-0.3l0.2-0.2l0.2-0.3l0.2-0.6l0-0.4l0-0.6l0,0l0.7-1.8l0.2,0l0.3,0.3l0.2-0.1
		l0.2-0.3l0.4-1l-0.1-0.6l-0.4-0.3l-0.2,0.3l-0.8-0.8l-0.3-0.6l0.3-1.3l0.5-0.4l1-0.6l0.4-1.4l-0.4-1.4l-0.4-1.9l0-1.5l0.2-0.8
		l0.1-0.1l0-0.3l-0.1-0.4l-0.1-0.4l-0.2,0l0.2,0l0.1,0.4l0.1,0.4l0,0.3l0.2,0l0.5,0.7l0.3,0.1l1-0.1l0.2-0.3l0.1-0.6l0.4-1.8
		l0.5-1.5l0.2-1.3l-0.2-1.6l-0.1-0.9l-0.1-0.4l0-0.4l0-0.8l0.1-0.4l0.2-0.3l0.4-0.4l0.3-0.2l1.1-0.6l1.6-0.9l0.5-0.3l0.3,0l0.4,0
		l0.6,0l0.3-0.1l0.7-0.7l0.4-1.5l0-0.5l-0.2-0.5l-0.4-0.3l-0.3-0.2l-0.5-0.5l-0.2-0.5l-0.4-1.9l-0.1-0.8l0.1-1.1l0-0.6l0,0l0-0.6
		l-1.1-2.7l-0.3-0.6l-0.2-0.7l-0.3-0.6l-0.2-0.7l0-0.5l0.1-0.5l0.2-0.2l0.4-0.3l0.2-1.8l-0.1-0.3l-0.3-0.4l-0.2-0.4l-0.3-1.1
		l0.2-0.5l0.4-0.5l0.2-0.6l0.2-1l0,0h0l0-0.1l-0.4-2l-0.4-1.8l0.6-1.5l0.9-2.8l0.2-0.9l0.2-0.1l-0.1,0l-0.3-0.4l0,0l0.3,0.4l0.1,0
		l0.4,0.1l0.3,0l2.8-1l0.1-0.3l-0.2-0.7l0.2-1l1.3-1.5l1,0l0.4,0l0.3-0.2l0.2-0.2l0.3-0.8l-0.1-1.5l0-1.1l0.1-0.3l0.3-0.5l0.4-0.3
		l-0.4-1.1l-0.4-0.9l-0.1-0.5l0.2-0.3l0.1-1.4l-0.3-2.1l-1.3-0.8l-0.2-0.2l-0.2-0.4l0-0.4l0.3-0.4l0.3-0.1l0.4,0l0.4-0.1l0.8-0.4
		l0.2-0.3l0.1-0.6l0-0.3l0-0.5l0-0.5l0-0.1l-0.1,0l-0.7,0l-2.1-0.2l0,0l2.1,0.2l0.7,0l0.1,0l0.7-2l0.7-2.6l0.9-1.8l1.2-1.8l-0.1-0.6
		v-0.8l0.1-0.1l0-0.3l-0.1-0.3l0,0l0.1,0.3l0,0.3l0.2-0.1l0.5-0.1l0.3,0l0.3,0.1l0.5,0l0.8-0.6l-0.4-1.9l-0.4-2.8l-0.2-0.9l0-0.7
		l0.4-3l0.7-1.6l0.3-0.3l0.1-0.3l-0.3-1.5l-0.8-0.5l-0.3-0.1l-0.3,0l-0.3,0.3l-0.2,0.4l-0.3,0l-1.1-1.6l-0.1-0.4l0.1-0.4l0.1-0.6
		l-0.2-0.3l0,0l0.3-0.6l0.6-0.8l0.3-1l0.5-0.8l-0.1-1.1l-1-1.3l-0.7-0.7l-0.5-0.5l0.1-0.5l-0.1-0.4l-0.9-1.8l-0.2-0.4l-0.8-0.3
		l-0.1-0.3l0,0l0-0.5l-0.4-1.9l0.5-0.5l0.5-0.1l0.4-1l-0.1-0.4l-0.5-0.6l-0.2-0.1l-0.8,0l-0.4-0.1l-0.2-0.1l-0.2-0.3l-0.1-0.2
		l-1.5-3.6l0.1-0.4l0.1-0.8l0.1-2l0.3-1.9l0.1-0.3l0.8-0.9l0.2,0.3l0.8-0.3l0.8-0.8l0-0.4l-0.4-0.5l0-0.3l0-0.5l0.1-0.9l0.5-1.9
		l0.2-0.5l0.5-1l0.9-1.6l0.9-0.6l0.2,0l0.4,0l0.7-0.3l0.4-0.6l0.8-1.8l0-0.6l-0.1-0.3l-0.2-0.2l-0.7-1.4l0.1-0.3l0.1-0.7l0-1.6
		l-0.1-1l0-0.1l-0.4-0.2l-0.1-0.2l-0.1-0.3l0.1-0.4l0.1-0.4l0-0.6l0-0.1l0-0.2l-0.4-1.4l-0.3-0.6l-0.1-0.3l0.1-0.8l0.8-1.2l0.7-0.8
		l0.7-0.1l0.4-0.2l0.1-0.2l0.1-0.3l0-0.7l0.4-1.7l0.4-1.2l-0.1-0.4l-0.1-0.3l-0.1-0.3l0-0.6l0.5-1l0.4-0.2l0.1-0.4l0.1-1.8l0.6-0.4
		l0.8-0.7l1.5-1.7l0.5-0.7l0.2-0.3l0.1-0.6l0.3-0.8l0.4-0.2l0.4,0l0.3-0.1l0.2-0.2l0.2-0.3l0.1-0.3l0.4-1.6l0.1-0.5l0.5-1.3l0.3-0.4
		l1.6-3l0.4-1.1l-0.1-0.5l0.1-0.4l0.2-0.4l0.5-0.7l0.3-0.2l0.5,0l0.5,0.1l0.6,0.4l2.7-0.9l0.2-0.1l0.4-0.2l0.4-0.2l0.4-1.4l-0.1-0.3
		l-1.6-2.5l-1.2-1.4l-0.3-0.5l-0.1-0.3l-0.1-0.3l0-0.6v-0.3l0-0.7l0-0.4l0.2-0.6l0.2-0.3l0.3-0.2l0.5-0.3l0.7-0.6l0.2-0.4l-0.6-3.2
		l-0.4-2l-0.1-0.3l-0.6-1.3l-0.5-1.5l0-0.3l0-0.4l0-0.2l0.2-1l0.1-0.4l0.2-0.5l0.1-0.1h0l0.2-0.9l0.2-0.3l0.1-0.1l0.8-0.1l0.7-0.4
		l-1.6-2.8l-0.5-0.3l-0.3-0.7l0-0.4l0.3-0.7l0.4-0.7l0.5-0.8l0.8-1.3l0.3-0.2l0.5,0.1l0.5-0.6l0.3-0.6l0.7-0.3l3.3-1.5l3-1.3
		l3.5-1.6l2.1-7.8l0.1-0.4l0.5-1.4l0.5-1.4l0.5-1.5l-1.2-1.3l-0.9-1l-1.7,0.4l-2.8,0.6l-2.4-0.3l-0.9-0.6l-0.1-1.4l0.4-1.9l-0.5-1.6
		l-0.5-1.5l0.1-0.3v-0.4l-0.2-1.6l-0.3-0.5l-0.3-0.2l-1-1l0-0.6l0-0.4l0-0.5l0-0.3l-0.2-0.9l-0.2-0.6l-0.2-0.4l-0.4-0.5l-0.2-0.2
		l0-3.8L104,56l-2.2-3.6l-0.3,0l-0.3,0l-0.3,0l-0.3-0.1l-0.2-0.3l-0.1-0.1l-0.2,0l0.2,0l0,0l-0.1-0.3l0-1.7l0.4-0.6l0.2-0.2l0.4-0.3
		l0.1-0.2l-0.3-0.3l-0.6-0.4l-0.2-0.1l-0.3-0.1l-0.3-0.1L99,47.4l-0.3-0.2l-0.4-0.4l-0.2-0.2L98,46.2l0-0.6l0.2-0.3l0.4-0.2
		l-0.2-1.2l-0.5-1.2l-0.2-0.3l0.1-0.3l1.4-0.4l0.5-0.1l0.4,0l0.6-1.6l-0.5-1l-0.7-0.6L98.7,38l0-0.5l1-1.2l0.3-0.5l0.2-0.3l1.2-1.3
		l-0.5-0.8l-0.7-0.6l-0.4-0.2l-0.3-0.1l-0.4-0.2l-0.2-0.2l-0.9-1.1l-0.5-0.4l-1.3-0.9l-0.7-1.3l0.1-0.3h0l0.2-0.5l-0.2-0.4L95.2,26
		l-0.3-1l0-0.6l0-0.6l0.1-0.6l0-0.3l-0.1-0.3l-0.1-0.2l-0.2-0.3l-0.2-0.3l-0.2-2l-0.3-0.3l-0.2-0.2l-0.2-0.4l0.1-0.3l0.2-0.2
		l0.4-0.3l0.1-0.2l0-0.4l-0.7-0.1l-1.8-0.6l-0.2-0.3l-0.1-0.3l-0.1-0.4l0-0.8l-0.1-0.3l-0.3-0.6l-0.2-0.2l-1.3-1.1l-0.1-1.5
		l-2.1,1.9l-1-0.1L85.9,13l-0.2,0.3l-0.1,0.3l0,0.5l0.1,0.2l0.2,0.2l0.1,0.2l0.5,1.8L86.4,17l-0.2,0.6l-0.5,1.1L85.3,19l-1,1.1
		l-0.4,0.2l-1.6,0.6L81.8,21l-0.3,0L81,21l-0.9-0.1l-0.4,0l-0.3,0.1l-0.2,0.2l0.1,0l0.4,0.3l0.3,0.3l0.3,0.4L79.9,24l-0.1,0.7
		l0.1,2.3l0.2,0.5l0.6,3.2l0,0.5l-0.1,0.3l0,0.5l0,0.5l0.5,0.9l0.4,1.5l0.3,1.8l0.4,3.2l0.2,0.8l0,0.3l0,0.9l-0.1,0.4l-0.2,0.4
		L82,43.6l0.3,0.8l-0.1,0.3l-0.3,1.1l-0.5,4.9l0.4,0.4l0.2,0.2l0.2,0.3l0.1,0.6l-0.2,0.4l-0.2,0.7l0.2,0.5l0.3,0.6l0.6,2.4l-0.3,0.4
		l0.1,0.4l0.4,0.7l0,0l-0.4,1.3l-0.1,0.6l-0.5,0.4L82,61.3l0,0.8l0,0.4l-0.4,3.1l-0.2,0.9l-0.2,0.8L81,69.1l-0.2,1.7l-0.3,2.4
		L80.3,75l0.1,0.6l0.1,0.3l0.1,0.4l-0.2,0.7L80,77.6l-0.1,0.2l-0.2,0.2l-0.2,0.2l-0.4,0.2l-0.7,0.1l-0.2-0.3l-0.1-0.5l-0.4,0.2
		l-0.4,0.5l-0.2,2L77,82.2l-0.3,1.5l1,0.2l0.3-0.7l0.2-0.1l0.3,0.2l0.4,0.3l0.2,0.2l0.1,0.4l0.1,0.4l0,0.5l-0.1,0.3l-0.1,0.3
		L79,86.2l-0.2,0.3l-0.3,0.2l-0.3,0.5L78,88l-0.1,1.5l0,0.4l0.2,0.4l0.1,0.7L78,92.1l-0.1,0.2l-0.2,0.6l-0.2,1l0.1,0.3l-0.1,0.6
		l-0.2,2l-0.2,2l0.4,1.6l0.2,0.7l0.4,0.7l-0.1,1.7l0.5,0.7l0.3,0.7l0,0.7l-0.2,1.3l-1,1.3l-0.4,0.3l-0.7,0.9l-0.6,1.2l-0.2,0.6
		l-0.4,1.3l0.4,0.9l0.2,0.3l0.3,0.3l0.2,0.7l0,0.4l0,0.2l-0.3,0.6l0.5-0.8l0.6-0.5l0.2-0.1l0.2-0.1l0.3-0.1l0.3-0.1l0.5-0.1l1.1-0.2
		l0.8-0.1l1.4-0.9l0.3-0.2l0.4-0.3l0.2-0.1l0.4-0.2l0.2,0l-0.2,0l-0.4,0.2l-0.2,0.1l-0.4,0.3l-0.3,0.2l-1.4,0.9l-0.8,0.1l-1.1,0.2
		l-0.5,0.1l-0.3,0.1l-0.3,0.1l-0.2,0.1l-0.2,0.1l-0.6,0.5l-0.5,0.8l-0.1,1v0.4l0.3,1.3l-0.5,1.7l-0.1,1.6l-0.1,0.4l-1.4,3.4l0.1,0.3
		l0.2,0.4l0.2,0.8l-0.3,0.6l-0.6,0.8l-0.7,0.1l-0.3,0.2l-0.1,0.3l-0.1,0.3l0.3,2l0.3,1.3l0.2,0.7l-0.2,1.7l-0.6,0.4l-0.5,0.2
		l-0.4,0.6l-0.4,0.8l-0.3,0.8l-0.4,1.5l-0.2,2.5l0,1l-0.1,1.5l-0.8,1.6l-0.3,0.5l-0.3,0.6l-0.1,0.8l-0.1,0.7l-0.9,1.1l-1,1l-0.4,0.4
		l-0.1,0.3l0,1l0.3,1.7l-0.2,1l0.4,0l-0.4,0l0,0.2L67,156l0.2,0.2l0.3,0.2l0.6,0.4l0.3,0.3l0.2,0.3l0.4,1.2l0,0.3l-0.1,0.4l-0.2,1
		l0,2.6l0.2,0.8l0.3,0.4l0,1l-0.6,0.6l-0.5,2.6l-0.2,0.4l-1.2,1.2l-0.4,0.2l-0.3,0l-0.4-0.1l-0.1-0.2l-0.3,0.1l-0.4,0.9l-0.2,2.2
		l0,0.7l0,1.3l0,1.4l0.2,1.9l0.1,0.3l0.2,0.3l0.1,0.5l-0.1,1.2l-0.1,0.7v0.4l0.1,0.2l0.4,1.8l0.6,2.8l0,0.4l0,0.8l0.3,1.4l0.3,0.8
		l0.1,1.6l0,1.2l-0.1,0.5l-0.1,0.3l-0.1,0.6l-0.1,1.3l0.2-0.3l0.3-0.2l0.3,0l0,0l-0.3,0l-0.3,0.2l-0.3,0.3l0.3,0.8l0.5,0.7l0.7,1.2
		l-0.4,1.3l0,1.9l0,0.4l-0.1,0.4l-0.5,0.9l-0.3,1.8l-0.5,1.5l-1.5,1.1l-0.5,0l-0.1,0.2l0.6,2l0.1,1.6l0.6,2.5l-0.1,1L65,215
		l-0.1,0.3l-0.2,0.5l-0.4,0.4l-0.3,0.2l-0.4,0.1l-0.3,0.1l-0.4,0.9l-0.3,1.2l0,0l-0.3,0.4l-1.4,2.5l0,0.5l0.1,0.3l0.2,0.3l0.1,1
		l0,0.7l-0.1,0.4l-0.4,0.2l-0.2,0.4l0,0.5l0.1,0.8l-0.2,1.8l-0.1,0.5l0.3,0.1l0.2,0.1v0l-0.2-0.1l-0.3-0.1l-0.3,0.8l-0.2,0.3
		l-0.3,0.3l-0.6,1.4l-0.1,0.8l0,0.4l0,0.5l0,0.4l-0.1,0.6l-0.2,0.5l-0.6,0.6l-0.4,0.3l-0.4,0.2l-0.5,0.6l-0.2,0.3l-0.4,1.2l-0.7,1.8
		l-0.8,0.7l-0.5,0.3l-0.3,0.3l0,0.4l0.5,1.2l0.3,0.7l0,0.5l-0.1,0.4l-0.1,0.3l-1.2,1.2l-0.6,0.5l-0.2,0.1l1.3,0.6l0.2,0.2l0,0
		l-0.2-0.2l-1.3-0.6l0,0l-0.2,0.2l-0.2,2l-0.2,2.9l-0.4,1.1v0l-0.1,0.1l-0.5,1.4l-0.4,1.6l-0.2,1.1l-0.2,0.2l-0.2,0.1h-0.3l-0.4-0.1
		l-0.3-0.3l-0.4-0.2l-0.2,2.7l-0.2,2.6l-0.3,1.1l-0.2,0.4l-0.3,0.4l-0.3,0.2l-0.5,0.2l-0.6,0.2l-0.3,0l-0.2,0l-0.5,0l-0.9-0.4
		l-0.3-0.2l-0.5-0.6l-0.5,0.3l-0.1,0.3l-0.4,2.1l0.1,0.3l0.3,0.3l0.3,0.3l0.2,0.4l0.1,0.5l-0.1,0.6l-0.3,0.3l-0.4,0.5l-0.1,0.4
		l0.2,1.8l0.7,0.8l0.8,1.4l0.5,1.2l0.3,0.8l0.1,0.6l-0.2,2.2l-0.1,0.3l-0.2,0.2l-0.2,0.4l0.2,0.7l0,0l-0.2,0.1l-0.2,0.8l0,0.5
		l0.3,1.7l0.7,2.2l2,5.7l0.6,2.3l0.1,1.6l-0.3,0.5l0.4,0.1l0.3,0.1l0.3,0h0l-0.3,0l-0.3-0.1l-0.4-0.1l0.2,0.5l-0.4,1.2l-0.4,1
		l-0.2,0.3l-0.8,2.2l0,1.7l-0.3,0.4l-1-0.2l-2.1,1l-0.2,0.2l-0.2,0.4l0.2,0.3l0.3,0.4l0.1,0.4l0.1,0.9l-0.8,0.9l-0.2,1.4h0l-0.5,2.2
		l0.3,0.8l0.1,0.6l-0.5,1l-0.5,0.7l-1.3,3.5l-0.5,1.6l0.2,1.7l0.2,1.4l0.2,0.4l0.4,0.5l0.4,1.1l0.1,0.6l0,1l-0.2,0.5l0,0.6l1.1,1.3
		l0.7,0.4l1.4,0.1l0.3-0.1l0.2-0.3l0.2-0.5l0.4-0.3l-0.7,1.4l-0.4,0.1l-0.4-0.1l-0.4,0l-0.2,0.1l-0.5,0.8l-0.2,1.2l0.6,0l1.4,0.3
		l0.7,0.5l0.2,0l0.3-0.1l0.6-0.3l0.2-0.1l0.8,0l0.4,0.1l0.8,0.2l0.4-0.1l0.8-0.6l0.8-0.8l-0.2-0.9l-0.2-0.2l-0.2-0.6l0.7-1.1
		l0.4-0.2l0.9-0.3l1,0.3l0.4,0.2l0.8,0.9l0.4,0.5l0.3,1l0.5,0.4l0.3,0.1l0.4,0l1.2-0.4l0.8-0.4l0.3-0.5l0.4-2.7l0.4-0.2l-0.3,3
		l-0.2,0.2l-0.6,0.6l-0.8,0.4l-1.2,0.3l-0.4-0.1l-0.5,0l-1.7,1.8l-0.6,1l-0.1,0.4l0.5,0.7l0.9,0.5l1.4,0.2l0.7-0.4l0.4-0.4l0.5,0
		l0.2,0.2l0,0.5l-0.1,0.4l-0.1,0.4l-0.1,0.6l0,0.4l0.1,1.1l0.2,0.7l0.4,2l0.1,1.1l-0.2,0.3l-0.2-0.2l-1-3l0-0.3l-0.3-0.6l-0.4-0.2
		l-1.7,0.5l-0.6,0.4l-0.6,0.7l1.9,2.9l0.5,0.4l0.4,0.2l0.5,0.1l0.3,0.5l-0.1,0.2l-0.3-0.1l-0.9-0.6l-0.2-0.3l-0.3-0.1l-1-0.1
		l-0.3,0.1l-0.4,1l-0.1,2.2l0,0.8l0.2,0.9l0.2,0.4l0.3,0.3l0.3,0.2l0.4,0.4l0,2.1l-0.8-0.5l-0.4,0l-0.4,0.5l-0.5,0.8l-0.1,0.4
		l0.2,0.7l0,1.1l-0.4,0.2l-0.2,0.1l-0.3,0.2l-0.3,0.2l-0.4,0.3l-0.2,0.3l-0.4,2l0.1,0.4l0.8,1.8l-0.1,1.8l0,0.5l0.5-0.3l0.6-0.1l0,0
		l-0.5,0.1l-0.5,0.3h0l1.1,0.4L51,362l0.2-0.2l-0.2,0l0,0l0.2,0l0.2-0.5v0.6l0.8,0l0,0l-0.7,0l0.1,0.4l-1.1,0.4l-0.5,0.1l-0.3,0
		l-1,1.9l-0.4,0.8l0,0.6l-0.8,0.7l-0.8,0.7l-0.1,0.5l0.1,0.5l1.1,1.2l0.3,0.2l0.5,0.1l0.4,0l0.7,0.2l1.1,0.5v0.4l0.9,0.8l1.2,0.9
		l0.9-0.7l0.6-0.6l-0.1,1.5l-1,2.6l-0.3,0.9l-0.4,1l-1.4,1.3l-0.6,0.5l-2.3,1.3l-1,0.4h-0.4l-0.7-0.2l-0.2,0l-0.3,0.2l-0.2,0.4
		l-0.1,0.6l0.3,0.7l0.8,1.2l-0.4,0.6l-0.2,0.1l-0.7,0l-0.3,0.1l-0.2,0.8l0,0.4l0.2,0.2l0.3,0.1l0.5,0.1l0.4-0.1l0.2-0.3l0.3-0.4
		l0.2-0.1l0.4,0.1l0.9,0.7l0.5,0.6l0.6,0.7l1.1,0.5l0.3,0l0.2-0.3l0.7,0.1l0.1,0.3l-0.4,0.8l-0.2,0l0,0l-0.9-0.1l-0.7-0.3l-1-0.7
		l-0.5-0.4l-0.4-0.4l-0.1-0.5l-0.4-0.3l-0.9,0.4l-1.2,0.8l-1.3,1.3l-0.6,3.7l-0.1,1.5l0.2-0.1l0.9-0.9l0.2-0.2l0.3-0.6l0.4-0.3
		l0.5-0.2l0.4,0l1.6,0.5l-0.2,0.3l-0.4,0.1l-0.6-0.1h-0.6l-0.2,0l-0.3,0.1l-0.4,0.3l-0.2,0.2l-1.2,1.3l-1.4,2.8l0.2,0.7l0.3,1l0,0.5
		l-0.1,0.7l-0.2,0.6l-0.4,0.8l-0.1,0.3l0,0.7l0.4-0.1l0.3-0.4l0.3-0.7l0.2-0.6l0.5-0.8l1.1-1.6l0.2,0.2l-1.2,1.9l-0.4,1.4l-2,2.4
		l-0.3,0.9l-0.1,0.4l-0.6,1.3l-0.2,0.2l-0.3,0.2l-0.4,0l-0.9-0.7l0.9-1.4l0.4-0.4l0.8-1l0.2-0.4l0.2-0.5l0.1-0.6l0-0.9l-1.5-1.7
		l-0.8,0.1l-0.3,0.2l-0.4,0.9l0.9,1.1l0.4,0.3l0.3,0.2l0.3,0.5l-0.1,0.2l-0.1,0l-0.3-0.1l-1.2-0.8l-0.5-1.5l-0.3,0.1l-0.6,0.3
		l-0.4,0.2l-0.9,0.3l-1.1,0.3l-0.3,0l-0.2-0.1l-0.3-0.2l-1-1l0.5,0.3l0.3,0.2l0.5,0.4l0.3,0.2l0.4,0l1.3-0.4l0.8-0.4l0.6-0.4
		l0.6-0.5l0.3-0.3l0.2-0.3l0.2-0.4l0-0.5l-0.1-0.4l-0.9-0.9l-0.1,0.3l0.1,0.4l0,0.3l-0.2,0.9l-0.7,0.6l-0.3,0l0.2-0.2l0.2-0.3
		l0.3-0.5l0.2-0.5l0.3-1.7l-0.6-1.8l-0.3-0.4l-0.2-0.2l-1.2,0.2l-0.6,0.4l-0.2-0.6l-0.4-0.1l-1,0.2l-2.5,0.3l-0.2,0.2l-0.4,1.3
		l-0.7,2.2l-0.4,0.9l-1.5,1.7l-1,0l-0.5,0l-1.3,1.4l-0.2,0.8l0,1l0-0.2l-0.5-0.5l-0.8,0.4l-0.3,0.2l-0.5,0.6l0.1,0.6l-1.4,1.2
		l-0.5,0.3l-0.4-0.1l-0.3,0l-0.2,0l-0.7,1.1l-0.1,1.5l0.1,1.1l0.8,1.4L20.4,413.5z"/>
	<polygon class="st0" points="32.6,433.8 32.3,433.5 32,433.3 31.8,433.3 31.5,433.9 31.4,434.5 31.4,434.9 31.5,435.2 31.5,435.4 
		32.2,436.9 32.3,437 33.5,436.4 33.7,436.3 34.1,435.6 33.9,435.1 	"/>
	<polygon class="st0" points="34.9,436.6 34.9,436.3 34.8,436.1 34.5,436 34.4,436 34.2,436.1 32.7,437.3 32.7,437.4 32.9,437.7 
		33.1,437.8 33.7,438 33.9,438.2 34.7,438.7 34.9,438.8 35,439 35.2,439.2 35.3,439.2 35.6,439 35.8,438.9 35.8,438.6 35.7,438.5 
		35.4,438.3 35.2,438 34.9,437.5 34.7,437.3 34.8,437 	"/>
	<polygon class="st0" points="29,434.2 27.7,433.8 26.8,433.1 26.5,432.9 25.1,432.6 24.4,432.4 24,432.5 24,432.9 24.7,435.1 
		26.3,438.7 26.5,438.8 26.6,438.8 26.6,438.8 27,438.5 27.3,438.2 27.6,438 28.2,437.6 28.5,437.6 28.6,437.6 28.7,437.4 29.1,435 
		29.2,434.6 29.1,434.3 	"/>
	<polygon class="st0" points="37.2,439.4 37.4,439.6 37.5,439.6 37.5,439.6 37.7,438.8 37.7,438.6 37.6,438.4 37.4,438.3 
		36.3,437.5 36.1,437.5 35.9,437.5 35.7,437.5 35.5,437.6 35.4,437.8 35.5,438.1 36.2,438.8 	"/>
	<polygon class="st0" points="34,438.6 33.1,438.1 32.9,438 32.7,438 32.5,438.2 32.5,438.4 32.5,438.6 33.1,439.6 33.3,440.2 
		33.3,440.2 33.4,440.2 33.6,440.3 33.9,440.1 34.5,439.8 34.7,439.7 34.8,439.6 34.9,439.4 34.8,439.2 34.6,439 	"/>
	<polygon class="st0" points="36.3,417.3 36.5,417.3 37.1,417.1 37.2,417 37.4,416.9 37.6,416.6 38.5,415.3 37.9,414.8 36.4,414.7 
		36.3,414.8 36.2,414.9 36.1,415.1 35.7,416.1 35.7,416.4 35.7,416.6 36.2,417.2 	"/>
	<polygon class="st0" points="33,417.2 33.1,417.4 33.2,417.3 34.5,416.2 34.6,416.1 34.7,415.8 34.7,415.5 34.6,415.4 34.4,415.3 
		34,415.3 33.7,415.4 33.5,415.4 32.8,415.8 32.7,415.9 32.7,416.5 33,417.1 33,417.1 	"/>
	<polygon class="st0" points="27.7,426.5 27.5,426.3 27.3,426.2 26.4,426 26.1,426 26,426.1 26.3,427.1 26.4,427.2 26.8,427.6 
		26.9,427.6 26.9,427.6 27.4,427.5 27.9,427.4 28,427.1 27.9,426.9 	"/>
	<polygon class="st0" points="20,442.1 20.8,442.1 21,442.1 21.2,442.1 21.4,442 21.6,441.9 21.8,441.7 21.9,441.8 21.8,442 
		21.6,442.3 21.5,442.4 21.2,442.5 21,442.6 20.7,442.7 20.3,442.6 20,443 20,443 20.1,443.1 20.3,443.2 20.7,443.2 21.1,443.1 
		21.3,443.1 21.4,443 21.8,442.8 22.5,442.2 22.7,442 23.3,441.5 23.3,441.3 23.1,438.9 23,438.7 22.5,438.5 20.1,438.8 19.8,438.8 
		19.5,439.4 19.3,441.3 19.5,441.8 	"/>
	<polygon class="st0" points="22.1,442.9 21.4,443.5 21.2,443.6 21.1,443.6 20.8,443.6 20.3,443.5 19.8,443.2 19.5,443.3 
		19.5,444.3 19.5,444.6 19.7,444.8 19.8,444.8 19.9,444.8 19.9,444.8 21.3,444.6 23.3,443.8 23.5,443.7 23.7,443.3 23.7,443.1 
		23.6,442.9 23.5,442.5 22.9,442.1 	"/>
	<polygon class="st0" points="46.6,365.8 47.4,366.3 47.8,366.3 47.9,366.2 48.1,364.5 48.1,364.2 48,364.1 47.9,364 47.7,364 
		47.5,364 46.7,364.4 46.6,364.6 46.4,365 46.4,365.3 46.4,365.6 	"/>
	<polygon class="st0" points="35,430.8 36.8,430.3 37,430.3 37.2,430.3 37.4,430.4 37.7,430.5 37.9,430.6 39.1,430.6 39.5,430.6 
		39.7,430.5 40.1,430.4 40.3,430.3 40.5,429.6 40.6,429.4 40.5,429.2 40.3,429 40.2,428.9 40.1,428.9 39.9,429 39.6,429.3 
		39.4,429.3 39.1,429.3 37.7,428.7 35.2,427.9 34.9,427.9 33.9,428.5 33.7,428.6 33.5,428.7 32.6,429.8 32.6,430 32.8,430.2 
		34.2,430.7 34.7,431 34.7,431 	"/>
	<polygon class="st0" points="25.9,426.7 25.5,426.2 25.3,426.1 23.9,426.9 23.5,427.4 23.6,427.6 23.8,427.6 24,427.7 24.2,427.7 
		24.7,427.9 24.8,428 24.9,428.2 24.8,428.5 24.8,428.5 24.6,428.8 25.4,428.7 25.7,428.5 25.9,428.3 26,428.2 26.2,427.9 
		26.2,427.7 26,427 	"/>
	<polygon class="st0" points="47.6,540.7 47,540.4 46.8,540.3 46,540.2 45.7,540.2 45.2,540.2 44.3,541 44.5,541.2 45.9,541.9 
		46.6,542.3 47.5,542.1 47.7,542.1 47.8,541.9 47.6,540.9 	"/>
	<polygon class="st0" points="46.6,542.3 46.6,542.3 46.6,542.3 	"/>
	<polygon class="st0" points="44.1,531.4 45.2,530.8 45.1,530.6 44.4,529.5 45.2,528.4 45,528.2 44.8,528.1 44.8,528.1 44.7,528 
		44.6,528 43.3,528 43.1,528.7 43.4,528.9 43.6,529 43.6,529.2 42.6,529.6 42.1,529.5 42,529.5 41.8,529.4 41.6,529.3 41.2,529 
		40.8,528.5 40.6,528.5 40.6,528.7 40.8,529.1 40.9,529.4 42.3,530.4 43.9,531.4 	"/>
	<polygon class="st0" points="40.1,529.1 40,529.1 39.8,529.3 39.7,530.8 40,531.7 40.1,531.8 40.1,531.8 40.2,531.8 40.4,531.7 
		40.6,531.6 41.7,530.8 41.8,530.6 41.8,530.4 41.6,530.2 	"/>
	<polygon class="st0" points="28.8,500.9 29.4,498.6 29.6,497.9 29.5,497.3 29.4,495.6 29.3,495.4 29.1,495.2 28.4,494.9 28.2,495 
		28,495.1 27.8,495.2 27.7,495.4 27.7,495.6 27.9,495.8 28.2,495.9 28.5,496.8 28.8,499 28.6,499.4 28.3,499.4 28,499.5 27.7,499.4 
		27.7,499.2 27.8,499 27.7,498.8 27.4,498.4 27.2,498.7 26.2,501.4 27.1,503.7 27.3,504.1 27.3,504.1 27.4,504.1 27.5,504 
		27.7,503.8 28.2,502.7 	"/>
	<polygon class="st0" points="23.7,479.8 23.8,479.2 23.8,477.9 23.7,476.7 23.8,476.2 24,476.4 24.2,476.5 24.4,476.5 24.5,476.6 
		24.7,476.5 25.8,475 25.9,474.8 25.8,474.6 24.8,474.6 22.5,474.1 22.2,474.1 21.7,474.6 21.6,474.9 22,475.1 22.4,475.4 
		22.7,476.3 22.7,476.8 22.4,476.6 22.2,476.5 22,476.6 21.7,476.8 21.1,477.3 21.1,477.6 21.7,479.4 21.8,479.5 22.1,479.6 
		23.2,479.9 23.2,479.9 23.3,480 23.5,479.9 	"/>
	<polygon class="st0" points="41.3,523.8 41.5,523.7 42.8,525 43.1,525.7 43.9,526 44,526.3 44.1,526.8 46.9,527.5 48.2,527.6 
		48.3,527.6 48.5,527.5 48.6,527.2 48.5,527 47.2,526.1 46.4,525.6 46.2,525.5 45.5,525.6 45.5,525.6 46.1,525.1 46.1,524.9 
		44.8,523.3 44.5,523.2 44.3,523.1 44.1,523.1 44,523.3 44.1,524 44.2,524.4 44.3,524.8 43.9,525.5 43.7,525.4 43.6,525.2 
		43.2,524.1 43.3,523.9 43.4,523.6 43.5,523.4 43.3,522.6 43.3,522.4 42.8,521.8 42.2,521.7 42.2,522 41.5,522 40.7,521.6 
		40.2,521.3 39.5,520.7 38,519.8 36.8,519.3 36.1,519.5 35.6,519.6 35.5,519.9 34.2,519.6 33.7,519 33.3,518 32.6,517.2 31,515.6 
		30.4,515.2 30.3,515.3 29.8,516 30.4,516.8 30.6,516.9 31.1,517.1 31.4,517.2 31.5,517.3 31.8,517.8 31.6,518.7 31.5,519 
		31.6,519.2 32.5,520 33.2,520.2 33.5,520.2 34.3,521.2 34.6,522.3 34.8,522.5 37.5,522.6 38.1,522.2 38.5,522 39.5,521.8 
		40.2,522.7 	"/>
	<polygon class="st0" points="25.3,492.6 26,491 26.1,491 26.4,491 26.5,491.2 26.7,491.2 26.9,491 26.9,490.8 26.9,490.3 
		26.9,489.7 25.4,488.5 25.3,488.5 25.1,488.6 24.6,489.1 24.5,489.2 24.4,489.4 24.4,489.7 24.4,490 24.4,491.3 24.3,492.2 
		23.8,493 23.3,493.5 23.3,494.9 23.4,495.2 23.4,495.2 23.5,495.2 23.6,495.1 25.2,494.2 25.3,493.8 25.4,493.6 25.4,493.3 
		25.4,493 	"/>
	<polygon class="st0" points="22.7,462.3 22.6,462.5 22.6,462.7 22.9,463.3 23.1,463.6 23.5,463.9 23.8,464 23.9,463.9 23.9,463.8 
		23.8,463.4 23.7,462.9 24,463 24.7,463.8 24.9,464.1 24.9,464 24.7,462.8 24.7,462.6 23.4,460 23,459.4 22.8,459.2 22.7,459.1 
		22.5,459.1 20.5,459.2 20,459.9 20.2,462 20.2,462.2 20.5,462.9 20.8,463 22,461.8 	"/>
	<polygon class="st0" points="21.1,453.1 21.1,453.1 21.5,452.7 23.1,450.9 23.2,450.8 23.4,450.5 23.7,450 23.6,449.8 23.2,448.6 
		23,448.2 22.9,448.1 22.7,448.2 22.5,448.4 21.9,449.1 21.6,449.9 21,450.5 20.8,450.4 20.7,450.4 20.1,450.8 19.4,452.1 
		19.5,452.2 19.7,452.4 20.9,453.1 	"/>
	<polygon class="st0" points="26.7,499.4 26.8,499.2 27,498.7 27.2,497.9 27.3,497.2 27.3,496.9 27,496.7 26.7,496.6 26.5,496.7 
		26.3,496.9 26.1,497.1 26,497.3 25.8,498 25.5,499.8 25.6,500 25.7,500.1 25.7,500.1 25.8,500.1 26.1,500 26.6,499.6 	"/>
	<polygon class="st0" points="30.1,507.7 30.4,507.5 31.3,505.9 31.2,505.7 30.9,505.6 28.9,506.1 29.1,507.1 29.8,507.8 
		29.9,507.8 	"/>
	<polygon class="st0" points="37.4,525 37.2,524.9 37.1,524.9 36.6,525.2 36.1,525.6 35.5,526.3 35.5,526.5 35.7,526.7 35.9,526.8 
		36.1,526.8 36.8,526.6 37.1,526.4 37.6,525.5 37.6,525.3 37.6,525.2 	"/>
	<polygon class="st0" points="56.1,540.6 57.3,540.4 57.3,539.5 57,539.4 56.5,539.2 56.3,539 56.3,537.7 57,537 57.9,537.2 
		58.2,537.3 58.6,537 58.8,536.2 59,536.2 59.4,535.9 58.3,534.5 58,534.3 56.8,533.7 56.4,534.3 56,534.8 55.5,533.5 55.7,533.1 
		56,533 56.4,533.1 56.4,532.5 56,531.8 55.5,531.4 54.3,531.3 53.3,532 52.6,530.4 52.1,529.7 51.2,529.4 51.5,530.1 51.8,530.8 
		51.7,531.4 51,533.4 50.7,532.4 50.9,531.6 51.1,530.8 50.6,528.7 49.6,528.3 48.8,528.2 47.7,528.5 48.2,529.3 48.5,530.2 
		46.4,529.8 45.7,529.5 45.3,529.4 44.8,529.4 45.1,530.2 46.5,532.4 46.8,532.7 47.7,532.9 48,532.9 48.8,533 49.6,533 49.8,532.7 
		50.1,532.7 50.2,533.2 49.1,533.4 48.1,533.4 47.7,533.4 46.8,533.1 46.4,532.9 46.1,532.4 46,532 45.8,531.7 44.9,531.3 
		44.7,531.2 44.3,531.6 44,531.8 43.8,531.8 43.5,531.5 43,531.6 42.8,531.8 42.7,532.2 42.7,533 42.9,533.2 43.3,533.2 43.7,533.2 
		44.1,533.2 44.2,534 43.9,534.3 43.6,534.4 43.1,534.9 44.1,534.8 44.4,534.7 44.8,534.5 45.3,534.2 46.8,534.1 46.7,535.9 
		46.2,536.3 46.2,536.3 46.1,536.5 46.3,537.3 46.7,538.4 47.1,539.4 48.1,539.8 48.5,538.5 48.5,538 49,536 49.4,536.2 49.4,536.7 
		49.5,537.1 50.5,537.2 50.9,537.1 51.6,536.4 51.9,536.2 52.8,536.7 52.2,540 50.9,540.8 49.6,540.9 49.4,541.2 49.7,541.6 
		51.1,542.3 51.7,542.3 53,541.4 53.9,540.9 54.4,541.5 54.6,541.6 54.9,541.6 	"/>
	<polygon class="st0" points="29.5,503.4 31.4,499.3 31.5,499 30,498.8 29.8,498.8 29.7,499 29.6,499.3 29.3,499.8 29.2,500.1 
		28.1,504 28.3,504.5 28.4,504.5 28.4,504.5 28.5,504.4 29.4,503.6 	"/>
	<polygon class="st0" points="119.4,563.8 119.4,563.8 119.3,563.7 119.1,563.7 118.9,563.6 118.6,563.6 117.7,564 117.5,564.1 
		117.1,564.7 117.2,565.7 117.4,565.7 117.9,565.8 119.2,565.9 119.4,565.8 119.7,565.5 119.9,565 119.7,564 	"/>
	<polygon class="st0" points="115.1,575.8 114.3,575.5 113.7,575.4 113.5,575.5 113.3,575.6 113.3,575.9 114,576.5 115.1,577.1 
		115.1,577.1 115.6,577 115.5,576.3 	"/>
	<polygon class="st0" points="106.1,570.8 105.3,569.6 105.8,568.5 105.1,568.6 104.7,568.5 104.8,568.1 104.9,567.5 104.7,567.1 
		102.7,566.1 101.9,565.8 101.3,565.7 101,565.7 100.7,565.8 100.4,566.1 99.7,566.2 98.1,564.5 98.5,564.2 98.9,564.2 99.2,564.5 
		99.4,565 99.6,565.3 99.9,565.4 100.1,565.4 100.1,565.4 100.8,565.4 104.2,564.9 104.2,564.5 103.4,563.7 102.3,562.9 
		101.5,562.8 99.8,562.8 97.8,562.7 96.4,561.9 95.6,561.4 94.5,560.2 94.7,559.7 95,559.7 96.3,560.6 96.5,560.8 96.9,561.1 
		97.3,561.5 97.8,561.9 99.2,562.3 99.9,562.1 100.1,561.8 102.7,560.6 102.9,560.1 102.7,559.3 102,558.3 100.8,557.8 99.1,558 
		98.2,558.2 97.4,558.8 97.1,558.9 95.3,558.8 93,559 91.1,559.5 87.9,560.1 86.2,560.3 85,560.6 84.6,560.8 83.7,561.8 83.5,562.3 
		83.6,562.6 84.9,562.6 85.6,563.4 85.4,563.6 84.7,563.7 85.4,564.4 85.7,564.3 87.4,563.9 88.5,563.1 89,562.7 89.4,562.7 
		89.2,563.1 88.8,563.3 88.5,563.4 87.6,564.1 87.3,564.8 87.2,565.4 88.2,565.9 88.7,566.7 89.6,565.9 89.9,565.9 90.7,566.4 
		90.5,566.6 89.9,566.7 89.6,567.4 90.3,569.2 91.5,568.9 93.3,569.4 93.5,569.2 93.6,568 92.8,567.9 91.8,567.7 91.8,566.5 
		90.8,565 91,564.1 92.2,563.7 91.8,562.5 91.1,562.4 90.3,562.5 90.6,562.3 90.9,562.2 92.4,561.9 92.7,563.2 92.9,563.7 93.3,564 
		93.5,564.1 94.8,564.5 95.5,564.4 97.3,563 97.2,563.3 96.8,563.9 96.4,564.9 96.2,566 96.4,566.4 97.8,565.9 97.7,566.9 97.3,567 
		97,566.8 96.7,566.9 95.9,567.1 95.6,567.7 95.9,568.3 96.4,568.9 96.9,569.3 97.2,569.3 97.8,569.1 98.3,568.5 99.7,568.5 
		100.4,568.5 101.2,569.2 101.9,569.2 102.3,568.7 102.5,568.8 103.7,569.8 103.6,570.6 104,571.6 104.9,572.6 105.3,573.2 
		105.5,573.5 105.8,573.6 105.8,573.5 106,573.4 106.8,572.6 106.9,571 106.4,570.9 	"/>
	<polygon class="st0" points="110.1,571.5 110.4,571.4 110.6,571.3 111.2,570.8 111.3,570.1 111.1,569.8 111,569.6 110.8,569.4 
		110.7,569.2 110.5,569 110.4,569 110.1,569.2 109.9,569.4 109.5,571.5 109.7,571.7 109.7,571.7 	"/>
	<polygon class="st0" points="111.6,575.4 111.5,575.5 111,575.8 109.8,575.8 109.4,575.7 109.2,575.6 108.9,575.5 108.7,575.5 
		108.4,575.6 108.2,576 108.2,576.3 108.3,576.5 108.5,576.6 109.8,576.2 110.5,576.2 110.6,576.3 111,577.3 111.2,576.7 
		111.3,576.7 111.8,576.9 112,576.7 112.3,575.8 112.1,575.5 	"/>
	<polygon class="st0" points="114,574.3 114.1,574.4 114.1,575 114.1,575 114.5,574.9 114.8,574.8 115,574.6 115.1,574.4 
		114.9,573.6 113.9,570.7 113.7,570.7 113.1,571 111.8,572.4 111.6,573.4 111.7,573.9 112.7,574.3 113.4,574.1 	"/>
	<polygon class="st0" points="117.3,560.6 116.1,558.7 115.8,558.5 115.4,558.2 115.1,558.1 114.7,557.9 114.3,557.8 113.5,557.6 
		113.1,557.6 111.6,557.6 111.4,557.6 110.6,557.7 109.1,557.6 108.1,557.5 106.9,557.4 105.8,557.4 105.8,557.4 104.3,557.4 
		102.8,557.6 102.7,557.7 102.5,557.9 102.6,558.6 103,559.1 104,559 104.2,559 104.5,560.8 104.4,561.2 104.9,563.3 105,563.5 
		105.2,563.7 105.3,563.8 105.5,563.9 105.8,563.9 105.9,563.9 106.2,563.7 107.7,562.9 107.9,562.8 108.3,563.4 108.3,563.8 
		108.1,563.8 108,564 108.6,564.4 108.8,564.4 110.4,564.5 110.6,564.5 110.7,564.4 110.7,563.9 110.8,563.4 110.9,563.1 111,562.9 
		111.2,562.8 111.5,562.6 111.8,562.6 112,562.6 112.3,562.7 112.6,562.8 112.9,562.9 113.1,563.2 113.2,563.4 113.1,563.6 
		113,563.8 112.8,564.1 112.7,564.4 112.8,564.6 113,564.8 113.2,565 113.4,565 114.6,565.4 114.7,565.4 115.2,565.3 115.3,565.2 
		116.8,563.2 116.9,563.1 117.1,562.8 117.3,561.9 	"/>
	<polygon class="st0" points="124.4,562.9 123.6,562.5 123.4,562.5 123.2,562.5 122.2,563.2 122,564 122,564.2 122.1,564.6 
		122.2,564.7 122.7,564.9 122.8,564.9 123.5,564.5 124.5,563.2 	"/>
	<polygon class="st0" points="119.6,559.7 118.3,559.3 117.8,559.1 117.7,559.1 117.5,559.1 117.2,559.1 117.1,559.2 117.1,559.4 
		117.2,559.7 119.8,561.4 120,561.5 120.1,561.5 119.7,559.9 	"/>
	<polygon class="st0" points="40.8,490.4 40.9,490.2 41,489.5 41,489.1 41,488.8 40.9,488.7 40.8,488.5 40.6,488.4 40.4,488.2 
		40.2,488.2 40,488.2 39.6,488.7 39.3,489 39.3,489.1 39.5,489.9 39.8,490.1 39.9,490.2 40.7,490.4 40.7,490.4 	"/>
	<polygon class="st0" points="86.5,559.9 87.8,559.7 89.5,559.4 90.6,559.1 92.7,558.6 93.1,558.5 93.3,558.4 92.8,558 90.9,557.4 
		90.6,557.3 87.4,556.6 86.8,556.6 85.5,556.8 85.4,556.8 84.7,557.1 84.6,557.1 84.3,558.4 84.4,558.7 84.7,558.8 84.9,559.2 
		85,559.5 84.9,560 	"/>
	<polygon class="st0" points="73.1,557.8 73.4,557.7 73,556.8 72.4,556.4 72.3,556.4 72.1,556.6 71.9,556.8 71.6,556.8 71.2,556.7 
		70.9,556.4 70.1,556.2 68.4,555.8 67.8,555.8 67.2,556.9 67.8,558.1 68.5,558.3 68.7,558.2 70.1,557.3 70.7,557.9 71.5,558.3 
		71.7,558.3 72.8,557.8 	"/>
	<polygon class="st0" points="78.4,556 77.9,555.8 77.1,555.9 75.9,556.3 75.5,556.5 75.3,556.7 75.5,556.9 76.1,557.3 76.9,557.3 
		79,556.9 79.2,556.8 79.3,556.6 79,556.2 78.8,556.1 78.5,556 78.5,556 	"/>
	<polygon class="st0" points="80.6,559.8 80.5,559.8 79.9,559.8 79.7,559.8 78.2,560.1 76.4,559.8 75.5,559.4 75.6,559.1 75.8,559 
		76,559.2 76.3,559.3 76.7,559.3 78,559.1 78.1,558.9 78,558.6 78.1,558.3 78.3,558.1 78.8,558 80.2,557.3 80.1,557.2 79.8,557.2 
		79.8,557.2 78.8,557.3 78.1,557.3 78,557.4 76.8,558 76.8,558.2 77.4,558.5 77.2,558.6 75.8,558.6 75.2,558.3 74.8,558.2 
		73.8,557.9 72.6,558.2 72.4,558.3 72.2,558.5 72.3,560.1 73.1,560.7 75.6,561.7 75.8,561.7 76.9,560.8 77.6,561.6 77.4,562 
		77.4,562.5 77.4,562.9 77.4,563.2 77.6,563.3 77.8,563.4 79.4,562.6 79.6,562.3 79.5,562.1 79.4,562 79.1,562 78.8,561.8 
		78.7,561.7 78.8,561.2 79.1,560.9 79.3,560.9 79.5,561 79.8,561.3 79.9,561.6 80,561.7 80.2,561.8 80.5,561.8 80.8,561.4 
		80.6,560.2 	"/>
	<polygon class="st0" points="84,558.2 84,557.9 83.9,557.7 83.8,557.6 83.6,557.6 83.4,557.7 81.8,558.6 81.6,558.7 81.5,558.9 
		81.5,559.1 81.7,559.3 81.8,559.4 82,559.4 82,559.4 82.6,559.2 83.6,558.8 	"/>
	<polygon class="st0" points="57.7,541.2 57.7,541.1 57.6,541 57.3,541 56.9,541.2 56.6,541.4 55.2,543.6 55.3,544.3 55.5,544.5 
		55.7,544.6 56.2,544.7 57.4,544.6 57.6,544.5 58.2,543.5 58.7,542.5 58.3,541.7 	"/>
	<polygon class="st0" points="84.9,560 84.9,560 84.9,560 	"/>
	<polygon class="st0" points="86.8,555.4 87,555 87,553.8 87.9,553.2 88,553.2 88.1,554.4 88,554.6 87.7,555 87.6,555.2 87.7,555.7 
		88.9,556.3 89.7,556.6 93.9,558.2 94.2,558.2 94.4,558.2 95.6,558.1 97.4,557.7 97.8,557.5 98,557.2 97.9,556.8 97.4,556.6 
		97.2,556.4 97,556.2 96.9,556.1 96.4,555.3 98,556 98.2,556.2 98.6,556.7 98.8,556.9 99,557 99.2,557 99.2,557 99.3,556.9 
		99.3,555 99.3,555 99.3,550.2 99.3,546.5 99.3,546.1 99.3,539.6 99.4,536.5 99.4,530.2 99.4,526.9 99.4,525.8 99.4,516.7 99.5,514 
		99.5,513.8 98.6,513.1 97.3,512.6 97.1,512.8 97,512.9 95.5,513.9 94.2,514.5 93.9,514.7 93.7,514.7 93.4,514.6 93.1,514.4 
		92.7,514.1 92.6,514 91.4,512.2 91.3,512 91.2,511.8 91.2,511.6 91.1,511.4 91,511.2 90.4,510.4 90,510.5 88.7,511.2 88.4,511.4 
		88.2,511.7 88.3,513.2 88.2,513.4 88.1,513.8 87.1,515.6 86.9,515.9 86.7,516.1 84.7,517.3 84.4,517.4 84.2,517.4 83.9,517.4 
		83.7,517.2 83.4,517 83.2,516.8 82.8,516.2 82.7,515.8 82.5,515.6 82.4,515.4 82.1,515.3 81.8,515.2 81.6,515.3 79.5,515.6 
		79.2,515.8 78.9,516.2 79,516.4 79.2,516.4 79.5,516.4 79.7,516.3 79.8,516.3 80.2,516.4 80.4,516.5 80.6,516.7 80.7,517 
		80.8,517.2 81.3,518.1 82.5,518.3 82.6,518.5 82.6,518.8 82.6,519 82.3,520.1 82.2,520.3 82.1,520.5 82,520.6 81.8,520.7 
		81.6,520.9 81.4,521 80.1,521.4 79.9,521.3 79.7,520.4 79.7,520.1 79.9,519.7 79.7,519.5 78.9,520.6 78.7,520.8 78.6,521 
		78.6,521.2 78.2,524.7 78.2,524.9 78.3,525.9 78.6,527.3 78.7,527.5 80.8,529.3 81,529.4 81.2,529.5 81.3,529.5 81.5,529.5 
		83,528.8 83.2,528.7 83.4,528.3 83.6,528.1 84,527.7 84.4,527.4 84.9,527.3 85,527.2 88.3,526.7 88.7,526.7 90.9,526.9 91.1,527.1 
		91.2,527.4 91.4,529.3 91.4,529.5 91.3,529.9 91.2,530.2 91,530.3 86.4,532.8 85.8,533 85.6,533 85.5,533 85.2,533 84.9,533 
		84.7,533 82.1,534.7 81.9,534.9 81.7,535.3 81.7,535.7 81.7,536 81.8,536.5 82.1,538.2 83,541.1 83.1,541.4 83.3,541.6 85.1,542.9 
		86.2,543.3 86.5,543.4 86.7,543.4 86.9,543.5 87.2,543.5 87.5,543.6 88.7,544.1 89,544.5 89.1,544.6 89.3,544.8 90.2,545.2 
		90.5,545.3 92.1,546 94.2,547.2 94.9,547.7 95.1,547.8 95.3,548 95.2,548.7 95.1,548.9 94.9,548.9 94.5,548.5 94.2,548.4 
		94.1,548.4 93.6,548.4 93.4,548.5 93.3,548.8 93.2,549.1 93.2,549.5 93.3,549.7 93.5,550.4 93.2,550.9 93.2,550.9 93,550.5 
		92.8,550.1 92.7,549.9 92.6,549.9 92.3,549.9 92,550.2 91.8,550.4 91.7,550.7 91.4,551.3 91,552.3 90.9,553 90.8,552.9 90.4,551.8 
		90.6,551.5 91,550.5 91.2,550.4 91.6,550.1 91.7,550 92.6,549 92.6,548.8 92.5,548.5 92.4,548.3 92.3,548.2 90.8,547.3 88,546.6 
		87.7,546.2 87.4,545.9 86.1,545.3 85.7,545.1 85.4,545.1 85.3,545.2 85.1,545.7 85.4,546 85.6,546.1 86,547.1 86.7,549 86.6,550.4 
		86.4,550.5 86.1,550.1 85.3,548 84.1,545.4 83.7,544.9 83.2,544.5 83,544.5 82.9,544.5 82.7,544.7 82.3,545 81.5,545.7 81.5,546 
		81.6,546.2 81.9,546.5 82.1,546.5 82.9,546.7 83,546.9 83,547.1 82.2,548 82,547.9 79.9,545.9 76.4,543.9 74.9,543.1 74.1,542.5 
		73.8,542.3 73.3,542.4 73.8,544.2 73.9,544.5 74.2,544.7 74.3,544.8 74.5,544.9 74.9,544.9 75.9,544.8 76.4,544.9 76.6,544.9 
		77.3,545.1 77.6,545.3 77.8,545.6 77.9,545.7 78.1,546 78.1,546.3 78,546.7 78.6,547.7 78.7,547.9 79.2,548.2 79.4,548.4 
		79.6,548.5 80.2,548.8 80.5,549 80.9,549.2 81.2,549.4 82.3,550.2 81,550.8 80.8,550.8 80.5,550.7 80.4,550.4 80.3,550.1 80.2,550 
		80,549.8 79.4,549.3 79.3,549.2 79.2,549.1 78.8,548.9 77.6,547.9 77.4,547.6 77.3,547.3 77.1,547.3 76.6,547.7 76.5,547.9 
		76.2,548.3 76.2,548.4 75.8,549.6 75.7,549.9 75.9,550.4 75.9,550.5 76.5,551.5 75.6,550.8 75.2,551.2 75.4,549.7 75.7,548.5 
		76.1,547.4 76.8,546.4 76.7,546.2 76.3,546.1 76.2,546 74.9,545.9 74.6,545.9 74.1,545.9 73.6,546 73.1,546.3 73,546.6 73.1,547.1 
		73.1,547.3 73.2,547.5 73.2,547.8 72.8,548.8 70.3,548.1 68.4,546.9 68.2,546.9 67.8,547.2 67.6,547.5 68.1,547.9 67.3,548.2 
		65.7,547.5 65.5,547.5 65.4,547.8 65.5,548.2 65.7,548.6 65.8,548.7 66,548.8 66.6,548.9 66.8,549.1 66.8,549.3 66,549.6 
		65.6,549.5 65.4,549.4 65.2,549.3 64.4,548.1 64.3,547.6 64.1,547.4 63.9,547.4 63.7,547.3 63.4,547.4 62.7,547.8 62.8,548.4 
		63,548.6 63.5,548.9 63.7,548.9 64,548.7 64.2,548.6 64.5,548.8 65.8,550.3 64.7,550.9 64.6,550.9 63.9,550.6 63,550.3 62.8,550.1 
		62.6,549.9 62.6,549.7 62.4,549.3 61.9,548.7 61.3,548.4 61.1,548.5 61,548.6 60.9,549.5 61,550.7 61.3,551.8 61.4,552.2 
		61.6,552.4 61.8,552.4 62,552.5 63,552.4 63.3,552.3 63.5,552 64,551.5 64.3,551.4 64.6,551.5 64.8,551.6 66.6,553 66.8,553.1 
		66.9,553.1 67,552.7 67.8,550.4 68.4,549.8 68.6,549.8 69.4,550.9 69.4,551.6 69.3,552.2 69.1,552.3 69,552.4 69,552.6 69.1,552.8 
		69.3,552.9 70.3,553.3 70.5,553.3 71.7,552.6 71.9,552.3 72,552.1 71.9,551.8 72.2,551.6 72.7,551.7 72.8,552.1 72.4,553.4 
		72.4,553.6 72.3,553.8 72.1,554 72,554.2 71.9,554.4 71.9,554.7 72,554.8 72.3,554.7 73.1,553.6 73.9,553 74.6,552.8 74.7,552.8 
		74.9,552.8 75,552.9 74.9,553.1 74,553.4 73.5,553.4 73.3,553.5 73.6,554.1 74.7,554.1 75.5,553.9 76.5,553.6 77.1,553.2 
		77.1,553.1 76.8,552.9 76.7,552.7 77.4,551.9 77.6,551.8 78.3,551.8 78.5,551.8 78.6,551.9 78.5,552.1 77.9,553.1 77.7,553.3 
		76.7,553.9 76,554.3 75.7,554.5 75.2,554.6 75,554.6 74.8,554.8 74.3,555.5 74.4,555.7 74.7,555.9 75.1,556 75.3,556 75.4,556 
		76.7,555.4 78.9,555.5 79.3,555.6 79.7,555.5 79.7,555.3 79.8,555 80.1,554.3 81.1,553 81.2,553.2 81.2,553.4 80.6,554.5 
		80.3,554.8 80.1,555.1 80.2,555.7 80.3,556.1 80.6,556.3 81,556.4 81.4,556.4 82.8,556.3 	"/>
	<polygon class="st0" points="56.4,545.6 56.2,545.6 54.9,546.3 55.1,547.2 55.6,547.9 55.8,548 55.8,548 56.7,547.1 56.8,547.1 
		57.6,546.8 57.7,546.3 57.6,546.1 	"/>
	<polygon class="st0" points="61.5,545.6 61.7,546 62.7,546.2 62.8,546.2 63,546.1 63.9,544.7 64,544.4 64,544.1 62.8,542.7 
		62.6,542.6 62.4,542.5 62,542 61.6,540.6 61.5,540.3 61.6,540.1 61.7,539.8 61.9,539.8 62,540 61.9,540.4 61.9,540.7 62.9,542.2 
		63.1,542.4 63.2,542.6 63.4,542.7 63.8,542.8 63.9,542.8 64.1,542.8 64.3,542.5 65,541.5 65,541.2 64.6,539.6 64.3,539.4 
		64.2,539.1 64.8,538.6 64.8,538.6 64.9,538.4 64.9,538.1 64.2,537.7 61.7,536.8 61.4,536.9 61.1,537 60.9,537.6 60.4,539 59.9,539 
		59.7,538.6 59.6,538.4 58.9,538.1 58.8,538.1 58.6,538.1 58.2,538.2 58.1,538.5 58.2,539 58.5,541 58.6,541.2 58.7,541.4 
		58.8,541.6 59.8,542.7 61.6,544.5 	"/>
	<polygon class="st0" points="24.5,461.5 25.3,463.2 26.3,464 26.7,464 27.1,462.5 27.3,460.1 27,459.7 26.8,459.3 26.8,458.6 
		26.8,457.7 26.8,457.2 27.2,456.7 27.3,457.4 27.5,457.8 28.4,457.2 29.7,455.7 30.4,454.8 30.8,454.6 29.4,456.7 28.7,457.2 
		28.2,457.7 27.8,460.3 28.2,462.1 28,463.7 27.9,464.6 28.2,465.1 28.6,465 29.5,464.2 29.9,464.1 30.2,464.2 30.7,464.9 
		30.3,464.6 30.1,464.5 29.8,464.6 29.1,465.1 28.7,465.4 28.4,466 28.6,466.3 29.5,466.8 29.6,466.8 29.6,466.8 30.8,466.8 
		31.2,466.7 32.1,465.8 32.9,464.9 33,464.6 33.6,461.2 33.5,460.1 33.3,459.6 33,459.2 32.3,459.4 32.3,459.8 32.3,460.1 
		31.5,460.9 31.5,460.4 32.1,459.2 32.6,458.5 32.4,457.7 32.5,457.1 32.8,456.6 33,455.8 33.3,453.7 33.3,452.2 33.2,451.8 
		32.9,450 33,447.8 32.9,447.4 32.6,446.7 32.4,444.1 32.2,443.4 29.9,442.9 28.8,443.1 27.2,444.2 26.4,444.9 26.2,445.6 
		26.7,446.8 27.3,448.2 27.5,448.6 27.8,448.7 28.2,449.2 28.9,450 28.2,453.4 27.9,454.2 27.2,453.3 26.3,452.2 25.9,451.9 
		26.2,452.6 26,453 25.1,454.3 24.7,454.2 24.1,453.1 23.9,452.8 23.3,453 23.3,453.8 23.8,455 24,455.4 24.2,455.6 24.6,456.2 
		25.1,456.9 25,457.1 24.9,457.1 24.6,456.8 23.7,455.6 23.3,454.8 23.2,454.3 22.6,453.2 22.3,453.2 22.1,453.3 21.6,453.8 
		21.6,454.8 21.7,455.3 22,456.3 22.3,456.1 22.7,455.9 23.2,456.4 23.6,457.1 23.8,458.3 23.5,459.4 	"/>
	<polygon class="st0" points="27,442.3 26.8,442.6 26.4,443.6 26.4,443.8 26.6,443.9 26.8,443.9 26.8,443.9 27.1,443.9 27.5,443.8 
		27.6,443.7 27.8,443.6 28.9,442.6 28.5,442.4 28,442.3 	"/>
	<polygon class="st0" points="23.8,472.5 23.4,472.8 23.2,473.1 23.2,473.4 23.3,473.5 23.4,473.6 24.2,473.6 24.5,473.5 
		24.6,473.4 26,471.5 26.3,471.1 26.3,471.1 26.7,471 26.9,470.9 29.1,469.6 29.3,469 29.3,468.4 29.2,468.1 29,467.9 28.5,468.1 
		28.6,468.3 28.4,468.7 26.6,469.2 26.1,469.2 26.2,469 26.3,468.8 26.9,468.2 25.4,466.4 25.3,466.3 23.5,465.8 23.3,465.9 
		22.3,466.6 22.5,467.2 23.5,468 24.3,468.6 25.1,468.8 25.2,469.4 25.3,470.2 24.7,470.3 23.7,470.1 23.3,469.8 23.1,469.7 
		22.9,469.4 23,469.2 23.5,469.2 23.8,469.2 23.9,469.1 24,468.9 24,468.7 23.2,468.4 23,468.3 22.8,468.4 22.6,468.4 22.5,468.6 
		22.4,468.9 22.1,469.7 21.8,470.7 21.7,471.9 21.7,472.2 21.8,472.3 21.9,472.3 23.1,471.8 23.7,471.5 24.4,471.3 24.6,471.4 
		24.1,472.1 	"/>
	<polygon class="st0" points="32.6,502 32.7,501.6 32.7,501.1 32.5,500.8 32.1,500.5 30.3,502.3 30.2,502.5 30.1,502.7 30,503.1 
		30,503.1 30,503.4 30.1,503.5 30.6,503.3 31.9,502.4 	"/>
	<polygon class="st0" points="29.8,505.3 30.5,505 31.5,503.4 31.3,503 29.3,504.2 29.2,504.6 29.1,505 29.2,505.2 29.3,505.3 
		29.5,505.4 29.6,505.4 	"/>
	<polygon class="st0" points="27.6,453.4 27.7,453.5 28.1,450.6 28.2,450.4 28.1,449.8 27.5,449.1 27.2,448.9 25.5,448.7 
		24.8,449.7 24.6,449.9 24.3,450.5 24.2,450.7 24.2,451 24.7,451.3 26.4,451.9 27.5,453.2 27.5,453.2 	"/>
	<polygon class="st0" points="26.3,443 26.3,442.8 26.3,442.5 26.2,442.3 26.1,442.1 26,442.1 24.8,443.5 24.1,444.4 24.1,444.7 
		25.4,445.5 25.4,445.5 25.6,445.5 25.7,445.3 26,444.5 26.3,443.2 	"/>
	<polygon class="st0" points="25.4,445.5 25.4,445.5 25.4,445.5 	"/>
	<polygon class="st0" points="26,446.4 25.8,446.1 25.7,446 25.6,445.8 25.2,445.5 24.8,445.3 24.5,445.1 24.3,445.1 23.8,444.9 
		23.4,444.9 24.3,447.8 24.6,448.3 24.6,448.3 24.7,448.3 24.9,448.3 26.1,447.8 26.2,447.7 26.2,447.5 26,446.6 	"/>
	<polygon class="st0" points="78.2,542.5 78.1,542.5 78,542.7 77.9,543.1 77.9,543.3 78,543.5 78.5,544.2 78.7,544.3 80.2,544.9 
		80.5,545 80.6,545 80.6,545 80.7,545 80.9,544.9 81.2,544.6 81.3,544.4 81.3,544.1 81.1,543.7 80.5,543.3 78.5,542.5 	"/>
	<polygon class="st0" points="78.2,533.2 78.3,532.9 78.4,532.7 78.4,531.3 78.2,531.1 77.7,531.2 77.5,531.4 77.4,531.5 
		77.4,531.8 77.3,532.2 77.2,532.5 77.1,532.7 76.9,532.9 76.7,533.2 76.5,533.4 76.3,533.5 76.2,533.6 75.8,533.7 75.7,534 
		75.8,535.2 75.9,535.5 76,535.6 76.5,535.9 76.6,536 76.8,536.2 76.9,536.5 76.9,536.8 76.8,537 76.6,537.1 76.4,537.1 76.3,537.1 
		76,536.8 75.1,536.5 74.9,536.5 74.3,536.7 73.7,537.1 73.6,537.3 73.6,538.4 73.6,538.7 73.8,540.6 74.5,541.9 74.7,542.1 
		75.7,543.1 75.9,543.2 76.3,543.4 76.8,543.6 77.7,544 77.8,544.1 78,543.8 77.8,542.4 77.7,542.1 77.2,540.5 77,540.1 76.9,540 
		76.7,539.8 76.5,539.5 76.4,539.3 76.3,539.1 76.2,538.5 76.2,538.2 76.2,538 77.3,539.1 77.4,539.2 77.8,539.7 78.1,540.1 
		78.4,540.3 78.6,540.4 78.8,540.4 78.9,540.4 79.4,540.4 79.6,540.3 79.8,540.1 79.9,539.8 79.5,538.6 78.8,536.9 78.2,534.3 
		78.2,534 78.2,533.8 78.2,533.4 	"/>
	<polygon class="st0" points="19.4,447.3 19.5,447.6 19.5,447.7 19.6,447.9 21.2,449.1 21.5,449.1 21.6,449 21.7,448.8 22.1,448.1 
		23.2,447.6 23.3,447.8 24,449.8 24,449.8 24.1,449.7 24.2,449.6 24.6,449.1 24.6,448.9 23.7,446.5 23.5,446.1 23.3,446 22.9,445.8 
		22.7,445.7 20.7,445.6 19.8,445.9 19.7,446.1 19.5,446.6 19.5,446.8 19.4,447.1 	"/>
	<polygon class="st0" points="80.3,540.6 80.2,540.4 78.3,540.8 78.2,540.9 78.1,541.1 78.2,541.3 78.3,541.6 78.6,541.9 
		79.7,542.6 79.8,542.7 79.8,542.7 80,542.6 80.1,542.5 80.3,542.1 80.5,541.3 80.5,540.9 	"/>
	<polygon class="st0" points="29.5,505.4 29.5,505.4 29.5,505.4 	"/>
	<polygon class="st0" points="77.8,544.1 77.8,544.1 77.8,544.1 	"/>
	<polygon class="st0" points="36.6,506.4 36.5,506.3 36.2,506.2 36,506.1 35.9,506.2 35.7,506.3 35.6,506.5 35.7,508 36.1,508.8 
		36.6,509.2 36.6,509.2 36.7,509.3 37.1,509.2 38.5,508.5 39,508.1 39,507.9 37.3,505.8 36.8,505.2 36.1,504.4 35.2,503.6 35,503.5 
		34.9,503.4 34.7,503.4 34.5,503.5 34.3,503.6 33.5,504.4 33.6,504.6 33.9,504.9 34.1,505 34.4,505 34.6,504.9 35.2,504.8 
		36.2,505.2 36.5,505.4 36.6,505.5 37.1,506.5 36.9,506.6 	"/>
	<polygon class="st0" points="44.2,518.9 44,519.1 44.1,519.3 44.5,519.7 44.7,519.7 45,519.7 45,519.7 45.2,519.6 45.4,518.8 
		44.9,518.2 44.8,518.1 43.1,517.6 41.7,518 41.1,518.5 41.2,518.7 41.5,518.5 42.5,518.3 42.7,518.3 43.6,518.4 44.1,518.5 
		44.5,518.8 44.3,518.9 	"/>
	<polygon class="st0" points="82.2,512.7 84.8,511.5 85.9,511.3 86.3,511.6 87.5,511.8 87.7,511.6 87.9,511.3 88.5,510.7 
		88.8,510.3 89.6,509.1 89.6,507.8 89.7,507.3 89.8,506.9 90.1,506.7 92.1,505.8 92.8,505.8 93,505.8 93.4,505.8 93.8,506 
		94.4,506.3 94.7,506.6 95.1,507 95.4,507.1 95.8,507.3 97.2,507.6 97.4,507.6 98.8,507.6 100.8,508 101.1,508.1 101.5,509 
		101.6,508 100,507.6 99.2,507.5 98.3,507.3 97.1,507.1 95.9,506.2 95.3,505.8 94.8,505.6 92.5,504.6 91.9,504.6 89.9,504.6 
		86.4,503.1 84.4,502.1 83.8,501.9 82.5,501.9 78.8,501.9 69.8,501.9 64.5,501.9 62,501.9 61.7,500.4 61.7,499.8 61.5,499.3 
		60,497.6 59.5,497.2 59.2,497 59,496.8 58.7,496.7 58.1,496.6 57.7,496.4 56.5,493 56.8,492.8 57.1,492.5 57.5,490.9 57.5,490.2 
		57.5,489.4 57.7,488.9 58,488.5 58.2,488 57.7,487.4 57.3,487.2 57,487 56.8,486.6 56.5,485.7 57.2,484.3 57.8,484.3 58,483.9 
		58.3,481.1 58.2,480.7 57.9,480.1 57.6,479.8 57.2,479.3 57.2,478.9 57.6,477.9 57.7,477.5 56.8,476.8 55.4,476.6 55.1,476.6 
		54.9,476.8 54.6,477.1 54.4,477.6 54.1,477.8 53.8,477.8 53.4,477.7 53.2,477.5 53,477.2 52.7,476.9 52.3,476.9 51.1,477.5 
		50.7,477.7 50.5,477.9 49.8,478.8 49.5,479.2 49.1,479.4 48.7,479.5 48.4,479.6 48.1,479.6 47.9,479.4 47.6,479 47,476.5 
		46.8,474.7 46.6,472.1 46.5,471.7 46,470.6 45.9,470.3 45.7,470 44.7,469.2 43.7,468.5 43.5,468 43.7,467.4 43.9,466.8 44.2,466.4 
		44.3,465.9 44.1,465.5 43.8,465.3 43.3,464.8 43.6,463.2 43.9,462.9 44.4,462.5 44.6,462.1 43.8,458.9 43.2,458.1 43,457.8 
		43.5,456.1 44.4,453.8 44.8,453.7 48.1,453.6 48.7,453 47.7,452.7 47.6,452.6 44.2,449.7 41.5,447.4 37.5,443.9 36.8,443.6 
		35.8,443.5 35.5,443.7 35,444 34.8,444.1 34.4,443.9 34,443.6 33.3,444.8 33.1,445.2 33.1,445.7 33.3,446.6 33.6,447.1 33.8,447.7 
		33.7,451.1 33.7,454.3 34,455.8 35.3,457.4 35.5,457.6 35.8,457.6 36.1,457.2 36.4,454.8 36.6,453.9 37,452.4 37.8,451 37.7,449.4 
		37.8,448.7 39.5,448.5 40.2,448.9 40.2,449.3 39.8,449.2 39.6,449 39.3,448.8 38.9,448.8 38.6,448.9 38.4,449.1 38.1,449.6 
		37.9,449.9 38.3,452.7 38.9,453.8 39.1,454 39.5,454.1 40,454.4 39.6,454.5 39.2,454.4 38.6,454 38.4,453.6 38.3,453.3 37.8,452.9 
		37.5,452.9 37.3,453.2 36.9,455.5 37,456.7 37.2,457 38.4,457.4 39.2,457.3 39.7,457.6 39.7,458.6 40,459.8 40.8,459.9 41,460.1 
		41.3,460.7 41.6,461.5 41.4,462.1 41.1,461.1 40.4,460.3 40,460.2 39.6,460 39.3,459.5 39.1,458.5 38.9,458.1 37.3,457.7 37,457.8 
		35.5,458.3 34.6,459.2 34.6,459.6 34.6,460.5 34.9,461.2 35.1,461.3 36.1,461 37.6,460.8 37.5,461.4 37,461.5 36.6,461.3 
		36.1,461.4 35.5,461.6 34.3,462.3 34.6,463.5 34.9,464 37.2,465.1 38.2,465.6 39.4,466.1 39.6,466.6 39.5,467.1 36.9,466 
		35.8,464.8 35.2,464.6 34.4,464.5 34.2,464.9 34.1,465.7 35.9,469 36.3,469.4 36.5,469.5 36.8,469.5 39.8,470.9 39.6,471.1 
		39.4,471.1 38.7,470.9 36,469.7 35.2,468.8 34.9,468.2 34.3,467.4 33.4,467.5 32.7,467.3 31.6,467.6 31.1,468 30.7,468.5 
		30.4,468.9 30.4,469.5 32.9,471.9 35,473.4 36.9,473.6 37.4,474.2 38.4,474.9 39,475.1 39.5,475.5 38,475.3 37.7,475.1 37.4,474.9 
		37.2,474.6 36.9,474.4 35.9,474 35,474.3 35.6,476.5 36.5,478.4 36.9,479.5 37.8,480.6 38.9,480.7 39.1,480.6 40.3,479.4 
		40.4,479.1 40.3,478.5 40.2,478.1 40.6,476.6 40.9,475.5 41,475.1 43.2,473 42.8,474.5 42.6,474.7 42.3,474.9 41.9,475 41.6,475.1 
		41.4,475.5 41.5,475.9 42.2,476.8 42.7,476.9 43.2,477 43.9,477.7 43.6,478.5 43.2,478.3 43.1,477.7 42.4,477.3 42.1,477.3 
		41.1,477.6 40.8,478.1 40.8,479.9 40,482.2 39.6,481.5 39.3,481.3 36.7,481.3 36.2,481.5 35.7,481.9 35.5,482.4 35.6,484.3 
		35.8,484.5 36.5,485 36.8,487 37.3,487.4 39.4,488 39.6,488 39.9,487.8 41,486.4 41.3,486.2 41.6,486.5 41.8,488.5 41.7,488 
		41.2,487.3 40.8,487.7 41.7,491.3 42.8,494.6 42.8,495.1 42.6,495.2 42.5,494.4 41.9,492.9 41.6,492.2 40.4,490.8 39.4,490.5 
		39.1,491.1 39.1,491.5 39.4,495 39.9,495.2 40.7,495.4 41,496.6 41.7,498 42.7,496.8 44.3,496.3 43.8,497 43.4,497.2 43,497.4 
		44.2,500.3 45.1,502.2 44.8,502.3 43.9,500.9 43,498.9 42.9,498.5 42.3,498.9 42.8,500.2 43.1,501.4 43.1,502.1 43.2,502.7 
		43.5,502.9 45.7,504.8 46.1,505 46.4,504.9 46.5,504.2 45.9,498.2 45.8,497.2 45.4,496.3 45.3,495.8 45.9,496.4 46,496.9 
		46.3,498.4 46.3,500.4 46.5,502.5 46.9,503.5 47.3,503.6 47.6,503.6 47.6,503.6 47.9,501.4 48.1,500.9 48.7,500.5 49.4,500.2 
		50.2,499.8 50.5,499.4 50.4,499 50,498.7 49.6,498.9 48.9,499.5 47.5,499.7 48.3,499.5 48.8,499.4 49,499.2 49.7,498 49.4,497.4 
		49.1,497 48.6,496.8 48.2,497 47.9,497 47.5,496.9 47.1,496.7 46.5,494.9 47,494.8 47.7,495.3 49.9,497 51.8,497.9 52.1,498.5 
		52.9,499 54,498.9 54.6,498.1 54.8,497.2 54.6,496.9 53.3,496.5 53,496.4 51.4,494.8 50,493.5 49,492.9 48,492.6 47.5,493 
		47.2,493.1 46.8,492.9 46.6,492.5 47,492.2 47.9,491.9 48.4,491.8 48.8,492.2 49.1,492.6 50.7,493.7 51.6,494.1 52.2,494.1 
		52.7,494.2 53,494.4 53.6,495 55.3,497 55.8,498.1 55.9,500.5 55.7,500.8 55.5,501.1 55.2,501.2 53.9,501 53.5,501.4 53.7,503 
		54.8,504.4 55.6,505.4 55.8,505.8 55.5,507.9 54.5,508.9 53.9,509.3 51.8,510.2 50.9,510.5 50.5,510.4 52.6,509 54.2,508.4 
		54.5,508 55,505.7 54.8,505.2 54.2,504.1 54,503.9 53.6,503.6 53.1,502.9 53.2,501.8 52,500.9 51.3,501.3 50.3,503.6 50.3,505.2 
		51.1,505.8 51.4,505 51.4,504.5 51.8,503.5 52.1,503.2 52.3,503.8 51.6,506.4 51.2,506.9 50.7,506.6 49.8,505.5 49.9,504.6 
		49.9,503.3 49.4,503.2 48.6,503.7 47.8,504.1 47.2,505 47,505.8 46.7,506 46,506.1 45.8,506.1 44.4,505.2 43.9,505.6 43.5,505.6 
		42.2,503.4 42,502.8 41.7,502.4 41.4,502.7 41.3,503.3 41.5,503.8 42.4,505.1 43.1,506.3 43.3,508.1 43,509.1 42.6,509 42.3,508.9 
		42.1,509.3 42.1,509.8 42.7,511.5 42.9,511.9 43.4,512.1 43.3,512.4 43,512.2 42.5,512.4 41.9,513.1 41.8,515.4 42.7,515.9 
		42.9,515.5 43.3,514.8 44,514.1 45.3,513 45.5,512.9 45.8,513.1 45.9,513.9 46,514.3 46.2,514.4 46.7,514.4 47.8,512.7 47.9,512.4 
		47.7,511.4 48,511.1 48.9,510.9 49.2,510.9 49.5,510.9 50.6,511.2 50.9,511.6 50.6,511.5 50,511.3 49,511.1 48.5,511.4 46.8,515.3 
		46.8,516.1 47,516.6 45.3,516.9 45,516.5 43.9,516.5 43.4,516.9 45.6,518.4 47,518.6 46.1,519.5 44.6,520.7 46.1,522.1 47.4,522.7 
		48.3,522.6 48.6,522.4 48.7,522.3 49.9,521.9 50.2,521.1 50.3,520.3 50,519.1 49.6,517.9 49.9,517.4 50.2,517 50.5,516.9 
		51.2,516.7 52,516.1 52.5,515.5 53.3,514.3 53.3,513.8 51.8,513.3 51,513.8 50.8,513.6 52.1,512 53.9,512.1 54.8,511.9 55.1,511.7 
		56.3,511.3 56.6,511.6 56,511.9 55.7,511.9 55.4,512.1 54.8,512.9 56.3,514.1 56.8,512.8 57.1,512.1 57.5,511.6 57.9,511.6 
		59.6,511.5 62,511.8 63.7,512.2 65.2,512.4 65.5,512.4 65.8,512.3 66.2,512.3 66.5,512.6 67,513.7 65.4,514.5 65,514.7 64.7,514.7 
		64.2,514.8 63.4,514.8 62.8,514.8 62.2,514.6 61,513.7 59.1,514 58.9,514.4 57.6,515.9 56.2,517.1 55.7,517.2 54.4,516.8 
		52.8,515.8 50.6,517.3 50.1,517.9 50.2,519.4 50.6,520.5 51,521.2 50.8,522 50.7,522.2 50.4,522.6 51.3,523.4 51.6,523.3 51.9,523 
		52.2,522.9 53,523 53.6,523.4 52.9,523.4 52.4,523.3 52,524.1 52.5,524.6 53.1,525.2 52.9,526.2 52.4,526.2 52.2,526 51.4,524.6 
		50.3,523.7 49.7,523.6 48.8,523.8 46.2,523.7 47.2,525.1 48,525.8 48.3,525.9 48.6,525.9 48.9,526 50.1,527 50.3,527.4 51.2,528 
		52.7,528.8 54.9,530.7 55.3,531 55.4,531 56.5,530.9 56.7,530.5 56.5,530 55.3,528.3 55,528.3 54.7,528.6 53.8,527.5 53.7,526.8 
		53.9,527 54.2,527.5 54.8,527.7 55.1,527.5 56.3,525.3 55.9,525.1 55.7,525.1 55.3,524.9 55,524.4 55.5,524.2 56.3,524.4 
		56.8,524.8 57.2,524.9 58.7,524.4 58.9,524 58.6,523.6 56.9,522 55.8,522 54.8,522.2 55.2,521.8 57.6,521.2 58.5,521.5 58.7,521.7 
		59,522.1 59.2,522.5 59.4,522.8 59.8,523.1 60.2,523.1 60.8,523 62,521.1 62.2,520.6 63.1,519.8 65.5,518.3 68.4,516.7 69.5,516.8 
		70.5,517 71.1,518 71,518.5 68.7,522.5 68.5,522.7 68.2,522.9 68,523.1 67.6,523.2 67.3,523.2 67,523.1 64,524.7 63.7,526 
		63.6,527.2 63.8,528.1 63.8,529.4 63.3,530.4 63,530.6 61.6,531.1 61.1,531.5 61,531.4 61,530.8 61.4,530.5 61.7,530.4 62.8,529.8 
		63.1,529.5 63.4,529.2 63.5,528.8 62.9,525.2 62.6,524.8 61.2,524.8 60.9,525.2 60.8,525.8 60.8,526.2 60.9,527 61,527.6 60.9,528 
		60.3,528.5 59.9,528.8 58.9,529.1 58.5,528.9 59.3,528.4 60,528 60.1,527.5 60.2,526.8 60.1,526.4 59.8,525.5 57.8,525.2 
		56.3,526.6 55.9,528.3 56.3,529.2 56.6,529.7 57.1,530.6 57.8,531.6 59.8,533.7 60.5,534.1 61.8,534.5 62.7,534.7 64.5,536.1 
		65.2,536.3 65.7,536.3 65.9,536.3 66.5,536.4 66.9,536.4 67.3,536.5 69.2,537.5 69.8,537.3 71.9,536.3 72.5,535.6 72.7,535.1 
		73.1,532.7 73.2,532 73.1,531.3 73,530.8 72.9,530.2 72.7,529.7 72.6,529 72.5,528.6 72.5,528 72.9,524.7 73,524.2 73.2,523.8 
		73.5,523.5 73.7,523.1 74.6,520.5 74.6,519.1 74.4,518.9 74.2,518.3 74.6,515.6 76,515.3 77.8,515.1 78.1,515.1 81.8,512.8 	"/>
	<polygon class="st0" points="67.9,542.9 67.6,542.9 67.4,543 67.4,543.3 67.4,543.7 68.5,545.7 69.6,546.2 70.2,546.3 70.6,546.9 
		70.8,547.1 71.1,547.1 71.2,547 72.6,544.9 72.5,543.1 72.3,541.6 72.2,541.4 71.4,540.9 70.4,541.3 69.5,541.1 69.2,539.9 
		69.2,539.9 69.1,539.6 69,539.5 68.2,539 67.1,538.5 66,538.5 65.5,538.6 65.3,538.7 65,539 64.9,539.5 65.2,541.7 64.5,542.5 
		64.5,542.8 64.6,543.2 64.7,543.6 64.9,544.2 65.1,544.3 66.3,544.6 66.3,544.1 66.4,543.9 66.8,542.7 67.7,541.9 68.2,542.6 
		68.1,542.8 	"/>
	<polygon class="st0" points="26.7,492.1 26.9,492.3 27,492.3 27.5,491.9 27.7,491.8 28.3,491.7 28.7,491.7 29.2,491.6 29.4,491.5 
		29.9,490.4 30.1,489.9 30.6,489.6 31,491 31.1,491.1 31.4,491.1 31.5,491 32,490.5 32.1,490.2 32.2,488.7 31.9,487.9 31.8,487.8 
		31.3,487.1 30.1,487.2 29.3,487.4 27.4,489.4 27.3,489.6 27.3,489.8 27.4,490 27.5,490.2 27.7,490.3 28,490.1 29.2,489.4 
		29.3,489.5 29.2,489.7 28.4,490.6 28.1,490.8 27.5,491 26.7,491.6 	"/>
	<polygon class="st0" points="33.1,484.4 33,484.2 32.8,484.1 32.7,484.1 31.4,485 31.4,485.5 31.7,486.5 31.9,486.7 33.4,487.4 
		33.4,487.4 33.5,487.4 33.6,487.4 33.9,486.8 33.9,486.3 33.9,486 33.8,485.9 	"/>
	<polygon class="st0" points="31.3,472.3 30.7,472.2 30.5,472.2 30.3,472.3 29.7,472.8 29.3,474.5 29.4,474.6 29.7,474.7 
		29.7,474.7 29.9,474.7 30,474.6 31,473.9 31.9,473 32.1,472.7 32.1,472.6 	"/>
	<polygon class="st0" points="30.5,481.7 30.6,481.3 30.8,480.6 30.7,480.4 29.8,478.3 29.1,477.7 28.9,477.6 28.1,477.9 
		27.5,478.8 27.4,479 27.3,479.6 27.6,480.8 27.8,481.1 29,481.5 29.4,481.6 30.3,481.7 30.3,481.7 	"/>
	<polygon class="st0" points="33.7,481.1 33.7,480.8 33.6,480.6 32.7,479.7 32,479.2 31.2,478.8 30.8,478.7 30.5,478.9 30.5,479.1 
		30.6,479.2 30.7,479.4 30.9,479.4 31.2,479.7 31.3,480 31.3,480.4 31.3,481.8 30.4,482.2 29.8,482 28.5,481.6 27.8,481.6 
		27.7,481.7 27.4,482.5 27.3,482.8 27.3,483 27.4,483.2 28.2,484.8 30.1,485.7 30.1,485.7 30.1,485.7 31.1,485.3 31.2,485.2 
		31.4,484.4 32.7,483.6 32.8,483.6 33,483.7 33.3,484.2 33.5,484.8 33.5,485.2 33.7,485.2 33.8,485.1 34,484.1 	"/>
	<polygon class="st0" points="39,515.3 39.1,515.4 39.2,515.4 39.2,515.4 39.6,515.2 40,514.9 40.1,514.9 40.3,515 40.5,514.9 
		40.6,514.7 40.7,514.5 41.4,513.1 42,510.8 41.5,509.7 41.4,509.5 41.3,509.4 41.1,509.4 40.9,509.4 40.2,509.8 38.4,511.6 
		37.8,512.3 37.6,512.5 37.4,513.2 37.4,513.4 37.5,513.6 	"/>
	<polygon class="st0" points="25.7,478.9 25.9,479.7 26,479.9 26.2,480 26.2,480 26.6,480.3 26.9,480.3 27.1,480.2 27.2,477.9 
		27.1,477.6 27,477.5 26.2,477.4 26,477.5 25.6,478.6 	"/>
	<polygon class="st0" points="35.6,480.2 35.9,481 36,481 36.1,480.9 36.2,480.3 36.3,479.9 36.2,479.5 35.6,477.9 35.2,476.9 
		34.1,474.5 32.2,473.3 32.1,473.3 31.9,473.3 31.5,473.6 31.4,473.7 30.7,474.3 31.9,474.9 32.1,474.9 32.5,474.8 32.6,474.8 
		33.4,475.2 32.6,476 31.8,476.8 31.7,477 31.8,477.4 31.9,477.6 32.4,478.9 32.5,479 33.7,479.9 34.6,480.3 34.7,480.1 35.2,479.8 
		35.5,480 	"/>
	<polygon class="st0" points="34,499.9 35.7,500.9 36.4,501 36.6,501 36.8,500.9 37.2,499.8 37.3,499.6 36.3,499 34,497.1 
		32.6,496.6 33.4,499.1 	"/>
	<polygon class="st0" points="48.6,503.1 48.8,503 49.5,502.8 49.8,502.7 50.9,500.4 51,499.8 50,500.1 49.1,500.6 49,500.7 
		48.6,501.7 48.5,501.9 48.4,502.1 48.3,502.5 48.4,502.9 48.5,503 	"/>
	<polygon class="st0" points="36.2,488.8 35.3,489.1 35.3,489.4 35.3,490 35.5,491 35.6,491.1 36.1,491.5 36.7,491.8 36.8,491.9 
		37,491.9 37,491.7 37,490.7 37,490.5 36.4,488.9 	"/>
	<polygon class="st0" points="40.8,507 40.7,506.8 40.5,506.5 38.9,505.6 38.4,504.9 37.9,504.5 37.7,504.5 37.4,504.7 37.2,505 
		37.3,505.4 37.4,505.5 38.3,506.7 39.3,507.5 39.6,508.6 40.1,509.2 40.1,509.2 40.2,509.3 40.5,509.3 41,509 41.1,508.8 
		41.2,508.5 40.9,507.2 	"/>
	<polygon class="st0" points="40,500 40.3,499.8 40.3,499.5 39.8,498.7 39.6,498.4 39.5,498.3 39.4,498.2 39.2,498.1 39.1,498.2 
		38.7,498.9 38.8,499.8 39,499.9 39.9,500.1 39.9,500.1 	"/>
	<polygon class="st0" points="40,496.1 39.3,495.7 39,495.7 38.9,495.9 38.9,496.2 39.9,498.2 40,498.4 40.2,498.5 40.5,498.6 
		40.6,498.6 40.6,498.6 40.9,497.9 41,497.6 40.6,496.9 	"/>
	<polygon class="st0" points="41.6,506.3 41.8,506.3 41.8,506 41.8,505.7 41.6,504.7 41,503.3 40.9,503.1 40.5,502.7 39.9,502.1 
		38,500.4 37.7,500.2 37.6,500.2 37.2,500.5 37,501.2 37,501.9 37.2,502 37.4,502.2 38.8,503 39.5,503.5 39.7,503.7 40.5,504.5 
		41,505.3 41.4,505.9 41.4,506 41.4,506 	"/>
	<polygon class="st0" points="35.6,485 34.9,482.8 34.7,482.3 34.4,482.3 34.3,482.5 34.4,484.2 34.6,485.2 35.1,487.6 35.1,487.6 
		35.1,487.7 35,488 35.1,488.1 35.3,488.2 35.4,488.1 36.1,487.3 36,486.6 	"/>
	<polygon class="st0" points="38.6,488 38.3,487.8 37.5,487.7 37.3,487.7 37.1,487.8 37.1,487.9 36.9,488.8 36.9,489 37.1,490.2 
		37.3,490.4 37.4,490.5 37.4,490.5 37.7,490.5 38.8,489.6 38.8,489.2 38.7,488.3 	"/>
	<polygon class="st0" points="33.2,456.8 33.3,458.4 33.4,459 33.6,459.3 35,458.1 35,457.9 34.5,456.8 34.4,456.6 34.1,456.4 
		33.4,455.8 33.3,455.8 33.2,456.1 	"/>
	<polygon class="st0" points="37.4,493.5 37.3,493.5 37.2,493.6 37.1,493.7 37.3,494.8 36.7,495.9 36.2,495.8 35.7,496 35.6,496.1 
		35.6,496.5 35.8,496.7 36,496.9 37.6,498.1 37.8,498.2 38,498.3 38.2,498.3 38.3,498.3 38.5,498.2 38.8,498.1 39,498 39.1,497.8 
		39.1,497.5 37.6,493.7 	"/>
	<polygon class="st0" points="34.1,354.6 35.1,355.1 36.6,355.5 37.8,355.7 38.8,355.8 39.1,355.8 39.4,356.1 39.8,356.4 
		41.3,356.1 41.6,356 41.8,354.6 41.6,354.1 41.3,353.8 41,353.5 40.8,352.2 41.3,352 43.8,352.3 44.1,352 44,351.6 43.7,351.1 
		43.3,350.4 43.2,350.1 42.6,349.7 42.3,349.2 42.4,348.6 42.8,348.4 43.2,348.5 44.1,348.3 44.2,348 44,347.1 43.8,346.9 
		43.2,346.5 42.6,346.3 40.5,344.1 40.4,342.7 40.7,342.1 41,342 40.8,342.6 41.4,343.2 42.7,342.7 42.5,342.5 42.2,342.3 
		41.8,341.9 41.9,340.6 42.1,340.3 42.3,340.2 43.1,339.8 43.4,339.7 44,339.8 45.2,339.5 45.4,339.2 45.5,338.7 45.2,337.8 
		44.9,337.7 44.1,337.2 44,336.8 44.1,336.4 44.4,336.3 44.6,335.8 43.7,334.4 44,332.4 43.2,331.9 42.8,331.9 41.7,332 40.5,332.7 
		40,333.1 39.7,333.3 38.7,332.9 38.3,332.5 38.5,332.2 38.7,332.3 39,332.5 39.4,332.5 39.6,332.2 39.3,331.5 38,331.4 37.6,332 
		37.6,332.3 37.7,332.7 38.2,333.5 37.8,335.9 37.4,337.1 36.9,337.6 36.7,337.9 36.4,338.2 36.3,338.5 36.1,341.3 35.9,342.6 
		36.2,342.8 36.4,342.9 36.6,343.7 36.7,344.8 36.3,348.5 35.8,349.8 35.4,350.1 35.6,350.6 34.5,351.9 33.7,354.1 33.9,354.4 	"/>
	<polygon class="st0" points="39.6,332.2 39.6,332.2 39.6,332.2 	"/>
	<polygon class="st0" points="28.6,359.5 28.7,359.6 29.1,360.2 29.3,360.3 29.3,360.3 29.8,360 29.9,359.9 30.1,359.8 30.3,359.8 
		30.6,359.8 30.8,359.8 31.1,359.6 31,359.3 30.7,359 30.6,358.9 29.6,358.4 29.5,358.4 28.5,358.9 28.5,359.2 28.5,359.3 	"/>
	<polygon class="st0" points="44.6,342.9 44.7,343.4 44.9,343.4 44.9,342.9 44.9,342.9 43.6,340.8 43.4,340.6 43.1,340.5 
		42.7,340.6 42.4,340.6 42.3,340.7 42.2,340.8 42.5,341.7 42.7,341.8 43.1,341.9 43.2,342 44.3,342.5 44.5,342.7 44.5,342.8 	"/>
</g>
</svg>
