<?xml version="1.0" encoding="utf-8"?>
<!-- Generator: Adobe Illustrator 22.1.0, SVG Export Plug-In . SVG Version: 6.00 Build 0)  -->
<svg version="1.1" id="Capa_1" xmlns="http://www.w3.org/2000/svg" xmlns:xlink="http://www.w3.org/1999/xlink" x="0px" y="0px"
	 viewBox="0 0 57.6 55.4" style="enable-background:new 0 0 57.6 55.4;" xml:space="preserve">
<style type="text/css">
	.st0{fill:#54515C;}
</style>
<path class="st0" d="M18.9,25.9c-1.2,0-2.2,0.9-2.2,2.2c0,1.2,0.9,2.2,2.2,2.2s2.2-0.9,2.2-2.2C21.1,26.9,20.1,25.9,18.9,25.9z
	 M18.9,28.8c-0.4,0-0.7-0.3-0.7-0.7c0-0.4,0.3-0.7,0.7-0.7c0.4,0,0.7,0.3,0.7,0.7S19.3,28.8,18.9,28.8z"/>
<path class="st0" d="M25.4,25.9c-1.2,0-2.2,0.9-2.2,2.2c0,1.2,0.9,2.2,2.2,2.2c1.2,0,2.2-0.9,2.2-2.2C27.5,26.9,26.6,25.9,25.4,25.9
	z M25.4,28.8c-0.4,0-0.7-0.3-0.7-0.7c0-0.4,0.3-0.7,0.7-0.7s0.7,0.3,0.7,0.7S25.8,28.8,25.4,28.8z"/>
<path class="st0" d="M40.5,28.1c0-1.2-0.9-2.2-2.2-2.2c-1.2,0-2.2,0.9-2.2,2.2c0,1.2,0.9,2.2,2.2,2.2C39.6,30.3,40.5,29.3,40.5,28.1
	z M37.6,28.1c0-0.4,0.3-0.7,0.7-0.7s0.7,0.3,0.7,0.7c0,0.4-0.3,0.7-0.7,0.7S37.6,28.5,37.6,28.1z"/>
<path class="st0" d="M31.9,25.9c-1.2,0-2.2,0.9-2.2,2.2c0,1.2,0.9,2.2,2.2,2.2c1.2,0,2.2-0.9,2.2-2.2C34,26.9,33.1,25.9,31.9,25.9z
	 M31.9,28.8c-0.4,0-0.7-0.3-0.7-0.7c0-0.4,0.3-0.7,0.7-0.7c0.4,0,0.7,0.3,0.7,0.7S32.3,28.8,31.9,28.8z"/>
<path class="st0" d="M38.4,23.8H37H19.6h-4.3v0.7v0.7h23.1c1.6,0,2.9,1.3,2.9,2.9S40,31,38.4,31H15.3v0.7v0.7h23.1
	c2.4,0,4.3-1.9,4.3-4.3S40.7,23.8,38.4,23.8z"/>
<path class="st0" d="M29,2.3C14.9,2.3,3.4,13.7,3.4,27.8s11.4,25.5,25.5,25.5s25.5-11.4,25.5-25.5C54.5,13.7,43.1,2.3,29,2.3z
	 M29,49.8c-12.1,0-22-9.8-22-22c0-12.1,9.8-22,22-22c12.1,0,22,9.8,22,22C51,39.9,41.1,49.8,29,49.8z"/>
</svg>
