<?xml version="1.0" encoding="utf-8"?>
<!-- Generator: Adobe Illustrator 22.1.0, SVG Export Plug-In . SVG Version: 6.00 Build 0)  -->
<svg version="1.1" id="Capa_1" xmlns="http://www.w3.org/2000/svg" xmlns:xlink="http://www.w3.org/1999/xlink" x="0px" y="0px"
	 viewBox="0 0 623.6 102.1" style="enable-background:new 0 0 623.6 102.1;" xml:space="preserve">
<style type="text/css">
	.st0{fill:#86431E;}
	.st1{fill:#7F4A27;}
	.st2{opacity:0.1;fill:#E35B28;}
	.st3{opacity:0.1;fill:#54515C;}
	.st4{opacity:0.1;}
	.st5{fill:#54515C;}
</style>
<rect x="521.5" y="74.5" class="st0" width="59.8" height="3.5"/>
<rect x="461.7" y="74.5" class="st1" width="59.8" height="3.5"/>
<rect x="401.8" y="74.5" class="st2" width="59.8" height="3.5"/>
<rect x="342" y="74.5" class="st2" width="59.8" height="3.5"/>
<rect x="282.1" y="74.5" class="st2" width="59.8" height="3.5"/>
<rect x="222.3" y="74.5" class="st3" width="59.8" height="3.5"/>
<rect x="44.1" y="74.5" class="st3" width="58.5" height="3.5"/>
<g class="st4">
	<rect x="102.6" y="74.5" class="st5" width="59.8" height="3.5"/>
</g>
<rect x="162.5" y="74.5" class="st3" width="59.8" height="3.5"/>
<path class="st3" d="M41.6,78c-2.4,0-3.6-1.3-4.5-2.3c-0.8-0.9-1.2-1.2-2-1.2s-1.2,0.4-2,1.2c-0.9,1-2.1,2.3-4.5,2.3
	s-3.6-1.3-4.5-2.3c-0.8-0.9-1.2-1.2-2-1.2s-1.2,0.4-2,1.2c-0.9,1-2.1,2.3-4.5,2.3s-3.6-1.3-4.5-2.3c-0.8-0.9-1.2-1.2-2-1.2
	s-1.2,0.4-2,1.2C6.3,76.7,5,78,2.6,78c-1,0-1.8-0.8-1.8-1.8s0.8-1.8,1.8-1.8c0.8,0,1.2-0.4,2-1.2c0.9-1,2.1-2.3,4.5-2.3
	s3.6,1.3,4.5,2.3c0.8,0.9,1.2,1.2,2,1.2c0.8,0,1.2-0.4,2-1.2c0.9-1,2.1-2.3,4.5-2.3s3.6,1.3,4.5,2.3c0.8,0.9,1.2,1.2,2,1.2
	s1.2-0.4,2-1.2c0.9-1,2.1-2.3,4.5-2.3c2.4,0,3.6,1.3,4.5,2.3c0.8,0.9,1.2,1.2,2,1.2H44V78H41.6z"/>
<path class="st3" d="M41.6,87c-2.4,0-3.6-1.3-4.5-2.3c-0.8-0.9-1.2-1.2-2-1.2s-1.2,0.4-2,1.2c-0.9,1-2.1,2.3-4.5,2.3
	s-3.6-1.3-4.5-2.3c-0.8-0.9-1.2-1.2-2-1.2s-1.2,0.4-2,1.2c-0.9,1-2.1,2.3-4.5,2.3s-3.6-1.3-4.5-2.3c-0.8-0.9-1.2-1.2-2-1.2
	s-1.2,0.4-2,1.2C6.3,85.7,5,87,2.6,87c-1,0-1.8-0.8-1.8-1.8s0.8-1.8,1.8-1.8c0.8,0,1.2-0.4,2-1.2c0.9-1,2.1-2.3,4.5-2.3
	s3.6,1.3,4.5,2.3c0.8,0.9,1.2,1.2,2,1.2c0.8,0,1.2-0.4,2-1.2c0.9-1,2.1-2.3,4.5-2.3s3.6,1.3,4.5,2.3c0.8,0.9,1.2,1.2,2,1.2
	s1.2-0.4,2-1.2c0.9-1,2.1-2.3,4.5-2.3c2.4,0,3.6,1.3,4.5,2.3c0.8,0.9,1.2,1.2,2,1.2H44V87H41.6z"/>
<path class="st3" d="M41.6,95.9c-2.4,0-3.6-1.3-4.5-2.3c-0.8-0.9-1.2-1.2-2-1.2s-1.2,0.4-2,1.2c-0.9,1-2.1,2.3-4.5,2.3
	s-3.6-1.3-4.5-2.3c-0.8-0.9-1.2-1.2-2-1.2s-1.2,0.4-2,1.2c-0.9,1-2.1,2.3-4.5,2.3s-3.6-1.3-4.5-2.3c-0.8-0.9-1.2-1.2-2-1.2
	s-1.2,0.4-2,1.2c-0.9,1-2.1,2.3-4.5,2.3c-1,0-1.8-0.8-1.8-1.8s0.8-1.8,1.8-1.8c0.8,0,1.2-0.4,2-1.2c0.9-1,2.1-2.3,4.5-2.3
	s3.6,1.3,4.5,2.3c0.8,0.9,1.2,1.2,2,1.2c0.8,0,1.2-0.4,2-1.2c0.9-1,2.1-2.3,4.5-2.3s3.6,1.3,4.5,2.3c0.8,0.9,1.2,1.2,2,1.2
	s1.2-0.4,2-1.2c0.9-1,2.1-2.3,4.5-2.3s3.6,1.3,4.5,2.3c0.8,0.9,1.2,1.2,2,1.2H44v3.6C44,95.9,41.6,95.9,41.6,95.9z"/>
<path class="st0" d="M645.2,31.4l1.7-1.6l4-6l2.7-1.7l6.9,3.3c2.4,2.2,5.1,4.8,6.1,5.9c0,1.6,0.1,5.2,0.6,7.9l-2.6,1.5l-4.8-3.7
	l-5,1.1l-3.7-2.2l-4.4,1.6l0.1,0.3l3.3,1.1l2.7,7.7l1.5,5.7l3.3,4.3l4.2,3v6.8l12,11.6h21.4l-2.5-4c-1.2-2-2.7-4.5-3-5.2
	c-0.4-2.6-1.9-11.7-2.8-13c-0.1-0.1-11.6-13.5-14.3-16.5c-0.4-1.7-0.7-7.7-0.7-8.9c0-1.2,0-1.7-8.1-9.1l-0.3-0.3l-10.2-4.9l-6.1,3.8
	l-3.5,5.3L645.2,31.4z M689.8,69.5c0,0,0-0.2-0.1-0.6C689.8,69,689.8,69.2,689.8,69.5z"/>
<path class="st0" d="M635.7,17.2l-0.2-0.5L624.6,6.1l-6.5,4.9l-3.3,5.6l-8,5.6v10c-0.4,0.4-1.2,1.1-2,1.6l-0.3,0.2l-6.7,8.3
	l-2.4,12.2l-8.3,3.9L578.5,78h84.7h3.1l-9.8-9.4v-6.3l-2.6-1.9l-4.4-5.8l-1.7-6.6l-1.8-5l-3.5-1.2l-4.4-17.4 M633.8,33.9l-1.1-2.4
	l-2.4,4.6l-2.6-2h-3.3l-1.5-3.7l-5,3.7l-2.6-2.4l-2,2.4l-1.2-2.1v-7.2l6.7-4.7l3.3-5.7l2.1-1.6l6.9,6.7c1.6,4.4,3.7,10,4.9,13.4
	L633.8,33.9z"/>
</svg>
