<?xml version="1.0" encoding="utf-8"?>
<!-- Generator: Adobe Illustrator 22.1.0, SVG Export Plug-In . SVG Version: 6.00 Build 0)  -->
<svg version="1.1" id="Capa_1" xmlns="http://www.w3.org/2000/svg" xmlns:xlink="http://www.w3.org/1999/xlink" x="0px" y="0px"
	 viewBox="0 0 57.6 55.4" style="enable-background:new 0 0 57.6 55.4;" xml:space="preserve">
<style type="text/css">
	.st0{fill:#54515C;}
</style>
<path class="st0" d="M29,2.3C14.9,2.3,3.5,13.7,3.5,27.8c0,14.1,11.4,25.5,25.5,25.5c14.1,0,25.5-11.4,25.5-25.5
	C54.5,13.7,43.1,2.3,29,2.3z M29,49.8c-12.1,0-22-9.8-22-22c0-12.1,9.8-22,22-22c12.1,0,22,9.8,22,22C51,39.9,41.2,49.8,29,49.8z"/>
<path class="st0" d="M32.8,22.2h3.5v-0.8h-3.6l-0.4-3.1h4v-0.8h-4.1v-2.3h-6.7v2.3h-4.1v0.8h4l-0.4,3.1h-3.6v0.8h3.5L22.7,38h-1.1
	v2.4h5.1v-1.7l4.3,0v1.7h5.1V38h-1.1L32.8,22.2z M32.7,27.1l0.6,4.4h-7.9L32.7,27.1z M32.6,26.1h-6.5l6-3.6L32.6,26.1z M31.9,21.5
	h-5.2l4.8-2.9L31.9,21.5z M26.3,16.1h5.1v1.5h-5.1V16.1z M26.3,18.4h4.2l-4.6,2.7L26.3,18.4z M25.7,22.2H31l-5.8,3.5L25.7,22.2z
	 M25.1,26.8h6.6l-7.2,4.3L25.1,26.8z M24.3,32.3h8.1l-8.8,5.3L24.3,32.3z M26,39.6h-3.6v-0.9H26V39.6z M31,38l-4.3,0h-0.1l-2.2,0
	l9.1-5.4l0.8,5.4L31,38L31,38L31,38z M35.4,38.7v0.9h-3.6v-0.9l3.4,0l0,0L35.4,38.7z M23.1,22.6h-1.6v0.8h1.6V22.6z M34.7,23.4h1.6
	v-0.8h-1.6V23.4z M23.1,18.8h-1.6v0.8h1.6V18.8z M34.7,18.8v0.8h1.6v-0.8H34.7z"/>
</svg>
