<?xml version="1.0" encoding="utf-8"?>
<!-- Generator: Adobe Illustrator 22.1.0, SVG Export Plug-In . SVG Version: 6.00 Build 0)  -->
<svg version="1.1" id="Capa_1" xmlns="http://www.w3.org/2000/svg" xmlns:xlink="http://www.w3.org/1999/xlink" x="0px" y="0px"
	 viewBox="0 0 57.6 55.4" style="enable-background:new 0 0 57.6 55.4;" xml:space="preserve">
<style type="text/css">
	.st0{fill:#86431E;}
</style>
<g>
	<path class="st0" d="M29.2,2.3C15.1,2.3,3.6,13.7,3.6,27.8S15,53.3,29.1,53.3s25.5-11.4,25.5-25.5C54.7,13.7,43.3,2.3,29.2,2.3z
		 M29.2,49.8c-12.1,0-22-9.8-22-22c0-12.1,9.8-22,22-22c12.1,0,22,9.8,22,22C51.2,39.9,41.3,49.8,29.2,49.8z"/>
</g>
<g transform="translate(0,-952.36218)">
	<path class="st0" d="M29.2,968.4C29.2,968.4,29.1,968.4,29.2,968.4c-0.2,0-0.3,0.1-0.4,0.2c0,0-2.1,2.4-4.1,5.6
		c-2.1,3.1-4.2,6.8-4.2,9.8c0,4.7,3.9,8.4,8.7,8.4s8.7-3.7,8.7-8.4c0-2.9-2.1-6.7-4.2-9.8s-4.1-5.6-4.1-5.6
		C29.5,968.5,29.3,968.4,29.2,968.4L29.2,968.4z M35.2,983.4c0.3,0,0.5,0.2,0.6,0.5v0.1c0,3.3-2.7,6-6,6c-0.3,0-0.5-0.2-0.5-0.6
		c0-0.3,0.2-0.6,0.5-0.6l0,0c2.8,0,5-2.2,5-4.8C34.7,983.7,34.9,983.4,35.2,983.4L35.2,983.4z"/>
</g>
</svg>
