<?xml version="1.0" encoding="utf-8"?>
<!-- Generator: Adobe Illustrator 22.1.0, SVG Export Plug-In . SVG Version: 6.00 Build 0)  -->
<svg version="1.1" id="Capa_1" xmlns="http://www.w3.org/2000/svg" xmlns:xlink="http://www.w3.org/1999/xlink" x="0px" y="0px"
	 viewBox="0 0 495.4 495.4" style="enable-background:new 0 0 495.4 495.4;" xml:space="preserve">
<style type="text/css">
	.st0{fill:#54515C;}
</style>
<path class="st0" d="M374.1,366.6c14.6-13.9,19.6-34.6,15.1-61.3l0.1-0.1l0,0c17.6-19.4,32-40.1,41.8-60c21.2-43,13.3-65.2,3-76.2
	c-18.4-19.6-59.3-19.6-106.8,0.1c-2.9,1.2-6.3,2.5-10,3.9c-15.2-15.8-43.7-36.2-61.9-44.3c-66.3-29.2-122.7-13.9-150.8,40.9
	c-5.8,10.9-9.9,23.8-12.4,38l-0.1,0.1l0,0c-27.5,24.8-39.3,65-29.5,100.8c10.6,38.5,46.3,69.2,81.5,69.9c0.4,0,0.9,0,1.3,0
	c13.3,0,29.3-3.9,49.8-12.1c17.3,10.9,40.2,14.7,58.7,14.7c3.8,0,7.5-0.2,10.8-0.5l3.5,0.8c16.8,3.5,32,5.2,45.5,5.2
	C340.4,386.6,360.6,379.9,374.1,366.6z M328.1,179.7c1.1-0.4,2.1-0.8,3.1-1.3c42.8-17.8,80.3-18.8,95.5-2.5
	c11.7,12.5,10.1,34.9-4.7,64.8c-8.5,17.3-20.6,35.2-35.4,52.3c-0.2-0.9-0.4-1.7-0.7-2.6c2.4-4.9,3.9-10,4.4-15.5l0.1-1.1
	c0.1-1.2,0.2-2.4,0.2-3.6c0-0.8,0-1.7-0.1-2.9l-0.1-1.6c-0.1-1.3-0.2-2.7-0.5-4.5c-5-32.7-37-64.8-62.4-81.2l0.7-0.2L328.1,179.7z
	 M113.6,174.3c9-17.7,32.2-50.4,79.2-50.4c16.4,0,35.8,4,58.5,14c11.3,5,27.4,15.5,41.1,26.4c-0.7-0.2-1.5-0.4-2.2-0.6
	c-1.7-0.5-3.4-1-5-1.4c-2.3-0.6-4.6-1.2-6.9-1.7c-1.8-0.4-3.6-0.8-5.4-1.2c-2.2-0.4-4.5-0.8-6.7-1.2c-1.8-0.3-3.7-0.6-5.5-0.8
	c-2.2-0.3-4.5-0.5-6.7-0.7c-1.9-0.2-3.7-0.4-5.6-0.5c-2.3-0.2-4.6-0.2-6.9-0.3c-1.8-0.1-3.6-0.1-5.5-0.1c-2.6,0-5.2,0.1-7.8,0.2
	c-1.6,0.1-3.2,0.1-4.8,0.2c-4,0.3-7.9,0.6-11.9,1.1c-1.8,0.2-3.6,0.5-5.3,0.8c-2.4,0.4-4.8,0.7-7.2,1.2c-1.9,0.4-3.9,0.8-5.8,1.2
	c-2.3,0.5-4.6,1-6.8,1.5c-2,0.5-3.9,1-5.9,1.6c-2.3,0.6-4.5,1.3-6.8,2c-2,0.6-3.9,1.3-5.9,1.9c-2.3,0.8-4.6,1.6-6.9,2.5
	c-1.9,0.7-3.9,1.5-5.8,2.2c-2.4,0.9-4.7,2-7.1,3c-1.9,0.8-3.8,1.6-5.6,2.5c-2.5,1.2-5,2.4-7.6,3.7c-1.7,0.9-3.5,1.7-5.2,2.6
	c-2.9,1.5-5.9,3.2-8.8,4.9c-1.3,0.7-2.6,1.4-3.9,2.2c-4.1,2.4-8.2,4.9-12.4,7.6C106.7,189.6,109.8,181.5,113.6,174.3z M101.6,213.1
	c0.7-0.6,1.4-1.1,2-1.7c0.4-0.3,0.8-0.7,1.2-0.9c1.3-1,2.6-1.9,3.8-2.7c4.2-2.7,8.5-5.4,12.7-7.8c1.5-0.9,3-1.6,4.4-2.5
	c2.7-1.5,5.5-3.1,8.2-4.6c1.8-0.9,3.5-1.7,5.3-2.6c2.5-1.2,4.9-2.5,7.4-3.6c1.9-0.9,3.7-1.6,5.6-2.4c2.4-1,4.7-2.1,7.1-3
	c1.9-0.8,3.9-1.4,5.8-2.1c2.3-0.8,4.6-1.7,6.8-2.5c2-0.7,3.9-1.2,5.9-1.8c2.2-0.7,4.5-1.4,6.7-2c2-0.5,4-1,6-1.5
	c2.2-0.5,4.4-1.1,6.5-1.5c2-0.4,4-0.8,6-1.1c2.1-0.4,4.3-0.8,6.4-1.1c2-0.3,4.1-0.5,6.1-0.7c2.1-0.2,4.2-0.5,6.3-0.6
	c2-0.2,4.1-0.2,6.1-0.3c2.1-0.1,4.1-0.2,6.2-0.2c2,0,4.1,0,6.1,0.1c2,0,4.1,0.1,6.1,0.2c2,0.1,4.1,0.3,6.1,0.5s4,0.4,6,0.6
	c2,0.3,4,0.6,6.1,0.9c2,0.3,4,0.7,5.9,1.1c2,0.4,4,0.8,6,1.3s3.9,1,5.9,1.5s3.9,1.1,5.9,1.7c2,0.6,3.9,1.2,5.9,1.9
	c1.9,0.7,3.8,1.3,5.8,2.1c0.7,0.3,1.5,0.6,2.2,0.9c-1.4,0.5-2.8,1-4.3,1.5c-51.1,18-128.4,45.2-134.7,86.3c-0.4,2.9-0.7,6.1-0.7,9.6
	c-0.3,15.7,3.5,37.1,11.2,63.7c-16-7-29.6-13.9-39.7-20.3C113,306,100,272.2,100,235.4C100,228,100.5,220.5,101.6,213.1z
	 M144.4,368.4c-30.9-0.6-62.5-28.1-71.9-62.5c-7.6-27.6-0.3-59.3,17.8-81.5c-0.2,3.5-0.3,7.1-0.3,10.6c0,36.9,11.9,75.7,38.6,92.7
	c12.8,8.1,30.7,17,51.9,25.7c1.5,2,3.3,4,5.2,5.9C168.7,365.7,155.3,368.6,144.4,368.4z M183.4,337.3L183.4,337.3
	c-7.5-25.9-11.2-46.5-11-61.2c0-3,0.2-5.8,0.6-8.2c5.3-35.1,82.2-62.1,128.1-78.3c5.1-1.8,9.8-3.4,14.2-5
	c27.9,15.2,60.2,49,64.8,78.6c0.2,1.1,0.3,2.2,0.4,3.3l0.1,1.6c0,0.7,0.1,1.4,0,2.1c0,1-0.1,1.9-0.2,2.9l-0.1,0.8
	c-1,10.1-6.2,19-15.2,26.3c-7,5.7-24.4,6.1-39.8,6.5c-12.1,0.3-23.5,0.6-31.3,3.2c-13.7,4.6-31.1,13.4-49.4,22.7
	c-15.8,8-32.1,16.1-48,22.8C189.9,350.2,185.4,344.1,183.4,337.3z M264.7,370.5c-20.3,1.9-41.6-1.5-57.2-8.9
	c14-6.2,28-13.3,41.7-20.1c18.1-9.1,35.1-17.7,48.1-22.1c6.4-2.1,17-2.4,28.3-2.7c17.8-0.4,36.2-0.9,45.9-8.7c2.5-2,4.8-4.2,6.8-6.4
	c0,0.2,0.1,0.3,0.1,0.5c-1.9,2-3.8,3.9-5.7,5.8c-1.7,1.7-3.3,3.4-5,5.1c-2.2,2.2-4.5,4.2-6.8,6.2c-1.7,1.6-3.4,3.2-5.2,4.7
	c-2.3,2-4.6,3.8-7,5.7c-1.8,1.4-3.5,2.9-5.3,4.3c-2.4,1.8-4.8,3.5-7.2,5.2c-1.7,1.2-3.5,2.6-5.2,3.8c-2.5,1.7-5,3.2-7.4,4.7
	c-1.7,1.1-3.4,2.2-5.1,3.2c-2.6,1.5-5.2,2.9-7.9,4.3c-1.6,0.8-3.1,1.8-4.7,2.5c-2.9,1.4-5.8,2.6-8.7,3.9c-1.3,0.6-2.6,1.2-3.9,1.7
	c-4.2,1.7-8.3,3.2-12.5,4.4C276.4,368.9,271,369.9,264.7,370.5z M290.7,374.9c1-0.3,1.9-0.8,2.9-1.2c1.8-0.7,3.6-1.4,5.3-2.1
	c2.2-0.9,4.4-1.9,6.6-2.9c1.8-0.8,3.6-1.7,5.4-2.6c2.2-1.1,4.4-2.3,6.6-3.4c1.8-1,3.6-1.9,5.4-3c2.2-1.3,4.4-2.7,6.6-4
	c1.8-1.1,3.5-2.2,5.2-3.3c2.3-1.5,4.5-3.1,6.8-4.7c1.7-1.2,3.3-2.3,5-3.6c2.4-1.8,4.7-3.6,7-5.5c1.5-1.2,3.1-2.4,4.6-3.6
	c2.6-2.2,5.3-4.5,7.9-6.9c1.2-1,2.4-2,3.5-3.1c3.7-3.4,7.3-6.9,10.9-10.5c2,19.7-2.4,34.3-13.3,44.7
	C351.9,374.3,326.3,379.5,290.7,374.9z"/>
</svg>
