<?xml version="1.0" encoding="utf-8"?>
<!-- Generator: Adobe Illustrator 22.1.0, SVG Export Plug-In . SVG Version: 6.00 Build 0)  -->
<svg version="1.1" id="Capa_1" xmlns="http://www.w3.org/2000/svg" xmlns:xlink="http://www.w3.org/1999/xlink" x="0px" y="0px"
	 viewBox="0 0 1366 768" style="enable-background:new 0 0 1366 768;" xml:space="preserve">
<style type="text/css">
	.st0{fill:#54515C;}
	.st1{fill:#9C999F;}
	.st2{fill:#FED100;}
	.st3{fill:#7AB800;}
	.st4{fill:#E35B28;}
	.st5{fill:#86431E;}
</style>
<polygon class="st0" points="465.9,472.9 465.9,543.5 465.6,543.6 420.9,472.9 408.4,472.9 408.4,565.6 420.9,565.6 420.9,494.9 
	421.3,494.8 465.9,565.6 478.5,565.6 478.5,472.9 "/>
<path class="st0" d="M535.6,555.4c-2.1,3.7-4.8,6.5-8.3,8.5c-3.4,2-7.3,3-11.7,3c-7.5,0-13.4-2.4-17.6-7.2
	c-4.1-4.8-6.3-12.3-6.3-22.5v-40.5h12.5v40.7c0,7.3,1.1,12.4,3.3,15.1c2.2,2.7,5.6,4.1,10.1,4.1s8.1-0.9,11-2.7s5.1-4.4,6.6-7.7
	v-49.6h12.6v68.9h-11.3L535.6,555.4z"/>
<path class="st0" d="M587.9,566.9c-9.9,0-17.6-3.2-23.1-9.5c-5.6-6.3-8.3-14.7-8.3-25v-2.8c0-9.9,2.8-18,8.6-24.6
	c5.7-6.5,12.7-9.7,20.9-9.7c9.2,0,16,2.8,20.6,8.6c4.7,5.7,7,13.3,7,22.8v6.6h-44l-0.2,0.3c0,6.9,1.6,12.6,4.6,16.8
	c3.1,4.3,7.7,6.4,14,6.4c4.2,0,8-0.6,11.2-1.8s5.9-2.8,8.2-5l4.9,8.1c-2.5,2.4-5.8,4.3-9.8,6C598.6,566.1,593.6,566.9,587.9,566.9
	 M586,505.3c-4.4,0-8,1.7-10.9,5.1s-4.6,7.7-5.3,12.9l0.2,0.4h31v-1c0-5-1.2-9.2-3.7-12.4C594.9,506.9,591.1,505.3,586,505.3"/>
<polygon class="st0" points="661.8,496.7 646,545.2 644.8,550.1 644.4,550.1 643.3,545.2 627,496.7 614.1,496.7 639.8,565.6 
	649.2,565.6 674.6,496.7 "/>
<path class="st0" d="M720.7,565.6c-0.4-2.1-0.7-3.9-1-5.6c-0.2-1.6-0.4-3.1-0.4-4.8c-2.4,3.3-5.4,6.1-9.2,8.3
	c-3.7,2.2-7.8,3.4-12.2,3.4c-7.1,0-12.6-1.9-16.3-5.5c-3.7-3.7-5.7-8.7-5.7-15.2c0-6.6,2.7-11.7,8-15.5c5.3-3.7,12.6-5.6,21.7-5.6
	h13.6v-6.8c0-4-1.3-7.2-3.7-9.5c-2.4-2.4-5.9-3.6-10.4-3.6c-4.1,0-7.4,1-9.9,3.1c-2.5,2-3.7,4.5-3.7,7.3l-11.9,0.1l-0.1-0.4
	c-0.3-5,2.1-9.6,7-13.8c5.1-4.2,11.5-6.2,19.3-6.2c7.9,0,14.1,1.9,18.8,5.9c4.8,4,7.1,9.7,7.1,17.1v33.2c0,2.5,0.2,4.8,0.5,7.1
	c0.2,2.3,0.7,4.5,1.3,6.8h-12.8L720.7,565.6L720.7,565.6z M699.9,556.4c4.5,0,8.6-1.2,12.3-3.5c3.6-2.4,5.9-5,7.1-8v-11.2h-14.1
	c-5.1,0-9,1.3-12.1,3.9c-3,2.5-4.6,5.5-4.6,8.9c0,3.1,1,5.5,2.9,7.3C693.3,555.5,696.2,556.4,699.9,556.4"/>
<path class="st1" d="M811.3,472.9v61.6c0,10.2-3,18.2-9.3,23.8c-6.3,5.7-14.2,8.6-24,8.6s-17.6-2.9-23.8-8.6
	c-6.2-5.7-9.2-13.7-9.2-23.8v-61.6h7.6v61.6c0,8,2.4,14.3,7.1,19c4.7,4.6,10.7,7,18.2,7s13.6-2.3,18.5-7c4.9-4.6,7.4-11,7.4-19
	v-61.6H811.3z"/>
<path class="st1" d="M832.2,496.7l0.6,12c2.3-4.2,5.3-7.5,9.1-9.8c3.7-2.3,8.1-3.4,13.3-3.4c7.5,0,13.2,2.2,17,6.8
	c4,4.5,5.9,11.6,5.9,21.4v41.9h-7.7v-41.9c0-7.9-1.5-13.5-4.3-16.8c-3-3.3-7.1-4.9-12.6-4.9c-5.4,0-9.9,1.3-13.2,4
	c-3.4,2.7-5.8,6.2-7.2,10.7v48.8h-7.6v-68.9h6.7V496.7z"/>
<path class="st1" d="M892.4,477h7.5v-10.7h-7.5V477z M892.4,565.6h7.5v-68.9h-7.5V565.6z"/>
<path class="st1" d="M910.3,530.1c0-10.1,2.8-18.5,8.3-24.9c5.5-6.5,12.9-9.7,22.1-9.7c9.2,0,16.5,3.2,22.1,9.7s8.3,14.8,8.3,24.9
	v2.1c0,10.2-2.8,18.5-8.3,25c-5.4,6.5-12.8,9.7-22,9.7c-9.3,0-16.7-3.2-22.2-9.7c-5.6-6.4-8.3-14.8-8.3-25L910.3,530.1L910.3,530.1z
	 M917.9,532.2c0,8,2,14.7,6,20.1c4,5.4,9.6,8.1,16.9,8.1c7,0,12.7-2.7,16.7-8.1c4.1-5.4,6.2-12.1,6.2-20.1v-2.1
	c0-7.8-2.1-14.5-6.2-20c-4.1-5.5-9.7-8.2-16.8-8.2s-12.8,2.7-16.8,8.2s-6,12.1-6,20L917.9,532.2L917.9,532.2z M950.2,467.5h9.3
	l0.2,0.4L944,484.4h-6.9L950.2,467.5z"/>
<path class="st1" d="M987.3,496.7l0.7,12c2.2-4.2,5.2-7.5,8.9-9.8s8.2-3.4,13.3-3.4c7.5,0,13.2,2.2,17.1,6.8
	c3.9,4.5,5.8,11.6,5.8,21.4v41.9h-7.6v-41.9c0-7.9-1.4-13.5-4.5-16.8c-2.9-3.3-7.1-4.9-12.6-4.9c-5.4,0-9.8,1.3-13.1,4
	s-5.7,6.2-7.2,10.7v48.8h-7.6v-68.9h6.8L987.3,496.7L987.3,496.7z"/>
<path class="st2" d="M349.4,389.8c-38.6-24.6-47.1-104.5-22.1-151.4c30.9-60.4,91-62,144-38.6c19.6,8.6,49.9,31.1,63.1,46
	c23.9,26.9,46.2,59.8,59.4,95.9c9.9,28.1,18.2,64.9-5.3,87.4c-25.2,24.7-70.8,19.7-101.1,13.5C448.8,434.6,383.4,411.4,349.4,389.8"
	/>
<path class="st3" d="M386.4,333.2c7.1-47.1,121.2-76.6,160.9-93.2c73.5-30.5,138.5-14.8,97.3,69.1C619,361,560.5,420,500.6,438.3
	c-31.3,9.5-93.4,1.7-103.7-33.9C392.5,389.6,383.1,354.9,386.4,333.2"/>
<path class="st4" d="M362.7,439.5c-34.4-0.7-67-31-76.6-66.1c-10.6-38.6,5.9-82.6,38.3-103.6c64.6-41.9,136-57.3,205-26.7
	c38.5,17.1,106.3,86.8,57,126.8c-14.1,11.5-55.3,4.7-72.5,10.5C475.4,393.3,406.3,440.3,362.7,439.5"/>
<path class="st5" d="M533.9,245.1c-47.3,17.3-141.1,45.5-147.5,88c-3.3,21.7,6.2,56.4,10.5,71.2c2.7,9.3,8.9,16.7,17.3,22.4
	c35.8-14.7,74.3-38,99.7-46.5c17.3-5.8,58.4,1,72.5-10.5C633.8,331.3,573,265.4,533.9,245.1"/>
<path class="st1" d="M1062.2,564.8h4.7c1.4,0,2.5-0.4,3.5-1.1c0.9-0.7,1.4-1.7,1.4-3c0-1.5-0.4-2.6-1.2-3.2c-0.8-0.6-2.2-1-4.2-1
	h-4.2L1062.2,564.8L1062.2,564.8z M1062.2,567.2v9.3h-2.6v-22.3h6.8c2.6,0,4.6,0.5,5.9,1.7c1.4,1.1,2.1,2.7,2.1,4.9
	c0,1.2-0.3,2.2-1,3.1c-0.6,0.9-1.6,1.6-2.7,2.1c1.2,0.4,2,1.1,2.6,2c0.5,0.9,0.8,2,0.8,3.4v1.5c0,0.7,0,1.3,0.1,1.9
	c0.1,0.6,0.2,1,0.3,1.4v0.4h-2.7c-0.2-0.4-0.3-0.9-0.3-1.6c0-0.7,0-1.4,0-2.2v-1.4c0-1.5-0.3-2.5-1-3.2s-1.8-1-3.3-1L1062.2,567.2
	L1062.2,567.2z M1050.1,565.7c0,4.9,1.6,9,4.8,12.4c3.2,3.4,7.1,5,11.6,5s8.4-1.7,11.6-5c3.2-3.4,4.8-7.5,4.8-12.4
	c0-4.8-1.6-8.9-4.8-12.3c-3.2-3.3-7.1-5-11.6-5s-8.4,1.7-11.6,5C1051.7,556.8,1050.1,560.8,1050.1,565.7 M1047.8,565.7
	c0-5.5,1.8-10.2,5.4-13.9c3.6-3.8,8-5.7,13.2-5.7s9.6,1.9,13.2,5.7s5.4,8.4,5.4,13.9s-1.8,10.2-5.4,14s-8,5.7-13.2,5.7
	s-9.6-1.9-13.2-5.7C1049.7,575.9,1047.8,571.2,1047.8,565.7"/>
</svg>
