<?xml version="1.0" encoding="utf-8"?>
<!-- Generator: Adobe Illustrator 22.0.0, SVG Export Plug-In . SVG Version: 6.00 Build 0)  -->
<svg version="1.1" id="Capa_1" xmlns="http://www.w3.org/2000/svg" xmlns:xlink="http://www.w3.org/1999/xlink" x="0px" y="0px"
	 viewBox="0 0 1920 1200" style="enable-background:new 0 0 1920 1200;" xml:space="preserve">
<style type="text/css">
	.st0{fill:none;stroke:#FFFFFF;stroke-width:16;stroke-linecap:round;stroke-linejoin:round;stroke-miterlimit:10;}
	.st1{fill:none;stroke:#FFFFFF;stroke-width:8;stroke-miterlimit:10;}
	.st2{fill:none;stroke:#0096FF;stroke-width:8;stroke-linecap:round;stroke-linejoin:round;stroke-miterlimit:10;}
	.st3{fill:#0096FF;}
</style>
<g id="Capa_2_1_">
</g>
<g id="Capa_1_2_">
	<polyline class="st0" points="759,719 762,735 769.2,747.1 778.2,747.5 788.3,753.5 797.7,753.9 804.5,758 805.6,764 808.2,767.8 
		808.6,772.6 814.2,774.1 818.7,779.4 823.2,780.5 828.1,782 834.1,782.8 837.5,784.6 840.5,781.6 844.6,785 850.6,780.5 853.6,779 
		857.3,782 858.8,785.4 864.1,783.9 868.2,790.3 874.2,791.8 879.1,794.4 885.8,794.4 888.5,797.8 891.8,804.1 895.6,804.9 
		900.1,806 906.1,809 916.6,809.4 921.5,808.3 924.5,802.3 926.7,800.8 931.2,802.3 936.1,803.8 943.6,802.6 947,801.5 949.2,800 
		952.2,795.1 956.7,795.5 965,795.5 969.5,792.1 977,788.4 984.1,786.1 994.2,779 1001.3,773.8 1006.2,772.3 1017.1,771.5 
		1020.1,770.4 1023.8,763.6 1028.7,764.4 1032.8,758.4 1035.5,753.5 1035.8,748.3 1041.8,737 1046,728.8 1045.2,716.8 1046.7,713 
		1047.5,708.1 1054.2,700.6 1058.7,693.9 1071.1,696.9 1085,696.9 1094.7,698 1108.6,695.8 1116.1,694.6 1128.1,693.9 1143.8,695.4 
		1157.3,697.3 1166,699.9 1176.5,702.1 1181.7,702.1 1187.3,700.6 1194.8,700.6 1209.1,701.8 1218.8,702.5 1227.1,700.3 
		1232.3,700.3 1239.8,696.9 1243.6,697.3 1248.1,699.1 1249.6,695.8 1254.1,694.3 1256.7,695 1259.7,698.8 1261.2,702.5 
		1261.6,705.1 1264.6,707.4 1269.5,710.8 1270.6,714.9 1270.6,720.9 1274.4,723.1 1274.7,727.6 1280,728.4 1285.6,728.8 
		1290.5,732.9 1293.5,734 1296.1,735.9 1295.7,739.6 1298.7,738.5 1302.1,741.1 1303.2,744.1 1309.6,749.4 1310.7,752.8 
		1315.6,755.8 1316.7,759.9 1319,764.4 1318.2,769.6 1320.9,768.9 1323.5,763.6 1328.4,764.8 1332.5,766.6 1334.7,768.1 
		1340.4,768.5 1346,773.4 1350.9,776.4 1350.1,779.4 1351.2,782 1353.9,782 1357.6,785.4 1357.6,788.8 1361.4,791 1364.4,794 
		1364.4,795.9 1362.9,798.9 1366.6,798.5 1370,797 1373,795.5 1373.7,790.6 1377.9,785.4 1377.1,780.1 1383.9,773.8 1393.2,774.1 
		1399.6,768.9 1402.2,763.6 1406.4,758.8 1406.4,753.5 1409.7,749 1414.2,751.6 1417.2,758.8 1418,766.3 1418.7,770.8 1419.1,779 
		1423.2,787.3 1424.4,792.1 1424,796.3 1422.9,797.8 	"/>
</g>
<circle class="st1" cx="769" cy="305" r="11"/>
<circle class="st1" cx="1057" cy="390" r="11"/>
<polyline class="st0" points="769,305 818,350 836,353 861,350 872,341 881,343 886,349 921,366 932,369 962,369 972,374 989,384 
	996,384 1016,370 1026,372 1052,386 "/>
<polyline class="st2" points="769,305 818,350 836,353 861,350 872,341 881,343 886,349 921,366 932,369 962,369 972,374 989,384 
	996,384 1016,370 1026,372 1052,386 "/>
<circle class="st3" cx="769" cy="305" r="11"/>
<circle class="st3" cx="1057" cy="390" r="11"/>
</svg>
