<?xml version="1.0" encoding="utf-8"?>
<!-- Generator: Adobe Illustrator 22.1.0, SVG Export Plug-In . SVG Version: 6.00 Build 0)  -->
<svg version="1.1" id="Capa_1" xmlns="http://www.w3.org/2000/svg" xmlns:xlink="http://www.w3.org/1999/xlink" x="0px" y="0px"
	 viewBox="0 0 1920 1200" style="enable-background:new 0 0 1920 1200;" xml:space="preserve">
<style type="text/css">
	.st0{fill:none;stroke:#FFFFFF;stroke-width:20;stroke-linejoin:round;stroke-miterlimit:10;}
	.st1{fill:none;stroke:#E35B28;stroke-width:12;stroke-linejoin:round;stroke-miterlimit:10;stroke-dasharray:8,8;}
</style>
<g id="Capa_2_1_">
</g>
<g id="Capa_1_2_">
	<g>
		<g>
			<polyline class="st0" points="1424.4,502.6 1425.3,501.5 1426,500.6 1427,499.5 1428.5,499.8 1431.4,500.4 1442,502.5 1457,501 
				1464.5,499.5 1479.5,504.5 1494.5,507 1501,508.5 1512.5,502.5 1516.3,499 1517.4,498 1518.5,497 1519.9,497.6 1522.8,499 
				1529.5,502 1538,507.5 1538.3,507.9 1539.2,509.3 1540,510.5 1541.5,510.5 1544.5,510.6 1558.5,511 1582,512.5 1587,515 
				1607.5,525.5 1636.5,536.5 1649,540.5 1675,550 1699,561 1713,567 1718,567 1723.2,569.9 1724.5,570.6 1725.8,571.4 			"/>
		</g>
	</g>
	<polyline class="st0" points="1383,484.5 1366.5,483 1350.1,484.4 1344.5,486 1338,484.5 1320,486 1312,480.5 1300.5,452.5 
		1277.5,438.5 1269.5,438.5 1262.5,422.5 1262.5,414 1261,400.5 1237.5,399.5 1219,401.5 1188,399 1172.5,402 1145.5,394.5 
		1122.5,392.5 1099.5,396.5 1078,396.5 1064.5,394 1051,418 1049.5,443.5 1033,474 1025,479.5 1006.5,483 993.5,490 983.5,499.5 
		976.5,503 	"/>
</g>
<g id="Capa_1_1_">
	<g>
		<g>
			<polyline class="st1" points="1424.4,502.6 1425.3,501.5 1426,500.6 1427,499.5 1428.5,499.8 1431.4,500.4 1442,502.5 1457,501 
				1464.5,499.5 1479.5,504.5 1494.5,507 1501,508.5 1512.5,502.5 1516.3,499 1517.4,498 1518.5,497 1519.9,497.6 1522.8,499 
				1529.5,502 1538,507.5 1538.3,507.9 1539.2,509.3 1540,510.5 1541.5,510.5 1544.5,510.6 1558.5,511 1582,512.5 1587,515 
				1607.5,525.5 1636.5,536.5 1649,540.5 1675,550 1699,561 1713,567 1718,567 1723.2,569.9 1724.5,570.6 1725.8,571.4 			"/>
		</g>
	</g>
	<polyline class="st1" points="1383,484.5 1366.5,483 1350.1,484.4 1344.5,486 1338,484.5 1320,486 1312,480.5 1300.5,452.5 
		1277.5,438.5 1269.5,438.5 1262.5,422.5 1262.5,414 1261,400.5 1237.5,399.5 1219,401.5 1188,399 1172.5,402 1145.5,394.5 
		1122.5,392.5 1099.5,396.5 1078,396.5 1064.5,394 1051,418 1049.5,443.5 1033,474 1025,479.5 1006.5,483 993.5,490 983.5,499.5 
		976.5,503 	"/>
</g>
</svg>
