<?xml version="1.0" encoding="utf-8"?>
<!-- Generator: Adobe Illustrator 22.1.0, SVG Export Plug-In . SVG Version: 6.00 Build 0)  -->
<svg version="1.1" id="Capa_1" xmlns="http://www.w3.org/2000/svg" xmlns:xlink="http://www.w3.org/1999/xlink" x="0px" y="0px"
	 viewBox="0 0 1920 1200" style="enable-background:new 0 0 1920 1200;" xml:space="preserve">
<style type="text/css">
	.st0{fill:#E35B28;stroke:#FFFFFF;stroke-width:8;stroke-linecap:round;stroke-linejoin:round;stroke-miterlimit:10;}
	.st1{fill:#E35B28;stroke:#E35B28;stroke-width:4;stroke-linecap:round;stroke-linejoin:round;stroke-miterlimit:10;}
</style>
<g id="Capa_2_1_">
</g>
<g id="Capa_1_2_">
	<path class="st0" d="M1413.8,476.8l-11-6.7l-0.7,1.2l-4.8,5.8l-8.2,2.5l-5.1-0.7l-3.4,5.2l0.5,3.5l2.8,1l-3.2,4.5l2,1.8l-1.2,2.8
		v3.5l-3.2,0.8l-2.2,2.5v2.8l-3.2,0.5l-5.5,4l1.8,1.5l6.2-3.2l3,0.2l2.8-0.2l-2.5,2.8h-3.2l-2,2l-2.8,0.2l-1.8,1v1.8l-0.5,2l1.5,1.5
		c0,0,1-2.5,1.8-2.5s2.2,0,2.2,0l1.8,0.2l1.5,0.5l-0.2,2.5l2.2-1.8l2-2.5l1.2,0.8l-1.8,3.2l-2.2,1.5l1.8,1.8l0.5,2.8l-1.8,1
		l-2.2,1.2h3l0.8,2.2l0.2,2.2l-3,5.2l3.2-1l3-1.2l1.5,1.8l2-1.2l3.8,4.5l-0.8-4.5l-4-2.2l0.2-2.5h-3.2v-2.8l1-2.5l0.8-4.2l3.5,2.2
		l-0.5-2.8l-2.5-2.8l3-0.8l-1-2v-1.8l-1.8-1.8l-0.2-2.5l2.2,0.2l1.2,2l0.5,2.5l2,1.2l2.2,1.8l-1.2-2.8v-1.2l2,0.5l-0.5-2.8l-2-3
		l1-2.5l-0.2-2.2l1-1.8v-3.2l1.8,0.5l1.5-2.5l1.8-4l1.2-2l2.5-1l2-0.5l-0.2,3.2l-2.2,1.8l-1.5,1.8l-0.2,1.8l-1.2,1.5l1.8,0.8
		l-0.2,2.2l0.2,2.8l1.5,3.2v-3.5l0.5-2l0.8,1.5l0.8,3.5l0.8-5.2l0.8-4.8l3.2,0.5v5l1.5,3.2l-1.5,1.2l3,1.2l3-1l-2-2l-0.2-3l1.5-1.2
		l0.2-2.2l-2-0.8l2-2.8l-1.2-4l-0.8-1.5l1.5-2.2l1.2,1.5l1.5,2.5l1-4l-1.5-2l0.8-3l0.1,0.1l-0.1-1.9L1413.8,476.8z"/>
</g>
<g id="Capa_1_1_">
	<path class="st1" d="M1413.8,476.8l-11-6.7l-0.7,1.2l-4.8,5.8l-8.2,2.5l-5.1-0.7l-3.4,5.2l0.5,3.5l2.8,1l-3.2,4.5l2,1.8l-1.2,2.8
		v3.5l-3.2,0.8l-2.2,2.5v2.8l-3.2,0.5l-5.5,4l1.8,1.5l6.2-3.2l3,0.2l2.8-0.2l-2.5,2.8h-3.2l-2,2l-2.8,0.2l-1.8,1v1.8l-0.5,2l1.5,1.5
		c0,0,1-2.5,1.8-2.5s2.2,0,2.2,0l1.8,0.2l1.5,0.5l-0.2,2.5l2.2-1.8l2-2.5l1.2,0.8l-1.8,3.2l-2.2,1.5l1.8,1.8l0.5,2.8l-1.8,1
		l-2.2,1.2h3l0.8,2.2l0.2,2.2l-3,5.2l3.2-1l3-1.2l1.5,1.8l2-1.2l3.8,4.5l-0.8-4.5l-4-2.2l0.2-2.5h-3.2v-2.8l1-2.5l0.8-4.2l3.5,2.2
		l-0.5-2.8l-2.5-2.8l3-0.8l-1-2v-1.8l-1.8-1.8l-0.2-2.5l2.2,0.2l1.2,2l0.5,2.5l2,1.2l2.2,1.8l-1.2-2.8v-1.2l2,0.5l-0.5-2.8l-2-3
		l1-2.5l-0.2-2.2l1-1.8v-3.2l1.8,0.5l1.5-2.5l1.8-4l1.2-2l2.5-1l2-0.5l-0.2,3.2l-2.2,1.8l-1.5,1.8l-0.2,1.8l-1.2,1.5l1.8,0.8
		l-0.2,2.2l0.2,2.8l1.5,3.2v-3.5l0.5-2l0.8,1.5l0.8,3.5l0.8-5.2l0.8-4.8l3.2,0.5v5l1.5,3.2l-1.5,1.2l3,1.2l3-1l-2-2l-0.2-3l1.5-1.2
		l0.2-2.2l-2-0.8l2-2.8l-1.2-4l-0.8-1.5l1.5-2.2l1.2,1.5l1.5,2.5l1-4l-1.5-2l0.8-3l0.1,0.1l-0.1-1.9L1413.8,476.8z"/>
</g>
</svg>
