<?xml version="1.0" encoding="utf-8"?>
<!-- Generator: Adobe Illustrator 22.1.0, SVG Export Plug-In . SVG Version: 6.00 Build 0)  -->
<svg version="1.1" id="Capa_1" xmlns="http://www.w3.org/2000/svg" xmlns:xlink="http://www.w3.org/1999/xlink" x="0px" y="0px"
	 viewBox="0 0 1920 1200" style="enable-background:new 0 0 1920 1200;" xml:space="preserve">
<style type="text/css">
	.st0{fill:none;stroke:#FFFFFF;stroke-width:16;stroke-linecap:round;stroke-linejoin:round;stroke-miterlimit:10;}
	.st1{fill:none;stroke:#E35B28;stroke-width:8;stroke-linecap:round;stroke-linejoin:round;stroke-miterlimit:10;}
</style>
<g id="Capa_2_1_">
</g>
<g id="Capa_1_2_">
	<polyline class="st0" points="728,447.3 736.6,451.8 743,451.4 750.1,456.3 755.7,455.9 764.7,455.9 769.2,452.1 778.2,452.5 
		788.3,458.5 797.7,458.9 804.5,463 805.6,469 808.2,472.8 808.6,477.6 814.2,479.1 818.7,484.4 823.2,485.5 828.1,487 834.1,487.8 
		837.5,489.6 840.5,486.6 844.6,490 850.6,485.5 853.6,484 857.3,487 858.8,490.4 864.1,488.9 868.2,495.3 874.2,496.8 879.1,499.4 
		885.8,499.4 888.5,502.8 891.8,509.1 895.6,509.9 900.1,511 906.1,514 916.6,514.4 921.5,513.3 924.5,507.3 926.7,505.8 
		931.2,507.3 936.1,508.8 943.6,507.6 947,506.5 949.2,505 952.2,500.1 956.7,500.5 965,500.5 969.5,497.1 977,493.4 984.1,491.1 
		994.2,484 1001.3,478.8 1006.2,477.3 1017.1,476.5 1020.1,475.4 1023.8,468.6 1028.7,469.4 1032.8,463.4 1035.5,458.5 
		1035.8,453.3 1041.8,442 1046,433.8 1045.2,421.8 1046.7,418 1047.5,413.1 1054.2,405.6 1058.7,398.9 1071.1,401.9 1085,401.9 
		1094.7,403 1108.6,400.8 1116.1,399.6 1128.1,398.9 1143.8,400.4 1157.3,402.3 1166,404.9 1176.5,407.1 1181.7,407.1 1187.3,405.6 
		1194.8,405.6 1209.1,406.8 1218.8,407.5 1227.1,405.3 1232.3,405.3 1239.8,401.9 1243.6,402.3 1248.1,404.1 1249.6,400.8 
		1254.1,399.3 1256.7,400 1259.7,403.8 1261.2,407.5 1261.6,410.1 1264.6,412.4 1269.5,415.8 1270.6,419.9 1270.6,425.9 
		1274.4,428.1 1274.7,432.6 1280,433.4 1285.6,433.8 1290.5,437.9 1293.5,439 1296.1,440.9 1295.7,444.6 1298.7,443.5 1302.1,446.1 
		1303.2,449.1 1309.6,454.4 1310.7,457.8 1315.6,460.8 1316.7,464.9 1319,469.4 1318.2,474.6 1320.9,473.9 1323.5,468.6 
		1328.4,469.8 1332.5,471.6 1334.7,473.1 1340.4,473.5 1346,478.4 1350.9,481.4 1350.1,484.4 1351.2,487 1353.9,487 1357.6,490.4 
		1357.6,493.8 1361.4,496 1364.4,499 1364.4,500.9 1362.9,503.9 1366.6,503.5 1370,502 1373,500.5 1373.7,495.6 1377.9,490.4 
		1377.1,485.1 1383.9,478.8 1393.2,479.1 1399.6,473.9 1402.2,468.6 1406.4,463.8 1406.4,458.5 1409.7,454 1414.2,456.6 
		1417.2,463.8 1418,471.3 1418.7,475.8 1419.1,484 1423.2,492.3 1424.4,497.1 1424,501.3 1422.9,502.8 	"/>
</g>
<g id="Capa_1_1_">
	<polyline class="st1" points="728,447.3 736.6,451.8 743,451.4 750.1,456.3 755.7,455.9 764.7,455.9 769.2,452.1 778.2,452.5 
		788.3,458.5 797.7,458.9 804.5,463 805.6,469 808.2,472.8 808.6,477.6 814.2,479.1 818.7,484.4 823.2,485.5 828.1,487 834.1,487.8 
		837.5,489.6 840.5,486.6 844.6,490 850.6,485.5 853.6,484 857.3,487 858.8,490.4 864.1,488.9 868.2,495.3 874.2,496.8 879.1,499.4 
		885.8,499.4 888.5,502.8 891.8,509.1 895.6,509.9 900.1,511 906.1,514 916.6,514.4 921.5,513.3 924.5,507.3 926.7,505.8 
		931.2,507.3 936.1,508.8 943.6,507.6 947,506.5 949.2,505 952.2,500.1 956.7,500.5 965,500.5 969.5,497.1 977,493.4 984.1,491.1 
		994.2,484 1001.3,478.8 1006.2,477.3 1017.1,476.5 1020.1,475.4 1023.8,468.6 1028.7,469.4 1032.8,463.4 1035.5,458.5 
		1035.8,453.3 1041.8,442 1046,433.8 1045.2,421.8 1046.7,418 1047.5,413.1 1054.2,405.6 1058.7,398.9 1071.1,401.9 1085,401.9 
		1094.7,403 1108.6,400.8 1116.1,399.6 1128.1,398.9 1143.8,400.4 1157.3,402.3 1166,404.9 1176.5,407.1 1181.7,407.1 1187.3,405.6 
		1194.8,405.6 1209.1,406.8 1218.8,407.5 1227.1,405.3 1232.3,405.3 1239.8,401.9 1243.6,402.3 1248.1,404.1 1249.6,400.8 
		1254.1,399.3 1256.7,400 1259.7,403.8 1261.2,407.5 1261.6,410.1 1264.6,412.4 1269.5,415.8 1270.6,419.9 1270.6,425.9 
		1274.4,428.1 1274.7,432.6 1280,433.4 1285.6,433.8 1290.5,437.9 1293.5,439 1296.1,440.9 1295.7,444.6 1298.7,443.5 1302.1,446.1 
		1303.2,449.1 1309.6,454.4 1310.7,457.8 1315.6,460.8 1316.7,464.9 1319,469.4 1318.2,474.6 1320.9,473.9 1323.5,468.6 
		1328.4,469.8 1332.5,471.6 1334.7,473.1 1340.4,473.5 1346,478.4 1350.9,481.4 1350.1,484.4 1351.2,487 1353.9,487 1357.6,490.4 
		1357.6,493.8 1361.4,496 1364.4,499 1364.4,500.9 1362.9,503.9 1366.6,503.5 1370,502 1373,500.5 1373.7,495.6 1377.9,490.4 
		1377.1,485.1 1383.9,478.8 1393.2,479.1 1399.6,473.9 1402.2,468.6 1406.4,463.8 1406.4,458.5 1409.7,454 1414.2,456.6 
		1417.2,463.8 1418,471.3 1418.7,475.8 1419.1,484 1423.2,492.3 1424.4,497.1 1424,501.3 1422.9,502.8 	"/>
</g>
</svg>
