<?xml version="1.0" encoding="utf-8"?>
<!-- Generator: Adobe Illustrator 22.1.0, SVG Export Plug-In . SVG Version: 6.00 Build 0)  -->
<svg version="1.1" id="Capa_1" xmlns="http://www.w3.org/2000/svg" xmlns:xlink="http://www.w3.org/1999/xlink" x="0px" y="0px"
	 viewBox="0 0 1920 1200" style="enable-background:new 0 0 1920 1200;" xml:space="preserve">
<style type="text/css">
	.st0{fill:#FFFFFF;}
	.st1{fill:none;stroke:#FFFFFF;stroke-width:8;stroke-linecap:round;stroke-linejoin:round;stroke-miterlimit:10;}
	.st2{opacity:0.28;}
	.st3{fill:none;stroke:#FFFFFF;stroke-width:3;stroke-linejoin:round;}
	.st4{fill:none;stroke:#FFFFFF;stroke-width:6;stroke-linejoin:round;stroke-dasharray:3.0265,3.0265;}
	.st5{fill:none;stroke:#FFFFFF;stroke-width:6;stroke-linejoin:round;}
	.st6{fill:none;stroke:#FFFFFF;stroke-width:6;stroke-linejoin:round;stroke-dasharray:3.259,3.259;}
	.st7{fill:none;stroke:#FFFFFF;stroke-width:6;stroke-linejoin:round;stroke-dasharray:3.0014,3.0014;}
	
		.st8{opacity:0.28;fill:none;stroke:#FFFFFF;stroke-width:6;stroke-linejoin:round;stroke-miterlimit:10;stroke-dasharray:3,3;enable-background:new    ;}
</style>
<path class="st0" d="M1735.8,560.4l5.1-4c0,0,2-1.4,2.5-1.4s3.3,0.5,3.3,0.5l4.7,1.7l3.7,2.5l2.2,3.3l-0.3,3.6l1.6,2.5v4.5l-1.9,3.3
	l-4.2,3.1l-3,0.9l0.5,2.5l-0.8,3.3l-1.9,1.6l-2.6,0.2l-1.6,5.1l-3.1,0.2l-2.2,0.6l-3.1,0.8l-3.3-1.2l-3.1-0.9l-2.3,0.5l-2.5-5.3
	l0.6-4l-0.8-5l0.3-2.8l0.2-3.9l1.6-3.3l0.5-3.1v-4.8c0,0,1.7-1.1,2.2-1.1s2.6-0.9,2.6-0.9l0.6-0.9l2,2l1.6,2.6L1735.8,560.4z"/>
<g>
	<path class="st0" d="M1413.8,476.8l-11-6.7l-0.7,1.2l-4.8,5.8l-8.2,2.5l-5.1-0.7l-3.4,5.2l0.5,3.5l2.8,1l-3.2,4.5l2,1.8l-1.2,2.8
		v3.5l-3.2,0.8l-2.2,2.5v2.8l-3.2,0.5l-5.5,4l1.8,1.5l6.2-3.2l3,0.2l2.8-0.2l-2.5,2.8h-3.2l-2,2l-2.8,0.2l-1.8,1v1.8l-0.5,2l1.5,1.5
		c0,0,1-2.5,1.8-2.5s2.2,0,2.2,0l1.8,0.2l1.5,0.5l-0.2,2.5l2.2-1.8l2-2.5l1.2,0.8l-1.8,3.2l-2.2,1.5l1.8,1.8l0.5,2.8l-1.8,1
		l-2.2,1.2h3l0.8,2.2l0.2,2.2l-3,5.2l3.2-1l3-1.2l1.5,1.8l2-1.2l3.8,4.5l-0.8-4.5l-4-2.2l0.2-2.5h-3.2v-2.8l1-2.5l0.8-4.2l3.5,2.2
		l-0.5-2.8l-2.5-2.8l3-0.8l-1-2v-1.8l-1.8-1.8l-0.2-2.5l2.2,0.2l1.2,2l0.5,2.5l2,1.2l2.2,1.8l-1.2-2.8v-1.2l2,0.5l-0.5-2.8l-2-3
		l1-2.5l-0.2-2.2l1-1.8v-3.2l1.8,0.5l1.5-2.5l1.8-4l1.2-2l2.5-1l2-0.5l-0.2,3.2l-2.2,1.8l-1.5,1.8l-0.2,1.8l-1.2,1.5l1.8,0.8
		l-0.2,2.2l0.2,2.8l1.5,3.2v-3.5l0.5-2l0.8,1.5l0.8,3.5l0.8-5.2l0.8-4.8l3.2,0.5v5l1.5,3.2l-1.5,1.2l3,1.2l3-1l-2-2l-0.2-3l1.5-1.2
		l0.2-2.2l-2-0.8l2-2.8l-1.2-4l-0.8-1.5l1.5-2.2l1.2,1.5l1.5,2.5l1-4l-1.5-2l0.8-3l0.1,0.1l-0.1-1.9L1413.8,476.8z"/>
	<polygon class="st0" points="1447,476.8 1443,472.2 1438.8,471 1431,469.2 1427.8,471.5 1424.8,470.8 1423.8,468.8 1420.5,467.2 
		1415.8,462.5 1411,459.2 1406.2,459.8 1405.2,466 1402.7,470 1413.8,476.8 1416.8,483 1416.9,484.9 1420.8,487.8 1427.2,492.2 
		1429.8,492 1430,495 1431.5,499.2 1432.5,503 1431.5,506.8 1434.5,507 1434,511 1432.8,514.8 1432.2,517.5 1432.5,521.2 
		1434,521.8 1434.8,525 1435.2,528.5 1438,525.8 1440,521 1441.5,517.8 1441.8,516 1441.2,514.5 1444.2,512.5 1443,509.8 
		1443.8,506.8 1442.5,503.8 1441.8,499.5 1444.2,496.2 1445.8,493.2 1448.2,491 1448.5,487.2 1448.8,484.5 	"/>
</g>
<polyline class="st1" points="728,447.3 736.6,451.8 743,451.4 750.1,456.3 755.7,455.9 764.7,455.9 769.2,452.1 778.2,452.5 
	788.3,458.5 797.7,458.9 804.5,463 805.6,469 808.2,472.8 808.6,477.6 814.2,479.1 818.7,484.4 823.2,485.5 828.1,487 834.1,487.8 
	837.5,489.6 840.5,486.6 844.6,490 850.6,485.5 853.6,484 857.3,487 858.8,490.4 864.1,488.9 868.2,495.3 874.2,496.8 879.1,499.4 
	885.8,499.4 888.5,502.8 891.8,509.1 895.6,509.9 900.1,511 906.1,514 916.6,514.4 921.5,513.3 924.5,507.3 926.7,505.8 
	931.2,507.3 936.1,508.8 943.6,507.6 947,506.5 949.2,505 952.2,500.1 956.7,500.5 965,500.5 969.5,497.1 977,493.4 984.1,491.1 
	994.2,484 1001.3,478.8 1006.2,477.3 1017.1,476.5 1020.1,475.4 1023.8,468.6 1028.7,469.4 1032.8,463.4 1035.5,458.5 1035.8,453.3 
	1041.8,442 1046,433.8 1045.2,421.8 1046.7,418 1047.5,413.1 1054.2,405.6 1058.7,398.9 1071.1,401.9 1085,401.9 1094.7,403 
	1108.6,400.8 1116.1,399.6 1128.1,398.9 1143.8,400.4 1157.3,402.3 1166,404.9 1176.5,407.1 1181.7,407.1 1187.3,405.6 
	1194.8,405.6 1209.1,406.8 1218.8,407.5 1227.1,405.3 1232.3,405.3 1239.8,401.9 1243.6,402.3 1248.1,404.1 1249.6,400.8 
	1254.1,399.3 1256.7,400 1259.7,403.8 1261.2,407.5 1261.6,410.1 1264.6,412.4 1269.5,415.8 1270.6,419.9 1270.6,425.9 
	1274.4,428.1 1274.7,432.6 1280,433.4 1285.6,433.8 1290.5,437.9 1293.5,439 1296.1,440.9 1295.7,444.6 1298.7,443.5 1302.1,446.1 
	1303.2,449.1 1309.6,454.4 1310.7,457.8 1315.6,460.8 1316.7,464.9 1319,469.4 1318.2,474.6 1320.9,473.9 1323.5,468.6 
	1328.4,469.8 1332.5,471.6 1334.7,473.1 1340.4,473.5 1346,478.4 1350.9,481.4 1350.1,484.4 1351.2,487 1353.9,487 1357.6,490.4 
	1357.6,493.8 1361.4,496 1364.4,499 1364.4,500.9 1362.9,503.9 1366.6,503.5 1370,502 1373,500.5 1373.7,495.6 1377.9,490.4 
	1377.1,485.1 1383.9,478.8 1393.2,479.1 1399.6,473.9 1402.2,468.6 1406.4,463.8 1406.4,458.5 1409.7,454 1414.2,456.6 
	1417.2,463.8 1418,471.3 1418.7,475.8 1419.1,484 1423.2,492.3 1424.4,497.1 1424,501.3 1422.9,502.8 "/>
<polyline class="st1" points="1424.4,497.1 1427,494 1442,497 1457,495.5 1464.5,494 1479.5,499 1494.5,501.5 1501,503 1512.5,497 
	1518.5,491.5 1529.5,496.5 1538,502 1540,505 1558.5,505.5 1582,507 1587,509.5 1607.5,520 1636.5,531 1649,535 1675,544.5 
	1699,555.5 1713,561.5 1718,561.5 1725.8,565.9 "/>
<g class="st2">
	<g>
		<line class="st3" x1="1424.4" y1="502.6" x2="1425.3" y2="501.5"/>
		<polyline class="st3" points="1426,500.6 1427,499.5 1428.5,499.8 		"/>
		<polyline class="st4" points="1431.4,500.4 1442,502.5 1457,501 1464.5,499.5 1479.5,504.5 1494.5,507 1501,508.5 1512.5,502.5 
			1516.3,499 		"/>
		<polyline class="st5" points="1517.4,498 1518.5,497 1519.9,497.6 		"/>
		<polyline class="st6" points="1522.8,499 1529.5,502 1538,507.5 1538.3,507.9 		"/>
		<polyline class="st5" points="1539.2,509.3 1540,510.5 1541.5,510.5 		"/>
		<polyline class="st7" points="1544.5,510.6 1558.5,511 1582,512.5 1587,515 1607.5,525.5 1636.5,536.5 1649,540.5 1675,550 
			1699,561 1713,567 1718,567 1723.2,569.9 		"/>
		<line class="st3" x1="1724.5" y1="570.6" x2="1725.8" y2="571.4"/>
	</g>
</g>
<polyline class="st8" points="1383,484.5 1366.5,483 1350.1,484.4 1344.5,486 1338,484.5 1320,486 1312,480.5 1300.5,452.5 
	1277.5,438.5 1269.5,438.5 1262.5,422.5 1262.5,414 1261,400.5 1237.5,399.5 1219,401.5 1188,399 1172.5,402 1145.5,394.5 
	1122.5,392.5 1099.5,396.5 1078,396.5 1064.5,394 1051,418 1049.5,443.5 1033,474 1025,479.5 1006.5,483 993.5,490 983.5,499.5 
	976.5,503 "/>
<circle class="st0" cx="979.2" cy="503" r="10.8"/>
<circle class="st0" cx="740" cy="462.4" r="10.8"/>
<circle class="st0" cx="765.2" cy="427.7" r="10.8"/>
<rect x="745.7" y="436.4" class="st0" width="17.9" height="17.9"/>
<rect x="851.7" y="466.4" class="st0" width="17.9" height="17.9"/>
<rect x="1293.1" y="672.4" class="st0" width="17.9" height="17.9"/>
<rect x="1086.9" y="519.6" class="st0" width="20.9" height="20.9"/>
</svg>
