<?xml version="1.0" encoding="utf-8"?>
<!-- Generator: Adobe Illustrator 22.1.0, SVG Export Plug-In . SVG Version: 6.00 Build 0)  -->
<svg version="1.1" id="Capa_1" xmlns="http://www.w3.org/2000/svg" xmlns:xlink="http://www.w3.org/1999/xlink" x="0px" y="0px"
	 viewBox="0 0 1920 1200" style="enable-background:new 0 0 1920 1200;" xml:space="preserve">
<style type="text/css">
	.st0{fill:none;stroke:#FFFFFF;stroke-width:16;stroke-linecap:round;stroke-linejoin:round;stroke-miterlimit:10;}
	.st1{fill:none;stroke:#E35B28;stroke-width:8;stroke-linecap:round;stroke-linejoin:round;stroke-miterlimit:10;}
</style>
<g id="Capa_2_1_">
</g>
<g id="Capa_1_2_">
	<polyline class="st0" points="1424.4,497.1 1427,494 1442,497 1457,495.5 1464.5,494 1479.5,499 1494.5,501.5 1501,503 1512.5,497 
		1518.5,491.5 1529.5,496.5 1538,502 1540,505 1558.5,505.5 1582,507 1587,509.5 1607.5,520 1636.5,531 1649,535 1675,544.5 
		1699,555.5 1713,561.5 1718,561.5 1725.8,565.9 	"/>
</g>
<g id="Capa_1_1_">
	<polyline class="st1" points="1424.4,497.1 1427,494 1442,497 1457,495.5 1464.5,494 1479.5,499 1494.5,501.5 1501,503 1512.5,497 
		1518.5,491.5 1529.5,496.5 1538,502 1540,505 1558.5,505.5 1582,507 1587,509.5 1607.5,520 1636.5,531 1649,535 1675,544.5 
		1699,555.5 1713,561.5 1718,561.5 1725.8,565.9 	"/>
</g>
</svg>
