<?xml version="1.0" encoding="utf-8"?>
<!-- Generator: Adobe Illustrator 22.1.0, SVG Export Plug-In . SVG Version: 6.00 Build 0)  -->
<svg version="1.1" id="Capa_1" xmlns="http://www.w3.org/2000/svg" xmlns:xlink="http://www.w3.org/1999/xlink" x="0px" y="0px"
	 viewBox="0 0 1920 1200" style="enable-background:new 0 0 1920 1200;" xml:space="preserve">
<style type="text/css">
	.st0{fill:#E35B28;stroke:#FFFFFF;stroke-width:8;stroke-linecap:round;stroke-linejoin:round;stroke-miterlimit:10;}
	.st1{fill:#E35B28;stroke:#E35B28;stroke-width:4;stroke-linecap:round;stroke-linejoin:round;stroke-miterlimit:10;}
</style>
<g id="Capa_2_1_">
</g>
<g id="Capa_1_2_">
	<polygon class="st0" points="1447,476.8 1443,472.2 1438.8,471 1431,469.2 1427.8,471.5 1424.8,470.8 1423.8,468.8 1420.5,467.2 
		1415.8,462.5 1411,459.2 1406.2,459.8 1405.2,466 1402.7,470 1413.8,476.8 1416.8,483 1416.9,484.9 1420.8,487.8 1427.2,492.2 
		1429.8,492 1430,495 1431.5,499.2 1432.5,503 1431.5,506.8 1434.5,507 1434,511 1432.8,514.8 1432.2,517.5 1432.5,521.2 
		1434,521.8 1434.8,525 1435.2,528.5 1438,525.8 1440,521 1441.5,517.8 1441.8,516 1441.2,514.5 1444.2,512.5 1443,509.8 
		1443.8,506.8 1442.5,503.8 1441.8,499.5 1444.2,496.2 1445.8,493.2 1448.2,491 1448.5,487.2 1448.8,484.5 	"/>
</g>
<g id="Capa_1_1_">
	<polygon class="st1" points="1447,476.8 1443,472.2 1438.8,471 1431,469.2 1427.8,471.5 1424.8,470.8 1423.8,468.8 1420.5,467.2 
		1415.8,462.5 1411,459.2 1406.2,459.8 1405.2,466 1402.7,470 1413.8,476.8 1416.8,483 1416.9,484.9 1420.8,487.8 1427.2,492.2 
		1429.8,492 1430,495 1431.5,499.2 1432.5,503 1431.5,506.8 1434.5,507 1434,511 1432.8,514.8 1432.2,517.5 1432.5,521.2 
		1434,521.8 1434.8,525 1435.2,528.5 1438,525.8 1440,521 1441.5,517.8 1441.8,516 1441.2,514.5 1444.2,512.5 1443,509.8 
		1443.8,506.8 1442.5,503.8 1441.8,499.5 1444.2,496.2 1445.8,493.2 1448.2,491 1448.5,487.2 1448.8,484.5 	"/>
</g>
</svg>
