<?xml version="1.0" encoding="utf-8"?>
<!-- Generator: Adobe Illustrator 22.1.0, SVG Export Plug-In . SVG Version: 6.00 Build 0)  -->
<svg version="1.1" id="Capa_1" xmlns="http://www.w3.org/2000/svg" xmlns:xlink="http://www.w3.org/1999/xlink" x="0px" y="0px"
	 viewBox="0 0 1920 1200" style="enable-background:new 0 0 1920 1200;" xml:space="preserve">
<style type="text/css">
	.st0{fill:#E35B28;stroke:#FFFFFF;stroke-width:8;stroke-linecap:round;stroke-linejoin:round;stroke-miterlimit:10;}
	.st1{fill:#E35B28;stroke:#E35B28;stroke-width:4;stroke-linecap:round;stroke-linejoin:round;stroke-miterlimit:10;}
</style>
<g id="Capa_2_1_">
</g>
<g id="Capa_1_2_">
	<path class="st0" d="M1735.8,560.4l5.1-4c0,0,2-1.4,2.5-1.4s3.3,0.5,3.3,0.5l4.7,1.7l3.7,2.5l2.2,3.3l-0.3,3.6l1.6,2.5v4.5
		l-1.9,3.3l-4.2,3.1l-3,0.9l0.5,2.5l-0.8,3.3l-1.9,1.6l-2.6,0.2l-1.6,5.1l-3.1,0.2l-2.2,0.6l-3.1,0.8l-3.3-1.2l-3.1-0.9l-2.3,0.5
		l-2.5-5.3l0.6-4l-0.8-5l0.3-2.8l0.2-3.9l1.6-3.3l0.5-3.1v-4.8c0,0,1.7-1.1,2.2-1.1s2.6-0.9,2.6-0.9l0.6-0.9l2,2l1.6,2.6
		L1735.8,560.4z"/>
</g>
<g id="Capa_1_1_">
	<path class="st1" d="M1735.8,560.4l5.1-4c0,0,2-1.4,2.5-1.4s3.3,0.5,3.3,0.5l4.7,1.7l3.7,2.5l2.2,3.3l-0.3,3.6l1.6,2.5v4.5
		l-1.9,3.3l-4.2,3.1l-3,0.9l0.5,2.5l-0.8,3.3l-1.9,1.6l-2.6,0.2l-1.6,5.1l-3.1,0.2l-2.2,0.6l-3.1,0.8l-3.3-1.2l-3.1-0.9l-2.3,0.5
		l-2.5-5.3l0.6-4l-0.8-5l0.3-2.8l0.2-3.9l1.6-3.3l0.5-3.1v-4.8c0,0,1.7-1.1,2.2-1.1s2.6-0.9,2.6-0.9l0.6-0.9l2,2l1.6,2.6
		L1735.8,560.4z"/>
</g>
</svg>
