<?xml version="1.0" encoding="utf-8"?>
<!-- Generator: Adobe Illustrator 22.1.0, SVG Export Plug-In . SVG Version: 6.00 Build 0)  -->
<svg version="1.1" id="Capa_1" xmlns="http://www.w3.org/2000/svg" xmlns:xlink="http://www.w3.org/1999/xlink" x="0px" y="0px"
	 viewBox="0 0 57.6 55.4" style="enable-background:new 0 0 57.6 55.4;" xml:space="preserve">
<style type="text/css">
	.st0{fill:#54515C;}
	.st1{fill:none;stroke:#54515C;stroke-width:0.9105;}
</style>
<path class="st0" d="M29.1,2.3C15,2.3,3.5,13.7,3.5,27.8S14.9,53.3,29,53.3s25.5-11.4,25.5-25.5C54.6,13.7,43.2,2.3,29.1,2.3z
	 M29.1,49.8c-12.1,0-22-9.8-22-22c0-12.1,9.8-22,22-22c12.1,0,22,9.8,22,22C51,39.9,41.2,49.8,29.1,49.8z"/>
<path class="st1" d="M38.5,29.2c0,0-8.5-1.2-12.6-0.4S20,31.4,22,32.9c2,1.5,10.8,1.5,14.5,0.8 M15.6,26.6c0.2,1.8,1.9,2.6,2.4,3.6
	c0.2,0.5,0.2,1.3,0.7,1.7c0.5,0.5,1.6,0.7,2.6,0.6c0,0.6,0.1,2.1,0.8,2.7c0.9,0.8,2.4,0.6,2.4,0.6s0,1.2,1,2.1
	c2.6,1,10-0.1,11.2-0.3 M41.9,26.2c0,0-12.5-1.6-17.6-0.8c-5.1,0.8-8.4,2.9-6,4.5 M42.3,26.2l-2-3.6l-8.9-1c0,0-6.8-1.1-11.7,0.4
	s-5.9,5.6-0.5,8.2s16.9,1.1,16.9,1.1L42.3,26.2L42.3,26.2z"/>
</svg>
