<!-- Generator: Adobe Illustrator 22.1.0, SVG Export Plug-In  -->
<svg version="1.1"
	 xmlns="http://www.w3.org/2000/svg" xmlns:xlink="http://www.w3.org/1999/xlink" xmlns:a="http://ns.adobe.com/AdobeSVGViewerExtensions/3.0/"
	 x="0px" y="0px" width="47.1px" height="47.1px" viewBox="0 0 47.1 47.1" style="enable-background:new 0 0 47.1 47.1;"
	 xml:space="preserve">
<style type="text/css">
	.st0{fill:#FFFFFF;}
	.st1{fill:#E35B28;}
	.st2{fill:none;stroke:#E35B28;stroke-width:4;stroke-miterlimit:10;}
</style>
<defs>
</defs>
<g>
	<path class="st0" d="M23.6,45.1C11.7,45.1,2,35.5,2,23.6S11.7,2,23.6,2s21.6,9.7,21.6,21.6S35.5,45.1,23.6,45.1z"/>
	<path class="st1" d="M23.6,4c10.8,0,19.6,8.8,19.6,19.6s-8.8,19.6-19.6,19.6S4,34.4,4,23.6S12.8,4,23.6,4 M23.6,0
		C10.6,0,0,10.6,0,23.6s10.6,23.6,23.6,23.6s23.6-10.6,23.6-23.6S36.6,0,23.6,0L23.6,0z"/>
</g>
<line class="st2" x1="8.6" y1="8.6" x2="39.1" y2="39.1"/>
<line class="st2" x1="39.1" y1="8.6" x2="8.6" y2="39.1"/>
</svg>
