<?xml version="1.0" encoding="utf-8"?>
<!-- Generator: Adobe Illustrator 22.1.0, SVG Export Plug-In . SVG Version: 6.00 Build 0)  -->
<svg version="1.1" id="Capa_1" xmlns="http://www.w3.org/2000/svg" xmlns:xlink="http://www.w3.org/1999/xlink" x="0px" y="0px"
	 viewBox="0 0 57.6 55.4" style="enable-background:new 0 0 57.6 55.4;" xml:space="preserve">
<style type="text/css">
	.st0{fill:#86431E;}
</style>
<g>
	<rect x="17.2" y="23.4" class="st0" width="0.4" height="9.9"/>
	<rect x="18.3" y="23.4" class="st0" width="0.4" height="9.9"/>
	<rect x="19.5" y="23.4" class="st0" width="0.4" height="9.9"/>
	<rect x="20.6" y="23.4" class="st0" width="0.4" height="9.9"/>
	<rect x="21.7" y="23.4" class="st0" width="0.4" height="9.9"/>
	<rect x="22.9" y="23.4" class="st0" width="0.4" height="9.9"/>
	<rect x="24" y="23.4" class="st0" width="0.4" height="9.9"/>
	<rect x="25.1" y="23.4" class="st0" width="0.4" height="9.9"/>
	<rect x="26.3" y="23.4" class="st0" width="0.4" height="9.9"/>
	<rect x="27.4" y="23.4" class="st0" width="0.4" height="9.9"/>
	<rect x="28.6" y="23.4" class="st0" width="0.4" height="9.9"/>
	<rect x="29.7" y="23.4" class="st0" width="0.4" height="9.9"/>
	<rect x="30.8" y="23.4" class="st0" width="0.4" height="9.9"/>
	<rect x="37.6" y="23.4" class="st0" width="0.4" height="9.9"/>
	<rect x="38.8" y="23.4" class="st0" width="0.4" height="9.9"/>
	<rect x="39.9" y="23.4" class="st0" width="0.4" height="9.9"/>
	<g>
		<path class="st0" d="M31.8,25.4v5.3h5.3v-5.3C37.1,25.4,31.8,25.4,31.8,25.4z M36.7,30.3h-4.5v-4.5h4.5V30.3z"/>
	</g>
	<path class="st0" d="M36.9,25v-1.6h-0.4V25h-0.7v-1.6h-0.4V25h-0.7v-1.6h-0.4V25h-0.7v-1.6h-0.4V25h-0.7v-1.6H32V25h-0.6v6.1H32
		v2.2h0.4v-2.2h0.7v2.2h0.4v-2.2h0.7v2.2h0.4v-2.2h0.7v2.2h0.4v-2.2h0.7v2.2h0.4v-2.2h0.6V25H36.9z M37.1,30.7h-5.3v-5.3h5.3V30.7z"
		/>
	<path class="st0" d="M32.2,25.8v4.5h4.5v-4.5H32.2z M32.6,26.2h1.6v1.6h-1.6V26.2z M32.6,29.9v-1.6h1.6v1.6l0,0H32.6z M36.3,29.9
		h-1.6l0,0v-1.6h1.6l0,0l0,0V29.9z M36.3,27.8h-1.6v-1.6h1.6V27.8z"/>
	<path class="st0" d="M42.4,21.9L42.4,21.9L15,22l0,0h-0.5l0,0v1.3v0.4l1.3,1.3v7.2l-1.3,1.3v1.7H43v-1.7l-1.2-1.2v-7.2l1.2-1.2
		v-0.4V22l0,0L42.4,21.9L42.4,21.9z M42.5,23.3v0.3l-1.2,1.2v7.6l1.2,1.2v1.2H14.9v-1.2l1.3-1.3v-7.6l-1.3-1.3v-1.1l0,0v-0.1h27.7
		v0.1l0,0L42.5,23.3L42.5,23.3z"/>
</g>
<path class="st0" d="M28.9,2.3C14.8,2.3,3.4,13.7,3.4,27.8s11.4,25.5,25.5,25.5s25.5-11.4,25.5-25.5C54.5,13.7,43,2.3,28.9,2.3z
	 M28.9,49.8c-12.1,0-22-9.8-22-22c0-12.1,9.8-22,22-22c12.1,0,22,9.8,22,22C50.9,39.9,41.1,49.8,28.9,49.8z"/>
</svg>
