<?xml version="1.0" encoding="utf-8"?>
<!-- Generator: Adobe Illustrator 22.1.0, SVG Export Plug-In . SVG Version: 6.00 Build 0)  -->
<svg version="1.1" id="Capa_1" xmlns="http://www.w3.org/2000/svg" xmlns:xlink="http://www.w3.org/1999/xlink" x="0px" y="0px"
	 viewBox="0 0 60 60" style="enable-background:new 0 0 60 60;" xml:space="preserve">
<style type="text/css">
	.st0{fill:none;stroke:#FFFFFF;stroke-width:2;stroke-miterlimit:10;}
</style>
<path class="st0" d="M30.1,1.8C14.6,1.8,1.9,14.5,1.9,30s12.7,28.2,28.2,28.2S58.2,45.5,58.2,30S45.6,1.8,30.1,1.8z M44.7,30.8
	L24.1,44.8c-0.2,0.1-0.4,0.2-0.6,0.2s-0.3,0-0.5-0.1c-0.3-0.2-0.5-0.5-0.5-0.8V15.9c0-0.4,0.2-0.7,0.5-0.8s0.7-0.1,0.9,0.1
	l20.6,14.1c0.3,0.2,0.4,0.5,0.4,0.8S44.9,30.6,44.7,30.8z"/>
</svg>
