<?xml version="1.0" encoding="utf-8"?>
<!-- Generator: Adobe Illustrator 22.1.0, SVG Export Plug-In . SVG Version: 6.00 Build 0)  -->
<svg version="1.1" id="Capa_1" xmlns="http://www.w3.org/2000/svg" xmlns:xlink="http://www.w3.org/1999/xlink" x="0px" y="0px"
	 viewBox="0 0 57.6 55.4" style="enable-background:new 0 0 57.6 55.4;" xml:space="preserve">
<style type="text/css">
	.st0{fill:#86431E;}
</style>
<path class="st0" d="M29.1,2.3C15,2.3,3.5,13.7,3.5,27.8S14.9,53.3,29,53.3s25.5-11.4,25.5-25.5C54.6,13.7,43.2,2.3,29.1,2.3z
	 M29.1,49.8c-12.1,0-22-9.8-22-22c0-12.1,9.8-22,22-22c12.1,0,22,9.8,22,22C51.1,39.9,41.2,49.8,29.1,49.8z"/>
<g transform="translate(-240.000000, -644.000000)">
	<g transform="translate(240.000000, 644.000000)">
		<path class="st0" d="M33.1,23.6c-0.2,0-0.4,0.2-0.4,0.4v0.8c0,0.2,0.2,0.4,0.4,0.4s0.4-0.2,0.4-0.4V24
			C33.5,23.8,33.3,23.6,33.1,23.6"/>
		<path class="st0" d="M34.3,23.6c-0.2,0-0.4,0.2-0.4,0.4v0.8c0,0.2,0.2,0.4,0.4,0.4s0.4-0.2,0.4-0.4V24
			C34.6,23.8,34.5,23.6,34.3,23.6"/>
		<path class="st0" d="M35.4,23.6c-0.2,0-0.4,0.2-0.4,0.4v0.8c0,0.2,0.2,0.4,0.4,0.4s0.4-0.2,0.4-0.4V24
			C35.8,23.8,35.7,23.6,35.4,23.6"/>
		<path class="st0" d="M30.2,31.9l-0.3-3.1H39l-0.4,3l-3.1-1.6c-0.5-0.3-1.5-0.3-2.3,0L30.2,31.9z M32.3,25.6h4v-2.4h-4V25.6z
			 M34.3,21.7l0.9,0.7h-1.7L34.3,21.7z M24.6,26h-1.9v-1.8l9.7-6c0,0,0,0,0,0.1s0.1,0.1,0.1,0.2s0.1,0.1,0.1,0.2s0.1,0.1,0.1,0.2
			s0.1,0.1,0.1,0.1l0.1,0.1l0.1,0.1c0.1,0,0.1,0.1,0.2,0.1c0,0,0.1,0,0.1,0.1L24.6,26z M20.1,32.4L21,30h3.4l0.9,2.4H20.1z
			 M17.9,26.3v-1.9h4v2v0.8h-1.2h-2.2L17.9,26.3z M34.3,16.4c0.7,0,1.2,0.5,1.2,1.2s-0.5,1.2-1.2,1.2s-1.2-0.5-1.2-1.2
			C33.1,17,33.6,16.4,34.3,16.4L34.3,16.4z M41,33.8c-0.1-0.5-0.5-1-1-1.2l-0.6-0.3l0.4-3.4l0,0c0.2,0,0.4-0.2,0.4-0.4V26
			c0-0.2-0.2-0.4-0.4-0.4H37v-2.8c0-0.2-0.2-0.4-0.4-0.4h-0.3L34.6,21v-1.4c0.9-0.2,1.6-1,1.6-2c0-1.1-0.9-2-2-2c-1,0-1.8,0.8-2,1.8
			l-10.1,6.2h-4.7c-0.2,0-0.4,0.2-0.4,0.4v2.4c0,0.1,0,0.2,0.1,0.2l0.8,1.2c0.1,0.1,0.2,0.2,0.3,0.2h2v1.5L19,32.6v0.1l0,0v2.8h2
			c0.2,0,0.4,0.2,0.4,0.4s-0.2,0.4-0.4,0.4h-2v0.8h2.8c0.2,0,0.4,0.2,0.4,0.4s-0.2,0.4-0.4,0.4H19v1.2c0,0.2,0.2,0.4,0.4,0.4h6.4
			c0.2,0,0.4-0.2,0.4-0.4v-6.4l0,0v-0.1L25,29.5v-2.9l8.8-6.6v1l-1.7,1.4h-0.3c-0.2,0-0.4,0.2-0.4,0.4v2.8h-2.8
			c-0.2,0-0.4,0.2-0.4,0.4v2.4c0,0.2,0.2,0.4,0.4,0.4H29l0.4,3.5l-0.6,0.3c-0.5,0.2-0.9,0.7-1,1.2s0,1.1,0.3,1.5l0.9,1.4l4.3-2.1
			c0.8-0.3,1.6-0.3,2.3,0l4.2,2l0.8-1.4C41,34.8,41.1,34.3,41,33.8L41,33.8z"/>
		<path class="st0" d="M33.7,35.4l-4.2,2.1l1.2,1.9c0.1,0.1,0.2,0.2,0.3,0.2h6.8c0.1,0,0.3-0.1,0.3-0.2l1.2-2l-4.1-2
			C34.8,35.1,34.2,35.1,33.7,35.4"/>
		<path class="st0" d="M34.3,18c0.2,0,0.4-0.2,0.4-0.4c0-0.2-0.2-0.4-0.4-0.4s-0.4,0.2-0.4,0.4C33.9,17.9,34,18,34.3,18"/>
	</g>
</g>
</svg>
