<?xml version="1.0" encoding="utf-8"?>
<!-- Generator: Adobe Illustrator 22.1.0, SVG Export Plug-In . SVG Version: 6.00 Build 0)  -->
<svg version="1.1" id="Capa_1" xmlns="http://www.w3.org/2000/svg" xmlns:xlink="http://www.w3.org/1999/xlink" x="0px" y="0px"
	 viewBox="0 0 57.6 55.4" style="enable-background:new 0 0 57.6 55.4;" xml:space="preserve">
<style type="text/css">
	.st0{fill:#86431E;}
</style>
<path class="st0" d="M29,2.3C14.9,2.3,3.5,13.7,3.5,27.8S14.9,53.3,29,53.3s25.5-11.4,25.5-25.5C54.6,13.7,43.1,2.3,29,2.3z
	 M29,49.8c-12.1,0-22-9.8-22-22c0-12.1,9.8-22,22-22c12.1,0,22,9.8,22,22C51,39.9,41.2,49.8,29,49.8z"/>
<g>
	<path class="st0" d="M47.3,35.3c0,0-12.2-13.3-14.5-13.3S22.6,35.3,22.6,35.3H47.3z"/>
	<g>
		<path class="st0" d="M23.6,28.8l-3.4,5.1h-8.1v-3.8c1.4,0,3.6-0.1,6-0.4C20.2,29.5,22.1,29.2,23.6,28.8 M27.6,25.4
			c-3.3,3.3-17,3.3-17,3.3v6.6H21L27.6,25.4L27.6,25.4z"/>
	</g>
</g>
</svg>
