<?xml version="1.0" encoding="utf-8"?>
<!-- Generator: Adobe Illustrator 22.1.0, SVG Export Plug-In . SVG Version: 6.00 Build 0)  -->
<svg version="1.1" id="Capa_1" xmlns="http://www.w3.org/2000/svg" xmlns:xlink="http://www.w3.org/1999/xlink" x="0px" y="0px"
	 viewBox="0 0 1256 196" style="enable-background:new 0 0 1256 196;" xml:space="preserve">
<style type="text/css">
	.st0{fill:#54515C;}
	.st1{fill:#54515D;}
	.st2{fill:none;stroke:#54515C;stroke-miterlimit:10;}
</style>
<g>
	<path class="st0" d="M880.9,63.7c6.7,0,11.7-1.8,15-5.3c3.2-3.6,4.9-8.4,4.9-14.7c0-5.3-1.8-9.8-5.2-13.2
		c-3.4-3.6-8.2-5.3-14.3-5.3c-5.2,0-9.5,1.5-13.1,4.8s-5.3,7.3-5.3,12.1h-27.3l-0.2-0.6c-0.3-11,3.9-20.1,12.9-27.3
		c8.9-7.2,19.9-10.8,33.1-10.8c14.6,0,26.3,3.4,34.9,10.4c8.7,6.9,12.9,16.8,12.9,29.7c0,6.5-1.9,12.5-5.6,17.9
		c-3.7,5.4-8.8,9.6-15.3,12.8c7.4,2.8,13.1,7,17.2,12.7c4,5.7,6,12.5,6,20.5c0,12.9-4.7,23.1-14,30.5s-21.4,11.1-36,11.1
		c-12.9,0-24.2-3.6-33.7-10.5c-9.6-7-14.3-16.8-14-29.4l0.2-0.6h27.6c0,5.3,1.9,9.8,5.6,13.4c3.7,3.6,8.5,5.4,14.4,5.4
		c6.5,0,11.7-1.9,15.8-5.7c4-3.8,6-8.7,6-14.4c0-7.4-1.9-12.9-5.6-16.5c-3.7-3.6-9.2-5.4-16.5-5.4h-15.8V63.7H880.9z"/>
	<path class="st0" d="M1041.4,42.2c0,7-1.8,13.2-5.4,18.6c-3.6,5.4-8.7,9.6-15,12.7c7.7,3.2,13.8,7.7,18.4,13.6
		c4.5,5.9,6.7,12.7,6.7,20.4c0,13.1-4.5,23.2-13.6,30.5c-9.1,7.3-20.8,10.9-34.9,10.9c-14.8,0-27-3.6-36.6-10.9
		c-9.5-7.3-14.2-17.5-14.2-30.5c0-7.7,2.4-14.4,7-20.4c4.7-5.9,11-10.5,19.1-13.6c-6.6-3-12-7.3-15.7-12.7
		c-3.7-5.4-5.7-11.7-5.7-18.6c0-12.5,4.3-22,12.8-28.6c8.7-6.7,19.7-10,33.3-10c12.9,0,23.5,3.3,31.8,10S1041.4,29.7,1041.4,42.2z
		 M1017.7,106c0-6.2-1.9-11.4-5.9-15.5c-4-4-8.7-6-14.6-6c-6.3,0-11.7,1.9-15.8,6c-4.3,4-6.3,9.2-6.3,15.5c0,6.5,2.1,11.5,6.2,15.4
		s9.5,5.7,16.1,5.7c5.8,0,10.7-1.9,14.4-5.7C1015.8,117.6,1017.7,112.5,1017.7,106z M1013,43.5c0-5.6-1.5-10-4.4-13.3
		c-2.9-3.2-6.7-4.9-11.3-4.9c-5.3,0-9.5,1.5-12.8,4.8s-4.8,7.7-4.8,13.4c0,5.8,1.7,10.4,4.9,13.9c3.2,3.6,7.4,5.3,12.8,5.3
		c4.7,0,8.4-1.8,11.2-5.3C1011.7,53.9,1013,49.2,1013,43.5z"/>
</g>
<g>
	<path class="st0" d="M1095.1,146.9c-0.4-1.1-0.8-2.1-1.1-3.2s-0.5-2.3-0.6-3.4c-1.2,2.2-2.8,4-4.9,5.4c-1.9,1.5-4.4,2.1-7.2,2.1
		c-4.7,0-8.2-1.1-10.7-3.6c-2.5-2.4-3.7-5.6-3.7-9.8c0-4.4,1.7-7.7,5-10c3.3-2.4,8.2-3.6,14.6-3.6h6.7v-3.6c0-2.1-0.5-3.7-1.7-5
		c-1.1-1.1-2.8-1.8-5-1.8c-1.9,0-3.4,0.5-4.4,1.5c-1.1,1-1.5,2.2-1.5,3.8h-11.5l-0.1-0.2c-0.2-3.7,1.5-7,4.9-9.6s8-4,13.5-4
		c5.3,0,9.6,1.4,12.9,4c3.3,2.7,4.9,6.6,4.9,11.5v18.3c0,2.1,0.2,4,0.5,5.8c0.3,1.9,0.8,3.6,1.5,5.4L1095.1,146.9L1095.1,146.9
		L1095.1,146.9z M1084.3,138.9c2.1,0,4-0.5,5.5-1.5c1.7-1.1,2.7-2.2,3.3-3.6v-6.2h-6.7c-2.5,0-4.4,0.6-5.7,1.9
		c-1.2,1.2-1.9,2.8-1.9,4.5c0,1.5,0.5,2.7,1.5,3.6C1081.1,138.5,1082.5,138.9,1084.3,138.9z"/>
	<path class="st0" d="M1125,102.6l0.5,6.3c1.5-2.3,3.3-4,5.4-5.3c2.2-1.2,4.5-1.9,7.3-1.9c4.4,0,8,1.5,10.5,4.4
		c2.5,2.9,3.7,7.4,3.7,13.6v27.1h-12.1v-27c0-3.1-0.5-5.4-1.7-6.7c-1.2-1.3-2.8-1.9-5-1.9c-1.8,0-3.3,0.3-4.7,1.1
		c-1.4,0.6-2.5,1.5-3.3,2.8V147h-12v-44.3L1125,102.6L1125,102.6z M1148.3,84.3c0,2.6-0.8,4.9-2.4,6.6c-1.7,1.9-3.6,2.8-6.1,2.8
		c-1.9,0-4-0.6-6.5-1.8s-4.4-1.8-5.7-1.8c-1,0-1.8,0.4-2.5,1.4c-0.6,1-1,1.9-1,3.1l-6.3-1.8c0-2.6,0.8-4.8,2.4-6.6
		c1.7-1.9,3.6-2.8,6.1-2.8c1.5,0,3.6,0.6,6.2,1.8c2.6,1.1,4.7,1.8,6,1.8c1,0,1.8-0.4,2.5-1.4c0.7-0.8,1.1-1.9,1.1-3.2L1148.3,84.3z"
		/>
	<path class="st0" d="M1159.4,124.3c0-6.6,1.9-12,5.5-16.2c3.6-4.3,8.7-6.3,15.3-6.3s11.7,2.1,15.4,6.3c3.7,4.1,5.5,9.5,5.5,16.2
		v0.8c0,6.6-1.9,12.1-5.5,16.2c-3.7,4.1-8.8,6.2-15.3,6.2c-6.6,0-11.7-2.1-15.4-6.2c-3.7-4.1-5.5-9.5-5.5-16.2V124.3z M1171.3,125.3
		c0,4,0.7,7.3,2.1,9.6c1.5,2.4,3.7,3.6,6.9,3.6c3.1,0,5.3-1.2,6.7-3.6c1.5-2.4,2.2-5.7,2.2-9.6v-0.8c0-4-0.7-7.2-2.2-9.5
		c-1.5-2.5-3.7-3.7-6.9-3.7c-3.1,0-5.3,1.2-6.7,3.7c-1.5,2.5-2.2,5.7-2.2,9.5L1171.3,125.3L1171.3,125.3z"/>
	<path class="st0" d="M1232.3,134.6c0-1.4-0.6-2.4-1.9-3.3c-1.2-1-3.6-1.8-7-2.5c-5.2-1.1-9.1-2.6-11.7-4.7c-2.6-2.1-4-5-4-8.5
		c0-3.7,1.5-7,4.8-9.6c3.2-2.7,7.4-4,12.9-4c5.6,0,10,1.4,13.4,4c3.3,2.7,5,6,4.9,10l-0.1,0.2h-11.5c0-1.8-0.6-3.2-1.8-4.4
		s-2.8-1.7-5-1.7c-1.9,0-3.4,0.5-4.5,1.5s-1.7,2.1-1.7,3.6c0,1.4,0.6,2.5,1.8,3.3c1.1,0.8,3.6,1.7,7,2.3c5.4,1.1,9.5,2.7,12.1,4.8
		c2.7,2.1,4,5,4,8.7c0,4-1.7,7.3-5.1,9.8s-7.9,3.8-13.5,3.8c-5.9,0-10.5-1.5-13.9-4.4c-3.4-3-5.1-6.3-4.9-10.2l0.1-0.2h10.9
		c0.1,2.4,0.8,4,2.3,5.2c1.5,1.1,3.4,1.5,5.7,1.5c2.2,0,3.8-0.4,5.1-1.4C1231.8,137.4,1232.3,136.1,1232.3,134.6z"/>
</g>
<g>
	<g>
		<path class="st1" d="M849.3,193.4c-2.9,0-5.3-1.1-7.2-3.2c-1.9-2.1-2.8-4.8-2.8-8.1V181c0-3.3,1-6,2.8-8.2
			c1.9-2.2,4.1-3.2,6.9-3.2c2.8,0,5,1,6.6,2.7c1.7,1.8,2.4,4.1,2.4,7.2v2.2h-16.2v0.6c0,2.6,0.7,4.8,2.1,6.5
			c1.4,1.8,3.2,2.6,5.4,2.6c1.5,0,2.9-0.2,4-0.6c1.1-0.4,2.1-1.1,2.9-1.9l1.1,1.8c-0.8,1-1.9,1.7-3.3,2.2
			C852.7,193.2,851.2,193.4,849.3,193.4z M849,171.8c-1.9,0-3.4,0.7-4.8,2.2c-1.2,1.5-1.9,3.2-2.2,5.4v0.1h13.4v-0.6
			c0-1.9-0.6-3.6-1.8-5C852.7,172.5,851,171.8,849,171.8z"/>
		<path class="st1" d="M876.8,187.2c0-1.1-0.4-1.9-1.4-2.8c-1-0.9-2.5-1.5-4.8-1.9c-2.7-0.6-4.8-1.4-6-2.4c-1.4-1-1.9-2.4-1.9-4.1
			s0.7-3.2,2.2-4.4c1.5-1.2,3.4-1.8,5.8-1.8c2.6,0,4.7,0.6,6.1,1.9c1.5,1.2,2.2,2.9,2.2,4.8v0.1h-2.4c0-1.2-0.5-2.4-1.5-3.3
			c-1.1-1-2.5-1.4-4.4-1.4c-1.9,0-3.2,0.4-4.1,1.1c-1,0.8-1.4,1.8-1.4,2.8c0,1.1,0.4,1.9,1.2,2.6c0.8,0.7,2.4,1.2,4.8,1.8
			c2.7,0.6,4.8,1.5,6.1,2.5s2.1,2.5,2.1,4.3c0,1.9-0.7,3.4-2.3,4.7c-1.5,1.2-3.6,1.8-6.1,1.8c-2.8,0-5-0.6-6.6-1.9
			c-1.5-1.4-2.4-2.9-2.3-4.8v-0.1h2.3c0.1,1.7,0.7,2.8,1.9,3.6s2.7,1.1,4.4,1.1c1.9,0,3.3-0.4,4.4-1.2
			C876.3,189.2,876.8,188.3,876.8,187.2z"/>
		<path class="st1" d="M889.1,164.2v5.9h5.1v2.1h-5.1v15c0,1.5,0.3,2.6,0.8,3.2s1.2,1,2.2,1c0.4,0,0.8,0,1.2-0.1
			c0.4,0,0.8-0.1,1.4-0.2l0.4,1.9c-0.4,0.2-1,0.3-1.5,0.4c-0.6,0.1-1.2,0.1-1.9,0.1c-1.7,0-2.9-0.5-3.7-1.5
			c-0.8-1.1-1.4-2.6-1.4-4.9v-15h-4V170h4v-5.9h2.5V164.2z"/>
		<path class="st1" d="M902.3,163.5h-2.5v-3.6h2.5V163.5z M902.3,193h-2.5v-23h2.5V193z"/>
		<path class="st1" d="M911.6,170l0.2,3.8c0.7-1.4,1.7-2.4,2.9-3.1c1.2-0.7,2.7-1.1,4.4-1.1c1.8,0,3.2,0.4,4.4,1.2
			c1.1,0.8,1.9,2.2,2.5,3.8c0.7-1.7,1.7-2.9,2.9-3.7c1.2-1,2.8-1.4,4.7-1.4c2.5,0,4.4,0.8,5.6,2.4c1.2,1.5,1.9,4.1,1.9,7.6V193h-2.5
			v-13.4c0-2.8-0.5-4.9-1.5-6c-1.1-1.1-2.4-1.8-4.1-1.8c-1.9,0-3.6,0.6-4.5,1.9c-1.1,1.2-1.8,2.8-1.9,4.8c0,0.1,0,0.2,0,0.4
			s0,0.3,0,0.4v13.7h-2.6v-13.4c0-2.8-0.5-4.8-1.5-5.9c-1.1-1.2-2.4-1.8-4.1-1.8s-3.2,0.4-4.3,1.4c-1.1,1-1.8,2.2-2.2,3.6v16.1h-2.6
			v-23L911.6,170L911.6,170z"/>
		<path class="st1" d="M962.4,193c-0.2-0.7-0.3-1.5-0.3-1.9c-0.1-0.5-0.1-1.1-0.1-1.8c-0.8,1.2-1.9,2.2-3.4,3
			c-1.5,0.8-3,1.1-4.8,1.1c-2.2,0-4-0.6-5.2-1.8c-1.2-1.1-1.9-2.8-1.9-4.8c0-2.1,1-3.8,2.7-5.1c1.9-1.2,4.3-1.9,7.4-1.9h5.1v-2.8
			c0-1.7-0.5-2.9-1.5-3.8c-1.1-1-2.5-1.4-4.4-1.4c-1.8,0-3.2,0.4-4.4,1.4c-1.1,1-1.8,1.9-1.8,3.2h-2.3v-0.1
			c-0.1-1.7,0.7-3.2,2.4-4.5c1.7-1.4,3.7-1.9,6.3-1.9c2.5,0,4.5,0.6,6.1,1.9c1.5,1.2,2.3,3.1,2.3,5.5v11.3c0,0.8,0,1.5,0.1,2.4
			c0.1,0.7,0.2,1.5,0.4,2.3h-2.7L962.4,193L962.4,193z M954,191.2c1.9,0,3.4-0.4,4.9-1.2c1.4-0.8,2.4-1.9,3-3.3v-4.8h-5.2
			c-2.3,0-4.1,0.5-5.5,1.5c-1.4,1-2.1,2.2-2.1,3.6c0,1.2,0.4,2.3,1.2,3C951.3,190.7,952.5,191.2,954,191.2z"/>
		<path class="st1" d="M970.1,181.7c0-3.6,0.7-6.6,2.3-8.8c1.5-2.3,3.7-3.3,6.5-3.3c1.5,0,3,0.3,4.1,1.1c1.1,0.7,2.2,1.7,2.9,2.9
			v-13.6h2.5V193h-2.3l-0.2-3.3c-0.7,1.2-1.8,2.2-2.9,2.8c-1.2,0.6-2.6,1-4.3,1c-2.7,0-4.9-1.1-6.5-3c-1.5-2.1-2.3-4.8-2.3-8.2v-0.5
			h0.2V181.7z M972.7,182.2c0,2.8,0.5,5,1.7,6.6c1.1,1.7,2.8,2.5,5,2.5c1.7,0,3-0.4,4-1.1c1.1-0.7,1.9-1.8,2.6-3.1v-10.8
			c-0.6-1.4-1.4-2.4-2.5-3.2c-1.1-0.8-2.5-1.2-4.1-1.2c-2.2,0-4,1-5,2.8c-1.1,1.9-1.7,4.3-1.7,7.2L972.7,182.2L972.7,182.2z"/>
		<path class="st1" d="M993.9,181.1c0-3.4,1-6.1,2.8-8.3s4.3-3.2,7.4-3.2s5.5,1.1,7.4,3.2s2.8,4.9,2.8,8.3v0.7c0,3.4-1,6.1-2.8,8.3
			c-1.9,2.2-4.3,3.2-7.4,3.2s-5.5-1.1-7.4-3.2c-1.9-2.2-2.8-4.9-2.8-8.3V181.1z M996.4,181.8c0,2.7,0.6,4.9,1.9,6.6
			c1.4,1.8,3.2,2.7,5.6,2.7c2.3,0,4.3-1,5.6-2.7c1.4-1.8,1.9-4,1.9-6.6v-0.7c0-2.6-0.7-4.8-2.1-6.6c-1.4-1.9-3.2-2.7-5.6-2.7
			s-4.3,1-5.6,2.7c-1.4,1.9-1.9,4-1.9,6.6v0.7H996.4z"/>
		<path class="st1" d="M1033.2,187.2c0-1.1-0.4-1.9-1.4-2.8c-1-0.8-2.5-1.5-4.8-1.9c-2.7-0.6-4.8-1.4-6-2.4c-1.4-1-1.9-2.4-1.9-4.1
			s0.7-3.2,2.2-4.4s3.4-1.8,5.8-1.8c2.6,0,4.7,0.6,6.1,1.9c1.5,1.2,2.2,2.9,2.2,4.8v0.1h-2.4c0-1.2-0.5-2.4-1.5-3.3
			c-1.1-1-2.5-1.4-4.4-1.4s-3.2,0.4-4.1,1.1c-1,0.8-1.4,1.8-1.4,2.8c0,1.1,0.4,1.9,1.2,2.6c0.8,0.7,2.4,1.2,4.8,1.8
			c2.7,0.6,4.8,1.5,6.1,2.5s2.1,2.5,2.1,4.3c0,1.9-0.7,3.4-2.3,4.7c-1.5,1.3-3.6,1.8-6.1,1.8c-2.8,0-5-0.6-6.6-1.9
			c-1.5-1.4-2.4-2.9-2.3-4.8v-0.1h2.3c0.1,1.7,0.7,2.8,1.9,3.6s2.7,1.1,4.4,1.1c1.9,0,3.3-0.4,4.4-1.2
			C1032.7,189.2,1033.2,188.3,1033.2,187.2z"/>
		<path class="st1" d="M1051.1,181.7c0-3.6,0.7-6.6,2.3-8.8c1.5-2.3,3.7-3.3,6.5-3.3c1.5,0,3,0.3,4.1,1.1c1.1,0.7,2.2,1.7,2.9,2.9
			v-13.6h2.5V193h-2.3l-0.2-3.3c-0.7,1.2-1.8,2.2-2.9,2.8c-1.2,0.6-2.6,1-4.3,1c-2.7,0-4.9-1.1-6.5-3c-1.5-2.1-2.3-4.8-2.3-8.2v-0.5
			h0.2V181.7z M1053.7,182.2c0,2.8,0.5,5,1.7,6.6c1.1,1.7,2.8,2.5,5,2.5c1.7,0,3-0.4,4-1.1c1.1-0.7,1.9-1.8,2.6-3.1v-10.8
			c-0.6-1.4-1.4-2.4-2.5-3.2c-1.1-0.8-2.5-1.2-4.1-1.2c-2.2,0-4,1-5,2.8c-1.1,1.9-1.7,4.3-1.7,7.2L1053.7,182.2L1053.7,182.2z"/>
		<path class="st1" d="M1084.9,193.4c-2.9,0-5.3-1.1-7.2-3.2c-1.9-2.1-2.8-4.8-2.8-8.1V181c0-3.3,1-6,2.8-8.2
			c1.9-2.2,4.1-3.2,6.9-3.2c2.8,0,5,1,6.6,2.7c1.7,1.8,2.4,4.1,2.4,7.2v2.2h-16.2v0.6c0,2.6,0.7,4.8,2.1,6.5
			c1.4,1.8,3.2,2.6,5.4,2.6c1.5,0,2.9-0.2,4-0.6c1.1-0.4,2.1-1.1,2.9-1.9l1.1,1.8c-0.8,1-1.9,1.7-3.3,2.2
			C1088.2,193.2,1086.7,193.4,1084.9,193.4z M1084.5,171.8c-1.9,0-3.4,0.7-4.8,2.2c-1.2,1.5-1.9,3.2-2.2,5.4v0.1h13.4v-0.6
			c0-1.9-0.6-3.6-1.8-5C1088.2,172.5,1086.6,171.8,1084.5,171.8z"/>
		<path class="st1" d="M1115.7,187.3l0.7,2.7h0.1l0.8-2.7l6.2-17.2h2.6l-8.7,23h-2.1l-8.7-23h2.6L1115.7,187.3z"/>
		<path class="st1" d="M1133.2,163.5h-2.5v-3.6h2.5V163.5z M1133.2,193h-2.5v-23h2.5V193z"/>
		<path class="st1" d="M1139.2,181.7c0-3.6,0.7-6.6,2.3-8.8c1.5-2.2,3.7-3.3,6.5-3.3c1.5,0,3,0.3,4.1,1.1c1.1,0.7,2.2,1.7,2.9,2.9
			v-13.6h2.5V193h-2.3l-0.2-3.3c-0.7,1.2-1.8,2.2-2.9,2.8c-1.2,0.6-2.6,1-4.3,1c-2.7,0-4.9-1.1-6.5-3c-1.5-2.1-2.3-4.8-2.3-8.2v-0.5
			h0.2V181.7z M1141.8,182.2c0,2.8,0.5,5,1.7,6.6c1.1,1.7,2.8,2.5,5,2.5c1.7,0,3-0.4,4-1.1c1.1-0.7,1.9-1.8,2.6-3.1v-10.8
			c-0.6-1.4-1.4-2.4-2.5-3.2c-1.1-0.8-2.5-1.2-4.1-1.2c-2.2,0-4,1-5,2.8c-1.1,1.9-1.7,4.3-1.7,7.2V182.2L1141.8,182.2z"/>
		<path class="st1" d="M1178.9,193c-0.2-0.7-0.3-1.5-0.3-1.9c-0.1-0.5-0.1-1.1-0.1-1.8c-0.8,1.2-1.9,2.2-3.4,3s-3,1.1-4.8,1.1
			c-2.2,0-4-0.6-5.2-1.8c-1.2-1.1-1.9-2.8-1.9-4.8c0-2.1,1-3.8,2.7-5.1c1.9-1.2,4.3-1.9,7.4-1.9h5.1v-2.8c0-1.7-0.5-2.9-1.5-3.8
			c-1.1-1-2.5-1.4-4.4-1.4c-1.8,0-3.2,0.4-4.4,1.4c-1.1,1-1.8,1.9-1.8,3.2h-2.3v-0.1c-0.1-1.7,0.7-3.2,2.4-4.5
			c1.7-1.4,3.7-1.9,6.3-1.9c2.5,0,4.5,0.6,6.1,1.9c1.5,1.4,2.3,3.1,2.3,5.5v11.3c0,0.8,0,1.5,0.1,2.4c0.1,0.7,0.2,1.5,0.4,2.3h-2.8
			V193z M1170.6,191.2c1.9,0,3.4-0.4,4.9-1.2c1.5-0.8,2.4-1.9,3-3.3v-4.8h-5.1c-2.3,0-4.1,0.5-5.5,1.5c-1.4,1-2.1,2.2-2.1,3.6
			c0,1.2,0.4,2.3,1.2,3C1167.9,190.7,1169.1,191.2,1170.6,191.2z"/>
		<path class="st1" d="M1213.2,189.2c-0.7,1.4-1.8,2.4-3,3.1c-1.2,0.6-2.7,1.1-4.4,1.1c-2.4,0-4.3-0.8-5.7-2.5
			c-1.4-1.7-2.1-4.1-2.1-7.6V170h2.5v13.4c0,2.8,0.5,4.8,1.5,6s2.3,1.9,4,1.9c1.9,0,3.4-0.4,4.5-1.2c1.1-0.8,1.9-2.1,2.4-3.6v-16.3
			h2.5v22.7h-2.3L1213.2,189.2z M1210.1,161.6h3.1l0.1,0.1l-5.3,5.5h-2.3L1210.1,161.6z"/>
		<path class="st1" d="M1226.4,164.2v5.9h5.1v2.1h-5.1v15c0,1.5,0.3,2.6,0.8,3.2c0.5,0.6,1.2,1,2.2,1c0.4,0,0.8,0,1.2-0.1
			c0.4,0,0.8-0.1,1.4-0.2l0.4,1.9c-0.4,0.2-1,0.3-1.5,0.4c-0.6,0.1-1.2,0.1-1.9,0.1c-1.7,0-2.9-0.5-3.7-1.5c-1-1.1-1.4-2.6-1.4-4.9
			v-15h-4V170h4v-5.9h2.5V164.2L1226.4,164.2z"/>
		<path class="st1" d="M1239.6,163.5h-2.5v-3.6h2.5V163.5z M1239.6,193h-2.5v-23h2.5V193z"/>
		<path class="st1" d="M1249.5,193h-2.5v-33h2.5V193z"/>
	</g>
</g>
<g>
	<path class="st0" d="M90.3,20.1v71.1c0,12.2-4,21.8-12.1,28.7c-8.1,6.9-18.6,10.3-31.5,10.3s-23.3-3.4-31.4-10.3
		c-8.1-7.1-12.1-16.6-12.1-28.9V20.1h21.8v71.1c0,7.3,1.9,12.9,5.8,16.6s9.1,5.8,15.8,5.8s12-1.9,16-5.8c3.9-3.8,5.9-9.3,5.9-16.6
		V20.1H90.3z"/>
	<path class="st0" d="M162.7,100.3c0-4.2-1.5-7.6-4.4-10.1c-2.9-2.5-8.1-4.9-15.4-7.2c-12.5-3.8-22.1-8.2-28.5-13.4
		s-9.7-12.1-9.7-20.9c0-8.9,3.7-16.1,11-21.8c7.3-5.7,16.6-8.4,28-8.4c12,0,21.7,3,29,9.1s10.8,14,10.6,23.8l-0.1,0.5h-21
		c0-5.4-1.6-9.6-4.9-12.5c-3.3-2.9-7.8-4.4-13.7-4.4c-5.4,0-9.5,1.3-12.5,3.9c-2.9,2.5-4.4,5.9-4.4,10c0,3.7,1.6,6.7,4.8,9.1
		s8.7,4.9,16.5,7.4c12,3.4,21,7.8,27.2,13.2s9.5,12.6,9.5,21.5c0,9.3-3.7,16.6-10.8,21.9c-7.3,5.4-16.9,8.1-28.7,8.1
		c-11.7,0-21.7-2.9-30.1-8.7c-8.3-5.8-12.5-14.5-12.2-26l0.1-0.5h21c0,6.4,1.9,11.1,5.7,14.1c3.8,3,8.9,4.5,15.4,4.5
		c5.8,0,10.2-1.3,13.4-3.7C161.2,107.6,162.7,104.3,162.7,100.3z"/>
	<path class="st0" d="M248.2,100c0-4-1.1-7.3-3.5-9.8c-2.4-2.5-6.4-4.8-12.5-7.1c-11.2-3.8-19.5-8.2-24.9-13.2s-8.1-12.1-8.1-21.2
		c0-8.4,2.6-15.2,8.1-20.5c5.4-5.3,12.7-8.4,22.1-9.5V2.9h11.8V19c8.9,1.3,16,4.8,21,10.5c5,5.8,7.6,13.2,7.4,22.4l-0.1,0.4h-21.3
		c0-5.4-1.3-9.6-3.7-12.5c-2.4-2.9-5.9-4.4-10.3-4.4c-4.7,0-8.1,1.3-10.1,3.7c-2.1,2.4-3.2,5.7-3.2,9.8c0,3.8,1.1,6.9,3.3,9.2
		c2.3,2.3,6.4,4.8,12.7,7.4c11.1,3.5,19.3,7.9,24.7,13.1c5.4,5.2,8.2,12.3,8.2,21.3c0,8.7-2.6,15.5-8.1,20.8
		c-5.4,5.2-12.7,8.3-22.1,9.2v14.6h-12v-14.6c-9.6-0.9-17.4-4-23.6-9.5c-6.2-5.5-9.1-13.6-8.9-24.2l0.3-0.5h21.2
		c0,6.3,1.5,10.8,4.7,13.6c3.2,2.6,7.2,4,12.1,4c4.9,0,8.6-1.1,11-3.5C247,107.5,248.2,104.2,248.2,100z"/>
	<path class="st0" d="M391.5,36.9c-12.2,14.4-20.7,27.3-25.1,38.8s-6.7,24.7-6.7,39.6v13.4h-21.8v-13.5c0-15.1,2.8-28.9,8.3-41.3
		s13.6-24.8,24.2-37h-55.3V20.1h76.2v16.8H391.5z"/>
	<path class="st0" d="M426.9,128.6h-21.8v-19.2h21.8V128.6z"/>
	<path class="st0" d="M517.3,128.6h-72.8v-14.2l33.6-38.1c5-5.9,8.6-11,10.7-15c2.1-4.2,3.2-7.8,3.2-11.3c0-4.4-1.1-8.1-3.4-10.7
		c-2.3-2.6-5.5-4-10.1-4c-4.7,0-8.3,1.8-11,5.2c-2.5,3.4-3.9,7.8-3.9,13h-21.2l-0.1-0.5c-0.3-9.6,2.9-17.8,9.6-24.4
		c6.6-6.7,15.5-10.1,26.6-10.1s19.8,2.9,26,8.6c6.2,5.7,9.2,13.4,9.2,22.9c0,6.6-1.8,12.5-5.2,17.8c-3.4,5.4-9.5,12.9-17.9,22.3
		l-17.9,21.4l0.1,0.4h44.4v16.9H517.3z"/>
	<path class="st0" d="M600.7,89.3c0,12.7-3.4,22.7-10.1,30c-6.7,7.3-15.5,10.8-26.6,10.8c-11.1,0-20-3.7-26.7-10.8
		c-6.7-7.3-10.1-17.3-10.1-30V59.4c0-12.7,3.4-22.7,10.1-30s15.5-11,26.6-11c11.1,0,19.9,3.7,26.6,11s10.1,17.3,10.1,30v29.9H600.7z
		 M579,57.2c0-6.9-1.4-12.3-4-16.1c-2.6-3.8-6.3-5.8-11.1-5.8c-4.8,0-8.4,1.9-11.1,5.8c-2.6,3.8-3.9,9.2-3.9,16.1v34.1
		c0,7.1,1.3,12.6,3.9,16.4s6.3,5.7,11.2,5.7c4.7,0,8.4-1.9,11-5.7c2.6-3.8,3.9-9.2,3.9-16.4V57.2H579z"/>
	<path class="st0" d="M685.2,89.3c0,12.7-3.4,22.7-10.1,30c-6.7,7.3-15.5,10.8-26.6,10.8c-11.1,0-20-3.7-26.7-10.8
		c-6.7-7.3-10.1-17.3-10.1-30V59.4c0-12.7,3.4-22.7,10.1-30s15.5-11,26.6-11s19.9,3.7,26.6,11s10.1,17.3,10.1,30v29.9H685.2z
		 M663.6,57.2c0-6.9-1.4-12.3-4-16.1c-2.6-3.8-6.3-5.8-11.1-5.8s-8.4,1.9-11.1,5.8c-2.6,3.8-3.9,9.2-3.9,16.1v34.1
		c0,7.1,1.3,12.6,3.9,16.4c2.6,3.8,6.3,5.7,11.2,5.7c4.7,0,8.4-1.9,11-5.7c2.6-3.8,3.9-9.2,3.9-16.4V57.2H663.6z"/>
</g>
<g>
	<path class="st0" d="M272.4,157.1h-3V153h3V157.1z M272.4,191.6h-3v-26.8h3V191.6z"/>
	<path class="st0" d="M283.2,164.8l0.2,4.7c0.9-1.7,2.1-2.9,3.5-3.9s3.2-1.3,5.2-1.3c2.9,0,5.1,0.9,6.7,2.7s2.3,4.5,2.3,8.3v16.4
		h-2.9v-16.4c0-3-0.6-5.2-1.7-6.6c-1.1-1.2-2.8-1.9-4.9-1.9c-2.1,0-3.8,0.6-5.1,1.7c-1.3,1.1-2.3,2.6-2.8,4.4v18.8h-2.9v-26.8H283.2
		z"/>
	<path class="st0" d="M316.5,184.9l0.9,3.2h0.1l1-3.2l7.3-20h3l-10.2,26.7h-2.4l-10.2-26.8h3L316.5,184.9z"/>
	<path class="st0" d="M343.3,192.1c-3.4,0-6.2-1.2-8.4-3.8c-2.2-2.4-3.3-5.6-3.3-9.5v-1.3c0-3.9,1.1-7,3.3-9.6
		c2.2-2.6,4.9-3.8,8-3.8c3.3,0,5.8,1.1,7.8,3.2c1.9,2.1,2.8,4.9,2.8,8.4v2.6h-18.8v0.7c0,3,0.9,5.6,2.4,7.5c1.6,2.1,3.8,3,6.3,3
		c1.8,0,3.4-0.2,4.7-0.7c1.3-0.5,2.4-1.2,3.4-2.2l1.2,2.1c-1,1.1-2.3,1.9-3.9,2.6C347.3,191.9,345.5,192.1,343.3,192.1z
		 M342.9,166.8c-2.2,0-4,0.9-5.6,2.6c-1.5,1.7-2.3,3.8-2.6,6.3v0.1h15.7v-0.7c0-2.3-0.7-4.3-2.1-5.8
		C347.2,167.6,345.4,166.8,342.9,166.8z"/>
	<path class="st0" d="M371.7,167.3l-2.2-0.1c-1.8,0-3.4,0.5-4.6,1.6c-1.2,1.1-2.1,2.6-2.6,4.4v18.5h-2.9v-26.8h2.6l0.4,4.5v0.2
		c0.7-1.7,1.8-2.9,3.2-3.9s2.9-1.3,4.6-1.3c0.4,0,0.7,0,1.1,0.1c0.4,0,0.6,0.1,0.9,0.2L371.7,167.3z"/>
	<path class="st0" d="M392.7,184.8c0-1.2-0.5-2.3-1.6-3.3c-1.1-1-2.9-1.7-5.6-2.3c-3.2-0.7-5.6-1.6-7-2.8c-1.6-1.1-2.3-2.8-2.3-4.9
		s0.9-3.8,2.6-5.2c1.7-1.5,4-2.1,6.8-2.1c3,0,5.5,0.7,7.2,2.2c1.8,1.5,2.6,3.4,2.6,5.6v0.1h-2.7c0-1.5-0.6-2.8-1.8-3.9
		s-2.9-1.6-5.1-1.6s-3.8,0.5-4.9,1.3c-1.1,1-1.6,2.1-1.6,3.3s0.5,2.3,1.5,3c1,0.9,2.8,1.5,5.6,2.1c3.2,0.7,5.6,1.7,7.2,2.9
		s2.4,2.9,2.4,5c0,2.2-0.9,4-2.7,5.5c-1.8,1.5-4.3,2.1-7.2,2.1c-3.3,0-5.8-0.7-7.7-2.3c-1.8-1.6-2.8-3.4-2.7-5.6v-0.1h2.7
		c0.1,1.9,0.9,3.3,2.3,4.3c1.5,1,3.2,1.3,5.2,1.3c2.2,0,3.9-0.5,5.1-1.5C392.1,187.3,392.7,186.2,392.7,184.8z"/>
	<path class="st0" d="M405.9,157.1h-2.9V153h2.9V157.1z M405.9,191.6h-2.9v-26.8h2.9V191.6z"/>
	<path class="st0" d="M412.4,177.8c0-4,1.1-7.2,3.3-9.7c2.2-2.6,5-3.8,8.6-3.8s6.4,1.2,8.6,3.8c2.2,2.6,3.3,5.7,3.3,9.7v0.9
		c0,4-1.1,7.2-3.3,9.7c-2.2,2.6-5,3.8-8.6,3.8s-6.4-1.2-8.6-3.8c-2.2-2.6-3.3-5.7-3.3-9.7C412.4,178.6,412.4,177.8,412.4,177.8z
		 M415.4,178.6c0,3.2,0.7,5.7,2.3,7.8c1.6,2.1,3.8,3.2,6.6,3.2c2.8,0,5-1.1,6.6-3.2c1.6-2.1,2.3-4.7,2.3-7.8v-0.9
		c0-3-0.9-5.6-2.4-7.8c-1.6-2.2-3.8-3.2-6.6-3.2c-2.8,0-5,1.1-6.6,3.2c-1.6,2.2-2.3,4.7-2.3,7.8v0.9H415.4z M427.8,154.5h3.6
		l0.1,0.1l-6.2,6.4h-2.7L427.8,154.5z"/>
	<path class="st0" d="M445,164.8l0.2,4.7c0.9-1.7,2.1-2.9,3.5-3.9s3.2-1.3,5.2-1.3c2.9,0,5.1,0.9,6.7,2.7c1.6,1.8,2.3,4.5,2.3,8.3
		v16.4H460v-16.4c0-3-0.6-5.2-1.7-6.6c-1.1-1.2-2.8-1.9-4.9-1.9c-2.1,0-3.8,0.6-5.1,1.7c-1.3,1.1-2.3,2.6-2.8,4.4v18.8h-2.9v-26.8
		H445z"/>
	<path class="st0" d="M493.1,192.1c-3.4,0-6.2-1.2-8.4-3.8c-2.2-2.4-3.3-5.6-3.3-9.5v-1.3c0-3.9,1.1-7,3.3-9.6
		c2.2-2.6,4.9-3.8,8-3.8c3.3,0,5.8,1.1,7.8,3.2c1.9,2.1,2.8,4.9,2.8,8.4v2.6h-18.9v0.7c0,3,0.9,5.6,2.4,7.5c1.6,2.1,3.8,3,6.3,3
		c1.8,0,3.4-0.2,4.7-0.7c1.3-0.5,2.4-1.2,3.4-2.2l1.2,2.1c-1,1.1-2.3,1.9-3.9,2.6C497,191.9,495.1,192.1,493.1,192.1z M492.6,166.8
		c-2.2,0-4,0.9-5.6,2.6c-1.5,1.7-2.3,3.8-2.6,6.3v0.1h15.7v-0.7c0-2.3-0.7-4.3-2.1-5.8C496.8,167.6,495,166.8,492.6,166.8z"/>
	<path class="st0" d="M525.1,184.8c0-1.2-0.5-2.3-1.6-3.3c-1.1-1-2.9-1.7-5.6-2.3c-3.2-0.7-5.6-1.6-7-2.8c-1.6-1.1-2.3-2.8-2.3-4.9
		s0.9-3.8,2.6-5.2c1.7-1.5,4-2.1,6.8-2.1c3,0,5.5,0.7,7.2,2.2c1.8,1.5,2.6,3.4,2.6,5.6v0.1H525c0-1.5-0.6-2.8-1.8-3.9
		c-1.2-1.1-2.9-1.6-5.1-1.6s-3.8,0.5-4.9,1.3c-1.1,1-1.6,2.1-1.6,3.3s0.5,2.3,1.5,3c1,0.9,2.8,1.5,5.6,2.1c3.2,0.7,5.6,1.7,7.2,2.9
		c1.6,1.2,2.4,2.9,2.4,5c0,2.2-0.9,4-2.7,5.5s-4.3,2.1-7.2,2.1c-3.3,0-5.8-0.7-7.7-2.3c-1.8-1.6-2.8-3.4-2.7-5.6v-0.1h2.7
		c0.1,1.9,0.9,3.3,2.3,4.3c1.5,1,3.2,1.3,5.2,1.3c2.2,0,3.9-0.5,5.1-1.5C524.5,187.3,525.1,186.2,525.1,184.8z"/>
	<path class="st0" d="M539.6,158v6.9h6v2.4h-6v17.5c0,1.7,0.4,3,1,3.8s1.5,1.1,2.6,1.1c0.5,0,1,0,1.5-0.1c0.5,0,1-0.1,1.6-0.2
		l0.5,2.2c-0.5,0.2-1.1,0.4-1.8,0.5c-0.7,0.1-1.5,0.1-2.2,0.1c-1.9,0-3.4-0.6-4.4-1.8c-1-1.2-1.6-3-1.6-5.7v-17.5h-4.6v-2.4h4.6
		v-6.9h2.9V158z"/>
	<path class="st0" d="M555.1,157.1h-2.9V153h2.9V157.1z M555.1,191.6h-2.9v-26.8h2.9V191.6z"/>
	<path class="st0" d="M565.8,164.8l0.2,4.5c0.9-1.6,1.9-2.8,3.4-3.6c1.5-0.9,3.2-1.3,5.1-1.3c2.1,0,3.8,0.5,5.1,1.5s2.3,2.6,2.9,4.5
		c0.9-1.9,1.9-3.4,3.4-4.4c1.5-1.1,3.3-1.6,5.5-1.6c2.9,0,5.1,1,6.6,2.8c1.5,1.8,2.3,4.9,2.3,8.9v15.7h-2.9V176c0-3.3-0.6-5.7-1.7-7
		c-1.2-1.3-2.8-2.1-4.9-2.1c-2.3,0-4.1,0.7-5.3,2.2c-1.2,1.5-2.1,3.3-2.3,5.6c0,0.1,0,0.2,0,0.5s0,0.4,0,0.5v16h-3V176
		c0-3.3-0.6-5.6-1.8-6.9c-1.2-1.5-2.8-2.1-4.9-2.1c-2.1,0-3.8,0.5-5,1.6c-1.2,1.1-2.1,2.6-2.6,4.3v18.8h-3v-26.8H565.8z"/>
	<path class="st0" d="M625.3,191.6c-0.2-0.9-0.4-1.7-0.4-2.3c-0.1-0.6-0.1-1.3-0.1-2.1c-1,1.5-2.3,2.6-4,3.5c-1.7,1-3.5,1.3-5.6,1.3
		c-2.6,0-4.6-0.7-6.1-2.1c-1.5-1.3-2.2-3.3-2.2-5.6c0-2.4,1.1-4.5,3.2-6c2.2-1.5,5-2.2,8.6-2.2h6V173c0-1.9-0.6-3.4-1.8-4.5
		c-1.2-1.1-2.9-1.6-5.2-1.6c-2.1,0-3.8,0.5-5.1,1.6s-2.1,2.3-2.1,3.8h-2.7v-0.1c-0.1-1.9,0.9-3.8,2.8-5.3c1.9-1.6,4.4-2.3,7.4-2.3
		c2.9,0,5.3,0.7,7.2,2.3c1.8,1.5,2.7,3.6,2.7,6.4v13.2c0,1,0,1.8,0.1,2.8c0.1,0.9,0.2,1.8,0.5,2.7h-3.2V191.6z M615.5,189.6
		c2.2,0,4-0.5,5.7-1.5c1.7-1,2.8-2.3,3.5-3.9v-5.6h-6c-2.7,0-4.9,0.6-6.4,1.7c-1.6,1.1-2.4,2.6-2.4,4.3c0,1.5,0.5,2.7,1.5,3.5
		C612.3,189,613.8,189.6,615.5,189.6z"/>
	<path class="st0" d="M634.4,178.4c0-4.3,0.9-7.7,2.7-10.3c1.8-2.6,4.4-3.9,7.5-3.9c1.8,0,3.5,0.4,4.9,1.2c1.3,0.9,2.6,1.9,3.4,3.4
		v-15.9h2.9v38.7h-2.7l-0.2-3.9c-0.9,1.5-2.1,2.6-3.4,3.3c-1.5,0.7-3,1.1-5,1.1c-3.2,0-5.7-1.2-7.5-3.5c-1.8-2.4-2.7-5.6-2.7-9.6
		v-0.6H634.4z M637.4,179c0,3.3,0.6,5.8,1.9,7.8c1.3,1.9,3.3,2.9,5.8,2.9c1.9,0,3.5-0.5,4.7-1.3c1.3-0.9,2.3-2.1,3-3.6v-12.6
		c-0.7-1.6-1.6-2.8-2.9-3.8c-1.2-1-2.9-1.5-4.9-1.5c-2.6,0-4.6,1.1-5.8,3.3c-1.3,2.2-1.9,5-1.9,8.4V179z"/>
	<path class="st0" d="M680.8,191.6c-0.2-0.9-0.4-1.7-0.4-2.3c-0.1-0.6-0.1-1.3-0.1-2.1c-1,1.5-2.3,2.6-4,3.5c-1.7,1-3.5,1.3-5.6,1.3
		c-2.6,0-4.6-0.7-6.1-2.1s-2.2-3.3-2.2-5.6c0-2.4,1.1-4.5,3.2-6c2.2-1.5,5-2.2,8.6-2.2h6V173c0-1.9-0.6-3.4-1.8-4.5
		c-1.2-1.1-2.9-1.6-5.2-1.6c-2.1,0-3.8,0.5-5.1,1.6c-1.3,1.1-2.1,2.3-2.1,3.8h-2.7v-0.1c-0.1-1.9,0.9-3.8,2.8-5.3
		c1.9-1.6,4.4-2.3,7.4-2.3c2.9,0,5.3,0.7,7.2,2.3c1.8,1.5,2.7,3.6,2.7,6.4v13.2c0,1,0,1.8,0.1,2.8c0.1,0.9,0.2,1.8,0.5,2.7h-3.2
		V191.6z M671.1,189.6c2.2,0,4-0.5,5.7-1.5c1.7-1,2.8-2.3,3.5-3.9v-5.6h-6c-2.7,0-4.9,0.6-6.4,1.7c-1.6,1.1-2.4,2.6-2.4,4.3
		c0,1.5,0.5,2.7,1.5,3.5C668,189,669.3,189.6,671.1,189.6z"/>
</g>
<g>
	<path class="st0" d="M10.7,159.2l0.4,4.5c1.1-1.6,2.4-2.9,4.1-3.8c1.6-0.9,3.5-1.3,5.7-1.3s4,0.5,5.6,1.5c1.6,1,2.7,2.4,3.5,4.4
		c1.1-1.8,2.4-3.3,4.1-4.3s3.6-1.6,6-1.6c3.4,0,6,1.2,7.9,3.5c1.9,2.4,2.9,6,2.9,10.8v20.2h-9.1v-20.2c0-2.7-0.4-4.6-1.2-5.7
		c-0.9-1.1-2.1-1.6-3.8-1.6c-1.3,0-2.4,0.2-3.4,0.9s-1.7,1.3-2.3,2.4c0,0.4,0,0.7,0,1c0,0.2,0,0.6,0,0.9v22.3H22v-20.2
		c0-2.7-0.4-4.5-1.2-5.6c-0.9-1.1-2.1-1.7-3.8-1.7c-1.2,0-2.3,0.2-3.3,0.7s-1.7,1.1-2.3,1.9v24.8H2.2v-33.9H10.7z"/>
	<path class="st0" d="M67.3,151.1h-9.1v-6.9h9.1V151.1z M67.3,193.1h-9.1v-33.9h9.1V193.1z"/>
	<path class="st0" d="M84.5,193.1h-9.1v-48.8h9.1V193.1z"/>
	<path class="st0" d="M101.7,193.1h-9.1v-48.8h9.1V193.1z"/>
	<path class="st0" d="M107.8,175.8c0-5.1,1.5-9.2,4.3-12.4c2.8-3.3,6.7-4.9,11.7-4.9c5,0,9,1.6,11.8,4.9c2.8,3.2,4.3,7.4,4.3,12.4
		v0.6c0,5.1-1.5,9.2-4.3,12.5c-2.8,3.2-6.8,4.9-11.8,4.9c-5,0-9-1.6-11.8-4.9c-2.8-3.2-4.3-7.4-4.3-12.5v-0.6H107.8z M116.9,176.4
		c0,3,0.5,5.6,1.6,7.4c1.1,1.8,2.8,2.8,5.2,2.8c2.3,0,4.1-1,5.2-2.8c1.1-1.8,1.7-4.4,1.7-7.4v-0.6c0-3-0.6-5.5-1.7-7.4
		c-1.1-1.9-2.8-2.8-5.2-2.8c-2.3,0-4.1,1-5.2,2.9c-1.1,1.9-1.7,4.4-1.7,7.3v0.6H116.9z"/>
	<path class="st0" d="M153.8,159.2l0.4,4.9c1.1-1.7,2.6-3,4.1-4c1.7-1,3.5-1.5,5.6-1.5c3.4,0,6.1,1.1,8,3.3
		c1.9,2.2,2.9,5.7,2.9,10.4v20.8h-9.2v-20.8c0-2.4-0.4-4.1-1.2-5.1c-0.9-1-2.1-1.6-3.8-1.6c-1.3,0-2.6,0.2-3.6,0.7
		c-1.1,0.5-1.9,1.2-2.6,2.1v24.7h-9.1v-33.9H153.8z"/>
	<path class="st0" d="M196.3,193.7c-5.1,0-9-1.6-11.9-4.6c-2.8-3.2-4.3-7-4.3-12v-1.2c0-5.1,1.3-9.2,4.1-12.5s6.6-4.9,11.4-4.9
		c4.5,0,8,1.3,10.4,4.1c2.4,2.8,3.6,6.6,3.6,11.3v4.7h-20.2l-0.1,0.2c0.1,2.3,0.9,4.3,2.1,5.6c1.2,1.5,3.2,2.2,5.6,2.2
		c2.1,0,3.8-0.2,5.2-0.6c1.5-0.4,2.9-1.1,4.5-1.9l2.4,5.6c-1.3,1.1-3.2,2.1-5.5,2.8C201.6,193.2,199.1,193.7,196.3,193.7z
		 M195.7,165.6c-1.8,0-3.3,0.6-4.3,1.9c-1,1.2-1.6,2.9-1.8,5l0.1,0.1h11.2V172c0-1.9-0.4-3.5-1.2-4.7S197.5,165.6,195.7,165.6z"/>
	<path class="st0" d="M233.5,183.7c0-1-0.5-1.8-1.5-2.6c-1-0.7-2.8-1.3-5.5-1.9c-4-0.9-6.9-1.9-9-3.6c-2.1-1.6-3-3.8-3-6.6
		c0-2.9,1.2-5.3,3.6-7.4c2.4-2.1,5.7-3,9.8-3c4.3,0,7.8,1,10.3,3s3.8,4.6,3.8,7.7l-0.1,0.2h-8.9c0-1.3-0.5-2.4-1.3-3.3
		c-0.9-0.9-2.2-1.3-3.8-1.3c-1.5,0-2.7,0.4-3.5,1.1c-0.9,0.7-1.3,1.6-1.3,2.7c0,1.1,0.5,1.9,1.3,2.6c0.9,0.6,2.7,1.2,5.5,1.8
		c4.1,0.9,7.3,2.1,9.2,3.6c2.1,1.6,3,3.9,3,6.7c0,3-1.3,5.6-3.9,7.5c-2.7,1.9-6.1,2.9-10.3,2.9c-4.5,0-8.1-1.1-10.7-3.4
		c-2.7-2.3-3.9-4.9-3.8-7.8l0.1-0.2h8.4c0.1,1.8,0.6,3.2,1.8,4s2.6,1.2,4.4,1.2c1.7,0,3-0.4,3.9-1
		C233.1,185.8,233.5,184.8,233.5,183.7z"/>
</g>
<line class="st2" x1="758" y1="3" x2="758" y2="189"/>
</svg>
