<?xml version="1.0" encoding="utf-8"?>
<!-- Generator: Adobe Illustrator 22.1.0, SVG Export Plug-In . SVG Version: 6.00 Build 0)  -->
<svg version="1.1" id="Capa_1" xmlns="http://www.w3.org/2000/svg" xmlns:xlink="http://www.w3.org/1999/xlink" x="0px" y="0px"
	 viewBox="0 0 1256 196" style="enable-background:new 0 0 1256 196;" xml:space="preserve">
<style type="text/css">
	.st0{enable-background:new    ;}
	.st1{fill:#54515C;}
</style>
<g class="st0">
	<path class="st1" d="M88.6,121.9H9.7v-15.4l36.4-41.2c5.5-6.4,9.3-11.9,11.6-16.2c2.3-4.5,3.4-8.5,3.4-12.3c0-4.8-1.2-8.7-3.7-11.6
		s-6-4.4-10.9-4.4c-5,0-9,1.9-11.9,5.6s-4.2,8.5-4.2,14H7.7L7.6,40C7.3,29.6,10.7,20.8,18,13.5C25,6.4,34.7,2.7,46.7,2.7
		S68.1,5.8,74.8,12c6.7,6.1,10,14.5,10,24.8c0,7.1-1.9,13.5-5.6,19.2C75.5,61.9,69,69.9,59.8,80.1l-19.4,23.2l0.1,0.4h48
		C88.6,103.7,88.6,121.9,88.6,121.9z"/>
	<path class="st1" d="M183.4,121.9h-78.8v-15.4L141,65.3c5.5-6.4,9.3-11.9,11.6-16.2c2.3-4.5,3.4-8.5,3.4-12.3
		c0-4.8-1.2-8.7-3.7-11.6s-6-4.4-10.9-4.4c-5,0-9,1.9-11.9,5.6c-2.9,3.7-4.2,8.5-4.2,14h-22.8l-0.1-0.5
		c-0.3-10.4,3.1-19.2,10.4-26.5c7.1-7.2,16.8-10.9,28.8-10.9s21.4,3.1,28.1,9.3s10,14.5,10,24.8c0,7.1-1.9,13.5-5.6,19.2
		c-3.7,5.9-10.2,13.9-19.4,24.1l-19.4,23.2l0.1,0.4h48L183.4,121.9L183.4,121.9z"/>
	<path class="st1" d="M267,78.1h13.2v18.3H267v25.5h-23.6V96.4h-47.9l-1.1-14.2l48.7-77.9h23.7v73.8C266.8,78.1,267,78.1,267,78.1z
		 M215.8,78.1h27.6V35.4l-0.5-0.1l-2.5,5.2L215.8,78.1z"/>
	<path class="st1" d="M319.7,121.9h-23.6v-20.7h23.6V121.9z"/>
	<path class="st1" d="M419.9,79.3c0,13.8-3.7,24.6-10.9,32.5s-16.8,11.7-28.8,11.7s-21.7-4-28.9-11.7c-7.2-7.9-10.9-18.7-10.9-32.5
		V47c0-13.8,3.7-24.6,10.9-32.5S368,2.7,380,2.7s21.5,4,28.8,11.9s10.9,18.7,10.9,32.5v32.3L419.9,79.3L419.9,79.3z M396.4,44.6
		c0-7.5-1.5-13.4-4.4-17.5s-6.8-6.3-12-6.3s-9.1,2-12,6.3c-2.9,4.1-4.2,10-4.2,17.5v37c0,7.6,1.4,13.6,4.2,17.7
		c2.9,4.1,6.8,6.1,12.1,6.1c5,0,9.1-2,11.9-6.1c2.9-4.1,4.2-10,4.2-17.7v-37C396.2,44.6,396.4,44.6,396.4,44.6z"/>
	<path class="st1" d="M514.5,79.3c0,13.8-3.7,24.6-10.9,32.5s-16.8,11.7-28.8,11.7s-21.7-4-28.9-11.7c-7.2-7.9-10.9-18.7-10.9-32.5
		V47c0-13.8,3.7-24.6,10.9-32.5c7.2-7.9,16.8-11.9,28.8-11.9s21.5,4,28.8,11.9c7.2,7.9,10.9,18.7,10.9,32.5L514.5,79.3L514.5,79.3z
		 M491.1,44.6c0-7.5-1.5-13.4-4.4-17.5s-6.8-6.3-12-6.3s-9.1,2-12,6.3c-2.9,4.1-4.2,10-4.2,17.5v37c0,7.6,1.4,13.6,4.2,17.7
		c2.9,4.1,6.8,6.1,12.1,6.1c5,0,9.1-2,11.9-6.1c2.9-4.1,4.2-10,4.2-17.7v-37C490.9,44.6,491.1,44.6,491.1,44.6z"/>
	<path class="st1" d="M609.3,79.3c0,13.8-3.7,24.6-10.9,32.5s-16.8,11.7-28.8,11.7s-21.7-4-28.9-11.7c-7.2-7.9-10.9-18.7-10.9-32.5
		V47c0-13.8,3.7-24.6,10.9-32.5s16.8-11.9,28.8-11.9s21.5,4,28.8,11.9c7.2,7.9,10.9,18.7,10.9,32.5v32.3H609.3z M585.8,44.6
		c0-7.5-1.5-13.4-4.4-17.5s-6.8-6.3-12-6.3s-9.1,2-12,6.3c-2.9,4.1-4.2,10-4.2,17.5v37c0,7.6,1.4,13.6,4.2,17.7
		c2.9,4.1,6.8,6.1,12.1,6.1c5,0,9.1-2,11.9-6.1c2.9-4.1,4.2-10,4.2-17.7v-37C585.6,44.6,585.8,44.6,585.8,44.6z"/>
</g>
<g class="st0">
	<path class="st1" d="M17,144.1v9.3h6.4v7.2H17V180c0,1.5,0.3,2.6,1,3.1c0.7,0.7,1.5,1,2.5,1c0.5,0,1,0,1.4-0.1
		c0.4,0,0.8-0.1,1.4-0.3l0.8,7.4c-1.1,0.4-2,0.7-3,0.8s-2,0.3-3.1,0.3c-3.5,0-6.3-1-8.2-2.9s-2.9-5-2.9-9.3v-19.4H1.1v-7.2h5.6v-9.3
		H17L17,144.1z"/>
	<path class="st1" d="M28.1,172.2c0-5.7,1.6-10.4,4.8-13.9c3.1-3.7,7.5-5.5,13.1-5.5s10.1,1.8,13.2,5.5c3.1,3.5,4.8,8.3,4.8,13.9
		v0.7c0,5.7-1.6,10.4-4.8,14c-3.1,3.5-7.6,5.5-13.2,5.5s-10.1-1.8-13.2-5.5c-3.1-3.5-4.8-8.3-4.8-14v-0.7H28.1z M38.4,172.9
		c0,3.4,0.5,6.3,1.8,8.3c1.2,2,3.1,3.1,5.9,3.1c2.6,0,4.6-1.1,5.9-3.1c1.2-2,1.9-4.9,1.9-8.3v-0.7c0-3.4-0.7-6.1-1.9-8.3
		s-3.1-3.1-5.9-3.1c-2.6,0-4.6,1.1-5.9,3.3s-1.9,4.9-1.9,8.2v0.7L38.4,172.9L38.4,172.9z"/>
	<path class="st1" d="M79.8,153.5l0.4,5.5c1.2-1.9,2.9-3.4,4.6-4.5c1.9-1.1,4-1.6,6.3-1.6c3.8,0,6.8,1.2,9,3.7s3.3,6.4,3.3,11.7
		v23.3H93.1v-23.3c0-2.7-0.4-4.6-1.4-5.7s-2.3-1.8-4.2-1.8c-1.5,0-2.9,0.3-4.1,0.8s-2.2,1.4-2.9,2.3v27.7H70.3v-38.1H79.8z"/>
	<path class="st1" d="M127.6,192.3c-5.7,0-10.1-1.8-13.4-5.2c-3.1-3.5-4.8-7.9-4.8-13.5v-1.4c0-5.7,1.5-10.4,4.6-14
		c3.1-3.7,7.4-5.5,12.8-5.5c5,0,9,1.5,11.7,4.6c2.7,3.1,4.1,7.4,4.1,12.7v5.3H120l-0.1,0.3c0.1,2.6,1,4.8,2.3,6.3
		c1.4,1.6,3.5,2.5,6.3,2.5c2.3,0,4.2-0.3,5.9-0.7c1.6-0.4,3.3-1.2,5-2.2l2.7,6.3c-1.5,1.2-3.5,2.3-6.1,3.1S130.7,192.3,127.6,192.3z
		 M126.9,160.8c-2,0-3.7,0.7-4.8,2.2c-1.1,1.4-1.8,3.3-2,5.6l0.1,0.1h12.5v-0.8c0-2.2-0.4-4-1.4-5.3
		C130.4,161.2,128.9,160.8,126.9,160.8z"/>
	<path class="st1" d="M159.6,191.6h-10.2v-54.8h10.2V191.6z"/>
	<path class="st1" d="M190.4,191.6c-0.4-0.8-0.7-1.8-1-2.7c-0.3-1-0.4-1.9-0.5-3c-1.1,1.9-2.5,3.4-4.2,4.6c-1.8,1.2-3.8,1.8-6.1,1.8
		c-4,0-7.1-1.1-9.3-3.1s-3.3-4.9-3.3-8.5c0-3.7,1.5-6.7,4.4-8.7s7.1-3.1,12.5-3.1h5.7v-3c0-1.8-0.5-3.3-1.5-4.2
		c-1-1-2.5-1.5-4.2-1.5c-1.6,0-3,0.4-3.8,1.2c-1,0.8-1.4,1.9-1.4,3.3h-9.8l-0.1-0.3c-0.1-3.3,1.2-6,4.2-8.3s6.8-3.5,11.6-3.5
		c4.6,0,8.3,1.1,11,3.4c2.9,2.3,4.2,5.6,4.2,9.8v15.7c0,1.8,0.1,3.4,0.4,5c0.3,1.6,0.7,3.1,1.2,4.6h-10.1v0.5H190.4z M181.2,184.8
		c1.8,0,3.4-0.4,4.8-1.4c1.4-1,2.3-1.9,2.9-3.1V175h-5.7c-2.2,0-3.8,0.5-4.9,1.6c-1.1,1.1-1.6,2.5-1.6,4c0,1.2,0.4,2.3,1.2,3.1
		C178.4,184.4,179.7,184.8,181.2,184.8z"/>
	<path class="st1" d="M205.2,172.9c0-6,1.4-10.9,4-14.6s6.3-5.6,10.9-5.6c1.9,0,3.5,0.4,5.2,1.2c1.5,0.8,2.9,2,4,3.5v-20.9h10.4v55
		H231l-0.8-4.6c-1.2,1.8-2.6,3.1-4.2,4.1c-1.6,1-3.5,1.4-5.6,1.4c-4.6,0-8.3-1.8-10.9-5.2c-2.6-3.4-4-7.9-4-13.6v-0.7L205.2,172.9
		L205.2,172.9z M215.4,173.6c0,3.3,0.5,6,1.6,7.9s3,2.9,5.5,2.9c1.5,0,2.7-0.3,3.8-1s2-1.5,2.7-2.6v-16.2c-0.7-1.2-1.6-2.2-2.7-2.9
		c-1.1-0.7-2.3-1-3.8-1c-2.5,0-4.4,1.1-5.5,3.4c-1.2,2.2-1.8,5.2-1.8,8.7v0.7h0.2V173.6z"/>
	<path class="st1" d="M269.8,191.6c-0.4-0.8-0.7-1.8-1-2.7c-0.3-1-0.4-1.9-0.5-3c-1.1,1.9-2.5,3.4-4.2,4.6s-3.8,1.8-6.1,1.8
		c-4,0-7.1-1.1-9.3-3.1s-3.3-4.9-3.3-8.5c0-3.7,1.5-6.7,4.4-8.7s7.1-3.1,12.5-3.1h5.7v-3c0-1.8-0.5-3.3-1.5-4.2
		c-1-1-2.5-1.5-4.2-1.5c-1.6,0-3,0.4-3.8,1.2c-1,0.8-1.4,1.9-1.4,3.3h-9.8l-0.1-0.3c-0.1-3.3,1.2-6,4.2-8.3s6.8-3.5,11.6-3.5
		c4.6,0,8.3,1.1,11,3.4c2.9,2.3,4.2,5.6,4.2,9.8v15.7c0,1.8,0.1,3.4,0.4,5s0.7,3.1,1.2,4.6h-10.1v0.5H269.8z M260.6,184.8
		c1.8,0,3.4-0.4,4.8-1.4s2.3-1.9,2.9-3.1V175h-5.7c-2.2,0-3.8,0.5-4.9,1.6s-1.6,2.5-1.6,4c0,1.2,0.4,2.3,1.2,3.1
		C257.8,184.4,259.1,184.8,260.6,184.8z"/>
	<path class="st1" d="M306.8,181.1c0-1.1-0.5-2-1.6-2.9c-1.1-0.8-3.1-1.5-6.1-2.2c-4.5-1-7.8-2.2-10.1-4.1c-2.3-1.8-3.4-4.2-3.4-7.4
		c0-3.3,1.4-6,4.1-8.3s6.4-3.4,11-3.4c4.8,0,8.7,1.1,11.6,3.4c2.9,2.3,4.2,5.2,4.2,8.6l-0.1,0.3h-10c0-1.5-0.5-2.7-1.5-3.7
		s-2.5-1.5-4.2-1.5c-1.6,0-3,0.4-4,1.2s-1.5,1.8-1.5,3s0.5,2.2,1.5,2.9s3,1.4,6.1,2c4.6,1,8.2,2.3,10.4,4.1c2.3,1.8,3.4,4.4,3.4,7.5
		c0,3.4-1.5,6.3-4.4,8.5c-3,2.2-6.8,3.3-11.6,3.3c-5,0-9.1-1.2-12-3.8c-3-2.6-4.4-5.5-4.2-8.7l0.1-0.3h9.4c0.1,2,0.7,3.5,2,4.5
		c1.4,1,2.9,1.4,4.9,1.4c1.9,0,3.4-0.4,4.4-1.1C306.2,183.4,306.8,182.3,306.8,181.1z"/>
	<path class="st1" d="M339.7,172.9c0-6,1.4-10.9,4-14.6s6.3-5.6,10.9-5.6c1.9,0,3.5,0.4,5.2,1.2c1.5,0.8,2.9,2,4,3.5v-20.9H374v55
		h-8.7l-0.8-4.6c-1.2,1.8-2.6,3.1-4.2,4.1s-3.5,1.4-5.6,1.4c-4.6,0-8.3-1.8-10.9-5.2s-4-7.9-4-13.6L339.7,172.9L339.7,172.9
		L339.7,172.9z M349.9,173.6c0,3.3,0.5,6,1.6,7.9s3,2.9,5.5,2.9c1.5,0,2.7-0.3,3.8-1s2-1.5,2.7-2.6v-16.2c-0.7-1.2-1.6-2.2-2.7-2.9
		s-2.3-1-3.8-1c-2.5,0-4.4,1.1-5.5,3.4c-1.2,2.2-1.8,5.2-1.8,8.7v0.7h0.2V173.6z"/>
	<path class="st1" d="M398.4,192.3c-5.7,0-10.1-1.8-13.4-5.2c-3.1-3.5-4.8-7.9-4.8-13.5v-1.4c0-5.7,1.5-10.4,4.6-14
		c3.1-3.7,7.4-5.5,12.8-5.5c5.2,0,9,1.5,11.7,4.6s4.1,7.4,4.1,12.7v5.3h-22.6l-0.1,0.3c0.1,2.6,1,4.8,2.3,6.3
		c1.4,1.6,3.5,2.5,6.3,2.5c2.3,0,4.2-0.3,5.9-0.7c1.6-0.4,3.3-1.2,5-2.2l2.7,6.3c-1.5,1.2-3.5,2.3-6.1,3.1
		C404.3,191.9,401.4,192.3,398.4,192.3z M397.8,160.8c-2,0-3.7,0.7-4.8,2.2c-1.1,1.4-1.8,3.3-2,5.6l0.1,0.1h12.5v-0.8
		c0-2.2-0.4-4-1.4-5.3C401.3,161.2,399.8,160.8,397.8,160.8z"/>
	<path class="st1" d="M453.4,184.5c1.8,0,3.1-0.5,4.2-1.6s1.6-2.5,1.6-4.2h9.4l0.1,0.3c0.1,3.8-1.4,7.1-4.2,9.7c-3,2.6-6.5,4-10.9,4
		c-5.6,0-10-1.8-13.1-5.5c-3.1-3.5-4.6-8.2-4.6-13.8v-1.1c0-5.6,1.5-10.2,4.6-13.8s7.4-5.5,13-5.5c4.6,0,8.3,1.4,11.2,4
		c2.9,2.6,4.2,6.1,4.1,10.5l-0.1,0.3h-9.4c0-1.9-0.5-3.5-1.5-4.9c-1.1-1.4-2.5-1.9-4.4-1.9c-2.6,0-4.5,1.1-5.6,3.1
		c-1.1,2.2-1.6,4.8-1.6,8.2v1.1c0,3.4,0.5,6.1,1.6,8.2C448.9,183.4,450.8,184.5,453.4,184.5z"/>
	<path class="st1" d="M473.2,172.2c0-5.7,1.6-10.4,4.8-13.9c3.1-3.7,7.5-5.5,13.2-5.5c5.6,0,10.1,1.8,13.2,5.5s4.8,8.3,4.8,13.9v0.7
		c0,5.7-1.6,10.4-4.8,14c-3.1,3.5-7.6,5.5-13.2,5.5s-10.1-1.8-13.2-5.5c-3.1-3.5-4.8-8.3-4.8-14V172.2z M483.4,172.9
		c0,3.4,0.5,6.3,1.8,8.3c1.2,2,3.1,3.1,5.9,3.1c2.6,0,4.6-1.1,5.9-3.1c1.2-2,1.9-4.9,1.9-8.3v-0.7c0-3.4-0.7-6.1-1.9-8.3
		c-1.2-2.2-3.1-3.1-5.9-3.1c-2.6,0-4.6,1.1-5.9,3.3c-1.2,2.2-1.9,4.9-1.9,8.2v0.7L483.4,172.9L483.4,172.9z"/>
	<path class="st1" d="M549.7,173.6c0,5.7-1.2,10.2-3.8,13.6s-6.1,5-10.9,5c-2.2,0-4.2-0.4-5.9-1.4c-1.6-1-3-2.3-4.2-4.1l-0.8,4.8
		h-8.7v-54.8h10.2v20.9c1.1-1.5,2.5-2.7,4-3.5s3.3-1.2,5.3-1.2c4.8,0,8.5,1.8,11,5.5s3.8,8.5,3.8,14.6L549.7,173.6L549.7,173.6z
		 M539.5,172.9c0-3.7-0.5-6.7-1.6-8.9s-3-3.3-5.6-3.3c-1.6,0-3,0.3-4.1,1s-1.9,1.6-2.6,2.9v16.1c0.7,1.1,1.5,2,2.6,2.6s2.5,1,4.1,1
		c2.6,0,4.5-1,5.6-2.9s1.6-4.5,1.6-7.9V172.9z"/>
	<path class="st1" d="M576.2,162.4l-3.8-0.1c-1.5,0-2.7,0.3-3.8,1c-1,0.7-1.8,1.5-2.3,2.7v25.6H556v-38.1h9.5l0.4,5.6
		c1-2,2-3.5,3.4-4.6s3-1.6,4.9-1.6c0.5,0,1,0,1.4,0.1s0.8,0.1,1.4,0.3L576.2,162.4z"/>
	<path class="st1" d="M597.3,192.3c-5.7,0-10.1-1.8-13.4-5.2c-3.1-3.5-4.8-7.9-4.8-13.5v-1.4c0-5.7,1.5-10.4,4.6-14
		c3.1-3.7,7.4-5.5,12.8-5.5c5,0,9,1.5,11.7,4.6s4.1,7.4,4.1,12.7v5.3h-22.6l-0.1,0.3c0.1,2.6,1,4.8,2.3,6.3c1.4,1.6,3.5,2.5,6.3,2.5
		c2.3,0,4.2-0.3,5.9-0.7c1.6-0.4,3.3-1.2,5-2.2l2.7,6.3c-1.5,1.2-3.5,2.3-6.1,3.1C603.2,191.9,600.3,192.3,597.3,192.3z
		 M596.6,160.8c-2,0-3.7,0.7-4.8,2.2c-1.1,1.4-1.8,3.3-2,5.6l0.1,0.1h12.5v-0.8c0-2.2-0.4-4-1.4-5.3
		C600.2,161.2,598.7,160.8,596.6,160.8z"/>
</g>
<g>
	<path class="st1" d="M676.3,61.9c0,4-0.9,7.2-2.7,9.5c-1.8,2.4-4.3,3.6-7.4,3.6c-1.9,0-3.5-0.4-4.9-1.1c-1.4-0.7-2.5-1.7-3.4-3
		v13.8h-2.9V47.9h2.5l0.4,4.1c0.9-1.5,2-2.6,3.4-3.4c1.4-0.8,3.1-1.2,5-1.2c3.2,0,5.7,1.3,7.5,3.8c1.8,2.5,2.7,5.9,2.7,10.2V61.9z
		 M673.3,61.4c0-3.4-0.7-6.1-2-8.3c-1.3-2.1-3.3-3.2-5.9-3.2c-2,0-3.6,0.5-4.8,1.4c-1.2,0.9-2.2,2.2-2.8,3.7v12.8
		c0.7,1.5,1.6,2.6,2.9,3.4s2.9,1.3,4.8,1.3c2.6,0,4.5-1,5.9-2.9c1.3-1.9,2-4.5,2-7.7V61.4z"/>
	<path class="st1" d="M695.1,50.4l-2.2-0.1c-1.9,0-3.4,0.5-4.6,1.6c-1.2,1-2,2.5-2.5,4.3v18.4h-2.9V47.9h2.6l0.4,4.4v0.3
		c0.8-1.6,1.8-2.9,3.1-3.8c1.3-0.9,2.8-1.4,4.6-1.4c0.4,0,0.7,0,1.1,0.1s0.6,0.1,0.9,0.2L695.1,50.4z"/>
	<path class="st1" d="M697.9,60.8c0-3.9,1.1-7.1,3.2-9.6c2.1-2.5,5-3.8,8.5-3.8c3.6,0,6.4,1.3,8.6,3.8c2.1,2.5,3.2,5.7,3.2,9.6v0.8
		c0,3.9-1.1,7.1-3.2,9.6c-2.1,2.5-5,3.7-8.5,3.7c-3.6,0-6.4-1.2-8.6-3.7c-2.1-2.5-3.2-5.7-3.2-9.6V60.8z M700.8,61.6
		c0,3.1,0.8,5.7,2.3,7.8c1.6,2.1,3.7,3.1,6.5,3.1c2.7,0,4.9-1,6.5-3.1c1.6-2.1,2.3-4.7,2.3-7.8v-0.8c0-3-0.8-5.6-2.4-7.7
		c-1.6-2.1-3.7-3.2-6.5-3.2s-4.9,1.1-6.5,3.2c-1.6,2.1-2.3,4.7-2.3,7.7V61.6z"/>
	<path class="st1" d="M726.4,61.4c0-4.2,0.9-7.6,2.7-10.2c1.8-2.5,4.3-3.8,7.5-3.8c1.9,0,3.5,0.4,4.8,1.2c1.4,0.8,2.5,1.9,3.4,3.3
		V36.1h2.9v38.3h-2.6l-0.2-3.9c-0.9,1.4-2,2.5-3.4,3.2c-1.4,0.8-3,1.1-4.9,1.1c-3.2,0-5.7-1.2-7.5-3.6c-1.8-2.4-2.7-5.5-2.7-9.5
		V61.4z M729.4,61.9c0,3.2,0.6,5.8,1.9,7.7c1.3,1.9,3.2,2.9,5.8,2.9c1.9,0,3.5-0.4,4.8-1.3c1.3-0.9,2.3-2,3-3.6V55.1
		c-0.7-1.5-1.6-2.8-2.9-3.8c-1.2-1-2.8-1.4-4.8-1.4c-2.6,0-4.5,1.1-5.8,3.2c-1.3,2.1-2,4.9-2,8.3V61.9z"/>
	<path class="st1" d="M773,70.1c-0.9,1.6-2,2.8-3.4,3.6c-1.4,0.8-3.1,1.3-5.1,1.3c-2.8,0-5-1-6.6-2.9c-1.6-1.9-2.4-4.9-2.4-8.8V47.9
		h2.9v15.5c0,3.3,0.6,5.6,1.7,7c1.1,1.4,2.7,2.1,4.7,2.1c2.2,0,4-0.5,5.3-1.5c1.3-1,2.3-2.4,2.8-4.1v-19h2.9v26.6h-2.6L773,70.1z"/>
	<path class="st1" d="M793.5,72.5c2,0,3.7-0.6,5.2-1.7s2.2-2.7,2.2-4.6h2.6l0,0.1c0.1,2.5-0.9,4.5-3,6.2c-2,1.7-4.4,2.5-7.1,2.5
		c-3.6,0-6.4-1.2-8.4-3.7s-3-5.7-3-9.6v-1c0-3.9,1-7,3-9.5c2-2.5,4.8-3.7,8.4-3.7c2.9,0,5.3,0.9,7.3,2.6s2.9,4,2.8,6.8l0,0.1h-2.6
		c0-2.1-0.7-3.8-2.2-5.1c-1.4-1.3-3.2-1.9-5.3-1.9c-2.9,0-5,1-6.3,3.1c-1.4,2-2.1,4.6-2.1,7.7v1c0,3.1,0.7,5.7,2,7.8
		C788.5,71.5,790.6,72.5,793.5,72.5z"/>
	<path class="st1" d="M819.5,72.5c2,0,3.7-0.6,5.2-1.7s2.2-2.7,2.2-4.6h2.6l0,0.1c0.1,2.5-0.9,4.5-3,6.2c-2,1.7-4.4,2.5-7.1,2.5
		c-3.6,0-6.4-1.2-8.4-3.7s-3-5.7-3-9.6v-1c0-3.9,1-7,3-9.5c2-2.5,4.8-3.7,8.4-3.7c2.9,0,5.3,0.9,7.3,2.6s2.9,4,2.8,6.8l0,0.1h-2.6
		c0-2.1-0.7-3.8-2.2-5.1c-1.4-1.3-3.2-1.9-5.3-1.9c-2.9,0-5,1-6.3,3.1c-1.4,2-2.1,4.6-2.1,7.7v1c0,3.1,0.7,5.7,2,7.8
		C814.5,71.5,816.7,72.5,819.5,72.5z"/>
	<path class="st1" d="M839.1,40.3h-2.9v-4.1h2.9V40.3z M839.1,74.5h-2.9V47.9h2.9V74.5z"/>
	<path class="st1" d="M845.5,60.8c0-3.9,1.1-7.1,3.2-9.6c2.1-2.5,5-3.8,8.5-3.8c3.6,0,6.4,1.3,8.6,3.8c2.1,2.5,3.2,5.7,3.2,9.6v0.8
		c0,3.9-1.1,7.1-3.2,9.6c-2.1,2.5-5,3.7-8.5,3.7c-3.6,0-6.4-1.2-8.6-3.7c-2.1-2.5-3.2-5.7-3.2-9.6V60.8z M848.5,61.6
		c0,3.1,0.8,5.7,2.3,7.8c1.6,2.1,3.7,3.1,6.5,3.1c2.7,0,4.9-1,6.5-3.1c1.6-2.1,2.3-4.7,2.3-7.8v-0.8c0-3-0.8-5.6-2.4-7.7
		c-1.6-2.1-3.7-3.2-6.5-3.2s-4.9,1.1-6.5,3.2c-1.6,2.1-2.3,4.7-2.3,7.7V61.6z M860.9,37.6h3.6l0.1,0.1l-6.1,6.4h-2.7L860.9,37.6z"/>
	<path class="st1" d="M877.8,47.9l0.3,4.6c0.9-1.6,2-2.9,3.5-3.8s3.2-1.3,5.1-1.3c2.9,0,5.1,0.9,6.6,2.6c1.5,1.8,2.3,4.5,2.3,8.2
		v16.2h-3V58.3c0-3.1-0.6-5.2-1.7-6.5s-2.8-1.9-4.9-1.9c-2.1,0-3.7,0.5-5.1,1.6c-1.3,1.1-2.2,2.5-2.8,4.3v18.6h-2.9V47.9H877.8z"/>
	<path class="st1" d="M932.3,74.5c-0.2-0.9-0.3-1.7-0.4-2.3c-0.1-0.7-0.1-1.3-0.1-2c-1,1.4-2.3,2.5-3.9,3.5
		c-1.6,0.9-3.5,1.4-5.5,1.4c-2.6,0-4.6-0.7-6-2.1c-1.4-1.4-2.2-3.2-2.2-5.5c0-2.5,1.1-4.4,3.2-5.9c2.1-1.5,5-2.2,8.6-2.2h5.9V56
		c0-1.9-0.6-3.4-1.8-4.5c-1.2-1.1-2.9-1.6-5.1-1.6c-2,0-3.7,0.5-5.1,1.5c-1.4,1-2,2.3-2,3.8l-2.7,0l0-0.1c-0.1-2,0.8-3.8,2.7-5.3
		s4.3-2.3,7.3-2.3c2.9,0,5.3,0.7,7.1,2.2c1.8,1.5,2.7,3.6,2.7,6.4v13.1c0,0.9,0.1,1.8,0.2,2.7c0.1,0.9,0.3,1.8,0.5,2.6H932.3z
		 M922.6,72.4c2.1,0,4-0.5,5.6-1.5c1.6-1,2.8-2.3,3.5-3.8v-5.6h-5.9c-2.7,0-4.8,0.6-6.4,1.7c-1.6,1.1-2.4,2.6-2.4,4.2
		c0,1.4,0.5,2.6,1.5,3.5C919.5,71.9,920.9,72.4,922.6,72.4z"/>
	<path class="st1" d="M945.1,47.9l0.3,4.6c0.9-1.6,2-2.9,3.5-3.8s3.2-1.3,5.1-1.3c2.9,0,5.1,0.9,6.6,2.6c1.5,1.8,2.3,4.5,2.3,8.2
		v16.2h-3V58.3c0-3.1-0.6-5.2-1.7-6.5s-2.8-1.9-4.9-1.9c-2.1,0-3.7,0.5-5.1,1.6c-1.3,1.1-2.2,2.5-2.8,4.3v18.6h-2.9V47.9H945.1z"/>
	<path class="st1" d="M988,70.1c-0.9,1.6-2,2.8-3.4,3.6c-1.4,0.8-3.1,1.3-5.1,1.3c-2.8,0-5-1-6.6-2.9c-1.6-1.9-2.4-4.9-2.4-8.8V47.9
		h2.9v15.5c0,3.3,0.6,5.6,1.7,7c1.1,1.4,2.7,2.1,4.7,2.1c2.2,0,4-0.5,5.3-1.5c1.3-1,2.3-2.4,2.8-4.1v-19h2.9v26.6h-2.6L988,70.1z"/>
	<path class="st1" d="M1015.4,74.5c-0.2-0.9-0.3-1.7-0.4-2.3c-0.1-0.7-0.1-1.3-0.1-2c-1,1.4-2.3,2.5-3.9,3.5
		c-1.6,0.9-3.5,1.4-5.5,1.4c-2.6,0-4.6-0.7-6-2.1c-1.4-1.4-2.2-3.2-2.2-5.5c0-2.5,1.1-4.4,3.2-5.9c2.1-1.5,5-2.2,8.6-2.2h5.9V56
		c0-1.9-0.6-3.4-1.8-4.5c-1.2-1.1-2.9-1.6-5.1-1.6c-2,0-3.7,0.5-5.1,1.5c-1.4,1-2,2.3-2,3.8l-2.7,0l0-0.1c-0.1-2,0.8-3.8,2.7-5.3
		s4.3-2.3,7.3-2.3c2.9,0,5.3,0.7,7.1,2.2c1.8,1.5,2.7,3.6,2.7,6.4v13.1c0,0.9,0.1,1.8,0.2,2.7c0.1,0.9,0.3,1.8,0.5,2.6H1015.4z
		 M1005.8,72.4c2.1,0,4-0.5,5.6-1.5c1.6-1,2.8-2.3,3.5-3.8v-5.6h-5.9c-2.7,0-4.8,0.6-6.4,1.7c-1.6,1.1-2.4,2.6-2.4,4.2
		c0,1.4,0.5,2.6,1.5,3.5C1002.6,71.9,1004,72.4,1005.8,72.4z"/>
	<path class="st1" d="M1028.9,74.5h-2.9V36.1h2.9V74.5z"/>
	<path class="st1" d="M1059.3,75c-3.3,0-6.1-1.2-8.3-3.7c-2.2-2.5-3.3-5.6-3.3-9.3v-1.4c0-3.8,1.1-7,3.3-9.5c2.2-2.5,4.8-3.8,8-3.8
		c3.3,0,5.8,1,7.7,3.1s2.8,4.8,2.8,8.3v2.5h-18.8V62c0,3,0.8,5.5,2.4,7.5c1.6,2,3.7,3,6.3,3c1.8,0,3.4-0.3,4.7-0.8
		c1.3-0.5,2.4-1.2,3.3-2.2l1.3,2c-1,1.1-2.3,1.9-3.8,2.5S1061.4,75,1059.3,75z M1058.9,49.9c-2.2,0-4,0.8-5.5,2.5
		c-1.5,1.7-2.3,3.7-2.6,6.2l0,0.1h15.6V58c0-2.3-0.7-4.2-2-5.8C1063.1,50.7,1061.2,49.9,1058.9,49.9z"/>
	<path class="st1" d="M1091.2,67.7c0-1.2-0.5-2.3-1.5-3.3s-2.9-1.7-5.5-2.3c-3.2-0.7-5.5-1.6-7-2.7c-1.5-1.1-2.3-2.7-2.3-4.8
		c0-2,0.9-3.7,2.6-5.1c1.7-1.4,4-2.1,6.8-2.1c3,0,5.4,0.7,7.1,2.2c1.8,1.5,2.6,3.3,2.5,5.6l0,0.1h-2.7c0-1.5-0.6-2.7-1.9-3.8
		s-2.9-1.6-5-1.6c-2.1,0-3.8,0.5-4.8,1.4c-1.1,0.9-1.6,2-1.6,3.2c0,1.2,0.5,2.2,1.4,3c0.9,0.8,2.8,1.5,5.5,2.1
		c3.2,0.7,5.5,1.7,7.1,2.9c1.6,1.2,2.4,2.9,2.4,5c0,2.2-0.9,4-2.7,5.4c-1.8,1.4-4.2,2.1-7.1,2.1c-3.2,0-5.8-0.8-7.6-2.3
		c-1.8-1.5-2.7-3.4-2.6-5.5l0-0.1h2.7c0.1,1.9,0.9,3.3,2.3,4.2c1.5,0.9,3.2,1.3,5.1,1.3c2.1,0,3.8-0.5,5-1.4
		C1090.5,70.2,1091.2,69,1091.2,67.7z"/>
	<path class="st1" d="M1105.5,41.1v6.8h5.9v2.4h-5.9v17.3c0,1.7,0.3,3,0.9,3.7s1.5,1.1,2.5,1.1c0.5,0,0.9,0,1.4-0.1
		c0.5,0,1-0.1,1.6-0.2l0.4,2.2c-0.5,0.2-1.1,0.4-1.8,0.5c-0.7,0.1-1.4,0.2-2.1,0.2c-1.9,0-3.3-0.6-4.4-1.8c-1-1.2-1.6-3-1.6-5.6
		V50.3h-4.6v-2.4h4.6v-6.8H1105.5z"/>
	<path class="st1" d="M1120.9,40.3h-2.9v-4.1h2.9V40.3z M1120.9,74.5h-2.9V47.9h2.9V74.5z"/>
	<path class="st1" d="M1131.5,47.9l0.3,4.4c0.9-1.6,2-2.8,3.4-3.6c1.4-0.9,3.1-1.3,5.1-1.3c2,0,3.7,0.5,5.1,1.5
		c1.4,1,2.3,2.5,2.9,4.5c0.8-1.9,1.9-3.3,3.4-4.4c1.5-1.1,3.3-1.6,5.4-1.6c2.8,0,5,0.9,6.6,2.8c1.5,1.9,2.3,4.8,2.3,8.8v15.5h-2.9
		V58.9c0-3.3-0.6-5.6-1.7-7c-1.2-1.4-2.8-2-4.8-2c-2.3,0-4,0.7-5.3,2.1c-1.2,1.4-2,3.3-2.3,5.5c0,0.1,0,0.3,0,0.5c0,0.2,0,0.4,0,0.5
		v16h-3V58.9c0-3.2-0.6-5.5-1.8-6.9c-1.2-1.4-2.8-2.1-4.8-2.1c-2.1,0-3.7,0.5-5,1.6s-2.1,2.5-2.6,4.3v18.7h-3V47.9H1131.5z"/>
	<path class="st1" d="M1190.5,74.5c-0.2-0.9-0.3-1.7-0.4-2.3c-0.1-0.7-0.1-1.3-0.1-2c-1,1.4-2.3,2.5-3.9,3.5
		c-1.6,0.9-3.5,1.4-5.5,1.4c-2.6,0-4.6-0.7-6-2.1c-1.4-1.4-2.2-3.2-2.2-5.5c0-2.5,1.1-4.4,3.2-5.9c2.1-1.5,5-2.2,8.6-2.2h5.9V56
		c0-1.9-0.6-3.4-1.8-4.5c-1.2-1.1-2.9-1.6-5.1-1.6c-2,0-3.7,0.5-5.1,1.5c-1.4,1-2,2.3-2,3.8l-2.7,0l0-0.1c-0.1-2,0.8-3.8,2.7-5.3
		s4.3-2.3,7.3-2.3c2.9,0,5.3,0.7,7.1,2.2c1.8,1.5,2.7,3.6,2.7,6.4v13.1c0,0.9,0.1,1.8,0.2,2.7c0.1,0.9,0.3,1.8,0.5,2.6H1190.5z
		 M1180.8,72.4c2.1,0,4-0.5,5.6-1.5c1.6-1,2.8-2.3,3.5-3.8v-5.6h-5.9c-2.7,0-4.8,0.6-6.4,1.7c-1.6,1.1-2.4,2.6-2.4,4.2
		c0,1.4,0.5,2.6,1.5,3.5C1177.7,71.9,1179,72.4,1180.8,72.4z"/>
	<path class="st1" d="M1199.5,61.4c0-4.2,0.9-7.6,2.7-10.2c1.8-2.5,4.3-3.8,7.5-3.8c1.9,0,3.5,0.4,4.8,1.2c1.4,0.8,2.5,1.9,3.4,3.3
		V36.1h2.9v38.3h-2.6l-0.2-3.9c-0.9,1.4-2,2.5-3.4,3.2c-1.4,0.8-3,1.1-4.9,1.1c-3.2,0-5.7-1.2-7.5-3.6c-1.8-2.4-2.7-5.5-2.7-9.5
		V61.4z M1202.5,61.9c0,3.2,0.6,5.8,1.9,7.7c1.3,1.9,3.2,2.9,5.8,2.9c1.9,0,3.5-0.4,4.8-1.3c1.3-0.9,2.3-2,3-3.6V55.1
		c-0.7-1.5-1.6-2.8-2.9-3.8c-1.2-1-2.8-1.4-4.8-1.4c-2.6,0-4.5,1.1-5.8,3.2c-1.3,2.1-2,4.9-2,8.3V61.9z"/>
	<path class="st1" d="M1245.5,74.5c-0.2-0.9-0.3-1.7-0.4-2.3c-0.1-0.7-0.1-1.3-0.1-2c-1,1.4-2.3,2.5-3.9,3.5
		c-1.6,0.9-3.5,1.4-5.5,1.4c-2.6,0-4.6-0.7-6-2.1c-1.4-1.4-2.2-3.2-2.2-5.5c0-2.5,1.1-4.4,3.2-5.9c2.1-1.5,5-2.2,8.6-2.2h5.9V56
		c0-1.9-0.6-3.4-1.8-4.5c-1.2-1.1-2.9-1.6-5.1-1.6c-2,0-3.7,0.5-5.1,1.5c-1.4,1-2,2.3-2,3.8l-2.7,0l0-0.1c-0.1-2,0.8-3.8,2.7-5.3
		s4.3-2.3,7.3-2.3c2.9,0,5.3,0.7,7.1,2.2c1.8,1.5,2.7,3.6,2.7,6.4v13.1c0,0.9,0.1,1.8,0.2,2.7c0.1,0.9,0.3,1.8,0.5,2.6H1245.5z
		 M1235.9,72.4c2.1,0,4-0.5,5.6-1.5c1.6-1,2.8-2.3,3.5-3.8v-5.6h-5.9c-2.7,0-4.8,0.6-6.4,1.7c-1.6,1.1-2.4,2.6-2.4,4.2
		c0,1.4,0.5,2.6,1.5,3.5C1232.8,71.9,1234.1,72.4,1235.9,72.4z"/>
	<path class="st1" d="M653.7,119.8c0-4.2,0.9-7.6,2.7-10.2c1.8-2.5,4.3-3.8,7.5-3.8c1.9,0,3.5,0.4,4.8,1.2c1.4,0.8,2.5,1.9,3.4,3.3
		V94.5h2.9v38.3h-2.6l-0.2-3.9c-0.9,1.4-2,2.5-3.4,3.2s-3,1.1-4.9,1.1c-3.2,0-5.7-1.2-7.5-3.6c-1.8-2.4-2.7-5.5-2.7-9.5V119.8z
		 M656.7,120.3c0,3.2,0.6,5.8,1.9,7.7c1.3,1.9,3.2,2.9,5.8,2.9c1.9,0,3.5-0.4,4.8-1.3c1.3-0.9,2.3-2,3-3.6v-12.5
		c-0.7-1.5-1.6-2.8-2.9-3.8c-1.2-1-2.8-1.4-4.8-1.4c-2.6,0-4.5,1.1-5.8,3.2c-1.3,2.1-2,4.9-2,8.3V120.3z"/>
	<path class="st1" d="M700.3,128.5c-0.9,1.6-2,2.8-3.4,3.6c-1.4,0.8-3.1,1.3-5.1,1.3c-2.8,0-5-1-6.6-2.9c-1.6-1.9-2.4-4.8-2.4-8.8
		v-15.4h2.9v15.5c0,3.3,0.6,5.6,1.7,7c1.1,1.4,2.7,2.1,4.7,2.1c2.2,0,4-0.5,5.3-1.5s2.3-2.4,2.8-4.1v-19h2.9v26.6h-2.6L700.3,128.5z
		"/>
	<path class="st1" d="M723.2,108.8l-2.2-0.1c-1.9,0-3.4,0.5-4.6,1.6c-1.2,1-2,2.5-2.5,4.3v18.4h-2.9v-26.6h2.6l0.4,4.4v0.3
		c0.8-1.6,1.8-2.9,3.1-3.8c1.3-0.9,2.8-1.4,4.6-1.4c0.4,0,0.7,0,1.1,0.1s0.6,0.1,0.9,0.2L723.2,108.8z"/>
	<path class="st1" d="M744.9,132.9c-0.2-0.9-0.3-1.7-0.4-2.3c-0.1-0.7-0.1-1.3-0.1-2c-1,1.4-2.3,2.5-3.9,3.5
		c-1.6,0.9-3.5,1.4-5.5,1.4c-2.6,0-4.6-0.7-6-2.1c-1.4-1.4-2.2-3.2-2.2-5.5c0-2.5,1.1-4.4,3.2-5.9s5-2.2,8.6-2.2h5.9v-3.3
		c0-1.9-0.6-3.4-1.8-4.5c-1.2-1.1-2.9-1.6-5.1-1.6c-2,0-3.7,0.5-5.1,1.5c-1.4,1-2,2.3-2,3.8l-2.7,0l0-0.1c-0.1-2,0.8-3.8,2.7-5.3
		s4.3-2.3,7.3-2.3c2.9,0,5.3,0.7,7.1,2.2c1.8,1.5,2.7,3.6,2.7,6.4v13.1c0,0.9,0.1,1.8,0.2,2.7c0.1,0.9,0.3,1.8,0.5,2.6H744.9z
		 M735.2,130.8c2.1,0,4-0.5,5.6-1.5c1.6-1,2.8-2.3,3.5-3.8V120h-5.9c-2.7,0-4.8,0.6-6.4,1.7c-1.6,1.1-2.4,2.6-2.4,4.2
		c0,1.4,0.5,2.6,1.5,3.5S733.5,130.8,735.2,130.8z"/>
	<path class="st1" d="M757.7,106.3l0.3,4.6c0.9-1.6,2-2.9,3.5-3.8s3.2-1.3,5.1-1.3c2.9,0,5.1,0.9,6.6,2.6c1.5,1.8,2.3,4.5,2.3,8.2
		v16.2h-3v-16.2c0-3.1-0.6-5.2-1.7-6.5s-2.8-1.9-4.9-1.9c-2.1,0-3.7,0.5-5.1,1.6c-1.3,1.1-2.2,2.5-2.8,4.3v18.6h-2.9v-26.6H757.7z"
		/>
	<path class="st1" d="M787.8,99.5v6.8h5.9v2.4h-5.9V126c0,1.7,0.3,3,0.9,3.7c0.6,0.7,1.5,1.1,2.5,1.1c0.5,0,0.9,0,1.4-0.1
		c0.5,0,1-0.1,1.6-0.2l0.4,2.2c-0.5,0.2-1.1,0.4-1.8,0.5c-0.7,0.1-1.4,0.2-2.1,0.2c-1.9,0-3.3-0.6-4.4-1.8c-1-1.2-1.6-3-1.6-5.6
		v-17.3h-4.6v-2.4h4.6v-6.8H787.8z"/>
	<path class="st1" d="M809.8,133.4c-3.3,0-6.1-1.2-8.3-3.7c-2.2-2.5-3.3-5.6-3.3-9.3V119c0-3.8,1.1-7,3.3-9.5c2.2-2.5,4.8-3.8,8-3.8
		c3.3,0,5.8,1,7.7,3.1s2.8,4.8,2.8,8.3v2.5h-18.8v0.7c0,3,0.8,5.5,2.4,7.5c1.6,2,3.7,3,6.3,3c1.8,0,3.4-0.3,4.7-0.8
		c1.3-0.5,2.4-1.2,3.3-2.2l1.3,2c-1,1.1-2.3,1.9-3.8,2.5S811.9,133.4,809.8,133.4z M809.5,108.3c-2.2,0-4,0.8-5.5,2.5
		c-1.5,1.7-2.3,3.7-2.6,6.2l0,0.1H817v-0.7c0-2.3-0.7-4.2-2-5.8C813.6,109.1,811.8,108.3,809.5,108.3z"/>
	<path class="st1" d="M841.3,132.9h-2.9V94.5h2.9V132.9z"/>
	<path class="st1" d="M847.8,119.2c0-3.9,1.1-7.1,3.2-9.6c2.1-2.5,5-3.8,8.5-3.8c3.6,0,6.4,1.3,8.6,3.8c2.1,2.5,3.2,5.7,3.2,9.6v0.8
		c0,3.9-1.1,7.1-3.2,9.6c-2.1,2.5-5,3.7-8.5,3.7c-3.6,0-6.4-1.2-8.6-3.7c-2.1-2.5-3.2-5.7-3.2-9.6V119.2z M850.8,120
		c0,3.1,0.8,5.7,2.3,7.8c1.6,2.1,3.7,3.1,6.5,3.1c2.7,0,4.9-1,6.5-3.1c1.6-2.1,2.3-4.7,2.3-7.8v-0.8c0-3-0.8-5.6-2.4-7.7
		c-1.6-2.1-3.7-3.2-6.5-3.2s-4.9,1.1-6.5,3.2c-1.6,2.1-2.3,4.7-2.3,7.7V120z"/>
	<path class="st1" d="M893.4,126.1c0-1.2-0.5-2.3-1.5-3.3s-2.9-1.7-5.5-2.3c-3.2-0.7-5.5-1.6-7-2.7c-1.5-1.1-2.3-2.7-2.3-4.8
		c0-2,0.9-3.7,2.6-5.1c1.7-1.4,4-2.1,6.8-2.1c3,0,5.4,0.7,7.1,2.2c1.8,1.5,2.6,3.3,2.5,5.6l0,0.1h-2.7c0-1.5-0.6-2.7-1.9-3.8
		s-2.9-1.6-5-1.6c-2.1,0-3.8,0.5-4.8,1.4c-1.1,0.9-1.6,2-1.6,3.2c0,1.2,0.5,2.2,1.4,3c0.9,0.8,2.8,1.5,5.5,2.1
		c3.2,0.7,5.5,1.7,7.1,2.9s2.4,2.9,2.4,5c0,2.2-0.9,4-2.7,5.4c-1.8,1.4-4.2,2.1-7.1,2.1c-3.2,0-5.8-0.8-7.6-2.3
		c-1.8-1.5-2.7-3.4-2.6-5.5l0-0.1h2.7c0.1,1.9,0.9,3.3,2.3,4.2c1.5,0.9,3.2,1.3,5.1,1.3c2.1,0,3.8-0.5,5-1.4
		C892.8,128.6,893.4,127.4,893.4,126.1z"/>
	<path class="st1" d="M916.1,116.7l2-19.6h17.4v2.7h-14.9l-1.3,12.8c0.9-0.8,1.9-1.5,3-1.9c1.1-0.4,2.5-0.7,4.4-0.7
		c3,0,5.5,1,7.4,3.1c1.9,2.1,2.8,4.9,2.8,8.5c0,3.6-0.9,6.5-2.7,8.7c-1.8,2.2-4.5,3.2-8.2,3.2c-3,0-5.4-0.8-7.4-2.5
		c-2-1.6-2.9-4.1-2.8-7.3l0-0.1h2.6c0,2.4,0.7,4.2,2.1,5.5c1.4,1.3,3.2,1.9,5.5,1.9c2.7,0,4.6-0.8,6-2.4s2-3.9,2-7
		c0-2.7-0.7-4.8-2-6.4s-3.2-2.4-5.5-2.4c-2.3,0-4,0.4-5.2,1.1c-1.2,0.7-2.1,1.8-2.6,3.3L916.1,116.7z"/>
	<path class="st1" d="M976.9,120.3c0,4-0.9,7.2-2.7,9.5s-4.3,3.6-7.4,3.6c-1.9,0-3.5-0.4-4.9-1.1c-1.4-0.7-2.5-1.7-3.4-3v13.8h-2.9
		v-36.8h2.5l0.4,4.1c0.9-1.5,2-2.6,3.4-3.4c1.4-0.8,3.1-1.2,5-1.2c3.2,0,5.7,1.3,7.5,3.8c1.8,2.5,2.7,5.9,2.7,10.2V120.3z
		 M973.9,119.8c0-3.4-0.7-6.1-2-8.3c-1.3-2.1-3.3-3.2-5.9-3.2c-2,0-3.6,0.5-4.8,1.4c-1.2,0.9-2.2,2.2-2.8,3.7v12.8
		c0.7,1.5,1.6,2.6,2.9,3.4s2.9,1.3,4.8,1.3c2.6,0,4.5-1,5.9-2.9c1.3-1.9,2-4.5,2-7.7V119.8z"/>
	<path class="st1" d="M995.7,108.8l-2.2-0.1c-1.9,0-3.4,0.5-4.6,1.6c-1.2,1-2,2.5-2.5,4.3v18.4h-2.9v-26.6h2.6l0.4,4.4v0.3
		c0.8-1.6,1.8-2.9,3.1-3.8c1.3-0.9,2.8-1.4,4.6-1.4c0.4,0,0.7,0,1.1,0.1s0.6,0.1,0.9,0.2L995.7,108.8z"/>
	<path class="st1" d="M1003.9,98.7h-2.9v-4.1h2.9V98.7z M1003.9,132.9h-2.9v-26.6h2.9V132.9z"/>
	<path class="st1" d="M1014.6,106.3l0.3,4.4c0.9-1.6,2-2.8,3.4-3.6c1.4-0.9,3.1-1.3,5.1-1.3c2,0,3.7,0.5,5.1,1.5
		c1.4,1,2.3,2.5,2.9,4.5c0.8-1.9,1.9-3.3,3.4-4.4c1.5-1.1,3.3-1.6,5.4-1.6c2.8,0,5,0.9,6.6,2.8c1.5,1.9,2.3,4.8,2.3,8.8v15.5h-2.9
		v-15.6c0-3.3-0.6-5.6-1.7-7c-1.2-1.4-2.8-2-4.8-2c-2.3,0-4,0.7-5.3,2.1c-1.2,1.4-2,3.3-2.3,5.5c0,0.1,0,0.3,0,0.5
		c0,0.2,0,0.4,0,0.5v16h-3v-15.6c0-3.2-0.6-5.5-1.8-6.9c-1.2-1.4-2.8-2.1-4.8-2.1c-2.1,0-3.7,0.5-5,1.6s-2.1,2.5-2.6,4.3v18.7h-3
		v-26.6H1014.6z"/>
	<path class="st1" d="M1066.7,133.4c-3.3,0-6.1-1.2-8.3-3.7c-2.2-2.5-3.3-5.6-3.3-9.3V119c0-3.8,1.1-7,3.3-9.5
		c2.2-2.5,4.8-3.8,8-3.8c3.3,0,5.8,1,7.7,3.1s2.8,4.8,2.8,8.3v2.5H1058v0.7c0,3,0.8,5.5,2.4,7.5c1.6,2,3.7,3,6.3,3
		c1.8,0,3.4-0.3,4.7-0.8c1.3-0.5,2.4-1.2,3.3-2.2l1.3,2c-1,1.1-2.3,1.9-3.8,2.5S1068.8,133.4,1066.7,133.4z M1066.3,108.3
		c-2.2,0-4,0.8-5.5,2.5c-1.5,1.7-2.3,3.7-2.6,6.2l0,0.1h15.6v-0.7c0-2.3-0.7-4.2-2-5.8C1070.5,109.1,1068.6,108.3,1066.3,108.3z"/>
	<path class="st1" d="M1094.9,108.8l-2.2-0.1c-1.9,0-3.4,0.5-4.6,1.6c-1.2,1-2,2.5-2.5,4.3v18.4h-2.9v-26.6h2.6l0.4,4.4v0.3
		c0.8-1.6,1.8-2.9,3.1-3.8c1.3-0.9,2.8-1.4,4.6-1.4c0.4,0,0.7,0,1.1,0.1s0.6,0.1,0.9,0.2L1094.9,108.8z"/>
	<path class="st1" d="M1097.6,119.2c0-3.9,1.1-7.1,3.2-9.6c2.1-2.5,5-3.8,8.5-3.8c3.6,0,6.4,1.3,8.6,3.8c2.1,2.5,3.2,5.7,3.2,9.6
		v0.8c0,3.9-1.1,7.1-3.2,9.6c-2.1,2.5-5,3.7-8.5,3.7c-3.6,0-6.4-1.2-8.6-3.7c-2.1-2.5-3.2-5.7-3.2-9.6V119.2z M1100.6,120
		c0,3.1,0.8,5.7,2.3,7.8c1.6,2.1,3.7,3.1,6.5,3.1c2.7,0,4.9-1,6.5-3.1c1.6-2.1,2.3-4.7,2.3-7.8v-0.8c0-3-0.8-5.6-2.4-7.7
		c-1.6-2.1-3.7-3.2-6.5-3.2s-4.9,1.1-6.5,3.2c-1.6,2.1-2.3,4.7-2.3,7.7V120z"/>
	<path class="st1" d="M1143.2,126.1c0-1.2-0.5-2.3-1.5-3.3s-2.9-1.7-5.5-2.3c-3.2-0.7-5.5-1.6-7-2.7c-1.5-1.1-2.3-2.7-2.3-4.8
		c0-2,0.9-3.7,2.6-5.1c1.7-1.4,4-2.1,6.8-2.1c3,0,5.4,0.7,7.1,2.2c1.8,1.5,2.6,3.3,2.5,5.6l0,0.1h-2.7c0-1.5-0.6-2.7-1.9-3.8
		s-2.9-1.6-5-1.6c-2.1,0-3.8,0.5-4.8,1.4c-1.1,0.9-1.6,2-1.6,3.2c0,1.2,0.5,2.2,1.4,3c0.9,0.8,2.8,1.5,5.5,2.1
		c3.2,0.7,5.5,1.7,7.1,2.9s2.4,2.9,2.4,5c0,2.2-0.9,4-2.7,5.4c-1.8,1.4-4.2,2.1-7.1,2.1c-3.2,0-5.8-0.8-7.6-2.3
		c-1.8-1.5-2.7-3.4-2.6-5.5l0-0.1h2.7c0.1,1.9,0.9,3.3,2.3,4.2c1.5,0.9,3.2,1.3,5.1,1.3c2.1,0,3.8-0.5,5-1.4
		C1142.6,128.6,1143.2,127.4,1143.2,126.1z"/>
	<path class="st1" d="M671.7,191.3c-0.2-0.9-0.3-1.7-0.4-2.3c-0.1-0.7-0.1-1.3-0.1-2c-1,1.4-2.3,2.5-3.9,3.5
		c-1.6,0.9-3.5,1.4-5.5,1.4c-2.6,0-4.6-0.7-6-2.1c-1.4-1.4-2.2-3.2-2.2-5.5c0-2.5,1.1-4.4,3.2-5.9s5-2.2,8.6-2.2h5.9v-3.3
		c0-1.9-0.6-3.4-1.8-4.5c-1.2-1.1-2.9-1.6-5.1-1.6c-2,0-3.7,0.5-5.1,1.5c-1.4,1-2,2.3-2,3.8l-2.7,0l0-0.1c-0.1-2,0.8-3.8,2.7-5.3
		c1.9-1.6,4.3-2.3,7.3-2.3c2.9,0,5.3,0.7,7.1,2.2s2.7,3.6,2.7,6.4v13.1c0,0.9,0.1,1.8,0.2,2.7c0.1,0.9,0.3,1.8,0.5,2.6H671.7z
		 M662.1,189.2c2.1,0,4-0.5,5.6-1.5c1.6-1,2.8-2.3,3.5-3.8v-5.6h-5.9c-2.7,0-4.8,0.6-6.4,1.7c-1.6,1.1-2.4,2.6-2.4,4.2
		c0,1.4,0.5,2.6,1.5,3.5C658.9,188.8,660.3,189.2,662.1,189.2z"/>
	<path class="st1" d="M684.6,164.7l0.3,4.6c0.9-1.6,2-2.9,3.5-3.8c1.5-0.9,3.2-1.3,5.1-1.3c2.9,0,5.1,0.9,6.6,2.6
		c1.5,1.8,2.3,4.5,2.3,8.2v16.2h-3v-16.2c0-3.1-0.6-5.2-1.7-6.5s-2.8-1.9-4.9-1.9c-2.1,0-3.7,0.5-5.1,1.6c-1.3,1.1-2.2,2.5-2.8,4.3
		v18.6h-2.9v-26.6H684.6z M700.1,154.4c0,1.4-0.5,2.6-1.4,3.6c-0.9,1-2,1.4-3.4,1.4c-1.2,0-2.4-0.5-3.7-1.4
		c-1.3-0.9-2.3-1.4-3.2-1.4c-0.8,0-1.4,0.3-1.9,0.9c-0.5,0.6-0.8,1.3-0.8,2.2l-2-0.4c0-1.4,0.4-2.6,1.3-3.6c0.9-1,2-1.4,3.4-1.4
		c1.1,0,2.3,0.5,3.6,1.4c1.3,0.9,2.4,1.4,3.3,1.4c0.8,0,1.4-0.3,1.9-0.9c0.5-0.6,0.8-1.3,0.8-2.2L700.1,154.4z"/>
	<path class="st1" d="M708.3,177.6c0-3.9,1.1-7.1,3.2-9.6c2.1-2.5,5-3.8,8.5-3.8c3.6,0,6.4,1.3,8.6,3.8c2.1,2.5,3.2,5.7,3.2,9.6v0.8
		c0,3.9-1.1,7.1-3.2,9.6c-2.1,2.5-5,3.7-8.5,3.7c-3.6,0-6.4-1.2-8.6-3.7c-2.1-2.5-3.2-5.7-3.2-9.6V177.6z M711.3,178.4
		c0,3.1,0.8,5.7,2.3,7.8c1.6,2.1,3.7,3.1,6.5,3.1c2.7,0,4.9-1,6.5-3.1c1.6-2.1,2.3-4.7,2.3-7.8v-0.8c0-3-0.8-5.6-2.4-7.7
		c-1.6-2.1-3.7-3.2-6.5-3.2s-4.9,1.1-6.5,3.2c-1.6,2.1-2.3,4.7-2.3,7.7V178.4z"/>
	<path class="st1" d="M753.9,184.5c0-1.2-0.5-2.3-1.5-3.3s-2.9-1.7-5.5-2.3c-3.2-0.7-5.5-1.6-7-2.7c-1.5-1.1-2.3-2.7-2.3-4.8
		c0-2,0.9-3.7,2.6-5.2c1.7-1.4,4-2.1,6.8-2.1c3,0,5.4,0.7,7.1,2.2c1.8,1.5,2.6,3.3,2.5,5.6l0,0.1h-2.7c0-1.5-0.6-2.7-1.9-3.8
		s-2.9-1.6-5-1.6c-2.1,0-3.8,0.5-4.8,1.4s-1.6,2-1.6,3.2c0,1.2,0.5,2.2,1.4,3c0.9,0.8,2.8,1.5,5.5,2.1c3.2,0.7,5.5,1.7,7.1,2.9
		c1.6,1.2,2.4,2.9,2.4,5c0,2.2-0.9,4-2.7,5.4c-1.8,1.4-4.2,2.1-7.1,2.1c-3.2,0-5.8-0.8-7.6-2.3c-1.8-1.5-2.7-3.4-2.6-5.5l0-0.1h2.7
		c0.1,1.9,0.9,3.3,2.3,4.2c1.5,0.9,3.2,1.3,5.1,1.3c2.1,0,3.8-0.5,5-1.4C753.3,187,753.9,185.8,753.9,184.5z"/>
	<path class="st1" d="M774.7,178.2c0-4.2,0.9-7.6,2.7-10.2c1.8-2.5,4.3-3.8,7.5-3.8c1.9,0,3.5,0.4,4.8,1.2s2.5,1.9,3.4,3.3V153h2.9
		v38.3h-2.6l-0.2-3.9c-0.9,1.4-2,2.5-3.4,3.2s-3,1.1-4.9,1.1c-3.2,0-5.7-1.2-7.5-3.6c-1.8-2.4-2.7-5.5-2.7-9.5V178.2z M777.7,178.7
		c0,3.2,0.6,5.8,1.9,7.7c1.3,1.9,3.2,2.9,5.8,2.9c1.9,0,3.5-0.4,4.8-1.3c1.3-0.9,2.3-2,3-3.6v-12.5c-0.7-1.5-1.6-2.8-2.9-3.8
		c-1.2-1-2.8-1.4-4.8-1.4c-2.6,0-4.5,1.1-5.8,3.2s-2,4.9-2,8.3V178.7z"/>
	<path class="st1" d="M813.9,191.8c-3.3,0-6.1-1.2-8.3-3.7c-2.2-2.5-3.3-5.6-3.3-9.3v-1.4c0-3.8,1.1-7,3.3-9.5
		c2.2-2.5,4.8-3.8,8-3.8c3.3,0,5.8,1,7.7,3.1s2.8,4.8,2.8,8.3v2.5h-18.8v0.7c0,3,0.8,5.5,2.4,7.5c1.6,2,3.7,3,6.3,3
		c1.8,0,3.4-0.3,4.7-0.8c1.3-0.5,2.4-1.2,3.3-2.2l1.3,2c-1,1.1-2.3,1.9-3.8,2.5C817.8,191.5,816,191.8,813.9,191.8z M813.5,166.7
		c-2.2,0-4,0.8-5.5,2.5s-2.3,3.7-2.6,6.2l0,0.1h15.6v-0.7c0-2.3-0.7-4.2-2-5.8C817.7,167.5,815.8,166.7,813.5,166.7z"/>
	<path class="st1" d="M849.6,184.6l0.9,3.1h0.1l0.9-3.1l7.2-19.9h3l-10.1,26.6h-2.4l-10.1-26.6h3L849.6,184.6z"/>
	<path class="st1" d="M870,157.1h-2.9V153h2.9V157.1z M870,191.3h-2.9v-26.6h2.9V191.3z"/>
	<path class="st1" d="M877,178.2c0-4.2,0.9-7.6,2.7-10.2c1.8-2.5,4.3-3.8,7.5-3.8c1.9,0,3.5,0.4,4.8,1.2s2.5,1.9,3.4,3.3V153h2.9
		v38.3h-2.6l-0.2-3.9c-0.9,1.4-2,2.5-3.4,3.2s-3,1.1-4.9,1.1c-3.2,0-5.7-1.2-7.5-3.6c-1.8-2.4-2.7-5.5-2.7-9.5V178.2z M879.9,178.7
		c0,3.2,0.6,5.8,1.9,7.7c1.3,1.9,3.2,2.9,5.8,2.9c1.9,0,3.5-0.4,4.8-1.3c1.3-0.9,2.3-2,3-3.6v-12.5c-0.7-1.5-1.6-2.8-2.9-3.8
		c-1.2-1-2.8-1.4-4.8-1.4c-2.6,0-4.5,1.1-5.8,3.2s-2,4.9-2,8.3V178.7z"/>
	<path class="st1" d="M923,191.3c-0.2-0.9-0.3-1.7-0.4-2.3c-0.1-0.7-0.1-1.3-0.1-2c-1,1.4-2.3,2.5-3.9,3.5c-1.6,0.9-3.5,1.4-5.5,1.4
		c-2.6,0-4.6-0.7-6-2.1c-1.4-1.4-2.2-3.2-2.2-5.5c0-2.5,1.1-4.4,3.2-5.9s5-2.2,8.6-2.2h5.9v-3.3c0-1.9-0.6-3.4-1.8-4.5
		c-1.2-1.1-2.9-1.6-5.1-1.6c-2,0-3.7,0.5-5.1,1.5c-1.4,1-2,2.3-2,3.8l-2.7,0l0-0.1c-0.1-2,0.8-3.8,2.7-5.3c1.9-1.6,4.3-2.3,7.3-2.3
		c2.9,0,5.3,0.7,7.1,2.2s2.7,3.6,2.7,6.4v13.1c0,0.9,0.1,1.8,0.2,2.7c0.1,0.9,0.3,1.8,0.5,2.6H923z M913.3,189.2
		c2.1,0,4-0.5,5.6-1.5c1.6-1,2.8-2.3,3.5-3.8v-5.6h-5.9c-2.7,0-4.8,0.6-6.4,1.7c-1.6,1.1-2.4,2.6-2.4,4.2c0,1.4,0.5,2.6,1.5,3.5
		C910.2,188.8,911.6,189.2,913.3,189.2z"/>
</g>
</svg>
