<?xml version="1.0" encoding="utf-8"?>
<!-- Generator: Adobe Illustrator 22.1.0, SVG Export Plug-In . SVG Version: 6.00 Build 0)  -->
<svg version="1.1" id="Capa_1" xmlns="http://www.w3.org/2000/svg" xmlns:xlink="http://www.w3.org/1999/xlink" x="0px" y="0px"
	 viewBox="0 0 1256 196" style="enable-background:new 0 0 1256 196;" xml:space="preserve">
<style type="text/css">
	.st0{fill:#54515C;}
</style>
<g>
	<path class="st0" d="M62.5,86.4H6.3v-11l26-29.3c3.8-4.5,6.6-8.4,8.2-11.5c1.6-3.2,2.5-6,2.5-8.7c0-3.4-0.8-6.2-2.6-8.2
		c-1.8-2.1-4.3-3.2-7.7-3.2c-3.6,0-6.5,1.4-8.4,4s-3,6-3,10H4.9l-0.1-0.4c-0.1-7.4,2.2-13.7,7.4-18.8c5.1-5.1,12-7.7,20.5-7.7
		s15.3,2.2,19.9,6.6c4.8,4.4,7.1,10.3,7.1,17.7c0,5.1-1.4,9.6-4,13.7c-2.6,4.1-7.3,9.9-13.7,17.2L28.2,73.4l0.1,0.3h34.2v12.8H62.5z
		"/>
	<path class="st0" d="M103.1,1.7c3.3,0,6.3,0.3,9.1,0.8s5.5,1.5,8.2,2.6l-3,12.2c-2.6-0.8-4.9-1.5-7-1.9c-2.1-0.4-4.4-0.7-7.1-0.7
		c-4.9,0-8.8,1.9-11.8,5.6c-3,3.7-4.5,8.9-4.5,15.7v2.7c2.2-2.2,4.8-3.8,8-5.1c3-1.2,6.5-1.8,10.3-1.8c7.1,0,12.8,2.5,16.8,7.6
		c4,5.1,6,11.7,6,19.8c0,8.4-2.6,15.3-7.8,20.5c-5.2,5.2-12,7.8-20.3,7.8c-8.8,0-15.8-3-21.3-8.9c-5.5-5.9-8.2-14.2-8.2-24.5V36.7
		c0-10.6,3.2-19.1,9.3-25.4C85.7,4.8,93.6,1.7,103.1,1.7z M99.6,44.5c-3,0-5.6,0.5-7.7,1.5c-2.1,1-3.8,2.3-4.9,4v4.5
		c0,6.5,1.2,11.4,3.6,15c2.3,3.6,5.5,5.2,9.3,5.2c3.4,0,6.3-1.5,8.4-4.4c2.1-2.9,3.2-6.6,3.2-11c0-4.5-1.1-8.2-3.2-10.9
		C106,45.9,103.1,44.5,99.6,44.5z"/>
	<path class="st0" d="M160.4,74.8c4.1,0,7.6-1.5,10.2-4.7c2.6-3.2,4-7.4,4-13.1v-5.4c-1.9,2.5-4.1,4.3-6.6,5.5
		c-2.6,1.2-5.4,1.8-8.2,1.8c-7.8,0-13.9-2.5-18.3-7.6c-4.4-5.1-6.6-12-6.6-20.6c0-8.4,2.6-15.4,7.8-20.9s12-8.2,20.1-8.2
		c8.4,0,15.3,2.9,20.6,8.5c5.4,5.6,8,13.5,8,23.5v22.5c0,9.6-2.9,17.3-8.7,22.9s-13.2,8.5-22.1,8.5c-2.9,0-5.9-0.3-8.9-1
		c-3-0.7-6-1.5-8.7-2.6l2.7-12.1c2.5,1,4.8,1.8,7,2.2C154.9,74.5,157.5,74.8,160.4,74.8z M162.5,46.6c2.7,0,5.1-0.5,7.1-1.6
		c2.1-1.1,3.7-2.6,4.9-4.5v-9.6c0-5.2-1.1-9.2-3.2-12.1c-2.2-2.7-5.1-4.1-8.7-4.1c-3.4,0-6,1.5-8.1,4.7s-3.2,7-3.2,11.5
		c0,4.8,1,8.7,2.7,11.5C156.2,45.2,158.9,46.6,162.5,46.6z"/>
	<path class="st0" d="M220.1,86.4h-16.8V71.7h16.8V86.4z"/>
	<path class="st0" d="M288.9,56.2c0,9.8-2.6,17.5-7.7,23.1c-5.1,5.6-12,8.4-20.5,8.4s-15.4-2.7-20.6-8.4c-5.2-5.6-7.7-13.3-7.7-23.1
		V33.1c0-9.8,2.6-17.5,7.7-23.1c5.1-5.6,12-8.4,20.5-8.4S276,4.4,281.1,10c5.2,5.6,7.8,13.3,7.8,23.1L288.9,56.2L288.9,56.2z
		 M272.3,31.5c0-5.4-1-9.5-3-12.5c-2.1-2.9-4.9-4.4-8.5-4.4c-3.7,0-6.5,1.5-8.5,4.4c-2.1,2.9-3,7.1-3,12.5v26.4c0,5.5,1,9.6,3,12.6
		c2.1,2.9,4.9,4.4,8.7,4.4c3.6,0,6.5-1.5,8.5-4.4c2.1-2.9,3-7.1,3-12.6V31.5H272.3z"/>
	<path class="st0" d="M354,56.2c0,9.8-2.6,17.5-7.7,23.1c-5.1,5.6-12,8.4-20.5,8.4s-15.4-2.7-20.6-8.4c-5.2-5.6-7.7-13.3-7.7-23.1
		V33.1c0-9.8,2.6-17.5,7.7-23.1s12-8.4,20.5-8.4s15.4,2.7,20.5,8.4c5.2,5.6,7.8,13.3,7.8,23.1V56.2z M337.4,31.5c0-5.4-1-9.5-3-12.5
		c-2.1-2.9-4.9-4.4-8.5-4.4c-3.7,0-6.5,1.5-8.5,4.4c-2.1,2.9-3,7.1-3,12.5v26.4c0,5.5,1,9.6,3,12.6c2.1,2.9,4.9,4.4,8.7,4.4
		c3.6,0,6.5-1.5,8.5-4.4c2.1-2.9,3-7.1,3-12.6V31.5H337.4z"/>
	<path class="st0" d="M419.2,56.2c0,9.8-2.6,17.5-7.7,23.1c-5.1,5.6-12,8.4-20.5,8.4c-8.5,0-15.4-2.7-20.6-8.4
		c-5.2-5.6-7.7-13.3-7.7-23.1V33.1c0-9.8,2.6-17.5,7.7-23.1s12-8.4,20.5-8.4s15.4,2.7,20.5,8.4c5.2,5.6,7.8,13.3,7.8,23.1V56.2z
		 M402.5,31.5c0-5.4-1-9.5-3-12.5c-2.1-2.9-4.9-4.4-8.5-4.4c-3.7,0-6.5,1.5-8.5,4.4s-3,7.1-3,12.5v26.4c0,5.5,1,9.6,3,12.6
		c2.1,2.9,4.9,4.4,8.7,4.4c3.6,0,6.5-1.5,8.5-4.4c2.1-2.9,3-7.1,3-12.6V31.5H402.5z"/>
</g>
<g>
	<g>
		<path class="st0" d="M432.9,74.3c0-3.6,1-6.5,2.9-8.7c1.9-2.2,4.7-3.4,8.1-3.4c3.4,0,6.2,1.1,8.2,3.3c1.9,2.2,3,5.1,3,8.7v0.4
			c0,3.6-1,6.5-3,8.7c-1.9,2.2-4.7,3.3-8.2,3.3c-3.4,0-6.2-1.1-8.2-3.3c-1.9-2.2-3-5.1-3-8.7v-0.3H432.9z M439.4,74.9
			c0,2.2,0.4,3.8,1.1,5.2s1.9,1.9,3.7,1.9c1.6,0,2.9-0.7,3.6-1.9c0.8-1.4,1.1-3,1.1-5.2v-0.4c0-2.1-0.4-3.8-1.1-5.1
			c-0.8-1.4-1.9-1.9-3.7-1.9c-1.6,0-2.9,0.7-3.6,2.1c-0.8,1.4-1.1,3-1.1,5.1V74.9z"/>
		<path class="st0" d="M465,62.8l0.3,3.4c0.8-1.2,1.8-2.2,2.9-2.7c1.1-0.7,2.5-1,3.8-1c2.3,0,4.3,0.8,5.6,2.3c1.4,1.5,2.1,4,2.1,7.3
			v14.4h-6.5V72c0-1.6-0.3-2.9-0.8-3.6c-0.5-0.7-1.5-1.1-2.6-1.1c-1,0-1.8,0.1-2.5,0.5c-0.7,0.4-1.4,0.8-1.8,1.5v17h-6.3V62.8H465z"
			/>
		<path class="st0" d="M491.6,81.5h11.7v4.9h-19.6v-3.7l11.3-15H484v-4.9h18.8v3.7L491.6,81.5z"/>
		<path class="st0" d="M521.1,86.4c-0.3-0.5-0.4-1.1-0.5-1.6c-0.1-0.5-0.3-1.2-0.4-1.8c-0.7,1.1-1.5,2.1-2.6,2.9
			c-1.1,0.8-2.3,1.1-3.8,1.1c-2.5,0-4.4-0.7-5.8-1.9c-1.4-1.2-2.1-3-2.1-5.2c0-2.3,0.8-4.1,2.6-5.4c1.8-1.2,4.4-1.9,7.8-1.9h3.6
			v-1.9c0-1.1-0.3-2.1-1-2.6c-0.5-0.7-1.5-1-2.6-1c-1.1,0-1.8,0.3-2.3,0.7c-0.5,0.5-0.8,1.2-0.8,2.1H507v-0.1
			c-0.1-2.1,0.8-3.7,2.6-5.2s4.3-2.2,7.3-2.2c2.9,0,5.1,0.7,6.9,2.2c1.8,1.4,2.6,3.4,2.6,6.2v9.8c0,1.1,0.1,2.2,0.3,3.2
			c0.1,1,0.4,1.9,0.8,2.9H521.1z M515.3,82.2c1.1,0,2.1-0.3,3-0.8c0.8-0.5,1.5-1.2,1.8-1.9v-3.3h-3.6c-1.4,0-2.3,0.3-3,1
			c-0.7,0.7-1.1,1.5-1.1,2.5c0,0.8,0.3,1.4,0.8,1.9C513.7,81.9,514.4,82.2,515.3,82.2z"/>
		<path class="st0" d="M544.1,79.8c0-0.7-0.3-1.2-1-1.8c-0.7-0.5-1.9-1-3.7-1.4c-2.7-0.5-4.8-1.4-6.3-2.5c-1.4-1.1-2.2-2.6-2.2-4.5
			c0-2.1,0.8-3.7,2.6-5.2c1.6-1.4,4-2.2,6.9-2.2c3,0,5.4,0.7,7.1,2.2c1.8,1.4,2.6,3.2,2.6,5.4v0.1h-6.2c0-1-0.3-1.6-1-2.3
			c-0.5-0.5-1.5-1-2.6-1c-1,0-1.8,0.3-2.5,0.8c-0.5,0.5-1,1.1-1,1.9c0,0.7,0.3,1.4,1,1.8c0.7,0.4,1.9,0.8,3.7,1.2
			c2.9,0.5,5.1,1.4,6.5,2.6c1.4,1.1,2.1,2.7,2.1,4.7c0,2.1-1,3.8-2.7,5.2c-1.8,1.4-4.3,2.1-7.1,2.1c-3.2,0-5.6-0.8-7.4-2.3
			c-1.8-1.6-2.7-3.4-2.6-5.5V79h5.8c0,1.2,0.4,2.2,1.2,2.7c0.8,0.5,1.8,0.8,3,0.8c1.2,0,2.1-0.3,2.7-0.7
			C543.6,81.5,544.1,80.7,544.1,79.8z"/>
		<path class="st0" d="M564.5,74.8c0-3.7,0.8-6.7,2.5-9.1c1.6-2.3,3.8-3.4,6.9-3.4c1.2,0,2.2,0.3,3.2,0.8c1,0.5,1.8,1.2,2.5,2.2
			V52.4h6.5v34.1h-5.5l-0.5-2.9c-0.7,1.1-1.6,1.9-2.6,2.5s-2.2,0.8-3.4,0.8c-2.9,0-5.1-1.1-6.7-3.2c-1.6-2.1-2.5-4.9-2.5-8.4v-0.5
			H564.5z M570.8,75.3c0,2.1,0.4,3.7,1.1,4.9c0.7,1.2,1.8,1.8,3.4,1.8c1,0,1.6-0.1,2.3-0.5c0.7-0.4,1.2-1,1.6-1.6v-10
			c-0.4-0.7-1-1.4-1.6-1.8c-0.7-0.4-1.5-0.7-2.3-0.7c-1.5,0-2.7,0.7-3.4,2.1s-1.1,3.2-1.1,5.4V75.3z"/>
		<path class="st0" d="M600.9,86.9c-3.6,0-6.3-1.1-8.2-3.3s-3-4.9-3-8.4v-0.8c0-3.6,1-6.5,2.9-8.7c1.9-2.2,4.5-3.4,8-3.3
			c3.2,0,5.6,1,7.3,2.9c1.6,1.9,2.6,4.5,2.6,7.8v3.3h-14.2v0.1c0.1,1.6,0.5,2.9,1.5,4c0.8,1,2.2,1.5,4,1.5c1.4,0,2.6-0.1,3.6-0.4
			c1-0.3,2.1-0.7,3-1.4l1.8,4c-1,0.8-2.2,1.4-3.8,1.9C604.6,86.7,602.9,86.9,600.9,86.9z M600.5,67.3c-1.2,0-2.3,0.4-3,1.4
			c-0.7,0.8-1.1,2.1-1.2,3.6v0.1h7.8V72c0-1.4-0.3-2.5-0.8-3.3C602.7,67.8,601.8,67.3,600.5,67.3z"/>
		<path class="st0" d="M624.3,74.3c0-3.6,1-6.5,2.9-8.7c1.9-2.2,4.7-3.4,8.1-3.4c3.4,0,6.2,1.1,8.2,3.3c2.1,2.2,3,5.1,3,8.7v0.4
			c0,3.6-1,6.5-3,8.7c-1.9,2.2-4.7,3.3-8.2,3.3c-3.4,0-6.2-1.1-8.2-3.3c-1.9-2.2-3-5.1-3-8.7v-0.3H624.3z M630.6,74.9
			c0,2.2,0.4,3.8,1.1,5.2c0.8,1.2,1.9,1.9,3.7,1.9c1.6,0,2.9-0.7,3.6-1.9c0.8-1.4,1.1-3,1.1-5.2v-0.4c0-2.1-0.4-3.8-1.1-5.1
			c-0.8-1.4-1.9-1.9-3.7-1.9c-1.6,0-2.9,0.7-3.6,2.1c-0.8,1.4-1.1,3-1.1,5.1V74.9z"/>
		<path class="st0" d="M662.9,68.3h-2.3c-1,0-1.8,0.1-2.3,0.5c-0.5,0.4-1.1,1-1.4,1.6v15.9h-6.3V62.8h5.9l0.3,3.4
			c0.5-1.2,1.2-2.2,2.2-2.9c0.8-0.7,1.9-1.1,3-1.1c0.3,0,0.5,0,0.8,0.1c0.3,0,0.5,0.1,0.8,0.1L662.9,68.3z"/>
		<path class="st0" d="M664.8,74.3c0-3.6,1-6.5,2.9-8.7c1.9-2.2,4.7-3.4,8.1-3.4s6.2,1.1,8.2,3.3c2.1,2.2,3,5.1,3,8.7v0.4
			c0,3.6-1,6.5-3,8.7c-1.9,2.2-4.7,3.3-8.2,3.3c-3.4,0-6.2-1.1-8.2-3.3c-1.9-2.2-3-5.1-3-8.7v-0.3H664.8z M671.1,74.9
			c0,2.2,0.4,3.8,1.1,5.2c0.8,1.2,1.9,1.9,3.7,1.9c1.6,0,2.9-0.7,3.6-1.9c0.8-1.4,1.1-3,1.1-5.2v-0.4c0-2.1-0.4-3.8-1.1-5.1
			c-0.8-1.4-1.9-1.9-3.7-1.9c-1.6,0-2.9,0.7-3.6,2.1c-0.8,1.4-1.1,3-1.1,5.1V74.9z"/>
	</g>
</g>
<g>
	<path class="st0" d="M39.8,192.5H23.2v-69H5.8v-12.8l33.9-3.2V192.5z"/>
	<path class="st0" d="M84.3,192.5H67.5v-14.7h16.8V192.5z"/>
	<path class="st0" d="M154,121.8c-9.5,11.1-15.9,21-19.2,30c-3.4,8.9-5.1,19-5.1,30.5v10.3h-16.8v-10.3c0-11.7,2.2-22.3,6.5-31.9
		s10.4-19.1,18.7-28.6H95.2v-12.9H154C154,108.8,154,121.8,154,121.8z"/>
	<path class="st0" d="M218.3,162.1c0,9.8-2.6,17.5-7.7,23.1c-5.1,5.6-12,8.4-20.5,8.4s-15.4-2.7-20.6-8.4s-7.7-13.3-7.7-23.1v-23.1
		c0-9.8,2.6-17.5,7.7-23.1c5.1-5.6,12-8.4,20.5-8.4c8.5,0,15.4,2.7,20.5,8.4c5.2,5.6,7.8,13.3,7.8,23.1L218.3,162.1L218.3,162.1z
		 M201.5,137.4c0-5.4-1-9.5-3-12.5c-2.1-2.9-4.9-4.4-8.5-4.4c-3.7,0-6.5,1.5-8.5,4.4c-2.1,2.9-3,7.1-3,12.5v26.4c0,5.5,1,9.6,3,12.6
		c2.1,2.9,4.9,4.4,8.7,4.4c3.6,0,6.5-1.5,8.5-4.4c2.1-2.9,3-7.1,3-12.6v-26.4H201.5z"/>
	<path class="st0" d="M283.4,162.1c0,9.8-2.6,17.5-7.7,23.1s-12,8.4-20.5,8.4s-15.4-2.7-20.6-8.4s-7.7-13.3-7.7-23.1v-23.1
		c0-9.8,2.6-17.5,7.7-23.1c5.1-5.6,12-8.4,20.5-8.4c8.5,0,15.4,2.7,20.5,8.4c5.2,5.6,7.8,13.3,7.8,23.1L283.4,162.1L283.4,162.1z
		 M266.8,137.4c0-5.4-1-9.5-3-12.5c-2.1-2.9-4.9-4.4-8.5-4.4c-3.7,0-6.5,1.5-8.5,4.4c-2.1,2.9-3,7.1-3,12.5v26.4c0,5.5,1,9.6,3,12.6
		c2.1,2.9,4.9,4.4,8.7,4.4c3.6,0,6.5-1.5,8.5-4.4c2.1-2.9,3-7.1,3-12.6v-26.4H266.8z"/>
</g>
<g>
	<g>
		<path class="st0" d="M308.3,163.1v5.8h4v4.5h-4v12.1c0,1,0.1,1.5,0.5,1.9c0.4,0.4,0.8,0.5,1.5,0.5c0.3,0,0.7,0,0.8,0
			c0.3,0,0.5-0.1,0.8-0.1l0.5,4.7c-0.7,0.3-1.2,0.4-1.9,0.5c-0.5,0.1-1.2,0.1-1.9,0.1c-2.2,0-3.8-0.5-5.1-1.8
			c-1.2-1.2-1.8-3.2-1.8-5.8v-12.1h-3.4V169h3.4v-5.8h6.5V163.1z"/>
		<path class="st0" d="M315.3,180.4c0-3.6,1-6.5,2.9-8.7c1.9-2.2,4.7-3.4,8.1-3.4c3.4,0,6.2,1.1,8.2,3.3c1.9,2.2,3,5.1,3,8.7v0.4
			c0,3.6-1,6.5-3,8.7c-1.9,2.2-4.7,3.3-8.2,3.3c-3.4,0-6.2-1.1-8.2-3.3c-2.1-2.2-3-5.1-3-8.7v-0.3H315.3z M321.6,180.8
			c0,2.2,0.4,3.8,1.1,5.2c0.8,1.2,1.9,1.9,3.7,1.9c1.6,0,2.9-0.7,3.6-1.9c0.8-1.4,1.1-3,1.1-5.2v-0.4c0-2.1-0.4-3.8-1.1-5.1
			s-1.9-1.9-3.7-1.9c-1.6,0-2.9,0.7-3.6,2.1c-0.8,1.4-1.1,3-1.1,5.1V180.8z"/>
		<path class="st0" d="M347.3,168.9l0.3,3.4c0.8-1.2,1.8-2.2,2.9-2.7c1.1-0.7,2.5-1,3.8-1c2.3,0,4.3,0.8,5.6,2.3
			c1.4,1.5,2.1,4,2.1,7.3v14.4h-6.5v-14.4c0-1.6-0.3-2.9-0.8-3.6c-0.5-0.7-1.5-1.1-2.6-1.1c-1,0-1.8,0.1-2.5,0.5
			c-0.7,0.4-1.4,0.8-1.8,1.5v17h-6.3V169h5.8V168.9z"/>
		<path class="st0" d="M377,192.9c-3.6,0-6.3-1.1-8.2-3.3c-1.9-2.2-3-4.9-3-8.4v-0.8c0-3.6,1-6.5,2.9-8.7c1.9-2.2,4.5-3.4,8-3.3
			c3.2,0,5.6,1,7.3,2.9c1.6,1.9,2.6,4.5,2.6,7.8v3.3h-14.2v0.1c0.1,1.6,0.5,2.9,1.5,4c0.8,1,2.2,1.5,4,1.5c1.4,0,2.6-0.1,3.6-0.4
			c1-0.3,2.1-0.7,3-1.4l1.8,4c-1,0.8-2.2,1.4-3.8,1.9C380.5,192.7,378.9,192.9,377,192.9z M376.6,173.3c-1.2,0-2.3,0.4-3,1.4
			c-0.7,0.8-1.1,2.1-1.2,3.4v0.1h7.8v-0.4c0-1.4-0.3-2.5-0.8-3.3C378.8,173.7,377.8,173.3,376.6,173.3z"/>
		<path class="st0" d="M396.8,192.5h-6.3v-34.1h6.3V192.5z"/>
		<path class="st0" d="M416,192.5c-0.3-0.5-0.4-1.1-0.5-1.6s-0.3-1.2-0.4-1.8c-0.7,1.1-1.5,2.1-2.6,2.9c-1.1,0.7-2.3,1.1-3.8,1.1
			c-2.5,0-4.4-0.7-5.8-1.9s-2.1-3-2.1-5.2c0-2.3,0.8-4.1,2.6-5.4s4.4-1.9,7.8-1.9h3.6v-1.9c0-1.1-0.3-2.1-1-2.6
			c-0.5-0.7-1.5-1-2.6-1s-1.8,0.3-2.3,0.7c-0.5,0.5-0.8,1.2-0.8,2.1h-6.2v-0.1c-0.1-2.1,0.8-3.7,2.6-5.2s4.3-2.2,7.3-2.2
			c2.9,0,5.1,0.7,6.9,2.2c1.8,1.4,2.6,3.4,2.6,6.2v9.8c0,1.1,0.1,2.2,0.3,3.2c0.1,1,0.4,1.9,0.8,2.9L416,192.5L416,192.5z
			 M410.1,188.3c1.1,0,2.1-0.3,3-0.8c0.8-0.5,1.5-1.2,1.8-1.9v-3.3h-3.6c-1.4,0-2.3,0.3-3,1c-0.7,0.7-1.1,1.5-1.1,2.5
			c0,0.8,0.3,1.4,0.8,1.9C408.4,188,409.3,188.3,410.1,188.3z"/>
		<path class="st0" d="M425.1,180.8c0-3.7,0.8-6.7,2.5-9.1c1.6-2.3,3.8-3.4,6.9-3.4c1.2,0,2.2,0.3,3.2,0.8c1,0.5,1.8,1.2,2.5,2.2
			v-12.9h6.5v34.1H441l-0.5-2.9c-0.7,1.1-1.6,1.9-2.6,2.5c-1,0.5-2.2,0.8-3.4,0.8c-2.9,0-5.1-1.1-6.7-3.2c-1.6-2.1-2.5-4.9-2.5-8.4
			v-0.5H425.1z M431.4,181.2c0,2.1,0.4,3.7,1.1,4.9c0.7,1.2,1.8,1.8,3.4,1.8c1,0,1.6-0.1,2.3-0.5c0.7-0.4,1.2-1,1.6-1.6v-10
			c-0.4-0.7-1-1.4-1.6-1.8c-0.7-0.4-1.5-0.7-2.3-0.7c-1.5,0-2.7,0.7-3.4,2.1c-0.7,1.4-1.1,3.2-1.1,5.4V181.2z"/>
		<path class="st0" d="M465.2,192.5c-0.3-0.5-0.4-1.1-0.5-1.6c-0.1-0.5-0.3-1.2-0.4-1.8c-0.7,1.1-1.5,2.1-2.6,2.9
			c-1.1,0.7-2.3,1.1-3.8,1.1c-2.5,0-4.4-0.7-5.8-1.9s-2.1-3-2.1-5.2c0-2.3,0.8-4.1,2.6-5.4s4.4-1.9,7.8-1.9h3.6v-1.9
			c0-1.1-0.3-2.1-1-2.6c-0.5-0.7-1.5-1-2.6-1s-1.8,0.3-2.3,0.7c-0.5,0.5-0.8,1.2-0.8,2.1H451v-0.1c-0.1-2.1,0.8-3.7,2.6-5.2
			c1.8-1.5,4.3-2.2,7.3-2.2c2.9,0,5.1,0.7,6.9,2.2c1.8,1.4,2.6,3.4,2.6,6.2v9.8c0,1.1,0.1,2.2,0.3,3.2c0.1,1,0.4,1.9,0.8,2.9
			L465.2,192.5L465.2,192.5z M459.4,188.3c1.1,0,2.1-0.3,3-0.8c0.8-0.5,1.5-1.2,1.8-1.9v-3.3h-3.6c-1.4,0-2.3,0.3-3,1
			c-0.7,0.7-1.1,1.5-1.1,2.5c0,0.8,0.3,1.4,0.8,1.9C457.8,188,458.4,188.3,459.4,188.3z"/>
		<path class="st0" d="M488.1,185.9c0-0.7-0.3-1.2-1-1.8c-0.7-0.5-1.9-1-3.7-1.4c-2.7-0.5-4.8-1.4-6.3-2.5c-1.4-1.1-2.2-2.6-2.2-4.5
			c0-2.1,0.8-3.7,2.6-5.2s4-2.2,6.9-2.2c3,0,5.4,0.7,7.1,2.2c1.8,1.4,2.6,3.2,2.6,5.4v0.1H488c0-1-0.3-1.6-1-2.3
			c-0.5-0.5-1.5-1-2.6-1c-1,0-1.8,0.3-2.5,0.8c-0.5,0.5-1,1.1-1,1.9c0,0.7,0.3,1.4,1,1.8s1.9,0.8,3.7,1.2c2.9,0.5,5.1,1.4,6.5,2.6
			c1.4,1.1,2.1,2.7,2.1,4.7c0,2.1-1,3.8-2.7,5.2c-1.8,1.4-4.3,2.1-7.1,2.1c-3.2,0-5.6-0.8-7.4-2.3c-1.8-1.6-2.7-3.4-2.6-5.5v-0.1
			h5.8c0,1.2,0.4,2.2,1.2,2.7c0.8,0.5,1.8,0.8,3,0.8c1.2,0,2.1-0.3,2.7-0.7C487.7,187.4,488.1,186.7,488.1,185.9z"/>
		<path class="st0" d="M508.5,180.8c0-3.7,0.8-6.7,2.5-9.1c1.6-2.3,3.8-3.4,6.9-3.4c1.2,0,2.2,0.3,3.2,0.8c1,0.5,1.8,1.2,2.5,2.2
			v-12.9h6.5v34.1h-5.5l-0.5-2.9c-0.7,1.1-1.6,1.9-2.6,2.5c-1,0.5-2.2,0.8-3.4,0.8c-2.9,0-5.1-1.1-6.7-3.2c-1.6-2.1-2.5-4.9-2.5-8.4
			v-0.5H508.5z M514.9,181.2c0,2.1,0.4,3.7,1.1,4.9c0.7,1.2,1.8,1.8,3.4,1.8c1,0,1.6-0.1,2.3-0.5c0.7-0.4,1.2-1,1.6-1.6v-10
			c-0.4-0.7-1-1.4-1.6-1.8s-1.5-0.7-2.3-0.7c-1.5,0-2.7,0.7-3.4,2.1c-0.7,1.4-1.1,3.2-1.1,5.4V181.2z"/>
		<path class="st0" d="M545,192.9c-3.6,0-6.3-1.1-8.2-3.3s-3-4.9-3-8.4v-0.8c0-3.6,1-6.5,2.9-8.7c1.9-2.2,4.5-3.4,8-3.3
			c3.2,0,5.6,1,7.3,2.9c1.6,1.9,2.6,4.5,2.6,7.8v3.3h-14v0.1c0.1,1.6,0.5,2.9,1.5,4c0.8,1,2.2,1.5,4,1.5c1.4,0,2.6-0.1,3.6-0.4
			c1-0.3,2.1-0.7,3-1.4l1.8,4c-1,0.8-2.2,1.4-3.8,1.9C548.6,192.7,546.9,192.9,545,192.9z M544.6,173.3c-1.2,0-2.3,0.4-3,1.4
			c-0.7,1-1.1,2.1-1.2,3.4v0.1h7.8v-0.4c0-1.4-0.3-2.5-0.8-3.3C546.8,173.7,545.8,173.3,544.6,173.3z"/>
		<path class="st0" d="M575.1,168.9l0.3,3.2c0.7-1.1,1.6-2.1,2.9-2.6c1.2-0.5,2.5-1,4-1c1.5,0,2.7,0.3,3.8,1c1.1,0.7,1.9,1.6,2.5,3
			c0.7-1.2,1.6-2.2,2.9-3c1.1-0.7,2.5-1.1,4.1-1.1c2.3,0,4.1,0.8,5.5,2.5s2.1,4.1,2.1,7.6v14h-6.3v-14c0-1.9-0.3-3.2-0.8-4
			c-0.5-0.7-1.5-1.1-2.6-1.1c-1,0-1.6,0.1-2.3,0.5s-1.2,1-1.6,1.6c0,0.3,0,0.5,0,0.7c0,0.1,0,0.4,0,0.5v15.5h-6.3v-14
			c0-1.8-0.3-3.2-0.8-4s-1.5-1.1-2.6-1.1c-0.8,0-1.6,0.1-2.2,0.5c-0.7,0.3-1.2,0.8-1.6,1.4v17.2h-6.3v-23.6h5.6V168.9z"/>
		<path class="st0" d="M607,180.4c0-3.6,1-6.5,2.9-8.7c1.9-2.2,4.7-3.4,8.1-3.4c3.4,0,6.2,1.1,8.2,3.3c1.9,2.2,3,5.1,3,8.7v0.4
			c0,3.6-1,6.5-3,8.7c-2.1,2.2-4.7,3.3-8.2,3.3c-3.4,0-6.2-1.1-8.2-3.3s-3-5.1-3-8.7v-0.3H607z M613.3,180.8c0,2.2,0.4,3.8,1.1,5.2
			c0.8,1.2,1.9,1.9,3.7,1.9c1.6,0,2.9-0.7,3.6-1.9c0.8-1.4,1.1-3,1.1-5.2v-0.4c0-2.1-0.4-3.8-1.1-5.1s-1.9-1.9-3.7-1.9
			c-1.6,0-2.9,0.7-3.6,2.1c-0.8,1.4-1.1,3-1.1,5.1V180.8z"/>
		<path class="st0" d="M639.8,192.5h-6.3v-34.1h6.3V192.5z"/>
		<path class="st0" d="M651.8,163.2h-6.3v-4.8h6.3V163.2z M651.8,192.5h-6.3v-23.6h6.3V192.5z"/>
		<path class="st0" d="M678.4,181.2c0,3.6-0.8,6.3-2.3,8.4s-3.8,3.2-6.9,3.2c-1.4,0-2.6-0.3-3.6-0.8s-1.9-1.4-2.6-2.6l-0.5,3h-5.4
			v-34.1h6.3v12.9c0.7-1,1.5-1.6,2.5-2.2c1-0.5,2.1-0.8,3.3-0.8c3,0,5.2,1.1,6.9,3.4c1.5,2.2,2.3,5.2,2.3,9.1V181.2z M672,180.8
			c0-2.3-0.3-4.1-1-5.5s-1.8-2.1-3.4-2.1c-1,0-1.8,0.3-2.5,0.7c-0.7,0.4-1.2,1-1.6,1.8v10c0.4,0.7,1,1.2,1.6,1.6s1.5,0.5,2.6,0.5
			c1.6,0,2.7-0.5,3.4-1.8c0.7-1.1,1-2.7,1-4.9v-0.4H672z"/>
		<path class="st0" d="M681.3,180.8c0-3.7,0.8-6.7,2.5-9.1c1.6-2.3,3.8-3.4,6.9-3.4c1.2,0,2.2,0.3,3.2,0.8c1,0.5,1.8,1.2,2.5,2.2
			v-12.9h6.5v34.1h-5.5l-0.5-2.9c-0.7,1.1-1.6,1.9-2.6,2.5c-1,0.5-2.2,0.8-3.4,0.8c-2.9,0-5.1-1.1-6.7-3.2c-1.6-2.1-2.5-4.9-2.5-8.4
			v-0.5H681.3z M687.6,181.2c0,2.1,0.4,3.7,1.1,4.9c0.7,1.2,1.8,1.8,3.4,1.8c1,0,1.6-0.1,2.3-0.5c0.7-0.4,1.2-1,1.6-1.6v-10
			c-0.4-0.7-1-1.4-1.6-1.8s-1.5-0.7-2.3-0.7c-1.5,0-2.7,0.7-3.4,2.1c-0.7,1.4-1.1,3.2-1.1,5.4V181.2z"/>
		<path class="st0" d="M717.7,192.9c-3.6,0-6.3-1.1-8.2-3.3c-1.9-2.2-3-4.9-3-8.4v-0.8c0-3.6,1-6.5,2.9-8.7c1.9-2.2,4.5-3.4,8-3.3
			c3.2,0,5.6,1,7.3,2.9c1.6,1.9,2.6,4.5,2.6,7.8v3.3h-14v0.1c0.1,1.6,0.5,2.9,1.5,4c0.8,1,2.2,1.5,4,1.5c1.4,0,2.6-0.1,3.6-0.4
			c1-0.3,2.1-0.7,3-1.4l1.8,4c-1,0.8-2.2,1.4-3.8,1.9C721.4,192.7,719.7,192.9,717.7,192.9z M717.3,173.3c-1.2,0-2.3,0.4-3,1.4
			c-0.7,1-1.1,2.1-1.2,3.4v0.1h7.8v-0.4c0-1.4-0.3-2.5-0.8-3.3C719.5,173.7,718.7,173.3,717.3,173.3z"/>
		<path class="st0" d="M736.8,168.9l0.3,3.4c0.8-1.2,1.8-2.2,2.9-2.7c1.1-0.5,2.5-1,3.8-1c2.3,0,4.3,0.8,5.6,2.3
			c1.4,1.5,2.1,4,2.1,7.3v14.4h-6.5v-14.4c0-1.6-0.3-2.9-0.8-3.6s-1.5-1.1-2.6-1.1c-1,0-1.8,0.1-2.5,0.5s-1.4,0.8-1.8,1.5v17h-6.3
			V169h5.8V168.9z"/>
		<path class="st0" d="M755.2,180.4c0-3.6,1-6.5,2.9-8.7c1.9-2.2,4.7-3.4,8.1-3.4c3.4,0,6.2,1.1,8.2,3.3c1.9,2.2,3,5.1,3,8.7v0.4
			c0,3.6-1,6.5-3,8.7s-4.7,3.3-8.2,3.3c-3.4,0-6.2-1.1-8.2-3.3s-3-5.1-3-8.7v-0.3H755.2z M761.6,180.8c0,2.2,0.4,3.8,1.1,5.2
			c0.8,1.2,1.9,1.9,3.7,1.9c1.6,0,2.9-0.7,3.6-1.9c0.8-1.4,1.1-3,1.1-5.2v-0.4c0-2.1-0.4-3.8-1.1-5.1s-1.9-1.9-3.7-1.9
			c-1.6,0-2.9,0.7-3.6,2.1c-0.8,1.4-1.1,3-1.1,5.1V180.8z"/>
	</g>
</g>
<g>
	<path class="st0" d="M858.8,41.6c0-4.9,0.9-8.6,3-11.5c2-2.8,4.9-4.4,8.5-4.4c2,0,3.9,0.5,5.5,1.3c1.6,0.8,2.8,2.2,3.8,3.8V12.9
		h3.3v43.5h-3l-0.3-4.4c-0.9,1.6-2.4,2.8-3.9,3.6s-3.5,1.3-5.5,1.3c-3.6,0-6.4-1.4-8.5-4.1c-2-2.7-3-6.3-3-10.8v-0.3H858.8z
		 M862.1,42.2c0,3.6,0.8,6.6,2.2,8.6c1.4,2.2,3.6,3.3,6.6,3.3c2.2,0,3.9-0.5,5.3-1.4s2.5-2.4,3.3-4.1V34.5c-0.8-1.7-1.9-3.1-3.3-4.2
		s-3.1-1.6-5.5-1.6c-3,0-5.2,1.3-6.6,3.6s-2.2,5.5-2.2,9.4v0.5H862.1z"/>
	<path class="st0" d="M911.4,51.5c-0.9,1.7-2.2,3.1-3.9,4.1c-1.6,0.9-3.6,1.4-5.8,1.4c-3.1,0-5.6-1.1-7.4-3.3
		c-1.7-2.2-2.7-5.5-2.7-10V26.2h3.3v17.6c0,3.6,0.6,6.3,1.9,7.8c1.3,1.6,3,2.4,5.3,2.4c2.5,0,4.6-0.6,6-1.7c1.6-1.1,2.5-2.7,3.1-4.7
		V26.1h3.3v30.3h-3L911.4,51.5z"/>
	<path class="st0" d="M937.3,29.2l-2.5-0.2c-2,0-3.8,0.6-5.2,1.7c-1.4,1.3-2.4,2.8-2.8,4.9v20.7h-3.3V26.2h2.8l0.5,5v0.3
		c0.9-1.9,2-3.3,3.5-4.4c1.4-1.1,3.1-1.6,5.2-1.6c0.5,0,0.8,0,1.3,0.2c0.5,0,0.8,0.2,0.9,0.2L937.3,29.2z"/>
	<path class="st0" d="M961.8,56.3c-0.2-0.9-0.3-1.9-0.5-2.7c-0.2-0.8-0.2-1.6-0.2-2.2c-1.1,1.6-2.7,2.8-4.4,3.9
		c-1.9,1.1-3.9,1.6-6.3,1.6c-3,0-5.2-0.8-6.7-2.4s-2.4-3.6-2.4-6.3c0-2.8,1.3-5,3.6-6.6c2.4-1.7,5.6-2.5,9.7-2.5h6.6v-3.8
		c0-2.2-0.6-3.8-2-5c-1.4-1.3-3.3-1.9-5.8-1.9c-2.4,0-4.2,0.6-5.8,1.7c-1.6,1.1-2.4,2.7-2.4,4.2h-3v-0.2c-0.2-2.2,0.9-4.2,3.1-6
		c2.2-1.7,4.9-2.7,8.3-2.7c3.3,0,6,0.8,8,2.5c2,1.7,3,4.1,3,7.2v14.8c0,1.1,0,2,0.2,3.1c0.2,0.9,0.3,2,0.6,3L961.8,56.3L961.8,56.3z
		 M951,54c2.4,0,4.6-0.6,6.3-1.7c1.9-1.1,3.1-2.5,3.9-4.2v-6.3h-6.6c-3,0-5.5,0.6-7.2,1.9c-1.9,1.3-2.7,2.8-2.7,4.9
		c0,1.6,0.6,3,1.7,3.9C947.5,53.4,948.9,54,951,54z"/>
	<path class="st0" d="M976.4,26.2l0.3,5.2c0.9-1.9,2.2-3.3,3.9-4.2c1.7-0.9,3.6-1.6,5.8-1.6c3.3,0,5.8,0.9,7.4,3
		c1.7,2,2.5,5,2.5,9.3v18.5H993V38c0-3.5-0.6-6-1.9-7.4c-1.3-1.4-3.1-2.2-5.5-2.2s-4.2,0.6-5.6,1.9s-2.5,2.8-3.1,4.9v21.2h-3.5V26.2
		H976.4z"/>
	<path class="st0" d="M1010.3,18.5v7.7h6.6v2.7h-6.6v19.6c0,2,0.3,3.3,1.1,4.2c0.8,0.9,1.7,1.3,2.8,1.3c0.5,0,1.1,0,1.6,0
		s1.1-0.2,1.7-0.3l0.5,2.5c-0.6,0.3-1.3,0.5-2,0.6c-0.8,0.2-1.6,0.2-2.4,0.2c-2,0-3.8-0.6-4.9-2c-1.3-1.3-1.7-3.5-1.7-6.3V29h-5.2
		v-2.7h5.2v-7.7h3.3V18.5z"/>
	<path class="st0" d="M1035.2,57c-3.8,0-6.9-1.4-9.4-4.2c-2.5-2.8-3.8-6.3-3.8-10.5v-1.6c0-4.2,1.3-7.8,3.8-10.7
		c2.5-2.8,5.5-4.2,8.9-4.2c3.6,0,6.6,1.1,8.6,3.5s3.1,5.5,3.1,9.4v2.8h-21.2v0.8c0,3.5,0.9,6.3,2.7,8.5s4.2,3.5,7.1,3.5
		c2,0,3.8-0.3,5.3-0.8c1.6-0.5,2.7-1.4,3.8-2.5l1.4,2.4c-1.1,1.3-2.5,2.2-4.2,2.8C1039.8,56.5,1037.7,57,1035.2,57z M1034.9,28.6
		c-2.5,0-4.6,0.9-6.1,2.8c-1.6,1.9-2.7,4.2-3,7.1v0.2h17.6v-0.8c0-2.7-0.8-4.7-2.4-6.6C1039.6,29.4,1037.4,28.6,1034.9,28.6z"/>
	<path class="st0" d="M1070.8,56.3h-3.3V13h3.3V56.3z"/>
	<path class="st0" d="M1078.2,40.8c0-4.4,1.3-8,3.6-10.8c2.4-2.8,5.6-4.2,9.6-4.2c4.1,0,7.2,1.4,9.7,4.2c2.4,2.8,3.6,6.4,3.6,10.8
		v0.9c0,4.4-1.3,8.2-3.6,11c-2.4,2.8-5.6,4.2-9.6,4.2c-4.1,0-7.2-1.4-9.7-4.2c-2.4-2.8-3.6-6.4-3.6-11V40.8z M1081.5,41.8
		c0,3.5,0.9,6.4,2.7,8.8s4.2,3.6,7.4,3.6s5.5-1.3,7.2-3.6s2.7-5.3,2.7-8.8v-0.9c0-3.5-0.9-6.3-2.7-8.8s-4.2-3.6-7.4-3.6
		s-5.5,1.3-7.4,3.6c-1.9,2.4-2.7,5.3-2.7,8.8v0.9H1081.5z"/>
	<path class="st0" d="M1129.7,48.7c0-1.4-0.6-2.7-1.7-3.6c-1.1-1.1-3.3-1.9-6.3-2.5c-3.6-0.8-6.3-1.9-8-3.1s-2.5-3.1-2.5-5.5
		s0.9-4.2,3-5.8c1.9-1.6,4.6-2.4,7.7-2.4c3.5,0,6.1,0.8,8,2.5c2,1.7,3,3.8,2.8,6.3v0.2h-3.1c0-1.7-0.6-3.1-2-4.2
		c-1.4-1.3-3.3-1.9-5.6-1.9c-2.4,0-4.2,0.5-5.5,1.6c-1.3,1.1-1.9,2.2-1.9,3.6c0,1.4,0.5,2.5,1.6,3.5c1.1,0.9,3.1,1.7,6.3,2.4
		c3.6,0.8,6.3,1.9,8,3.3c1.7,1.4,2.7,3.3,2.7,5.6c0,2.5-0.9,4.6-3,6.1c-2,1.6-4.7,2.4-8,2.4c-3.6,0-6.6-0.9-8.6-2.7
		c-2-1.7-3.1-3.8-3-6.3v-0.2h3c0.2,2.2,0.9,3.8,2.7,4.7c1.6,0.9,3.6,1.4,5.8,1.4c2.4,0,4.2-0.5,5.6-1.6
		C1129.1,51.5,1129.7,50.2,1129.7,48.7z"/>
	<path class="st0" d="M1155.4,38l2.2-22.1h19.8V19h-16.8l-1.6,14.4c0.9-0.9,2.2-1.6,3.3-2.2c1.3-0.5,2.8-0.8,5-0.8
		c3.5,0,6.3,1.1,8.3,3.5s3.1,5.5,3.1,9.6s-1.1,7.4-3.1,9.9s-5.2,3.6-9.3,3.6c-3.3,0-6.1-0.9-8.3-2.8c-2.2-1.9-3.3-4.6-3.1-8.3v-0.2
		h3c0,2.7,0.8,4.9,2.4,6.3c1.6,1.4,3.6,2.2,6.1,2.2c3,0,5.2-0.9,6.7-2.7c1.6-1.9,2.2-4.4,2.2-7.8c0-3-0.8-5.5-2.2-7.2
		c-1.6-1.9-3.6-2.7-6.3-2.7c-2.7,0-4.6,0.5-6,1.3s-2.4,2-3,3.8L1155.4,38z"/>
</g>
<g>
	<path class="st0" d="M877,191.3c-0.2-0.9-0.3-1.9-0.5-2.7s-0.2-1.6-0.2-2.2c-1.1,1.6-2.7,2.8-4.4,3.9c-1.7,1.1-3.9,1.6-6.3,1.6
		c-3,0-5.2-0.8-6.7-2.4s-2.4-3.6-2.4-6.3c0-2.8,1.3-5,3.6-6.6c2.4-1.6,5.6-2.5,9.7-2.5h6.6v-3.8c0-2.2-0.6-3.8-2-5s-3.3-1.9-5.8-1.9
		c-2.4,0-4.2,0.6-5.8,1.7c-1.6,1.1-2.4,2.7-2.4,4.2h-3v-0.2c-0.2-2.2,0.9-4.2,3.1-6c2.2-1.7,4.9-2.7,8.3-2.7c3.3,0,6,0.8,8,2.5
		c2,1.7,3,4.1,3,7.2v14.8c0,1.1,0,2,0.2,3.1c0.2,0.9,0.3,2,0.6,3L877,191.3L877,191.3z M866.1,188.9c2.4,0,4.6-0.6,6.3-1.7
		c1.9-1.1,3.1-2.5,3.9-4.2v-6.3h-6.7c-3,0-5.5,0.6-7.2,1.9c-1.9,1.3-2.7,2.8-2.7,4.9c0,1.6,0.6,3,1.7,3.9
		C862.6,188.5,864,188.9,866.1,188.9z"/>
	<path class="st0" d="M891.5,161.2l0.3,5.2c0.9-1.9,2.2-3.3,3.9-4.2c1.7-0.9,3.6-1.6,5.8-1.6c3.3,0,5.8,0.9,7.4,3
		c1.7,2,2.5,5,2.5,9.3v18.5h-3.3v-18.4c0-3.5-0.6-6-1.9-7.4c-1.3-1.4-3.1-2.2-5.5-2.2c-2.4,0-4.2,0.6-5.6,1.9s-2.5,2.8-3.1,4.9v21.2
		h-3.3v-30.1H891.5z M909.1,149.6c0,1.6-0.5,3-1.6,4.1c-1.1,1.1-2.4,1.6-3.8,1.6s-2.8-0.5-4.2-1.6c-1.4-1.1-2.7-1.6-3.6-1.6
		s-1.6,0.3-2.2,0.9c-0.6,0.6-0.9,1.4-0.9,2.5l-2.2-0.5c0-1.6,0.5-3,1.6-4.1c0.9-1.1,2.2-1.6,3.8-1.6c1.3,0,2.5,0.5,4.1,1.6
		c1.6,0.9,2.8,1.6,3.8,1.6c0.8,0,1.6-0.3,2.2-0.9c0.6-0.6,0.9-1.6,0.9-2.5L909.1,149.6z"/>
	<path class="st0" d="M918.3,175.8c0-4.4,1.3-8,3.6-10.8c2.4-2.8,5.6-4.2,9.6-4.2c4.1,0,7.2,1.4,9.7,4.2c2.4,2.8,3.6,6.4,3.6,10.8
		v0.9c0,4.4-1.3,8.2-3.6,11c-2.4,2.8-5.6,4.2-9.6,4.2c-4.1,0-7.2-1.4-9.7-4.2c-2.4-2.8-3.6-6.4-3.6-11V175.8z M921.8,176.7
		c0,3.5,0.9,6.4,2.7,8.8c1.7,2.4,4.2,3.6,7.4,3.6s5.5-1.3,7.2-3.6c1.7-2.4,2.7-5.3,2.7-8.8v-0.9c0-3.5-0.9-6.3-2.7-8.8
		s-4.2-3.6-7.4-3.6s-5.5,1.3-7.4,3.6s-2.7,5.3-2.7,8.8v0.9H921.8z"/>
	<path class="st0" d="M969.9,183.6c0-1.4-0.6-2.7-1.7-3.6c-1.1-1.1-3.3-1.9-6.3-2.5c-3.6-0.8-6.3-1.9-8-3.1
		c-1.7-1.3-2.5-3.1-2.5-5.5s0.9-4.2,3-5.8c1.9-1.6,4.6-2.4,7.7-2.4c3.5,0,6.1,0.8,8,2.5s3,3.8,2.8,6.3v0.2h-3.1c0-1.7-0.6-3.1-2-4.2
		c-1.4-1.1-3.3-1.9-5.6-1.9c-2.4,0-4.2,0.5-5.5,1.6c-1.3,1.1-1.9,2.2-1.9,3.6c0,1.4,0.5,2.5,1.6,3.5c1.1,0.9,3.1,1.7,6.3,2.4
		c3.6,0.8,6.3,1.9,8,3.3c1.7,1.4,2.7,3.3,2.7,5.6c0,2.5-0.9,4.6-3,6.1c-2,1.6-4.7,2.4-8,2.4c-3.6,0-6.6-0.9-8.6-2.7
		c-2-1.7-3.1-3.8-3-6.3v-0.2h3c0.2,2.2,0.9,3.8,2.7,4.7s3.6,1.4,5.8,1.4c2.4,0,4.2-0.5,5.6-1.6C969.3,186.4,969.9,185.2,969.9,183.6
		z"/>
	<path class="st0" d="M993.5,176.5c0-4.9,0.9-8.6,3-11.5c2-2.8,4.9-4.4,8.5-4.4c2,0,3.9,0.5,5.5,1.3c1.6,0.9,2.8,2.2,3.8,3.8v-17.9
		h3.3v43.5h-3l-0.3-4.4c-0.9,1.6-2.4,2.8-3.9,3.6s-3.5,1.3-5.5,1.3c-3.6,0-6.4-1.4-8.5-4.1c-2-2.7-3-6.3-3-10.8v-0.3H993.5z
		 M996.8,177.2c0,3.6,0.8,6.6,2.2,8.6c1.4,2.2,3.6,3.3,6.6,3.3c2.2,0,3.9-0.5,5.3-1.4c1.4-0.9,2.5-2.4,3.3-4.1v-14.1
		c-0.8-1.7-1.9-3.1-3.3-4.2s-3.1-1.6-5.5-1.6c-3,0-5.2,1.3-6.6,3.6c-1.4,2.4-2.2,5.5-2.2,9.4v0.5H996.8z"/>
	<path class="st0" d="M1037.7,191.9c-3.8,0-6.9-1.4-9.4-4.2s-3.8-6.3-3.8-10.5v-1.6c0-4.2,1.3-7.8,3.8-10.7c2.5-2.8,5.5-4.2,8.9-4.2
		c3.6,0,6.6,1.1,8.6,3.5c2,2.4,3.1,5.5,3.1,9.4v2.8h-21.2v0.8c0,3.5,0.9,6.3,2.7,8.5c1.7,2.2,4.2,3.5,7.1,3.5c2,0,3.8-0.3,5.3-0.8
		c1.4-0.6,2.7-1.4,3.8-2.5l1.4,2.4c-1.1,1.3-2.5,2.2-4.2,2.8C1042.1,191.4,1040.1,191.9,1037.7,191.9z M1037.3,163.5
		c-2.5,0-4.6,0.9-6.1,2.8c-1.6,1.9-2.7,4.2-3,7.1v0.2h17.6v-0.8c0-2.7-0.8-4.7-2.4-6.6C1042,164.3,1039.9,163.5,1037.3,163.5z"/>
	<path class="st0" d="M1078.2,183.8l0.9,3.5h0.2l1.1-3.5l8.2-22.6h3.5l-11.5,30.1h-2.7l-11.5-30.1h3.5L1078.2,183.8z"/>
	<path class="st0" d="M1101.1,152.5h-3.3v-4.7h3.3V152.5z M1101.1,191.3h-3.3v-30.1h3.3V191.3z"/>
	<path class="st0" d="M1109,176.5c0-4.9,0.9-8.6,3-11.5s4.9-4.4,8.5-4.4c2,0,3.9,0.5,5.5,1.3c1.6,0.9,2.8,2.2,3.8,3.8v-17.9h3.3
		v43.5h-3l-0.3-4.4c-0.9,1.6-2.4,2.8-3.9,3.6c-1.6,0.8-3.5,1.3-5.5,1.3c-3.6,0-6.4-1.4-8.5-4.1c-2-2.7-3-6.3-3-10.8v-0.3H1109z
		 M1112.4,177.2c0,3.6,0.8,6.6,2.2,8.6c1.4,2.2,3.6,3.3,6.6,3.3c2.2,0,3.9-0.5,5.3-1.4c1.4-0.9,2.5-2.4,3.3-4.1v-14.1
		c-0.8-1.7-1.9-3.1-3.3-4.2c-1.4-1.1-3.1-1.6-5.5-1.6c-3,0-5.2,1.3-6.6,3.6s-2.2,5.5-2.2,9.4v0.5H1112.4z"/>
	<path class="st0" d="M1161.1,191.3c-0.2-0.9-0.3-1.9-0.5-2.7s-0.2-1.6-0.2-2.2c-1.1,1.6-2.7,2.8-4.4,3.9c-1.7,1.1-3.9,1.6-6.3,1.6
		c-3,0-5.2-0.8-6.7-2.4c-1.6-1.6-2.4-3.6-2.4-6.3c0-2.8,1.3-5,3.6-6.6s5.6-2.5,9.7-2.5h6.6v-3.8c0-2.2-0.6-3.8-2-5s-3.3-1.9-5.8-1.9
		c-2.4,0-4.2,0.6-5.8,1.7c-1.6,1.1-2.4,2.7-2.4,4.2h-3v-0.2c-0.2-2.2,0.9-4.2,3.1-6c2.2-1.7,4.9-2.7,8.3-2.7c3.3,0,6,0.8,8,2.5
		c2,1.7,3,4.1,3,7.2v14.8c0,1.1,0,2,0.2,3.1c0.2,0.9,0.3,2,0.6,3L1161.1,191.3L1161.1,191.3z M1150.1,188.9c2.4,0,4.6-0.6,6.3-1.7
		c1.9-1.1,3.1-2.5,3.9-4.2v-6.3h-6.7c-3,0-5.5,0.6-7.2,1.9c-1.9,1.3-2.7,2.8-2.7,4.9c0,1.6,0.6,3,1.7,3.9
		C1146.6,188.5,1148.2,188.9,1150.1,188.9z"/>
</g>
<g>
	<path class="st0" d="M885.2,110.6c0,4.6-0.9,8.2-3,10.8c-2,2.7-4.9,4.1-8.5,4.1c-2,0-3.9-0.5-5.5-1.3s-2.8-1.9-3.9-3.5v15.5H861
		V94.7h2.8l0.5,4.7c0.9-1.7,2.4-3,3.9-3.9s3.5-1.4,5.6-1.4c3.6,0,6.4,1.4,8.5,4.4c2,3,3,6.7,3,11.5v0.6H885.2z M881.9,109.9
		c0-3.8-0.8-6.9-2.4-9.4c-1.6-2.4-3.8-3.6-6.7-3.6c-2.2,0-4.1,0.5-5.5,1.6c-1.4,1.1-2.5,2.5-3.1,4.2v14.4c0.8,1.7,1.9,3,3.3,3.9
		s3.3,1.4,5.3,1.4c3,0,5.2-1.1,6.6-3.3c1.6-2.2,2.2-5,2.2-8.6v-0.6H881.9z"/>
	<path class="st0" d="M906.5,97.5l-2.5-0.2c-2,0-3.8,0.6-5.2,1.7c-1.4,1.3-2.4,2.8-2.8,4.9v20.7h-3.3V94.6h3l0.5,5v0.3
		c0.9-1.9,2-3.3,3.5-4.4c1.4-1.1,3.1-1.6,5.2-1.6c0.5,0,0.8,0,1.3,0.2c0.5,0,0.8,0.2,0.9,0.2L906.5,97.5z"/>
	<path class="st0" d="M915.8,85.9h-3.3v-4.7h3.3V85.9z M915.8,124.7h-3.3V94.6h3.3V124.7z"/>
	<path class="st0" d="M927.7,94.6l0.3,5c0.9-1.7,2.2-3.1,3.9-4.1c1.6-0.9,3.5-1.4,5.8-1.4c2.4,0,4.2,0.6,5.8,1.7
		c1.6,1.1,2.7,2.8,3.3,5c0.9-2,2.2-3.8,3.9-5s3.8-1.7,6.1-1.7c3.1,0,5.6,1.1,7.4,3.1c1.7,2.2,2.7,5.5,2.7,9.9v17.6h-3.3v-17.6
		c0-3.8-0.6-6.3-1.9-7.8c-1.3-1.6-3.1-2.4-5.5-2.4c-2.5,0-4.6,0.8-6,2.4c-1.4,1.6-2.4,3.6-2.7,6.3c0,0.2,0,0.3,0,0.6
		c0,0.3,0,0.5,0,0.5v18h-3.3v-17.6c0-3.6-0.6-6.3-2-7.8c-1.3-1.6-3.1-2.4-5.5-2.4c-2.4,0-4.2,0.6-5.6,1.7c-1.4,1.3-2.4,2.8-3,4.9
		v21.2h-3.5V94.6H927.7z"/>
	<path class="st0" d="M986.7,125.3c-3.8,0-6.9-1.4-9.4-4.2c-2.5-2.8-3.8-6.3-3.8-10.5V109c0-4.2,1.3-7.8,3.8-10.7
		c2.5-2.8,5.5-4.2,8.9-4.2c3.6,0,6.6,1.1,8.6,3.5c2,2.4,3.1,5.5,3.1,9.4v2.8h-21.2v0.8c0,3.5,0.9,6.3,2.7,8.5s4.2,3.5,7.1,3.5
		c2,0,3.8-0.3,5.3-0.8c1.4-0.6,2.7-1.4,3.8-2.5l1.4,2.4c-1.1,1.3-2.5,2.2-4.2,2.8C991.1,124.8,989.1,125.3,986.7,125.3z M986.3,96.9
		c-2.5,0-4.6,0.9-6.1,2.8c-1.6,1.9-2.7,4.2-3,7.1v0.2h17.6v-0.8c0-2.7-0.8-4.7-2.4-6.6C991,97.7,988.9,96.9,986.3,96.9z"/>
	<path class="st0" d="M1018.6,97.5l-2.5-0.2c-2,0-3.8,0.6-5.2,1.7c-1.4,1.3-2.4,2.8-2.8,4.9v20.7h-3.3V94.6h3l0.5,5v0.3
		c0.9-1.9,2-3.3,3.5-4.4c1.4-1.1,3.1-1.6,5.2-1.6c0.5,0,0.8,0,1.3,0.2c0.5,0,0.8,0.2,0.9,0.2L1018.6,97.5z"/>
	<path class="st0" d="M1021.7,109.1c0-4.4,1.3-8,3.6-10.8c2.4-2.8,5.6-4.2,9.6-4.2c4.1,0,7.2,1.4,9.7,4.2c2.4,2.8,3.6,6.4,3.6,10.8
		v0.9c0,4.4-1.3,8.2-3.6,11c-2.4,2.8-5.6,4.2-9.6,4.2c-4.1,0-7.2-1.4-9.7-4.2c-2.4-2.8-3.6-6.4-3.6-11V109.1z M1025,110.1
		c0,3.5,0.9,6.4,2.7,8.8c1.7,2.4,4.2,3.6,7.4,3.6s5.5-1.3,7.2-3.6c1.7-2.4,2.7-5.3,2.7-8.8v-0.9c0-3.5-0.9-6.3-2.7-8.8
		s-4.2-3.6-7.4-3.6s-5.5,1.3-7.4,3.6c-1.9,2.4-2.7,5.3-2.7,8.8v0.9H1025z"/>
	<path class="st0" d="M1073.2,117c0-1.4-0.6-2.7-1.7-3.6c-1.1-1.1-3.3-1.9-6.3-2.5c-3.6-0.8-6.3-1.9-8-3.1s-2.5-3.1-2.5-5.5
		c0-2.4,0.9-4.2,3-5.8c1.9-1.6,4.6-2.4,7.7-2.4c3.5,0,6.1,0.8,8,2.5c1.9,1.7,3,3.8,2.8,6.3v0.2h-3.1c0-1.7-0.6-3.1-2-4.2
		c-1.4-1.1-3.3-1.9-5.6-1.9s-4.2,0.5-5.5,1.6c-1.3,1.1-1.9,2.2-1.9,3.6c0,1.4,0.5,2.5,1.6,3.5c1.1,0.9,3.1,1.7,6.3,2.4
		c3.6,0.8,6.3,1.9,8,3.3c1.7,1.4,2.7,3.3,2.7,5.6c0,2.5-0.9,4.6-3,6.1c-2,1.6-4.7,2.4-8,2.4c-3.6,0-6.6-0.9-8.6-2.7
		c-2-1.7-3.1-3.8-3-6.3v-0.2h3c0.2,2.2,0.9,3.8,2.7,4.7c1.7,0.9,3.6,1.4,5.8,1.4c2.4,0,4.2-0.5,5.6-1.6
		C1072.6,119.8,1073.2,118.6,1073.2,117z"/>
</g>
</svg>
