<?xml version="1.0" encoding="utf-8"?>
<!-- Generator: Adobe Illustrator 22.1.0, SVG Export Plug-In . SVG Version: 6.00 Build 0)  -->
<svg version="1.1" id="Capa_1" xmlns="http://www.w3.org/2000/svg" xmlns:xlink="http://www.w3.org/1999/xlink" x="0px" y="0px"
	 viewBox="0 0 1256 196" style="enable-background:new 0 0 1256 196;" xml:space="preserve">
<style type="text/css">
	.st0{fill:none;stroke:#54515C;stroke-miterlimit:10;}
	.st1{fill:#54515C;}
	.st2{enable-background:new    ;}
</style>
<line class="st0" x1="614" y1="3" x2="614" y2="189"/>
<g>
	<path class="st1" d="M50.3,82.5h7.9v10.8h-7.9v15.1h-14V93.3H7.9L7.2,85l28.9-46.2h14.1v43.7H50.3z M19.9,82.5h16.4V57.2H36
		l-1.4,3.1L19.9,82.5z"/>
	<path class="st1" d="M79.8,108.5h-14V96.2h14V108.5z"/>
	<path class="st1" d="M137.2,83.2c0,8.2-2.1,14.6-6.4,19.3c-4.3,4.7-10,7-17.1,7c-7.2,0-12.9-2.3-17.2-7S90,91.4,90,83.2V64
		c0-8.1,2.1-14.6,6.4-19.3s10-7,17.1-7s12.8,2.3,17.1,7s6.5,11.1,6.5,19.3L137.2,83.2L137.2,83.2z M123.3,62.6
		c0-4.5-0.9-7.9-2.6-10.4s-4.1-3.7-7.1-3.7c-3.1,0-5.4,1.2-7.1,3.7s-2.5,5.9-2.5,10.4v22c0,4.6,0.8,8.1,2.5,10.5s4.1,3.7,7.2,3.7
		c3,0,5.4-1.2,7.1-3.7c1.7-2.4,2.5-5.9,2.5-10.5V62.6z"/>
	<path class="st1" d="M191.5,83.2c0,8.2-2.1,14.6-6.4,19.3c-4.3,4.7-10,7-17.1,7c-7.2,0-12.9-2.3-17.2-7s-6.5-11.1-6.5-19.3V64
		c0-8.1,2.1-14.6,6.4-19.3c4.3-4.7,10-7,17.1-7s12.8,2.3,17.1,7s6.5,11.1,6.5,19.3L191.5,83.2L191.5,83.2z M177.6,62.6
		c0-4.5-0.9-7.9-2.6-10.4c-1.7-2.5-4.1-3.7-7.1-3.7c-3.1,0-5.4,1.2-7.1,3.7c-1.7,2.5-2.5,5.9-2.5,10.4v22c0,4.6,0.8,8.1,2.5,10.5
		s4.1,3.7,7.2,3.7c3,0,5.4-1.2,7.1-3.7c1.7-2.4,2.5-5.9,2.5-10.5L177.6,62.6L177.6,62.6z"/>
	<path class="st1" d="M245.9,83.2c0,8.2-2.1,14.6-6.4,19.3c-4.3,4.7-10,7-17.1,7c-7.2,0-12.9-2.3-17.2-7s-6.5-11.1-6.5-19.3V64
		c0-8.1,2.1-14.6,6.4-19.3c4.3-4.7,10-7,17.1-7s12.8,2.3,17.1,7s6.5,11.1,6.5,19.3L245.9,83.2L245.9,83.2z M231.9,62.6
		c0-4.5-0.9-7.9-2.6-10.4c-1.7-2.5-4.1-3.7-7.1-3.7c-3.1,0-5.4,1.2-7.1,3.7c-1.7,2.5-2.5,5.9-2.5,10.4v22c0,4.6,0.8,8.1,2.5,10.5
		s4.1,3.7,7.2,3.7c3,0,5.4-1.2,7.1-3.7c1.7-2.4,2.5-5.9,2.5-10.5L231.9,62.6L231.9,62.6z"/>
</g>
<g>
	<g>
		<path class="st1" d="M270.2,99.7l0.2,1.2h0.1l4-13.4h6.1l-8.5,24.1c-0.6,1.5-1.4,2.8-2.4,3.8s-2.6,1.5-4.6,1.5
			c-0.5,0-0.9,0-1.3-0.1s-0.9-0.2-1.5-0.3l0.7-4.1c0.2,0,0.3,0.1,0.5,0.1s0.4,0,0.5,0c0.9,0,1.6-0.2,2.2-0.7c0.5-0.5,0.9-1,1.2-1.7
			l0.7-1.6l-7.5-21h6.1L270.2,99.7z"/>
	</g>
</g>
<g>
	<path class="st1" d="M346.4,56.8c0,3.4-0.9,6.5-2.7,9.2c-1.8,2.7-4.2,4.8-7.4,6.3c3.8,1.6,6.8,3.8,9.1,6.7c2.2,2.9,3.4,6.3,3.4,10
		c0,6.5-2.2,11.5-6.7,15.1s-10.2,5.4-17.2,5.4c-7.3,0-13.3-1.8-18-5.4s-7-8.6-7-15.1c0-3.8,1.2-7.1,3.5-10s5.5-5.2,9.4-6.7
		c-3.3-1.5-5.9-3.6-7.7-6.3c-1.9-2.7-2.8-5.7-2.8-9.2c0-6.1,2.1-10.9,6.3-14.2c4.2-3.3,9.6-5,16.3-5c6.4,0,11.6,1.7,15.7,5
		C344.3,46,346.4,50.7,346.4,56.8z M334.7,88.4c0-3.1-1-5.6-2.9-7.6s-4.3-3-7.2-3c-3.1,0-5.7,1-7.8,3c-2.1,2-3.1,4.5-3.1,7.6
		c0,3.2,1,5.7,3.1,7.6s4.7,2.8,7.9,2.8c2.9,0,5.3-0.9,7.1-2.8C333.8,94,334.7,91.5,334.7,88.4z M332.4,57.5c0-2.7-0.7-4.9-2.2-6.5
		c-1.4-1.6-3.3-2.4-5.6-2.4c-2.6,0-4.7,0.8-6.3,2.4c-1.6,1.6-2.3,3.8-2.3,6.6c0,2.8,0.8,5.1,2.4,6.9c1.6,1.7,3.7,2.6,6.3,2.6
		c2.3,0,4.2-0.9,5.6-2.6S332.4,60.3,332.4,57.5z"/>
	<path class="st1" d="M371,108.5h-14V96.2h14V108.5z"/>
	<path class="st1" d="M428.4,83.2c0,8.2-2.1,14.6-6.4,19.3c-4.3,4.7-10,7-17.1,7c-7.2,0-12.9-2.3-17.2-7s-6.5-11.1-6.5-19.3V64
		c0-8.1,2.1-14.6,6.4-19.3s10-7,17.1-7s12.8,2.3,17.1,7c4.3,4.7,6.5,11.1,6.5,19.3v19.2H428.4z M414.5,62.6c0-4.5-0.9-7.9-2.6-10.4
		s-4.1-3.7-7.1-3.7c-3.1,0-5.4,1.2-7.1,3.7s-2.5,5.9-2.5,10.4v22c0,4.6,0.8,8.1,2.5,10.5s4.1,3.7,7.2,3.7c3,0,5.4-1.2,7.1-3.7
		c1.7-2.4,2.5-5.9,2.5-10.5V62.6z"/>
	<path class="st1" d="M482.7,83.2c0,8.2-2.1,14.6-6.4,19.3c-4.3,4.7-10,7-17.1,7c-7.2,0-12.9-2.3-17.2-7s-6.5-11.1-6.5-19.3V64
		c0-8.1,2.1-14.6,6.4-19.3s10-7,17.1-7s12.8,2.3,17.1,7c4.3,4.7,6.5,11.1,6.5,19.3v19.2H482.7z M468.8,62.6c0-4.5-0.9-7.9-2.6-10.4
		s-4.1-3.7-7.1-3.7c-3.1,0-5.4,1.2-7.1,3.7s-2.5,5.9-2.5,10.4v22c0,4.6,0.8,8.1,2.5,10.5s4.1,3.7,7.2,3.7c3,0,5.4-1.2,7.1-3.7
		c1.7-2.4,2.5-5.9,2.5-10.5V62.6z"/>
	<path class="st1" d="M537.1,83.2c0,8.2-2.1,14.6-6.4,19.3c-4.3,4.7-10,7-17.1,7c-7.2,0-12.9-2.3-17.2-7s-6.5-11.1-6.5-19.3V64
		c0-8.1,2.1-14.6,6.4-19.3s10-7,17.1-7c7.1,0,12.8,2.3,17.1,7S537,55.8,537,64v19.2H537.1z M523.1,62.6c0-4.5-0.9-7.9-2.6-10.4
		c-1.7-2.5-4.1-3.7-7.1-3.7c-3.1,0-5.4,1.2-7.1,3.7s-2.5,5.9-2.5,10.4v22c0,4.6,0.8,8.1,2.5,10.5s4.1,3.7,7.2,3.7
		c3,0,5.4-1.2,7.1-3.7c1.7-2.4,2.5-5.9,2.5-10.5V62.6z"/>
</g>
<g>
	<path class="st1" d="M6.3,175.1c0-3.5,0.7-6.3,2.2-8.5s3.6-3.2,6.2-3.2c1.5,0,2.9,0.3,4,1s2.1,1.6,2.8,2.8v-13.1H24V186h-2.2
		l-0.2-3.2c-0.7,1.2-1.7,2.1-2.8,2.7c-1.2,0.6-2.5,0.9-4.1,0.9c-2.6,0-4.7-1-6.2-2.9c-1.5-2-2.2-4.6-2.2-7.9
		C6.3,175.6,6.3,175.1,6.3,175.1z M8.7,175.6c0,2.7,0.5,4.8,1.6,6.4c1.1,1.6,2.7,2.4,4.8,2.4c1.6,0,2.9-0.4,3.9-1.1
		c1.1-0.7,1.9-1.7,2.5-3v-10.4c-0.6-1.3-1.3-2.3-2.4-3.1c-1-0.8-2.4-1.2-4-1.2c-2.1,0-3.8,0.9-4.8,2.7c-1.1,1.8-1.6,4.1-1.6,6.9
		C8.7,175.2,8.7,175.6,8.7,175.6z"/>
	<path class="st1" d="M44.9,182.4c-0.7,1.3-1.7,2.3-2.9,3s-2.6,1.1-4.2,1.1c-2.3,0-4.1-0.8-5.5-2.4c-1.3-1.6-2-4-2-7.3V164h2.4v12.9
		c0,2.7,0.5,4.6,1.4,5.8s2.2,1.8,3.9,1.8c1.8,0,3.3-0.4,4.4-1.2c1.1-0.8,1.9-2,2.3-3.4v-15.7h2.4V186h-2.2V182.4z"/>
	<path class="st1" d="M63.9,166l-1.8-0.1c-1.5,0-2.8,0.4-3.8,1.3s-1.7,2.1-2.1,3.6V186h-2.4v-22.1h2.1l0.3,3.7v0.2
		c0.6-1.4,1.5-2.4,2.6-3.2s2.4-1.1,3.8-1.1c0.3,0,0.6,0,0.9,0.1c0.3,0,0.5,0.1,0.7,0.2L63.9,166z"/>
	<path class="st1" d="M81.9,186c-0.2-0.7-0.3-1.4-0.3-1.9c-0.1-0.5-0.1-1.1-0.1-1.7c-0.8,1.2-1.9,2.1-3.3,2.9s-2.9,1.1-4.6,1.1
		c-2.1,0-3.8-0.6-5-1.7c-1.2-1.1-1.8-2.7-1.8-4.6c0-2,0.9-3.7,2.6-4.9c1.8-1.2,4.1-1.8,7.1-1.8h4.9v-2.7c0-1.6-0.5-2.8-1.5-3.7
		s-2.4-1.3-4.3-1.3c-1.7,0-3.1,0.4-4.2,1.3c-1.1,0.9-1.7,1.9-1.7,3.1h-2.2V170c-0.1-1.6,0.7-3.1,2.3-4.4c1.6-1.3,3.6-1.9,6.1-1.9
		c2.4,0,4.4,0.6,5.9,1.9c1.5,1.2,2.2,3,2.2,5.3v10.9c0,0.8,0,1.5,0.1,2.3c0.1,0.7,0.2,1.5,0.4,2.2h-2.6V186z M73.9,184.3
		c1.8,0,3.3-0.4,4.7-1.2c1.3-0.8,2.3-1.9,2.9-3.2v-4.6h-4.9c-2.2,0-4,0.5-5.3,1.4s-2,2.1-2,3.5c0,1.2,0.4,2.2,1.2,2.9
		S72.5,184.3,73.9,184.3z"/>
	<path class="st1" d="M92.6,163.9l0.2,3.9c0.7-1.4,1.7-2.4,2.9-3.2s2.6-1.1,4.3-1.1c2.4,0,4.2,0.7,5.5,2.2s1.9,3.7,1.9,6.8V186H105
		v-13.5c0-2.5-0.5-4.3-1.4-5.4c-0.9-1-2.3-1.6-4-1.6s-3.1,0.5-4.2,1.4s-1.9,2.1-2.3,3.6V186h-2.4v-22.1H92.6z"/>
	<path class="st1" d="M117.5,158.3v5.7h4.9v2h-4.9v14.4c0,1.4,0.3,2.5,0.8,3.1s1.2,0.9,2.1,0.9c0.4,0,0.8,0,1.2-0.1
		c0.4,0,0.8-0.1,1.3-0.2l0.4,1.8c-0.4,0.2-0.9,0.3-1.5,0.4c-0.6,0.1-1.2,0.1-1.8,0.1c-1.6,0-2.8-0.5-3.6-1.5s-1.3-2.5-1.3-4.7v-14.4
		h-3.8v-2h3.8v-5.7h2.4V158.3z"/>
	<path class="st1" d="M135.9,186.4c-2.8,0-5.1-1-6.9-3.1c-1.8-2-2.7-4.6-2.7-7.8v-1.1c0-3.2,0.9-5.8,2.7-7.9c1.8-2.1,4-3.1,6.6-3.1
		c2.7,0,4.8,0.9,6.4,2.6c1.6,1.7,2.3,4,2.3,6.9v2.1h-15.6v0.6c0,2.5,0.7,4.6,2,6.2c1.3,1.7,3.1,2.5,5.2,2.5c1.5,0,2.8-0.2,3.9-0.6
		c1.1-0.4,2-1,2.8-1.8l1,1.7c-0.8,0.9-1.9,1.6-3.2,2.1C139.1,186.2,137.6,186.4,135.9,186.4z M135.6,165.6c-1.8,0-3.3,0.7-4.6,2.1
		c-1.2,1.4-1.9,3.1-2.1,5.2v0.1h12.9v-0.6c0-1.9-0.6-3.5-1.7-4.8C139,166.2,137.5,165.6,135.6,165.6z"/>
	<path class="st1" d="M162,186h-2.4v-31.8h2.4V186z"/>
	<path class="st1" d="M182.7,186c-0.2-0.7-0.3-1.4-0.3-1.9c-0.1-0.5-0.1-1.1-0.1-1.7c-0.8,1.2-1.9,2.1-3.3,2.9s-2.9,1.1-4.6,1.1
		c-2.1,0-3.8-0.6-5-1.7c-1.2-1.1-1.8-2.7-1.8-4.6c0-2,0.9-3.7,2.6-4.9c1.8-1.2,4.1-1.8,7.1-1.8h4.9v-2.7c0-1.6-0.5-2.8-1.5-3.7
		s-2.4-1.3-4.3-1.3c-1.7,0-3.1,0.4-4.2,1.3c-1.1,0.9-1.7,1.9-1.7,3.1h-2.2V170c-0.1-1.6,0.7-3.1,2.3-4.4c1.6-1.3,3.6-1.9,6.1-1.9
		c2.4,0,4.4,0.6,5.9,1.9c1.5,1.2,2.2,3,2.2,5.3v10.9c0,0.8,0,1.5,0.1,2.3c0.1,0.7,0.2,1.5,0.4,2.2h-2.6V186z M174.7,184.3
		c1.8,0,3.3-0.4,4.7-1.2c1.3-0.8,2.3-1.9,2.9-3.2v-4.6h-4.9c-2.2,0-4,0.5-5.3,1.4s-2,2.1-2,3.5c0,1.2,0.4,2.2,1.2,2.9
		S173.3,184.3,174.7,184.3z"/>
	<path class="st1" d="M209.6,184.3c1.6,0,3-0.5,4.3-1.4c1.2-0.9,1.9-2.2,1.9-3.8h2.2v0.1c0.1,2-0.7,3.7-2.4,5.1
		c-1.7,1.4-3.7,2.1-5.9,2.1c-3,0-5.3-1-7-3.1c-1.6-2.1-2.5-4.7-2.5-7.9v-0.9c0-3.2,0.8-5.8,2.5-7.9c1.6-2.1,4-3.1,6.9-3.1
		c2.4,0,4.4,0.7,6.1,2.1c1.6,1.4,2.4,3.3,2.3,5.6v0.1h-2.2c0-1.8-0.6-3.2-1.8-4.2c-1.2-1.1-2.6-1.6-4.4-1.6c-2.4,0-4.1,0.8-5.3,2.5
		c-1.1,1.7-1.7,3.8-1.7,6.4v0.9c0,2.6,0.6,4.8,1.7,6.4C205.4,183.5,207.2,184.3,209.6,184.3z"/>
	<path class="st1" d="M221.7,174.6c0-3.3,0.9-5.9,2.7-8s4.1-3.1,7.1-3.1s5.3,1,7.1,3.1s2.7,4.7,2.7,8v0.7c0,3.3-0.9,5.9-2.7,8
		s-4.1,3.1-7.1,3.1s-5.3-1-7.1-3.1s-2.7-4.7-2.7-8V174.6z M224.1,175.3c0,2.6,0.6,4.7,1.9,6.4c1.3,1.7,3.1,2.6,5.4,2.6
		c2.3,0,4.1-0.9,5.4-2.6c1.3-1.7,1.9-3.9,1.9-6.4v-0.7c0-2.5-0.7-4.6-2-6.4c-1.3-1.8-3.1-2.6-5.4-2.6s-4.1,0.9-5.4,2.6
		c-1.3,1.8-1.9,3.9-1.9,6.4v0.7H224.1z"/>
	<path class="st1" d="M248.5,163.9l0.2,3.9c0.7-1.4,1.7-2.4,2.9-3.2s2.6-1.1,4.3-1.1c2.4,0,4.2,0.7,5.5,2.2s1.9,3.7,1.9,6.8V186
		h-2.4v-13.5c0-2.5-0.5-4.3-1.4-5.4c-0.9-1-2.3-1.6-4-1.6c-1.7,0-3.1,0.5-4.2,1.4s-1.9,2.1-2.3,3.6V186h-2.4v-22.1H248.5z"/>
	<path class="st1" d="M282.8,180.4c0-1-0.4-1.9-1.3-2.7s-2.4-1.4-4.6-1.9c-2.6-0.6-4.6-1.3-5.8-2.3c-1.3-0.9-1.9-2.3-1.9-4
		s0.7-3.1,2.1-4.3s3.3-1.7,5.6-1.7c2.5,0,4.5,0.6,5.9,1.8c1.5,1.2,2.1,2.8,2.1,4.6v0.1h-2.3c0-1.2-0.5-2.3-1.5-3.2s-2.4-1.3-4.2-1.3
		c-1.8,0-3.1,0.4-4,1.1c-0.9,0.8-1.3,1.7-1.3,2.7s0.4,1.9,1.2,2.5c0.8,0.7,2.3,1.2,4.6,1.7c2.6,0.6,4.6,1.4,5.9,2.4s2,2.4,2,4.1
		c0,1.8-0.7,3.3-2.2,4.5s-3.5,1.7-5.9,1.7c-2.7,0-4.8-0.6-6.3-1.9c-1.5-1.3-2.3-2.8-2.2-4.6v-0.1h2.2c0.1,1.6,0.7,2.7,1.9,3.5
		s2.6,1.1,4.3,1.1c1.8,0,3.2-0.4,4.2-1.2C282.3,182.4,282.8,181.5,282.8,180.4z"/>
	<path class="st1" d="M294.7,158.3v5.7h4.9v2h-4.9v14.4c0,1.4,0.3,2.5,0.8,3.1s1.2,0.9,2.1,0.9c0.4,0,0.8,0,1.2-0.1
		c0.4,0,0.8-0.1,1.3-0.2l0.4,1.8c-0.4,0.2-0.9,0.3-1.5,0.4c-0.6,0.1-1.2,0.1-1.8,0.1c-1.6,0-2.8-0.5-3.6-1.5c-0.9-1-1.3-2.5-1.3-4.7
		v-14.4h-3.8v-2h3.8v-5.7h2.4V158.3z"/>
	<path class="st1" d="M314.9,166l-1.8-0.1c-1.5,0-2.8,0.4-3.8,1.3s-1.7,2.1-2.1,3.6V186h-2.4v-22.1h2.1l0.3,3.7v0.2
		c0.6-1.4,1.5-2.4,2.6-3.2s2.4-1.1,3.8-1.1c0.3,0,0.6,0,0.9,0.1c0.3,0,0.5,0.1,0.7,0.2L314.9,166z"/>
	<path class="st1" d="M333.4,182.4c-0.7,1.3-1.7,2.3-2.9,3c-1.2,0.7-2.6,1.1-4.2,1.1c-2.3,0-4.1-0.8-5.5-2.4s-2-4-2-7.3V164h2.4
		v12.9c0,2.7,0.5,4.6,1.4,5.8s2.2,1.8,3.9,1.8c1.8,0,3.3-0.4,4.4-1.2s1.9-2,2.3-3.4v-15.7h2.4V186h-2.2L333.4,182.4z"/>
	<path class="st1" d="M350.4,184.3c1.6,0,3-0.5,4.3-1.4c1.2-0.9,1.9-2.2,1.9-3.8h2.2v0.1c0.1,2-0.7,3.7-2.4,5.1
		c-1.7,1.4-3.7,2.1-5.9,2.1c-3,0-5.3-1-7-3.1s-2.5-4.7-2.5-7.9v-0.9c0-3.2,0.8-5.8,2.5-7.9c1.6-2.1,4-3.1,6.9-3.1
		c2.4,0,4.4,0.7,6.1,2.1c1.6,1.4,2.4,3.3,2.3,5.6v0.1h-2.2c0-1.8-0.6-3.2-1.8-4.2c-1.2-1.1-2.6-1.6-4.4-1.6c-2.4,0-4.1,0.8-5.3,2.5
		c-1.1,1.7-1.7,3.8-1.7,6.4v0.9c0,2.6,0.6,4.8,1.7,6.4C346.2,183.5,348,184.3,350.4,184.3z"/>
	<path class="st1" d="M372,184.3c1.6,0,3-0.5,4.3-1.4c1.2-0.9,1.9-2.2,1.9-3.8h2.2v0.1c0.1,2-0.7,3.7-2.4,5.1
		c-1.7,1.4-3.7,2.1-5.9,2.1c-3,0-5.3-1-7-3.1s-2.5-4.7-2.5-7.9v-0.9c0-3.2,0.8-5.8,2.5-7.9c1.6-2.1,4-3.1,6.9-3.1
		c2.4,0,4.4,0.7,6.1,2.1c1.6,1.4,2.4,3.3,2.3,5.6v0.1h-2.2c0-1.8-0.6-3.2-1.8-4.2c-1.2-1.1-2.6-1.6-4.4-1.6c-2.4,0-4.1,0.8-5.3,2.5
		c-1.1,1.7-1.7,3.8-1.7,6.4v0.9c0,2.6,0.6,4.8,1.7,6.4C367.9,183.5,369.7,184.3,372,184.3z"/>
	<path class="st1" d="M388.2,157.6h-2.4v-3.4h2.4V157.6z M388.2,186h-2.4v-22.1h2.4V186z"/>
	<path class="st1" d="M393.6,174.6c0-3.3,0.9-5.9,2.7-8c1.8-2.1,4.1-3.1,7.1-3.1s5.3,1,7.1,3.1c1.8,2.1,2.7,4.7,2.7,8v0.7
		c0,3.3-0.9,5.9-2.7,8c-1.8,2.1-4.1,3.1-7.1,3.1s-5.3-1-7.1-3.1c-1.8-2.1-2.7-4.7-2.7-8V174.6z M396.1,175.3c0,2.6,0.6,4.7,1.9,6.4
		s3.1,2.6,5.4,2.6s4.1-0.9,5.4-2.6c1.3-1.7,1.9-3.9,1.9-6.4v-0.7c0-2.5-0.7-4.6-2-6.4c-1.3-1.8-3.1-2.6-5.4-2.6s-4.1,0.9-5.4,2.6
		c-1.3,1.8-1.9,3.9-1.9,6.4v0.7H396.1z M406.4,155.4h3l0.1,0.1l-5.1,5.3h-2.2L406.4,155.4z"/>
	<path class="st1" d="M420.4,163.9l0.2,3.9c0.7-1.4,1.7-2.4,2.9-3.2c1.2-0.7,2.6-1.1,4.3-1.1c2.4,0,4.2,0.7,5.5,2.2s1.9,3.7,1.9,6.8
		V186h-2.4v-13.5c0-2.5-0.5-4.3-1.4-5.4s-2.3-1.6-4-1.6s-3.1,0.5-4.2,1.4s-1.9,2.1-2.3,3.6V186h-2.4v-22.1H420.4z"/>
</g>
<g>
	<g>
		<path class="st1" d="M23.7,136.2c0,2.7-0.6,5-1.9,6.6c-1.3,1.7-3,2.5-5.3,2.5c-1,0-1.8-0.2-2.6-0.5c-0.8-0.4-1.4-0.9-1.9-1.6v8.9
			H7v-25.7h4.5l0.3,2.2c0.5-0.8,1.2-1.4,2-1.9c0.8-0.4,1.7-0.7,2.7-0.7c2.3,0,4.1,0.9,5.4,2.7c1.3,1.8,1.9,4.2,1.9,7.1v0.4H23.7z
			 M18.7,135.9c0-1.8-0.3-3.2-0.9-4.3s-1.5-1.6-2.7-1.6c-0.8,0-1.4,0.2-1.9,0.5s-1,0.8-1.3,1.3v8.1c0.3,0.5,0.7,0.9,1.3,1.2
			c0.5,0.3,1.2,0.4,2,0.4c1.2,0,2.1-0.5,2.7-1.4c0.6-1,0.9-2.2,0.9-3.9v-0.3H18.7z"/>
		<path class="st1" d="M38.2,142.3c-0.6,1-1.3,1.8-2.2,2.3s-1.9,0.8-3.1,0.8c-2,0-3.5-0.7-4.6-2s-1.7-3.4-1.7-6.2v-10.8h5v10.8
			c0,1.6,0.2,2.7,0.7,3.3s1.1,0.9,2.1,0.9c0.8,0,1.5-0.1,2.1-0.4c0.6-0.3,1-0.6,1.4-1.1v-13.5h5V145h-4.2L38.2,142.3z"/>
		<path class="st1" d="M54.7,145.4c-2.8,0-4.9-0.8-6.5-2.6c-1.6-1.7-2.3-3.9-2.3-6.6v-0.7c0-2.8,0.8-5.1,2.3-6.8
			c1.5-1.8,3.6-2.7,6.2-2.6c2.5,0,4.4,0.8,5.7,2.3c1.3,1.5,2,3.6,2,6.2v2.6H51l-0.1,0.1c0.1,1.3,0.5,2.3,1.2,3.1s1.7,1.2,3.1,1.2
			c1.1,0,2.1-0.1,2.9-0.3c0.8-0.2,1.6-0.6,2.4-1l1.4,3.1c-0.7,0.6-1.8,1.1-3,1.5C57.6,145.2,56.2,145.4,54.7,145.4z M54.4,129.9
			c-1,0-1.8,0.3-2.3,1s-0.9,1.6-1,2.8v0.1h6.1v-0.4c0-1.1-0.2-1.9-0.7-2.6C56.1,130.2,55.4,129.9,54.4,129.9z"/>
		<path class="st1" d="M75.1,139.8c0-0.5-0.3-1-0.8-1.4s-1.5-0.7-3-1c-2.2-0.4-3.8-1.1-5-2s-1.7-2.1-1.7-3.6c0-1.6,0.7-2.9,2-4.1
			c1.4-1.1,3.1-1.7,5.4-1.7s4.2,0.6,5.6,1.7c1.4,1.1,2.1,2.5,2,4.2v0.1h-4.8c0-0.7-0.2-1.4-0.7-1.8c-0.5-0.5-1.2-0.7-2.1-0.7
			c-0.8,0-1.4,0.2-1.9,0.6c-0.5,0.4-0.7,0.9-0.7,1.5s0.2,1,0.7,1.4s1.5,0.7,3,1c2.3,0.5,4,1.1,5.1,2s1.7,2.1,1.7,3.7
			c0,1.7-0.7,3-2.1,4.1s-3.3,1.6-5.7,1.6c-2.5,0-4.4-0.6-5.9-1.9s-2.1-2.7-2.1-4.3v-0.1h4.6c0,1,0.4,1.7,1,2.2
			c0.6,0.4,1.4,0.7,2.4,0.7c0.9,0,1.6-0.2,2.1-0.6C74.8,141,75.1,140.5,75.1,139.8z"/>
		<path class="st1" d="M89.2,121.9v4.6h3.1v3.5h-3.1v9.5c0,0.7,0.2,1.2,0.5,1.5s0.7,0.5,1.2,0.5c0.3,0,0.5,0,0.7,0s0.4-0.1,0.7-0.1
			l0.4,3.6c-0.5,0.2-1,0.3-1.5,0.4c-0.5,0.1-1,0.1-1.6,0.1c-1.7,0-3.1-0.5-4-1.4c-0.9-1-1.4-2.5-1.4-4.5v-9.5h-2.7v-3.5h2.7V122h5
			V121.9z"/>
		<path class="st1" d="M94.7,135.5c0-2.8,0.8-5,2.3-6.8c1.5-1.8,3.7-2.7,6.4-2.7c2.7,0,4.9,0.9,6.5,2.6c1.6,1.8,2.3,4,2.3,6.8v0.4
			c0,2.8-0.8,5.1-2.3,6.8c-1.6,1.8-3.7,2.6-6.4,2.6c-2.7,0-4.9-0.9-6.5-2.6c-1.6-1.8-2.3-4-2.3-6.8V135.5z M99.7,135.9
			c0,1.7,0.3,3.1,0.9,4.1s1.6,1.5,2.9,1.5s2.2-0.5,2.8-1.5c0.6-1,0.9-2.4,0.9-4.1v-0.4c0-1.6-0.3-3-0.9-4s-1.6-1.6-2.9-1.6
			s-2.2,0.5-2.8,1.6s-0.9,2.4-0.9,4V135.9z"/>
		<path class="st1" d="M125.3,139.8c0-0.5-0.3-1-0.8-1.4s-1.5-0.7-3-1c-2.2-0.4-3.8-1.1-5-2s-1.7-2.1-1.7-3.6c0-1.6,0.7-2.9,2-4.1
			c1.4-1.1,3.1-1.7,5.4-1.7s4.2,0.6,5.6,1.7c1.4,1.1,2.1,2.5,2,4.2v0.1H125c0-0.7-0.2-1.4-0.7-1.8c-0.5-0.5-1.2-0.7-2.1-0.7
			c-0.8,0-1.4,0.2-1.9,0.6c-0.5,0.4-0.7,0.9-0.7,1.5s0.2,1,0.7,1.4s1.5,0.7,3,1c2.3,0.5,4,1.1,5.1,2c1.1,0.9,1.7,2.1,1.7,3.7
			c0,1.7-0.7,3-2.1,4.1c-1.4,1.1-3.3,1.6-5.7,1.6c-2.5,0-4.4-0.6-5.9-1.9s-2.1-2.7-2.1-4.3v-0.1h4.6c0,1,0.4,1.7,1,2.2
			c0.6,0.4,1.4,0.7,2.4,0.7c0.9,0,1.6-0.2,2.1-0.6C125.1,141,125.3,140.5,125.3,139.8z"/>
		<path class="st1" d="M141.4,135.9c0-2.9,0.6-5.3,1.9-7.1c1.3-1.8,3-2.7,5.4-2.7c0.9,0,1.8,0.2,2.5,0.6c0.7,0.4,1.4,1,2,1.7v-10.2
			h5V145h-4.3l-0.4-2.3c-0.6,0.9-1.3,1.5-2.1,2s-1.7,0.7-2.7,0.7c-2.3,0-4.1-0.8-5.3-2.5c-1.3-1.7-1.9-3.9-1.9-6.6L141.4,135.9
			L141.4,135.9z M146.4,136.2c0,1.6,0.3,2.9,0.8,3.8s1.4,1.4,2.7,1.4c0.7,0,1.4-0.1,1.9-0.4c0.5-0.3,1-0.7,1.3-1.3v-7.9
			c-0.3-0.6-0.8-1-1.3-1.4c-0.5-0.3-1.2-0.5-1.9-0.5c-1.2,0-2.1,0.5-2.7,1.6c-0.6,1.1-0.9,2.5-0.9,4.3L146.4,136.2L146.4,136.2z"/>
		<path class="st1" d="M170.1,145.4c-2.8,0-4.9-0.8-6.5-2.6c-1.6-1.7-2.3-3.9-2.3-6.6v-0.7c0-2.8,0.8-5.1,2.3-6.8
			c1.5-1.8,3.6-2.7,6.2-2.6c2.5,0,4.4,0.8,5.7,2.3c1.3,1.5,2,3.6,2,6.2v2.6h-11.1l-0.1,0.1c0.1,1.3,0.5,2.3,1.2,3.1s1.7,1.2,3.1,1.2
			c1.1,0,2.1-0.1,2.9-0.3c0.8-0.2,1.6-0.6,2.4-1l1.4,3.1c-0.7,0.6-1.8,1.1-3,1.5C173,145.2,171.6,145.4,170.1,145.4z M169.8,129.9
			c-1,0-1.8,0.3-2.3,1s-0.9,1.6-1,2.8v0.1h6.1v-0.4c0-1.1-0.2-1.9-0.7-2.6C171.5,130.2,170.8,129.9,169.8,129.9z"/>
		<path class="st1" d="M195.2,121.9v4.6h3.1v3.5h-3.1v9.5c0,0.7,0.2,1.2,0.5,1.5s0.7,0.5,1.2,0.5c0.3,0,0.5,0,0.7,0s0.4-0.1,0.7-0.1
			l0.4,3.6c-0.5,0.2-1,0.3-1.5,0.4c-0.5,0.1-1,0.1-1.6,0.1c-1.7,0-3.1-0.5-4-1.4c-0.9-1-1.4-2.5-1.4-4.5v-9.5h-2.7v-3.5h2.7V122h5
			V121.9z"/>
		<path class="st1" d="M211.2,130.7l-1.8-0.1c-0.7,0-1.4,0.2-1.8,0.5c-0.5,0.3-0.8,0.7-1.1,1.3V145h-5v-18.6h4.7l0.2,2.7
			c0.4-1,1-1.7,1.7-2.3s1.5-0.8,2.4-0.8c0.3,0,0.5,0,0.7,0.1s0.4,0.1,0.6,0.1L211.2,130.7z"/>
		<path class="st1" d="M224.8,145c-0.2-0.4-0.3-0.9-0.5-1.3c-0.1-0.5-0.2-1-0.3-1.4c-0.5,0.9-1.2,1.7-2,2.3s-1.9,0.9-3,0.9
			c-1.9,0-3.4-0.5-4.5-1.5s-1.6-2.4-1.6-4.1c0-1.8,0.7-3.2,2.1-4.2c1.4-1,3.4-1.5,6.1-1.5h2.8v-1.5c0-0.9-0.2-1.6-0.7-2.1
			s-1.2-0.7-2.1-0.7c-0.8,0-1.4,0.2-1.9,0.6c-0.4,0.4-0.7,0.9-0.7,1.6h-4.8V132c-0.1-1.6,0.6-2.9,2.1-4.1c1.4-1.1,3.3-1.7,5.7-1.7
			c2.2,0,4,0.6,5.4,1.7c1.4,1.1,2.1,2.7,2.1,4.8v7.7c0,0.9,0.1,1.7,0.2,2.5c0.1,0.8,0.3,1.5,0.6,2.3h-5V145z M220.2,141.6
			c0.9,0,1.6-0.2,2.3-0.7c0.7-0.4,1.2-0.9,1.4-1.5v-2.6h-2.8c-1.1,0-1.9,0.3-2.4,0.8s-0.8,1.2-0.8,1.9c0,0.6,0.2,1.1,0.6,1.5
			C218.9,141.5,219.5,141.6,220.2,141.6z"/>
		<path class="st1" d="M249.5,136.2c0,2.8-0.6,5-1.9,6.6s-3,2.5-5.4,2.5c-1.1,0-2-0.2-2.8-0.7s-1.5-1.1-2.1-2L237,145h-4.2v-26.8h5
			v10.2c0.5-0.7,1.2-1.3,1.9-1.7c0.8-0.4,1.6-0.6,2.6-0.6c2.4,0,4.2,0.9,5.4,2.7c1.2,1.8,1.9,4.2,1.9,7.1L249.5,136.2L249.5,136.2z
			 M244.5,135.9c0-1.8-0.3-3.2-0.8-4.3s-1.4-1.6-2.7-1.6c-0.8,0-1.4,0.2-2,0.5c-0.5,0.3-1,0.8-1.3,1.4v7.9c0.3,0.6,0.7,1,1.3,1.3
			s1.2,0.4,2,0.4c1.3,0,2.2-0.5,2.7-1.4s0.8-2.2,0.8-3.9V135.9z"/>
		<path class="st1" d="M263.5,145c-0.2-0.4-0.3-0.9-0.5-1.3c-0.1-0.5-0.2-1-0.3-1.4c-0.5,0.9-1.2,1.7-2,2.3s-1.9,0.9-3,0.9
			c-1.9,0-3.4-0.5-4.5-1.5s-1.6-2.4-1.6-4.1c0-1.8,0.7-3.2,2.1-4.2c1.4-1,3.4-1.5,6.1-1.5h2.8v-1.5c0-0.9-0.2-1.6-0.7-2.1
			s-1.2-0.7-2.1-0.7c-0.8,0-1.4,0.2-1.9,0.6c-0.4,0.4-0.7,0.9-0.7,1.6h-4.8V132c-0.1-1.6,0.6-2.9,2.1-4.1c1.4-1.1,3.3-1.7,5.7-1.7
			c2.2,0,4,0.6,5.4,1.7c1.4,1.1,2.1,2.7,2.1,4.8v7.7c0,0.9,0.1,1.7,0.2,2.5s0.3,1.5,0.6,2.3h-5V145z M259,141.6
			c0.9,0,1.6-0.2,2.3-0.7c0.7-0.4,1.2-0.9,1.4-1.5v-2.6h-2.8c-1.1,0-1.9,0.3-2.4,0.8s-0.8,1.2-0.8,1.9c0,0.6,0.2,1.1,0.6,1.5
			C257.7,141.5,258.2,141.6,259,141.6z"/>
		<path class="st1" d="M276.9,126.4v19.3c0,2.2-0.6,3.9-1.7,5s-2.8,1.8-4.8,1.8c-0.5,0-0.9,0-1.3-0.1s-0.8-0.1-1.2-0.2l0.2-3.8
			c0.3,0.1,0.5,0.1,0.8,0.2c0.3,0,0.5,0.1,0.8,0.1c0.7,0,1.2-0.2,1.6-0.7s0.5-1.2,0.5-2.2v-19.3h5.1V126.4z M276.8,121.9h-5v-3.7h5
			V121.9z"/>
		<path class="st1" d="M280,135.5c0-2.8,0.8-5,2.3-6.8c1.5-1.8,3.7-2.7,6.4-2.7c2.7,0,4.9,0.9,6.5,2.6c1.6,1.7,2.3,4,2.3,6.8v0.4
			c0,2.8-0.8,5.1-2.3,6.8c-1.6,1.8-3.7,2.6-6.4,2.6c-2.7,0-4.9-0.9-6.5-2.6c-1.6-1.8-2.3-4-2.3-6.8V135.5z M285,135.9
			c0,1.7,0.3,3.1,0.9,4.1s1.6,1.5,2.9,1.5s2.2-0.5,2.8-1.5c0.6-1,0.9-2.4,0.9-4.1v-0.4c0-1.6-0.3-3-0.9-4s-1.6-1.6-2.9-1.6
			s-2.2,0.5-2.8,1.6s-0.9,2.4-0.9,4V135.9z"/>
	</g>
</g>
<g>
	<g>
		<path class="st1" d="M15,28.9c-2.8,0-4.9-0.9-6.5-2.6c-1.6-1.7-2.3-3.9-2.3-6.6V19c0-2.8,0.8-5.1,2.3-6.8c1.5-1.8,3.6-2.7,6.2-2.6
			c2.5,0,4.4,0.8,5.7,2.3s2,3.6,2,6.2v2.6H11.3l-0.1,0.1c0.1,1.3,0.5,2.3,1.2,3.1s1.7,1.2,3.1,1.2c1.1,0,2.1-0.1,2.9-0.3
			s1.6-0.6,2.4-1l1.4,3.1c-0.7,0.6-1.8,1.1-3,1.5C17.9,28.7,16.5,28.9,15,28.9z M14.7,13.4c-1,0-1.8,0.3-2.3,1s-0.9,1.6-1,2.8v0.1
			h6.1v-0.4c0-1.1-0.2-1.9-0.7-2.6C16.4,13.8,15.7,13.4,14.7,13.4z"/>
		<path class="st1" d="M29.9,9.9l0.2,2.7c0.6-1,1.4-1.7,2.3-2.2c0.9-0.5,1.9-0.8,3-0.8c1.9,0,3.3,0.6,4.4,1.8
			c1.1,1.2,1.6,3.1,1.6,5.7v11.4h-5V17.1c0-1.3-0.2-2.3-0.7-2.8c-0.5-0.6-1.2-0.8-2.1-0.8c-0.7,0-1.4,0.1-2,0.4s-1,0.7-1.4,1.2v13.4
			h-5V9.9H29.9z"/>
		<path class="st1" d="M51.2,5.4V10h3.1v3.5h-3.1V23c0,0.7,0.2,1.2,0.5,1.5s0.7,0.5,1.2,0.5c0.3,0,0.5,0,0.7,0s0.4-0.1,0.7-0.1
			l0.4,3.6c-0.5,0.2-1,0.3-1.5,0.4c-0.5,0.1-1,0.1-1.6,0.1c-1.7,0-3.1-0.5-4-1.4c-0.9-1-1.4-2.5-1.4-4.5v-9.5h-2.7v-3.5h2.7V5.5
			L51.2,5.4L51.2,5.4z"/>
		<path class="st1" d="M67.2,14.2l-1.8-0.1c-0.7,0-1.4,0.2-1.8,0.5c-0.5,0.3-0.8,0.7-1.1,1.3v12.6h-5V9.9h4.7l0.2,2.7
			c0.4-1,1-1.7,1.7-2.3c0.7-0.5,1.5-0.8,2.4-0.8c0.3,0,0.5,0,0.7,0.1s0.4,0.1,0.6,0.1L67.2,14.2z"/>
		<path class="st1" d="M77.5,28.9c-2.8,0-4.9-0.9-6.5-2.6c-1.6-1.7-2.3-3.9-2.3-6.6V19c0-2.8,0.8-5.1,2.3-6.8
			c1.5-1.8,3.6-2.7,6.2-2.6c2.5,0,4.4,0.8,5.7,2.3s2,3.6,2,6.2v2.6h-11l-0.1,0.1c0.1,1.3,0.5,2.3,1.2,3.1s1.7,1.2,3.1,1.2
			c1.1,0,2.1-0.1,2.9-0.3s1.6-0.6,2.4-1l1.4,3.1c-0.7,0.6-1.8,1.1-3,1.5C80.4,28.7,79,28.9,77.5,28.9z M77.2,13.4
			c-1,0-1.8,0.3-2.3,1s-0.9,1.6-1,2.8v0.1H80v-0.4c0-1.1-0.2-1.9-0.7-2.6C78.9,13.8,78.2,13.4,77.2,13.4z"/>
	</g>
</g>
<g class="st2">
	<path class="st1" d="M756.7,99.5h-62.8V87.2l29-32.8c4.3-5.1,7.4-9.4,9.2-12.9c1.8-3.6,2.7-6.7,2.7-9.8c0-3.8-1-6.9-2.9-9.2
		c-2-2.3-4.8-3.5-8.7-3.5c-4,0-7.2,1.5-9.4,4.5c-2.3,2.9-3.4,6.7-3.4,11.2h-18.1l-0.1-0.3c-0.2-8.3,2.5-15.3,8.3-21.1
		c5.6-5.8,13.4-8.7,22.9-8.7s17,2.5,22.4,7.4c5.4,4.9,7.9,11.5,7.9,19.8c0,5.6-1.5,10.7-4.5,15.3c-2.9,4.7-8.1,11.1-15.4,19.2
		l-15.4,18.5l0.1,0.3h38.2V99.5z"/>
	<path class="st1" d="M789.9,99.5h-18.8V83h18.8C789.9,83,789.9,99.5,789.9,99.5z"/>
	<path class="st1" d="M843.1,4.6c3.7,0,7.1,0.3,10.1,1c3.1,0.7,6.2,1.6,9.2,2.9L859,22.3c-2.9-1-5.5-1.7-7.8-2.2s-5-0.8-8-0.8
		c-5.4,0-9.9,2.1-13.2,6.3c-3.4,4.2-5,10-5,17.5v3c2.5-2.4,5.4-4.3,8.9-5.6s7.3-2.1,11.5-2.1c8,0,14.2,2.8,18.8,8.5
		c4.5,5.6,6.7,13,6.7,22.2c0,9.3-2.9,17-8.7,22.8c-5.9,5.9-13.5,8.8-22.8,8.8c-9.8,0-17.7-3.4-23.9-10c-6.2-6.6-9.2-15.9-9.2-27.4
		V43.8c0-11.8,3.5-21.4,10.4-28.4C823.7,8.2,832.5,4.6,843.1,4.6z M839.1,52.7c-3.4,0-6.3,0.5-8.7,1.6c-2.4,1.1-4.2,2.6-5.5,4.6v5
		c0,7.2,1.3,12.7,3.9,16.7c2.6,3.9,6.1,5.9,10.4,5.9c3.9,0,6.9-1.6,9.3-4.9c2.3-3.3,3.5-7.4,3.5-12.4c0-5.1-1.2-9.1-3.5-12.1
		C846.3,54.1,843.1,52.7,839.1,52.7z"/>
	<path class="st1" d="M945,65.7c0,11-2.9,19.5-8.7,25.8s-13.4,9.3-22.9,9.3s-17.3-3.1-23-9.3c-5.8-6.3-8.7-14.9-8.7-25.8V39.9
		c0-11,2.9-19.5,8.7-25.8c5.8-6.3,13.4-9.4,22.9-9.4s17.2,3.1,22.9,9.4s8.7,14.9,8.7,25.8L945,65.7L945,65.7L945,65.7z M926.3,38
		c0-6-1.2-10.6-3.5-13.9c-2.3-3.3-5.4-5-9.6-5c-4.1,0-7.3,1.6-9.6,5c-2.3,3.3-3.4,7.9-3.4,13.9v29.4c0,6.1,1.1,10.9,3.4,14.1
		c2.3,3.3,5.4,4.9,9.7,4.9c4,0,7.3-1.6,9.4-4.9c2.3-3.3,3.4-7.9,3.4-14.1V38H926.3z"/>
	<path class="st1" d="M1020.4,65.7c0,11-2.9,19.5-8.7,25.8c-5.8,6.3-13.4,9.3-22.9,9.3c-9.6,0-17.3-3.1-23-9.3
		c-5.8-6.3-8.7-14.9-8.7-25.8V39.9c0-11,2.9-19.5,8.7-25.8s13.4-9.4,22.9-9.4c9.6,0,17.2,3.1,22.9,9.4c5.8,6.3,8.7,14.9,8.7,25.8
		v25.7L1020.4,65.7L1020.4,65.7z M1001.7,38c0-6-1.2-10.6-3.5-13.9c-2.3-3.3-5.4-5-9.6-5c-4.1,0-7.3,1.6-9.6,5
		c-2.3,3.3-3.4,7.9-3.4,13.9v29.4c0,6.1,1.1,10.9,3.4,14.1c2.3,3.3,5.4,4.9,9.7,4.9c4,0,7.3-1.6,9.4-4.9c2.3-3.3,3.4-7.9,3.4-14.1
		V38H1001.7z"/>
</g>
<g>
	<path class="st1" d="M710.4,132.5c0,3.3-0.8,5.9-2.3,7.9s-3.7,3-6.4,3c-1.2,0-2.2-0.2-3.1-0.6c-0.9-0.4-1.7-1.1-2.3-1.9v10.7h-6
		v-30.8h5.4l0.4,2.6c0.7-1,1.5-1.7,2.4-2.3c0.9-0.5,2-0.8,3.2-0.8c2.8,0,4.9,1.1,6.4,3.2c1.5,2.2,2.3,5,2.3,8.5V132.5z M704.4,132
		c0-2.1-0.4-3.8-1.1-5.1s-1.8-2-3.2-2c-0.9,0-1.7,0.2-2.3,0.6c-0.6,0.4-1.1,0.9-1.5,1.6v9.8c0.4,0.6,0.9,1.1,1.5,1.4
		c0.6,0.3,1.4,0.5,2.4,0.5c1.5,0,2.5-0.6,3.2-1.7c0.7-1.1,1-2.7,1-4.6V132z"/>
	<path class="st1" d="M727.8,139.7c-0.7,1.2-1.6,2.1-2.6,2.8c-1.1,0.6-2.3,1-3.7,1c-2.3,0-4.2-0.8-5.5-2.4c-1.3-1.6-2-4.1-2-7.4
		v-12.9h6v13c0,2,0.3,3.3,0.8,4s1.3,1.1,2.5,1.1c1,0,1.8-0.2,2.5-0.5s1.2-0.8,1.7-1.4v-16.2h6V143h-5L727.8,139.7z"/>
	<path class="st1" d="M747.6,143.4c-3.3,0-5.9-1-7.8-3.1c-1.9-2-2.8-4.7-2.8-7.9v-0.8c0-3.3,0.9-6.1,2.7-8.2
		c1.8-2.1,4.3-3.2,7.5-3.2c3,0,5.3,0.9,6.9,2.7c1.6,1.8,2.4,4.3,2.4,7.4v3.1h-13.3l-0.1,0.1c0.1,1.5,0.6,2.8,1.4,3.7
		s2.1,1.4,3.7,1.4c1.3,0,2.5-0.1,3.4-0.4c0.9-0.3,1.9-0.7,2.9-1.3l1.6,3.7c-0.9,0.7-2.1,1.3-3.6,1.8S749.4,143.4,747.6,143.4z
		 M747.2,124.9c-1.2,0-2.1,0.4-2.8,1.2c-0.7,0.8-1,1.9-1.2,3.3v0.1h7.3V129c0-1.3-0.3-2.3-0.8-3.1
		C749.2,125.3,748.4,124.9,747.2,124.9z"/>
	<path class="st1" d="M772,136.8c0-0.7-0.3-1.2-1-1.7c-0.6-0.5-1.8-0.9-3.6-1.2c-2.6-0.5-4.6-1.3-5.9-2.4c-1.4-1.1-2-2.5-2-4.3
		c0-1.9,0.8-3.5,2.4-4.9c1.6-1.3,3.8-2,6.5-2c2.8,0,5.1,0.7,6.8,2s2.5,3,2.4,5v0.1h-5.8c0-0.9-0.3-1.6-0.9-2.2
		c-0.6-0.6-1.4-0.8-2.5-0.8c-1,0-1.7,0.2-2.3,0.7c-0.6,0.5-0.8,1.1-0.8,1.8s0.3,1.2,0.9,1.7c0.6,0.4,1.8,0.8,3.6,1.2
		c2.7,0.5,4.8,1.4,6.1,2.4c1.3,1.1,2,2.5,2,4.4c0,2-0.9,3.6-2.6,4.9c-1.7,1.3-4,1.9-6.8,1.9c-3,0-5.3-0.8-7-2.3s-2.5-3.2-2.5-5.1
		v-0.1h5.5c0,1.2,0.4,2.1,1.2,2.6s1.7,0.8,2.9,0.8c1.1,0,2-0.2,2.5-0.7S772,137.6,772,136.8z"/>
	<path class="st1" d="M788.9,115.3v5.5h3.8v4.2h-3.8v11.3c0,0.9,0.2,1.5,0.5,1.9c0.4,0.4,0.8,0.6,1.4,0.6c0.3,0,0.6,0,0.8-0.1
		c0.2-0.1,0.5-0.1,0.8-0.2l0.5,4.3c-0.6,0.2-1.2,0.4-1.8,0.5c-0.6,0.1-1.2,0.2-1.9,0.2c-2.1,0-3.7-0.6-4.8-1.7
		c-1.1-1.1-1.7-2.9-1.7-5.4V125h-3.3v-4.2h3.3v-5.5L788.9,115.3L788.9,115.3z"/>
	<path class="st1" d="M795.5,131.7c0-3.3,0.9-6,2.8-8.2c1.9-2.1,4.4-3.2,7.7-3.2s5.9,1.1,7.7,3.2c1.9,2.1,2.8,4.8,2.8,8.2v0.4
		c0,3.3-0.9,6.1-2.8,8.2c-1.9,2.1-4.4,3.2-7.7,3.2s-5.9-1.1-7.7-3.2s-2.8-4.8-2.8-8.2V131.7z M801.5,132.1c0,2,0.4,3.7,1.1,4.9
		c0.7,1.2,1.9,1.8,3.5,1.8c1.6,0,2.7-0.6,3.4-1.9c0.7-1.2,1.1-2.9,1.1-4.9v-0.4c0-2-0.4-3.6-1.1-4.8s-1.9-1.9-3.4-1.9
		c-1.6,0-2.7,0.6-3.4,1.9s-1.1,2.9-1.1,4.8L801.5,132.1L801.5,132.1z"/>
	<path class="st1" d="M832.3,136.8c0-0.7-0.3-1.2-1-1.7c-0.6-0.5-1.8-0.9-3.6-1.2c-2.6-0.5-4.6-1.3-5.9-2.4c-1.4-1.1-2-2.5-2-4.3
		c0-1.9,0.8-3.5,2.4-4.9c1.6-1.3,3.8-2,6.5-2c2.8,0,5.1,0.7,6.8,2s2.5,3,2.4,5v0.1H832c0-0.9-0.3-1.6-0.9-2.2
		c-0.6-0.6-1.4-0.8-2.5-0.8c-1,0-1.7,0.2-2.3,0.7c-0.6,0.5-0.8,1.1-0.8,1.8s0.3,1.2,0.9,1.7c0.6,0.4,1.8,0.8,3.6,1.2
		c2.7,0.5,4.8,1.4,6.1,2.4c1.3,1.1,2,2.5,2,4.4c0,2-0.9,3.6-2.6,4.9c-1.7,1.3-4,1.9-6.8,1.9c-3,0-5.3-0.8-7-2.3s-2.5-3.2-2.5-5.1
		v-0.1h5.5c0,1.2,0.4,2.1,1.2,2.6c0.8,0.5,1.7,0.8,2.9,0.8c1.1,0,2-0.2,2.5-0.7S832.3,137.6,832.3,136.8z"/>
	<path class="st1" d="M851.5,132c0-3.5,0.8-6.3,2.3-8.5s3.7-3.2,6.4-3.2c1.1,0,2.1,0.2,3,0.7c0.9,0.5,1.7,1.2,2.3,2.1v-12.2h6V143
		h-5.1l-0.5-2.7c-0.7,1-1.5,1.8-2.5,2.4s-2.1,0.8-3.3,0.8c-2.7,0-4.9-1-6.4-3s-2.3-4.7-2.3-7.9L851.5,132L851.5,132z M857.5,132.5
		c0,2,0.3,3.5,1,4.6s1.7,1.7,3.2,1.7c0.9,0,1.6-0.2,2.3-0.5c0.6-0.3,1.2-0.9,1.6-1.5v-9.5c-0.4-0.7-0.9-1.2-1.6-1.6
		c-0.6-0.4-1.4-0.6-2.2-0.6c-1.5,0-2.5,0.7-3.2,2c-0.7,1.3-1,3-1,5.1L857.5,132.5L857.5,132.5z"/>
	<path class="st1" d="M885.9,143.4c-3.3,0-5.9-1-7.8-3.1c-1.9-2-2.8-4.7-2.8-7.9v-0.8c0-3.3,0.9-6.1,2.7-8.2
		c1.8-2.1,4.3-3.2,7.5-3.2c3,0,5.3,0.9,6.9,2.7c1.6,1.8,2.4,4.3,2.4,7.4v3.1h-13.3l-0.1,0.1c0.1,1.5,0.6,2.8,1.4,3.7
		c0.8,0.9,2.1,1.4,3.7,1.4c1.3,0,2.5-0.1,3.4-0.4c0.9-0.3,1.9-0.7,2.9-1.3l1.6,3.7c-0.9,0.7-2.1,1.3-3.6,1.8
		S887.7,143.4,885.9,143.4z M885.5,124.9c-1.2,0-2.1,0.4-2.8,1.2s-1,1.9-1.2,3.3v0.1h7.3V129c0-1.3-0.3-2.3-0.8-3.1
		C887.6,125.3,886.7,124.9,885.5,124.9z"/>
	<path class="st1" d="M916,115.3v5.5h3.8v4.2H916v11.3c0,0.9,0.2,1.5,0.5,1.9c0.4,0.4,0.8,0.6,1.4,0.6c0.3,0,0.6,0,0.8-0.1
		s0.5-0.1,0.8-0.2l0.5,4.3c-0.6,0.2-1.2,0.4-1.8,0.5c-0.6,0.1-1.2,0.2-1.9,0.2c-2.1,0-3.7-0.6-4.8-1.7c-1.1-1.1-1.7-2.9-1.7-5.4V125
		h-3.3v-4.2h3.3v-5.5L916,115.3L916,115.3z"/>
	<path class="st1" d="M935.2,125.9l-2.2-0.1c-0.9,0-1.6,0.2-2.2,0.6c-0.6,0.4-1,0.9-1.3,1.6v15h-6v-22.3h5.6l0.3,3.3
		c0.5-1.2,1.2-2.1,2-2.7c0.8-0.7,1.8-1,2.9-1c0.3,0,0.6,0,0.8,0.1c0.3,0,0.5,0.1,0.8,0.2L935.2,125.9z"/>
	<path class="st1" d="M951.5,143c-0.2-0.5-0.4-1-0.6-1.6c-0.2-0.6-0.3-1.1-0.3-1.7c-0.6,1.1-1.4,2-2.5,2.7c-1.1,0.7-2.2,1.1-3.6,1.1
		c-2.3,0-4.1-0.6-5.4-1.8c-1.3-1.2-1.9-2.8-1.9-4.9c0-2.2,0.8-3.9,2.5-5.1c1.7-1.2,4.1-1.8,7.4-1.8h3.4v-1.8c0-1.1-0.3-1.9-0.8-2.5
		c-0.6-0.6-1.4-0.9-2.5-0.9c-1,0-1.7,0.2-2.3,0.7c-0.5,0.5-0.8,1.1-0.8,1.9h-5.8v-0.1c-0.1-1.9,0.7-3.5,2.5-4.9c1.7-1.4,4-2,6.8-2
		c2.7,0,4.8,0.7,6.5,2s2.5,3.3,2.5,5.8v9.2c0,1,0.1,2,0.2,2.9c0.2,0.9,0.4,1.8,0.8,2.7h-6.1V143z M946,139c1,0,2-0.3,2.8-0.8
		s1.4-1.1,1.7-1.8v-3.2h-3.4c-1.3,0-2.2,0.3-2.9,0.9c-0.7,0.6-1,1.4-1,2.3c0,0.8,0.2,1.4,0.7,1.8S945.1,139,946,139z"/>
	<path class="st1" d="M981.1,132.5c0,3.3-0.7,6-2.2,8s-3.6,3-6.4,3c-1.3,0-2.4-0.3-3.4-0.8s-1.8-1.4-2.5-2.4l-0.5,2.8H961V111h6
		v12.2c0.6-0.9,1.4-1.6,2.3-2.1s1.9-0.7,3.1-0.7c2.8,0,5,1.1,6.5,3.2c1.5,2.1,2.2,5,2.2,8.5V132.5z M975.1,132c0-2.2-0.3-3.9-1-5.2
		c-0.6-1.3-1.7-1.9-3.3-1.9c-0.9,0-1.7,0.2-2.4,0.6c-0.6,0.4-1.2,1-1.5,1.7v9.4c0.4,0.7,0.9,1.2,1.5,1.5c0.7,0.4,1.5,0.5,2.4,0.5
		c1.6,0,2.6-0.5,3.3-1.6c0.6-1.1,0.9-2.6,0.9-4.6L975.1,132L975.1,132z"/>
	<path class="st1" d="M997.9,143c-0.2-0.5-0.4-1-0.6-1.6s-0.3-1.1-0.3-1.7c-0.6,1.1-1.4,2-2.5,2.7s-2.2,1.1-3.6,1.1
		c-2.3,0-4.1-0.6-5.4-1.8s-1.9-2.8-1.9-4.9c0-2.2,0.8-3.9,2.5-5.1c1.7-1.2,4.1-1.8,7.4-1.8h3.4v-1.8c0-1.1-0.3-1.9-0.8-2.5
		c-0.6-0.6-1.4-0.9-2.5-0.9c-1,0-1.7,0.2-2.3,0.7s-0.8,1.1-0.8,1.9h-5.8v-0.1c-0.1-1.9,0.7-3.5,2.5-4.9c1.7-1.4,4-2,6.8-2
		c2.7,0,4.8,0.7,6.5,2c1.7,1.3,2.5,3.3,2.5,5.8v9.2c0,1,0.1,2,0.2,2.9c0.2,0.9,0.4,1.8,0.8,2.7h-6.1V143z M992.4,139
		c1,0,2-0.3,2.8-0.8c0.8-0.5,1.4-1.1,1.7-1.8v-3.2h-3.4c-1.3,0-2.2,0.3-2.9,0.9c-0.7,0.6-1,1.4-1,2.3c0,0.8,0.2,1.4,0.7,1.8
		S991.6,139,992.4,139z"/>
	<path class="st1" d="M1013.9,120.7v23.1c0,2.6-0.7,4.6-2.1,6s-3.3,2.1-5.8,2.1c-0.5,0-1.1,0-1.5-0.1c-0.5-0.1-0.9-0.1-1.4-0.3
		l0.3-4.6c0.3,0.1,0.6,0.1,0.9,0.2c0.3,0,0.7,0.1,1,0.1c0.8,0,1.4-0.3,1.9-0.9s0.7-1.4,0.7-2.6v-23.1h6V120.7z M1013.8,115.3h-6
		v-4.5h6V115.3z"/>
	<path class="st1" d="M1017.7,131.7c0-3.3,0.9-6,2.8-8.2c1.9-2.1,4.4-3.2,7.7-3.2c3.3,0,5.9,1.1,7.7,3.2c1.9,2.1,2.8,4.8,2.8,8.2
		v0.4c0,3.3-0.9,6.1-2.8,8.2c-1.9,2.1-4.4,3.2-7.7,3.2c-3.3,0-5.9-1.1-7.7-3.2s-2.8-4.8-2.8-8.2V131.7z M1023.7,132.1
		c0,2,0.4,3.7,1.1,4.9c0.7,1.2,1.9,1.8,3.5,1.8c1.6,0,2.7-0.6,3.4-1.9c0.7-1.2,1.1-2.9,1.1-4.9v-0.4c0-2-0.4-3.6-1.1-4.8
		c-0.7-1.2-1.9-1.9-3.4-1.9c-1.6,0-2.7,0.6-3.4,1.9s-1.1,2.9-1.1,4.8v0.5H1023.7z"/>
	<path class="st1" d="M1062.6,143.4c-3.3,0-5.9-1-7.8-3.1c-1.9-2-2.8-4.7-2.8-7.9v-0.8c0-3.3,0.9-6.1,2.7-8.2
		c1.8-2.1,4.3-3.2,7.5-3.2c3,0,5.3,0.9,6.9,2.7c1.6,1.8,2.4,4.3,2.4,7.4v3.1h-13.3l-0.1,0.1c0.1,1.5,0.6,2.8,1.4,3.7
		c0.8,0.9,2.1,1.4,3.7,1.4c1.3,0,2.5-0.1,3.4-0.4c0.9-0.3,1.9-0.7,2.9-1.3l1.6,3.7c-0.9,0.7-2.1,1.3-3.6,1.8
		C1066.1,143.2,1064.4,143.4,1062.6,143.4z M1062.2,124.9c-1.2,0-2.1,0.4-2.8,1.2c-0.7,0.8-1,1.9-1.2,3.3v0.1h7.3V129
		c0-1.3-0.3-2.3-0.8-3.1S1063.4,124.9,1062.2,124.9z"/>
	<path class="st1" d="M1087.1,136.8c0-0.7-0.3-1.2-1-1.7c-0.6-0.5-1.8-0.9-3.6-1.2c-2.6-0.5-4.6-1.3-5.9-2.4c-1.4-1.1-2-2.5-2-4.3
		c0-1.9,0.8-3.5,2.4-4.9c1.6-1.3,3.8-2,6.5-2c2.8,0,5.1,0.7,6.8,2c1.7,1.3,2.5,3,2.4,5v0.1h-5.8c0-0.9-0.3-1.6-0.9-2.2
		c-0.6-0.6-1.4-0.8-2.5-0.8c-1,0-1.7,0.2-2.3,0.7c-0.6,0.5-0.8,1.1-0.8,1.8s0.3,1.2,0.9,1.7c0.6,0.4,1.8,0.8,3.6,1.2
		c2.7,0.5,4.8,1.4,6.1,2.4c1.3,1.1,2,2.5,2,4.4c0,2-0.9,3.6-2.6,4.9c-1.7,1.3-4,1.9-6.8,1.9c-3,0-5.3-0.8-7-2.3
		c-1.7-1.5-2.5-3.2-2.5-5.1v-0.1h5.5c0,1.2,0.4,2.1,1.2,2.6s1.7,0.8,2.9,0.8c1.1,0,2-0.2,2.5-0.7
		C1086.8,138.2,1087.1,137.6,1087.1,136.8z"/>
	<path class="st1" d="M1104,115.3v5.5h3.8v4.2h-3.8v11.3c0,0.9,0.2,1.5,0.5,1.9c0.4,0.4,0.8,0.6,1.4,0.6c0.3,0,0.6,0,0.8-0.1
		s0.5-0.1,0.8-0.2l0.5,4.3c-0.6,0.2-1.2,0.4-1.8,0.5s-1.2,0.2-1.9,0.2c-2.1,0-3.7-0.6-4.8-1.7c-1.1-1.1-1.7-2.9-1.7-5.4V125h-3.3
		v-4.2h3.3v-5.5L1104,115.3L1104,115.3z"/>
	<path class="st1" d="M1117.8,115.4h-6v-4.5h6V115.4z M1117.8,143h-6v-22.3h6V143z"/>
	<path class="st1" d="M1128.3,120.7l0.2,2.9c0.7-1.1,1.6-1.9,2.7-2.5c1.1-0.6,2.3-0.9,3.7-0.9s2.6,0.3,3.7,0.9
		c1.1,0.6,1.8,1.6,2.3,2.9c0.7-1.2,1.6-2.1,2.7-2.8c1.1-0.7,2.4-1,3.9-1c2.2,0,3.9,0.8,5.2,2.3c1.3,1.6,1.9,3.9,1.9,7.1V143h-6
		v-13.2c0-1.8-0.3-3-0.8-3.7s-1.4-1-2.5-1c-0.9,0-1.6,0.2-2.2,0.6c-0.6,0.4-1.1,0.9-1.5,1.6c0,0.3,0,0.5,0,0.7s0,0.4,0,0.6V143h-6
		v-13.2c0-1.7-0.3-3-0.8-3.7s-1.4-1.1-2.5-1.1c-0.8,0-1.5,0.2-2.1,0.5s-1.1,0.7-1.5,1.3V143h-6v-22.3H1128.3z"/>
	<path class="st1" d="M1172.3,143c-0.2-0.5-0.4-1-0.6-1.6c-0.2-0.6-0.3-1.1-0.3-1.7c-0.6,1.1-1.4,2-2.5,2.7s-2.2,1.1-3.6,1.1
		c-2.3,0-4.1-0.6-5.4-1.8c-1.3-1.2-1.9-2.8-1.9-4.9c0-2.2,0.8-3.9,2.5-5.1c1.7-1.2,4.1-1.8,7.4-1.8h3.4v-1.8c0-1.1-0.3-1.9-0.8-2.5
		c-0.6-0.6-1.4-0.9-2.5-0.9c-1,0-1.7,0.2-2.3,0.7c-0.6,0.5-0.8,1.1-0.8,1.9h-5.8v-0.1c-0.1-1.9,0.7-3.5,2.5-4.9c1.7-1.4,4-2,6.8-2
		c2.7,0,4.8,0.7,6.5,2s2.5,3.3,2.5,5.8v9.2c0,1,0.1,2,0.2,2.9c0.2,0.9,0.4,1.8,0.8,2.7h-6.1V143z M1166.8,139c1,0,2-0.3,2.8-0.8
		s1.4-1.1,1.7-1.8v-3.2h-3.4c-1.3,0-2.2,0.3-2.9,0.9c-0.7,0.6-1,1.4-1,2.3c0,0.8,0.2,1.4,0.7,1.8S1166,139,1166.8,139z"/>
	<path class="st1" d="M1180.9,132c0-3.5,0.8-6.3,2.3-8.5s3.7-3.2,6.4-3.2c1.1,0,2.1,0.2,3,0.7s1.7,1.2,2.3,2.1v-12.2h6V143h-5.1
		l-0.5-2.7c-0.7,1-1.5,1.8-2.5,2.4s-2.1,0.8-3.3,0.8c-2.7,0-4.9-1-6.4-3s-2.3-4.7-2.3-7.9L1180.9,132L1180.9,132z M1186.9,132.5
		c0,2,0.3,3.5,1,4.6c0.7,1.1,1.7,1.7,3.2,1.7c0.9,0,1.6-0.2,2.3-0.5c0.6-0.3,1.2-0.9,1.6-1.5v-9.5c-0.4-0.7-0.9-1.2-1.6-1.6
		c-0.6-0.4-1.4-0.6-2.2-0.6c-1.5,0-2.5,0.7-3.2,2c-0.7,1.3-1,3-1,5.1L1186.9,132.5L1186.9,132.5z"/>
	<path class="st1" d="M1204.7,131.7c0-3.3,0.9-6,2.8-8.2c1.9-2.1,4.4-3.2,7.7-3.2c3.3,0,5.9,1.1,7.7,3.2c1.9,2.1,2.8,4.8,2.8,8.2
		v0.4c0,3.3-0.9,6.1-2.8,8.2c-1.9,2.1-4.4,3.2-7.7,3.2c-3.3,0-5.9-1.1-7.7-3.2s-2.8-4.8-2.8-8.2V131.7z M1210.7,132.1
		c0,2,0.4,3.7,1.1,4.9s1.9,1.8,3.5,1.8c1.6,0,2.7-0.6,3.4-1.9c0.7-1.2,1.1-2.9,1.1-4.9v-0.4c0-2-0.4-3.6-1.1-4.8s-1.9-1.9-3.4-1.9
		c-1.6,0-2.7,0.6-3.4,1.9c-0.7,1.3-1.1,2.9-1.1,4.8v0.5H1210.7z"/>
	<path class="st1" d="M1241.5,136.8c0-0.7-0.3-1.2-1-1.7c-0.6-0.5-1.8-0.9-3.6-1.2c-2.6-0.5-4.6-1.3-5.9-2.4c-1.4-1.1-2-2.5-2-4.3
		c0-1.9,0.8-3.5,2.4-4.9c1.6-1.3,3.8-2,6.5-2c2.8,0,5.1,0.7,6.8,2c1.7,1.3,2.5,3,2.4,5v0.1h-5.8c0-0.9-0.3-1.6-0.9-2.2
		c-0.6-0.6-1.4-0.8-2.5-0.8c-1,0-1.7,0.2-2.3,0.7c-0.6,0.5-0.8,1.1-0.8,1.8s0.3,1.2,0.9,1.7c0.6,0.4,1.8,0.8,3.6,1.2
		c2.7,0.5,4.8,1.4,6.1,2.4c1.3,1.1,2,2.5,2,4.4c0,2-0.9,3.6-2.6,4.9c-1.7,1.3-4,1.9-6.8,1.9c-3,0-5.3-0.8-7-2.3
		c-1.7-1.5-2.5-3.2-2.5-5.1v-0.1h5.5c0,1.2,0.4,2.1,1.2,2.6s1.7,0.8,2.9,0.8c1.1,0,2-0.2,2.5-0.7
		C1241.2,138.2,1241.5,137.6,1241.5,136.8z"/>
</g>
<g>
	<path class="st1" d="M685.9,176.5c0-3.4,0.7-6.1,2.2-8.2s3.5-3.1,6.1-3.1c1.5,0,2.8,0.3,3.9,0.9c1.1,0.6,2,1.5,2.8,2.7v-12.7h2.4
		V187h-2.1l-0.2-3.1c-0.7,1.1-1.7,2-2.8,2.6c-1.1,0.6-2.5,0.9-4,0.9c-2.6,0-4.6-1-6.1-2.9s-2.2-4.5-2.2-7.7V176.5z M688.3,176.9
		c0,2.6,0.5,4.7,1.6,6.2c1.1,1.5,2.6,2.3,4.8,2.3c1.6,0,2.8-0.3,3.9-1c1-0.7,1.8-1.6,2.4-2.9v-10.1c-0.5-1.2-1.3-2.3-2.3-3
		s-2.3-1.2-3.9-1.2c-2.1,0-3.7,0.9-4.8,2.6s-1.6,3.9-1.6,6.7V176.9z"/>
	<path class="st1" d="M724,183.5c-0.7,1.3-1.6,2.2-2.8,2.9s-2.6,1-4.2,1c-2.3,0-4.1-0.8-5.4-2.3c-1.3-1.5-1.9-3.9-1.9-7.1v-12.4h2.4
		v12.4c0,2.6,0.5,4.5,1.4,5.6c0.9,1.1,2.2,1.7,3.8,1.7c1.8,0,3.3-0.4,4.4-1.2c1.1-0.8,1.8-1.9,2.3-3.3v-15.2h2.4V187h-2.1L724,183.5
		z"/>
	<path class="st1" d="M742.7,167.7l-1.8-0.1c-1.5,0-2.8,0.4-3.7,1.3c-1,0.8-1.7,2-2.1,3.4V187h-2.4v-21.4h2.1l0.3,3.6v0.2
		c0.6-1.3,1.5-2.3,2.5-3.1c1.1-0.7,2.3-1.1,3.8-1.1c0.3,0,0.6,0,0.9,0.1s0.5,0.1,0.7,0.1L742.7,167.7z"/>
	<path class="st1" d="M760.5,187c-0.2-0.7-0.3-1.3-0.3-1.9c-0.1-0.5-0.1-1.1-0.1-1.6c-0.8,1.1-1.9,2-3.2,2.8
		c-1.3,0.7-2.8,1.1-4.5,1.1c-2.1,0-3.8-0.6-4.9-1.7c-1.2-1.1-1.8-2.6-1.8-4.4c0-2,0.9-3.6,2.6-4.7c1.7-1.2,4.1-1.8,7-1.8h4.8v-2.6
		c0-1.5-0.5-2.7-1.5-3.6c-1-0.9-2.4-1.3-4.2-1.3c-1.7,0-3.1,0.4-4.2,1.2c-1.1,0.8-1.7,1.8-1.7,3l-2.2,0l0-0.1
		c-0.1-1.6,0.7-3,2.2-4.3s3.5-1.9,6-1.9c2.4,0,4.3,0.6,5.8,1.8c1.5,1.2,2.2,2.9,2.2,5.2v10.5c0,0.8,0,1.5,0.1,2.2
		c0.1,0.7,0.2,1.4,0.4,2.1H760.5z M752.6,185.3c1.7,0,3.3-0.4,4.6-1.2c1.3-0.8,2.3-1.8,2.9-3.1v-4.5h-4.8c-2.2,0-3.9,0.5-5.2,1.4
		c-1.3,0.9-2,2.1-2,3.4c0,1.2,0.4,2.1,1.2,2.8S751.1,185.3,752.6,185.3z"/>
	<path class="st1" d="M771,165.6l0.2,3.7c0.7-1.3,1.6-2.3,2.8-3.1s2.6-1.1,4.2-1.1c2.4,0,4.2,0.7,5.4,2.1c1.2,1.4,1.8,3.6,1.8,6.6
		v13H783v-13c0-2.5-0.5-4.2-1.4-5.2c-0.9-1-2.3-1.5-4-1.5c-1.7,0-3.1,0.4-4.1,1.3c-1.1,0.9-1.8,2-2.3,3.5V187h-2.4v-21.4H771z"/>
	<path class="st1" d="M795.5,160.2v5.5h4.8v1.9h-4.8v13.9c0,1.4,0.3,2.4,0.8,3s1.2,0.9,2.1,0.9c0.4,0,0.8,0,1.1,0
		c0.4,0,0.8-0.1,1.3-0.2l0.4,1.8c-0.4,0.2-0.9,0.3-1.5,0.4c-0.6,0.1-1.2,0.1-1.7,0.1c-1.5,0-2.7-0.5-3.6-1.4
		c-0.9-0.9-1.3-2.4-1.3-4.5v-13.9h-3.8v-1.9h3.8v-5.5H795.5z"/>
	<path class="st1" d="M813.6,187.4c-2.7,0-5-1-6.8-3s-2.7-4.5-2.7-7.5v-1.1c0-3.1,0.9-5.6,2.7-7.6c1.8-2,4-3,6.5-3
		c2.7,0,4.8,0.8,6.3,2.5c1.5,1.7,2.3,3.9,2.3,6.6v2h-15.4v0.6c0,2.4,0.6,4.4,1.9,6c1.3,1.6,3,2.4,5.1,2.4c1.5,0,2.8-0.2,3.8-0.6
		c1.1-0.4,2-1,2.7-1.8l1,1.6c-0.8,0.8-1.9,1.5-3.1,2C816.8,187.2,815.3,187.4,813.6,187.4z M813.2,167.3c-1.8,0-3.3,0.7-4.5,2
		c-1.2,1.3-1.9,3-2.1,5l0,0.1h12.7v-0.6c0-1.9-0.6-3.4-1.7-4.6S815.2,167.3,813.2,167.3z"/>
	<path class="st1" d="M839.3,187h-2.4v-30.8h2.4V187z"/>
	<path class="st1" d="M859.7,187c-0.2-0.7-0.3-1.3-0.3-1.9c-0.1-0.5-0.1-1.1-0.1-1.6c-0.8,1.1-1.9,2-3.2,2.8
		c-1.3,0.7-2.8,1.1-4.5,1.1c-2.1,0-3.8-0.6-4.9-1.7c-1.2-1.1-1.8-2.6-1.8-4.4c0-2,0.9-3.6,2.6-4.7c1.7-1.2,4.1-1.8,7-1.8h4.8v-2.6
		c0-1.5-0.5-2.7-1.5-3.6c-1-0.9-2.4-1.3-4.2-1.3c-1.7,0-3.1,0.4-4.2,1.2c-1.1,0.8-1.7,1.8-1.7,3l-2.2,0l0-0.1
		c-0.1-1.6,0.7-3,2.2-4.3s3.5-1.9,6-1.9c2.4,0,4.3,0.6,5.8,1.8c1.5,1.2,2.2,2.9,2.2,5.2v10.5c0,0.8,0,1.5,0.1,2.2
		c0.1,0.7,0.2,1.4,0.4,2.1H859.7z M851.8,185.3c1.7,0,3.3-0.4,4.6-1.2c1.3-0.8,2.3-1.8,2.9-3.1v-4.5h-4.8c-2.2,0-3.9,0.5-5.2,1.4
		c-1.3,0.9-2,2.1-2,3.4c0,1.2,0.4,2.1,1.2,2.8S850.4,185.3,851.8,185.3z"/>
	<path class="st1" d="M876.7,176c0-3.1,0.9-5.7,2.6-7.7c1.8-2,4.1-3,7-3c2.9,0,5.2,1,7,3c1.8,2,2.6,4.6,2.6,7.7v0.7
		c0,3.2-0.9,5.7-2.6,7.8c-1.7,2-4.1,3-7,3c-2.9,0-5.3-1-7-3c-1.8-2-2.6-4.6-2.6-7.8V176z M879.1,176.6c0,2.5,0.6,4.5,1.9,6.2
		c1.3,1.7,3,2.5,5.3,2.5c2.2,0,4-0.8,5.3-2.5c1.3-1.7,1.9-3.8,1.9-6.2V176c0-2.4-0.6-4.5-1.9-6.2c-1.3-1.7-3.1-2.5-5.3-2.5
		c-2.2,0-4,0.8-5.3,2.5c-1.3,1.7-1.9,3.8-1.9,6.2V176.6z"/>
	<path class="st1" d="M918.5,176.9c0,3.2-0.7,5.7-2.2,7.7s-3.5,2.9-6.1,2.9c-1.5,0-2.9-0.3-4-0.8c-1.1-0.6-2.1-1.4-2.8-2.4v11.1H901
		v-29.6h2l0.3,3.3c0.7-1.2,1.7-2.1,2.8-2.7c1.1-0.6,2.5-1,4-1c2.6,0,4.7,1,6.1,3.1s2.2,4.8,2.2,8.2V176.9z M916.1,176.5
		c0-2.7-0.5-4.9-1.6-6.6c-1.1-1.7-2.7-2.6-4.8-2.6c-1.6,0-2.9,0.4-3.9,1.1c-1,0.8-1.8,1.7-2.3,3v10.3c0.5,1.2,1.3,2.1,2.4,2.8
		c1,0.7,2.3,1,3.9,1c2.1,0,3.7-0.8,4.8-2.3s1.6-3.6,1.6-6.2V176.5z"/>
	<path class="st1" d="M932.1,187.4c-2.7,0-5-1-6.8-3c-1.8-2-2.7-4.5-2.7-7.5v-1.1c0-3.1,0.9-5.6,2.7-7.6c1.8-2,4-3,6.5-3
		c2.7,0,4.8,0.8,6.3,2.5c1.5,1.7,2.3,3.9,2.3,6.6v2H925v0.6c0,2.4,0.6,4.4,1.9,6s3,2.4,5.1,2.4c1.5,0,2.8-0.2,3.8-0.6
		c1.1-0.4,2-1,2.7-1.8l1,1.6c-0.8,0.8-1.9,1.5-3.1,2C935.3,187.2,933.8,187.4,932.1,187.4z M931.8,167.3c-1.8,0-3.3,0.7-4.5,2
		s-1.9,3-2.1,5l0,0.1h12.7v-0.6c0-1.9-0.6-3.4-1.7-4.6C935.2,167.9,933.7,167.3,931.8,167.3z"/>
	<path class="st1" d="M955.1,167.7l-1.8-0.1c-1.5,0-2.8,0.4-3.7,1.3s-1.7,2-2.1,3.4V187h-2.4v-21.4h2.1l0.3,3.6v0.2
		c0.6-1.3,1.5-2.3,2.5-3.1s2.3-1.1,3.8-1.1c0.3,0,0.6,0,0.9,0.1s0.5,0.1,0.7,0.1L955.1,167.7z"/>
	<path class="st1" d="M972.9,187c-0.2-0.7-0.3-1.3-0.3-1.9s-0.1-1.1-0.1-1.6c-0.8,1.1-1.9,2-3.2,2.8c-1.3,0.7-2.8,1.1-4.5,1.1
		c-2.1,0-3.8-0.6-4.9-1.7s-1.8-2.6-1.8-4.4c0-2,0.9-3.6,2.6-4.7c1.7-1.2,4.1-1.8,7-1.8h4.8v-2.6c0-1.5-0.5-2.7-1.5-3.6
		c-1-0.9-2.4-1.3-4.2-1.3c-1.7,0-3.1,0.4-4.2,1.2s-1.7,1.8-1.7,3l-2.2,0l0-0.1c-0.1-1.6,0.7-3,2.2-4.3c1.6-1.3,3.5-1.9,6-1.9
		c2.4,0,4.3,0.6,5.8,1.8c1.5,1.2,2.2,2.9,2.2,5.2v10.5c0,0.8,0,1.5,0.1,2.2c0.1,0.7,0.2,1.4,0.4,2.1H972.9z M965,185.3
		c1.7,0,3.3-0.4,4.6-1.2c1.3-0.8,2.3-1.8,2.9-3.1v-4.5h-4.8c-2.2,0-3.9,0.5-5.2,1.4c-1.3,0.9-2,2.1-2,3.4c0,1.2,0.4,2.1,1.2,2.8
		S963.5,185.3,965,185.3z"/>
	<path class="st1" d="M989.3,185.4c1.6,0,3-0.4,4.2-1.3c1.2-0.9,1.8-2.1,1.8-3.7h2.1l0,0.1c0.1,2-0.7,3.6-2.4,5
		c-1.7,1.3-3.6,2-5.8,2c-3,0-5.2-1-6.9-3c-1.6-2-2.4-4.6-2.4-7.7v-0.8c0-3.1,0.8-5.7,2.4-7.7c1.6-2,3.9-3,6.8-3c2.4,0,4.4,0.7,6,2.1
		c1.6,1.4,2.4,3.2,2.3,5.4l0,0.1h-2.2c0-1.7-0.6-3.1-1.8-4.1c-1.2-1-2.6-1.5-4.3-1.5c-2.3,0-4.1,0.8-5.2,2.5
		c-1.1,1.6-1.7,3.7-1.7,6.2v0.8c0,2.5,0.6,4.6,1.7,6.2C985.2,184.6,986.9,185.4,989.3,185.4z"/>
	<path class="st1" d="M1005.2,159.5h-2.4v-3.3h2.4V159.5z M1005.2,187h-2.4v-21.4h2.4V187z"/>
	<path class="st1" d="M1010.5,176c0-3.1,0.9-5.7,2.6-7.7c1.8-2,4.1-3,7-3c2.9,0,5.2,1,7,3c1.8,2,2.6,4.6,2.6,7.7v0.7
		c0,3.2-0.9,5.7-2.6,7.8c-1.7,2-4.1,3-7,3c-2.9,0-5.3-1-7-3c-1.8-2-2.6-4.6-2.6-7.8V176z M1013,176.6c0,2.5,0.6,4.5,1.9,6.2
		c1.3,1.7,3,2.5,5.3,2.5c2.2,0,4-0.8,5.3-2.5c1.3-1.7,1.9-3.8,1.9-6.2V176c0-2.4-0.6-4.5-1.9-6.2c-1.3-1.7-3.1-2.5-5.3-2.5
		c-2.3,0-4,0.8-5.3,2.5c-1.3,1.7-1.9,3.8-1.9,6.2V176.6z M1023.1,157.4h3l0.1,0.1l-5,5.1h-2.2L1023.1,157.4z"/>
	<path class="st1" d="M1036.9,165.6l0.2,3.7c0.7-1.3,1.6-2.3,2.8-3.1s2.6-1.1,4.2-1.1c2.4,0,4.2,0.7,5.4,2.1
		c1.2,1.4,1.8,3.6,1.8,6.6v13h-2.4v-13c0-2.5-0.5-4.2-1.4-5.2c-0.9-1-2.3-1.5-4-1.5c-1.7,0-3.1,0.4-4.1,1.3c-1.1,0.9-1.8,2-2.3,3.5
		V187h-2.4v-21.4H1036.9z"/>
</g>
</svg>
