<?xml version="1.0" encoding="utf-8"?>
<!-- Generator: Adobe Illustrator 22.1.0, SVG Export Plug-In . SVG Version: 6.00 Build 0)  -->
<svg version="1.1" id="Capa_1" xmlns="http://www.w3.org/2000/svg" xmlns:xlink="http://www.w3.org/1999/xlink" x="0px" y="0px"
	 viewBox="0 0 1256 196" style="enable-background:new 0 0 1256 196;" xml:space="preserve">
<style type="text/css">
	.st0{fill:#54515C;}
</style>
<g>
	<path class="st0" d="M31.5,53.8H29L11.7,27.5l-0.1,0v26.3H9V23.2h2.5l17.4,26.3l0.1,0V23.2h2.5V53.8z"/>
	<path class="st0" d="M53.8,50.1c-0.7,1.3-1.7,2.4-2.9,3.1s-2.7,1.1-4.4,1.1c-2.4,0-4.3-0.8-5.6-2.4s-2-4.1-2-7.6V31.1h2.5v13.2
		c0,2.8,0.5,4.8,1.4,6c0.9,1.2,2.3,1.8,4,1.8c1.9,0,3.4-0.4,4.6-1.3c1.1-0.9,1.9-2,2.4-3.5V31.1h2.5v22.7H54L53.8,50.1z"/>
	<path class="st0" d="M71.3,54.2c-2.8,0-5.2-1.1-7.1-3.2s-2.8-4.8-2.8-8v-1.2c0-3.2,0.9-5.9,2.8-8.1s4.1-3.2,6.8-3.2
		c2.8,0,5,0.9,6.6,2.6c1.6,1.8,2.4,4.1,2.4,7.1v2.1h-16v0.6c0,2.6,0.7,4.7,2,6.4c1.4,1.7,3.1,2.6,5.4,2.6c1.6,0,2.9-0.2,4-0.7
		c1.1-0.4,2.1-1.1,2.8-1.9l1.1,1.7c-0.9,0.9-1.9,1.6-3.2,2.1S73.1,54.2,71.3,54.2z M71,32.8c-1.9,0-3.4,0.7-4.7,2.1
		c-1.3,1.4-2,3.2-2.2,5.3l0,0.1h13.3v-0.6c0-2-0.6-3.6-1.7-4.9C74.6,33.4,73,32.8,71,32.8z"/>
	<path class="st0" d="M91.2,48.1l0.7,2.7H92l0.8-2.7l6.2-17h2.6L93,53.8h-2l-8.7-22.7h2.6L91.2,48.1z"/>
	<path class="st0" d="M119.8,53.8c-0.2-0.8-0.3-1.4-0.4-2c-0.1-0.6-0.1-1.1-0.1-1.7c-0.8,1.2-2,2.2-3.4,3s-3,1.2-4.7,1.2
		c-2.2,0-3.9-0.6-5.2-1.8c-1.2-1.2-1.8-2.8-1.8-4.7c0-2.1,0.9-3.8,2.7-5c1.8-1.3,4.3-1.9,7.3-1.9h5V38c0-1.6-0.5-2.9-1.6-3.8
		s-2.5-1.4-4.4-1.4c-1.8,0-3.2,0.4-4.4,1.3c-1.2,0.9-1.7,2-1.7,3.2l-2.3,0l0-0.1c-0.1-1.7,0.7-3.2,2.3-4.5c1.6-1.3,3.7-2,6.2-2
		c2.5,0,4.5,0.6,6,1.9c1.5,1.3,2.3,3.1,2.3,5.5v11.2c0,0.8,0,1.6,0.1,2.3c0.1,0.8,0.2,1.5,0.5,2.2H119.8z M111.6,52
		c1.8,0,3.4-0.4,4.8-1.3c1.4-0.8,2.4-1.9,3-3.2v-4.7h-5.1c-2.3,0-4.1,0.5-5.5,1.5c-1.4,1-2,2.2-2,3.6c0,1.2,0.4,2.2,1.3,3
		C108.9,51.6,110.1,52,111.6,52z"/>
	<path class="st0" d="M150.6,23.2v20.7c0,3.3-1,5.9-3.1,7.6s-4.7,2.6-8,2.6c-3.2,0-5.9-0.9-7.9-2.7c-2-1.8-3-4.3-3-7.6V23.2h2.5
		v20.7c0,2.6,0.8,4.6,2.3,6s3.6,2.1,6,2.1c2.5,0,4.6-0.7,6.2-2.1c1.6-1.4,2.4-3.4,2.4-6V23.2H150.6z"/>
	<path class="st0" d="M159.6,31.1l0.2,4c0.7-1.4,1.7-2.5,3-3.2c1.2-0.8,2.7-1.1,4.4-1.1c2.5,0,4.3,0.8,5.6,2.3
		c1.3,1.5,1.9,3.9,1.9,7v13.8h-2.5V39.9c0-2.6-0.5-4.5-1.5-5.5c-1-1.1-2.4-1.6-4.1-1.6c-1.8,0-3.2,0.5-4.3,1.4s-1.9,2.2-2.4,3.7
		v15.9h-2.5V31.1H159.6z"/>
	<path class="st0" d="M184.2,24.5h-2.5V21h2.5V24.5z M184.2,53.8h-2.5V31.1h2.5V53.8z"/>
	<path class="st0" d="M189.7,42.1c0-3.3,0.9-6.1,2.8-8.2c1.8-2.1,4.3-3.2,7.3-3.2c3,0,5.5,1.1,7.3,3.2c1.8,2.1,2.8,4.9,2.8,8.2v0.7
		c0,3.4-0.9,6.1-2.7,8.2s-4.3,3.2-7.3,3.2c-3.1,0-5.5-1.1-7.3-3.2c-1.8-2.1-2.8-4.9-2.8-8.2V42.1z M192.3,42.8c0,2.6,0.7,4.8,2,6.6
		c1.3,1.8,3.2,2.7,5.6,2.7c2.3,0,4.2-0.9,5.5-2.7s2-4,2-6.6v-0.7c0-2.6-0.7-4.8-2-6.6c-1.3-1.8-3.2-2.7-5.5-2.7
		c-2.4,0-4.2,0.9-5.5,2.7c-1.3,1.8-2,4-2,6.6V42.8z M202.8,22.3h3.1l0.1,0.1l-5.2,5.5h-2.3L202.8,22.3z"/>
	<path class="st0" d="M217.3,31.1l0.2,4c0.7-1.4,1.7-2.5,3-3.2c1.2-0.8,2.7-1.1,4.4-1.1c2.5,0,4.3,0.8,5.6,2.3
		c1.3,1.5,1.9,3.9,1.9,7v13.8h-2.5V39.9c0-2.6-0.5-4.5-1.5-5.5c-1-1.1-2.4-1.6-4.1-1.6c-1.8,0-3.2,0.5-4.3,1.4s-1.9,2.2-2.4,3.7
		v15.9h-2.5V31.1H217.3z"/>
	<path class="st0" d="M257.9,52.1c1.7,0,3.1-0.5,4.4-1.4c1.3-0.9,1.9-2.3,1.9-4h2.2l0,0.1c0.1,2.1-0.8,3.9-2.5,5.3
		c-1.8,1.4-3.8,2.1-6.1,2.1c-3.1,0-5.5-1.1-7.2-3.2s-2.5-4.8-2.5-8.2V42c0-3.3,0.8-6,2.5-8.2c1.7-2.1,4.1-3.2,7.1-3.2
		c2.5,0,4.6,0.7,6.2,2.2c1.7,1.5,2.5,3.4,2.4,5.8l0,0.1h-2.2c0-1.8-0.6-3.3-1.8-4.4c-1.2-1.1-2.7-1.6-4.5-1.6
		c-2.4,0-4.2,0.9-5.4,2.6c-1.2,1.7-1.8,3.9-1.8,6.6v0.9c0,2.7,0.6,4.9,1.7,6.6C253.6,51.2,255.5,52.1,257.9,52.1z"/>
	<path class="st0" d="M270.4,42.1c0-3.3,0.9-6.1,2.8-8.2c1.8-2.1,4.3-3.2,7.3-3.2c3,0,5.5,1.1,7.3,3.2c1.8,2.1,2.8,4.9,2.8,8.2v0.7
		c0,3.4-0.9,6.1-2.7,8.2s-4.3,3.2-7.3,3.2c-3.1,0-5.5-1.1-7.3-3.2c-1.8-2.1-2.8-4.9-2.8-8.2V42.1z M272.9,42.8c0,2.6,0.7,4.8,2,6.6
		c1.3,1.8,3.2,2.7,5.6,2.7c2.3,0,4.2-0.9,5.5-2.7s2-4,2-6.6v-0.7c0-2.6-0.7-4.8-2-6.6c-1.3-1.8-3.2-2.7-5.5-2.7
		c-2.4,0-4.2,0.9-5.5,2.7c-1.3,1.8-2,4-2,6.6V42.8z"/>
	<path class="st0" d="M298,31.1l0.2,4c0.7-1.4,1.7-2.5,3-3.2c1.2-0.8,2.7-1.1,4.4-1.1c2.5,0,4.3,0.8,5.6,2.3c1.3,1.5,1.9,3.9,1.9,7
		v13.8h-2.5V39.9c0-2.6-0.5-4.5-1.5-5.5c-1-1.1-2.4-1.6-4.1-1.6c-1.8,0-3.2,0.5-4.3,1.4s-1.9,2.2-2.4,3.7v15.9h-2.5V31.1H298z"/>
	<path class="st0" d="M333.3,48c0-1.1-0.4-2-1.3-2.8s-2.5-1.4-4.7-1.9c-2.7-0.6-4.7-1.4-6-2.3s-1.9-2.3-1.9-4.1
		c0-1.7,0.7-3.2,2.2-4.4c1.5-1.2,3.4-1.8,5.8-1.8c2.6,0,4.6,0.6,6.1,1.9c1.5,1.3,2.2,2.9,2.1,4.8l0,0.1h-2.3c0-1.2-0.5-2.3-1.6-3.3
		c-1.1-0.9-2.5-1.4-4.3-1.4c-1.8,0-3.2,0.4-4.1,1.2c-0.9,0.8-1.4,1.7-1.4,2.8c0,1,0.4,1.9,1.2,2.6s2.4,1.3,4.7,1.8
		c2.7,0.6,4.7,1.4,6.1,2.5c1.3,1,2,2.5,2,4.3c0,1.9-0.8,3.4-2.3,4.6c-1.5,1.2-3.6,1.8-6.1,1.8c-2.8,0-4.9-0.7-6.5-2
		c-1.6-1.3-2.3-2.9-2.2-4.7l0-0.1h2.3c0.1,1.6,0.8,2.8,2,3.6c1.2,0.7,2.7,1.1,4.4,1.1c1.8,0,3.3-0.4,4.3-1.2S333.3,49.1,333.3,48z"
		/>
	<path class="st0" d="M344.4,24.5h-2.5V21h2.5V24.5z M344.4,53.8h-2.5V31.1h2.5V53.8z"/>
	<path class="st0" d="M350.4,42.6c0-3.6,0.8-6.5,2.3-8.7c1.5-2.2,3.7-3.3,6.4-3.3c1.6,0,3,0.3,4.1,1c1.2,0.7,2.1,1.6,2.9,2.9V21h2.5
		v32.8h-2.2l-0.2-3.3c-0.8,1.2-1.7,2.1-2.9,2.8c-1.2,0.6-2.6,1-4.2,1c-2.7,0-4.8-1-6.4-3c-1.5-2-2.3-4.7-2.3-8.1V42.6z M352.9,43.1
		c0,2.8,0.5,5,1.6,6.6c1.1,1.6,2.8,2.4,5,2.4c1.6,0,3-0.4,4.1-1.1c1.1-0.7,1.9-1.7,2.5-3V37.2c-0.6-1.3-1.4-2.4-2.4-3.2
		s-2.4-1.2-4.1-1.2c-2.2,0-3.9,0.9-5,2.7c-1.1,1.8-1.7,4.2-1.7,7.1V43.1z"/>
	<path class="st0" d="M383.8,54.2c-2.8,0-5.2-1.1-7.1-3.2s-2.8-4.8-2.8-8v-1.2c0-3.2,0.9-5.9,2.8-8.1s4.1-3.2,6.8-3.2
		c2.8,0,5,0.9,6.6,2.6c1.6,1.8,2.4,4.1,2.4,7.1v2.1h-16v0.6c0,2.6,0.7,4.7,2,6.4c1.4,1.7,3.1,2.6,5.4,2.6c1.6,0,2.9-0.2,4-0.7
		c1.1-0.4,2.1-1.1,2.8-1.9l1.1,1.7c-0.9,0.9-1.9,1.6-3.2,2.1S385.6,54.2,383.8,54.2z M383.5,32.8c-1.9,0-3.4,0.7-4.7,2.1
		c-1.3,1.4-2,3.2-2.2,5.3l0,0.1H390v-0.6c0-2-0.6-3.6-1.7-4.9C387.1,33.4,385.5,32.8,383.5,32.8z"/>
	<path class="st0" d="M407.9,33.2l-1.9-0.1c-1.6,0-2.9,0.4-3.9,1.3c-1,0.9-1.7,2.1-2.2,3.7v15.7h-2.5V31.1h2.2l0.3,3.8v0.3
		c0.7-1.4,1.5-2.5,2.6-3.3c1.1-0.8,2.4-1.2,3.9-1.2c0.3,0,0.6,0,0.9,0.1c0.3,0,0.5,0.1,0.7,0.2L407.9,33.2z"/>
	<path class="st0" d="M426.5,53.8c-0.2-0.8-0.3-1.4-0.4-2c-0.1-0.6-0.1-1.1-0.1-1.7c-0.8,1.2-2,2.2-3.4,3s-3,1.2-4.7,1.2
		c-2.2,0-3.9-0.6-5.2-1.8c-1.2-1.2-1.8-2.8-1.8-4.7c0-2.1,0.9-3.8,2.7-5c1.8-1.3,4.3-1.9,7.3-1.9h5V38c0-1.6-0.5-2.9-1.6-3.8
		s-2.5-1.4-4.4-1.4c-1.8,0-3.2,0.4-4.4,1.3c-1.2,0.9-1.7,2-1.7,3.2l-2.3,0l0-0.1c-0.1-1.7,0.7-3.2,2.3-4.5c1.6-1.3,3.7-2,6.2-2
		c2.5,0,4.5,0.6,6,1.9c1.5,1.3,2.3,3.1,2.3,5.5v11.2c0,0.8,0,1.6,0.1,2.3c0.1,0.8,0.2,1.5,0.5,2.2H426.5z M418.2,52
		c1.8,0,3.4-0.4,4.8-1.3c1.4-0.8,2.4-1.9,3-3.2v-4.7H421c-2.3,0-4.1,0.5-5.5,1.5c-1.4,1-2,2.2-2,3.6c0,1.2,0.4,2.2,1.3,3
		C415.6,51.6,416.7,52,418.2,52z"/>
	<path class="st0" d="M448.5,53.8H446V21h2.5V53.8z"/>
	<path class="st0" d="M469.9,53.8c-0.2-0.8-0.3-1.4-0.4-2c-0.1-0.6-0.1-1.1-0.1-1.7c-0.8,1.2-2,2.2-3.4,3s-3,1.2-4.7,1.2
		c-2.2,0-3.9-0.6-5.2-1.8c-1.2-1.2-1.8-2.8-1.8-4.7c0-2.1,0.9-3.8,2.7-5c1.8-1.3,4.3-1.9,7.3-1.9h5V38c0-1.6-0.5-2.9-1.6-3.8
		s-2.5-1.4-4.4-1.4c-1.8,0-3.2,0.4-4.4,1.3c-1.2,0.9-1.7,2-1.7,3.2l-2.3,0l0-0.1c-0.1-1.7,0.7-3.2,2.3-4.5c1.6-1.3,3.7-2,6.2-2
		c2.5,0,4.5,0.6,6,1.9c1.5,1.3,2.3,3.1,2.3,5.5v11.2c0,0.8,0,1.6,0.1,2.3c0.1,0.8,0.2,1.5,0.5,2.2H469.9z M461.6,52
		c1.8,0,3.4-0.4,4.8-1.3c1.4-0.8,2.4-1.9,3-3.2v-4.7h-5.1c-2.3,0-4.1,0.5-5.5,1.5c-1.4,1-2,2.2-2,3.6c0,1.2,0.4,2.2,1.3,3
		C458.9,51.6,460.1,52,461.6,52z"/>
	<path class="st0" d="M497.6,54.2c-2.8,0-5.2-1.1-7.1-3.2s-2.8-4.8-2.8-8v-1.2c0-3.2,0.9-5.9,2.8-8.1s4.1-3.2,6.8-3.2
		c2.8,0,5,0.9,6.6,2.6c1.6,1.8,2.4,4.1,2.4,7.1v2.1h-16v0.6c0,2.6,0.7,4.7,2,6.4c1.4,1.7,3.1,2.6,5.4,2.6c1.6,0,2.9-0.2,4-0.7
		c1.1-0.4,2.1-1.1,2.8-1.9l1.1,1.7c-0.9,0.9-1.9,1.6-3.2,2.1S499.4,54.2,497.6,54.2z M497.3,32.8c-1.9,0-3.4,0.7-4.7,2.1
		c-1.3,1.4-2,3.2-2.2,5.3l0,0.1h13.3v-0.6c0-2-0.6-3.6-1.7-4.9C500.8,33.4,499.3,32.8,497.3,32.8z"/>
	<path class="st0" d="M518.4,40.3l6.2-9.3h3l-7.7,11.2l8,11.6h-2.9l-6.5-9.7l-6.5,9.7h-3l8-11.6l-7.7-11.2h3L518.4,40.3z"/>
	<path class="st0" d="M550.6,43c0,3.4-0.8,6.1-2.3,8.1c-1.5,2-3.7,3-6.4,3c-1.6,0-3-0.3-4.2-0.9c-1.2-0.6-2.2-1.5-2.9-2.6v11.8h-2.5
		V31.1h2.1l0.3,3.5c0.8-1.3,1.7-2.2,2.9-2.9c1.2-0.7,2.6-1,4.2-1c2.7,0,4.9,1.1,6.4,3.3c1.5,2.2,2.3,5.1,2.3,8.7V43z M548,42.6
		c0-2.9-0.6-5.2-1.7-7.1c-1.1-1.8-2.8-2.7-5-2.7c-1.7,0-3.1,0.4-4.1,1.2c-1.1,0.8-1.9,1.9-2.4,3.1v10.9c0.6,1.2,1.4,2.2,2.5,2.9
		c1.1,0.7,2.4,1.1,4.1,1.1c2.2,0,3.9-0.8,5-2.5c1.1-1.7,1.7-3.8,1.7-6.6V42.6z"/>
	<path class="st0" d="M559,53.8h-2.5V21h2.5V53.8z"/>
	<path class="st0" d="M564.6,42.1c0-3.3,0.9-6.1,2.8-8.2c1.8-2.1,4.3-3.2,7.3-3.2c3,0,5.5,1.1,7.3,3.2c1.8,2.1,2.8,4.9,2.8,8.2v0.7
		c0,3.4-0.9,6.1-2.7,8.2s-4.3,3.2-7.3,3.2c-3.1,0-5.5-1.1-7.3-3.2c-1.8-2.1-2.8-4.9-2.8-8.2V42.1z M567.1,42.8c0,2.6,0.7,4.8,2,6.6
		c1.3,1.8,3.2,2.7,5.6,2.7c2.3,0,4.2-0.9,5.5-2.7s2-4,2-6.6v-0.7c0-2.6-0.7-4.8-2-6.6c-1.3-1.8-3.2-2.7-5.5-2.7
		c-2.4,0-4.2,0.9-5.5,2.7c-1.3,1.8-2,4-2,6.6V42.8z"/>
	<path class="st0" d="M593.9,25.2v5.8h5v2.1h-5v14.8c0,1.5,0.3,2.5,0.8,3.2c0.5,0.6,1.3,0.9,2.2,0.9c0.4,0,0.8,0,1.2-0.1
		s0.8-0.1,1.3-0.2l0.4,1.9c-0.4,0.2-0.9,0.3-1.5,0.4c-0.6,0.1-1.2,0.1-1.8,0.1c-1.6,0-2.8-0.5-3.7-1.5c-0.9-1-1.3-2.6-1.3-4.8V33.1
		h-3.9v-2.1h3.9v-5.8H593.9z"/>
	<path class="st0" d="M618.6,53.8c-0.2-0.8-0.3-1.4-0.4-2c-0.1-0.6-0.1-1.1-0.1-1.7c-0.8,1.2-2,2.2-3.4,3s-3,1.2-4.7,1.2
		c-2.2,0-3.9-0.6-5.2-1.8c-1.2-1.2-1.8-2.8-1.8-4.7c0-2.1,0.9-3.8,2.7-5c1.8-1.3,4.3-1.9,7.3-1.9h5V38c0-1.6-0.5-2.9-1.6-3.8
		s-2.5-1.4-4.4-1.4c-1.8,0-3.2,0.4-4.4,1.3c-1.2,0.9-1.7,2-1.7,3.2l-2.3,0l0-0.1c-0.1-1.7,0.7-3.2,2.3-4.5c1.6-1.3,3.7-2,6.2-2
		c2.5,0,4.5,0.6,6,1.9c1.5,1.3,2.3,3.1,2.3,5.5v11.2c0,0.8,0,1.6,0.1,2.3c0.1,0.8,0.2,1.5,0.5,2.2H618.6z M610.3,52
		c1.8,0,3.4-0.4,4.8-1.3c1.4-0.8,2.4-1.9,3-3.2v-4.7h-5.1c-2.3,0-4.1,0.5-5.5,1.5c-1.4,1-2,2.2-2,3.6c0,1.2,0.4,2.2,1.3,3
		C607.7,51.6,608.8,52,610.3,52z"/>
	<path class="st0" d="M635.8,52.1c1.7,0,3.1-0.5,4.4-1.4c1.3-0.9,1.9-2.3,1.9-4h2.2l0,0.1c0.1,2.1-0.8,3.9-2.5,5.3
		c-1.8,1.4-3.8,2.1-6.1,2.1c-3.1,0-5.5-1.1-7.2-3.2c-1.7-2.1-2.5-4.8-2.5-8.2V42c0-3.3,0.8-6,2.5-8.2s4.1-3.2,7.1-3.2
		c2.5,0,4.6,0.7,6.2,2.2c1.7,1.5,2.5,3.4,2.4,5.8l0,0.1h-2.2c0-1.8-0.6-3.3-1.8-4.4c-1.2-1.1-2.7-1.6-4.5-1.6
		c-2.4,0-4.2,0.9-5.4,2.6c-1.2,1.7-1.8,3.9-1.8,6.6v0.9c0,2.7,0.6,4.9,1.7,6.6C631.5,51.2,633.3,52.1,635.8,52.1z"/>
	<path class="st0" d="M652.4,24.5h-2.5V21h2.5V24.5z M652.4,53.8h-2.5V31.1h2.5V53.8z"/>
	<path class="st0" d="M658,42.1c0-3.3,0.9-6.1,2.8-8.2c1.8-2.1,4.3-3.2,7.3-3.2c3,0,5.5,1.1,7.3,3.2s2.8,4.9,2.8,8.2v0.7
		c0,3.4-0.9,6.1-2.7,8.2s-4.3,3.2-7.3,3.2c-3.1,0-5.5-1.1-7.3-3.2c-1.8-2.1-2.8-4.9-2.8-8.2V42.1z M660.5,42.8c0,2.6,0.7,4.8,2,6.6
		s3.2,2.7,5.6,2.7c2.3,0,4.2-0.9,5.5-2.7s2-4,2-6.6v-0.7c0-2.6-0.7-4.8-2-6.6c-1.3-1.8-3.2-2.7-5.5-2.7c-2.4,0-4.2,0.9-5.5,2.7
		c-1.3,1.8-2,4-2,6.6V42.8z M671.1,22.3h3.1l0.1,0.1l-5.2,5.5h-2.3L671.1,22.3z"/>
	<path class="st0" d="M685.6,31.1l0.2,4c0.7-1.4,1.7-2.5,3-3.2c1.2-0.8,2.7-1.1,4.4-1.1c2.5,0,4.3,0.8,5.6,2.3
		c1.3,1.5,1.9,3.9,1.9,7v13.8h-2.5V39.9c0-2.6-0.5-4.5-1.5-5.5c-1-1.1-2.4-1.6-4.1-1.6c-1.8,0-3.2,0.5-4.3,1.4s-1.9,2.2-2.4,3.7
		v15.9h-2.5V31.1H685.6z"/>
	<path class="st0" d="M716.8,42.6c0-3.6,0.8-6.5,2.3-8.7c1.5-2.2,3.7-3.3,6.4-3.3c1.6,0,3,0.3,4.1,1c1.2,0.7,2.1,1.6,2.9,2.9V21h2.5
		v32.8h-2.2l-0.2-3.3c-0.8,1.2-1.7,2.1-2.9,2.8c-1.2,0.6-2.6,1-4.2,1c-2.7,0-4.8-1-6.4-3c-1.5-2-2.3-4.7-2.3-8.1V42.6z M719.3,43.1
		c0,2.8,0.5,5,1.6,6.6c1.1,1.6,2.8,2.4,5,2.4c1.6,0,3-0.4,4.1-1.1c1.1-0.7,1.9-1.7,2.5-3V37.2c-0.6-1.3-1.4-2.4-2.4-3.2
		c-1.1-0.8-2.4-1.2-4.1-1.2c-2.2,0-3.9,0.9-5,2.7c-1.1,1.8-1.7,4.2-1.7,7.1V43.1z"/>
	<path class="st0" d="M750.2,54.2c-2.8,0-5.2-1.1-7.1-3.2s-2.8-4.8-2.8-8v-1.2c0-3.2,0.9-5.9,2.8-8.1c1.9-2.1,4.1-3.2,6.8-3.2
		c2.8,0,5,0.9,6.6,2.6s2.4,4.1,2.4,7.1v2.1h-16v0.6c0,2.6,0.7,4.7,2,6.4s3.1,2.6,5.4,2.6c1.6,0,2.9-0.2,4-0.7
		c1.1-0.4,2.1-1.1,2.8-1.9l1.1,1.7c-0.9,0.9-1.9,1.6-3.2,2.1S752,54.2,750.2,54.2z M749.9,32.8c-1.9,0-3.4,0.7-4.7,2.1
		c-1.3,1.4-2,3.2-2.2,5.3l0,0.1h13.3v-0.6c0-2-0.6-3.6-1.7-4.9S751.9,32.8,749.9,32.8z"/>
	<path class="st0" d="M777.1,53.8h-2.5V21h2.5V53.8z"/>
	<path class="st0" d="M782.7,42.1c0-3.3,0.9-6.1,2.8-8.2c1.8-2.1,4.3-3.2,7.3-3.2c3,0,5.5,1.1,7.3,3.2s2.8,4.9,2.8,8.2v0.7
		c0,3.4-0.9,6.1-2.7,8.2s-4.3,3.2-7.3,3.2c-3.1,0-5.5-1.1-7.3-3.2c-1.8-2.1-2.8-4.9-2.8-8.2V42.1z M785.2,42.8c0,2.6,0.7,4.8,2,6.6
		s3.2,2.7,5.6,2.7c2.3,0,4.2-0.9,5.5-2.7s2-4,2-6.6v-0.7c0-2.6-0.7-4.8-2-6.6c-1.3-1.8-3.2-2.7-5.5-2.7c-2.4,0-4.2,0.9-5.5,2.7
		c-1.3,1.8-2,4-2,6.6V42.8z"/>
	<path class="st0" d="M821.6,48c0-1.1-0.4-2-1.3-2.8s-2.5-1.4-4.7-1.9c-2.7-0.6-4.7-1.4-6-2.3c-1.3-1-1.9-2.3-1.9-4.1
		c0-1.7,0.7-3.2,2.2-4.4c1.5-1.2,3.4-1.8,5.8-1.8c2.6,0,4.6,0.6,6.1,1.9c1.5,1.3,2.2,2.9,2.1,4.8l0,0.1h-2.3c0-1.2-0.5-2.3-1.6-3.3
		s-2.5-1.4-4.3-1.4c-1.8,0-3.2,0.4-4.1,1.2c-0.9,0.8-1.4,1.7-1.4,2.8c0,1,0.4,1.9,1.2,2.6s2.4,1.3,4.7,1.8c2.7,0.6,4.7,1.4,6.1,2.5
		c1.3,1,2,2.5,2,4.3c0,1.9-0.8,3.4-2.3,4.6c-1.5,1.2-3.6,1.8-6.1,1.8c-2.8,0-4.9-0.7-6.5-2c-1.6-1.3-2.3-2.9-2.2-4.7l0-0.1h2.3
		c0.1,1.6,0.8,2.8,2,3.6c1.2,0.7,2.7,1.1,4.4,1.1c1.8,0,3.3-0.4,4.3-1.2C821.1,50.1,821.6,49.1,821.6,48z"/>
	<path class="st0" d="M846.9,47.6l0.8,2.7h0.1l6.9-19.3h2.8l-9.9,26.4c-0.6,1.5-1.4,2.8-2.3,3.9c-0.9,1.1-2.3,1.6-4.1,1.6
		c-0.3,0-0.7,0-1.1-0.1c-0.4-0.1-0.7-0.1-0.9-0.2l0.3-2.1c0.2,0,0.4,0.1,0.8,0.1c0.4,0,0.6,0.1,0.8,0.1c1.1,0,2-0.4,2.6-1.2
		c0.7-0.8,1.2-1.8,1.7-3l1.2-3.1l-8.8-22.4h2.8L846.9,47.6z"/>
	<path class="st0" d="M875.5,53.8c-0.2-0.8-0.3-1.4-0.4-2c-0.1-0.6-0.1-1.1-0.1-1.7c-0.8,1.2-2,2.2-3.4,3c-1.4,0.8-3,1.2-4.7,1.2
		c-2.2,0-3.9-0.6-5.2-1.8c-1.2-1.2-1.8-2.8-1.8-4.7c0-2.1,0.9-3.8,2.7-5c1.8-1.3,4.3-1.9,7.3-1.9h5V38c0-1.6-0.5-2.9-1.6-3.8
		c-1-0.9-2.5-1.4-4.4-1.4c-1.8,0-3.2,0.4-4.4,1.3s-1.7,2-1.7,3.2l-2.3,0l0-0.1c-0.1-1.7,0.7-3.2,2.3-4.5c1.6-1.3,3.7-2,6.2-2
		c2.5,0,4.5,0.6,6,1.9c1.5,1.3,2.3,3.1,2.3,5.5v11.2c0,0.8,0,1.6,0.1,2.3c0.1,0.8,0.2,1.5,0.5,2.2H875.5z M867.3,52
		c1.8,0,3.4-0.4,4.8-1.3c1.4-0.8,2.4-1.9,3-3.2v-4.7H870c-2.3,0-4.1,0.5-5.5,1.5c-1.4,1-2,2.2-2,3.6c0,1.2,0.4,2.2,1.3,3
		C864.6,51.6,865.8,52,867.3,52z"/>
	<path class="st0" d="M892.7,52.1c1.7,0,3.1-0.5,4.4-1.4c1.3-0.9,1.9-2.3,1.9-4h2.2l0,0.1c0.1,2.1-0.8,3.9-2.5,5.3
		c-1.8,1.4-3.8,2.1-6.1,2.1c-3.1,0-5.5-1.1-7.2-3.2c-1.7-2.1-2.5-4.8-2.5-8.2V42c0-3.3,0.8-6,2.5-8.2s4.1-3.2,7.1-3.2
		c2.5,0,4.6,0.7,6.2,2.2c1.7,1.5,2.5,3.4,2.4,5.8l0,0.1H899c0-1.8-0.6-3.3-1.8-4.4c-1.2-1.1-2.7-1.6-4.5-1.6c-2.4,0-4.2,0.9-5.4,2.6
		c-1.2,1.7-1.8,3.9-1.8,6.6v0.9c0,2.7,0.6,4.9,1.7,6.6C888.4,51.2,890.2,52.1,892.7,52.1z"/>
	<path class="st0" d="M909.4,24.5h-2.5V21h2.5V24.5z M909.4,53.8h-2.5V31.1h2.5V53.8z"/>
	<path class="st0" d="M918.4,31.1l0.2,3.8c0.7-1.3,1.7-2.4,2.9-3.1s2.7-1.1,4.3-1.1c1.7,0,3.2,0.4,4.4,1.3c1.2,0.8,2,2.1,2.5,3.8
		c0.7-1.6,1.7-2.8,2.9-3.8c1.3-0.9,2.8-1.4,4.6-1.4c2.4,0,4.3,0.8,5.6,2.4s2,4.1,2,7.5v13.3h-2.5V40.5c0-2.8-0.5-4.8-1.5-5.9
		s-2.4-1.7-4.1-1.7c-1.9,0-3.5,0.6-4.5,1.8c-1.1,1.2-1.7,2.8-2,4.7c0,0.1,0,0.2,0,0.4c0,0.2,0,0.3,0,0.4v13.7h-2.5V40.5
		c0-2.8-0.5-4.7-1.5-5.9c-1-1.2-2.4-1.8-4.1-1.8c-1.8,0-3.2,0.5-4.2,1.4s-1.8,2.1-2.2,3.7v16h-2.5V31.1H918.4z"/>
	<path class="st0" d="M957.3,24.5h-2.5V21h2.5V24.5z M957.3,53.8h-2.5V31.1h2.5V53.8z"/>
	<path class="st0" d="M972.7,54.2c-2.8,0-5.2-1.1-7.1-3.2s-2.8-4.8-2.8-8v-1.2c0-3.2,0.9-5.9,2.8-8.1c1.9-2.1,4.1-3.2,6.8-3.2
		c2.8,0,5,0.9,6.6,2.6s2.4,4.1,2.4,7.1v2.1h-16v0.6c0,2.6,0.7,4.7,2,6.4s3.1,2.6,5.4,2.6c1.6,0,2.9-0.2,4-0.7
		c1.1-0.4,2.1-1.1,2.8-1.9l1.1,1.7c-0.9,0.9-1.9,1.6-3.2,2.1S974.5,54.2,972.7,54.2z M972.4,32.8c-1.9,0-3.4,0.7-4.7,2.1
		c-1.3,1.4-2,3.2-2.2,5.3l0,0.1h13.3v-0.6c0-2-0.6-3.6-1.7-4.9S974.4,32.8,972.4,32.8z"/>
	<path class="st0" d="M988.6,31.1l0.2,4c0.7-1.4,1.7-2.5,3-3.2c1.2-0.8,2.7-1.1,4.4-1.1c2.5,0,4.3,0.8,5.6,2.3
		c1.3,1.5,1.9,3.9,1.9,7v13.8h-2.5V39.9c0-2.6-0.5-4.5-1.5-5.5c-1-1.1-2.4-1.6-4.1-1.6c-1.8,0-3.2,0.5-4.3,1.4s-1.9,2.2-2.4,3.7
		v15.9h-2.5V31.1H988.6z"/>
	<path class="st0" d="M1014.3,25.2v5.8h5v2.1h-5v14.8c0,1.5,0.3,2.5,0.8,3.2s1.3,0.9,2.2,0.9c0.4,0,0.8,0,1.2-0.1
		c0.4,0,0.8-0.1,1.3-0.2l0.4,1.9c-0.4,0.2-0.9,0.3-1.5,0.4c-0.6,0.1-1.2,0.1-1.8,0.1c-1.6,0-2.8-0.5-3.7-1.5c-0.9-1-1.3-2.6-1.3-4.8
		V33.1h-3.9v-2.1h3.9v-5.8H1014.3z"/>
	<path class="st0" d="M1022.8,42.1c0-3.3,0.9-6.1,2.8-8.2c1.8-2.1,4.3-3.2,7.3-3.2c3,0,5.5,1.1,7.3,3.2s2.8,4.9,2.8,8.2v0.7
		c0,3.4-0.9,6.1-2.7,8.2s-4.3,3.2-7.3,3.2c-3.1,0-5.5-1.1-7.3-3.2c-1.8-2.1-2.8-4.9-2.8-8.2V42.1z M1025.3,42.8c0,2.6,0.7,4.8,2,6.6
		s3.2,2.7,5.6,2.7c2.3,0,4.2-0.9,5.5-2.7s2-4,2-6.6v-0.7c0-2.6-0.7-4.8-2-6.6c-1.3-1.8-3.2-2.7-5.5-2.7c-2.4,0-4.2,0.9-5.5,2.7
		c-1.3,1.8-2,4-2,6.6V42.8z"/>
	<path class="st0" d="M1061.7,48c0-1.1-0.4-2-1.3-2.8s-2.5-1.4-4.7-1.9c-2.7-0.6-4.7-1.4-6-2.3c-1.3-1-1.9-2.3-1.9-4.1
		c0-1.7,0.7-3.2,2.2-4.4c1.5-1.2,3.4-1.8,5.8-1.8c2.6,0,4.6,0.6,6.1,1.9c1.5,1.3,2.2,2.9,2.1,4.8l0,0.1h-2.3c0-1.2-0.5-2.3-1.6-3.3
		s-2.5-1.4-4.3-1.4c-1.8,0-3.2,0.4-4.1,1.2c-0.9,0.8-1.4,1.7-1.4,2.8c0,1,0.4,1.9,1.2,2.6s2.4,1.3,4.7,1.8c2.7,0.6,4.7,1.4,6.1,2.5
		c1.3,1,2,2.5,2,4.3c0,1.9-0.8,3.4-2.3,4.6c-1.5,1.2-3.6,1.8-6.1,1.8c-2.8,0-4.9-0.7-6.5-2c-1.6-1.3-2.3-2.9-2.2-4.7l0-0.1h2.3
		c0.1,1.6,0.8,2.8,2,3.6c1.2,0.7,2.7,1.1,4.4,1.1c1.8,0,3.3-0.4,4.3-1.2C1061.2,50.1,1061.7,49.1,1061.7,48z"/>
	<path class="st0" d="M13.9,110.7h13.7v4.7H7.8V84.8h6.1V110.7z"/>
	<path class="st0" d="M44.7,115.4c-0.2-0.5-0.4-1.1-0.6-1.6c-0.2-0.6-0.3-1.2-0.3-1.8c-0.6,1.1-1.5,2-2.5,2.8
		c-1,0.7-2.3,1.1-3.7,1.1c-2.4,0-4.2-0.6-5.5-1.8s-1.9-2.9-1.9-5c0-2.2,0.9-4,2.6-5.2s4.2-1.8,7.5-1.8h3.4v-1.8
		c0-1.1-0.3-1.9-0.9-2.5s-1.4-0.9-2.6-0.9c-1,0-1.8,0.2-2.3,0.7c-0.5,0.5-0.8,1.1-0.8,2h-5.9l0-0.1c-0.1-1.9,0.7-3.6,2.5-5
		c1.8-1.4,4.1-2.1,6.9-2.1c2.7,0,4.9,0.7,6.6,2.1s2.5,3.3,2.5,5.9v9.4c0,1.1,0.1,2.1,0.2,3c0.2,0.9,0.4,1.9,0.8,2.8H44.7z
		 M39.1,111.3c1.1,0,2-0.3,2.9-0.8s1.4-1.1,1.7-1.8v-3.2h-3.4c-1.3,0-2.3,0.3-3,1c-0.7,0.6-1,1.4-1,2.4c0,0.8,0.2,1.4,0.7,1.8
		C37.5,111.1,38.2,111.3,39.1,111.3z"/>
	<path class="st0" d="M83.4,102.7H71.7v12.7h-6.1V84.8h20v4.7H71.7V98h11.7V102.7z"/>
	<path class="st0" d="M87.6,103.8c0-3.4,0.9-6.2,2.8-8.3c1.9-2.2,4.5-3.2,7.9-3.2c3.4,0,6,1.1,7.9,3.2c1.9,2.2,2.9,4.9,2.9,8.3v0.4
		c0,3.4-0.9,6.2-2.8,8.3c-1.9,2.1-4.5,3.2-7.9,3.2c-3.4,0-6-1.1-7.9-3.2c-1.9-2.1-2.8-4.9-2.8-8.3V103.8z M93.7,104.3
		c0,2.1,0.4,3.7,1.1,5c0.7,1.3,1.9,1.9,3.5,1.9c1.6,0,2.7-0.6,3.5-1.9c0.7-1.3,1.1-2.9,1.1-5v-0.4c0-2-0.4-3.7-1.1-4.9
		c-0.7-1.3-1.9-1.9-3.5-1.9c-1.6,0-2.7,0.6-3.5,1.9s-1.1,2.9-1.1,4.9V104.3z"/>
	<path class="st0" d="M124.8,98l-2.2-0.1c-0.9,0-1.7,0.2-2.2,0.6c-0.6,0.4-1,0.9-1.3,1.6v15.4h-6.1V92.7h5.7l0.3,3.4
		c0.5-1.2,1.2-2.1,2.1-2.8c0.8-0.7,1.8-1,2.9-1c0.3,0,0.6,0,0.9,0.1c0.3,0,0.5,0.1,0.8,0.2L124.8,98z"/>
	<path class="st0" d="M135.7,87.1v5.6h3.8V97h-3.8v11.6c0,0.9,0.2,1.5,0.6,1.9s0.9,0.6,1.5,0.6c0.3,0,0.6,0,0.8-0.1
		c0.2,0,0.5-0.1,0.8-0.2l0.5,4.4c-0.6,0.2-1.2,0.4-1.8,0.5c-0.6,0.1-1.2,0.2-1.9,0.2c-2.1,0-3.7-0.6-4.9-1.7c-1.1-1.2-1.7-3-1.7-5.5
		V97h-3.3v-4.3h3.3v-5.6H135.7z"/>
	<path class="st0" d="M157.3,112c-0.7,1.2-1.6,2.2-2.7,2.8c-1.1,0.7-2.3,1-3.8,1c-2.4,0-4.3-0.8-5.6-2.4c-1.4-1.6-2-4.1-2-7.6V92.7
		h6.1v13.2c0,2,0.3,3.4,0.8,4.1c0.5,0.7,1.4,1.1,2.5,1.1c1,0,1.8-0.2,2.5-0.5s1.3-0.8,1.7-1.4V92.7h6.1v22.7h-5.1L157.3,112z"/>
	<path class="st0" d="M173.2,92.7l0.3,3.3c0.8-1.2,1.7-2.1,2.8-2.7s2.3-1,3.7-1c2.3,0,4.1,0.7,5.4,2.2c1.3,1.5,1.9,3.8,1.9,7v13.9
		h-6.2v-13.9c0-1.6-0.3-2.8-0.9-3.5c-0.6-0.7-1.4-1-2.6-1c-0.9,0-1.7,0.2-2.4,0.5c-0.7,0.3-1.3,0.8-1.7,1.4v16.4h-6.1V92.7H173.2z"
		/>
	<path class="st0" d="M205.3,115.4c-0.2-0.5-0.4-1.1-0.6-1.6c-0.2-0.6-0.3-1.2-0.3-1.8c-0.6,1.1-1.5,2-2.5,2.8
		c-1,0.7-2.3,1.1-3.7,1.1c-2.4,0-4.2-0.6-5.5-1.8s-1.9-2.9-1.9-5c0-2.2,0.9-4,2.6-5.2s4.2-1.8,7.5-1.8h3.4v-1.8
		c0-1.1-0.3-1.9-0.9-2.5s-1.4-0.9-2.6-0.9c-1,0-1.8,0.2-2.3,0.7c-0.5,0.5-0.8,1.1-0.8,2h-5.9l0-0.1c-0.1-1.9,0.7-3.6,2.5-5
		c1.8-1.4,4.1-2.1,6.9-2.1c2.7,0,4.9,0.7,6.6,2.1s2.5,3.3,2.5,5.9v9.4c0,1.1,0.1,2.1,0.2,3c0.2,0.9,0.4,1.9,0.8,2.8H205.3z
		 M199.7,111.3c1.1,0,2-0.3,2.9-0.8s1.4-1.1,1.7-1.8v-3.2h-3.4c-1.3,0-2.3,0.3-3,1c-0.7,0.6-1,1.4-1,2.4c0,0.8,0.2,1.4,0.7,1.8
		C198.1,111.1,198.8,111.3,199.7,111.3z"/>
	<path class="st0" d="M226.3,103.1c0-5.1,1-9.6,2.9-13.7c1.9-4,4.1-6.7,6.5-8.1l0.1,0l0.5,1.5c-2,1.4-3.8,4-5.3,7.7
		c-1.5,3.7-2.3,7.8-2.3,12.5v0.4c0,4.6,0.8,8.8,2.3,12.5c1.5,3.7,3.3,6.3,5.3,7.8l-0.5,1.5h-0.1c-2.4-1.4-4.6-4.1-6.5-8
		c-1.9-3.9-2.9-8.5-2.9-13.7V103.1z"/>
	<path class="st0" d="M255.1,105.6h4.8v2.1h-4.8v7.7h-2.5v-7.7h-14.3v-1.4l14.1-21.4h2.8V105.6z M241.2,105.6h11.4V88.1l-0.1,0
		l-1.1,2.3L241.2,105.6z"/>
	<path class="st0" d="M267,115.4h-2.9V112h2.9V115.4z"/>
	<path class="st0" d="M293.2,103.5c0,3.9-0.9,7-2.6,9.1c-1.7,2.1-4.1,3.2-7.1,3.2c-3,0-5.4-1.1-7.1-3.2c-1.7-2.1-2.6-5.2-2.6-9.1
		v-6.8c0-3.9,0.9-7,2.6-9.1s4.1-3.2,7.1-3.2c3,0,5.4,1.1,7.1,3.2s2.6,5.2,2.6,9.1V103.5z M290.6,96.3c0-3.1-0.6-5.5-1.8-7.2
		c-1.2-1.7-3-2.5-5.4-2.5c-2.3,0-4.1,0.8-5.3,2.5c-1.2,1.7-1.8,4.1-1.8,7.2v7.6c0,3.1,0.6,5.5,1.9,7.2s3,2.6,5.3,2.6
		c2.3,0,4.1-0.9,5.3-2.6c1.2-1.7,1.8-4.1,1.8-7.2V96.3z"/>
	<path class="st0" d="M318.2,103.5c0,3.9-0.9,7-2.6,9.1c-1.7,2.1-4.1,3.2-7.1,3.2c-3,0-5.4-1.1-7.1-3.2c-1.7-2.1-2.6-5.2-2.6-9.1
		v-6.8c0-3.9,0.9-7,2.6-9.1s4.1-3.2,7.1-3.2c3,0,5.4,1.1,7.1,3.2s2.6,5.2,2.6,9.1V103.5z M315.7,96.3c0-3.1-0.6-5.5-1.8-7.2
		c-1.2-1.7-3-2.5-5.4-2.5c-2.3,0-4.1,0.8-5.3,2.5c-1.2,1.7-1.8,4.1-1.8,7.2v7.6c0,3.1,0.6,5.5,1.9,7.2s3,2.6,5.3,2.6
		c2.3,0,4.1-0.9,5.3-2.6c1.2-1.7,1.8-4.1,1.8-7.2V96.3z"/>
	<path class="st0" d="M343.3,103.5c0,3.9-0.9,7-2.6,9.1c-1.7,2.1-4.1,3.2-7.1,3.2c-3,0-5.4-1.1-7.1-3.2c-1.7-2.1-2.6-5.2-2.6-9.1
		v-6.8c0-3.9,0.9-7,2.6-9.1s4.1-3.2,7.1-3.2c3,0,5.4,1.1,7.1,3.2s2.6,5.2,2.6,9.1V103.5z M340.8,96.3c0-3.1-0.6-5.5-1.8-7.2
		c-1.2-1.7-3-2.5-5.4-2.5c-2.3,0-4.1,0.8-5.3,2.5c-1.2,1.7-1.8,4.1-1.8,7.2v7.6c0,3.1,0.6,5.5,1.9,7.2s3,2.6,5.3,2.6
		c2.3,0,4.1-0.9,5.3-2.6c1.2-1.7,1.8-4.1,1.8-7.2V96.3z"/>
	<path class="st0" d="M362.1,92.7l0.2,3.8c0.7-1.3,1.7-2.4,2.9-3.1s2.7-1.1,4.3-1.1c1.7,0,3.2,0.4,4.4,1.3c1.2,0.8,2,2.1,2.5,3.8
		c0.7-1.6,1.7-2.8,2.9-3.8c1.3-0.9,2.8-1.4,4.6-1.4c2.4,0,4.3,0.8,5.6,2.4s2,4.1,2,7.5v13.3H389v-13.3c0-2.8-0.5-4.8-1.5-5.9
		s-2.4-1.7-4.1-1.7c-1.9,0-3.5,0.6-4.5,1.8c-1.1,1.2-1.7,2.8-2,4.7c0,0.1,0,0.2,0,0.4c0,0.2,0,0.3,0,0.4v13.7h-2.5v-13.3
		c0-2.8-0.5-4.7-1.5-5.9c-1-1.2-2.4-1.8-4.1-1.8c-1.8,0-3.2,0.5-4.2,1.4c-1,0.9-1.8,2.1-2.2,3.7v16h-2.5V92.7H362.1z"/>
	<path class="st0" d="M411.7,109.6c0-1.1-0.4-2-1.3-2.8c-0.9-0.8-2.5-1.4-4.7-1.9c-2.7-0.6-4.7-1.4-6-2.3c-1.3-1-1.9-2.3-1.9-4.1
		c0-1.7,0.7-3.2,2.2-4.4c1.5-1.2,3.4-1.8,5.8-1.8c2.6,0,4.6,0.6,6.1,1.9c1.5,1.3,2.2,2.9,2.1,4.8l0,0.1h-2.3c0-1.2-0.5-2.3-1.6-3.3
		c-1.1-0.9-2.5-1.4-4.3-1.4c-1.8,0-3.2,0.4-4.1,1.2c-0.9,0.8-1.4,1.7-1.4,2.8c0,1,0.4,1.9,1.2,2.6s2.4,1.3,4.7,1.8
		c2.7,0.6,4.7,1.4,6.1,2.5c1.3,1,2,2.5,2,4.3c0,1.9-0.8,3.4-2.3,4.6c-1.5,1.2-3.6,1.8-6.1,1.8c-2.8,0-4.9-0.7-6.5-2
		c-1.6-1.3-2.3-2.9-2.2-4.7l0-0.1h2.3c0.1,1.6,0.8,2.8,2,3.6c1.2,0.7,2.7,1.1,4.4,1.1c1.8,0,3.3-0.4,4.3-1.2
		C411.2,111.7,411.7,110.8,411.7,109.6z"/>
	<path class="st0" d="M422.2,92.7l0.2,4c0.7-1.4,1.7-2.5,3-3.2c1.2-0.8,2.7-1.1,4.4-1.1c2.5,0,4.3,0.8,5.6,2.3
		c1.3,1.5,1.9,3.9,1.9,7v13.8h-2.5v-13.8c0-2.6-0.5-4.5-1.5-5.5c-1-1.1-2.4-1.6-4.1-1.6c-1.8,0-3.2,0.5-4.3,1.4s-1.9,2.2-2.4,3.7
		v15.9H420V92.7H422.2z"/>
	<path class="st0" d="M446.1,92.7l0.2,3.8c0.7-1.3,1.7-2.4,2.9-3.1s2.7-1.1,4.3-1.1c1.7,0,3.2,0.4,4.4,1.3c1.2,0.8,2,2.1,2.5,3.8
		c0.7-1.6,1.7-2.8,2.9-3.8c1.3-0.9,2.8-1.4,4.6-1.4c2.4,0,4.3,0.8,5.6,2.4s2,4.1,2,7.5v13.3H473v-13.3c0-2.8-0.5-4.8-1.5-5.9
		s-2.4-1.7-4.1-1.7c-1.9,0-3.5,0.6-4.5,1.8c-1.1,1.2-1.7,2.8-2,4.7c0,0.1,0,0.2,0,0.4c0,0.2,0,0.3,0,0.4v13.7h-2.5v-13.3
		c0-2.8-0.5-4.7-1.5-5.9c-1-1.2-2.4-1.8-4.1-1.8c-1.8,0-3.2,0.5-4.2,1.4c-1,0.9-1.8,2.1-2.2,3.7v16h-2.5V92.7H446.1z"/>
	<path class="st0" d="M485.1,115.4h-2.9V112h2.9V115.4z"/>
	<path class="st0" d="M499.5,103.4c0,5.2-1,9.8-2.9,13.7c-1.9,3.9-4.1,6.6-6.5,8h-0.1l-0.5-1.5c2-1.4,3.8-4,5.3-7.7
		c1.5-3.7,2.3-7.9,2.3-12.5V103c0-4.6-0.8-8.8-2.3-12.5c-1.5-3.7-3.3-6.3-5.3-7.7l0.5-1.5h0.1c2.4,1.4,4.5,4.1,6.5,8.1
		c1.9,4,2.9,8.6,2.9,13.7V103.4z"/>
	<path class="st0" d="M522.9,109.3l0.8,2.7h0.1l6.9-19.3h2.8l-9.9,26.4c-0.6,1.5-1.4,2.8-2.3,3.9c-0.9,1.1-2.3,1.6-4.1,1.6
		c-0.3,0-0.7,0-1.1-0.1c-0.4-0.1-0.7-0.1-0.9-0.2l0.3-2.1c0.2,0,0.4,0.1,0.8,0.1c0.4,0,0.6,0.1,0.8,0.1c1.1,0,2-0.4,2.6-1.2
		c0.7-0.8,1.2-1.8,1.7-3l1.2-3.1l-8.8-22.4h2.8L522.9,109.3z"/>
	<path class="st0" d="M553.6,103.2v12.2h-6.1V84.8h10.6c3.5,0,6.2,0.8,8.2,2.4c2,1.6,3,3.8,3,6.6c0,1.6-0.4,2.9-1.2,4.1
		c-0.8,1.1-2,2.1-3.6,2.8c1.8,0.5,3.1,1.4,3.9,2.7c0.8,1.2,1.2,2.8,1.2,4.6v2.2c0,0.9,0.1,1.7,0.3,2.7c0.2,0.9,0.6,1.6,1.2,2.1v0.4
		h-6.3c-0.6-0.4-0.9-1.2-1.1-2.2c-0.2-1-0.2-2-0.2-3V108c0-1.5-0.4-2.7-1.2-3.6c-0.8-0.8-2-1.3-3.5-1.3H553.6z M553.6,98.5h4.3
		c1.7,0,3-0.4,3.8-1.1c0.8-0.7,1.3-1.8,1.3-3.2c0-1.4-0.4-2.5-1.3-3.3c-0.8-0.8-2.1-1.2-3.7-1.2h-4.5V98.5z"/>
	<path class="st0" d="M584.3,115.8c-3.4,0-6-1-7.9-3.1c-1.9-2.1-2.9-4.8-2.9-8v-0.8c0-3.4,0.9-6.2,2.8-8.4s4.4-3.2,7.6-3.2
		c3.1,0,5.4,0.9,7,2.8c1.6,1.9,2.4,4.4,2.4,7.6v3.2h-13.5l-0.1,0.1c0.1,1.6,0.6,2.8,1.4,3.8c0.8,1,2.1,1.5,3.8,1.5
		c1.4,0,2.5-0.1,3.5-0.4c1-0.3,2-0.7,3-1.3l1.7,3.8c-0.9,0.7-2.1,1.4-3.7,1.9C587.8,115.6,586.1,115.8,584.3,115.8z M583.9,97
		c-1.2,0-2.2,0.4-2.8,1.3c-0.7,0.8-1.1,2-1.2,3.4l0,0.1h7.5v-0.5c0-1.3-0.3-2.4-0.8-3.1C586,97.4,585.1,97,583.9,97z"/>
	<path class="st0" d="M603.4,115.4h-6.1V82.6h6.1V115.4z"/>
	<path class="st0" d="M614.9,87.2h-6.1v-4.6h6.1V87.2z M614.9,115.4h-6.1V92.7h6.1V115.4z"/>
	<path class="st0" d="M625.5,92.7l0.3,3.3c0.8-1.2,1.7-2.1,2.8-2.7s2.3-1,3.7-1c2.3,0,4.1,0.7,5.4,2.2c1.3,1.5,1.9,3.8,1.9,7v13.9
		h-6.2v-13.9c0-1.6-0.3-2.8-0.9-3.5c-0.6-0.7-1.4-1-2.6-1c-0.9,0-1.7,0.2-2.4,0.5c-0.7,0.3-1.3,0.8-1.7,1.4v16.4h-6.1V92.7H625.5z"
		/>
	<path class="st0" d="M653.7,111.1c1.1,0,1.9-0.3,2.5-1c0.6-0.6,0.9-1.5,0.9-2.6h5.6l0,0.1c0.1,2.3-0.8,4.2-2.6,5.8
		c-1.8,1.5-3.9,2.3-6.6,2.3c-3.4,0-6-1.1-7.8-3.2c-1.8-2.1-2.8-4.9-2.8-8.2v-0.6c0-3.3,0.9-6.1,2.7-8.2c1.8-2.2,4.4-3.2,7.8-3.2
		c2.8,0,5,0.8,6.7,2.4s2.5,3.7,2.5,6.3l0,0.1h-5.6c0-1.2-0.3-2.2-0.9-2.9c-0.6-0.8-1.5-1.2-2.6-1.2c-1.6,0-2.7,0.6-3.4,1.9
		c-0.7,1.3-1,2.9-1,4.9v0.6c0,2,0.3,3.6,1,4.9C651,110.5,652.1,111.1,653.7,111.1z"/>
	<path class="st0" d="M672.4,95.6c0.7-1,1.6-1.8,2.6-2.4c1-0.6,2.2-0.9,3.4-0.9c2.4,0,4.2,0.8,5.6,2.4c1.4,1.6,2,4,2,7.3v13.5h-6.1
		v-13.5c0-1.8-0.3-3-0.9-3.7s-1.4-1.1-2.6-1.1c-0.9,0-1.8,0.2-2.4,0.5c-0.7,0.3-1.3,0.7-1.7,1.3v16.6h-6.1V82.6h6.1V95.6z"/>
	<path class="st0" d="M689.7,103.8c0-3.4,0.9-6.2,2.8-8.3c1.9-2.2,4.5-3.2,7.9-3.2c3.4,0,6,1.1,7.9,3.2s2.9,4.9,2.9,8.3v0.4
		c0,3.4-0.9,6.2-2.8,8.3s-4.5,3.2-7.9,3.2c-3.4,0-6-1.1-7.9-3.2s-2.8-4.9-2.8-8.3V103.8z M695.8,104.3c0,2.1,0.4,3.7,1.1,5
		c0.7,1.3,1.9,1.9,3.5,1.9c1.6,0,2.7-0.6,3.5-1.9c0.7-1.3,1.1-2.9,1.1-5v-0.4c0-2-0.4-3.7-1.1-4.9c-0.7-1.3-1.9-1.9-3.5-1.9
		c-1.6,0-2.7,0.6-3.5,1.9s-1.1,2.9-1.1,4.9V104.3z"/>
	<path class="st0" d="M726,103.1c0-5.1,1-9.6,2.9-13.7c1.9-4,4.1-6.7,6.5-8.1l0.1,0l0.5,1.5c-2,1.4-3.8,4-5.3,7.7s-2.3,7.8-2.3,12.5
		v0.4c0,4.6,0.8,8.8,2.3,12.5s3.3,6.3,5.3,7.8l-0.5,1.5h-0.1c-2.4-1.4-4.6-4.1-6.5-8c-1.9-3.9-2.9-8.5-2.9-13.7V103.1z"/>
	<path class="st0" d="M758.4,115.4h-19v-2l10-11.3c1.8-2.1,3.2-3.8,3.9-5.2c0.8-1.4,1.1-2.8,1.1-4c0-1.9-0.5-3.4-1.6-4.6
		c-1.1-1.1-2.6-1.7-4.5-1.7c-2.3,0-4.1,0.6-5.3,1.9s-1.8,3-1.8,5.2h-2.3l0-0.1c-0.1-2.5,0.8-4.7,2.5-6.5s4.1-2.6,7-2.6
		c2.6,0,4.7,0.8,6.3,2.3c1.6,1.5,2.4,3.5,2.4,6.1c0,1.7-0.5,3.4-1.6,5.1s-2.5,3.7-4.4,5.8l-8.4,9.5l0,0.1h15.8V115.4z"/>
	<path class="st0" d="M766.7,115.4h-2.9V112h2.9V115.4z"/>
	<path class="st0" d="M792.9,103.5c0,3.9-0.9,7-2.6,9.1c-1.7,2.1-4.1,3.2-7.1,3.2c-3,0-5.4-1.1-7.1-3.2c-1.7-2.1-2.6-5.2-2.6-9.1
		v-6.8c0-3.9,0.9-7,2.6-9.1s4.1-3.2,7.1-3.2s5.4,1.1,7.1,3.2s2.6,5.2,2.6,9.1V103.5z M790.3,96.3c0-3.1-0.6-5.5-1.8-7.2
		c-1.2-1.7-3-2.5-5.4-2.5s-4.1,0.8-5.3,2.5c-1.2,1.7-1.8,4.1-1.8,7.2v7.6c0,3.1,0.6,5.5,1.9,7.2s3,2.6,5.3,2.6
		c2.3,0,4.1-0.9,5.3-2.6s1.8-4.1,1.8-7.2V96.3z"/>
	<path class="st0" d="M818,103.5c0,3.9-0.9,7-2.6,9.1c-1.7,2.1-4.1,3.2-7.1,3.2c-3,0-5.4-1.1-7.1-3.2c-1.7-2.1-2.6-5.2-2.6-9.1v-6.8
		c0-3.9,0.9-7,2.6-9.1s4.1-3.2,7.1-3.2s5.4,1.1,7.1,3.2s2.6,5.2,2.6,9.1V103.5z M815.4,96.3c0-3.1-0.6-5.5-1.8-7.2
		c-1.2-1.7-3-2.5-5.4-2.5s-4.1,0.8-5.3,2.5c-1.2,1.7-1.8,4.1-1.8,7.2v7.6c0,3.1,0.6,5.5,1.9,7.2s3,2.6,5.3,2.6
		c2.3,0,4.1-0.9,5.3-2.6s1.8-4.1,1.8-7.2V96.3z"/>
	<path class="st0" d="M843,103.5c0,3.9-0.9,7-2.6,9.1c-1.7,2.1-4.1,3.2-7.1,3.2c-3,0-5.4-1.1-7.1-3.2c-1.7-2.1-2.6-5.2-2.6-9.1v-6.8
		c0-3.9,0.9-7,2.6-9.1s4.1-3.2,7.1-3.2s5.4,1.1,7.1,3.2s2.6,5.2,2.6,9.1V103.5z M840.5,96.3c0-3.1-0.6-5.5-1.8-7.2
		c-1.2-1.7-3-2.5-5.4-2.5s-4.1,0.8-5.3,2.5c-1.2,1.7-1.8,4.1-1.8,7.2v7.6c0,3.1,0.6,5.5,1.9,7.2s3,2.6,5.3,2.6
		c2.3,0,4.1-0.9,5.3-2.6s1.8-4.1,1.8-7.2V96.3z"/>
	<path class="st0" d="M861.8,92.7l0.2,3.8c0.7-1.3,1.7-2.4,2.9-3.1s2.7-1.1,4.3-1.1c1.7,0,3.2,0.4,4.4,1.3c1.2,0.8,2,2.1,2.5,3.8
		c0.7-1.6,1.7-2.8,2.9-3.8c1.3-0.9,2.8-1.4,4.6-1.4c2.4,0,4.3,0.8,5.6,2.4s2,4.1,2,7.5v13.3h-2.5v-13.3c0-2.8-0.5-4.8-1.5-5.9
		s-2.4-1.7-4.1-1.7c-1.9,0-3.5,0.6-4.5,1.8c-1.1,1.2-1.7,2.8-2,4.7c0,0.1,0,0.2,0,0.4c0,0.2,0,0.3,0,0.4v13.7h-2.5v-13.3
		c0-2.8-0.5-4.7-1.5-5.9c-1-1.2-2.4-1.8-4.1-1.8c-1.8,0-3.2,0.5-4.2,1.4s-1.8,2.1-2.2,3.7v16h-2.5V92.7H861.8z"/>
	<path class="st0" d="M911.4,109.6c0-1.1-0.4-2-1.3-2.8c-0.9-0.8-2.5-1.4-4.7-1.9c-2.7-0.6-4.7-1.4-6-2.3c-1.3-1-1.9-2.3-1.9-4.1
		c0-1.7,0.7-3.2,2.2-4.4c1.5-1.2,3.4-1.8,5.8-1.8c2.6,0,4.6,0.6,6.1,1.9c1.5,1.3,2.2,2.9,2.1,4.8l0,0.1h-2.3c0-1.2-0.5-2.3-1.6-3.3
		s-2.5-1.4-4.3-1.4c-1.8,0-3.2,0.4-4.1,1.2c-0.9,0.8-1.4,1.7-1.4,2.8c0,1,0.4,1.9,1.2,2.6s2.4,1.3,4.7,1.8c2.7,0.6,4.7,1.4,6.1,2.5
		c1.3,1,2,2.5,2,4.3c0,1.9-0.8,3.4-2.3,4.6s-3.6,1.8-6.1,1.8c-2.8,0-4.9-0.7-6.5-2s-2.3-2.9-2.2-4.7l0-0.1h2.3
		c0.1,1.6,0.8,2.8,2,3.6c1.2,0.7,2.7,1.1,4.4,1.1c1.8,0,3.3-0.4,4.3-1.2C910.9,111.7,911.4,110.8,911.4,109.6z"/>
	<path class="st0" d="M921.9,92.7l0.2,4c0.7-1.4,1.7-2.5,3-3.2c1.2-0.8,2.7-1.1,4.4-1.1c2.5,0,4.3,0.8,5.6,2.3
		c1.3,1.5,1.9,3.9,1.9,7v13.8h-2.5v-13.8c0-2.6-0.5-4.5-1.5-5.5c-1-1.1-2.4-1.6-4.1-1.6c-1.8,0-3.2,0.5-4.3,1.4s-1.9,2.2-2.4,3.7
		v15.9h-2.5V92.7H921.9z"/>
	<path class="st0" d="M945.8,92.7l0.2,3.8c0.7-1.3,1.7-2.4,2.9-3.1s2.7-1.1,4.3-1.1c1.7,0,3.2,0.4,4.4,1.3c1.2,0.8,2,2.1,2.5,3.8
		c0.7-1.6,1.7-2.8,2.9-3.8c1.3-0.9,2.8-1.4,4.6-1.4c2.4,0,4.3,0.8,5.6,2.4s2,4.1,2,7.5v13.3h-2.5v-13.3c0-2.8-0.5-4.8-1.5-5.9
		s-2.4-1.7-4.1-1.7c-1.9,0-3.5,0.6-4.5,1.8c-1.1,1.2-1.7,2.8-2,4.7c0,0.1,0,0.2,0,0.4c0,0.2,0,0.3,0,0.4v13.7h-2.5v-13.3
		c0-2.8-0.5-4.7-1.5-5.9c-1-1.2-2.4-1.8-4.1-1.8c-1.8,0-3.2,0.5-4.2,1.4s-1.8,2.1-2.2,3.7v16h-2.5V92.7H945.8z"/>
	<path class="st0" d="M984.8,115.4h-2.9V112h2.9V115.4z"/>
	<path class="st0" d="M999.2,103.4c0,5.2-1,9.8-2.9,13.7c-1.9,3.9-4.1,6.6-6.5,8h-0.1l-0.5-1.5c2-1.4,3.8-4,5.3-7.7
		c1.5-3.7,2.3-7.9,2.3-12.5V103c0-4.6-0.8-8.8-2.3-12.5c-1.5-3.7-3.3-6.3-5.3-7.7l0.5-1.5h0.1c2.4,1.4,4.5,4.1,6.5,8.1
		s2.9,8.6,2.9,13.7V103.4z"/>
	<path class="st0" d="M1008.1,115l-2.2,5.8h-1.7l1.5-5.9v-3.5h2.5V115z"/>
	<path class="st0" d="M1039.3,111.7c-0.7,1.3-1.7,2.4-2.9,3.1s-2.7,1.1-4.4,1.1c-2.4,0-4.3-0.8-5.6-2.4c-1.4-1.6-2-4.1-2-7.6V92.7
		h2.5v13.2c0,2.8,0.5,4.8,1.4,6c0.9,1.2,2.3,1.8,4,1.8c1.9,0,3.4-0.4,4.6-1.3c1.1-0.9,1.9-2,2.4-3.5V92.7h2.5v22.7h-2.2
		L1039.3,111.7z"/>
	<path class="st0" d="M1066.7,104.7c0,3.4-0.8,6.1-2.3,8.1c-1.5,2-3.7,3-6.4,3c-1.7,0-3.1-0.3-4.3-1c-1.2-0.7-2.2-1.6-2.9-2.9
		l-0.3,3.4h-2.2V82.6h2.5v13.6c0.8-1.3,1.7-2.3,2.9-3s2.6-1,4.2-1c2.7,0,4.9,1.1,6.4,3.3c1.5,2.2,2.3,5.1,2.3,8.7V104.7z
		 M1064.1,104.2c0-2.9-0.6-5.3-1.7-7.1c-1.1-1.8-2.8-2.7-5-2.7c-1.8,0-3.2,0.4-4.2,1.3s-1.9,2-2.4,3.4v10.3c0.6,1.3,1.4,2.4,2.5,3.2
		s2.5,1.2,4.1,1.2c2.2,0,3.9-0.8,5-2.4s1.7-3.8,1.7-6.6V104.2z"/>
	<path class="st0" d="M1075.1,86.2h-2.5v-3.5h2.5V86.2z M1075.1,115.4h-2.5V92.7h2.5V115.4z"/>
	<path class="st0" d="M1090.5,113.7c1.7,0,3.1-0.5,4.4-1.4c1.3-0.9,1.9-2.3,1.9-4h2.2l0,0.1c0.1,2.1-0.8,3.9-2.5,5.3
		c-1.8,1.4-3.8,2.1-6.1,2.1c-3.1,0-5.5-1.1-7.2-3.2c-1.7-2.1-2.5-4.8-2.5-8.2v-0.9c0-3.3,0.8-6,2.5-8.2s4.1-3.2,7.1-3.2
		c2.5,0,4.6,0.7,6.2,2.2c1.7,1.5,2.5,3.4,2.4,5.8l0,0.1h-2.2c0-1.8-0.6-3.3-1.8-4.4c-1.2-1.1-2.7-1.6-4.5-1.6
		c-2.4,0-4.2,0.9-5.4,2.6c-1.2,1.7-1.8,3.9-1.8,6.6v0.9c0,2.7,0.6,4.9,1.7,6.6C1086.2,112.8,1088,113.7,1090.5,113.7z"/>
	<path class="st0" d="M1118.8,115.4c-0.2-0.8-0.3-1.4-0.4-2c-0.1-0.6-0.1-1.1-0.1-1.7c-0.8,1.2-2,2.2-3.4,3c-1.4,0.8-3,1.2-4.7,1.2
		c-2.2,0-3.9-0.6-5.2-1.8c-1.2-1.2-1.8-2.8-1.8-4.7c0-2.1,0.9-3.8,2.7-5c1.8-1.3,4.3-1.9,7.3-1.9h5v-2.8c0-1.6-0.5-2.9-1.6-3.8
		c-1-0.9-2.5-1.4-4.4-1.4c-1.8,0-3.2,0.4-4.4,1.3s-1.7,2-1.7,3.2l-2.3,0l0-0.1c-0.1-1.7,0.7-3.2,2.3-4.5c1.6-1.3,3.7-2,6.2-2
		c2.5,0,4.5,0.6,6,1.9c1.5,1.3,2.3,3.1,2.3,5.5v11.2c0,0.8,0,1.6,0.1,2.3c0.1,0.8,0.2,1.5,0.5,2.2H1118.8z M1110.5,113.6
		c1.8,0,3.4-0.4,4.8-1.3c1.4-0.8,2.4-1.9,3-3.2v-4.7h-5.1c-2.3,0-4.1,0.5-5.5,1.5c-1.4,1-2,2.2-2,3.6c0,1.2,0.4,2.2,1.3,3
		C1107.8,113.2,1109,113.6,1110.5,113.6z"/>
	<path class="st0" d="M1126.5,104.2c0-3.6,0.8-6.5,2.3-8.7c1.5-2.2,3.7-3.3,6.4-3.3c1.6,0,3,0.3,4.1,1c1.2,0.7,2.1,1.6,2.9,2.9V82.6
		h2.5v32.8h-2.2l-0.2-3.3c-0.8,1.2-1.7,2.1-2.9,2.8c-1.2,0.6-2.6,1-4.2,1c-2.7,0-4.8-1-6.4-3s-2.3-4.7-2.3-8.1V104.2z M1129,104.7
		c0,2.8,0.5,5,1.6,6.6c1.1,1.6,2.8,2.4,5,2.4c1.6,0,3-0.4,4.1-1.1c1.1-0.7,1.9-1.7,2.5-3V98.9c-0.6-1.3-1.4-2.4-2.4-3.2
		c-1.1-0.8-2.4-1.2-4.1-1.2c-2.2,0-3.9,0.9-5,2.7c-1.1,1.8-1.7,4.2-1.7,7.1V104.7z"/>
	<path class="st0" d="M1150,103.7c0-3.3,0.9-6.1,2.8-8.2c1.8-2.1,4.3-3.2,7.3-3.2c3,0,5.5,1.1,7.3,3.2s2.8,4.9,2.8,8.2v0.7
		c0,3.4-0.9,6.1-2.7,8.2c-1.8,2.1-4.3,3.2-7.3,3.2c-3.1,0-5.5-1.1-7.3-3.2c-1.8-2.1-2.8-4.9-2.8-8.2V103.7z M1152.6,104.4
		c0,2.6,0.7,4.8,2,6.6c1.3,1.8,3.2,2.7,5.6,2.7c2.3,0,4.2-0.9,5.5-2.7c1.3-1.8,2-4,2-6.6v-0.7c0-2.6-0.7-4.8-2-6.6
		c-1.3-1.8-3.2-2.7-5.5-2.7c-2.4,0-4.2,0.9-5.5,2.7c-1.3,1.8-2,4-2,6.6V104.4z"/>
	<path class="st0" d="M1189,109.6c0-1.1-0.4-2-1.3-2.8c-0.9-0.8-2.5-1.4-4.7-1.9c-2.7-0.6-4.7-1.4-6-2.3c-1.3-1-1.9-2.3-1.9-4.1
		c0-1.7,0.7-3.2,2.2-4.4c1.5-1.2,3.4-1.8,5.8-1.8c2.6,0,4.6,0.6,6.1,1.9c1.5,1.3,2.2,2.9,2.1,4.8l0,0.1h-2.3c0-1.2-0.5-2.3-1.6-3.3
		s-2.5-1.4-4.3-1.4c-1.8,0-3.2,0.4-4.1,1.2c-0.9,0.8-1.4,1.7-1.4,2.8c0,1,0.4,1.9,1.2,2.6s2.4,1.3,4.7,1.8c2.7,0.6,4.7,1.4,6.1,2.5
		c1.3,1,2,2.5,2,4.3c0,1.9-0.8,3.4-2.3,4.6s-3.6,1.8-6.1,1.8c-2.8,0-4.9-0.7-6.5-2s-2.3-2.9-2.2-4.7l0-0.1h2.3
		c0.1,1.6,0.8,2.8,2,3.6c1.2,0.7,2.7,1.1,4.4,1.1c1.8,0,3.3-0.4,4.3-1.2C1188.5,111.7,1189,110.8,1189,109.6z"/>
	<path class="st0" d="M1216.3,115.8c-2.8,0-5.2-1.1-7.1-3.2s-2.8-4.8-2.8-8v-1.2c0-3.2,0.9-5.9,2.8-8.1c1.9-2.1,4.1-3.2,6.8-3.2
		c2.8,0,5,0.9,6.6,2.6s2.4,4.1,2.4,7.1v2.1h-16v0.6c0,2.6,0.7,4.7,2,6.4s3.1,2.6,5.4,2.6c1.6,0,2.9-0.2,4-0.7
		c1.1-0.4,2.1-1.1,2.8-1.9l1.1,1.7c-0.9,0.9-1.9,1.6-3.2,2.1S1218.1,115.8,1216.3,115.8z M1216,94.4c-1.9,0-3.4,0.7-4.7,2.1
		c-1.3,1.4-2,3.2-2.2,5.3l0,0.1h13.3v-0.6c0-2-0.6-3.6-1.7-4.9S1218,94.4,1216,94.4z"/>
	<path class="st0" d="M1232.2,92.7l0.2,4c0.7-1.4,1.7-2.5,3-3.2c1.2-0.8,2.7-1.1,4.4-1.1c2.5,0,4.3,0.8,5.6,2.3
		c1.3,1.5,1.9,3.9,1.9,7v13.8h-2.5v-13.8c0-2.6-0.5-4.5-1.5-5.5c-1-1.1-2.4-1.6-4.1-1.6c-1.8,0-3.2,0.5-4.3,1.4s-1.9,2.2-2.4,3.7
		v15.9h-2.5V92.7H1232.2z"/>
	<path class="st0" d="M11.1,177H8.6v-32.8h2.5V177z"/>
	<path class="st0" d="M32.5,177c-0.2-0.8-0.3-1.4-0.4-2c-0.1-0.6-0.1-1.1-0.1-1.7c-0.8,1.2-2,2.2-3.4,3s-3,1.2-4.7,1.2
		c-2.2,0-3.9-0.6-5.2-1.8c-1.2-1.2-1.8-2.8-1.8-4.7c0-2.1,0.9-3.8,2.7-5c1.8-1.3,4.3-1.9,7.3-1.9h5v-2.8c0-1.6-0.5-2.9-1.6-3.8
		c-1-0.9-2.5-1.4-4.4-1.4c-1.8,0-3.2,0.4-4.4,1.3c-1.2,0.9-1.7,2-1.7,3.2l-2.3,0l0-0.1c-0.1-1.7,0.7-3.2,2.3-4.5
		c1.6-1.3,3.7-2,6.2-2c2.5,0,4.5,0.6,6,1.9c1.5,1.3,2.3,3.1,2.3,5.5v11.2c0,0.8,0,1.6,0.1,2.3c0.1,0.8,0.2,1.5,0.5,2.2H32.5z
		 M24.2,175.2c1.8,0,3.4-0.4,4.8-1.3c1.4-0.8,2.4-1.9,3-3.2V166H27c-2.3,0-4.1,0.5-5.5,1.5c-1.4,1-2,2.2-2,3.6c0,1.2,0.4,2.2,1.3,3
		C21.5,174.9,22.7,175.2,24.2,175.2z"/>
	<path class="st0" d="M54.8,171.2c0-1.1-0.4-2-1.3-2.8s-2.5-1.4-4.7-1.9c-2.7-0.6-4.7-1.4-6-2.3c-1.3-1-1.9-2.3-1.9-4.1
		c0-1.7,0.7-3.2,2.2-4.4c1.5-1.2,3.4-1.8,5.8-1.8c2.6,0,4.6,0.6,6.1,1.9s2.2,2.9,2.1,4.8l0,0.1h-2.3c0-1.2-0.5-2.3-1.6-3.3
		c-1.1-0.9-2.5-1.4-4.3-1.4c-1.8,0-3.2,0.4-4.1,1.2c-0.9,0.8-1.4,1.7-1.4,2.8c0,1,0.4,1.9,1.2,2.6c0.8,0.7,2.4,1.3,4.7,1.8
		c2.7,0.6,4.7,1.4,6.1,2.5c1.3,1,2,2.5,2,4.3c0,1.9-0.8,3.4-2.3,4.6c-1.5,1.2-3.6,1.8-6.1,1.8c-2.8,0-4.9-0.7-6.5-2
		c-1.6-1.3-2.3-2.9-2.2-4.7l0-0.1h2.3c0.1,1.6,0.8,2.8,2,3.6c1.2,0.7,2.7,1.1,4.4,1.1c1.8,0,3.3-0.4,4.3-1.2
		C54.3,173.3,54.8,172.4,54.8,171.2z"/>
	<path class="st0" d="M82,175.3c1.7,0,3.1-0.5,4.4-1.4c1.3-0.9,1.9-2.3,1.9-4h2.2l0,0.1c0.1,2.1-0.8,3.9-2.5,5.3
		c-1.8,1.4-3.8,2.1-6.1,2.1c-3.1,0-5.5-1.1-7.2-3.2c-1.7-2.1-2.5-4.8-2.5-8.2v-0.9c0-3.3,0.8-6,2.5-8.2c1.7-2.1,4.1-3.2,7.1-3.2
		c2.5,0,4.6,0.7,6.2,2.2c1.7,1.5,2.5,3.4,2.4,5.8l0,0.1h-2.2c0-1.8-0.6-3.3-1.8-4.4c-1.2-1.1-2.7-1.6-4.5-1.6
		c-2.4,0-4.2,0.9-5.4,2.6c-1.2,1.7-1.8,3.9-1.8,6.6v0.9c0,2.7,0.6,4.9,1.7,6.6C77.7,174.5,79.5,175.3,82,175.3z"/>
	<path class="st0" d="M94.5,165.3c0-3.3,0.9-6.1,2.8-8.2c1.8-2.1,4.3-3.2,7.3-3.2c3,0,5.5,1.1,7.3,3.2c1.8,2.1,2.8,4.9,2.8,8.2v0.7
		c0,3.4-0.9,6.1-2.7,8.2c-1.8,2.1-4.3,3.2-7.3,3.2c-3.1,0-5.5-1.1-7.3-3.2c-1.8-2.1-2.8-4.9-2.8-8.2V165.3z M97,166
		c0,2.6,0.7,4.8,2,6.6c1.3,1.8,3.2,2.7,5.6,2.7c2.3,0,4.2-0.9,5.5-2.7c1.3-1.8,2-4,2-6.6v-0.7c0-2.6-0.7-4.8-2-6.6
		c-1.3-1.8-3.2-2.7-5.5-2.7c-2.4,0-4.2,0.9-5.5,2.7c-1.3,1.8-2,4-2,6.6V166z"/>
	<path class="st0" d="M121.9,154.3l0.2,3.8c0.7-1.3,1.7-2.4,2.9-3.1s2.7-1.1,4.3-1.1c1.7,0,3.2,0.4,4.4,1.3c1.2,0.8,2,2.1,2.5,3.8
		c0.7-1.6,1.7-2.8,2.9-3.7c1.3-0.9,2.8-1.4,4.6-1.4c2.4,0,4.3,0.8,5.6,2.4s2,4.1,2,7.5V177h-2.5v-13.3c0-2.8-0.5-4.8-1.5-5.9
		c-1-1.2-2.4-1.7-4.1-1.7c-1.9,0-3.5,0.6-4.5,1.8c-1.1,1.2-1.7,2.8-2,4.7c0,0.1,0,0.2,0,0.4c0,0.2,0,0.3,0,0.4V177h-2.5v-13.3
		c0-2.8-0.5-4.7-1.5-5.9c-1-1.2-2.4-1.8-4.1-1.8c-1.8,0-3.2,0.5-4.2,1.4c-1,0.9-1.8,2.1-2.2,3.7v16h-2.5v-22.7H121.9z"/>
	<path class="st0" d="M172.8,173.3c-0.7,1.3-1.7,2.4-2.9,3.1s-2.7,1.1-4.4,1.1c-2.4,0-4.3-0.8-5.6-2.4c-1.4-1.6-2-4.1-2-7.6v-13.2
		h2.5v13.2c0,2.8,0.5,4.8,1.4,6c0.9,1.2,2.3,1.8,4,1.8c1.9,0,3.4-0.4,4.6-1.3c1.1-0.9,1.9-2,2.4-3.5v-16.2h2.5V177h-2.2L172.8,173.3
		z"/>
	<path class="st0" d="M184.1,154.3l0.2,4c0.7-1.4,1.7-2.5,3-3.2c1.2-0.8,2.7-1.1,4.4-1.1c2.5,0,4.3,0.8,5.6,2.3
		c1.3,1.5,1.9,3.9,1.9,7V177h-2.5v-13.8c0-2.6-0.5-4.5-1.5-5.5c-1-1.1-2.4-1.6-4.1-1.6c-1.8,0-3.2,0.5-4.3,1.4
		c-1.1,0.9-1.9,2.2-2.4,3.7V177h-2.5v-22.7H184.1z"/>
	<path class="st0" d="M220.2,177c-0.2-0.8-0.3-1.4-0.4-2c-0.1-0.6-0.1-1.1-0.1-1.7c-0.8,1.2-2,2.2-3.4,3s-3,1.2-4.7,1.2
		c-2.2,0-3.9-0.6-5.2-1.8c-1.2-1.2-1.8-2.8-1.8-4.7c0-2.1,0.9-3.8,2.7-5c1.8-1.3,4.3-1.9,7.3-1.9h5v-2.8c0-1.6-0.5-2.9-1.6-3.8
		c-1-0.9-2.5-1.4-4.4-1.4c-1.8,0-3.2,0.4-4.4,1.3c-1.2,0.9-1.7,2-1.7,3.2l-2.3,0l0-0.1c-0.1-1.7,0.7-3.2,2.3-4.5
		c1.6-1.3,3.7-2,6.2-2c2.5,0,4.5,0.6,6,1.9c1.5,1.3,2.3,3.1,2.3,5.5v11.2c0,0.8,0,1.6,0.1,2.3c0.1,0.8,0.2,1.5,0.5,2.2H220.2z
		 M212,175.2c1.8,0,3.4-0.4,4.8-1.3c1.4-0.8,2.4-1.9,3-3.2V166h-5.1c-2.3,0-4.1,0.5-5.5,1.5c-1.4,1-2,2.2-2,3.6c0,1.2,0.4,2.2,1.3,3
		C209.3,174.9,210.5,175.2,212,175.2z"/>
	<path class="st0" d="M242.6,171.2c0-1.1-0.4-2-1.3-2.8s-2.5-1.4-4.7-1.9c-2.7-0.6-4.7-1.4-6-2.3c-1.3-1-1.9-2.3-1.9-4.1
		c0-1.7,0.7-3.2,2.2-4.4c1.5-1.2,3.4-1.8,5.8-1.8c2.6,0,4.6,0.6,6.1,1.9s2.2,2.9,2.1,4.8l0,0.1h-2.3c0-1.2-0.5-2.3-1.6-3.3
		c-1.1-0.9-2.5-1.4-4.3-1.4c-1.8,0-3.2,0.4-4.1,1.2c-0.9,0.8-1.4,1.7-1.4,2.8c0,1,0.4,1.9,1.2,2.6c0.8,0.7,2.4,1.3,4.7,1.8
		c2.7,0.6,4.7,1.4,6.1,2.5c1.3,1,2,2.5,2,4.3c0,1.9-0.8,3.4-2.3,4.6c-1.5,1.2-3.6,1.8-6.1,1.8c-2.8,0-4.9-0.7-6.5-2
		c-1.6-1.3-2.3-2.9-2.2-4.7l0-0.1h2.3c0.1,1.6,0.8,2.8,2,3.6c1.2,0.7,2.7,1.1,4.4,1.1c1.8,0,3.3-0.4,4.3-1.2
		C242.1,173.3,242.6,172.4,242.6,171.2z"/>
	<path class="st0" d="M260.4,165.9c0-3.6,0.8-6.5,2.3-8.7c1.5-2.2,3.7-3.3,6.4-3.3c1.6,0,3,0.3,4.1,1c1.2,0.7,2.1,1.6,2.9,2.9v-13.5
		h2.5V177h-2.2l-0.2-3.3c-0.8,1.2-1.7,2.1-2.9,2.8c-1.2,0.6-2.6,1-4.2,1c-2.7,0-4.8-1-6.4-3c-1.5-2-2.3-4.7-2.3-8.1V165.9z
		 M262.9,166.3c0,2.8,0.5,5,1.6,6.6c1.1,1.6,2.8,2.4,5,2.4c1.6,0,3-0.4,4.1-1.1c1.1-0.7,1.9-1.7,2.5-3v-10.7
		c-0.6-1.3-1.4-2.4-2.4-3.2c-1.1-0.8-2.4-1.2-4.1-1.2c-2.2,0-3.9,0.9-5,2.7s-1.7,4.2-1.7,7.1V166.3z"/>
	<path class="st0" d="M293.8,177.5c-2.8,0-5.2-1.1-7.1-3.2s-2.8-4.8-2.8-8v-1.2c0-3.2,0.9-5.9,2.8-8.1s4.1-3.2,6.8-3.2
		c2.8,0,5,0.9,6.6,2.6c1.6,1.8,2.4,4.1,2.4,7.1v2.1h-16v0.6c0,2.6,0.7,4.7,2,6.4c1.4,1.7,3.1,2.6,5.4,2.6c1.6,0,2.9-0.2,4-0.7
		c1.1-0.4,2.1-1.1,2.8-1.9l1.1,1.7c-0.9,0.9-1.9,1.6-3.2,2.1S295.6,177.5,293.8,177.5z M293.5,156c-1.9,0-3.4,0.7-4.7,2.1
		c-1.3,1.4-2,3.2-2.2,5.3l0,0.1H300V163c0-2-0.6-3.6-1.7-4.9C297.1,156.7,295.5,156,293.5,156z"/>
	<path class="st0" d="M333.4,170.4h-9.9l-2.1,6.6H315l10.3-30.6h6.3l10.3,30.6h-6.4L333.4,170.4z M324.9,165.6h6.9l-3.4-10.8h-0.1
		L324.9,165.6z"/>
	<path class="st0" d="M350.8,177h-6.1v-32.8h6.1V177z"/>
	<path class="st0" d="M363.2,148.7v5.6h3.8v4.3h-3.8v11.6c0,0.9,0.2,1.5,0.6,1.9c0.4,0.4,0.9,0.6,1.5,0.6c0.3,0,0.6,0,0.8-0.1
		c0.2,0,0.5-0.1,0.8-0.2l0.5,4.4c-0.6,0.2-1.2,0.4-1.8,0.5c-0.6,0.1-1.2,0.2-1.9,0.2c-2.1,0-3.7-0.6-4.9-1.7c-1.1-1.2-1.7-3-1.7-5.5
		v-11.6h-3.3v-4.3h3.3v-5.6H363.2z"/>
	<path class="st0" d="M369.8,165.5c0-3.4,0.9-6.2,2.8-8.3c1.9-2.2,4.5-3.2,7.9-3.2c3.4,0,6,1.1,7.9,3.2c1.9,2.2,2.9,4.9,2.9,8.3v0.4
		c0,3.4-0.9,6.2-2.8,8.4c-1.9,2.1-4.5,3.2-7.9,3.2c-3.4,0-6-1.1-7.9-3.2c-1.9-2.1-2.8-4.9-2.8-8.4V165.5z M376,165.9
		c0,2.1,0.4,3.7,1.1,5c0.7,1.3,1.9,1.9,3.5,1.9c1.6,0,2.7-0.6,3.5-1.9c0.7-1.3,1.1-2.9,1.1-5v-0.4c0-2-0.4-3.7-1.1-4.9
		c-0.7-1.3-1.9-1.9-3.5-1.9c-1.6,0-2.7,0.6-3.5,1.9c-0.7,1.3-1.1,2.9-1.1,4.9V165.9z"/>
	<path class="st0" d="M404.8,165.9c0-3.6,0.8-6.5,2.3-8.7c1.5-2.2,3.7-3.3,6.5-3.3c1.1,0,2.2,0.2,3.1,0.7c0.9,0.5,1.7,1.2,2.4,2.1
		v-12.5h6.2V177h-5.2l-0.5-2.8c-0.7,1.1-1.6,1.9-2.5,2.4c-1,0.6-2.1,0.8-3.4,0.8c-2.8,0-5-1-6.5-3.1c-1.5-2-2.3-4.7-2.3-8.1V165.9z
		 M411,166.3c0,2,0.3,3.6,1,4.7c0.7,1.1,1.8,1.7,3.3,1.7c0.9,0,1.7-0.2,2.3-0.5c0.7-0.4,1.2-0.9,1.6-1.6v-9.7
		c-0.4-0.7-1-1.3-1.6-1.7c-0.7-0.4-1.4-0.6-2.3-0.6c-1.5,0-2.6,0.7-3.3,2c-0.7,1.3-1,3.1-1,5.2V166.3z"/>
	<path class="st0" d="M439.9,177.5c-3.4,0-6-1-7.9-3.1c-1.9-2.1-2.9-4.8-2.9-8v-0.8c0-3.4,0.9-6.2,2.8-8.4s4.4-3.2,7.6-3.2
		c3.1,0,5.4,0.9,7,2.8c1.6,1.9,2.4,4.4,2.4,7.6v3.2h-13.5l-0.1,0.1c0.1,1.6,0.6,2.8,1.4,3.8c0.8,1,2.1,1.4,3.8,1.4
		c1.4,0,2.5-0.1,3.5-0.4c1-0.3,2-0.7,3-1.3l1.7,3.8c-0.9,0.7-2.1,1.4-3.7,1.9C443.4,177.2,441.8,177.5,439.9,177.5z M439.5,158.6
		c-1.2,0-2.2,0.4-2.8,1.3c-0.7,0.8-1.1,2-1.2,3.4l0,0.1h7.5v-0.5c0-1.3-0.3-2.4-0.8-3.1C441.6,159,440.7,158.6,439.5,158.6z"/>
	<path class="st0" d="M459,177h-6.1v-32.8h6.1V177z"/>
	<path class="st0" d="M498.2,166.9l0,0.1c0.1,3.3-0.9,5.8-3,7.7c-2,1.8-4.9,2.8-8.5,2.8c-3.7,0-6.6-1.2-8.9-3.5
		c-2.3-2.4-3.4-5.4-3.4-9.1v-6.1c0-3.7,1.1-6.8,3.3-9.1s5.1-3.6,8.7-3.6c3.7,0,6.6,0.9,8.7,2.7c2.1,1.8,3.1,4.4,3.1,7.7l0,0.1h-6
		c0-2-0.5-3.4-1.4-4.4c-0.9-1-2.4-1.4-4.4-1.4c-1.8,0-3.3,0.7-4.3,2.2s-1.5,3.4-1.5,5.7v6.1c0,2.4,0.5,4.3,1.6,5.8s2.6,2.2,4.5,2.2
		c1.8,0,3.2-0.5,4.1-1.4s1.4-2.4,1.4-4.4H498.2z"/>
	<path class="st0" d="M515.5,177c-0.2-0.5-0.4-1.1-0.6-1.6c-0.2-0.6-0.3-1.2-0.3-1.8c-0.6,1.1-1.5,2-2.5,2.8c-1,0.7-2.3,1.1-3.7,1.1
		c-2.4,0-4.2-0.6-5.5-1.8s-1.9-2.9-1.9-5c0-2.2,0.9-4,2.6-5.2s4.2-1.8,7.5-1.8h3.4v-1.8c0-1.1-0.3-1.9-0.9-2.5
		c-0.6-0.6-1.4-0.9-2.6-0.9c-1,0-1.8,0.2-2.3,0.7c-0.5,0.5-0.8,1.1-0.8,2h-5.9l0-0.1c-0.1-1.9,0.7-3.6,2.5-5s4.1-2.1,6.9-2.1
		c2.7,0,4.9,0.7,6.6,2.1c1.7,1.4,2.5,3.3,2.5,5.9v9.4c0,1.1,0.1,2.1,0.2,3c0.2,0.9,0.4,1.9,0.8,2.8H515.5z M509.9,172.9
		c1.1,0,2-0.3,2.9-0.8s1.4-1.1,1.7-1.8v-3.2h-3.4c-1.3,0-2.3,0.3-3,1c-0.7,0.6-1,1.4-1,2.4c0,0.8,0.2,1.4,0.7,1.8
		C508.4,172.7,509.1,172.9,509.9,172.9z"/>
	<path class="st0" d="M537.2,159.6l-2.2-0.1c-0.9,0-1.7,0.2-2.2,0.6s-1,0.9-1.3,1.6V177h-6.1v-22.7h5.7l0.3,3.4
		c0.5-1.2,1.2-2.1,2.1-2.8c0.8-0.7,1.8-1,2.9-1c0.3,0,0.6,0,0.9,0.1c0.3,0,0.5,0.1,0.8,0.2L537.2,159.6z"/>
	<path class="st0" d="M546.1,154.3l0.3,3c0.7-1.1,1.6-1.9,2.7-2.5c1.1-0.6,2.4-0.9,3.8-0.9c1.5,0,2.7,0.3,3.7,1
		c1,0.6,1.8,1.6,2.4,2.9c0.7-1.2,1.6-2.2,2.7-2.9c1.1-0.7,2.4-1,3.9-1c2.2,0,4,0.8,5.3,2.4c1.3,1.6,1.9,4,1.9,7.3V177h-6.1v-13.5
		c0-1.8-0.3-3.1-0.8-3.8c-0.6-0.7-1.4-1.1-2.5-1.1c-0.9,0-1.6,0.2-2.3,0.6c-0.6,0.4-1.1,0.9-1.5,1.6c0,0.3,0,0.5,0,0.7
		c0,0.2,0,0.4,0,0.6V177h-6.1v-13.5c0-1.8-0.3-3-0.8-3.8c-0.6-0.7-1.4-1.1-2.5-1.1c-0.8,0-1.6,0.2-2.2,0.5c-0.6,0.3-1.1,0.8-1.5,1.3
		V177h-6.1v-22.7H546.1z"/>
	<path class="st0" d="M587.5,177.5c-3.4,0-6-1-7.9-3.1c-1.9-2.1-2.9-4.8-2.9-8v-0.8c0-3.4,0.9-6.2,2.8-8.4s4.4-3.2,7.6-3.2
		c3.1,0,5.4,0.9,7,2.8c1.6,1.9,2.4,4.4,2.4,7.6v3.2H583l-0.1,0.1c0.1,1.6,0.6,2.8,1.4,3.8c0.8,1,2.1,1.4,3.8,1.4
		c1.4,0,2.5-0.1,3.5-0.4c1-0.3,2-0.7,3-1.3l1.7,3.8c-0.9,0.7-2.1,1.4-3.7,1.9C591,177.2,589.3,177.5,587.5,177.5z M587.1,158.6
		c-1.2,0-2.2,0.4-2.8,1.3c-0.7,0.8-1.1,2-1.2,3.4l0,0.1h7.5v-0.5c0-1.3-0.3-2.4-0.8-3.1C589.2,159,588.3,158.6,587.1,158.6z"/>
	<path class="st0" d="M605.7,154.3l0.3,3.3c0.8-1.2,1.7-2.1,2.8-2.7s2.3-1,3.7-1c2.3,0,4.1,0.7,5.4,2.2s1.9,3.8,1.9,7V177h-6.2
		v-13.9c0-1.6-0.3-2.8-0.9-3.5c-0.6-0.7-1.4-1-2.6-1c-0.9,0-1.7,0.2-2.4,0.5c-0.7,0.3-1.3,0.8-1.7,1.4V177H600v-22.7H605.7z"/>
	<path class="st0" d="M642.3,170.9l0.8,2.7h0.1l6.9-19.3h2.8l-9.9,26.4c-0.6,1.5-1.4,2.8-2.3,3.9c-0.9,1.1-2.3,1.6-4.1,1.6
		c-0.3,0-0.7,0-1.1-0.1c-0.4-0.1-0.7-0.1-0.9-0.2l0.3-2.1c0.2,0,0.4,0.1,0.8,0.1c0.4,0,0.6,0.1,0.8,0.1c1.1,0,2-0.4,2.6-1.2
		s1.2-1.8,1.7-3l1.2-3.1l-8.8-22.4h2.8L642.3,170.9z"/>
	<path class="st0" d="M677.3,168.7l0.4,1.7h0.1l0.4-1.6l6.7-22.4h6.5L680.8,177h-6.3l-10.4-30.6h6.5L677.3,168.7z"/>
	<path class="st0" d="M706.2,177c-0.2-0.5-0.4-1.1-0.6-1.6s-0.3-1.2-0.3-1.8c-0.6,1.1-1.5,2-2.5,2.8c-1,0.7-2.3,1.1-3.7,1.1
		c-2.4,0-4.2-0.6-5.5-1.8s-1.9-2.9-1.9-5c0-2.2,0.9-4,2.6-5.2s4.2-1.8,7.5-1.8h3.4v-1.8c0-1.1-0.3-1.9-0.9-2.5
		c-0.6-0.6-1.4-0.9-2.6-0.9c-1,0-1.8,0.2-2.3,0.7s-0.8,1.1-0.8,2h-5.9l0-0.1c-0.1-1.9,0.7-3.6,2.5-5s4.1-2.1,6.9-2.1
		c2.7,0,4.9,0.7,6.6,2.1c1.7,1.4,2.5,3.3,2.5,5.9v9.4c0,1.1,0.1,2.1,0.2,3s0.4,1.9,0.8,2.8H706.2z M700.6,172.9c1.1,0,2-0.3,2.9-0.8
		c0.8-0.5,1.4-1.1,1.7-1.8v-3.2h-3.4c-1.3,0-2.3,0.3-3,1c-0.7,0.6-1,1.4-1,2.4c0,0.8,0.2,1.4,0.7,1.8
		C699,172.7,699.7,172.9,700.6,172.9z"/>
	<path class="st0" d="M722.3,177h-6.1v-32.8h6.1V177z"/>
	<path class="st0" d="M733.8,177h-6.1v-32.8h6.1V177z"/>
	<path class="st0" d="M748.7,177.5c-3.4,0-6-1-7.9-3.1c-1.9-2.1-2.9-4.8-2.9-8v-0.8c0-3.4,0.9-6.2,2.8-8.4s4.4-3.2,7.6-3.2
		c3.1,0,5.4,0.9,7,2.8c1.6,1.9,2.4,4.4,2.4,7.6v3.2h-13.5l-0.1,0.1c0.1,1.6,0.6,2.8,1.4,3.8c0.8,1,2.1,1.4,3.8,1.4
		c1.4,0,2.5-0.1,3.5-0.4s2-0.7,3-1.3l1.7,3.8c-0.9,0.7-2.1,1.4-3.7,1.9C752.2,177.2,750.5,177.5,748.7,177.5z M748.3,158.6
		c-1.2,0-2.2,0.4-2.8,1.3c-0.7,0.8-1.1,2-1.2,3.4l0,0.1h7.5v-0.5c0-1.3-0.3-2.4-0.8-3.1C750.4,159,749.5,158.6,748.3,158.6z"/>
	<path class="st0" d="M767,154.3l0.3,3.3c0.8-1.2,1.7-2.1,2.8-2.7s2.3-1,3.7-1c2.3,0,4.1,0.7,5.4,2.2s1.9,3.8,1.9,7V177h-6.2v-13.9
		c0-1.6-0.3-2.8-0.9-3.5c-0.6-0.7-1.4-1-2.6-1c-0.9,0-1.7,0.2-2.4,0.5c-0.7,0.3-1.3,0.8-1.7,1.4V177h-6.1v-22.7H767z"/>
	<path class="st0" d="M799,177c-0.2-0.5-0.4-1.1-0.6-1.6s-0.3-1.2-0.3-1.8c-0.6,1.1-1.5,2-2.5,2.8c-1,0.7-2.3,1.1-3.7,1.1
		c-2.4,0-4.2-0.6-5.5-1.8s-1.9-2.9-1.9-5c0-2.2,0.9-4,2.6-5.2s4.2-1.8,7.5-1.8h3.4v-1.8c0-1.1-0.3-1.9-0.9-2.5
		c-0.6-0.6-1.4-0.9-2.6-0.9c-1,0-1.8,0.2-2.3,0.7s-0.8,1.1-0.8,2h-5.9l0-0.1c-0.1-1.9,0.7-3.6,2.5-5s4.1-2.1,6.9-2.1
		c2.7,0,4.9,0.7,6.6,2.1c1.7,1.4,2.5,3.3,2.5,5.9v9.4c0,1.1,0.1,2.1,0.2,3s0.4,1.9,0.8,2.8H799z M793.4,172.9c1.1,0,2-0.3,2.9-0.8
		c0.8-0.5,1.4-1.1,1.7-1.8v-3.2h-3.4c-1.3,0-2.3,0.3-3,1c-0.7,0.6-1,1.4-1,2.4c0,0.8,0.2,1.4,0.7,1.8
		C791.9,172.7,792.6,172.9,793.4,172.9z"/>
	<path class="st0" d="M820.7,159.6l-2.2-0.1c-0.9,0-1.7,0.2-2.2,0.6c-0.6,0.4-1,0.9-1.3,1.6V177h-6.1v-22.7h5.7l0.3,3.4
		c0.5-1.2,1.2-2.1,2.1-2.8s1.8-1,2.9-1c0.3,0,0.6,0,0.9,0.1c0.3,0,0.5,0.1,0.8,0.2L820.7,159.6z"/>
	<path class="st0" d="M827.2,176.7l-2.2,5.8h-1.7l1.5-5.9v-3.5h2.5V176.7z"/>
	<path class="st0" d="M854,156.5l-1.9-0.1c-1.6,0-2.9,0.4-3.9,1.3s-1.7,2.1-2.2,3.7V177h-2.5v-22.7h2.2l0.3,3.8v0.3
		c0.7-1.4,1.5-2.5,2.6-3.3s2.4-1.2,3.9-1.2c0.3,0,0.6,0,0.9,0.1c0.3,0,0.5,0.1,0.7,0.2L854,156.5z"/>
	<path class="st0" d="M866.3,177.5c-2.8,0-5.2-1.1-7.1-3.2s-2.8-4.8-2.8-8v-1.2c0-3.2,0.9-5.9,2.8-8.1c1.9-2.1,4.1-3.2,6.8-3.2
		c2.8,0,5,0.9,6.6,2.6c1.6,1.8,2.4,4.1,2.4,7.1v2.1h-16v0.6c0,2.6,0.7,4.7,2,6.4s3.1,2.6,5.4,2.6c1.6,0,2.9-0.2,4-0.7
		c1.1-0.4,2.1-1.1,2.8-1.9l1.1,1.7c-0.9,0.9-1.9,1.6-3.2,2.1S868.1,177.5,866.3,177.5z M866,156c-1.9,0-3.4,0.7-4.7,2.1
		c-1.3,1.4-2,3.2-2.2,5.3l0,0.1h13.3V163c0-2-0.6-3.6-1.7-4.9C869.6,156.7,868,156,866,156z"/>
	<path class="st0" d="M893.6,171.2c0-1.1-0.4-2-1.3-2.8s-2.5-1.4-4.7-1.9c-2.7-0.6-4.7-1.4-6-2.3c-1.3-1-1.9-2.3-1.9-4.1
		c0-1.7,0.7-3.2,2.2-4.4c1.5-1.2,3.4-1.8,5.8-1.8c2.6,0,4.6,0.6,6.1,1.9c1.5,1.3,2.2,2.9,2.1,4.8l0,0.1h-2.3c0-1.2-0.5-2.3-1.6-3.3
		c-1.1-0.9-2.5-1.4-4.3-1.4c-1.8,0-3.2,0.4-4.1,1.2c-0.9,0.8-1.4,1.7-1.4,2.8c0,1,0.4,1.9,1.2,2.6c0.8,0.7,2.4,1.3,4.7,1.8
		c2.7,0.6,4.7,1.4,6.1,2.5c1.3,1,2,2.5,2,4.3c0,1.9-0.8,3.4-2.3,4.6s-3.6,1.8-6.1,1.8c-2.8,0-4.9-0.7-6.5-2s-2.3-2.9-2.2-4.7l0-0.1
		h2.3c0.1,1.6,0.8,2.8,2,3.6s2.7,1.1,4.4,1.1c1.8,0,3.3-0.4,4.3-1.2C893,173.3,893.6,172.4,893.6,171.2z"/>
	<path class="st0" d="M920.2,166.3c0,3.4-0.8,6.1-2.3,8.1c-1.5,2-3.7,3-6.4,3c-1.6,0-3-0.3-4.2-0.9c-1.2-0.6-2.2-1.5-2.9-2.6v11.8
		h-2.5v-31.5h2.1l0.3,3.5c0.8-1.3,1.7-2.2,2.9-2.9c1.2-0.7,2.6-1,4.2-1c2.7,0,4.9,1.1,6.4,3.3c1.5,2.2,2.3,5.1,2.3,8.7V166.3z
		 M917.6,165.8c0-2.9-0.6-5.2-1.7-7.1s-2.8-2.7-5-2.7c-1.7,0-3.1,0.4-4.1,1.2c-1.1,0.8-1.9,1.9-2.4,3.1v10.9
		c0.6,1.2,1.4,2.2,2.5,2.9c1.1,0.7,2.4,1.1,4.1,1.1c2.2,0,3.9-0.8,5-2.5s1.7-3.8,1.7-6.6V165.8z"/>
	<path class="st0" d="M934.3,177.5c-2.8,0-5.2-1.1-7.1-3.2s-2.8-4.8-2.8-8v-1.2c0-3.2,0.9-5.9,2.8-8.1c1.9-2.1,4.1-3.2,6.8-3.2
		c2.8,0,5,0.9,6.6,2.6c1.6,1.8,2.4,4.1,2.4,7.1v2.1h-16v0.6c0,2.6,0.7,4.7,2,6.4s3.1,2.6,5.4,2.6c1.6,0,2.9-0.2,4-0.7
		c1.1-0.4,2.1-1.1,2.8-1.9l1.1,1.7c-0.9,0.9-1.9,1.6-3.2,2.1S936.2,177.5,934.3,177.5z M934,156c-1.9,0-3.4,0.7-4.7,2.1
		c-1.3,1.4-2,3.2-2.2,5.3l0,0.1h13.3V163c0-2-0.6-3.6-1.7-4.9C937.6,156.7,936,156,934,156z"/>
	<path class="st0" d="M956.4,175.3c1.7,0,3.1-0.5,4.4-1.4c1.3-0.9,1.9-2.3,1.9-4h2.2l0,0.1c0.1,2.1-0.8,3.9-2.5,5.3
		c-1.8,1.4-3.8,2.1-6.1,2.1c-3.1,0-5.5-1.1-7.2-3.2c-1.7-2.1-2.5-4.8-2.5-8.2v-0.9c0-3.3,0.8-6,2.5-8.2s4.1-3.2,7.1-3.2
		c2.5,0,4.6,0.7,6.2,2.2s2.5,3.4,2.4,5.8l0,0.1h-2.2c0-1.8-0.6-3.3-1.8-4.4c-1.2-1.1-2.7-1.6-4.5-1.6c-2.4,0-4.2,0.9-5.4,2.6
		c-1.2,1.7-1.8,3.9-1.8,6.6v0.9c0,2.7,0.6,4.9,1.7,6.6C952.1,174.5,953.9,175.3,956.4,175.3z"/>
	<path class="st0" d="M974.2,148.5v5.8h5v2.1h-5v14.8c0,1.5,0.3,2.5,0.8,3.2s1.3,0.9,2.2,0.9c0.4,0,0.8,0,1.2-0.1
		c0.4,0,0.8-0.1,1.3-0.2l0.4,1.9c-0.4,0.2-0.9,0.3-1.5,0.4c-0.6,0.1-1.2,0.1-1.8,0.1c-1.6,0-2.8-0.5-3.7-1.5c-0.9-1-1.3-2.6-1.3-4.8
		v-14.8h-3.9v-2.1h3.9v-5.8H974.2z"/>
	<path class="st0" d="M987.4,147.8h-2.5v-3.5h2.5V147.8z M987.4,177h-2.5v-22.7h2.5V177z"/>
	<path class="st0" d="M1000.8,171.3l0.7,2.7h0.1l0.8-2.7l6.2-17h2.6l-8.6,22.7h-2l-8.7-22.7h2.6L1000.8,171.3z"/>
	<path class="st0" d="M1029.4,177c-0.2-0.8-0.3-1.4-0.4-2c-0.1-0.6-0.1-1.1-0.1-1.7c-0.8,1.2-2,2.2-3.4,3c-1.4,0.8-3,1.2-4.7,1.2
		c-2.2,0-3.9-0.6-5.2-1.8c-1.2-1.2-1.8-2.8-1.8-4.7c0-2.1,0.9-3.8,2.7-5c1.8-1.3,4.3-1.9,7.3-1.9h5v-2.8c0-1.6-0.5-2.9-1.6-3.8
		c-1-0.9-2.5-1.4-4.4-1.4c-1.8,0-3.2,0.4-4.4,1.3c-1.2,0.9-1.7,2-1.7,3.2l-2.3,0l0-0.1c-0.1-1.7,0.7-3.2,2.3-4.5
		c1.6-1.3,3.7-2,6.2-2c2.5,0,4.5,0.6,6,1.9s2.3,3.1,2.3,5.5v11.2c0,0.8,0,1.6,0.1,2.3c0.1,0.8,0.2,1.5,0.5,2.2H1029.4z
		 M1021.2,175.2c1.8,0,3.4-0.4,4.8-1.3c1.4-0.8,2.4-1.9,3-3.2V166h-5.1c-2.3,0-4.1,0.5-5.5,1.5c-1.4,1-2,2.2-2,3.6
		c0,1.2,0.4,2.2,1.3,3C1018.5,174.9,1019.7,175.2,1021.2,175.2z"/>
	<path class="st0" d="M1040.3,154.3l0.2,3.8c0.7-1.3,1.7-2.4,2.9-3.1s2.7-1.1,4.3-1.1c1.7,0,3.2,0.4,4.4,1.3c1.2,0.8,2,2.1,2.5,3.8
		c0.7-1.6,1.7-2.8,2.9-3.7c1.3-0.9,2.8-1.4,4.6-1.4c2.4,0,4.3,0.8,5.6,2.4s2,4.1,2,7.5V177h-2.5v-13.3c0-2.8-0.5-4.8-1.5-5.9
		c-1-1.2-2.4-1.7-4.1-1.7c-1.9,0-3.5,0.6-4.5,1.8c-1.1,1.2-1.7,2.8-2,4.7c0,0.1,0,0.2,0,0.4c0,0.2,0,0.3,0,0.4V177h-2.5v-13.3
		c0-2.8-0.5-4.7-1.5-5.9c-1-1.2-2.4-1.8-4.1-1.8c-1.8,0-3.2,0.5-4.2,1.4s-1.8,2.1-2.2,3.7v16h-2.5v-22.7H1040.3z"/>
	<path class="st0" d="M1084.8,177.5c-2.8,0-5.2-1.1-7.1-3.2s-2.8-4.8-2.8-8v-1.2c0-3.2,0.9-5.9,2.8-8.1c1.9-2.1,4.1-3.2,6.8-3.2
		c2.8,0,5,0.9,6.6,2.6c1.6,1.8,2.4,4.1,2.4,7.1v2.1h-16v0.6c0,2.6,0.7,4.7,2,6.4s3.1,2.6,5.4,2.6c1.6,0,2.9-0.2,4-0.7
		c1.1-0.4,2.1-1.1,2.8-1.9l1.1,1.7c-0.9,0.9-1.9,1.6-3.2,2.1S1086.6,177.5,1084.8,177.5z M1084.5,156c-1.9,0-3.4,0.7-4.7,2.1
		c-1.3,1.4-2,3.2-2.2,5.3l0,0.1h13.3V163c0-2-0.6-3.6-1.7-4.9C1088.1,156.7,1086.5,156,1084.5,156z"/>
	<path class="st0" d="M1100.7,154.3l0.2,4c0.7-1.4,1.7-2.5,3-3.2c1.2-0.8,2.7-1.1,4.4-1.1c2.5,0,4.3,0.8,5.6,2.3
		c1.3,1.5,1.9,3.9,1.9,7V177h-2.5v-13.8c0-2.6-0.5-4.5-1.5-5.5c-1-1.1-2.4-1.6-4.1-1.6c-1.8,0-3.2,0.5-4.3,1.4
		c-1.1,0.9-1.9,2.2-2.4,3.7V177h-2.5v-22.7H1100.7z"/>
	<path class="st0" d="M1126.4,148.5v5.8h5v2.1h-5v14.8c0,1.5,0.3,2.5,0.8,3.2s1.3,0.9,2.2,0.9c0.4,0,0.8,0,1.2-0.1
		c0.4,0,0.8-0.1,1.3-0.2l0.4,1.9c-0.4,0.2-0.9,0.3-1.5,0.4c-0.6,0.1-1.2,0.1-1.8,0.1c-1.6,0-2.8-0.5-3.7-1.5c-0.9-1-1.3-2.6-1.3-4.8
		v-14.8h-3.9v-2.1h3.9v-5.8H1126.4z"/>
	<path class="st0" d="M1145.2,177.5c-2.8,0-5.2-1.1-7.1-3.2s-2.8-4.8-2.8-8v-1.2c0-3.2,0.9-5.9,2.8-8.1c1.9-2.1,4.1-3.2,6.8-3.2
		c2.8,0,5,0.9,6.6,2.6c1.6,1.8,2.4,4.1,2.4,7.1v2.1h-16v0.6c0,2.6,0.7,4.7,2,6.4s3.1,2.6,5.4,2.6c1.6,0,2.9-0.2,4-0.7
		c1.1-0.4,2.1-1.1,2.8-1.9l1.1,1.7c-0.9,0.9-1.9,1.6-3.2,2.1S1147,177.5,1145.2,177.5z M1144.9,156c-1.9,0-3.4,0.7-4.7,2.1
		c-1.3,1.4-2,3.2-2.2,5.3l0,0.1h13.3V163c0-2-0.6-3.6-1.7-4.9C1148.5,156.7,1146.9,156,1144.9,156z"/>
	<path class="st0" d="M1161.9,177h-2.9v-3.4h2.9V177z"/>
</g>
</svg>
