<?xml version="1.0" encoding="utf-8"?>
<!-- Generator: Adobe Illustrator 22.1.0, SVG Export Plug-In . SVG Version: 6.00 Build 0)  -->
<svg version="1.1" id="Capa_1" xmlns="http://www.w3.org/2000/svg" xmlns:xlink="http://www.w3.org/1999/xlink" x="0px" y="0px"
	 viewBox="0 0 1256 196" style="enable-background:new 0 0 1256 196;" xml:space="preserve">
<style type="text/css">
	.st0{fill:#54515C;}
</style>
<g>
	<path class="st0" d="M11.5,39.8v12.7H9V21.9h10.5c3.2,0,5.7,0.8,7.4,2.4c1.8,1.6,2.6,3.8,2.6,6.5c0,2.7-0.9,4.9-2.6,6.5
		c-1.8,1.6-4.2,2.4-7.4,2.4H11.5z M11.5,37.7h8c2.5,0,4.4-0.6,5.7-1.9c1.3-1.3,1.9-2.9,1.9-4.8c0-2-0.6-3.6-1.9-4.9
		c-1.3-1.3-3.2-1.9-5.7-1.9h-8V37.7z"/>
	<path class="st0" d="M49.1,52.5c-0.2-0.8-0.3-1.4-0.4-2c-0.1-0.6-0.1-1.1-0.1-1.7c-0.8,1.2-2,2.2-3.4,3s-3,1.2-4.7,1.2
		c-2.2,0-3.9-0.6-5.2-1.8c-1.2-1.2-1.8-2.8-1.8-4.7c0-2.1,0.9-3.8,2.7-5c1.8-1.3,4.3-1.9,7.3-1.9h5v-2.8c0-1.6-0.5-2.9-1.6-3.8
		s-2.5-1.4-4.4-1.4c-1.8,0-3.2,0.4-4.4,1.3c-1.2,0.9-1.7,2-1.7,3.2l-2.3,0l0-0.1c-0.1-1.7,0.7-3.2,2.3-4.5c1.6-1.3,3.7-2,6.2-2
		c2.5,0,4.5,0.6,6,1.9c1.5,1.3,2.3,3.1,2.3,5.5v11.2c0,0.8,0,1.6,0.1,2.3c0.1,0.8,0.2,1.5,0.5,2.2H49.1z M40.8,50.7
		c1.8,0,3.4-0.4,4.8-1.3c1.4-0.8,2.4-1.9,3-3.2v-4.7h-5.1c-2.3,0-4.1,0.5-5.5,1.5c-1.4,1-2,2.2-2,3.6c0,1.2,0.4,2.2,1.3,3
		C38.2,50.3,39.3,50.7,40.8,50.7z"/>
	<path class="st0" d="M68.3,32l-1.9-0.1c-1.6,0-2.9,0.4-3.9,1.3c-1,0.9-1.7,2.1-2.2,3.7v15.7h-2.5V29.8H60l0.3,3.8v0.3
		c0.7-1.4,1.5-2.5,2.6-3.3c1.1-0.8,2.4-1.2,3.9-1.2c0.3,0,0.6,0,0.9,0.1c0.3,0,0.5,0.1,0.7,0.2L68.3,32z"/>
	<path class="st0" d="M86.9,52.5c-0.2-0.8-0.3-1.4-0.4-2c-0.1-0.6-0.1-1.1-0.1-1.7c-0.8,1.2-2,2.2-3.4,3s-3,1.2-4.7,1.2
		c-2.2,0-3.9-0.6-5.2-1.8c-1.2-1.2-1.8-2.8-1.8-4.7c0-2.1,0.9-3.8,2.7-5c1.8-1.3,4.3-1.9,7.3-1.9h5v-2.8c0-1.6-0.5-2.9-1.6-3.8
		s-2.5-1.4-4.4-1.4c-1.8,0-3.2,0.4-4.4,1.3c-1.2,0.9-1.7,2-1.7,3.2l-2.3,0l0-0.1c-0.1-1.7,0.7-3.2,2.3-4.5c1.6-1.3,3.7-2,6.2-2
		c2.5,0,4.5,0.6,6,1.9c1.5,1.3,2.3,3.1,2.3,5.5v11.2c0,0.8,0,1.6,0.1,2.3c0.1,0.8,0.2,1.5,0.5,2.2H86.9z M78.6,50.7
		c1.8,0,3.4-0.4,4.8-1.3c1.4-0.8,2.4-1.9,3-3.2v-4.7h-5.1c-2.3,0-4.1,0.5-5.5,1.5c-1.4,1-2,2.2-2,3.6c0,1.2,0.4,2.2,1.3,3
		C75.9,50.3,77.1,50.7,78.6,50.7z"/>
	<path class="st0" d="M121,48.8c-0.7,1.3-1.7,2.4-2.9,3.1s-2.7,1.1-4.4,1.1c-2.4,0-4.3-0.8-5.6-2.4s-2-4.1-2-7.6V29.8h2.5V43
		c0,2.8,0.5,4.8,1.4,6c0.9,1.2,2.3,1.8,4,1.8c1.9,0,3.4-0.4,4.6-1.3c1.1-0.9,1.9-2,2.4-3.5V29.8h2.5v22.7h-2.2L121,48.8z"/>
	<path class="st0" d="M132.2,29.8l0.2,4c0.7-1.4,1.7-2.5,3-3.2c1.2-0.8,2.7-1.1,4.4-1.1c2.5,0,4.3,0.8,5.6,2.3
		c1.3,1.5,1.9,3.9,1.9,7v13.8h-2.5V38.7c0-2.6-0.5-4.5-1.5-5.5c-1-1.1-2.4-1.6-4.1-1.6c-1.8,0-3.2,0.5-4.3,1.4s-1.9,2.2-2.4,3.7
		v15.9H130V29.8H132.2z"/>
	<path class="st0" d="M168.4,24v5.8h5v2.1h-5v14.8c0,1.5,0.3,2.5,0.8,3.2c0.5,0.6,1.3,0.9,2.2,0.9c0.4,0,0.8,0,1.2-0.1
		s0.8-0.1,1.3-0.2l0.4,1.9c-0.4,0.2-0.9,0.3-1.5,0.4c-0.6,0.1-1.2,0.1-1.8,0.1c-1.6,0-2.8-0.5-3.7-1.5c-0.9-1-1.3-2.6-1.3-4.8V31.8
		h-3.9v-2.1h3.9V24H168.4z"/>
	<path class="st0" d="M189.2,32l-1.9-0.1c-1.6,0-2.9,0.4-3.9,1.3c-1,0.9-1.7,2.1-2.2,3.7v15.7h-2.5V29.8h2.2l0.3,3.8v0.3
		c0.7-1.4,1.5-2.5,2.6-3.3c1.1-0.8,2.4-1.2,3.9-1.2c0.3,0,0.6,0,0.9,0.1c0.3,0,0.5,0.1,0.7,0.2L189.2,32z"/>
	<path class="st0" d="M207.7,52.5c-0.2-0.8-0.3-1.4-0.4-2c-0.1-0.6-0.1-1.1-0.1-1.7c-0.8,1.2-2,2.2-3.4,3s-3,1.2-4.7,1.2
		c-2.2,0-3.9-0.6-5.2-1.8c-1.2-1.2-1.8-2.8-1.8-4.7c0-2.1,0.9-3.8,2.7-5c1.8-1.3,4.3-1.9,7.3-1.9h5v-2.8c0-1.6-0.5-2.9-1.6-3.8
		s-2.5-1.4-4.4-1.4c-1.8,0-3.2,0.4-4.4,1.3c-1.2,0.9-1.7,2-1.7,3.2l-2.3,0l0-0.1c-0.1-1.7,0.7-3.2,2.3-4.5c1.6-1.3,3.7-2,6.2-2
		c2.5,0,4.5,0.6,6,1.9c1.5,1.3,2.3,3.1,2.3,5.5v11.2c0,0.8,0,1.6,0.1,2.3c0.1,0.8,0.2,1.5,0.5,2.2H207.7z M199.5,50.7
		c1.8,0,3.4-0.4,4.8-1.3c1.4-0.8,2.4-1.9,3-3.2v-4.7h-5.1c-2.3,0-4.1,0.5-5.5,1.5c-1.4,1-2,2.2-2,3.6c0,1.2,0.4,2.2,1.3,3
		C196.8,50.3,198,50.7,199.5,50.7z"/>
	<path class="st0" d="M218.7,29.8l0.2,4c0.7-1.4,1.7-2.5,3-3.2c1.2-0.8,2.7-1.1,4.4-1.1c2.5,0,4.3,0.8,5.6,2.3
		c1.3,1.5,1.9,3.9,1.9,7v13.8h-2.5V38.7c0-2.6-0.5-4.5-1.5-5.5c-1-1.1-2.4-1.6-4.1-1.6c-1.8,0-3.2,0.5-4.3,1.4s-1.9,2.2-2.4,3.7
		v15.9h-2.5V29.8H218.7z"/>
	<path class="st0" d="M254,46.7c0-1.1-0.4-2-1.3-2.8s-2.5-1.4-4.7-1.9c-2.7-0.6-4.7-1.4-6-2.3s-1.9-2.3-1.9-4.1
		c0-1.7,0.7-3.2,2.2-4.4c1.5-1.2,3.4-1.8,5.8-1.8c2.6,0,4.6,0.6,6.1,1.9c1.5,1.3,2.2,2.9,2.1,4.8l0,0.1h-2.3c0-1.2-0.5-2.3-1.6-3.3
		c-1.1-0.9-2.5-1.4-4.3-1.4c-1.8,0-3.2,0.4-4.1,1.2c-0.9,0.8-1.4,1.7-1.4,2.8c0,1,0.4,1.9,1.2,2.6s2.4,1.3,4.7,1.8
		c2.7,0.6,4.7,1.4,6.1,2.5c1.3,1,2,2.5,2,4.3c0,1.9-0.8,3.4-2.3,4.6c-1.5,1.2-3.6,1.8-6.1,1.8c-2.8,0-4.9-0.7-6.5-2
		c-1.6-1.3-2.3-2.9-2.2-4.7l0-0.1h2.3c0.1,1.6,0.8,2.8,2,3.6c1.2,0.7,2.7,1.1,4.4,1.1c1.8,0,3.3-0.4,4.3-1.2S254,47.9,254,46.7z"/>
	<path class="st0" d="M280.6,41.8c0,3.4-0.8,6.1-2.3,8.1c-1.5,2-3.7,3-6.4,3c-1.6,0-3-0.3-4.2-0.9c-1.2-0.6-2.2-1.5-2.9-2.6v11.8
		h-2.5V29.8h2.1l0.3,3.5c0.8-1.3,1.7-2.2,2.9-2.9c1.2-0.7,2.6-1,4.2-1c2.7,0,4.9,1.1,6.4,3.3c1.5,2.2,2.3,5.1,2.3,8.7V41.8z
		 M278.1,41.3c0-2.9-0.6-5.2-1.7-7.1c-1.1-1.8-2.8-2.7-5-2.7c-1.7,0-3.1,0.4-4.1,1.2c-1.1,0.8-1.9,1.9-2.4,3.1v10.9
		c0.6,1.2,1.4,2.2,2.5,2.9c1.1,0.7,2.4,1.1,4.1,1.1c2.2,0,3.9-0.8,5-2.5c1.1-1.7,1.7-3.8,1.7-6.6V41.3z"/>
	<path class="st0" d="M284.9,40.8c0-3.3,0.9-6.1,2.8-8.2c1.8-2.1,4.3-3.2,7.3-3.2c3,0,5.5,1.1,7.3,3.2c1.8,2.1,2.8,4.9,2.8,8.2v0.7
		c0,3.4-0.9,6.1-2.7,8.2S298,53,295,53c-3.1,0-5.5-1.1-7.3-3.2c-1.8-2.1-2.8-4.9-2.8-8.2V40.8z M287.4,41.5c0,2.6,0.7,4.8,2,6.6
		c1.3,1.8,3.2,2.7,5.6,2.7c2.3,0,4.2-0.9,5.5-2.7s2-4,2-6.6v-0.7c0-2.6-0.7-4.8-2-6.6c-1.3-1.8-3.2-2.7-5.5-2.7
		c-2.4,0-4.2,0.9-5.5,2.7c-1.3,1.8-2,4-2,6.6V41.5z"/>
	<path class="st0" d="M320.7,32l-1.9-0.1c-1.6,0-2.9,0.4-3.9,1.3c-1,0.9-1.7,2.1-2.2,3.7v15.7h-2.5V29.8h2.2l0.3,3.8v0.3
		c0.7-1.4,1.5-2.5,2.6-3.3c1.1-0.8,2.4-1.2,3.9-1.2c0.3,0,0.6,0,0.9,0.1c0.3,0,0.5,0.1,0.7,0.2L320.7,32z"/>
	<path class="st0" d="M329.5,24v5.8h5v2.1h-5v14.8c0,1.5,0.3,2.5,0.8,3.2c0.5,0.6,1.3,0.9,2.2,0.9c0.4,0,0.8,0,1.2-0.1
		s0.8-0.1,1.3-0.2l0.4,1.9c-0.4,0.2-0.9,0.3-1.5,0.4c-0.6,0.1-1.2,0.1-1.8,0.1c-1.6,0-2.8-0.5-3.7-1.5c-0.9-1-1.3-2.6-1.3-4.8V31.8
		H323v-2.1h3.9V24H329.5z"/>
	<path class="st0" d="M348.3,53c-2.8,0-5.2-1.1-7.1-3.2s-2.8-4.8-2.8-8v-1.2c0-3.2,0.9-5.9,2.8-8.1s4.1-3.2,6.8-3.2
		c2.8,0,5,0.9,6.6,2.6c1.6,1.8,2.4,4.1,2.4,7.1v2.1h-16v0.6c0,2.6,0.7,4.7,2,6.4c1.4,1.7,3.1,2.6,5.4,2.6c1.6,0,2.9-0.2,4-0.7
		c1.1-0.4,2.1-1.1,2.8-1.9l1.1,1.7c-0.9,0.9-1.9,1.6-3.2,2.1S350.2,53,348.3,53z M348,31.5c-1.9,0-3.4,0.7-4.7,2.1
		c-1.3,1.4-2,3.2-2.2,5.3l0,0.1h13.3v-0.6c0-2-0.6-3.6-1.7-4.9C351.6,32.2,350,31.5,348,31.5z"/>
	<path class="st0" d="M374.6,29.8l0.2,3.8c0.7-1.3,1.7-2.4,2.9-3.1s2.7-1.1,4.3-1.1c1.7,0,3.2,0.4,4.4,1.3c1.2,0.8,2,2.1,2.5,3.8
		c0.7-1.6,1.7-2.8,2.9-3.8c1.3-0.9,2.8-1.4,4.6-1.4c2.4,0,4.3,0.8,5.6,2.4s2,4.1,2,7.5v13.3h-2.5V39.2c0-2.8-0.5-4.8-1.5-5.9
		s-2.4-1.7-4.1-1.7c-1.9,0-3.5,0.6-4.5,1.8c-1.1,1.2-1.7,2.8-2,4.7c0,0.1,0,0.2,0,0.4c0,0.2,0,0.3,0,0.4v13.7h-2.5V39.2
		c0-2.8-0.5-4.7-1.5-5.9c-1-1.2-2.4-1.8-4.1-1.8c-1.8,0-3.2,0.5-4.2,1.4c-1,0.9-1.8,2.1-2.2,3.7v16h-2.5V29.8H374.6z"/>
	<path class="st0" d="M425,52.5c-0.2-0.8-0.3-1.4-0.4-2c-0.1-0.6-0.1-1.1-0.1-1.7c-0.8,1.2-2,2.2-3.4,3s-3,1.2-4.7,1.2
		c-2.2,0-3.9-0.6-5.2-1.8c-1.2-1.2-1.8-2.8-1.8-4.7c0-2.1,0.9-3.8,2.7-5c1.8-1.3,4.3-1.9,7.3-1.9h5v-2.8c0-1.6-0.5-2.9-1.6-3.8
		s-2.5-1.4-4.4-1.4c-1.8,0-3.2,0.4-4.4,1.3c-1.2,0.9-1.7,2-1.7,3.2l-2.3,0l0-0.1c-0.1-1.7,0.7-3.2,2.3-4.5c1.6-1.3,3.7-2,6.2-2
		c2.5,0,4.5,0.6,6,1.9c1.5,1.3,2.3,3.1,2.3,5.5v11.2c0,0.8,0,1.6,0.1,2.3c0.1,0.8,0.2,1.5,0.5,2.2H425z M416.7,50.7
		c1.8,0,3.4-0.4,4.8-1.3c1.4-0.8,2.4-1.9,3-3.2v-4.7h-5.1c-2.3,0-4.1,0.5-5.5,1.5c-1.4,1-2,2.2-2,3.6c0,1.2,0.4,2.2,1.3,3
		C414,50.3,415.2,50.7,416.7,50.7z M421.4,21h3.1l0.1,0.1l-5.2,5.5h-2.3L421.4,21z"/>
	<path class="st0" d="M447.3,46.7c0-1.1-0.4-2-1.3-2.8s-2.5-1.4-4.7-1.9c-2.7-0.6-4.7-1.4-6-2.3s-1.9-2.3-1.9-4.1
		c0-1.7,0.7-3.2,2.2-4.4c1.5-1.2,3.4-1.8,5.8-1.8c2.6,0,4.6,0.6,6.1,1.9c1.5,1.3,2.2,2.9,2.1,4.8l0,0.1h-2.3c0-1.2-0.5-2.3-1.6-3.3
		c-1.1-0.9-2.5-1.4-4.3-1.4c-1.8,0-3.2,0.4-4.1,1.2c-0.9,0.8-1.4,1.7-1.4,2.8c0,1,0.4,1.9,1.2,2.6s2.4,1.3,4.7,1.8
		c2.7,0.6,4.7,1.4,6.1,2.5c1.3,1,2,2.5,2,4.3c0,1.9-0.8,3.4-2.3,4.6c-1.5,1.2-3.6,1.8-6.1,1.8c-2.8,0-4.9-0.7-6.5-2
		c-1.6-1.3-2.3-2.9-2.2-4.7l0-0.1h2.3c0.1,1.6,0.8,2.8,2,3.6c1.2,0.7,2.7,1.1,4.4,1.1c1.8,0,3.3-0.4,4.3-1.2S447.3,47.9,447.3,46.7z
		"/>
	<path class="st0" d="M477.4,46.2c0-0.7-0.3-1.2-1-1.7c-0.7-0.5-1.9-0.9-3.6-1.3c-2.7-0.5-4.7-1.3-6.1-2.4c-1.4-1.1-2.1-2.5-2.1-4.4
		c0-1.9,0.8-3.6,2.5-5s3.9-2.1,6.6-2.1c2.9,0,5.2,0.7,6.9,2.1c1.7,1.4,2.6,3.1,2.5,5.1l0,0.1h-5.9c0-0.9-0.3-1.7-0.9-2.2
		c-0.6-0.6-1.4-0.9-2.5-0.9c-1,0-1.8,0.2-2.3,0.7c-0.6,0.5-0.9,1.1-0.9,1.8c0,0.7,0.3,1.3,0.9,1.7c0.6,0.4,1.8,0.8,3.6,1.2
		c2.8,0.6,4.9,1.4,6.2,2.5c1.4,1.1,2,2.6,2,4.5c0,2-0.9,3.7-2.6,5c-1.8,1.3-4.1,2-6.9,2c-3,0-5.4-0.8-7.2-2.3
		c-1.8-1.5-2.6-3.3-2.5-5.2l0-0.1h5.6c0,1.2,0.4,2.1,1.2,2.6c0.8,0.5,1.7,0.8,3,0.8c1.1,0,2-0.2,2.6-0.7S477.4,47,477.4,46.2z"/>
	<path class="st0" d="M497.1,53c-3.4,0-6-1-7.9-3.1s-2.9-4.8-2.9-8V41c0-3.4,0.9-6.2,2.8-8.4s4.4-3.2,7.6-3.2c3.1,0,5.4,0.9,7,2.8
		c1.6,1.9,2.4,4.4,2.4,7.6v3.2h-13.5l-0.1,0.1c0.1,1.6,0.6,2.8,1.4,3.8c0.8,1,2.1,1.4,3.8,1.4c1.4,0,2.5-0.1,3.5-0.4
		c1-0.3,2-0.7,3-1.3l1.7,3.8c-0.9,0.7-2.1,1.4-3.7,1.9C500.7,52.7,499,53,497.1,53z M496.7,34.1c-1.2,0-2.2,0.4-2.8,1.3
		c-0.7,0.8-1.1,2-1.2,3.4l0,0.1h7.5v-0.5c0-1.3-0.3-2.4-0.8-3.1C498.8,34.5,498,34.1,496.7,34.1z"/>
	<path class="st0" d="M508.9,41.3c0-3.6,0.8-6.5,2.3-8.7c1.6-2.2,3.7-3.3,6.6-3.3c1.3,0,2.4,0.3,3.4,0.9c1,0.6,1.8,1.4,2.5,2.5
		l0.5-2.9h5.3v22.6c0,3-1,5.2-2.9,6.9c-1.9,1.6-4.6,2.4-8.1,2.4c-1.1,0-2.4-0.2-3.7-0.5c-1.3-0.3-2.5-0.7-3.6-1.3l1-4.6
		c0.9,0.4,1.9,0.8,2.9,1c1,0.2,2.1,0.3,3.2,0.3c1.7,0,2.9-0.4,3.7-1.1s1.2-1.8,1.2-3.3v-2.1c-0.7,0.9-1.5,1.5-2.4,2
		c-0.9,0.4-2,0.7-3.1,0.7c-2.8,0-5-1-6.5-3.1c-1.6-2-2.3-4.7-2.3-8.1V41.3z M515,41.8c0,2,0.3,3.6,1,4.7c0.7,1.1,1.8,1.7,3.3,1.7
		c0.9,0,1.7-0.2,2.4-0.5s1.2-0.8,1.6-1.5v-9.9c-0.4-0.7-0.9-1.2-1.6-1.6s-1.4-0.6-2.3-0.6c-1.5,0-2.6,0.7-3.3,2
		c-0.7,1.3-1,3.1-1,5.2V41.8z"/>
	<path class="st0" d="M548,49.2c-0.7,1.2-1.6,2.2-2.7,2.8c-1.1,0.7-2.3,1-3.8,1c-2.4,0-4.3-0.8-5.6-2.4c-1.4-1.6-2-4.1-2-7.6V29.8
		h6.1V43c0,2,0.3,3.4,0.8,4.1c0.5,0.7,1.4,1.1,2.5,1.1c1,0,1.8-0.2,2.5-0.5c0.7-0.3,1.3-0.8,1.7-1.4V29.8h6.1v22.7h-5.1L548,49.2z"
		/>
	<path class="st0" d="M570.3,35.1l-2.2-0.1c-0.9,0-1.7,0.2-2.2,0.6c-0.6,0.4-1,0.9-1.3,1.6v15.4h-6.1V29.8h5.7l0.3,3.4
		c0.5-1.2,1.2-2.1,2.1-2.8c0.8-0.7,1.8-1,2.9-1c0.3,0,0.6,0,0.9,0.1c0.3,0,0.5,0.1,0.8,0.2L570.3,35.1z"/>
	<path class="st0" d="M572.1,40.9c0-3.4,0.9-6.2,2.8-8.3c1.9-2.2,4.5-3.2,7.9-3.2c3.4,0,6,1.1,7.9,3.2c1.9,2.2,2.9,4.9,2.9,8.3v0.4
		c0,3.4-0.9,6.2-2.8,8.4c-1.9,2.1-4.5,3.2-7.9,3.2c-3.4,0-6-1.1-7.9-3.2c-1.9-2.1-2.8-4.9-2.8-8.4V40.9z M578.2,41.4
		c0,2.1,0.4,3.7,1.1,5c0.7,1.3,1.9,1.9,3.5,1.9c1.6,0,2.7-0.6,3.5-1.9c0.7-1.3,1.1-2.9,1.1-5v-0.4c0-2-0.4-3.7-1.1-4.9
		c-0.7-1.3-1.9-1.9-3.5-1.9c-1.6,0-2.7,0.6-3.5,1.9c-0.7,1.3-1.1,2.9-1.1,4.9V41.4z"/>
	<path class="st0" d="M616.3,43l0.3,1.3h0.1l4.3-14.5h6.6l-9.2,26.1c-0.6,1.6-1.5,3-2.6,4.1s-2.8,1.7-5,1.7c-0.5,0-1,0-1.4-0.1
		c-0.4-0.1-1-0.2-1.6-0.4l0.7-4.5c0.2,0,0.4,0.1,0.6,0.1c0.2,0,0.4,0,0.6,0c1,0,1.8-0.2,2.3-0.7c0.5-0.5,1-1.1,1.3-1.9l0.7-1.8
		l-8.1-22.7h6.6L616.3,43z"/>
	<path class="st0" d="M650.6,53c-3.4,0-6-1-7.9-3.1c-1.9-2.1-2.9-4.8-2.9-8V41c0-3.4,0.9-6.2,2.8-8.4s4.4-3.2,7.6-3.2
		c3.1,0,5.4,0.9,7,2.8c1.6,1.9,2.4,4.4,2.4,7.6v3.2h-13.5l-0.1,0.1c0.1,1.6,0.6,2.8,1.4,3.8c0.8,1,2.1,1.4,3.8,1.4
		c1.4,0,2.5-0.1,3.5-0.4c1-0.3,2-0.7,3-1.3l1.7,3.8c-0.9,0.7-2.1,1.4-3.7,1.9C654.1,52.7,652.4,53,650.6,53z M650.2,34.1
		c-1.2,0-2.2,0.4-2.8,1.3c-0.7,0.8-1.1,2-1.2,3.4l0,0.1h7.5v-0.5c0-1.3-0.3-2.4-0.8-3.1C652.3,34.5,651.4,34.1,650.2,34.1z"/>
	<path class="st0" d="M664.7,52.5V34.1h-3.4v-4.3h3.4v-1.6c0-2.9,0.9-5.1,2.6-6.6c1.7-1.5,4.2-2.3,7.4-2.3c1.1,0,2.2,0.1,3.2,0.3
		c1.1,0.2,2.3,0.5,3.7,0.9l-0.9,4.8c-1-0.3-2-0.5-2.8-0.7s-1.8-0.3-2.9-0.3c-1.4,0-2.5,0.3-3.2,1c-0.7,0.6-1.1,1.6-1.1,2.8v1.6h4.5
		v4.3h-4.5v18.4H664.7z M684.5,52.5h-6.1V29.8h6.1V52.5z"/>
	<path class="st0" d="M699,48.3c1.1,0,1.9-0.3,2.5-1c0.6-0.6,0.9-1.5,0.9-2.6h5.6l0,0.1c0.1,2.3-0.8,4.2-2.6,5.8S701.6,53,699,53
		c-3.4,0-6-1.1-7.8-3.2c-1.8-2.1-2.8-4.9-2.8-8.2v-0.6c0-3.3,0.9-6.1,2.7-8.2c1.8-2.2,4.4-3.2,7.8-3.2c2.8,0,5,0.8,6.7,2.4
		s2.5,3.7,2.5,6.3l0,0.1h-5.6c0-1.2-0.3-2.2-0.9-2.9c-0.6-0.8-1.5-1.2-2.6-1.2c-1.6,0-2.7,0.6-3.4,1.9c-0.7,1.3-1,2.9-1,4.9v0.6
		c0,2,0.3,3.6,1,4.9C696.2,47.6,697.4,48.3,699,48.3z"/>
	<path class="st0" d="M718.1,24.3H712v-4.6h6.1V24.3z M718.1,52.5H712V29.8h6.1V52.5z"/>
	<path class="st0" d="M733,53c-3.4,0-6-1-7.9-3.1c-1.9-2.1-2.9-4.8-2.9-8V41c0-3.4,0.9-6.2,2.8-8.4s4.4-3.2,7.6-3.2
		c3.1,0,5.4,0.9,7,2.8c1.6,1.9,2.4,4.4,2.4,7.6v3.2h-13.5l-0.1,0.1c0.1,1.6,0.6,2.8,1.4,3.8c0.8,1,2.1,1.4,3.8,1.4
		c1.4,0,2.5-0.1,3.5-0.4c1-0.3,2-0.7,3-1.3l1.7,3.8c-0.9,0.7-2.1,1.4-3.7,1.9C736.5,52.7,734.9,53,733,53z M732.6,34.1
		c-1.2,0-2.2,0.4-2.8,1.3c-0.7,0.8-1.1,2-1.2,3.4l0,0.1h7.5v-0.5c0-1.3-0.3-2.4-0.8-3.1C734.7,34.5,733.8,34.1,732.6,34.1z"/>
	<path class="st0" d="M751.3,29.8l0.3,3.3c0.8-1.2,1.7-2.1,2.8-2.7s2.3-1,3.7-1c2.3,0,4.1,0.7,5.4,2.2c1.3,1.5,1.9,3.8,1.9,7v13.9
		h-6.2V38.6c0-1.6-0.3-2.8-0.9-3.5c-0.6-0.7-1.4-1-2.6-1c-0.9,0-1.7,0.2-2.4,0.5c-0.7,0.3-1.3,0.8-1.7,1.4v16.4h-6.1V29.8H751.3z"/>
	<path class="st0" d="M777.3,24.2v5.6h3.8v4.3h-3.8v11.6c0,0.9,0.2,1.5,0.6,1.9s0.9,0.6,1.5,0.6c0.3,0,0.6,0,0.8-0.1
		c0.2,0,0.5-0.1,0.8-0.2l0.5,4.4c-0.6,0.2-1.2,0.4-1.8,0.5s-1.2,0.2-1.9,0.2c-2.1,0-3.7-0.6-4.9-1.7s-1.7-3-1.7-5.5V34.1h-3.3v-4.3
		h3.3v-5.6H777.3z"/>
	<path class="st0" d="M794.8,53c-3.4,0-6-1-7.9-3.1c-1.9-2.1-2.9-4.8-2.9-8V41c0-3.4,0.9-6.2,2.8-8.4s4.4-3.2,7.6-3.2
		c3.1,0,5.4,0.9,7,2.8c1.6,1.9,2.4,4.4,2.4,7.6v3.2h-13.5l-0.1,0.1c0.1,1.6,0.6,2.8,1.4,3.8c0.8,1,2.1,1.4,3.8,1.4
		c1.4,0,2.5-0.1,3.5-0.4c1-0.3,2-0.7,3-1.3l1.7,3.8c-0.9,0.7-2.1,1.4-3.7,1.9C798.3,52.7,796.6,53,794.8,53z M794.4,34.1
		c-1.2,0-2.2,0.4-2.8,1.3c-0.7,0.8-1.1,2-1.2,3.4l0,0.1h7.5v-0.5c0-1.3-0.3-2.4-0.8-3.1C796.5,34.5,795.6,34.1,794.4,34.1z"/>
	<path class="st0" d="M810.8,52.1l-2.2,5.8h-1.7l1.5-5.9v-3.5h2.5V52.1z"/>
	<path class="st0" d="M840.7,46.7c0-1.1-0.4-2-1.3-2.8s-2.5-1.4-4.7-1.9c-2.7-0.6-4.7-1.4-6-2.3c-1.3-1-1.9-2.3-1.9-4.1
		c0-1.7,0.7-3.2,2.2-4.4c1.5-1.2,3.4-1.8,5.8-1.8c2.6,0,4.6,0.6,6.1,1.9c1.5,1.3,2.2,2.9,2.1,4.8l0,0.1h-2.3c0-1.2-0.5-2.3-1.6-3.3
		s-2.5-1.4-4.3-1.4c-1.8,0-3.2,0.4-4.1,1.2c-0.9,0.8-1.4,1.7-1.4,2.8c0,1,0.4,1.9,1.2,2.6s2.4,1.3,4.7,1.8c2.7,0.6,4.7,1.4,6.1,2.5
		c1.3,1,2,2.5,2,4.3c0,1.9-0.8,3.4-2.3,4.6c-1.5,1.2-3.6,1.8-6.1,1.8c-2.8,0-4.9-0.7-6.5-2c-1.6-1.3-2.3-2.9-2.2-4.7l0-0.1h2.3
		c0.1,1.6,0.8,2.8,2,3.6c1.2,0.7,2.7,1.1,4.4,1.1c1.8,0,3.3-0.4,4.3-1.2C840.2,48.8,840.7,47.9,840.7,46.7z"/>
	<path class="st0" d="M857.5,53c-2.8,0-5.2-1.1-7.1-3.2s-2.8-4.8-2.8-8v-1.2c0-3.2,0.9-5.9,2.8-8.1c1.9-2.1,4.1-3.2,6.8-3.2
		c2.8,0,5,0.9,6.6,2.6s2.4,4.1,2.4,7.1v2.1h-16v0.6c0,2.6,0.7,4.7,2,6.4s3.1,2.6,5.4,2.6c1.6,0,2.9-0.2,4-0.7
		c1.1-0.4,2.1-1.1,2.8-1.9l1.1,1.7c-0.9,0.9-1.9,1.6-3.2,2.1S859.3,53,857.5,53z M857.2,31.5c-1.9,0-3.4,0.7-4.7,2.1
		c-1.3,1.4-2,3.2-2.2,5.3l0,0.1h13.3v-0.6c0-2-0.6-3.6-1.7-4.9S859.2,31.5,857.2,31.5z"/>
	<path class="st0" d="M899.9,41.8c0,3.4-0.8,6.1-2.3,8.1c-1.5,2-3.7,3-6.4,3c-1.6,0-3-0.3-4.2-0.9c-1.2-0.6-2.2-1.5-2.9-2.6v11.8
		h-2.5V29.8h2.1l0.3,3.5c0.8-1.3,1.7-2.2,2.9-2.9s2.6-1,4.2-1c2.7,0,4.9,1.1,6.4,3.3c1.5,2.2,2.3,5.1,2.3,8.7V41.8z M897.4,41.3
		c0-2.9-0.6-5.2-1.7-7.1c-1.1-1.8-2.8-2.7-5-2.7c-1.7,0-3.1,0.4-4.1,1.2s-1.9,1.9-2.4,3.1v10.9c0.6,1.2,1.4,2.2,2.5,2.9
		c1.1,0.7,2.4,1.1,4.1,1.1c2.2,0,3.9-0.8,5-2.5s1.7-3.8,1.7-6.6V41.3z"/>
	<path class="st0" d="M916,32l-1.9-0.1c-1.6,0-2.9,0.4-3.9,1.3c-1,0.9-1.7,2.1-2.2,3.7v15.7h-2.5V29.8h2.2l0.3,3.8v0.3
		c0.7-1.4,1.5-2.5,2.6-3.3s2.4-1.2,3.9-1.2c0.3,0,0.6,0,0.9,0.1c0.3,0,0.5,0.1,0.7,0.2L916,32z"/>
	<path class="st0" d="M928.3,53c-2.8,0-5.2-1.1-7.1-3.2s-2.8-4.8-2.8-8v-1.2c0-3.2,0.9-5.9,2.8-8.1c1.9-2.1,4.1-3.2,6.8-3.2
		c2.8,0,5,0.9,6.6,2.6s2.4,4.1,2.4,7.1v2.1h-16v0.6c0,2.6,0.7,4.7,2,6.4s3.1,2.6,5.4,2.6c1.6,0,2.9-0.2,4-0.7
		c1.1-0.4,2.1-1.1,2.8-1.9l1.1,1.7c-0.9,0.9-1.9,1.6-3.2,2.1S930.1,53,928.3,53z M928,31.5c-1.9,0-3.4,0.7-4.7,2.1
		c-1.3,1.4-2,3.2-2.2,5.3l0,0.1h13.3v-0.6c0-2-0.6-3.6-1.7-4.9S930,31.5,928,31.5z"/>
	<path class="st0" d="M948.2,46.8l0.7,2.7h0.1l0.8-2.7l6.2-17h2.6L950,52.5h-2l-8.7-22.7h2.6L948.2,46.8z"/>
	<path class="st0" d="M971,53c-2.8,0-5.2-1.1-7.1-3.2s-2.8-4.8-2.8-8v-1.2c0-3.2,0.9-5.9,2.8-8.1c1.9-2.1,4.1-3.2,6.8-3.2
		c2.8,0,5,0.9,6.6,2.6s2.4,4.1,2.4,7.1v2.1h-16v0.6c0,2.6,0.7,4.7,2,6.4s3.1,2.6,5.4,2.6c1.6,0,2.9-0.2,4-0.7
		c1.1-0.4,2.1-1.1,2.8-1.9l1.1,1.7c-0.9,0.9-1.9,1.6-3.2,2.1S972.8,53,971,53z M970.7,31.5c-1.9,0-3.4,0.7-4.7,2.1
		c-1.3,1.4-2,3.2-2.2,5.3l0,0.1h13.3v-0.6c0-2-0.6-3.6-1.7-4.9S972.7,31.5,970.7,31.5z M973.7,21h3.1l0.1,0.1l-5.2,5.5h-2.3
		L973.7,21z"/>
	<path class="st0" d="M1003.5,50.8c1.7,0,3.1-0.5,4.4-1.4c1.3-0.9,1.9-2.3,1.9-4h2.2l0,0.1c0.1,2.1-0.8,3.9-2.5,5.3
		c-1.8,1.4-3.8,2.1-6.1,2.1c-3.1,0-5.5-1.1-7.2-3.2c-1.7-2.1-2.5-4.8-2.5-8.2v-0.9c0-3.3,0.8-6,2.5-8.2s4.1-3.2,7.1-3.2
		c2.5,0,4.6,0.7,6.2,2.2c1.7,1.5,2.5,3.4,2.4,5.8l0,0.1h-2.2c0-1.8-0.6-3.3-1.8-4.4c-1.2-1.1-2.7-1.6-4.5-1.6
		c-2.4,0-4.2,0.9-5.4,2.6c-1.2,1.7-1.8,3.9-1.8,6.6v0.9c0,2.7,0.6,4.9,1.7,6.6C999.2,49.9,1001.1,50.8,1003.5,50.8z"/>
	<path class="st0" d="M1016,40.8c0-3.3,0.9-6.1,2.8-8.2c1.8-2.1,4.3-3.2,7.3-3.2c3,0,5.5,1.1,7.3,3.2s2.8,4.9,2.8,8.2v0.7
		c0,3.4-0.9,6.1-2.7,8.2s-4.3,3.2-7.3,3.2c-3.1,0-5.5-1.1-7.3-3.2c-1.8-2.1-2.8-4.9-2.8-8.2V40.8z M1018.5,41.5c0,2.6,0.7,4.8,2,6.6
		s3.2,2.7,5.6,2.7c2.3,0,4.2-0.9,5.5-2.7s2-4,2-6.6v-0.7c0-2.6-0.7-4.8-2-6.6c-1.3-1.8-3.2-2.7-5.5-2.7c-2.4,0-4.2,0.9-5.5,2.7
		c-1.3,1.8-2,4-2,6.6V41.5z"/>
	<path class="st0" d="M1043.6,29.8l0.2,4c0.7-1.4,1.7-2.5,3-3.2c1.2-0.8,2.7-1.1,4.4-1.1c2.5,0,4.3,0.8,5.6,2.3
		c1.3,1.5,1.9,3.9,1.9,7v13.8h-2.5V38.7c0-2.6-0.5-4.5-1.5-5.5c-1-1.1-2.4-1.6-4.1-1.6c-1.8,0-3.2,0.5-4.3,1.4s-1.9,2.2-2.4,3.7
		v15.9h-2.5V29.8H1043.6z"/>
	<path class="st0" d="M1078.9,46.7c0-1.1-0.4-2-1.3-2.8s-2.5-1.4-4.7-1.9c-2.7-0.6-4.7-1.4-6-2.3c-1.3-1-1.9-2.3-1.9-4.1
		c0-1.7,0.7-3.2,2.2-4.4c1.5-1.2,3.4-1.8,5.8-1.8c2.6,0,4.6,0.6,6.1,1.9c1.5,1.3,2.2,2.9,2.1,4.8l0,0.1h-2.3c0-1.2-0.5-2.3-1.6-3.3
		s-2.5-1.4-4.3-1.4c-1.8,0-3.2,0.4-4.1,1.2c-0.9,0.8-1.4,1.7-1.4,2.8c0,1,0.4,1.9,1.2,2.6s2.4,1.3,4.7,1.8c2.7,0.6,4.7,1.4,6.1,2.5
		c1.3,1,2,2.5,2,4.3c0,1.9-0.8,3.4-2.3,4.6c-1.5,1.2-3.6,1.8-6.1,1.8c-2.8,0-4.9-0.7-6.5-2c-1.6-1.3-2.3-2.9-2.2-4.7l0-0.1h2.3
		c0.1,1.6,0.8,2.8,2,3.6c1.2,0.7,2.7,1.1,4.4,1.1c1.8,0,3.3-0.4,4.3-1.2C1078.4,48.8,1078.9,47.9,1078.9,46.7z"/>
	<path class="st0" d="M1091.1,24v5.8h5v2.1h-5v14.8c0,1.5,0.3,2.5,0.8,3.2s1.3,0.9,2.2,0.9c0.4,0,0.8,0,1.2-0.1
		c0.4,0,0.8-0.1,1.3-0.2l0.4,1.9c-0.4,0.2-0.9,0.3-1.5,0.4c-0.6,0.1-1.2,0.1-1.8,0.1c-1.6,0-2.8-0.5-3.7-1.5c-0.9-1-1.3-2.6-1.3-4.8
		V31.8h-3.9v-2.1h3.9V24H1091.1z"/>
	<path class="st0" d="M1111.9,32l-1.9-0.1c-1.6,0-2.9,0.4-3.9,1.3c-1,0.9-1.7,2.1-2.2,3.7v15.7h-2.5V29.8h2.2l0.3,3.8v0.3
		c0.7-1.4,1.5-2.5,2.6-3.3s2.4-1.2,3.9-1.2c0.3,0,0.6,0,0.9,0.1c0.3,0,0.5,0.1,0.7,0.2L1111.9,32z"/>
	<path class="st0" d="M1131,48.8c-0.7,1.3-1.7,2.4-2.9,3.1s-2.7,1.1-4.4,1.1c-2.4,0-4.3-0.8-5.6-2.4s-2-4.1-2-7.6V29.8h2.5V43
		c0,2.8,0.5,4.8,1.4,6c0.9,1.2,2.3,1.8,4,1.8c1.9,0,3.4-0.4,4.6-1.3c1.1-0.9,1.9-2,2.4-3.5V29.8h2.5v22.7h-2.2L1131,48.8z"/>
	<path class="st0" d="M1142.9,23.3h-2.5v-3.5h2.5V23.3z M1142.9,52.5h-2.5V29.8h2.5V52.5z"/>
	<path class="st0" d="M1160.3,32l-1.9-0.1c-1.6,0-2.9,0.4-3.9,1.3c-1,0.9-1.7,2.1-2.2,3.7v15.7h-2.5V29.8h2.2l0.3,3.8v0.3
		c0.7-1.4,1.5-2.5,2.6-3.3s2.4-1.2,3.9-1.2c0.3,0,0.6,0,0.9,0.1c0.3,0,0.5,0.1,0.7,0.2L1160.3,32z"/>
	<path class="st0" d="M1189.8,48.8c-0.7,1.3-1.7,2.4-2.9,3.1s-2.7,1.1-4.4,1.1c-2.4,0-4.3-0.8-5.6-2.4s-2-4.1-2-7.6V29.8h2.5V43
		c0,2.8,0.5,4.8,1.4,6c0.9,1.2,2.3,1.8,4,1.8c1.9,0,3.4-0.4,4.6-1.3c1.1-0.9,1.9-2,2.4-3.5V29.8h2.5v22.7h-2.2L1189.8,48.8z"/>
	<path class="st0" d="M1201.1,29.8l0.2,4c0.7-1.4,1.7-2.5,3-3.2c1.2-0.8,2.7-1.1,4.4-1.1c2.5,0,4.3,0.8,5.6,2.3
		c1.3,1.5,1.9,3.9,1.9,7v13.8h-2.5V38.7c0-2.6-0.5-4.5-1.5-5.5c-1-1.1-2.4-1.6-4.1-1.6c-1.8,0-3.2,0.5-4.3,1.4s-1.9,2.2-2.4,3.7
		v15.9h-2.5V29.8H1201.1z"/>
	<path class="st0" d="M6.4,103c0-3.6,0.8-6.5,2.3-8.7s3.7-3.3,6.5-3.3c1.1,0,2.2,0.2,3.1,0.7c0.9,0.5,1.7,1.2,2.4,2.1V81.4h6.2v32.8
		h-5.2l-0.5-2.8c-0.7,1.1-1.6,1.9-2.5,2.4c-1,0.6-2.1,0.8-3.4,0.8c-2.8,0-5-1-6.5-3.1s-2.3-4.7-2.3-8.1V103z M12.5,103.4
		c0,2,0.3,3.6,1,4.7c0.7,1.1,1.8,1.7,3.3,1.7c0.9,0,1.7-0.2,2.3-0.5s1.2-0.9,1.6-1.6V98c-0.4-0.7-1-1.3-1.6-1.7
		c-0.7-0.4-1.4-0.6-2.3-0.6c-1.5,0-2.6,0.7-3.3,2c-0.7,1.3-1,3.1-1,5.2V103.4z"/>
	<path class="st0" d="M45.6,110.8c-0.7,1.2-1.6,2.2-2.7,2.8c-1.1,0.7-2.3,1-3.8,1c-2.4,0-4.3-0.8-5.6-2.4c-1.4-1.6-2-4.1-2-7.6V91.4
		h6.1v13.2c0,2,0.3,3.4,0.8,4.1c0.5,0.7,1.4,1.1,2.5,1.1c1,0,1.8-0.2,2.5-0.5c0.7-0.3,1.3-0.8,1.7-1.4V91.4h6.1v22.7h-5.1
		L45.6,110.8z"/>
	<path class="st0" d="M65.4,109.9c1.1,0,1.9-0.3,2.5-1c0.6-0.6,0.9-1.5,0.9-2.6h5.6l0,0.1c0.1,2.3-0.8,4.2-2.6,5.8
		c-1.8,1.5-3.9,2.3-6.6,2.3c-3.4,0-6-1.1-7.8-3.2c-1.8-2.2-2.8-4.9-2.8-8.2v-0.6c0-3.3,0.9-6.1,2.7-8.2c1.8-2.2,4.4-3.2,7.8-3.2
		c2.8,0,5,0.8,6.7,2.4c1.7,1.6,2.5,3.7,2.5,6.3l0,0.1h-5.6c0-1.2-0.3-2.2-0.9-2.9s-1.5-1.2-2.6-1.2c-1.6,0-2.7,0.6-3.4,1.9
		c-0.7,1.3-1,2.9-1,4.9v0.6c0,2,0.3,3.6,1,4.9C62.7,109.3,63.8,109.9,65.4,109.9z"/>
	<path class="st0" d="M85.5,85.8v5.6h3.8v4.3h-3.8v11.6c0,0.9,0.2,1.5,0.6,1.9s0.9,0.6,1.5,0.6c0.3,0,0.6,0,0.8-0.1
		c0.2,0,0.5-0.1,0.8-0.2l0.5,4.4c-0.6,0.2-1.2,0.4-1.8,0.5c-0.6,0.1-1.2,0.2-1.9,0.2c-2.1,0-3.7-0.6-4.9-1.7c-1.1-1.2-1.7-3-1.7-5.5
		V95.7H76v-4.3h3.3v-5.6H85.5z"/>
	<path class="st0" d="M92.1,102.6c0-3.4,0.9-6.2,2.8-8.3c1.9-2.2,4.5-3.2,7.9-3.2c3.4,0,6,1.1,7.9,3.2c1.9,2.2,2.9,4.9,2.9,8.3v0.4
		c0,3.4-0.9,6.2-2.8,8.4c-1.9,2.1-4.5,3.2-7.9,3.2c-3.4,0-6-1.1-7.9-3.2c-1.9-2.2-2.8-4.9-2.8-8.4V102.6z M98.2,103
		c0,2.1,0.4,3.7,1.1,5c0.7,1.3,1.9,1.9,3.5,1.9c1.6,0,2.7-0.6,3.5-1.9c0.7-1.3,1.1-2.9,1.1-5v-0.4c0-2-0.4-3.7-1.1-4.9
		c-0.7-1.3-1.9-1.9-3.5-1.9c-1.6,0-2.7,0.6-3.5,1.9c-0.7,1.3-1.1,2.9-1.1,4.9V103z"/>
	<path class="st0" d="M147.1,103.4c0,3.4-0.8,6.1-2.3,8.1c-1.5,2-3.7,3-6.4,3c-1.6,0-3-0.3-4.2-0.9c-1.2-0.6-2.2-1.5-2.9-2.6v11.8
		h-2.5V91.4h2.1l0.3,3.5c0.8-1.3,1.7-2.2,2.9-2.9c1.2-0.7,2.6-1,4.2-1c2.7,0,4.9,1.1,6.4,3.3c1.5,2.2,2.3,5.1,2.3,8.7V103.4z
		 M144.6,102.9c0-2.9-0.6-5.2-1.7-7.1c-1.1-1.8-2.8-2.7-5-2.7c-1.7,0-3.1,0.4-4.1,1.2c-1.1,0.8-1.9,1.9-2.4,3.1v10.9
		c0.6,1.2,1.4,2.2,2.5,2.9c1.1,0.7,2.4,1.1,4.1,1.1c2.2,0,3.9-0.8,5-2.5c1.1-1.7,1.7-3.8,1.7-6.6V102.9z"/>
	<path class="st0" d="M167.1,114.1c-0.2-0.8-0.3-1.4-0.4-2c-0.1-0.6-0.1-1.1-0.1-1.7c-0.8,1.2-2,2.2-3.4,3s-3,1.2-4.7,1.2
		c-2.2,0-3.9-0.6-5.2-1.8c-1.2-1.2-1.8-2.8-1.8-4.7c0-2.1,0.9-3.8,2.7-5s4.3-1.9,7.3-1.9h5v-2.8c0-1.6-0.5-2.9-1.6-3.8
		s-2.5-1.4-4.4-1.4c-1.8,0-3.2,0.4-4.4,1.3c-1.2,0.9-1.7,2-1.7,3.2l-2.3,0l0-0.1c-0.1-1.7,0.7-3.2,2.3-4.5c1.6-1.3,3.7-2,6.2-2
		c2.5,0,4.5,0.6,6,1.9c1.5,1.3,2.3,3.1,2.3,5.5v11.2c0,0.8,0,1.6,0.1,2.3c0.1,0.8,0.2,1.5,0.5,2.2H167.1z M158.9,112.4
		c1.8,0,3.4-0.4,4.8-1.3c1.4-0.8,2.4-1.9,3-3.2v-4.7h-5.1c-2.3,0-4.1,0.5-5.5,1.5c-1.4,1-2,2.2-2,3.6c0,1.2,0.4,2.2,1.3,3
		C156.2,112,157.4,112.4,158.9,112.4z"/>
	<path class="st0" d="M186.3,93.6l-1.9-0.1c-1.6,0-2.9,0.4-3.9,1.3c-1,0.9-1.7,2.1-2.2,3.7v15.7h-2.5V91.4h2.2l0.3,3.8v0.3
		c0.7-1.4,1.5-2.5,2.6-3.3c1.1-0.8,2.4-1.2,3.9-1.2c0.3,0,0.6,0,0.9,0.1c0.3,0,0.5,0.1,0.7,0.2L186.3,93.6z"/>
	<path class="st0" d="M204.9,114.1c-0.2-0.8-0.3-1.4-0.4-2c-0.1-0.6-0.1-1.1-0.1-1.7c-0.8,1.2-2,2.2-3.4,3s-3,1.2-4.7,1.2
		c-2.2,0-3.9-0.6-5.2-1.8c-1.2-1.2-1.8-2.8-1.8-4.7c0-2.1,0.9-3.8,2.7-5s4.3-1.9,7.3-1.9h5v-2.8c0-1.6-0.5-2.9-1.6-3.8
		s-2.5-1.4-4.4-1.4c-1.8,0-3.2,0.4-4.4,1.3c-1.2,0.9-1.7,2-1.7,3.2l-2.3,0l0-0.1c-0.1-1.7,0.7-3.2,2.3-4.5c1.6-1.3,3.7-2,6.2-2
		c2.5,0,4.5,0.6,6,1.9c1.5,1.3,2.3,3.1,2.3,5.5v11.2c0,0.8,0,1.6,0.1,2.3c0.1,0.8,0.2,1.5,0.5,2.2H204.9z M196.6,112.4
		c1.8,0,3.4-0.4,4.8-1.3c1.4-0.8,2.4-1.9,3-3.2v-4.7h-5.1c-2.3,0-4.1,0.5-5.5,1.5c-1.4,1-2,2.2-2,3.6c0,1.2,0.4,2.2,1.3,3
		C194,112,195.1,112.4,196.6,112.4z"/>
	<path class="st0" d="M232.6,114.6c-2.8,0-5.2-1.1-7.1-3.2s-2.8-4.8-2.8-8v-1.2c0-3.2,0.9-5.9,2.8-8.1s4.1-3.2,6.8-3.2
		c2.8,0,5,0.9,6.6,2.6c1.6,1.8,2.4,4.1,2.4,7.1v2.1h-16v0.6c0,2.6,0.7,4.7,2,6.4c1.4,1.7,3.1,2.6,5.4,2.6c1.6,0,2.9-0.2,4-0.7
		c1.1-0.4,2.1-1.1,2.8-1.9l1.1,1.7c-0.9,0.9-1.9,1.6-3.2,2.1S234.4,114.6,232.6,114.6z M232.3,93.1c-1.9,0-3.4,0.7-4.7,2.1
		c-1.3,1.4-2,3.2-2.2,5.3l0,0.1h13.3v-0.6c0-2-0.6-3.6-1.7-4.9C235.9,93.8,234.3,93.1,232.3,93.1z"/>
	<path class="st0" d="M249.1,114.1h-2.5V81.4h2.5V114.1z"/>
	<path class="st0" d="M270.4,85.6v5.8h5v2.1h-5v14.8c0,1.5,0.3,2.5,0.8,3.2c0.5,0.6,1.3,0.9,2.2,0.9c0.4,0,0.8,0,1.2-0.1
		c0.4,0,0.8-0.1,1.3-0.2l0.4,1.9c-0.4,0.2-0.9,0.3-1.5,0.4c-0.6,0.1-1.2,0.1-1.8,0.1c-1.6,0-2.8-0.5-3.7-1.5c-0.9-1-1.3-2.6-1.3-4.8
		V93.5H264v-2.1h3.9v-5.8H270.4z"/>
	<path class="st0" d="M291.2,93.6l-1.9-0.1c-1.6,0-2.9,0.4-3.9,1.3c-1,0.9-1.7,2.1-2.2,3.7v15.7h-2.5V91.4h2.2l0.3,3.8v0.3
		c0.7-1.4,1.5-2.5,2.6-3.3c1.1-0.8,2.4-1.2,3.9-1.2c0.3,0,0.6,0,0.9,0.1c0.3,0,0.5,0.1,0.7,0.2L291.2,93.6z"/>
	<path class="st0" d="M309.8,114.1c-0.2-0.8-0.3-1.4-0.4-2c-0.1-0.6-0.1-1.1-0.1-1.7c-0.8,1.2-2,2.2-3.4,3s-3,1.2-4.7,1.2
		c-2.2,0-3.9-0.6-5.2-1.8c-1.2-1.2-1.8-2.8-1.8-4.7c0-2.1,0.9-3.8,2.7-5s4.3-1.9,7.3-1.9h5v-2.8c0-1.6-0.5-2.9-1.6-3.8
		s-2.5-1.4-4.4-1.4c-1.8,0-3.2,0.4-4.4,1.3c-1.2,0.9-1.7,2-1.7,3.2l-2.3,0l0-0.1c-0.1-1.7,0.7-3.2,2.3-4.5c1.6-1.3,3.7-2,6.2-2
		c2.5,0,4.5,0.6,6,1.9c1.5,1.3,2.3,3.1,2.3,5.5v11.2c0,0.8,0,1.6,0.1,2.3c0.1,0.8,0.2,1.5,0.5,2.2H309.8z M301.5,112.4
		c1.8,0,3.4-0.4,4.8-1.3c1.4-0.8,2.4-1.9,3-3.2v-4.7h-5.1c-2.3,0-4.1,0.5-5.5,1.5c-1.4,1-2,2.2-2,3.6c0,1.2,0.4,2.2,1.3,3
		C298.9,112,300,112.4,301.5,112.4z"/>
	<path class="st0" d="M332.2,108.4c0-1.1-0.4-2-1.3-2.8c-0.9-0.8-2.5-1.4-4.7-1.9c-2.7-0.6-4.7-1.4-6-2.3c-1.3-1-1.9-2.3-1.9-4.1
		c0-1.7,0.7-3.2,2.2-4.4c1.5-1.2,3.4-1.8,5.8-1.8c2.6,0,4.6,0.6,6.1,1.9c1.5,1.3,2.2,2.9,2.1,4.8l0,0.1H332c0-1.2-0.5-2.3-1.6-3.3
		c-1.1-0.9-2.5-1.4-4.3-1.4c-1.8,0-3.2,0.4-4.1,1.2c-0.9,0.8-1.4,1.7-1.4,2.8c0,1,0.4,1.9,1.2,2.6s2.4,1.3,4.7,1.8
		c2.7,0.6,4.7,1.4,6.1,2.5c1.3,1,2,2.5,2,4.3c0,1.9-0.8,3.4-2.3,4.6c-1.5,1.2-3.6,1.8-6.1,1.8c-2.8,0-4.9-0.7-6.5-2
		c-1.6-1.3-2.3-2.9-2.2-4.7l0-0.1h2.3c0.1,1.6,0.8,2.8,2,3.6c1.2,0.7,2.7,1.1,4.4,1.1c1.8,0,3.3-0.4,4.3-1.2
		C331.6,110.4,332.2,109.5,332.2,108.4z"/>
	<path class="st0" d="M343.3,114.1h-2.5V81.4h2.5V114.1z"/>
	<path class="st0" d="M364.6,114.1c-0.2-0.8-0.3-1.4-0.4-2c-0.1-0.6-0.1-1.1-0.1-1.7c-0.8,1.2-2,2.2-3.4,3s-3,1.2-4.7,1.2
		c-2.2,0-3.9-0.6-5.2-1.8c-1.2-1.2-1.8-2.8-1.8-4.7c0-2.1,0.9-3.8,2.7-5s4.3-1.9,7.3-1.9h5v-2.8c0-1.6-0.5-2.9-1.6-3.8
		s-2.5-1.4-4.4-1.4c-1.8,0-3.2,0.4-4.4,1.3c-1.2,0.9-1.7,2-1.7,3.2l-2.3,0l0-0.1c-0.1-1.7,0.7-3.2,2.3-4.5c1.6-1.3,3.7-2,6.2-2
		c2.5,0,4.5,0.6,6,1.9c1.5,1.3,2.3,3.1,2.3,5.5v11.2c0,0.8,0,1.6,0.1,2.3c0.1,0.8,0.2,1.5,0.5,2.2H364.6z M356.4,112.4
		c1.8,0,3.4-0.4,4.8-1.3c1.4-0.8,2.4-1.9,3-3.2v-4.7h-5.1c-2.3,0-4.1,0.5-5.5,1.5c-1.4,1-2,2.2-2,3.6c0,1.2,0.4,2.2,1.3,3
		C353.7,112,354.9,112.4,356.4,112.4z"/>
	<path class="st0" d="M372.4,103c0-3.6,0.8-6.5,2.3-8.7c1.5-2.2,3.7-3.3,6.4-3.3c1.6,0,3,0.3,4.1,1c1.2,0.7,2.1,1.6,2.9,2.9V81.4
		h2.5v32.8h-2.2l-0.2-3.3c-0.8,1.2-1.7,2.1-2.9,2.8c-1.2,0.6-2.6,1-4.2,1c-2.7,0-4.8-1-6.4-3c-1.5-2-2.3-4.7-2.3-8.1V103z
		 M374.9,103.4c0,2.8,0.5,5,1.6,6.6c1.1,1.6,2.8,2.4,5,2.4c1.6,0,3-0.4,4.1-1.1s1.9-1.7,2.5-3V97.6c-0.6-1.3-1.4-2.4-2.4-3.2
		s-2.4-1.2-4.1-1.2c-2.2,0-3.9,0.9-5,2.7c-1.1,1.8-1.7,4.2-1.7,7.1V103.4z"/>
	<path class="st0" d="M395.9,102.4c0-3.3,0.9-6.1,2.8-8.2c1.8-2.1,4.3-3.2,7.3-3.2c3,0,5.5,1.1,7.3,3.2c1.8,2.1,2.8,4.9,2.8,8.2v0.7
		c0,3.4-0.9,6.1-2.7,8.2s-4.3,3.2-7.3,3.2c-3.1,0-5.5-1.1-7.3-3.2c-1.8-2.1-2.8-4.9-2.8-8.2V102.4z M398.4,103.1
		c0,2.6,0.7,4.8,2,6.6c1.3,1.8,3.2,2.7,5.6,2.7c2.3,0,4.2-0.9,5.5-2.7c1.3-1.8,2-4,2-6.6v-0.7c0-2.6-0.7-4.8-2-6.6
		c-1.3-1.8-3.2-2.7-5.5-2.7c-2.4,0-4.2,0.9-5.5,2.7c-1.3,1.8-2,4-2,6.6V103.1z"/>
	<path class="st0" d="M430.7,103c0-3.6,0.8-6.5,2.3-8.7c1.5-2.2,3.7-3.3,6.4-3.3c1.6,0,3,0.3,4.1,1c1.2,0.7,2.1,1.6,2.9,2.9V81.4
		h2.5v32.8h-2.2l-0.2-3.3c-0.8,1.2-1.7,2.1-2.9,2.8c-1.2,0.6-2.6,1-4.2,1c-2.7,0-4.8-1-6.4-3c-1.5-2-2.3-4.7-2.3-8.1V103z
		 M433.2,103.4c0,2.8,0.5,5,1.6,6.6c1.1,1.6,2.8,2.4,5,2.4c1.6,0,3-0.4,4.1-1.1s1.9-1.7,2.5-3V97.6c-0.6-1.3-1.4-2.4-2.4-3.2
		s-2.4-1.2-4.1-1.2c-2.2,0-3.9,0.9-5,2.7c-1.1,1.8-1.7,4.2-1.7,7.1V103.4z"/>
	<path class="st0" d="M464.2,114.6c-2.8,0-5.2-1.1-7.1-3.2s-2.8-4.8-2.8-8v-1.2c0-3.2,0.9-5.9,2.8-8.1s4.1-3.2,6.8-3.2
		c2.8,0,5,0.9,6.6,2.6c1.6,1.8,2.4,4.1,2.4,7.1v2.1h-16v0.6c0,2.6,0.7,4.7,2,6.4c1.4,1.7,3.1,2.6,5.4,2.6c1.6,0,2.9-0.2,4-0.7
		c1.1-0.4,2.1-1.1,2.8-1.9l1.1,1.7c-0.9,0.9-1.9,1.6-3.2,2.1S466,114.6,464.2,114.6z M463.9,93.1c-1.9,0-3.4,0.7-4.7,2.1
		c-1.3,1.4-2,3.2-2.2,5.3l0,0.1h13.3v-0.6c0-2-0.6-3.6-1.7-4.9C467.4,93.8,465.9,93.1,463.9,93.1z"/>
	<path class="st0" d="M480.6,114.1h-2.5V81.4h2.5V114.1z"/>
	<path class="st0" d="M506.6,109.9c1.1,0,1.9-0.3,2.5-1c0.6-0.6,0.9-1.5,0.9-2.6h5.6l0,0.1c0.1,2.3-0.8,4.2-2.6,5.8
		c-1.8,1.5-3.9,2.3-6.6,2.3c-3.4,0-6-1.1-7.8-3.2c-1.8-2.2-2.8-4.9-2.8-8.2v-0.6c0-3.3,0.9-6.1,2.7-8.2c1.8-2.2,4.4-3.2,7.8-3.2
		c2.8,0,5,0.8,6.7,2.4c1.7,1.6,2.5,3.7,2.5,6.3l0,0.1h-5.6c0-1.2-0.3-2.2-0.9-2.9s-1.5-1.2-2.6-1.2c-1.6,0-2.7,0.6-3.4,1.9
		c-0.7,1.3-1,2.9-1,4.9v0.6c0,2,0.3,3.6,1,4.9C503.8,109.3,505,109.9,506.6,109.9z"/>
	<path class="st0" d="M518.3,102.6c0-3.4,0.9-6.2,2.8-8.3c1.9-2.2,4.5-3.2,7.9-3.2c3.4,0,6,1.1,7.9,3.2c1.9,2.2,2.9,4.9,2.9,8.3v0.4
		c0,3.4-0.9,6.2-2.8,8.4c-1.9,2.1-4.5,3.2-7.9,3.2c-3.4,0-6-1.1-7.9-3.2c-1.9-2.2-2.8-4.9-2.8-8.4V102.6z M524.4,103
		c0,2.1,0.4,3.7,1.1,5c0.7,1.3,1.9,1.9,3.5,1.9c1.6,0,2.7-0.6,3.5-1.9c0.7-1.3,1.1-2.9,1.1-5v-0.4c0-2-0.4-3.7-1.1-4.9
		c-0.7-1.3-1.9-1.9-3.5-1.9c-1.6,0-2.7,0.6-3.5,1.9c-0.7,1.3-1.1,2.9-1.1,4.9V103z"/>
	<path class="st0" d="M549.2,91.4l0.3,3.3c0.8-1.2,1.7-2.1,2.8-2.7s2.3-1,3.7-1c2.3,0,4.1,0.7,5.4,2.2c1.3,1.5,1.9,3.8,1.9,7v13.9
		h-6.2v-13.9c0-1.6-0.3-2.8-0.9-3.5c-0.6-0.7-1.4-1-2.6-1c-0.9,0-1.7,0.2-2.4,0.5c-0.7,0.3-1.3,0.8-1.7,1.4v16.4h-6.1V91.4H549.2z"
		/>
	<path class="st0" d="M577.3,109.9c1.1,0,1.9-0.3,2.5-1c0.6-0.6,0.9-1.5,0.9-2.6h5.6l0,0.1c0.1,2.3-0.8,4.2-2.6,5.8
		c-1.8,1.5-3.9,2.3-6.6,2.3c-3.4,0-6-1.1-7.8-3.2c-1.8-2.2-2.8-4.9-2.8-8.2v-0.6c0-3.3,0.9-6.1,2.7-8.2c1.8-2.2,4.4-3.2,7.8-3.2
		c2.8,0,5,0.8,6.7,2.4c1.7,1.6,2.5,3.7,2.5,6.3l0,0.1h-5.6c0-1.2-0.3-2.2-0.9-2.9s-1.5-1.2-2.6-1.2c-1.6,0-2.7,0.6-3.4,1.9
		c-0.7,1.3-1,2.9-1,4.9v0.6c0,2,0.3,3.6,1,4.9C574.6,109.3,575.7,109.9,577.3,109.9z"/>
	<path class="st0" d="M599.9,114.6c-3.4,0-6-1-7.9-3.1c-1.9-2.1-2.9-4.8-2.9-8v-0.8c0-3.4,0.9-6.2,2.8-8.4s4.4-3.2,7.6-3.2
		c3.1,0,5.4,0.9,7,2.8c1.6,1.9,2.4,4.4,2.4,7.6v3.2h-13.5l-0.1,0.1c0.1,1.6,0.6,2.8,1.4,3.8c0.8,1,2.1,1.4,3.8,1.4
		c1.4,0,2.5-0.1,3.5-0.4c1-0.3,2-0.7,3-1.3l1.7,3.8c-0.9,0.7-2.1,1.4-3.7,1.9C603.4,114.3,601.7,114.6,599.9,114.6z M599.5,95.7
		c-1.2,0-2.2,0.4-2.8,1.3c-0.7,0.8-1.1,2-1.2,3.4l0,0.1h7.5V100c0-1.3-0.3-2.4-0.8-3.1C601.6,96.1,600.7,95.7,599.5,95.7z"/>
	<path class="st0" d="M618.1,91.4l0.3,3.3c0.8-1.2,1.7-2.1,2.8-2.7s2.3-1,3.7-1c2.3,0,4.1,0.7,5.4,2.2c1.3,1.5,1.9,3.8,1.9,7v13.9
		h-6.2v-13.9c0-1.6-0.3-2.8-0.9-3.5c-0.6-0.7-1.4-1-2.6-1c-0.9,0-1.7,0.2-2.4,0.5c-0.7,0.3-1.3,0.8-1.7,1.4v16.4h-6.1V91.4H618.1z"
		/>
	<path class="st0" d="M644.1,85.8v5.6h3.8v4.3h-3.8v11.6c0,0.9,0.2,1.5,0.6,1.9s0.9,0.6,1.5,0.6c0.3,0,0.6,0,0.8-0.1
		c0.2,0,0.5-0.1,0.8-0.2l0.5,4.4c-0.6,0.2-1.2,0.4-1.8,0.5c-0.6,0.1-1.2,0.2-1.9,0.2c-2.1,0-3.7-0.6-4.9-1.7c-1.1-1.2-1.7-3-1.7-5.5
		V95.7h-3.3v-4.3h3.3v-5.6H644.1z"/>
	<path class="st0" d="M663.7,96.7l-2.2-0.1c-0.9,0-1.7,0.2-2.2,0.6c-0.6,0.4-1,0.9-1.3,1.6v15.4h-6.1V91.4h5.7l0.3,3.4
		c0.5-1.2,1.2-2.1,2.1-2.8c0.8-0.7,1.8-1,2.9-1c0.3,0,0.6,0,0.9,0.1c0.3,0,0.5,0.1,0.8,0.2L663.7,96.7z"/>
	<path class="st0" d="M680.3,114.1c-0.2-0.5-0.4-1.1-0.6-1.6c-0.2-0.6-0.3-1.2-0.3-1.8c-0.6,1.1-1.5,2-2.5,2.8
		c-1,0.7-2.3,1.1-3.7,1.1c-2.4,0-4.2-0.6-5.5-1.8s-1.9-2.9-1.9-5c0-2.2,0.9-4,2.6-5.2s4.2-1.8,7.5-1.8h3.4v-1.8
		c0-1.1-0.3-1.9-0.9-2.5s-1.4-0.9-2.6-0.9c-1,0-1.8,0.2-2.3,0.7c-0.5,0.5-0.8,1.1-0.8,2h-5.9l0-0.1c-0.1-1.9,0.7-3.6,2.5-5
		c1.8-1.4,4.1-2.1,6.9-2.1c2.7,0,4.9,0.7,6.6,2.1s2.5,3.3,2.5,5.9v9.4c0,1.1,0.1,2.1,0.2,3s0.4,1.9,0.8,2.8H680.3z M674.7,110
		c1.1,0,2-0.3,2.9-0.8c0.8-0.5,1.4-1.1,1.7-1.8v-3.2h-3.4c-1.3,0-2.3,0.3-3,1c-0.7,0.6-1,1.4-1,2.4c0,0.8,0.2,1.4,0.7,1.8
		S673.8,110,674.7,110z"/>
	<path class="st0" d="M689.1,103c0-3.6,0.8-6.5,2.3-8.7s3.7-3.3,6.5-3.3c1.1,0,2.2,0.2,3.1,0.7c0.9,0.5,1.7,1.2,2.4,2.1V81.4h6.2
		v32.8h-5.2l-0.5-2.8c-0.7,1.1-1.6,1.9-2.5,2.4s-2.1,0.8-3.4,0.8c-2.8,0-5-1-6.5-3.1s-2.3-4.7-2.3-8.1V103z M695.2,103.4
		c0,2,0.3,3.6,1,4.7c0.7,1.1,1.8,1.7,3.3,1.7c0.9,0,1.7-0.2,2.3-0.5s1.2-0.9,1.6-1.6V98c-0.4-0.7-1-1.3-1.6-1.7
		c-0.7-0.4-1.4-0.6-2.3-0.6c-1.5,0-2.6,0.7-3.3,2c-0.7,1.3-1,3.1-1,5.2V103.4z"/>
	<path class="st0" d="M713.4,102.6c0-3.4,0.9-6.2,2.8-8.3c1.9-2.2,4.5-3.2,7.9-3.2c3.4,0,6,1.1,7.9,3.2s2.9,4.9,2.9,8.3v0.4
		c0,3.4-0.9,6.2-2.8,8.4c-1.9,2.1-4.5,3.2-7.9,3.2c-3.4,0-6-1.1-7.9-3.2c-1.9-2.2-2.8-4.9-2.8-8.4V102.6z M719.5,103
		c0,2.1,0.4,3.7,1.1,5c0.7,1.3,1.9,1.9,3.5,1.9c1.6,0,2.7-0.6,3.5-1.9s1.1-2.9,1.1-5v-0.4c0-2-0.4-3.7-1.1-4.9
		c-0.7-1.3-1.9-1.9-3.5-1.9c-1.6,0-2.7,0.6-3.5,1.9c-0.7,1.3-1.1,2.9-1.1,4.9V103z"/>
	<path class="st0" d="M748.4,103c0-3.6,0.8-6.5,2.3-8.7s3.7-3.3,6.5-3.3c1.1,0,2.2,0.2,3.1,0.7c0.9,0.5,1.7,1.2,2.4,2.1V81.4h6.2
		v32.8h-5.2l-0.5-2.8c-0.7,1.1-1.6,1.9-2.5,2.4s-2.1,0.8-3.4,0.8c-2.8,0-5-1-6.5-3.1s-2.3-4.7-2.3-8.1V103z M754.5,103.4
		c0,2,0.3,3.6,1,4.7c0.7,1.1,1.8,1.7,3.3,1.7c0.9,0,1.7-0.2,2.3-0.5s1.2-0.9,1.6-1.6V98c-0.4-0.7-1-1.3-1.6-1.7
		c-0.7-0.4-1.4-0.6-2.3-0.6c-1.5,0-2.6,0.7-3.3,2c-0.7,1.3-1,3.1-1,5.2V103.4z"/>
	<path class="st0" d="M783.4,114.6c-3.4,0-6-1-7.9-3.1c-1.9-2.1-2.9-4.8-2.9-8v-0.8c0-3.4,0.9-6.2,2.8-8.4s4.4-3.2,7.6-3.2
		c3.1,0,5.4,0.9,7,2.8c1.6,1.9,2.4,4.4,2.4,7.6v3.2H779l-0.1,0.1c0.1,1.6,0.6,2.8,1.4,3.8c0.8,1,2.1,1.4,3.8,1.4
		c1.4,0,2.5-0.1,3.5-0.4s2-0.7,3-1.3l1.7,3.8c-0.9,0.7-2.1,1.4-3.7,1.9C787,114.3,785.3,114.6,783.4,114.6z M783,95.7
		c-1.2,0-2.2,0.4-2.8,1.3c-0.7,0.8-1.1,2-1.2,3.4l0,0.1h7.5V100c0-1.3-0.3-2.4-0.8-3.1C785.1,96.1,784.3,95.7,783,95.7z"/>
	<path class="st0" d="M816.3,109.9c1.1,0,1.9-0.3,2.5-1c0.6-0.6,0.9-1.5,0.9-2.6h5.6l0,0.1c0.1,2.3-0.8,4.2-2.6,5.8
		s-3.9,2.3-6.6,2.3c-3.4,0-6-1.1-7.8-3.2c-1.8-2.2-2.8-4.9-2.8-8.2v-0.6c0-3.3,0.9-6.1,2.7-8.2c1.8-2.2,4.4-3.2,7.8-3.2
		c2.8,0,5,0.8,6.7,2.4s2.5,3.7,2.5,6.3l0,0.1h-5.6c0-1.2-0.3-2.2-0.9-2.9c-0.6-0.8-1.5-1.2-2.6-1.2c-1.6,0-2.7,0.6-3.4,1.9
		c-0.7,1.3-1,2.9-1,4.9v0.6c0,2,0.3,3.6,1,4.9C813.5,109.3,814.7,109.9,816.3,109.9z"/>
	<path class="st0" d="M828,102.6c0-3.4,0.9-6.2,2.8-8.3c1.9-2.2,4.5-3.2,7.9-3.2c3.4,0,6,1.1,7.9,3.2s2.9,4.9,2.9,8.3v0.4
		c0,3.4-0.9,6.2-2.8,8.4c-1.9,2.1-4.5,3.2-7.9,3.2c-3.4,0-6-1.1-7.9-3.2c-1.9-2.2-2.8-4.9-2.8-8.4V102.6z M834.1,103
		c0,2.1,0.4,3.7,1.1,5c0.7,1.3,1.9,1.9,3.5,1.9c1.6,0,2.7-0.6,3.5-1.9s1.1-2.9,1.1-5v-0.4c0-2-0.4-3.7-1.1-4.9
		c-0.7-1.3-1.9-1.9-3.5-1.9c-1.6,0-2.7,0.6-3.5,1.9c-0.7,1.3-1.1,2.9-1.1,4.9V103z"/>
	<path class="st0" d="M873.8,103.4c0,3.4-0.8,6.1-2.3,8.1c-1.5,2-3.7,3-6.6,3c-1.3,0-2.5-0.3-3.5-0.8c-1-0.6-1.8-1.4-2.5-2.5
		l-0.5,2.9h-5.2V81.4h6.1v12.5c0.7-0.9,1.4-1.6,2.4-2.1c0.9-0.5,2-0.7,3.2-0.7c2.9,0,5.1,1.1,6.6,3.3c1.5,2.2,2.3,5.1,2.3,8.7V103.4
		z M867.6,103c0-2.2-0.3-4-1-5.3s-1.8-1.9-3.3-1.9c-1,0-1.8,0.2-2.4,0.6c-0.7,0.4-1.2,1-1.6,1.7v9.6c0.4,0.7,0.9,1.2,1.6,1.6
		c0.7,0.4,1.5,0.5,2.4,0.5c1.6,0,2.7-0.6,3.3-1.7c0.6-1.1,0.9-2.7,0.9-4.7V103z"/>
	<path class="st0" d="M889.5,96.7l-2.2-0.1c-0.9,0-1.7,0.2-2.2,0.6c-0.6,0.4-1,0.9-1.3,1.6v15.4h-6.1V91.4h5.7l0.3,3.4
		c0.5-1.2,1.2-2.1,2.1-2.8c0.8-0.7,1.8-1,2.9-1c0.3,0,0.6,0,0.9,0.1c0.3,0,0.5,0.1,0.8,0.2L889.5,96.7z"/>
	<path class="st0" d="M902.1,114.6c-3.4,0-6-1-7.9-3.1c-1.9-2.1-2.9-4.8-2.9-8v-0.8c0-3.4,0.9-6.2,2.8-8.4s4.4-3.2,7.6-3.2
		c3.1,0,5.4,0.9,7,2.8c1.6,1.9,2.4,4.4,2.4,7.6v3.2h-13.5l-0.1,0.1c0.1,1.6,0.6,2.8,1.4,3.8c0.8,1,2.1,1.4,3.8,1.4
		c1.4,0,2.5-0.1,3.5-0.4s2-0.7,3-1.3l1.7,3.8c-0.9,0.7-2.1,1.4-3.7,1.9C905.7,114.3,904,114.6,902.1,114.6z M901.7,95.7
		c-1.2,0-2.2,0.4-2.8,1.3c-0.7,0.8-1.1,2-1.2,3.4l0,0.1h7.5V100c0-1.3-0.3-2.4-0.8-3.1C903.8,96.1,903,95.7,901.7,95.7z"/>
	<path class="st0" d="M918.1,113.8l-2.2,5.8h-1.7l1.5-5.9v-3.5h2.5V113.8z"/>
	<path class="st0" d="M933.5,103c0-3.6,0.8-6.5,2.3-8.7c1.5-2.2,3.7-3.3,6.4-3.3c1.6,0,2.9,0.3,4.1,1c1.2,0.7,2.1,1.6,2.9,2.8
		l0.3-3.3h2.2v31.5h-2.5v-11.7c-0.8,1.1-1.7,2-2.9,2.5c-1.2,0.6-2.5,0.9-4.1,0.9c-2.7,0-4.8-1-6.4-3c-1.5-2-2.3-4.7-2.3-8.1V103z
		 M936,103.4c0,2.7,0.5,4.9,1.6,6.6c1.1,1.6,2.8,2.5,5,2.5c1.6,0,2.9-0.4,4-1.1c1.1-0.7,1.9-1.7,2.5-2.9V97.4
		c-0.6-1.2-1.4-2.3-2.4-3.1c-1.1-0.8-2.4-1.2-4-1.2c-2.2,0-3.9,0.9-5,2.7s-1.7,4.2-1.7,7.1V103.4z"/>
	<path class="st0" d="M973.3,110.4c-0.7,1.3-1.7,2.4-2.9,3.1s-2.7,1.1-4.4,1.1c-2.4,0-4.3-0.8-5.6-2.4c-1.4-1.6-2-4.1-2-7.6V91.4
		h2.5v13.2c0,2.8,0.5,4.8,1.4,6s2.3,1.8,4,1.8c1.9,0,3.4-0.4,4.6-1.3c1.1-0.9,1.9-2,2.4-3.5V91.4h2.5v22.7h-2.2L973.3,110.4z"/>
	<path class="st0" d="M990.9,114.6c-2.8,0-5.2-1.1-7.1-3.2s-2.8-4.8-2.8-8v-1.2c0-3.2,0.9-5.9,2.8-8.1c1.9-2.1,4.1-3.2,6.8-3.2
		c2.8,0,5,0.9,6.6,2.6s2.4,4.1,2.4,7.1v2.1h-16v0.6c0,2.6,0.7,4.7,2,6.4s3.1,2.6,5.4,2.6c1.6,0,2.9-0.2,4-0.7
		c1.1-0.4,2.1-1.1,2.8-1.9l1.1,1.7c-0.9,0.9-1.9,1.6-3.2,2.1S992.7,114.6,990.9,114.6z M990.6,93.1c-1.9,0-3.4,0.7-4.7,2.1
		c-1.3,1.4-2,3.2-2.2,5.3l0,0.1H997v-0.6c0-2-0.6-3.6-1.7-4.9S992.5,93.1,990.6,93.1z"/>
	<path class="st0" d="M1023.5,114.6c-2.8,0-5.2-1.1-7.1-3.2s-2.8-4.8-2.8-8v-1.2c0-3.2,0.9-5.9,2.8-8.1c1.9-2.1,4.1-3.2,6.8-3.2
		c2.8,0,5,0.9,6.6,2.6s2.4,4.1,2.4,7.1v2.1h-16v0.6c0,2.6,0.7,4.7,2,6.4s3.1,2.6,5.4,2.6c1.6,0,2.9-0.2,4-0.7
		c1.1-0.4,2.1-1.1,2.8-1.9l1.1,1.7c-0.9,0.9-1.9,1.6-3.2,2.1S1025.3,114.6,1023.5,114.6z M1023.2,93.1c-1.9,0-3.4,0.7-4.7,2.1
		c-1.3,1.4-2,3.2-2.2,5.3l0,0.1h13.3v-0.6c0-2-0.6-3.6-1.7-4.9S1025.2,93.1,1023.2,93.1z"/>
	<path class="st0" d="M1039.4,91.4l0.2,4c0.7-1.4,1.7-2.5,3-3.2c1.2-0.8,2.7-1.1,4.4-1.1c2.5,0,4.3,0.8,5.6,2.3
		c1.3,1.5,1.9,3.9,1.9,7v13.8h-2.5v-13.8c0-2.6-0.5-4.5-1.5-5.5c-1-1.1-2.4-1.6-4.1-1.6c-1.8,0-3.2,0.5-4.3,1.4s-1.9,2.2-2.4,3.7
		v15.9h-2.5V91.4H1039.4z"/>
	<path class="st0" d="M1070.5,103c0-3.6,0.8-6.5,2.3-8.7c1.5-2.2,3.7-3.3,6.5-3.3c1.6,0,3,0.4,4.2,1.1c1.2,0.7,2.1,1.7,2.9,3
		l0.3-3.6h2.1v22.4c0,2.9-0.8,5.2-2.4,6.9s-3.9,2.5-6.8,2.5c-1.1,0-2.3-0.1-3.5-0.4c-1.2-0.3-2.3-0.6-3.2-1.1l0.7-2.1
		c0.9,0.4,1.8,0.8,2.8,1c1,0.2,2.1,0.3,3.2,0.3c2.2,0,3.9-0.6,5-1.9c1.1-1.3,1.7-3,1.7-5.3V111c-0.8,1.1-1.7,2-2.9,2.7
		c-1.2,0.6-2.5,0.9-4.1,0.9c-2.7,0-4.9-1-6.4-3c-1.5-2-2.3-4.7-2.3-8.1V103z M1073.1,103.4c0,2.7,0.6,4.9,1.7,6.6
		c1.1,1.6,2.8,2.5,5,2.5c1.6,0,3-0.4,4.1-1.1c1.1-0.8,1.9-1.8,2.5-3.1V97.7c-0.5-1.3-1.3-2.4-2.4-3.3s-2.4-1.3-4.1-1.3
		c-2.2,0-3.9,0.9-5,2.7c-1.1,1.8-1.7,4.2-1.7,7.1V103.4z"/>
	<path class="st0" d="M1106,93.6l-1.9-0.1c-1.6,0-2.9,0.4-3.9,1.3c-1,0.9-1.7,2.1-2.2,3.7v15.7h-2.5V91.4h2.2l0.3,3.8v0.3
		c0.7-1.4,1.5-2.5,2.6-3.3s2.4-1.2,3.9-1.2c0.3,0,0.6,0,0.9,0.1c0.3,0,0.5,0.1,0.7,0.2L1106,93.6z"/>
	<path class="st0" d="M1124.5,114.1c-0.2-0.8-0.3-1.4-0.4-2c-0.1-0.6-0.1-1.1-0.1-1.7c-0.8,1.2-2,2.2-3.4,3c-1.4,0.8-3,1.2-4.7,1.2
		c-2.2,0-3.9-0.6-5.2-1.8c-1.2-1.2-1.8-2.8-1.8-4.7c0-2.1,0.9-3.8,2.7-5s4.3-1.9,7.3-1.9h5v-2.8c0-1.6-0.5-2.9-1.6-3.8
		c-1-0.9-2.5-1.4-4.4-1.4c-1.8,0-3.2,0.4-4.4,1.3s-1.7,2-1.7,3.2l-2.3,0l0-0.1c-0.1-1.7,0.7-3.2,2.3-4.5c1.6-1.3,3.7-2,6.2-2
		c2.5,0,4.5,0.6,6,1.9c1.5,1.3,2.3,3.1,2.3,5.5v11.2c0,0.8,0,1.6,0.1,2.3c0.1,0.8,0.2,1.5,0.5,2.2H1124.5z M1116.3,112.4
		c1.8,0,3.4-0.4,4.8-1.3c1.4-0.8,2.4-1.9,3-3.2v-4.7h-5.1c-2.3,0-4.1,0.5-5.5,1.5c-1.4,1-2,2.2-2,3.6c0,1.2,0.4,2.2,1.3,3
		C1113.6,112,1114.8,112.4,1116.3,112.4z"/>
	<path class="st0" d="M1135.5,91.4l0.2,4c0.7-1.4,1.7-2.5,3-3.2c1.2-0.8,2.7-1.1,4.4-1.1c2.5,0,4.3,0.8,5.6,2.3
		c1.3,1.5,1.9,3.9,1.9,7v13.8h-2.5v-13.8c0-2.6-0.5-4.5-1.5-5.5c-1-1.1-2.4-1.6-4.1-1.6c-1.8,0-3.2,0.5-4.3,1.4s-1.9,2.2-2.4,3.7
		v15.9h-2.5V91.4H1135.5z"/>
	<path class="st0" d="M26.6,165c0,3.4-0.8,6.1-2.3,8.1c-1.5,2-3.7,3-6.4,3c-1.6,0-3-0.3-4.2-0.9c-1.2-0.6-2.2-1.5-2.9-2.6v11.8H8.3
		V153h2.1l0.3,3.5c0.8-1.3,1.7-2.2,2.9-2.9c1.2-0.7,2.6-1,4.2-1c2.7,0,4.9,1.1,6.4,3.3c1.5,2.2,2.3,5.1,2.3,8.7V165z M24.1,164.6
		c0-2.9-0.6-5.2-1.7-7.1c-1.1-1.8-2.8-2.7-5-2.7c-1.7,0-3.1,0.4-4.1,1.2c-1.1,0.8-1.9,1.9-2.4,3.1V170c0.6,1.2,1.4,2.2,2.5,2.9
		c1.1,0.7,2.4,1.1,4.1,1.1c2.2,0,3.9-0.8,5-2.5c1.1-1.7,1.7-3.8,1.7-6.6V164.6z"/>
	<path class="st0" d="M46.7,175.8c-0.2-0.8-0.3-1.4-0.4-2c-0.1-0.6-0.1-1.1-0.1-1.7c-0.8,1.2-2,2.2-3.4,3s-3,1.2-4.7,1.2
		c-2.2,0-3.9-0.6-5.2-1.8c-1.2-1.2-1.8-2.8-1.8-4.7c0-2.1,0.9-3.8,2.7-5c1.8-1.3,4.3-1.9,7.3-1.9h5V160c0-1.6-0.5-2.9-1.6-3.8
		c-1-0.9-2.5-1.4-4.4-1.4c-1.8,0-3.2,0.4-4.4,1.3c-1.2,0.9-1.7,2-1.7,3.2l-2.3,0l0-0.1c-0.1-1.7,0.7-3.2,2.3-4.5
		c1.6-1.3,3.7-2,6.2-2c2.5,0,4.5,0.6,6,1.9c1.5,1.3,2.3,3.1,2.3,5.5v11.2c0,0.8,0,1.6,0.1,2.3c0.1,0.8,0.2,1.5,0.5,2.2H46.7z
		 M38.4,174c1.8,0,3.4-0.4,4.8-1.3c1.4-0.8,2.4-1.9,3-3.2v-4.7h-5.1c-2.3,0-4.1,0.5-5.5,1.5c-1.4,1-2,2.2-2,3.6c0,1.2,0.4,2.2,1.3,3
		C35.7,173.6,36.9,174,38.4,174z"/>
	<path class="st0" d="M65.9,155.2l-1.9-0.1c-1.6,0-2.9,0.4-3.9,1.3c-1,0.9-1.7,2.1-2.2,3.7v15.7h-2.5V153h2.2l0.3,3.8v0.3
		c0.7-1.4,1.5-2.5,2.6-3.3c1.1-0.8,2.4-1.2,3.9-1.2c0.3,0,0.6,0,0.9,0.1c0.3,0,0.5,0.1,0.7,0.2L65.9,155.2z"/>
	<path class="st0" d="M74.7,147.2v5.8h5v2.1h-5v14.8c0,1.5,0.3,2.5,0.8,3.2c0.5,0.6,1.3,0.9,2.2,0.9c0.4,0,0.8,0,1.2-0.1
		c0.4,0,0.8-0.1,1.3-0.2l0.4,1.9c-0.4,0.2-0.9,0.3-1.5,0.4c-0.6,0.1-1.2,0.1-1.8,0.1c-1.6,0-2.8-0.5-3.7-1.5c-0.9-1-1.3-2.6-1.3-4.8
		v-14.8h-3.9V153h3.9v-5.8H74.7z"/>
	<path class="st0" d="M93.5,176.2c-2.8,0-5.2-1.1-7.1-3.2s-2.8-4.8-2.8-8v-1.2c0-3.2,0.9-5.9,2.8-8.1s4.1-3.2,6.8-3.2
		c2.8,0,5,0.9,6.6,2.6c1.6,1.8,2.4,4.1,2.4,7.1v2.1h-16v0.6c0,2.6,0.7,4.7,2,6.4c1.4,1.7,3.1,2.6,5.4,2.6c1.6,0,2.9-0.2,4-0.7
		c1.1-0.4,2.1-1.1,2.8-1.9l1.1,1.7c-0.9,0.9-1.9,1.6-3.2,2.1S95.3,176.2,93.5,176.2z M93.2,154.8c-1.9,0-3.4,0.7-4.7,2.1
		c-1.3,1.4-2,3.2-2.2,5.3l0,0.1h13.3v-0.6c0-2-0.6-3.6-1.7-4.9C96.8,155.4,95.2,154.8,93.2,154.8z"/>
	<path class="st0" d="M116.6,164.6c0-3.6,0.8-6.5,2.3-8.7c1.5-2.2,3.7-3.3,6.4-3.3c1.6,0,3,0.3,4.1,1c1.2,0.7,2.1,1.6,2.9,2.9V143
		h2.5v32.8h-2.2l-0.2-3.3c-0.8,1.2-1.7,2.1-2.9,2.8c-1.2,0.6-2.6,1-4.2,1c-2.7,0-4.8-1-6.4-3c-1.5-2-2.3-4.7-2.3-8.1V164.6z
		 M119.1,165c0,2.8,0.5,5,1.6,6.6c1.1,1.6,2.8,2.4,5,2.4c1.6,0,3-0.4,4.1-1.1c1.1-0.7,1.9-1.7,2.5-3v-10.7c-0.6-1.3-1.4-2.4-2.4-3.2
		c-1.1-0.8-2.4-1.2-4.1-1.2c-2.2,0-3.9,0.9-5,2.7s-1.7,4.2-1.7,7.1V165z"/>
	<path class="st0" d="M150.1,176.2c-2.8,0-5.2-1.1-7.1-3.2s-2.8-4.8-2.8-8v-1.2c0-3.2,0.9-5.9,2.8-8.1s4.1-3.2,6.8-3.2
		c2.8,0,5,0.9,6.6,2.6c1.6,1.8,2.4,4.1,2.4,7.1v2.1h-16v0.6c0,2.6,0.7,4.7,2,6.4c1.4,1.7,3.1,2.6,5.4,2.6c1.6,0,2.9-0.2,4-0.7
		c1.1-0.4,2.1-1.1,2.8-1.9l1.1,1.7c-0.9,0.9-1.9,1.6-3.2,2.1S151.9,176.2,150.1,176.2z M149.8,154.8c-1.9,0-3.4,0.7-4.7,2.1
		c-1.3,1.4-2,3.2-2.2,5.3l0,0.1h13.3v-0.6c0-2-0.6-3.6-1.7-4.9C153.3,155.4,151.8,154.8,149.8,154.8z"/>
	<path class="st0" d="M187.8,170c0-1.1-0.4-2-1.3-2.8s-2.5-1.4-4.7-1.9c-2.7-0.6-4.7-1.4-6-2.3c-1.3-1-1.9-2.3-1.9-4.1
		c0-1.7,0.7-3.2,2.2-4.4c1.5-1.2,3.4-1.8,5.8-1.8c2.6,0,4.6,0.6,6.1,1.9s2.2,2.9,2.1,4.8l0,0.1h-2.3c0-1.2-0.5-2.3-1.6-3.3
		c-1.1-0.9-2.5-1.4-4.3-1.4c-1.8,0-3.2,0.4-4.1,1.2c-0.9,0.8-1.4,1.7-1.4,2.8c0,1,0.4,1.9,1.2,2.6c0.8,0.7,2.4,1.3,4.7,1.8
		c2.7,0.6,4.7,1.4,6.1,2.5c1.3,1,2,2.5,2,4.3c0,1.9-0.8,3.4-2.3,4.6c-1.5,1.2-3.6,1.8-6.1,1.8c-2.8,0-4.9-0.7-6.5-2
		c-1.6-1.3-2.3-2.9-2.2-4.7l0-0.1h2.3c0.1,1.6,0.8,2.8,2,3.6c1.2,0.7,2.7,1.1,4.4,1.1c1.8,0,3.3-0.4,4.3-1.2
		C187.3,172.1,187.8,171.1,187.8,170z"/>
	<path class="st0" d="M211,172c-0.7,1.3-1.7,2.4-2.9,3.1s-2.7,1.1-4.4,1.1c-2.4,0-4.3-0.8-5.6-2.4c-1.4-1.6-2-4.1-2-7.6V153h2.5
		v13.2c0,2.8,0.5,4.8,1.4,6c0.9,1.2,2.3,1.8,4,1.8c1.9,0,3.4-0.4,4.6-1.3c1.1-0.9,1.9-2,2.4-3.5V153h2.5v22.7h-2.2L211,172z"/>
	<path class="st0" d="M234.5,147.2v5.8h5v2.1h-5v14.8c0,1.5,0.3,2.5,0.8,3.2c0.5,0.6,1.3,0.9,2.2,0.9c0.4,0,0.8,0,1.2-0.1
		c0.4,0,0.8-0.1,1.3-0.2l0.4,1.9c-0.4,0.2-0.9,0.3-1.5,0.4c-0.6,0.1-1.2,0.1-1.8,0.1c-1.6,0-2.8-0.5-3.7-1.5c-0.9-1-1.3-2.6-1.3-4.8
		v-14.8H228V153h3.9v-5.8H234.5z"/>
	<path class="st0" d="M255.2,155.2l-1.9-0.1c-1.6,0-2.9,0.4-3.9,1.3c-1,0.9-1.7,2.1-2.2,3.7v15.7h-2.5V153h2.2l0.3,3.8v0.3
		c0.7-1.4,1.5-2.5,2.6-3.3c1.1-0.8,2.4-1.2,3.9-1.2c0.3,0,0.6,0,0.9,0.1c0.3,0,0.5,0.1,0.7,0.2L255.2,155.2z"/>
	<path class="st0" d="M273.8,175.8c-0.2-0.8-0.3-1.4-0.4-2c-0.1-0.6-0.1-1.1-0.1-1.7c-0.8,1.2-2,2.2-3.4,3s-3,1.2-4.7,1.2
		c-2.2,0-3.9-0.6-5.2-1.8c-1.2-1.2-1.8-2.8-1.8-4.7c0-2.1,0.9-3.8,2.7-5c1.8-1.3,4.3-1.9,7.3-1.9h5V160c0-1.6-0.5-2.9-1.6-3.8
		c-1-0.9-2.5-1.4-4.4-1.4c-1.8,0-3.2,0.4-4.4,1.3c-1.2,0.9-1.7,2-1.7,3.2l-2.3,0l0-0.1c-0.1-1.7,0.7-3.2,2.3-4.5
		c1.6-1.3,3.7-2,6.2-2c2.5,0,4.5,0.6,6,1.9c1.5,1.3,2.3,3.1,2.3,5.5v11.2c0,0.8,0,1.6,0.1,2.3c0.1,0.8,0.2,1.5,0.5,2.2H273.8z
		 M265.6,174c1.8,0,3.4-0.4,4.8-1.3c1.4-0.8,2.4-1.9,3-3.2v-4.7h-5.1c-2.3,0-4.1,0.5-5.5,1.5c-1.4,1-2,2.2-2,3.6
		c0,1.2,0.4,2.2,1.3,3C262.9,173.6,264.1,174,265.6,174z"/>
	<path class="st0" d="M288.7,169.6l0.8,2.7h0.1l6.9-19.3h2.8l-9.9,26.4c-0.6,1.5-1.4,2.8-2.3,3.9c-0.9,1.1-2.3,1.6-4.1,1.6
		c-0.3,0-0.7,0-1.1-0.1c-0.4-0.1-0.7-0.1-0.9-0.2l0.3-2.1c0.2,0,0.4,0.1,0.8,0.1c0.4,0,0.6,0.1,0.8,0.1c1.1,0,2-0.4,2.6-1.2
		c0.7-0.8,1.2-1.8,1.7-3l1.2-3.1l-8.8-22.4h2.8L288.7,169.6z"/>
	<path class="st0" d="M311.5,176.2c-2.8,0-5.2-1.1-7.1-3.2s-2.8-4.8-2.8-8v-1.2c0-3.2,0.9-5.9,2.8-8.1s4.1-3.2,6.8-3.2
		c2.8,0,5,0.9,6.6,2.6c1.6,1.8,2.4,4.1,2.4,7.1v2.1h-16v0.6c0,2.6,0.7,4.7,2,6.4c1.4,1.7,3.1,2.6,5.4,2.6c1.6,0,2.9-0.2,4-0.7
		c1.1-0.4,2.1-1.1,2.8-1.9l1.1,1.7c-0.9,0.9-1.9,1.6-3.2,2.1S313.4,176.2,311.5,176.2z M311.2,154.8c-1.9,0-3.4,0.7-4.7,2.1
		c-1.3,1.4-2,3.2-2.2,5.3l0,0.1h13.3v-0.6c0-2-0.6-3.6-1.7-4.9C314.8,155.4,313.2,154.8,311.2,154.8z"/>
	<path class="st0" d="M333.6,174.1c1.7,0,3.1-0.5,4.4-1.4c1.3-0.9,1.9-2.3,1.9-4h2.2l0,0.1c0.1,2.1-0.8,3.9-2.5,5.3
		c-1.8,1.4-3.8,2.1-6.1,2.1c-3.1,0-5.5-1.1-7.2-3.2c-1.7-2.1-2.5-4.8-2.5-8.2V164c0-3.3,0.8-6,2.5-8.2c1.7-2.1,4.1-3.2,7.1-3.2
		c2.5,0,4.6,0.7,6.2,2.2c1.7,1.5,2.5,3.4,2.4,5.8l0,0.1h-2.2c0-1.8-0.6-3.3-1.8-4.4c-1.2-1.1-2.7-1.6-4.5-1.6
		c-2.4,0-4.2,0.9-5.4,2.6c-1.2,1.7-1.8,3.9-1.8,6.6v0.9c0,2.7,0.6,4.9,1.7,6.6C329.3,173.2,331.1,174.1,333.6,174.1z"/>
	<path class="st0" d="M351.4,147.2v5.8h5v2.1h-5v14.8c0,1.5,0.3,2.5,0.8,3.2c0.5,0.6,1.3,0.9,2.2,0.9c0.4,0,0.8,0,1.2-0.1
		c0.4,0,0.8-0.1,1.3-0.2l0.4,1.9c-0.4,0.2-0.9,0.3-1.5,0.4c-0.6,0.1-1.2,0.1-1.8,0.1c-1.6,0-2.8-0.5-3.7-1.5c-0.9-1-1.3-2.6-1.3-4.8
		v-14.8h-3.9V153h3.9v-5.8H351.4z"/>
	<path class="st0" d="M359.9,164.1c0-3.3,0.9-6.1,2.8-8.2c1.8-2.1,4.3-3.2,7.3-3.2c3,0,5.5,1.1,7.3,3.2c1.8,2.1,2.8,4.9,2.8,8.2v0.7
		c0,3.4-0.9,6.1-2.7,8.2c-1.8,2.1-4.3,3.2-7.3,3.2c-3.1,0-5.5-1.1-7.3-3.2c-1.8-2.1-2.8-4.9-2.8-8.2V164.1z M362.4,164.7
		c0,2.6,0.7,4.8,2,6.6c1.3,1.8,3.2,2.7,5.6,2.7c2.3,0,4.2-0.9,5.5-2.7c1.3-1.8,2-4,2-6.6v-0.7c0-2.6-0.7-4.8-2-6.6
		c-1.3-1.8-3.2-2.7-5.5-2.7c-2.4,0-4.2,0.9-5.5,2.7c-1.3,1.8-2,4-2,6.6V164.7z"/>
	<path class="st0" d="M398.6,146.5h-2.5V143h2.5V146.5z M398.6,175.8h-2.5V153h2.5V175.8z"/>
	<path class="st0" d="M416,155.2l-1.9-0.1c-1.6,0-2.9,0.4-3.9,1.3c-1,0.9-1.7,2.1-2.2,3.7v15.7h-2.5V153h2.2l0.3,3.8v0.3
		c0.7-1.4,1.5-2.5,2.6-3.3c1.1-0.8,2.4-1.2,3.9-1.2c0.3,0,0.6,0,0.9,0.1c0.3,0,0.5,0.1,0.7,0.2L416,155.2z"/>
	<path class="st0" d="M434.5,175.8c-0.2-0.8-0.3-1.4-0.4-2c-0.1-0.6-0.1-1.1-0.1-1.7c-0.8,1.2-2,2.2-3.4,3s-3,1.2-4.7,1.2
		c-2.2,0-3.9-0.6-5.2-1.8c-1.2-1.2-1.8-2.8-1.8-4.7c0-2.1,0.9-3.8,2.7-5c1.8-1.3,4.3-1.9,7.3-1.9h5V160c0-1.6-0.5-2.9-1.6-3.8
		c-1-0.9-2.5-1.4-4.4-1.4c-1.8,0-3.2,0.4-4.4,1.3c-1.2,0.9-1.7,2-1.7,3.2l-2.3,0l0-0.1c-0.1-1.7,0.7-3.2,2.3-4.5
		c1.6-1.3,3.7-2,6.2-2c2.5,0,4.5,0.6,6,1.9c1.5,1.3,2.3,3.1,2.3,5.5v11.2c0,0.8,0,1.6,0.1,2.3c0.1,0.8,0.2,1.5,0.5,2.2H434.5z
		 M426.3,174c1.8,0,3.4-0.4,4.8-1.3c1.4-0.8,2.4-1.9,3-3.2v-4.7H429c-2.3,0-4.1,0.5-5.5,1.5c-1.4,1-2,2.2-2,3.6c0,1.2,0.4,2.2,1.3,3
		C423.6,173.6,424.8,174,426.3,174z M431,144.2h3.1l0.1,0.1l-5.2,5.5h-2.3L431,144.2z"/>
	<path class="st0" d="M462.6,176.2c-3.4,0-6-1-7.9-3.1c-1.9-2.1-2.9-4.8-2.9-8v-0.8c0-3.4,0.9-6.2,2.8-8.4s4.4-3.2,7.6-3.2
		c3.1,0,5.4,0.9,7,2.8c1.6,1.9,2.4,4.4,2.4,7.6v3.2h-13.5l-0.1,0.1c0.1,1.6,0.6,2.8,1.4,3.8c0.8,1,2.1,1.4,3.8,1.4
		c1.4,0,2.5-0.1,3.5-0.4c1-0.3,2-0.7,3-1.3l1.7,3.8c-0.9,0.7-2.1,1.4-3.7,1.9C466.2,176,464.5,176.2,462.6,176.2z M462.2,157.3
		c-1.2,0-2.2,0.4-2.8,1.3c-0.7,0.8-1.1,2-1.2,3.4l0,0.1h7.5v-0.5c0-1.3-0.3-2.4-0.8-3.1C464.3,157.7,463.4,157.3,462.2,157.3z"/>
	<path class="st0" d="M480.9,153l0.3,3.3c0.8-1.2,1.7-2.1,2.8-2.7s2.3-1,3.7-1c2.3,0,4.1,0.7,5.4,2.2s1.9,3.8,1.9,7v13.9h-6.2v-13.9
		c0-1.6-0.3-2.8-0.9-3.5c-0.6-0.7-1.4-1-2.6-1c-0.9,0-1.7,0.2-2.4,0.5c-0.7,0.3-1.3,0.8-1.7,1.4v16.4h-6.1V153H480.9z"/>
	<path class="st0" d="M506.9,147.5v5.6h3.8v4.3h-3.8v11.6c0,0.9,0.2,1.5,0.6,1.9c0.4,0.4,0.9,0.6,1.5,0.6c0.3,0,0.6,0,0.8-0.1
		c0.2,0,0.5-0.1,0.8-0.2l0.5,4.4c-0.6,0.2-1.2,0.4-1.8,0.5c-0.6,0.1-1.2,0.2-1.9,0.2c-2.1,0-3.7-0.6-4.9-1.7c-1.1-1.2-1.7-3-1.7-5.5
		v-11.6h-3.3V153h3.3v-5.6H506.9z"/>
	<path class="st0" d="M524.4,176.2c-3.4,0-6-1-7.9-3.1c-1.9-2.1-2.9-4.8-2.9-8v-0.8c0-3.4,0.9-6.2,2.8-8.4s4.4-3.2,7.6-3.2
		c3.1,0,5.4,0.9,7,2.8c1.6,1.9,2.4,4.4,2.4,7.6v3.2h-13.5l-0.1,0.1c0.1,1.6,0.6,2.8,1.4,3.8c0.8,1,2.1,1.4,3.8,1.4
		c1.4,0,2.5-0.1,3.5-0.4c1-0.3,2-0.7,3-1.3l1.7,3.8c-0.9,0.7-2.1,1.4-3.7,1.9C527.9,176,526.2,176.2,524.4,176.2z M524,157.3
		c-1.2,0-2.2,0.4-2.8,1.3c-0.7,0.8-1.1,2-1.2,3.4l0,0.1h7.5v-0.5c0-1.3-0.3-2.4-0.8-3.1C526.1,157.7,525.2,157.3,524,157.3z"/>
	<path class="st0" d="M549,158.3l-2.2-0.1c-0.9,0-1.7,0.2-2.2,0.6s-1,0.9-1.3,1.6v15.4H537V153h5.7l0.3,3.4c0.5-1.2,1.2-2.1,2.1-2.8
		c0.8-0.7,1.8-1,2.9-1c0.3,0,0.6,0,0.9,0.1c0.3,0,0.5,0.1,0.8,0.2L549,158.3z"/>
	<path class="st0" d="M564.1,158.3l-2.2-0.1c-0.9,0-1.7,0.2-2.2,0.6s-1,0.9-1.3,1.6v15.4h-6.1V153h5.7l0.3,3.4
		c0.5-1.2,1.2-2.1,2.1-2.8c0.8-0.7,1.8-1,2.9-1c0.3,0,0.6,0,0.9,0.1c0.3,0,0.5,0.1,0.8,0.2L564.1,158.3z"/>
	<path class="st0" d="M580.7,175.8c-0.2-0.5-0.4-1.1-0.6-1.6c-0.2-0.6-0.3-1.2-0.3-1.8c-0.6,1.1-1.5,2-2.5,2.8
		c-1,0.7-2.3,1.1-3.7,1.1c-2.4,0-4.2-0.6-5.5-1.8s-1.9-2.9-1.9-5c0-2.2,0.9-4,2.6-5.2s4.2-1.8,7.5-1.8h3.4v-1.8
		c0-1.1-0.3-1.9-0.9-2.5c-0.6-0.6-1.4-0.9-2.6-0.9c-1,0-1.8,0.2-2.3,0.7c-0.5,0.5-0.8,1.1-0.8,2h-5.9l0-0.1c-0.1-1.9,0.7-3.6,2.5-5
		s4.1-2.1,6.9-2.1c2.7,0,4.9,0.7,6.6,2.1c1.7,1.4,2.5,3.3,2.5,5.9v9.4c0,1.1,0.1,2.1,0.2,3c0.2,0.9,0.4,1.9,0.8,2.8H580.7z
		 M575.1,171.7c1.1,0,2-0.3,2.9-0.8s1.4-1.1,1.7-1.8v-3.2h-3.4c-1.3,0-2.3,0.3-3,1c-0.7,0.6-1,1.4-1,2.4c0,0.8,0.2,1.4,0.7,1.8
		C573.5,171.4,574.2,171.7,575.1,171.7z"/>
	<path class="st0" d="M589.5,164.6c0-3.6,0.8-6.5,2.3-8.7c1.5-2.2,3.7-3.3,6.5-3.3c1.1,0,2.2,0.2,3.1,0.7c0.9,0.5,1.7,1.2,2.4,2.1
		V143h6.2v32.8h-5.2l-0.5-2.8c-0.7,1.1-1.6,1.9-2.5,2.4c-1,0.6-2.1,0.8-3.4,0.8c-2.8,0-5-1-6.5-3.1c-1.5-2-2.3-4.7-2.3-8.1V164.6z
		 M595.6,165c0,2,0.3,3.6,1,4.7c0.7,1.1,1.8,1.7,3.3,1.7c0.9,0,1.7-0.2,2.3-0.5c0.7-0.4,1.2-0.9,1.6-1.6v-9.7
		c-0.4-0.7-1-1.3-1.6-1.7c-0.7-0.4-1.4-0.6-2.3-0.6c-1.5,0-2.6,0.7-3.3,2c-0.7,1.3-1,3.1-1,5.2V165z"/>
	<path class="st0" d="M613.8,164.2c0-3.4,0.9-6.2,2.8-8.3c1.9-2.2,4.5-3.2,7.9-3.2c3.4,0,6,1.1,7.9,3.2s2.9,4.9,2.9,8.3v0.4
		c0,3.4-0.9,6.2-2.8,8.4s-4.5,3.2-7.9,3.2c-3.4,0-6-1.1-7.9-3.2c-1.9-2.1-2.8-4.9-2.8-8.4V164.2z M619.9,164.6c0,2.1,0.4,3.7,1.1,5
		c0.7,1.3,1.9,1.9,3.5,1.9c1.6,0,2.7-0.6,3.5-1.9c0.7-1.3,1.1-2.9,1.1-5v-0.4c0-2-0.4-3.7-1.1-4.9c-0.7-1.3-1.9-1.9-3.5-1.9
		c-1.6,0-2.7,0.6-3.5,1.9c-0.7,1.3-1.1,2.9-1.1,4.9V164.6z"/>
	<path class="st0" d="M643,175.8h-2.9v-3.4h2.9V175.8z"/>
</g>
</svg>
