<?xml version="1.0" encoding="utf-8"?>
<!-- Generator: Adobe Illustrator 22.1.0, SVG Export Plug-In . SVG Version: 6.00 Build 0)  -->
<svg version="1.1" id="Capa_1" xmlns="http://www.w3.org/2000/svg" xmlns:xlink="http://www.w3.org/1999/xlink" x="0px" y="0px"
	 viewBox="0 0 1256 196" style="enable-background:new 0 0 1256 196;" xml:space="preserve">
<style type="text/css">
	.st0{fill:#54515C;}
</style>
<g>
	<path class="st0" d="M11.5,39.8v12.7H9V21.9h10.5c3.2,0,5.7,0.8,7.4,2.4c1.8,1.6,2.6,3.8,2.6,6.5c0,2.7-0.9,4.9-2.6,6.5
		c-1.8,1.6-4.2,2.4-7.4,2.4H11.5z M11.5,37.7h8c2.5,0,4.4-0.6,5.7-1.9c1.3-1.3,1.9-2.9,1.9-4.8c0-2-0.6-3.6-1.9-4.9
		c-1.3-1.3-3.2-1.9-5.7-1.9h-8V37.7z"/>
	<path class="st0" d="M49.1,52.5c-0.2-0.8-0.3-1.4-0.4-2c-0.1-0.6-0.1-1.1-0.1-1.7c-0.8,1.2-2,2.2-3.4,3s-3,1.2-4.7,1.2
		c-2.2,0-3.9-0.6-5.2-1.8c-1.2-1.2-1.8-2.8-1.8-4.7c0-2.1,0.9-3.8,2.7-5c1.8-1.3,4.3-1.9,7.3-1.9h5v-2.8c0-1.6-0.5-2.9-1.6-3.8
		s-2.5-1.4-4.4-1.4c-1.8,0-3.2,0.4-4.4,1.3c-1.2,0.9-1.7,2-1.7,3.2l-2.3,0l0-0.1c-0.1-1.7,0.7-3.2,2.3-4.5c1.6-1.3,3.7-2,6.2-2
		c2.5,0,4.5,0.6,6,1.9c1.5,1.3,2.3,3.1,2.3,5.5v11.2c0,0.8,0,1.6,0.1,2.3c0.1,0.8,0.2,1.5,0.5,2.2H49.1z M40.8,50.7
		c1.8,0,3.4-0.4,4.8-1.3c1.4-0.8,2.4-1.9,3-3.2v-4.7h-5.1c-2.3,0-4.1,0.5-5.5,1.5c-1.4,1-2,2.2-2,3.6c0,1.2,0.4,2.2,1.3,3
		C38.2,50.3,39.3,50.7,40.8,50.7z"/>
	<path class="st0" d="M68.3,32l-1.9-0.1c-1.6,0-2.9,0.4-3.9,1.3c-1,0.9-1.7,2.1-2.2,3.7v15.7h-2.5V29.8H60l0.3,3.8v0.3
		c0.7-1.4,1.5-2.5,2.6-3.3c1.1-0.8,2.4-1.2,3.9-1.2c0.3,0,0.6,0,0.9,0.1c0.3,0,0.5,0.1,0.7,0.2L68.3,32z"/>
	<path class="st0" d="M86.9,52.5c-0.2-0.8-0.3-1.4-0.4-2c-0.1-0.6-0.1-1.1-0.1-1.7c-0.8,1.2-2,2.2-3.4,3s-3,1.2-4.7,1.2
		c-2.2,0-3.9-0.6-5.2-1.8c-1.2-1.2-1.8-2.8-1.8-4.7c0-2.1,0.9-3.8,2.7-5c1.8-1.3,4.3-1.9,7.3-1.9h5v-2.8c0-1.6-0.5-2.9-1.6-3.8
		s-2.5-1.4-4.4-1.4c-1.8,0-3.2,0.4-4.4,1.3c-1.2,0.9-1.7,2-1.7,3.2l-2.3,0l0-0.1c-0.1-1.7,0.7-3.2,2.3-4.5c1.6-1.3,3.7-2,6.2-2
		c2.5,0,4.5,0.6,6,1.9c1.5,1.3,2.3,3.1,2.3,5.5v11.2c0,0.8,0,1.6,0.1,2.3c0.1,0.8,0.2,1.5,0.5,2.2H86.9z M78.6,50.7
		c1.8,0,3.4-0.4,4.8-1.3c1.4-0.8,2.4-1.9,3-3.2v-4.7h-5.1c-2.3,0-4.1,0.5-5.5,1.5c-1.4,1-2,2.2-2,3.6c0,1.2,0.4,2.2,1.3,3
		C75.9,50.3,77.1,50.7,78.6,50.7z"/>
	<path class="st0" d="M110.7,29.8L111,33c0.8-1.2,1.7-2.1,2.8-2.7s2.3-1,3.7-1c2.3,0,4.1,0.7,5.4,2.2c1.3,1.5,1.9,3.8,1.9,7v13.9
		h-6.2V38.6c0-1.6-0.3-2.8-0.9-3.5c-0.6-0.7-1.4-1-2.6-1c-0.9,0-1.7,0.2-2.4,0.5c-0.7,0.3-1.3,0.8-1.7,1.4v16.4H105V29.8H110.7z"/>
	<path class="st0" d="M128.4,40.9c0-3.4,0.9-6.2,2.8-8.3c1.9-2.2,4.5-3.2,7.9-3.2c3.4,0,6,1.1,7.9,3.2c1.9,2.2,2.9,4.9,2.9,8.3v0.4
		c0,3.4-0.9,6.2-2.8,8.4c-1.9,2.1-4.5,3.2-7.9,3.2c-3.4,0-6-1.1-7.9-3.2c-1.9-2.1-2.8-4.9-2.8-8.4V40.9z M134.5,41.4
		c0,2.1,0.4,3.7,1.1,5c0.7,1.3,1.9,1.9,3.5,1.9c1.6,0,2.7-0.6,3.5-1.9c0.7-1.3,1.1-2.9,1.1-5v-0.4c0-2-0.4-3.7-1.1-4.9
		c-0.7-1.3-1.9-1.9-3.5-1.9c-1.6,0-2.7,0.6-3.5,1.9c-0.7,1.3-1.1,2.9-1.1,4.9V41.4z"/>
	<path class="st0" d="M170.8,24.3h-6.1v-4.6h6.1V24.3z M170.8,52.5h-6.1V29.8h6.1V52.5z"/>
	<path class="st0" d="M181.6,29.8l0.3,3c0.7-1.1,1.6-1.9,2.7-2.5c1.1-0.6,2.4-0.9,3.8-0.9c1.5,0,2.7,0.3,3.7,1
		c1,0.6,1.8,1.6,2.4,2.9c0.7-1.2,1.6-2.2,2.7-2.9c1.1-0.7,2.4-1,3.9-1c2.2,0,4,0.8,5.3,2.4c1.3,1.6,1.9,4,1.9,7.3v13.5h-6.1V39
		c0-1.8-0.3-3.1-0.8-3.8c-0.6-0.7-1.4-1.1-2.5-1.1c-0.9,0-1.6,0.2-2.3,0.6c-0.6,0.4-1.1,0.9-1.5,1.6c0,0.3,0,0.5,0,0.7
		c0,0.2,0,0.4,0,0.6v14.9h-6.1V39c0-1.8-0.3-3-0.8-3.8c-0.6-0.7-1.4-1.1-2.5-1.1c-0.8,0-1.6,0.2-2.2,0.5c-0.6,0.3-1.1,0.8-1.5,1.3
		v16.6h-6.1V29.8H181.6z"/>
	<path class="st0" d="M233.6,41.8c0,3.4-0.8,6.1-2.3,8.1c-1.6,2-3.7,3.1-6.5,3.1c-1.2,0-2.2-0.2-3.2-0.7c-0.9-0.4-1.7-1.1-2.4-1.9
		v10.9h-6.1V29.8h5.5l0.4,2.7c0.7-1,1.5-1.8,2.4-2.3s2-0.8,3.3-0.8c2.8,0,5,1.1,6.6,3.3c1.6,2.2,2.3,5.1,2.3,8.7V41.8z M227.5,41.3
		c0-2.1-0.4-3.9-1.1-5.2c-0.7-1.3-1.8-2-3.3-2c-0.9,0-1.7,0.2-2.4,0.6c-0.7,0.4-1.2,0.9-1.5,1.6v10c0.4,0.6,0.9,1.1,1.5,1.5
		c0.7,0.3,1.5,0.5,2.4,0.5c1.5,0,2.6-0.6,3.3-1.7c0.7-1.2,1-2.7,1-4.7V41.3z"/>
	<path class="st0" d="M250.8,52.5c-0.2-0.5-0.4-1.1-0.6-1.6c-0.2-0.6-0.3-1.2-0.3-1.8c-0.6,1.1-1.5,2-2.5,2.8
		c-1,0.7-2.3,1.1-3.7,1.1c-2.4,0-4.2-0.6-5.5-1.8c-1.3-1.2-1.9-2.9-1.9-5c0-2.2,0.9-4,2.6-5.2s4.2-1.8,7.5-1.8h3.4v-1.8
		c0-1.1-0.3-1.9-0.9-2.5s-1.4-0.9-2.6-0.9c-1,0-1.8,0.2-2.3,0.7c-0.5,0.5-0.8,1.1-0.8,2h-5.9l0-0.1c-0.1-1.9,0.7-3.6,2.5-5
		c1.8-1.4,4.1-2.1,6.9-2.1c2.7,0,4.9,0.7,6.6,2.1s2.5,3.3,2.5,5.9v9.4c0,1.1,0.1,2.1,0.2,3c0.2,0.9,0.4,1.9,0.8,2.8H250.8z
		 M245.2,48.4c1.1,0,2-0.3,2.9-0.8s1.4-1.1,1.7-1.8v-3.2h-3.4c-1.3,0-2.3,0.3-3,1c-0.7,0.6-1,1.4-1,2.4c0,0.8,0.2,1.4,0.7,1.8
		C243.6,48.2,244.3,48.4,245.2,48.4z"/>
	<path class="st0" d="M270,48.3c1.1,0,1.9-0.3,2.5-1c0.6-0.6,0.9-1.5,0.9-2.6h5.6l0,0.1c0.1,2.3-0.8,4.2-2.6,5.8
		c-1.8,1.5-3.9,2.3-6.6,2.3c-3.4,0-6-1.1-7.8-3.2c-1.8-2.1-2.8-4.9-2.8-8.2v-0.6c0-3.3,0.9-6.1,2.7-8.2c1.8-2.2,4.4-3.2,7.8-3.2
		c2.8,0,5,0.8,6.7,2.4c1.7,1.6,2.5,3.7,2.5,6.3l0,0.1h-5.6c0-1.2-0.3-2.2-0.9-2.9s-1.5-1.2-2.6-1.2c-1.6,0-2.7,0.6-3.4,1.9
		c-0.7,1.3-1,2.9-1,4.9v0.6c0,2,0.3,3.6,1,4.9C267.2,47.6,268.4,48.3,270,48.3z"/>
	<path class="st0" d="M290,24.2v5.6h3.8v4.3H290v11.6c0,0.9,0.2,1.5,0.6,1.9s0.9,0.6,1.5,0.6c0.3,0,0.6,0,0.8-0.1
		c0.2,0,0.5-0.1,0.8-0.2l0.5,4.4c-0.6,0.2-1.2,0.4-1.8,0.5c-0.6,0.1-1.2,0.2-1.9,0.2c-2.1,0-3.7-0.6-4.9-1.7c-1.1-1.2-1.7-3-1.7-5.5
		V34.1h-3.3v-4.3h3.3v-5.6H290z"/>
	<path class="st0" d="M311,52.5c-0.2-0.5-0.4-1.1-0.6-1.6c-0.2-0.6-0.3-1.2-0.3-1.8c-0.6,1.1-1.5,2-2.5,2.8c-1,0.7-2.3,1.1-3.7,1.1
		c-2.4,0-4.2-0.6-5.5-1.8c-1.3-1.2-1.9-2.9-1.9-5c0-2.2,0.9-4,2.6-5.2s4.2-1.8,7.5-1.8h3.4v-1.8c0-1.1-0.3-1.9-0.9-2.5
		s-1.4-0.9-2.6-0.9c-1,0-1.8,0.2-2.3,0.7c-0.5,0.5-0.8,1.1-0.8,2h-5.9l0-0.1c-0.1-1.9,0.7-3.6,2.5-5c1.8-1.4,4.1-2.1,6.9-2.1
		c2.7,0,4.9,0.7,6.6,2.1s2.5,3.3,2.5,5.9v9.4c0,1.1,0.1,2.1,0.2,3c0.2,0.9,0.4,1.9,0.8,2.8H311z M305.4,48.4c1.1,0,2-0.3,2.9-0.8
		s1.4-1.1,1.7-1.8v-3.2h-3.4c-1.3,0-2.3,0.3-3,1c-0.7,0.6-1,1.4-1,2.4c0,0.8,0.2,1.4,0.7,1.8C303.9,48.2,304.6,48.4,305.4,48.4z"/>
	<path class="st0" d="M332.7,35.1l-2.2-0.1c-0.9,0-1.7,0.2-2.2,0.6c-0.6,0.4-1,0.9-1.3,1.6v15.4h-6.1V29.8h5.7l0.3,3.4
		c0.5-1.2,1.2-2.1,2.1-2.8c0.8-0.7,1.8-1,2.9-1c0.3,0,0.6,0,0.9,0.1c0.3,0,0.5,0.1,0.8,0.2L332.7,35.1z"/>
	<path class="st0" d="M355.9,53c-2.8,0-5.2-1.1-7.1-3.2s-2.8-4.8-2.8-8v-1.2c0-3.2,0.9-5.9,2.8-8.1s4.1-3.2,6.8-3.2
		c2.8,0,5,0.9,6.6,2.6c1.6,1.8,2.4,4.1,2.4,7.1v2.1h-16v0.6c0,2.6,0.7,4.7,2,6.4c1.4,1.7,3.1,2.6,5.4,2.6c1.6,0,2.9-0.2,4-0.7
		c1.1-0.4,2.1-1.1,2.8-1.9l1.1,1.7c-0.9,0.9-1.9,1.6-3.2,2.1S357.7,53,355.9,53z M355.5,31.5c-1.9,0-3.4,0.7-4.7,2.1
		c-1.3,1.4-2,3.2-2.2,5.3l0,0.1H362v-0.6c0-2-0.6-3.6-1.7-4.9C359.1,32.2,357.5,31.5,355.5,31.5z"/>
	<path class="st0" d="M372.3,52.5h-2.5V19.7h2.5V52.5z"/>
	<path class="st0" d="M392.5,52.5H390V19.7h2.5V52.5z"/>
	<path class="st0" d="M408,53c-2.8,0-5.2-1.1-7.1-3.2s-2.8-4.8-2.8-8v-1.2c0-3.2,0.9-5.9,2.8-8.1s4.1-3.2,6.8-3.2
		c2.8,0,5,0.9,6.6,2.6c1.6,1.8,2.4,4.1,2.4,7.1v2.1h-16v0.6c0,2.6,0.7,4.7,2,6.4c1.4,1.7,3.1,2.6,5.4,2.6c1.6,0,2.9-0.2,4-0.7
		c1.1-0.4,2.1-1.1,2.8-1.9l1.1,1.7c-0.9,0.9-1.9,1.6-3.2,2.1S409.8,53,408,53z M407.7,31.5c-1.9,0-3.4,0.7-4.7,2.1
		c-1.3,1.4-2,3.2-2.2,5.3l0,0.1h13.3v-0.6c0-2-0.6-3.6-1.7-4.9C411.3,32.2,409.7,31.5,407.7,31.5z"/>
	<path class="st0" d="M430.1,50.8c1.7,0,3.1-0.5,4.4-1.4c1.3-0.9,1.9-2.3,1.9-4h2.2l0,0.1c0.1,2.1-0.8,3.9-2.5,5.3
		c-1.8,1.4-3.8,2.1-6.1,2.1c-3.1,0-5.5-1.1-7.2-3.2s-2.5-4.8-2.5-8.2v-0.9c0-3.3,0.8-6,2.5-8.2c1.7-2.1,4.1-3.2,7.1-3.2
		c2.5,0,4.6,0.7,6.2,2.2c1.7,1.5,2.5,3.4,2.4,5.8l0,0.1h-2.2c0-1.8-0.6-3.3-1.8-4.4c-1.2-1.1-2.7-1.6-4.5-1.6
		c-2.4,0-4.2,0.9-5.4,2.6c-1.2,1.7-1.8,3.9-1.8,6.6v0.9c0,2.7,0.6,4.9,1.7,6.6C425.8,49.9,427.6,50.8,430.1,50.8z"/>
	<path class="st0" d="M446.5,33.7c0.8-1.4,1.8-2.4,3-3.2c1.3-0.8,2.7-1.1,4.4-1.1c2.4,0,4.2,0.7,5.5,2.2c1.3,1.5,1.9,3.8,1.9,6.9v14
		h-2.5V38.4c0-2.5-0.5-4.2-1.5-5.3c-1-1.1-2.3-1.6-4-1.6c-1.7,0-3.2,0.5-4.3,1.4s-2,2.1-2.6,3.6v16h-2.5V19.7h2.5V33.7z"/>
	<path class="st0" d="M466.5,40.8c0-3.3,0.9-6.1,2.8-8.2c1.8-2.1,4.3-3.2,7.3-3.2c3,0,5.5,1.1,7.3,3.2c1.8,2.1,2.8,4.9,2.8,8.2v0.7
		c0,3.4-0.9,6.1-2.7,8.2s-4.3,3.2-7.3,3.2c-3.1,0-5.5-1.1-7.3-3.2c-1.8-2.1-2.8-4.9-2.8-8.2V40.8z M469,41.5c0,2.6,0.7,4.8,2,6.6
		c1.3,1.8,3.2,2.7,5.6,2.7c2.3,0,4.2-0.9,5.5-2.7s2-4,2-6.6v-0.7c0-2.6-0.7-4.8-2-6.6c-1.3-1.8-3.2-2.7-5.5-2.7
		c-2.4,0-4.2,0.9-5.5,2.7c-1.3,1.8-2,4-2,6.6V41.5z"/>
	<path class="st0" d="M501.3,41.3c0-3.6,0.8-6.5,2.3-8.7c1.5-2.2,3.7-3.3,6.4-3.3c1.6,0,3,0.3,4.1,1c1.2,0.7,2.1,1.6,2.9,2.9V19.7
		h2.5v32.8h-2.2l-0.2-3.3c-0.8,1.2-1.7,2.1-2.9,2.8c-1.2,0.6-2.6,1-4.2,1c-2.7,0-4.8-1-6.4-3c-1.5-2-2.3-4.7-2.3-8.1V41.3z
		 M503.8,41.8c0,2.8,0.5,5,1.6,6.6c1.1,1.6,2.8,2.4,5,2.4c1.6,0,3-0.4,4.1-1.1c1.1-0.7,1.9-1.7,2.5-3V36c-0.6-1.3-1.4-2.4-2.4-3.2
		s-2.4-1.2-4.1-1.2c-2.2,0-3.9,0.9-5,2.7c-1.1,1.8-1.7,4.2-1.7,7.1V41.8z"/>
	<path class="st0" d="M534.8,53c-2.8,0-5.2-1.1-7.1-3.2s-2.8-4.8-2.8-8v-1.2c0-3.2,0.9-5.9,2.8-8.1s4.1-3.2,6.8-3.2
		c2.8,0,5,0.9,6.6,2.6c1.6,1.8,2.4,4.1,2.4,7.1v2.1h-16v0.6c0,2.6,0.7,4.7,2,6.4c1.4,1.7,3.1,2.6,5.4,2.6c1.6,0,2.9-0.2,4-0.7
		c1.1-0.4,2.1-1.1,2.8-1.9l1.1,1.7c-0.9,0.9-1.9,1.6-3.2,2.1S536.6,53,534.8,53z M534.4,31.5c-1.9,0-3.4,0.7-4.7,2.1
		c-1.3,1.4-2,3.2-2.2,5.3l0,0.1h13.3v-0.6c0-2-0.6-3.6-1.7-4.9C538,32.2,536.4,31.5,534.4,31.5z"/>
	<path class="st0" d="M551.2,52.5h-2.5V19.7h2.5V52.5z"/>
	<path class="st0" d="M579.1,32l-1.9-0.1c-1.6,0-2.9,0.4-3.9,1.3c-1,0.9-1.7,2.1-2.2,3.7v15.7h-2.5V29.8h2.2l0.3,3.8v0.3
		c0.7-1.4,1.5-2.5,2.6-3.3c1.1-0.8,2.4-1.2,3.9-1.2c0.3,0,0.6,0,0.9,0.1c0.3,0,0.5,0.1,0.7,0.2L579.1,32z"/>
	<path class="st0" d="M587.5,21.4h3.1l0.1,0.1l-5.2,5.5h-2.3L587.5,21.4z M586,52.5h-2.5V29.8h2.5V52.5z"/>
	<path class="st0" d="M591.4,40.8c0-3.3,0.9-6.1,2.8-8.2c1.8-2.1,4.3-3.2,7.3-3.2c3,0,5.5,1.1,7.3,3.2c1.8,2.1,2.8,4.9,2.8,8.2v0.7
		c0,3.4-0.9,6.1-2.7,8.2s-4.3,3.2-7.3,3.2c-3.1,0-5.5-1.1-7.3-3.2c-1.8-2.1-2.8-4.9-2.8-8.2V40.8z M594,41.5c0,2.6,0.7,4.8,2,6.6
		c1.3,1.8,3.2,2.7,5.6,2.7c2.3,0,4.2-0.9,5.5-2.7s2-4,2-6.6v-0.7c0-2.6-0.7-4.8-2-6.6c-1.3-1.8-3.2-2.7-5.5-2.7
		c-2.4,0-4.2,0.9-5.5,2.7c-1.3,1.8-2,4-2,6.6V41.5z"/>
	<path class="st0" d="M629.5,29.8l0.2,4c0.7-1.4,1.7-2.5,3-3.2c1.2-0.8,2.7-1.1,4.4-1.1c2.5,0,4.3,0.8,5.6,2.3
		c1.3,1.5,1.9,3.9,1.9,7v13.8h-2.5V38.7c0-2.6-0.5-4.5-1.5-5.5c-1-1.1-2.4-1.6-4.1-1.6c-1.8,0-3.2,0.5-4.3,1.4s-1.9,2.2-2.4,3.7
		v15.9h-2.5V29.8H629.5z"/>
	<path class="st0" d="M654,23.3h-2.5v-3.5h2.5V23.3z M654,52.5h-2.5V29.8h2.5V52.5z"/>
	<path class="st0" d="M680,53c-2.8,0-5.2-1.1-7.1-3.2s-2.8-4.8-2.8-8v-1.2c0-3.2,0.9-5.9,2.8-8.1c1.9-2.1,4.1-3.2,6.8-3.2
		c2.8,0,5,0.9,6.6,2.6s2.4,4.1,2.4,7.1v2.1h-16v0.6c0,2.6,0.7,4.7,2,6.4s3.1,2.6,5.4,2.6c1.6,0,2.9-0.2,4-0.7
		c1.1-0.4,2.1-1.1,2.8-1.9l1.1,1.7c-0.9,0.9-1.9,1.6-3.2,2.1S681.8,53,680,53z M679.6,31.5c-1.9,0-3.4,0.7-4.7,2.1
		c-1.3,1.4-2,3.2-2.2,5.3l0,0.1h13.3v-0.6c0-2-0.6-3.6-1.7-4.9S681.6,31.5,679.6,31.5z"/>
	<path class="st0" d="M696.4,52.5h-2.5V19.7h2.5V52.5z"/>
	<path class="st0" d="M722.3,48.3c1.1,0,1.9-0.3,2.5-1c0.6-0.6,0.9-1.5,0.9-2.6h5.6l0,0.1c0.1,2.3-0.8,4.2-2.6,5.8S725,53,722.3,53
		c-3.4,0-6-1.1-7.8-3.2c-1.8-2.1-2.8-4.9-2.8-8.2v-0.6c0-3.3,0.9-6.1,2.7-8.2c1.8-2.2,4.4-3.2,7.8-3.2c2.8,0,5,0.8,6.7,2.4
		s2.5,3.7,2.5,6.3l0,0.1h-5.6c0-1.2-0.3-2.2-0.9-2.9c-0.6-0.8-1.5-1.2-2.6-1.2c-1.6,0-2.7,0.6-3.4,1.9c-0.7,1.3-1,2.9-1,4.9v0.6
		c0,2,0.3,3.6,1,4.9C719.6,47.6,720.7,48.3,722.3,48.3z"/>
	<path class="st0" d="M748.4,52.5c-0.2-0.5-0.4-1.1-0.6-1.6c-0.2-0.6-0.3-1.2-0.3-1.8c-0.6,1.1-1.5,2-2.5,2.8
		c-1,0.7-2.3,1.1-3.7,1.1c-2.4,0-4.2-0.6-5.5-1.8c-1.3-1.2-1.9-2.9-1.9-5c0-2.2,0.9-4,2.6-5.2s4.2-1.8,7.5-1.8h3.4v-1.8
		c0-1.1-0.3-1.9-0.9-2.5s-1.4-0.9-2.6-0.9c-1,0-1.8,0.2-2.3,0.7c-0.5,0.5-0.8,1.1-0.8,2H735l0-0.1c-0.1-1.9,0.7-3.6,2.5-5
		c1.8-1.4,4.1-2.1,6.9-2.1c2.7,0,4.9,0.7,6.6,2.1s2.5,3.3,2.5,5.9v9.4c0,1.1,0.1,2.1,0.2,3c0.2,0.9,0.4,1.9,0.8,2.8H748.4z
		 M742.8,48.4c1.1,0,2-0.3,2.9-0.8c0.8-0.5,1.4-1.1,1.7-1.8v-3.2H744c-1.3,0-2.3,0.3-3,1s-1,1.4-1,2.4c0,0.8,0.2,1.4,0.7,1.8
		S741.9,48.4,742.8,48.4z"/>
	<path class="st0" d="M772.1,49.2c-0.7,1.2-1.6,2.2-2.7,2.8c-1.1,0.7-2.3,1-3.8,1c-2.4,0-4.3-0.8-5.6-2.4s-2-4.1-2-7.6V29.8h6.1V43
		c0,2,0.3,3.4,0.8,4.1s1.4,1.1,2.5,1.1c1,0,1.8-0.2,2.5-0.5c0.7-0.3,1.3-0.8,1.7-1.4V29.8h6.1v22.7h-5.1L772.1,49.2z"/>
	<path class="st0" d="M791.9,48.3c1.1,0,1.9-0.3,2.5-1c0.6-0.6,0.9-1.5,0.9-2.6h5.6l0,0.1c0.1,2.3-0.8,4.2-2.6,5.8s-3.9,2.3-6.6,2.3
		c-3.4,0-6-1.1-7.8-3.2c-1.8-2.1-2.8-4.9-2.8-8.2v-0.6c0-3.3,0.9-6.1,2.7-8.2c1.8-2.2,4.4-3.2,7.8-3.2c2.8,0,5,0.8,6.7,2.4
		s2.5,3.7,2.5,6.3l0,0.1h-5.6c0-1.2-0.3-2.2-0.9-2.9c-0.6-0.8-1.5-1.2-2.6-1.2c-1.6,0-2.7,0.6-3.4,1.9c-0.7,1.3-1,2.9-1,4.9v0.6
		c0,2,0.3,3.6,1,4.9C789.2,47.6,790.3,48.3,791.9,48.3z"/>
	<path class="st0" d="M814.5,53c-3.4,0-6-1-7.9-3.1c-1.9-2.1-2.9-4.8-2.9-8V41c0-3.4,0.9-6.2,2.8-8.4s4.4-3.2,7.6-3.2
		c3.1,0,5.4,0.9,7,2.8c1.6,1.9,2.4,4.4,2.4,7.6v3.2H810l-0.1,0.1c0.1,1.6,0.6,2.8,1.4,3.8c0.8,1,2.1,1.4,3.8,1.4
		c1.4,0,2.5-0.1,3.5-0.4c1-0.3,2-0.7,3-1.3l1.7,3.8c-0.9,0.7-2.1,1.4-3.7,1.9C818,52.7,816.3,53,814.5,53z M814.1,34.1
		c-1.2,0-2.2,0.4-2.8,1.3c-0.7,0.8-1.1,2-1.2,3.4l0,0.1h7.5v-0.5c0-1.3-0.3-2.4-0.8-3.1C816.2,34.5,815.3,34.1,814.1,34.1z"/>
	<path class="st0" d="M836.9,41.3c0-3.6,0.8-6.5,2.3-8.7s3.7-3.3,6.5-3.3c1.1,0,2.2,0.2,3.1,0.7c0.9,0.5,1.7,1.2,2.4,2.1V19.7h6.2
		v32.8h-5.2l-0.5-2.8c-0.7,1.1-1.6,1.9-2.5,2.4S847,53,845.7,53c-2.8,0-5-1-6.5-3.1c-1.5-2-2.3-4.7-2.3-8.1V41.3z M843,41.8
		c0,2,0.3,3.6,1,4.7c0.7,1.1,1.8,1.7,3.3,1.7c0.9,0,1.7-0.2,2.3-0.5c0.7-0.4,1.2-0.9,1.6-1.6v-9.7c-0.4-0.7-1-1.3-1.6-1.7
		c-0.7-0.4-1.4-0.6-2.3-0.6c-1.5,0-2.6,0.7-3.3,2c-0.7,1.3-1,3.1-1,5.2V41.8z"/>
	<path class="st0" d="M872,53c-3.4,0-6-1-7.9-3.1c-1.9-2.1-2.9-4.8-2.9-8V41c0-3.4,0.9-6.2,2.8-8.4s4.4-3.2,7.6-3.2
		c3.1,0,5.4,0.9,7,2.8c1.6,1.9,2.4,4.4,2.4,7.6v3.2h-13.5l-0.1,0.1c0.1,1.6,0.6,2.8,1.4,3.8c0.8,1,2.1,1.4,3.8,1.4
		c1.4,0,2.5-0.1,3.5-0.4c1-0.3,2-0.7,3-1.3l1.7,3.8c-0.9,0.7-2.1,1.4-3.7,1.9C875.5,52.7,873.8,53,872,53z M871.6,34.1
		c-1.2,0-2.2,0.4-2.8,1.3c-0.7,0.8-1.1,2-1.2,3.4l0,0.1h7.5v-0.5c0-1.3-0.3-2.4-0.8-3.1C873.7,34.5,872.8,34.1,871.6,34.1z"/>
	<path class="st0" d="M908.7,52.5c-0.2-0.5-0.4-1.1-0.6-1.6c-0.2-0.6-0.3-1.2-0.3-1.8c-0.6,1.1-1.5,2-2.5,2.8
		c-1,0.7-2.3,1.1-3.7,1.1c-2.4,0-4.2-0.6-5.5-1.8c-1.3-1.2-1.9-2.9-1.9-5c0-2.2,0.9-4,2.6-5.2s4.2-1.8,7.5-1.8h3.4v-1.8
		c0-1.1-0.3-1.9-0.9-2.5s-1.4-0.9-2.6-0.9c-1,0-1.8,0.2-2.3,0.7c-0.5,0.5-0.8,1.1-0.8,2h-5.9l0-0.1c-0.1-1.9,0.7-3.6,2.5-5
		c1.8-1.4,4.1-2.1,6.9-2.1c2.7,0,4.9,0.7,6.6,2.1s2.5,3.3,2.5,5.9v9.4c0,1.1,0.1,2.1,0.2,3c0.2,0.9,0.4,1.9,0.8,2.8H908.7z
		 M903.1,48.4c1.1,0,2-0.3,2.9-0.8c0.8-0.5,1.4-1.1,1.7-1.8v-3.2h-3.4c-1.3,0-2.3,0.3-3,1s-1,1.4-1,2.4c0,0.8,0.2,1.4,0.7,1.8
		S902.2,48.4,903.1,48.4z"/>
	<path class="st0" d="M917.5,41.3c0-3.6,0.8-6.5,2.3-8.7s3.7-3.3,6.6-3.3c1.3,0,2.4,0.3,3.4,0.9c1,0.6,1.8,1.4,2.5,2.5l0.5-2.9h5.3
		v22.6c0,3-1,5.2-2.9,6.9c-1.9,1.6-4.6,2.4-8.1,2.4c-1.1,0-2.4-0.2-3.7-0.5c-1.3-0.3-2.5-0.7-3.6-1.3l1-4.6c0.9,0.4,1.9,0.8,2.9,1
		c1,0.2,2.1,0.3,3.2,0.3c1.7,0,2.9-0.4,3.7-1.1c0.8-0.7,1.2-1.8,1.2-3.3v-2.1c-0.7,0.9-1.5,1.5-2.4,2c-0.9,0.4-2,0.7-3.1,0.7
		c-2.8,0-5-1-6.5-3.1c-1.6-2-2.3-4.7-2.3-8.1V41.3z M923.7,41.8c0,2,0.3,3.6,1,4.7c0.7,1.1,1.8,1.7,3.3,1.7c0.9,0,1.7-0.2,2.4-0.5
		c0.7-0.3,1.2-0.8,1.6-1.5v-9.9c-0.4-0.7-0.9-1.2-1.6-1.6c-0.7-0.4-1.4-0.6-2.3-0.6c-1.5,0-2.6,0.7-3.3,2c-0.7,1.3-1,3.1-1,5.2V41.8
		z"/>
	<path class="st0" d="M956.6,49.2c-0.7,1.2-1.6,2.2-2.7,2.8c-1.1,0.7-2.3,1-3.8,1c-2.4,0-4.3-0.8-5.6-2.4s-2-4.1-2-7.6V29.8h6.1V43
		c0,2,0.3,3.4,0.8,4.1s1.4,1.1,2.5,1.1c1,0,1.8-0.2,2.5-0.5c0.7-0.3,1.3-0.8,1.7-1.4V29.8h6.1v22.7h-5.1L956.6,49.2z"/>
	<path class="st0" d="M980.4,52.5c-0.2-0.5-0.4-1.1-0.6-1.6c-0.2-0.6-0.3-1.2-0.3-1.8c-0.6,1.1-1.5,2-2.5,2.8
		c-1,0.7-2.3,1.1-3.7,1.1c-2.4,0-4.2-0.6-5.5-1.8c-1.3-1.2-1.9-2.9-1.9-5c0-2.2,0.9-4,2.6-5.2s4.2-1.8,7.5-1.8h3.4v-1.8
		c0-1.1-0.3-1.9-0.9-2.5s-1.4-0.9-2.6-0.9c-1,0-1.8,0.2-2.3,0.7c-0.5,0.5-0.8,1.1-0.8,2h-5.9l0-0.1c-0.1-1.9,0.7-3.6,2.5-5
		c1.8-1.4,4.1-2.1,6.9-2.1c2.7,0,4.9,0.7,6.6,2.1s2.5,3.3,2.5,5.9v9.4c0,1.1,0.1,2.1,0.2,3c0.2,0.9,0.4,1.9,0.8,2.8H980.4z
		 M974.8,48.4c1.1,0,2-0.3,2.9-0.8c0.8-0.5,1.4-1.1,1.7-1.8v-3.2h-3.4c-1.3,0-2.3,0.3-3,1s-1,1.4-1,2.4c0,0.8,0.2,1.4,0.7,1.8
		S973.9,48.4,974.8,48.4z"/>
	<path class="st0" d="M993.4,52.1l-2.2,5.8h-1.7l1.5-5.9v-3.5h2.5V52.1z"/>
	<path class="st0" d="M1018.3,53c-2.8,0-5.2-1.1-7.1-3.2s-2.8-4.8-2.8-8v-1.2c0-3.2,0.9-5.9,2.8-8.1c1.9-2.1,4.1-3.2,6.8-3.2
		c2.8,0,5,0.9,6.6,2.6s2.4,4.1,2.4,7.1v2.1h-16v0.6c0,2.6,0.7,4.7,2,6.4s3.1,2.6,5.4,2.6c1.6,0,2.9-0.2,4-0.7
		c1.1-0.4,2.1-1.1,2.8-1.9l1.1,1.7c-0.9,0.9-1.9,1.6-3.2,2.1S1020.1,53,1018.3,53z M1018,31.5c-1.9,0-3.4,0.7-4.7,2.1
		c-1.3,1.4-2,3.2-2.2,5.3l0,0.1h13.3v-0.6c0-2-0.6-3.6-1.7-4.9S1020,31.5,1018,31.5z"/>
	<path class="st0" d="M1034.7,52.5h-2.5V19.7h2.5V52.5z"/>
	<path class="st0" d="M1051.2,41.3c0-3.6,0.8-6.5,2.3-8.7c1.5-2.2,3.7-3.3,6.4-3.3c1.6,0,3,0.3,4.1,1c1.2,0.7,2.1,1.6,2.9,2.9V19.7
		h2.5v32.8h-2.2l-0.2-3.3c-0.8,1.2-1.7,2.1-2.9,2.8c-1.2,0.6-2.6,1-4.2,1c-2.7,0-4.8-1-6.4-3c-1.5-2-2.3-4.7-2.3-8.1V41.3z
		 M1053.7,41.8c0,2.8,0.5,5,1.6,6.6c1.1,1.6,2.8,2.4,5,2.4c1.6,0,3-0.4,4.1-1.1c1.1-0.7,1.9-1.7,2.5-3V36c-0.6-1.3-1.4-2.4-2.4-3.2
		c-1.1-0.8-2.4-1.2-4.1-1.2c-2.2,0-3.9,0.9-5,2.7c-1.1,1.8-1.7,4.2-1.7,7.1V41.8z"/>
	<path class="st0" d="M1091,48.8c-0.7,1.3-1.7,2.4-2.9,3.1s-2.7,1.1-4.4,1.1c-2.4,0-4.3-0.8-5.6-2.4s-2-4.1-2-7.6V29.8h2.5V43
		c0,2.8,0.5,4.8,1.4,6c0.9,1.2,2.3,1.8,4,1.8c1.9,0,3.4-0.4,4.6-1.3c1.1-0.9,1.9-2,2.4-3.5V29.8h2.5v22.7h-2.2L1091,48.8z"/>
	<path class="st0" d="M1108.5,50.8c1.7,0,3.1-0.5,4.4-1.4c1.3-0.9,1.9-2.3,1.9-4h2.2l0,0.1c0.1,2.1-0.8,3.9-2.5,5.3
		c-1.8,1.4-3.8,2.1-6.1,2.1c-3.1,0-5.5-1.1-7.2-3.2c-1.7-2.1-2.5-4.8-2.5-8.2v-0.9c0-3.3,0.8-6,2.5-8.2s4.1-3.2,7.1-3.2
		c2.5,0,4.6,0.7,6.2,2.2c1.7,1.5,2.5,3.4,2.4,5.8l0,0.1h-2.2c0-1.8-0.6-3.3-1.8-4.4c-1.2-1.1-2.7-1.6-4.5-1.6
		c-2.4,0-4.2,0.9-5.4,2.6c-1.2,1.7-1.8,3.9-1.8,6.6v0.9c0,2.7,0.6,4.9,1.7,6.6C1104.2,49.9,1106,50.8,1108.5,50.8z"/>
	<path class="st0" d="M1126.3,24v5.8h5v2.1h-5v14.8c0,1.5,0.3,2.5,0.8,3.2s1.3,0.9,2.2,0.9c0.4,0,0.8,0,1.2-0.1
		c0.4,0,0.8-0.1,1.3-0.2l0.4,1.9c-0.4,0.2-0.9,0.3-1.5,0.4c-0.6,0.1-1.2,0.1-1.8,0.1c-1.6,0-2.8-0.5-3.7-1.5c-0.9-1-1.3-2.6-1.3-4.8
		V31.8h-3.9v-2.1h3.9V24H1126.3z"/>
	<path class="st0" d="M1134.8,40.8c0-3.3,0.9-6.1,2.8-8.2c1.8-2.1,4.3-3.2,7.3-3.2c3,0,5.5,1.1,7.3,3.2s2.8,4.9,2.8,8.2v0.7
		c0,3.4-0.9,6.1-2.7,8.2s-4.3,3.2-7.3,3.2c-3.1,0-5.5-1.1-7.3-3.2c-1.8-2.1-2.8-4.9-2.8-8.2V40.8z M1137.3,41.5c0,2.6,0.7,4.8,2,6.6
		s3.2,2.7,5.6,2.7c2.3,0,4.2-0.9,5.5-2.7s2-4,2-6.6v-0.7c0-2.6-0.7-4.8-2-6.6c-1.3-1.8-3.2-2.7-5.5-2.7c-2.4,0-4.2,0.9-5.5,2.7
		c-1.3,1.8-2,4-2,6.6V41.5z"/>
	<path class="st0" d="M26.6,103.4c0,3.4-0.8,6.1-2.3,8.1c-1.5,2-3.7,3-6.4,3c-1.6,0-3-0.3-4.2-0.9c-1.2-0.6-2.2-1.5-2.9-2.6v11.8
		H8.3V91.4h2.1l0.3,3.5c0.8-1.3,1.7-2.2,2.9-2.9c1.2-0.7,2.6-1,4.2-1c2.7,0,4.9,1.1,6.4,3.3c1.5,2.2,2.3,5.1,2.3,8.7V103.4z
		 M24.1,102.9c0-2.9-0.6-5.2-1.7-7.1c-1.1-1.8-2.8-2.7-5-2.7c-1.7,0-3.1,0.4-4.1,1.2c-1.1,0.8-1.9,1.9-2.4,3.1v10.9
		c0.6,1.2,1.4,2.2,2.5,2.9c1.1,0.7,2.4,1.1,4.1,1.1c2.2,0,3.9-0.8,5-2.5c1.1-1.7,1.7-3.8,1.7-6.6V102.9z"/>
	<path class="st0" d="M46.7,114.1c-0.2-0.8-0.3-1.4-0.4-2c-0.1-0.6-0.1-1.1-0.1-1.7c-0.8,1.2-2,2.2-3.4,3s-3,1.2-4.7,1.2
		c-2.2,0-3.9-0.6-5.2-1.8c-1.2-1.2-1.8-2.8-1.8-4.7c0-2.1,0.9-3.8,2.7-5s4.3-1.9,7.3-1.9h5v-2.8c0-1.6-0.5-2.9-1.6-3.8
		s-2.5-1.4-4.4-1.4c-1.8,0-3.2,0.4-4.4,1.3c-1.2,0.9-1.7,2-1.7,3.2l-2.3,0l0-0.1c-0.1-1.7,0.7-3.2,2.3-4.5c1.6-1.3,3.7-2,6.2-2
		c2.5,0,4.5,0.6,6,1.9c1.5,1.3,2.3,3.1,2.3,5.5v11.2c0,0.8,0,1.6,0.1,2.3c0.1,0.8,0.2,1.5,0.5,2.2H46.7z M38.4,112.4
		c1.8,0,3.4-0.4,4.8-1.3c1.4-0.8,2.4-1.9,3-3.2v-4.7h-5.1c-2.3,0-4.1,0.5-5.5,1.5c-1.4,1-2,2.2-2,3.6c0,1.2,0.4,2.2,1.3,3
		C35.7,112,36.9,112.4,38.4,112.4z"/>
	<path class="st0" d="M69,108.4c0-1.1-0.4-2-1.3-2.8c-0.9-0.8-2.5-1.4-4.7-1.9c-2.7-0.6-4.7-1.4-6-2.3c-1.3-1-1.9-2.3-1.9-4.1
		c0-1.7,0.7-3.2,2.2-4.4c1.5-1.2,3.4-1.8,5.8-1.8c2.6,0,4.6,0.6,6.1,1.9c1.5,1.3,2.2,2.9,2.1,4.8l0,0.1h-2.3c0-1.2-0.5-2.3-1.6-3.3
		c-1.1-0.9-2.5-1.4-4.3-1.4c-1.8,0-3.2,0.4-4.1,1.2c-0.9,0.8-1.4,1.7-1.4,2.8c0,1,0.4,1.9,1.2,2.6s2.4,1.3,4.7,1.8
		c2.7,0.6,4.7,1.4,6.1,2.5c1.3,1,2,2.5,2,4.3c0,1.9-0.8,3.4-2.3,4.6c-1.5,1.2-3.6,1.8-6.1,1.8c-2.8,0-4.9-0.7-6.5-2
		c-1.6-1.3-2.3-2.9-2.2-4.7l0-0.1h2.3c0.1,1.6,0.8,2.8,2,3.6c1.2,0.7,2.7,1.1,4.4,1.1c1.8,0,3.3-0.4,4.3-1.2
		C68.5,110.4,69,109.5,69,108.4z"/>
	<path class="st0" d="M91.7,114.1c-0.2-0.8-0.3-1.4-0.4-2c-0.1-0.6-0.1-1.1-0.1-1.7c-0.8,1.2-2,2.2-3.4,3s-3,1.2-4.7,1.2
		c-2.2,0-3.9-0.6-5.2-1.8c-1.2-1.2-1.8-2.8-1.8-4.7c0-2.1,0.9-3.8,2.7-5s4.3-1.9,7.3-1.9h5v-2.8c0-1.6-0.5-2.9-1.6-3.8
		s-2.5-1.4-4.4-1.4c-1.8,0-3.2,0.4-4.4,1.3c-1.2,0.9-1.7,2-1.7,3.2l-2.3,0l0-0.1c-0.1-1.7,0.7-3.2,2.3-4.5c1.6-1.3,3.7-2,6.2-2
		c2.5,0,4.5,0.6,6,1.9c1.5,1.3,2.3,3.1,2.3,5.5v11.2c0,0.8,0,1.6,0.1,2.3c0.1,0.8,0.2,1.5,0.5,2.2H91.7z M83.4,112.4
		c1.8,0,3.4-0.4,4.8-1.3c1.4-0.8,2.4-1.9,3-3.2v-4.7h-5.1c-2.3,0-4.1,0.5-5.5,1.5c-1.4,1-2,2.2-2,3.6c0,1.2,0.4,2.2,1.3,3
		C80.8,112,81.9,112.4,83.4,112.4z"/>
	<path class="st0" d="M110.9,93.6l-1.9-0.1c-1.6,0-2.9,0.4-3.9,1.3c-1,0.9-1.7,2.1-2.2,3.7v15.7h-2.5V91.4h2.2l0.3,3.8v0.3
		c0.7-1.4,1.5-2.5,2.6-3.3c1.1-0.8,2.4-1.2,3.9-1.2c0.3,0,0.6,0,0.9,0.1c0.3,0,0.5,0.1,0.7,0.2L110.9,93.6z"/>
	<path class="st0" d="M129.5,114.1c-0.2-0.8-0.3-1.4-0.4-2c-0.1-0.6-0.1-1.1-0.1-1.7c-0.8,1.2-2,2.2-3.4,3s-3,1.2-4.7,1.2
		c-2.2,0-3.9-0.6-5.2-1.8c-1.2-1.2-1.8-2.8-1.8-4.7c0-2.1,0.9-3.8,2.7-5s4.3-1.9,7.3-1.9h5v-2.8c0-1.6-0.5-2.9-1.6-3.8
		s-2.5-1.4-4.4-1.4c-1.8,0-3.2,0.4-4.4,1.3c-1.2,0.9-1.7,2-1.7,3.2l-2.3,0l0-0.1c-0.1-1.7,0.7-3.2,2.3-4.5c1.6-1.3,3.7-2,6.2-2
		c2.5,0,4.5,0.6,6,1.9c1.5,1.3,2.3,3.1,2.3,5.5v11.2c0,0.8,0,1.6,0.1,2.3c0.1,0.8,0.2,1.5,0.5,2.2H129.5z M121.2,112.4
		c1.8,0,3.4-0.4,4.8-1.3c1.4-0.8,2.4-1.9,3-3.2v-4.7h-5.1c-2.3,0-4.1,0.5-5.5,1.5c-1.4,1-2,2.2-2,3.6c0,1.2,0.4,2.2,1.3,3
		C118.5,112,119.7,112.4,121.2,112.4z M125.9,82.6h3.1l0.1,0.1l-5.2,5.5h-2.3L125.9,82.6z"/>
	<path class="st0" d="M157.2,114.6c-2.8,0-5.2-1.1-7.1-3.2s-2.8-4.8-2.8-8v-1.2c0-3.2,0.9-5.9,2.8-8.1s4.1-3.2,6.8-3.2
		c2.8,0,5,0.9,6.6,2.6c1.6,1.8,2.4,4.1,2.4,7.1v2.1h-16v0.6c0,2.6,0.7,4.7,2,6.4c1.4,1.7,3.1,2.6,5.4,2.6c1.6,0,2.9-0.2,4-0.7
		c1.1-0.4,2.1-1.1,2.8-1.9l1.1,1.7c-0.9,0.9-1.9,1.6-3.2,2.1S159,114.6,157.2,114.6z M156.9,93.1c-1.9,0-3.4,0.7-4.7,2.1
		c-1.3,1.4-2,3.2-2.2,5.3l0,0.1h13.3v-0.6c0-2-0.6-3.6-1.7-4.9C160.4,93.8,158.9,93.1,156.9,93.1z"/>
	<path class="st0" d="M173.1,91.4l0.2,4c0.7-1.4,1.7-2.5,3-3.2c1.2-0.8,2.7-1.1,4.4-1.1c2.5,0,4.3,0.8,5.6,2.3
		c1.3,1.5,1.9,3.9,1.9,7v13.8h-2.5v-13.8c0-2.6-0.5-4.5-1.5-5.5c-1-1.1-2.4-1.6-4.1-1.6c-1.8,0-3.2,0.5-4.3,1.4s-1.9,2.2-2.4,3.7
		v15.9h-2.5V91.4H173.1z"/>
	<path class="st0" d="M207.1,114.1V93.5h-3.8v-2.1h3.8v-3.3c0-2.3,0.6-4,1.7-5.3c1.1-1.2,2.7-1.9,4.8-1.9c0.5,0,0.9,0,1.4,0.1
		c0.5,0.1,1,0.2,1.4,0.3l-0.3,2.1c-0.3-0.1-0.7-0.2-1-0.2c-0.4,0-0.8-0.1-1.2-0.1c-1.4,0-2.4,0.4-3.2,1.3c-0.7,0.9-1.1,2.1-1.1,3.7
		v3.3h5.4v2.1h-5.4v20.7H207.1z"/>
	<path class="st0" d="M218,102.4c0-3.3,0.9-6.1,2.8-8.2c1.8-2.1,4.3-3.2,7.3-3.2c3,0,5.5,1.1,7.3,3.2c1.8,2.1,2.8,4.9,2.8,8.2v0.7
		c0,3.4-0.9,6.1-2.7,8.2s-4.3,3.2-7.3,3.2c-3.1,0-5.5-1.1-7.3-3.2c-1.8-2.1-2.8-4.9-2.8-8.2V102.4z M220.5,103.1
		c0,2.6,0.7,4.8,2,6.6c1.3,1.8,3.2,2.7,5.6,2.7c2.3,0,4.2-0.9,5.5-2.7c1.3-1.8,2-4,2-6.6v-0.7c0-2.6-0.7-4.8-2-6.6
		c-1.3-1.8-3.2-2.7-5.5-2.7c-2.4,0-4.2,0.9-5.5,2.7c-1.3,1.8-2,4-2,6.6V103.1z"/>
	<path class="st0" d="M253.8,93.6l-1.9-0.1c-1.6,0-2.9,0.4-3.9,1.3c-1,0.9-1.7,2.1-2.2,3.7v15.7h-2.5V91.4h2.2l0.3,3.8v0.3
		c0.7-1.4,1.5-2.5,2.6-3.3c1.1-0.8,2.4-1.2,3.9-1.2c0.3,0,0.6,0,0.9,0.1c0.3,0,0.5,0.1,0.7,0.2L253.8,93.6z"/>
	<path class="st0" d="M260.1,91.4l0.2,3.8c0.7-1.3,1.7-2.4,2.9-3.1s2.7-1.1,4.3-1.1c1.7,0,3.2,0.4,4.4,1.3c1.2,0.8,2,2.1,2.5,3.8
		c0.7-1.6,1.7-2.8,2.9-3.8c1.3-0.9,2.8-1.4,4.6-1.4c2.4,0,4.3,0.8,5.6,2.4s2,4.1,2,7.5v13.3h-2.5v-13.3c0-2.8-0.5-4.8-1.5-5.9
		s-2.4-1.7-4.1-1.7c-1.9,0-3.5,0.6-4.5,1.8c-1.1,1.2-1.7,2.8-2,4.7c0,0.1,0,0.2,0,0.4c0,0.2,0,0.3,0,0.4v13.7h-2.5v-13.3
		c0-2.8-0.5-4.7-1.5-5.9c-1-1.2-2.4-1.8-4.1-1.8c-1.8,0-3.2,0.5-4.2,1.4c-1,0.9-1.8,2.1-2.2,3.7v16h-2.5V91.4H260.1z"/>
	<path class="st0" d="M310.5,114.1c-0.2-0.8-0.3-1.4-0.4-2c-0.1-0.6-0.1-1.1-0.1-1.7c-0.8,1.2-2,2.2-3.4,3s-3,1.2-4.7,1.2
		c-2.2,0-3.9-0.6-5.2-1.8c-1.2-1.2-1.8-2.8-1.8-4.7c0-2.1,0.9-3.8,2.7-5s4.3-1.9,7.3-1.9h5v-2.8c0-1.6-0.5-2.9-1.6-3.8
		s-2.5-1.4-4.4-1.4c-1.8,0-3.2,0.4-4.4,1.3c-1.2,0.9-1.7,2-1.7,3.2l-2.3,0l0-0.1c-0.1-1.7,0.7-3.2,2.3-4.5c1.6-1.3,3.7-2,6.2-2
		c2.5,0,4.5,0.6,6,1.9c1.5,1.3,2.3,3.1,2.3,5.5v11.2c0,0.8,0,1.6,0.1,2.3c0.1,0.8,0.2,1.5,0.5,2.2H310.5z M302.2,112.4
		c1.8,0,3.4-0.4,4.8-1.3c1.4-0.8,2.4-1.9,3-3.2v-4.7H305c-2.3,0-4.1,0.5-5.5,1.5c-1.4,1-2,2.2-2,3.6c0,1.2,0.4,2.2,1.3,3
		C299.5,112,300.7,112.4,302.2,112.4z"/>
	<path class="st0" d="M341,107.8c0-0.7-0.3-1.2-1-1.7c-0.7-0.5-1.9-0.9-3.6-1.3c-2.7-0.5-4.7-1.3-6.1-2.4c-1.4-1.1-2.1-2.5-2.1-4.4
		c0-1.9,0.8-3.6,2.5-5s3.9-2.1,6.6-2.1c2.9,0,5.2,0.7,6.9,2.1c1.7,1.4,2.6,3.1,2.5,5.1l0,0.1h-5.9c0-0.9-0.3-1.7-0.9-2.2
		c-0.6-0.6-1.4-0.9-2.5-0.9c-1,0-1.8,0.2-2.3,0.7c-0.6,0.5-0.9,1.1-0.9,1.8c0,0.7,0.3,1.3,0.9,1.7c0.6,0.4,1.8,0.8,3.6,1.2
		c2.8,0.6,4.9,1.4,6.2,2.5c1.4,1.1,2,2.6,2,4.5c0,2-0.9,3.7-2.6,5s-4.1,2-6.9,2c-3,0-5.4-0.8-7.2-2.3c-1.8-1.5-2.6-3.3-2.5-5.2
		l0-0.1h5.6c0,1.2,0.4,2.1,1.2,2.6c0.8,0.5,1.7,0.8,3,0.8c1.1,0,2-0.2,2.6-0.7S341,108.6,341,107.8z"/>
	<path class="st0" d="M364.8,110.8c-0.7,1.2-1.6,2.2-2.7,2.8c-1.1,0.7-2.3,1-3.8,1c-2.4,0-4.3-0.8-5.6-2.4c-1.4-1.6-2-4.1-2-7.6
		V91.4h6.1v13.2c0,2,0.3,3.4,0.8,4.1c0.5,0.7,1.4,1.1,2.5,1.1c1,0,1.8-0.2,2.5-0.5c0.7-0.3,1.3-0.8,1.7-1.4V91.4h6.1v22.7h-5.1
		L364.8,110.8z"/>
	<path class="st0" d="M395.7,103.4c0,3.4-0.8,6.1-2.3,8.1c-1.5,2-3.7,3-6.6,3c-1.3,0-2.5-0.3-3.5-0.8c-1-0.6-1.8-1.4-2.5-2.5
		l-0.5,2.9h-5.2V81.4h6.1v12.5c0.7-0.9,1.4-1.6,2.4-2.1c0.9-0.5,2-0.7,3.2-0.7c2.9,0,5.1,1.1,6.6,3.3c1.5,2.2,2.3,5.1,2.3,8.7V103.4
		z M389.6,103c0-2.2-0.3-4-1-5.3c-0.7-1.3-1.8-1.9-3.3-1.9c-1,0-1.8,0.2-2.4,0.6c-0.7,0.4-1.2,1-1.6,1.7v9.6
		c0.4,0.7,0.9,1.2,1.6,1.6c0.7,0.4,1.5,0.5,2.4,0.5c1.6,0,2.7-0.6,3.3-1.7c0.6-1.1,0.9-2.7,0.9-4.7V103z"/>
	<path class="st0" d="M406.8,85.8v5.6h3.8v4.3h-3.8v11.6c0,0.9,0.2,1.5,0.6,1.9s0.9,0.6,1.5,0.6c0.3,0,0.6,0,0.8-0.1
		c0.2,0,0.5-0.1,0.8-0.2l0.5,4.4c-0.6,0.2-1.2,0.4-1.8,0.5c-0.6,0.1-1.2,0.2-1.9,0.2c-2.1,0-3.7-0.6-4.9-1.7c-1.1-1.2-1.7-3-1.7-5.5
		V95.7h-3.3v-4.3h3.3v-5.6H406.8z"/>
	<path class="st0" d="M424.3,114.6c-3.4,0-6-1-7.9-3.1c-1.9-2.1-2.9-4.8-2.9-8v-0.8c0-3.4,0.9-6.2,2.8-8.4s4.4-3.2,7.6-3.2
		c3.1,0,5.4,0.9,7,2.8c1.6,1.9,2.4,4.4,2.4,7.6v3.2h-13.5l-0.1,0.1c0.1,1.6,0.6,2.8,1.4,3.8c0.8,1,2.1,1.4,3.8,1.4
		c1.4,0,2.5-0.1,3.5-0.4c1-0.3,2-0.7,3-1.3l1.7,3.8c-0.9,0.7-2.1,1.4-3.7,1.9C427.8,114.3,426.1,114.6,424.3,114.6z M423.9,95.7
		c-1.2,0-2.2,0.4-2.8,1.3c-0.7,0.8-1.1,2-1.2,3.4l0,0.1h7.5V100c0-1.3-0.3-2.4-0.8-3.1C426,96.1,425.1,95.7,423.9,95.7z"/>
	<path class="st0" d="M448.9,96.7l-2.2-0.1c-0.9,0-1.7,0.2-2.2,0.6c-0.6,0.4-1,0.9-1.3,1.6v15.4h-6.1V91.4h5.7l0.3,3.4
		c0.5-1.2,1.2-2.1,2.1-2.8c0.8-0.7,1.8-1,2.9-1c0.3,0,0.6,0,0.9,0.1c0.3,0,0.5,0.1,0.8,0.2L448.9,96.7z"/>
	<path class="st0" d="M464,96.7l-2.2-0.1c-0.9,0-1.7,0.2-2.2,0.6c-0.6,0.4-1,0.9-1.3,1.6v15.4h-6.1V91.4h5.7l0.3,3.4
		c0.5-1.2,1.2-2.1,2.1-2.8c0.8-0.7,1.8-1,2.9-1c0.3,0,0.6,0,0.9,0.1c0.3,0,0.5,0.1,0.8,0.2L464,96.7z"/>
	<path class="st0" d="M480.6,114.1c-0.2-0.5-0.4-1.1-0.6-1.6c-0.2-0.6-0.3-1.2-0.3-1.8c-0.6,1.1-1.5,2-2.5,2.8
		c-1,0.7-2.3,1.1-3.7,1.1c-2.4,0-4.2-0.6-5.5-1.8s-1.9-2.9-1.9-5c0-2.2,0.9-4,2.6-5.2s4.2-1.8,7.5-1.8h3.4v-1.8
		c0-1.1-0.3-1.9-0.9-2.5s-1.4-0.9-2.6-0.9c-1,0-1.8,0.2-2.3,0.7c-0.5,0.5-0.8,1.1-0.8,2h-5.9l0-0.1c-0.1-1.9,0.7-3.6,2.5-5
		c1.8-1.4,4.1-2.1,6.9-2.1c2.7,0,4.9,0.7,6.6,2.1s2.5,3.3,2.5,5.9v9.4c0,1.1,0.1,2.1,0.2,3c0.2,0.9,0.4,1.9,0.8,2.8H480.6z M475,110
		c1.1,0,2-0.3,2.9-0.8s1.4-1.1,1.7-1.8v-3.2h-3.4c-1.3,0-2.3,0.3-3,1c-0.7,0.6-1,1.4-1,2.4c0,0.8,0.2,1.4,0.7,1.8
		C473.4,109.8,474.1,110,475,110z M477.6,81.7h6.8l0,0.1l-5.8,5.5h-5.2L477.6,81.7z"/>
	<path class="st0" d="M495.9,91.4l0.3,3.3c0.8-1.2,1.7-2.1,2.8-2.7s2.3-1,3.7-1c2.3,0,4.1,0.7,5.4,2.2c1.3,1.5,1.9,3.8,1.9,7v13.9
		h-6.2v-13.9c0-1.6-0.3-2.8-0.9-3.5c-0.6-0.7-1.4-1-2.6-1c-0.9,0-1.7,0.2-2.4,0.5c-0.7,0.3-1.3,0.8-1.7,1.4v16.4h-6.1V91.4H495.9z"
		/>
	<path class="st0" d="M524.5,114.6c-3.4,0-6-1-7.9-3.1c-1.9-2.1-2.9-4.8-2.9-8v-0.8c0-3.4,0.9-6.2,2.8-8.4s4.4-3.2,7.6-3.2
		c3.1,0,5.4,0.9,7,2.8c1.6,1.9,2.4,4.4,2.4,7.6v3.2H520l-0.1,0.1c0.1,1.6,0.6,2.8,1.4,3.8c0.8,1,2.1,1.4,3.8,1.4
		c1.4,0,2.5-0.1,3.5-0.4c1-0.3,2-0.7,3-1.3l1.7,3.8c-0.9,0.7-2.1,1.4-3.7,1.9C528,114.3,526.3,114.6,524.5,114.6z M524.1,95.7
		c-1.2,0-2.2,0.4-2.8,1.3c-0.7,0.8-1.1,2-1.2,3.4l0,0.1h7.5V100c0-1.3-0.3-2.4-0.8-3.1C526.2,96.1,525.3,95.7,524.1,95.7z"/>
	<path class="st0" d="M550.5,114.1c-0.2-0.5-0.4-1.1-0.6-1.6c-0.2-0.6-0.3-1.2-0.3-1.8c-0.6,1.1-1.5,2-2.5,2.8
		c-1,0.7-2.3,1.1-3.7,1.1c-2.4,0-4.2-0.6-5.5-1.8s-1.9-2.9-1.9-5c0-2.2,0.9-4,2.6-5.2s4.2-1.8,7.5-1.8h3.4v-1.8
		c0-1.1-0.3-1.9-0.9-2.5s-1.4-0.9-2.6-0.9c-1,0-1.8,0.2-2.3,0.7c-0.5,0.5-0.8,1.1-0.8,2h-5.9l0-0.1c-0.1-1.9,0.7-3.6,2.5-5
		c1.8-1.4,4.1-2.1,6.9-2.1c2.7,0,4.9,0.7,6.6,2.1s2.5,3.3,2.5,5.9v9.4c0,1.1,0.1,2.1,0.2,3c0.2,0.9,0.4,1.9,0.8,2.8H550.5z
		 M544.9,110c1.1,0,2-0.3,2.9-0.8s1.4-1.1,1.7-1.8v-3.2H546c-1.3,0-2.3,0.3-3,1c-0.7,0.6-1,1.4-1,2.4c0,0.8,0.2,1.4,0.7,1.8
		C543.3,109.8,544,110,544.9,110z"/>
	<path class="st0" d="M563.6,113.8l-2.2,5.8h-1.7l1.4-5.9v-3.5h2.5V113.8z"/>
	<path class="st0" d="M594.3,114.1c-0.2-0.8-0.3-1.4-0.4-2c-0.1-0.6-0.1-1.1-0.1-1.7c-0.8,1.2-2,2.2-3.4,3s-3,1.2-4.7,1.2
		c-2.2,0-3.9-0.6-5.2-1.8c-1.2-1.2-1.8-2.8-1.8-4.7c0-2.1,0.9-3.8,2.7-5s4.3-1.9,7.3-1.9h5v-2.8c0-1.6-0.5-2.9-1.6-3.8
		s-2.5-1.4-4.4-1.4c-1.8,0-3.2,0.4-4.4,1.3c-1.2,0.9-1.7,2-1.7,3.2l-2.3,0l0-0.1c-0.1-1.7,0.7-3.2,2.3-4.5c1.6-1.3,3.7-2,6.2-2
		c2.5,0,4.5,0.6,6,1.9c1.5,1.3,2.3,3.1,2.3,5.5v11.2c0,0.8,0,1.6,0.1,2.3c0.1,0.8,0.2,1.5,0.5,2.2H594.3z M586,112.4
		c1.8,0,3.4-0.4,4.8-1.3c1.4-0.8,2.4-1.9,3-3.2v-4.7h-5.1c-2.3,0-4.1,0.5-5.5,1.5c-1.4,1-2,2.2-2,3.6c0,1.2,0.4,2.2,1.3,3
		C583.3,112,584.5,112.4,586,112.4z"/>
	<path class="st0" d="M605.8,114.1h-2.5V81.4h2.5V114.1z"/>
	<path class="st0" d="M625.4,91.4l0.2,3.8c0.7-1.3,1.7-2.4,2.9-3.1c1.2-0.7,2.7-1.1,4.3-1.1c1.7,0,3.2,0.4,4.4,1.3
		c1.2,0.8,2,2.1,2.5,3.8c0.7-1.6,1.7-2.8,2.9-3.8c1.3-0.9,2.8-1.4,4.6-1.4c2.4,0,4.3,0.8,5.6,2.4s2,4.1,2,7.5v13.3h-2.5v-13.3
		c0-2.8-0.5-4.8-1.5-5.9s-2.4-1.7-4.1-1.7c-1.9,0-3.5,0.6-4.5,1.8c-1.1,1.2-1.7,2.8-2,4.7c0,0.1,0,0.2,0,0.4c0,0.2,0,0.3,0,0.4v13.7
		h-2.5v-13.3c0-2.8-0.5-4.7-1.5-5.9c-1-1.2-2.4-1.8-4.1-1.8c-1.8,0-3.2,0.5-4.2,1.4c-1,0.9-1.8,2.1-2.2,3.7v16h-2.5V91.4H625.4z"/>
	<path class="st0" d="M669.9,114.6c-2.8,0-5.2-1.1-7.1-3.2s-2.8-4.8-2.8-8v-1.2c0-3.2,0.9-5.9,2.8-8.1c1.9-2.1,4.1-3.2,6.8-3.2
		c2.8,0,5,0.9,6.6,2.6s2.4,4.1,2.4,7.1v2.1h-16v0.6c0,2.6,0.7,4.7,2,6.4s3.1,2.6,5.4,2.6c1.6,0,2.9-0.2,4-0.7
		c1.1-0.4,2.1-1.1,2.8-1.9l1.1,1.7c-0.9,0.9-1.9,1.6-3.2,2.1S671.7,114.6,669.9,114.6z M669.6,93.1c-1.9,0-3.4,0.7-4.7,2.1
		c-1.3,1.4-2,3.2-2.2,5.3l0,0.1h13.3v-0.6c0-2-0.6-3.6-1.7-4.9S671.6,93.1,669.6,93.1z"/>
	<path class="st0" d="M685.8,91.4l0.2,4c0.7-1.4,1.7-2.5,3-3.2c1.2-0.8,2.7-1.1,4.4-1.1c2.5,0,4.3,0.8,5.6,2.3
		c1.3,1.5,1.9,3.9,1.9,7v13.8h-2.5v-13.8c0-2.6-0.5-4.5-1.5-5.5c-1-1.1-2.4-1.6-4.1-1.6c-1.8,0-3.2,0.5-4.3,1.4s-1.9,2.2-2.4,3.7
		v15.9h-2.5V91.4H685.8z"/>
	<path class="st0" d="M706.1,102.4c0-3.3,0.9-6.1,2.8-8.2c1.8-2.1,4.3-3.2,7.3-3.2c3,0,5.5,1.1,7.3,3.2s2.8,4.9,2.8,8.2v0.7
		c0,3.4-0.9,6.1-2.7,8.2s-4.3,3.2-7.3,3.2c-3.1,0-5.5-1.1-7.3-3.2c-1.8-2.1-2.8-4.9-2.8-8.2V102.4z M708.6,103.1
		c0,2.6,0.7,4.8,2,6.6c1.3,1.8,3.2,2.7,5.6,2.7c2.3,0,4.2-0.9,5.5-2.7c1.3-1.8,2-4,2-6.6v-0.7c0-2.6-0.7-4.8-2-6.6
		c-1.3-1.8-3.2-2.7-5.5-2.7c-2.4,0-4.2,0.9-5.5,2.7c-1.3,1.8-2,4-2,6.6V103.1z"/>
	<path class="st0" d="M745,108.4c0-1.1-0.4-2-1.3-2.8c-0.9-0.8-2.5-1.4-4.7-1.9c-2.7-0.6-4.7-1.4-6-2.3c-1.3-1-1.9-2.3-1.9-4.1
		c0-1.7,0.7-3.2,2.2-4.4c1.5-1.2,3.4-1.8,5.8-1.8c2.6,0,4.6,0.6,6.1,1.9c1.5,1.3,2.2,2.9,2.1,4.8l0,0.1h-2.3c0-1.2-0.5-2.3-1.6-3.3
		s-2.5-1.4-4.3-1.4c-1.8,0-3.2,0.4-4.1,1.2c-0.9,0.8-1.4,1.7-1.4,2.8c0,1,0.4,1.9,1.2,2.6s2.4,1.3,4.7,1.8c2.7,0.6,4.7,1.4,6.1,2.5
		c1.3,1,2,2.5,2,4.3c0,1.9-0.8,3.4-2.3,4.6c-1.5,1.2-3.6,1.8-6.1,1.8c-2.8,0-4.9-0.7-6.5-2s-2.3-2.9-2.2-4.7l0-0.1h2.3
		c0.1,1.6,0.8,2.8,2,3.6c1.2,0.7,2.7,1.1,4.4,1.1c1.8,0,3.3-0.4,4.3-1.2C744.5,110.4,745,109.5,745,108.4z"/>
	<path class="st0" d="M778.2,114.1c-0.2-0.8-0.3-1.4-0.4-2c-0.1-0.6-0.1-1.1-0.1-1.7c-0.8,1.2-2,2.2-3.4,3c-1.4,0.8-3,1.2-4.7,1.2
		c-2.2,0-3.9-0.6-5.2-1.8c-1.2-1.2-1.8-2.8-1.8-4.7c0-2.1,0.9-3.8,2.7-5s4.3-1.9,7.3-1.9h5v-2.8c0-1.6-0.5-2.9-1.6-3.8
		c-1-0.9-2.5-1.4-4.4-1.4c-1.8,0-3.2,0.4-4.4,1.3s-1.7,2-1.7,3.2l-2.3,0l0-0.1c-0.1-1.7,0.7-3.2,2.3-4.5c1.6-1.3,3.7-2,6.2-2
		c2.5,0,4.5,0.6,6,1.9c1.5,1.3,2.3,3.1,2.3,5.5v11.2c0,0.8,0,1.6,0.1,2.3c0.1,0.8,0.2,1.5,0.5,2.2H778.2z M769.9,112.4
		c1.8,0,3.4-0.4,4.8-1.3c1.4-0.8,2.4-1.9,3-3.2v-4.7h-5.1c-2.3,0-4.1,0.5-5.5,1.5c-1.4,1-2,2.2-2,3.6c0,1.2,0.4,2.2,1.3,3
		C767.3,112,768.4,112.4,769.9,112.4z"/>
	<path class="st0" d="M815.9,114.1h-19v-2l10-11.3c1.8-2.1,3.2-3.8,3.9-5.2c0.8-1.4,1.1-2.8,1.1-4c0-1.9-0.5-3.4-1.6-4.6
		c-1.1-1.1-2.6-1.7-4.5-1.7c-2.3,0-4.1,0.6-5.3,1.9s-1.8,3-1.8,5.2h-2.3l0-0.1c-0.1-2.5,0.8-4.7,2.5-6.5s4.1-2.6,7-2.6
		c2.6,0,4.7,0.8,6.3,2.3c1.6,1.5,2.4,3.5,2.4,6.1c0,1.7-0.5,3.4-1.6,5.1s-2.5,3.7-4.4,5.8l-8.4,9.5l0,0.1h15.8V114.1z"/>
	<path class="st0" d="M836.2,104.3h4.8v2.1h-4.8v7.7h-2.5v-7.7h-14.3V105l14.1-21.4h2.8V104.3z M822.3,104.3h11.4V86.9l-0.1,0
		l-1.1,2.3L822.3,104.3z"/>
	<path class="st0" d="M857.7,91.4l0.2,3.8c0.7-1.3,1.7-2.4,2.9-3.1s2.7-1.1,4.3-1.1c1.7,0,3.2,0.4,4.4,1.3c1.2,0.8,2,2.1,2.5,3.8
		c0.7-1.6,1.7-2.8,2.9-3.8c1.3-0.9,2.8-1.4,4.6-1.4c2.4,0,4.3,0.8,5.6,2.4s2,4.1,2,7.5v13.3h-2.5v-13.3c0-2.8-0.5-4.8-1.5-5.9
		s-2.4-1.7-4.1-1.7c-1.9,0-3.5,0.6-4.5,1.8c-1.1,1.2-1.7,2.8-2,4.7c0,0.1,0,0.2,0,0.4c0,0.2,0,0.3,0,0.4v13.7H870v-13.3
		c0-2.8-0.5-4.7-1.5-5.9c-1-1.2-2.4-1.8-4.1-1.8c-1.8,0-3.2,0.5-4.2,1.4s-1.8,2.1-2.2,3.7v16h-2.5V91.4H857.7z"/>
	<path class="st0" d="M902.2,114.6c-2.8,0-5.2-1.1-7.1-3.2s-2.8-4.8-2.8-8v-1.2c0-3.2,0.9-5.9,2.8-8.1c1.9-2.1,4.1-3.2,6.8-3.2
		c2.8,0,5,0.9,6.6,2.6s2.4,4.1,2.4,7.1v2.1h-16v0.6c0,2.6,0.7,4.7,2,6.4s3.1,2.6,5.4,2.6c1.6,0,2.9-0.2,4-0.7
		c1.1-0.4,2.1-1.1,2.8-1.9l1.1,1.7c-0.9,0.9-1.9,1.6-3.2,2.1S904,114.6,902.2,114.6z M901.9,93.1c-1.9,0-3.4,0.7-4.7,2.1
		c-1.3,1.4-2,3.2-2.2,5.3l0,0.1h13.3v-0.6c0-2-0.6-3.6-1.7-4.9S903.9,93.1,901.9,93.1z"/>
	<path class="st0" d="M919.8,85.6v5.8h5v2.1h-5v14.8c0,1.5,0.3,2.5,0.8,3.2s1.3,0.9,2.2,0.9c0.4,0,0.8,0,1.2-0.1
		c0.4,0,0.8-0.1,1.3-0.2l0.4,1.9c-0.4,0.2-0.9,0.3-1.5,0.4c-0.6,0.1-1.2,0.1-1.8,0.1c-1.6,0-2.8-0.5-3.7-1.5c-0.9-1-1.3-2.6-1.3-4.8
		V93.5h-3.9v-2.1h3.9v-5.8H919.8z"/>
	<path class="st0" d="M940.6,93.6l-1.9-0.1c-1.6,0-2.9,0.4-3.9,1.3c-1,0.9-1.7,2.1-2.2,3.7v15.7h-2.5V91.4h2.2l0.3,3.8v0.3
		c0.7-1.4,1.5-2.5,2.6-3.3s2.4-1.2,3.9-1.2c0.3,0,0.6,0,0.9,0.1c0.3,0,0.5,0.1,0.7,0.2L940.6,93.6z"/>
	<path class="st0" d="M942.9,102.4c0-3.3,0.9-6.1,2.8-8.2c1.8-2.1,4.3-3.2,7.3-3.2c3,0,5.5,1.1,7.3,3.2s2.8,4.9,2.8,8.2v0.7
		c0,3.4-0.9,6.1-2.7,8.2s-4.3,3.2-7.3,3.2c-3.1,0-5.5-1.1-7.3-3.2c-1.8-2.1-2.8-4.9-2.8-8.2V102.4z M945.4,103.1
		c0,2.6,0.7,4.8,2,6.6c1.3,1.8,3.2,2.7,5.6,2.7c2.3,0,4.2-0.9,5.5-2.7c1.3-1.8,2-4,2-6.6v-0.7c0-2.6-0.7-4.8-2-6.6
		c-1.3-1.8-3.2-2.7-5.5-2.7c-2.4,0-4.2,0.9-5.5,2.7c-1.3,1.8-2,4-2,6.6V103.1z"/>
	<path class="st0" d="M981.9,108.4c0-1.1-0.4-2-1.3-2.8c-0.9-0.8-2.5-1.4-4.7-1.9c-2.7-0.6-4.7-1.4-6-2.3c-1.3-1-1.9-2.3-1.9-4.1
		c0-1.7,0.7-3.2,2.2-4.4c1.5-1.2,3.4-1.8,5.8-1.8c2.6,0,4.6,0.6,6.1,1.9c1.5,1.3,2.2,2.9,2.1,4.8l0,0.1h-2.3c0-1.2-0.5-2.3-1.6-3.3
		s-2.5-1.4-4.3-1.4c-1.8,0-3.2,0.4-4.1,1.2c-0.9,0.8-1.4,1.7-1.4,2.8c0,1,0.4,1.9,1.2,2.6s2.4,1.3,4.7,1.8c2.7,0.6,4.7,1.4,6.1,2.5
		c1.3,1,2,2.5,2,4.3c0,1.9-0.8,3.4-2.3,4.6c-1.5,1.2-3.6,1.8-6.1,1.8c-2.8,0-4.9-0.7-6.5-2s-2.3-2.9-2.2-4.7l0-0.1h2.3
		c0.1,1.6,0.8,2.8,2,3.6c1.2,0.7,2.7,1.1,4.4,1.1c1.8,0,3.3-0.4,4.3-1.2C981.4,110.4,981.9,109.5,981.9,108.4z"/>
	<path class="st0" d="M1018.9,103.4c0,3.4-0.8,6.1-2.3,8.1c-1.5,2-3.7,3-6.4,3c-1.6,0-3-0.3-4.2-0.9c-1.2-0.6-2.2-1.5-2.9-2.6v11.8
		h-2.5V91.4h2.1l0.3,3.5c0.8-1.3,1.7-2.2,2.9-2.9s2.6-1,4.2-1c2.7,0,4.9,1.1,6.4,3.3c1.5,2.2,2.3,5.1,2.3,8.7V103.4z M1016.4,102.9
		c0-2.9-0.6-5.2-1.7-7.1c-1.1-1.8-2.8-2.7-5-2.7c-1.7,0-3.1,0.4-4.1,1.2s-1.9,1.9-2.4,3.1v10.9c0.6,1.2,1.4,2.2,2.5,2.9
		c1.1,0.7,2.4,1.1,4.1,1.1c2.2,0,3.9-0.8,5-2.5s1.7-3.8,1.7-6.6V102.9z"/>
	<path class="st0" d="M1023.2,102.4c0-3.3,0.9-6.1,2.8-8.2c1.8-2.1,4.3-3.2,7.3-3.2c3,0,5.5,1.1,7.3,3.2s2.8,4.9,2.8,8.2v0.7
		c0,3.4-0.9,6.1-2.7,8.2s-4.3,3.2-7.3,3.2c-3.1,0-5.5-1.1-7.3-3.2c-1.8-2.1-2.8-4.9-2.8-8.2V102.4z M1025.7,103.1
		c0,2.6,0.7,4.8,2,6.6c1.3,1.8,3.2,2.7,5.6,2.7c2.3,0,4.2-0.9,5.5-2.7c1.3-1.8,2-4,2-6.6v-0.7c0-2.6-0.7-4.8-2-6.6
		c-1.3-1.8-3.2-2.7-5.5-2.7c-2.4,0-4.2,0.9-5.5,2.7c-1.3,1.8-2,4-2,6.6V103.1z"/>
	<path class="st0" d="M1059,93.6l-1.9-0.1c-1.6,0-2.9,0.4-3.9,1.3c-1,0.9-1.7,2.1-2.2,3.7v15.7h-2.5V91.4h2.2l0.3,3.8v0.3
		c0.7-1.4,1.5-2.5,2.6-3.3s2.4-1.2,3.9-1.2c0.3,0,0.6,0,0.9,0.1c0.3,0,0.5,0.1,0.7,0.2L1059,93.6z"/>
	<path class="st0" d="M1072.7,103c0-3.6,0.8-6.5,2.3-8.7c1.5-2.2,3.7-3.3,6.4-3.3c1.6,0,3,0.3,4.1,1c1.2,0.7,2.1,1.6,2.9,2.9V81.4
		h2.5v32.8h-2.2l-0.2-3.3c-0.8,1.2-1.7,2.1-2.9,2.8c-1.2,0.6-2.6,1-4.2,1c-2.7,0-4.8-1-6.4-3c-1.5-2-2.3-4.7-2.3-8.1V103z
		 M1075.2,103.4c0,2.8,0.5,5,1.6,6.6c1.1,1.6,2.8,2.4,5,2.4c1.6,0,3-0.4,4.1-1.1s1.9-1.7,2.5-3V97.6c-0.6-1.3-1.4-2.4-2.4-3.2
		c-1.1-0.8-2.4-1.2-4.1-1.2c-2.2,0-3.9,0.9-5,2.7c-1.1,1.8-1.7,4.2-1.7,7.1V103.4z"/>
	<path class="st0" d="M1106.1,114.6c-2.8,0-5.2-1.1-7.1-3.2s-2.8-4.8-2.8-8v-1.2c0-3.2,0.9-5.9,2.8-8.1c1.9-2.1,4.1-3.2,6.8-3.2
		c2.8,0,5,0.9,6.6,2.6s2.4,4.1,2.4,7.1v2.1h-16v0.6c0,2.6,0.7,4.7,2,6.4s3.1,2.6,5.4,2.6c1.6,0,2.9-0.2,4-0.7
		c1.1-0.4,2.1-1.1,2.8-1.9l1.1,1.7c-0.9,0.9-1.9,1.6-3.2,2.1S1107.9,114.6,1106.1,114.6z M1105.8,93.1c-1.9,0-3.4,0.7-4.7,2.1
		c-1.3,1.4-2,3.2-2.2,5.3l0,0.1h13.3v-0.6c0-2-0.6-3.6-1.7-4.9S1107.8,93.1,1105.8,93.1z"/>
	<path class="st0" d="M1138.1,103.4c0,3.4-0.8,6.1-2.3,8.1c-1.5,2-3.7,3-6.4,3c-1.7,0-3.1-0.3-4.3-1c-1.2-0.7-2.2-1.6-2.9-2.9
		l-0.3,3.4h-2.2V81.4h2.5V95c0.8-1.3,1.7-2.3,2.9-3s2.6-1,4.2-1c2.7,0,4.9,1.1,6.4,3.3c1.5,2.2,2.3,5.1,2.3,8.7V103.4z M1135.5,103
		c0-2.9-0.6-5.3-1.7-7.1c-1.1-1.8-2.8-2.7-5-2.7c-1.8,0-3.2,0.4-4.2,1.3s-1.9,2-2.4,3.4v10.3c0.6,1.3,1.4,2.4,2.5,3.2
		c1.1,0.8,2.5,1.2,4.1,1.2c2.2,0,3.9-0.8,5-2.4c1.1-1.6,1.7-3.8,1.7-6.6V103z"/>
	<path class="st0" d="M1158.1,114.1c-0.2-0.8-0.3-1.4-0.4-2c-0.1-0.6-0.1-1.1-0.1-1.7c-0.8,1.2-2,2.2-3.4,3c-1.4,0.8-3,1.2-4.7,1.2
		c-2.2,0-3.9-0.6-5.2-1.8c-1.2-1.2-1.8-2.8-1.8-4.7c0-2.1,0.9-3.8,2.7-5s4.3-1.9,7.3-1.9h5v-2.8c0-1.6-0.5-2.9-1.6-3.8
		c-1-0.9-2.5-1.4-4.4-1.4c-1.8,0-3.2,0.4-4.4,1.3s-1.7,2-1.7,3.2l-2.3,0l0-0.1c-0.1-1.7,0.7-3.2,2.3-4.5c1.6-1.3,3.7-2,6.2-2
		c2.5,0,4.5,0.6,6,1.9c1.5,1.3,2.3,3.1,2.3,5.5v11.2c0,0.8,0,1.6,0.1,2.3c0.1,0.8,0.2,1.5,0.5,2.2H1158.1z M1149.8,112.4
		c1.8,0,3.4-0.4,4.8-1.3c1.4-0.8,2.4-1.9,3-3.2v-4.7h-5.1c-2.3,0-4.1,0.5-5.5,1.5c-1.4,1-2,2.2-2,3.6c0,1.2,0.4,2.2,1.3,3
		C1147.2,112,1148.3,112.4,1149.8,112.4z"/>
	<path class="st0" d="M1169.8,91.4V116c0,2.3-0.6,4.1-1.7,5.4c-1.1,1.3-2.7,1.9-4.7,1.9c-0.4,0-0.8,0-1.2-0.1
		c-0.4-0.1-0.8-0.2-1.2-0.3l0.3-2.1c0.2,0.1,0.5,0.1,0.9,0.2c0.4,0.1,0.7,0.1,1,0.1c1.2,0,2.2-0.4,2.9-1.3s1.1-2.1,1.1-3.8V91.4
		H1169.8z M1169.7,84.8h-2.5v-3.4h2.5V84.8z"/>
	<path class="st0" d="M1175.6,102.4c0-3.3,0.9-6.1,2.8-8.2c1.8-2.1,4.3-3.2,7.3-3.2c3,0,5.5,1.1,7.3,3.2s2.8,4.9,2.8,8.2v0.7
		c0,3.4-0.9,6.1-2.7,8.2s-4.3,3.2-7.3,3.2c-3.1,0-5.5-1.1-7.3-3.2c-1.8-2.1-2.8-4.9-2.8-8.2V102.4z M1178.1,103.1
		c0,2.6,0.7,4.8,2,6.6c1.3,1.8,3.2,2.7,5.6,2.7c2.3,0,4.2-0.9,5.5-2.7c1.3-1.8,2-4,2-6.6v-0.7c0-2.6-0.7-4.8-2-6.6
		c-1.3-1.8-3.2-2.7-5.5-2.7c-2.4,0-4.2,0.9-5.5,2.7c-1.3,1.8-2,4-2,6.6V103.1z"/>
	<path class="st0" d="M7.3,164.6c0-3.6,0.8-6.5,2.3-8.7c1.5-2.2,3.7-3.3,6.4-3.3c1.6,0,3,0.3,4.1,1c1.2,0.7,2.1,1.6,2.9,2.9V143h2.5
		v32.8h-2.2l-0.2-3.3c-0.8,1.2-1.7,2.1-2.9,2.8c-1.2,0.6-2.6,1-4.2,1c-2.7,0-4.8-1-6.4-3c-1.5-2-2.3-4.7-2.3-8.1V164.6z M9.9,165
		c0,2.8,0.5,5,1.6,6.6c1.1,1.6,2.8,2.4,5,2.4c1.6,0,3-0.4,4.1-1.1c1.1-0.7,1.9-1.7,2.5-3v-10.7c-0.6-1.3-1.4-2.4-2.4-3.2
		c-1.1-0.8-2.4-1.2-4.1-1.2c-2.2,0-3.9,0.9-5,2.7s-1.7,4.2-1.7,7.1V165z"/>
	<path class="st0" d="M40.8,176.2c-2.8,0-5.2-1.1-7.1-3.2s-2.8-4.8-2.8-8v-1.2c0-3.2,0.9-5.9,2.8-8.1s4.1-3.2,6.8-3.2
		c2.8,0,5,0.9,6.6,2.6c1.6,1.8,2.4,4.1,2.4,7.1v2.1h-16v0.6c0,2.6,0.7,4.7,2,6.4c1.4,1.7,3.1,2.6,5.4,2.6c1.6,0,2.9-0.2,4-0.7
		c1.1-0.4,2.1-1.1,2.8-1.9l1.1,1.7c-0.9,0.9-1.9,1.6-3.2,2.1S42.6,176.2,40.8,176.2z M40.5,154.8c-1.9,0-3.4,0.7-4.7,2.1
		c-1.3,1.4-2,3.2-2.2,5.3l0,0.1h13.3v-0.6c0-2-0.6-3.6-1.7-4.9C44,155.4,42.5,154.8,40.5,154.8z"/>
	<path class="st0" d="M67.7,175.8h-2.5V143h2.5V175.8z"/>
	<path class="st0" d="M89,175.8c-0.2-0.8-0.3-1.4-0.4-2c-0.1-0.6-0.1-1.1-0.1-1.7c-0.8,1.2-2,2.2-3.4,3s-3,1.2-4.7,1.2
		c-2.2,0-3.9-0.6-5.2-1.8c-1.2-1.2-1.8-2.8-1.8-4.7c0-2.1,0.9-3.8,2.7-5c1.8-1.3,4.3-1.9,7.3-1.9h5V160c0-1.6-0.5-2.9-1.6-3.8
		c-1-0.9-2.5-1.4-4.4-1.4c-1.8,0-3.2,0.4-4.4,1.3c-1.2,0.9-1.7,2-1.7,3.2l-2.3,0l0-0.1c-0.1-1.7,0.7-3.2,2.3-4.5
		c1.6-1.3,3.7-2,6.2-2c2.5,0,4.5,0.6,6,1.9c1.5,1.3,2.3,3.1,2.3,5.5v11.2c0,0.8,0,1.6,0.1,2.3c0.1,0.8,0.2,1.5,0.5,2.2H89z
		 M80.8,174c1.8,0,3.4-0.4,4.8-1.3c1.4-0.8,2.4-1.9,3-3.2v-4.7h-5.1c-2.3,0-4.1,0.5-5.5,1.5c-1.4,1-2,2.2-2,3.6c0,1.2,0.4,2.2,1.3,3
		C78.1,173.6,79.3,174,80.8,174z"/>
	<path class="st0" d="M116.7,174.1c1.7,0,3.1-0.5,4.4-1.4c1.3-0.9,1.9-2.3,1.9-4h2.2l0,0.1c0.1,2.1-0.8,3.9-2.5,5.3
		c-1.8,1.4-3.8,2.1-6.1,2.1c-3.1,0-5.5-1.1-7.2-3.2c-1.7-2.1-2.5-4.8-2.5-8.2V164c0-3.3,0.8-6,2.5-8.2c1.7-2.1,4.1-3.2,7.1-3.2
		c2.5,0,4.6,0.7,6.2,2.2c1.7,1.5,2.5,3.4,2.4,5.8l0,0.1H123c0-1.8-0.6-3.3-1.8-4.4c-1.2-1.1-2.7-1.6-4.5-1.6c-2.4,0-4.2,0.9-5.4,2.6
		c-1.2,1.7-1.8,3.9-1.8,6.6v0.9c0,2.7,0.6,4.9,1.7,6.6C112.4,173.2,114.2,174.1,116.7,174.1z"/>
	<path class="st0" d="M129.1,164.1c0-3.3,0.9-6.1,2.8-8.2c1.8-2.1,4.3-3.2,7.3-3.2c3,0,5.5,1.1,7.3,3.2c1.8,2.1,2.8,4.9,2.8,8.2v0.7
		c0,3.4-0.9,6.1-2.7,8.2c-1.8,2.1-4.3,3.2-7.3,3.2c-3.1,0-5.5-1.1-7.3-3.2c-1.8-2.1-2.8-4.9-2.8-8.2V164.1z M131.6,164.7
		c0,2.6,0.7,4.8,2,6.6c1.3,1.8,3.2,2.7,5.6,2.7c2.3,0,4.2-0.9,5.5-2.7c1.3-1.8,2-4,2-6.6v-0.7c0-2.6-0.7-4.8-2-6.6
		c-1.3-1.8-3.2-2.7-5.5-2.7c-2.4,0-4.2,0.9-5.5,2.7c-1.3,1.8-2,4-2,6.6V164.7z"/>
	<path class="st0" d="M158.4,147.2v5.8h5v2.1h-5v14.8c0,1.5,0.3,2.5,0.8,3.2c0.5,0.6,1.3,0.9,2.2,0.9c0.4,0,0.8,0,1.2-0.1
		c0.4,0,0.8-0.1,1.3-0.2l0.4,1.9c-0.4,0.2-0.9,0.3-1.5,0.4c-0.6,0.1-1.2,0.1-1.8,0.1c-1.6,0-2.8-0.5-3.7-1.5c-0.9-1-1.3-2.6-1.3-4.8
		v-14.8H152V153h3.9v-5.8H158.4z"/>
	<path class="st0" d="M183.2,175.8c-0.2-0.8-0.3-1.4-0.4-2c-0.1-0.6-0.1-1.1-0.1-1.7c-0.8,1.2-2,2.2-3.4,3s-3,1.2-4.7,1.2
		c-2.2,0-3.9-0.6-5.2-1.8c-1.2-1.2-1.8-2.8-1.8-4.7c0-2.1,0.9-3.8,2.7-5c1.8-1.3,4.3-1.9,7.3-1.9h5V160c0-1.6-0.5-2.9-1.6-3.8
		c-1-0.9-2.5-1.4-4.4-1.4c-1.8,0-3.2,0.4-4.4,1.3c-1.2,0.9-1.7,2-1.7,3.2l-2.3,0l0-0.1c-0.1-1.7,0.7-3.2,2.3-4.5
		c1.6-1.3,3.7-2,6.2-2c2.5,0,4.5,0.6,6,1.9c1.5,1.3,2.3,3.1,2.3,5.5v11.2c0,0.8,0,1.6,0.1,2.3c0.1,0.8,0.2,1.5,0.5,2.2H183.2z
		 M174.9,174c1.8,0,3.4-0.4,4.8-1.3c1.4-0.8,2.4-1.9,3-3.2v-4.7h-5.1c-2.3,0-4.1,0.5-5.5,1.5c-1.4,1-2,2.2-2,3.6
		c0,1.2,0.4,2.2,1.3,3C172.2,173.6,173.4,174,174.9,174z"/>
	<path class="st0" d="M201.4,164.6c0-3.6,0.8-6.5,2.3-8.7c1.5-2.2,3.7-3.3,6.4-3.3c1.6,0,3,0.3,4.1,1c1.2,0.7,2.1,1.6,2.9,2.9V143
		h2.5v32.8h-2.2l-0.2-3.3c-0.8,1.2-1.7,2.1-2.9,2.8c-1.2,0.6-2.6,1-4.2,1c-2.7,0-4.8-1-6.4-3c-1.5-2-2.3-4.7-2.3-8.1V164.6z
		 M203.9,165c0,2.8,0.5,5,1.6,6.6c1.1,1.6,2.8,2.4,5,2.4c1.6,0,3-0.4,4.1-1.1c1.1-0.7,1.9-1.7,2.5-3v-10.7c-0.6-1.3-1.4-2.4-2.4-3.2
		c-1.1-0.8-2.4-1.2-4.1-1.2c-2.2,0-3.9,0.9-5,2.7s-1.7,4.2-1.7,7.1V165z"/>
	<path class="st0" d="M234.8,176.2c-2.8,0-5.2-1.1-7.1-3.2s-2.8-4.8-2.8-8v-1.2c0-3.2,0.9-5.9,2.8-8.1s4.1-3.2,6.8-3.2
		c2.8,0,5,0.9,6.6,2.6c1.6,1.8,2.4,4.1,2.4,7.1v2.1h-16v0.6c0,2.6,0.7,4.7,2,6.4c1.4,1.7,3.1,2.6,5.4,2.6c1.6,0,2.9-0.2,4-0.7
		c1.1-0.4,2.1-1.1,2.8-1.9l1.1,1.7c-0.9,0.9-1.9,1.6-3.2,2.1S236.6,176.2,234.8,176.2z M234.5,154.8c-1.9,0-3.4,0.7-4.7,2.1
		c-1.3,1.4-2,3.2-2.2,5.3l0,0.1H241v-0.6c0-2-0.6-3.6-1.7-4.9C238.1,155.4,236.5,154.8,234.5,154.8z"/>
	<path class="st0" d="M251.3,175.8h-2.5V143h2.5V175.8z"/>
	<path class="st0" d="M279.7,158.3l-2.2-0.1c-0.9,0-1.7,0.2-2.2,0.6s-1,0.9-1.3,1.6v15.4h-6.1V153h5.7l0.3,3.4
		c0.5-1.2,1.2-2.1,2.1-2.8c0.8-0.7,1.8-1,2.9-1c0.3,0,0.6,0,0.9,0.1c0.3,0,0.5,0.1,0.8,0.2L279.7,158.3z"/>
	<path class="st0" d="M289.4,175.8h-6.1V153h6.1V175.8z M287.6,143.8h6.8l0,0.1l-5.8,5.5h-5.2L287.6,143.8z"/>
	<path class="st0" d="M293.7,164.2c0-3.4,0.9-6.2,2.8-8.3c1.9-2.2,4.5-3.2,7.9-3.2c3.4,0,6,1.1,7.9,3.2c1.9,2.2,2.9,4.9,2.9,8.3v0.4
		c0,3.4-0.9,6.2-2.8,8.4c-1.9,2.1-4.5,3.2-7.9,3.2c-3.4,0-6-1.1-7.9-3.2c-1.9-2.1-2.8-4.9-2.8-8.4V164.2z M299.8,164.6
		c0,2.1,0.4,3.7,1.1,5c0.7,1.3,1.9,1.9,3.5,1.9c1.6,0,2.7-0.6,3.5-1.9c0.7-1.3,1.1-2.9,1.1-5v-0.4c0-2-0.4-3.7-1.1-4.9
		c-0.7-1.3-1.9-1.9-3.5-1.9c-1.6,0-2.7,0.6-3.5,1.9c-0.7,1.3-1.1,2.9-1.1,4.9V164.6z"/>
	<path class="st0" d="M354.9,175.8h-6.1v-12.7h-12.5v12.7h-6.1v-30.6h6.1v13.2h12.5v-13.2h6.1V175.8z"/>
	<path class="st0" d="M374,172.4c-0.7,1.2-1.6,2.2-2.7,2.8c-1.1,0.7-2.3,1-3.8,1c-2.4,0-4.3-0.8-5.6-2.4c-1.4-1.6-2-4.1-2-7.6V153
		h6.1v13.2c0,2,0.3,3.4,0.8,4.1c0.5,0.7,1.4,1.1,2.5,1.1c1,0,1.8-0.2,2.5-0.5c0.7-0.3,1.3-0.8,1.7-1.4V153h6.1v22.7h-5.1L374,172.4z
		"/>
	<path class="st0" d="M397.7,175.8c-0.2-0.5-0.4-1.1-0.6-1.6c-0.2-0.6-0.3-1.2-0.3-1.8c-0.6,1.1-1.5,2-2.5,2.8
		c-1,0.7-2.3,1.1-3.7,1.1c-2.4,0-4.2-0.6-5.5-1.8s-1.9-2.9-1.9-5c0-2.2,0.9-4,2.6-5.2s4.2-1.8,7.5-1.8h3.4v-1.8
		c0-1.1-0.3-1.9-0.9-2.5c-0.6-0.6-1.4-0.9-2.6-0.9c-1,0-1.8,0.2-2.3,0.7c-0.5,0.5-0.8,1.1-0.8,2h-5.9l0-0.1c-0.1-1.9,0.7-3.6,2.5-5
		s4.1-2.1,6.9-2.1c2.7,0,4.9,0.7,6.6,2.1c1.7,1.4,2.5,3.3,2.5,5.9v9.4c0,1.1,0.1,2.1,0.2,3c0.2,0.9,0.4,1.9,0.8,2.8H397.7z
		 M392.1,171.7c1.1,0,2-0.3,2.9-0.8s1.4-1.1,1.7-1.8v-3.2h-3.4c-1.3,0-2.3,0.3-3,1c-0.7,0.6-1,1.4-1,2.4c0,0.8,0.2,1.4,0.7,1.8
		C390.5,171.4,391.2,171.7,392.1,171.7z"/>
	<path class="st0" d="M419.7,169.5c0-0.7-0.3-1.2-1-1.7c-0.7-0.5-1.9-0.9-3.6-1.3c-2.7-0.5-4.7-1.3-6.1-2.4
		c-1.4-1.1-2.1-2.5-2.1-4.4c0-1.9,0.8-3.6,2.5-5c1.7-1.4,3.9-2.1,6.6-2.1c2.9,0,5.2,0.7,6.9,2.1c1.7,1.4,2.6,3.1,2.5,5.1l0,0.1h-5.9
		c0-0.9-0.3-1.7-0.9-2.2c-0.6-0.6-1.4-0.9-2.5-0.9c-1,0-1.8,0.2-2.3,0.7c-0.6,0.5-0.9,1.1-0.9,1.8c0,0.7,0.3,1.3,0.9,1.7
		s1.8,0.8,3.6,1.2c2.8,0.6,4.9,1.4,6.2,2.5c1.4,1.1,2,2.6,2,4.5c0,2-0.9,3.7-2.6,5c-1.8,1.3-4.1,2-6.9,2c-3,0-5.4-0.8-7.2-2.3
		c-1.8-1.5-2.6-3.3-2.5-5.2l0-0.1h5.6c0,1.2,0.4,2.1,1.2,2.6c0.8,0.5,1.7,0.8,3,0.8c1.1,0,2-0.2,2.6-0.7
		C419.4,170.9,419.7,170.2,419.7,169.5z"/>
	<path class="st0" d="M439.1,171.5c1.1,0,1.9-0.3,2.5-1c0.6-0.6,0.9-1.5,0.9-2.6h5.6l0,0.1c0.1,2.3-0.8,4.2-2.6,5.8
		c-1.8,1.5-3.9,2.3-6.6,2.3c-3.4,0-6-1.1-7.8-3.2c-1.8-2.1-2.8-4.9-2.8-8.2v-0.6c0-3.3,0.9-6.1,2.7-8.2c1.8-2.2,4.4-3.2,7.8-3.2
		c2.8,0,5,0.8,6.7,2.4c1.7,1.6,2.5,3.7,2.5,6.3l0,0.1h-5.6c0-1.2-0.3-2.2-0.9-2.9s-1.5-1.2-2.6-1.2c-1.6,0-2.7,0.6-3.4,1.9
		c-0.7,1.3-1,2.9-1,4.9v0.6c0,2,0.3,3.6,1,4.9C436.4,170.9,437.5,171.5,439.1,171.5z"/>
	<path class="st0" d="M450.8,164.2c0-3.4,0.9-6.2,2.8-8.3c1.9-2.2,4.5-3.2,7.9-3.2c3.4,0,6,1.1,7.9,3.2c1.9,2.2,2.9,4.9,2.9,8.3v0.4
		c0,3.4-0.9,6.2-2.8,8.4c-1.9,2.1-4.5,3.2-7.9,3.2c-3.4,0-6-1.1-7.9-3.2c-1.9-2.1-2.8-4.9-2.8-8.4V164.2z M457,164.6
		c0,2.1,0.4,3.7,1.1,5c0.7,1.3,1.9,1.9,3.5,1.9c1.6,0,2.7-0.6,3.5-1.9c0.7-1.3,1.1-2.9,1.1-5v-0.4c0-2-0.4-3.7-1.1-4.9
		c-0.7-1.3-1.9-1.9-3.5-1.9c-1.6,0-2.7,0.6-3.5,1.9c-0.7,1.3-1.1,2.9-1.1,4.9V164.6z"/>
	<path class="st0" d="M480.1,175.8h-2.9v-3.4h2.9V175.8z"/>
</g>
</svg>
