<?xml version="1.0" encoding="utf-8"?>
<!-- Generator: Adobe Illustrator 22.1.0, SVG Export Plug-In . SVG Version: 6.00 Build 0)  -->
<svg version="1.1" id="Capa_1" xmlns="http://www.w3.org/2000/svg" xmlns:xlink="http://www.w3.org/1999/xlink" x="0px" y="0px"
	 viewBox="0 0 1256 196" style="enable-background:new 0 0 1256 196;" xml:space="preserve">
<style type="text/css">
	.st0{fill:#54515C;}
</style>
<g>
	<path class="st0" d="M11.1,48.2h14.1v2H8.7V21.8h2.3V48.2z"/>
	<path class="st0" d="M41.7,50.2c-0.2-0.7-0.3-1.3-0.3-1.9c-0.1-0.5-0.1-1-0.1-1.6c-0.8,1.1-1.8,2-3.1,2.8c-1.3,0.7-2.8,1.1-4.4,1.1
		c-2.1,0-3.7-0.5-4.8-1.6c-1.1-1.1-1.7-2.6-1.7-4.4c0-2,0.8-3.5,2.5-4.7c1.7-1.2,4-1.8,6.8-1.8h4.7v-2.6c0-1.5-0.5-2.7-1.5-3.6
		c-1-0.9-2.3-1.3-4.1-1.3c-1.6,0-3,0.4-4.1,1.2s-1.6,1.8-1.6,3l-2.1,0l0-0.1c-0.1-1.6,0.6-3,2.2-4.2c1.5-1.2,3.4-1.9,5.8-1.9
		c2.3,0,4.2,0.6,5.6,1.8c1.4,1.2,2.1,2.9,2.1,5.1V46c0,0.7,0,1.5,0.1,2.2c0.1,0.7,0.2,1.4,0.4,2.1H41.7z M34.1,48.6
		c1.7,0,3.2-0.4,4.5-1.2c1.3-0.8,2.2-1.8,2.8-3v-4.4h-4.7c-2.1,0-3.8,0.5-5.1,1.4c-1.3,0.9-1.9,2-1.9,3.4c0,1.1,0.4,2.1,1.2,2.8
		C31.6,48.2,32.7,48.6,34.1,48.6z"/>
	<path class="st0" d="M66.2,46.2c1,0,1.8-0.3,2.4-0.9c0.6-0.6,0.9-1.4,0.9-2.4h5.2l0,0.1c0.1,2.1-0.7,3.9-2.4,5.4
		c-1.6,1.4-3.7,2.2-6.1,2.2c-3.1,0-5.5-1-7.2-3c-1.7-2-2.6-4.6-2.6-7.7v-0.6c0-3.1,0.8-5.7,2.5-7.7s4.1-3,7.2-3
		c2.6,0,4.7,0.7,6.2,2.2c1.6,1.5,2.3,3.4,2.3,5.9l0,0.1h-5.2c0-1.1-0.3-2-0.9-2.7c-0.6-0.7-1.4-1.1-2.4-1.1c-1.5,0-2.5,0.6-3.1,1.8
		c-0.6,1.2-0.9,2.7-0.9,4.5V40c0,1.9,0.3,3.4,0.9,4.6C63.6,45.7,64.7,46.2,66.2,46.2z"/>
	<path class="st0" d="M76.3,39.5c0-3.2,0.9-5.7,2.6-7.7s4.2-3,7.3-3c3.1,0,5.6,1,7.3,3c1.8,2,2.7,4.6,2.7,7.8v0.4
		c0,3.2-0.9,5.8-2.6,7.8c-1.8,2-4.2,3-7.3,3c-3.1,0-5.6-1-7.3-3c-1.8-2-2.6-4.6-2.6-7.8V39.5z M82,39.9c0,1.9,0.3,3.5,1,4.6
		c0.7,1.2,1.8,1.7,3.3,1.7c1.5,0,2.5-0.6,3.2-1.8s1-2.7,1-4.6v-0.4c0-1.9-0.3-3.4-1-4.6c-0.7-1.2-1.8-1.8-3.3-1.8
		c-1.5,0-2.5,0.6-3.2,1.8s-1,2.7-1,4.6V39.9z"/>
	<path class="st0" d="M104.2,29.1l0.2,2.8c0.7-1,1.5-1.8,2.5-2.4c1-0.6,2.2-0.8,3.5-0.8c1.4,0,2.5,0.3,3.5,0.9
		c1,0.6,1.7,1.5,2.2,2.7c0.7-1.1,1.5-2,2.5-2.7c1-0.6,2.3-1,3.7-1c2.1,0,3.7,0.7,4.9,2.2c1.2,1.5,1.8,3.7,1.8,6.8v12.5h-5.7V37.7
		c0-1.7-0.3-2.9-0.8-3.5c-0.5-0.7-1.3-1-2.3-1c-0.8,0-1.5,0.2-2.1,0.5c-0.6,0.4-1.1,0.9-1.4,1.5c0,0.2,0,0.5,0,0.6
		c0,0.2,0,0.4,0,0.5v13.9h-5.7V37.7c0-1.7-0.3-2.8-0.8-3.5c-0.5-0.7-1.3-1-2.3-1c-0.8,0-1.4,0.1-2,0.4c-0.6,0.3-1.1,0.7-1.4,1.2
		v15.4h-5.7V29.1H104.2z"/>
	<path class="st0" d="M151.8,40.2c0,3.2-0.7,5.7-2.1,7.6c-1.4,1.9-3.4,2.8-6.1,2.8c-1.2,0-2.3-0.3-3.2-0.8s-1.7-1.3-2.3-2.3
		l-0.5,2.7h-4.8V19.7h5.7v11.6c0.6-0.8,1.3-1.5,2.2-2c0.9-0.5,1.8-0.7,2.9-0.7c2.7,0,4.7,1,6.1,3c1.4,2,2.1,4.7,2.1,8.1V40.2z
		 M146.1,39.8c0-2.1-0.3-3.7-0.9-4.9c-0.6-1.2-1.6-1.8-3.1-1.8c-0.9,0-1.6,0.2-2.2,0.6c-0.6,0.4-1.1,0.9-1.4,1.6v8.9
		c0.4,0.6,0.8,1.1,1.5,1.5c0.6,0.3,1.4,0.5,2.3,0.5c1.5,0,2.5-0.5,3.1-1.6s0.9-2.5,0.9-4.4V39.8z"/>
	<path class="st0" d="M160.5,24h-5.7v-4.3h5.7V24z M160.5,50.2h-5.7V29.1h5.7V50.2z"/>
	<path class="st0" d="M169.6,29.1l0.3,3c0.7-1.1,1.6-1.9,2.6-2.5c1-0.6,2.2-0.9,3.5-0.9c2.1,0,3.8,0.7,5,2.1
		c1.2,1.4,1.8,3.5,1.8,6.5v12.9H177V37.3c0-1.5-0.3-2.6-0.8-3.2c-0.5-0.6-1.3-0.9-2.4-0.9c-0.8,0-1.6,0.2-2.2,0.5
		c-0.6,0.3-1.2,0.8-1.6,1.3v15.3h-5.7V29.1H169.6z"/>
	<path class="st0" d="M198.6,50.2c-0.2-0.5-0.4-1-0.5-1.5c-0.1-0.5-0.3-1.1-0.3-1.6c-0.6,1-1.4,1.9-2.3,2.6c-1,0.7-2.1,1-3.4,1
		c-2.2,0-3.9-0.6-5.1-1.7c-1.2-1.1-1.8-2.7-1.8-4.7c0-2.1,0.8-3.7,2.4-4.8c1.6-1.1,3.9-1.7,7-1.7h3.2v-1.7c0-1-0.3-1.8-0.8-2.4
		c-0.5-0.6-1.3-0.8-2.4-0.8c-0.9,0-1.6,0.2-2.1,0.7c-0.5,0.4-0.8,1.1-0.8,1.8h-5.5l0-0.1c-0.1-1.8,0.7-3.3,2.3-4.6
		c1.6-1.3,3.8-1.9,6.5-1.9c2.5,0,4.6,0.6,6.2,1.9c1.6,1.3,2.4,3.1,2.4,5.5v8.7c0,1,0.1,1.9,0.2,2.8c0.1,0.9,0.4,1.7,0.7,2.6H198.6z
		 M193.4,46.4c1,0,1.9-0.2,2.7-0.7c0.8-0.5,1.3-1.1,1.6-1.7v-3h-3.2c-1.2,0-2.1,0.3-2.7,0.9c-0.6,0.6-0.9,1.3-0.9,2.2
		c0,0.7,0.2,1.3,0.7,1.7C192,46.2,192.6,46.4,193.4,46.4z"/>
	<path class="st0" d="M215.7,46.2c1,0,1.8-0.3,2.4-0.9c0.6-0.6,0.9-1.4,0.9-2.4h5.2l0,0.1c0.1,2.1-0.7,3.9-2.4,5.4
		c-1.6,1.4-3.7,2.2-6.1,2.2c-3.1,0-5.5-1-7.2-3c-1.7-2-2.6-4.6-2.6-7.7v-0.6c0-3.1,0.8-5.7,2.5-7.7s4.1-3,7.2-3
		c2.6,0,4.7,0.7,6.2,2.2c1.6,1.5,2.3,3.4,2.3,5.9l0,0.1h-5.2c0-1.1-0.3-2-0.9-2.7c-0.6-0.7-1.4-1.1-2.4-1.1c-1.5,0-2.5,0.6-3.1,1.8
		c-0.6,1.2-0.9,2.7-0.9,4.5V40c0,1.9,0.3,3.4,0.9,4.6C213.1,45.7,214.2,46.2,215.7,46.2z"/>
	<path class="st0" d="M232.7,24H227v-4.3h5.7V24z M232.7,50.2H227V29.1h5.7V50.2z"/>
	<path class="st0" d="M235.7,39.5c0-3.2,0.9-5.7,2.6-7.7s4.2-3,7.3-3c3.1,0,5.6,1,7.3,3c1.8,2,2.7,4.6,2.7,7.8v0.4
		c0,3.2-0.9,5.8-2.6,7.8c-1.8,2-4.2,3-7.3,3c-3.1,0-5.6-1-7.3-3c-1.8-2-2.6-4.6-2.6-7.8V39.5z M241.4,39.9c0,1.9,0.3,3.5,1,4.6
		c0.7,1.2,1.8,1.7,3.3,1.7c1.5,0,2.5-0.6,3.2-1.8s1-2.7,1-4.6v-0.4c0-1.9-0.3-3.4-1-4.6c-0.7-1.2-1.8-1.8-3.3-1.8
		c-1.5,0-2.5,0.6-3.2,1.8s-1,2.7-1,4.6V39.9z M246.8,20.1h6.3l0,0.1l-5.4,5.1h-4.9L246.8,20.1z"/>
	<path class="st0" d="M263.6,29.1l0.3,3c0.7-1.1,1.6-1.9,2.6-2.5c1-0.6,2.2-0.9,3.5-0.9c2.1,0,3.8,0.7,5,2.1
		c1.2,1.4,1.8,3.5,1.8,6.5v12.9h-5.7V37.3c0-1.5-0.3-2.6-0.8-3.2c-0.5-0.6-1.3-0.9-2.4-0.9c-0.8,0-1.6,0.2-2.2,0.5
		c-0.6,0.3-1.2,0.8-1.6,1.3v15.3h-5.7V29.1H263.6z"/>
	<path class="st0" d="M289,39.8c0-3.4,0.7-6.1,2.1-8.1c1.4-2,3.4-3,6-3c1.5,0,2.7,0.3,3.8,0.9c1.1,0.6,2,1.5,2.7,2.7V19.7h2.3v30.5
		h-2.1l-0.2-3.1c-0.7,1.1-1.6,2-2.7,2.6c-1.1,0.6-2.4,0.9-3.9,0.9c-2.5,0-4.5-0.9-5.9-2.8c-1.4-1.9-2.1-4.4-2.1-7.6V39.8z
		 M291.4,40.2c0,2.6,0.5,4.6,1.5,6.1c1,1.5,2.6,2.3,4.6,2.3c1.5,0,2.8-0.3,3.8-1c1-0.7,1.8-1.6,2.4-2.8v-10c-0.5-1.2-1.3-2.2-2.3-3
		s-2.3-1.1-3.8-1.1c-2.1,0-3.6,0.8-4.6,2.5c-1,1.7-1.6,3.9-1.6,6.6V40.2z"/>
	<path class="st0" d="M319.3,50.6c-2.6,0-4.8-1-6.6-2.9c-1.8-2-2.6-4.4-2.6-7.4v-1.1c0-3,0.9-5.5,2.6-7.5s3.8-3,6.3-3
		c2.6,0,4.6,0.8,6.1,2.5s2.2,3.8,2.2,6.6v2h-14.9v0.6c0,2.4,0.6,4.4,1.9,6c1.3,1.6,2.9,2.4,5,2.4c1.5,0,2.7-0.2,3.7-0.6
		c1-0.4,1.9-1,2.6-1.7l1,1.6c-0.8,0.8-1.8,1.5-3,2C322.5,50.4,321,50.6,319.3,50.6z M319.1,30.7c-1.7,0-3.2,0.7-4.4,2s-1.9,3-2.1,5
		l0,0.1h12.4v-0.6c0-1.8-0.5-3.4-1.6-4.6C322.4,31.3,320.9,30.7,319.1,30.7z"/>
	<path class="st0" d="M342.8,50.2h-2.3V19.7h2.3V50.2z"/>
	<path class="st0" d="M347.1,39.3c0-3.1,0.9-5.7,2.6-7.7c1.7-2,4-3,6.8-3c2.8,0,5.1,1,6.8,3c1.7,2,2.6,4.5,2.6,7.7V40
		c0,3.1-0.8,5.7-2.5,7.7c-1.7,2-4,3-6.8,3c-2.8,0-5.1-1-6.8-3c-1.7-2-2.6-4.5-2.6-7.7V39.3z M349.5,40c0,2.4,0.6,4.5,1.9,6.2
		c1.2,1.7,3,2.5,5.2,2.5c2.2,0,3.9-0.8,5.1-2.5c1.2-1.7,1.9-3.7,1.9-6.2v-0.6c0-2.4-0.6-4.4-1.9-6.1c-1.2-1.7-3-2.5-5.2-2.5
		s-3.9,0.8-5.1,2.5c-1.2,1.7-1.9,3.7-1.9,6.1V40z"/>
	<path class="st0" d="M382.6,44.8c0-1-0.4-1.9-1.2-2.6c-0.8-0.7-2.3-1.3-4.4-1.8c-2.5-0.5-4.4-1.3-5.6-2.2c-1.2-0.9-1.8-2.2-1.8-3.8
		c0-1.6,0.7-3,2-4.1c1.4-1.1,3.2-1.7,5.4-1.7c2.4,0,4.3,0.6,5.7,1.8c1.4,1.2,2.1,2.7,2,4.4l0,0.1h-2.2c0-1.2-0.5-2.2-1.5-3
		c-1-0.9-2.3-1.3-4-1.3c-1.7,0-3,0.4-3.8,1.1c-0.9,0.7-1.3,1.6-1.3,2.6c0,1,0.4,1.8,1.1,2.4c0.7,0.6,2.2,1.2,4.4,1.7
		c2.5,0.6,4.4,1.3,5.6,2.3c1.2,1,1.9,2.3,1.9,4c0,1.8-0.7,3.2-2.1,4.3c-1.4,1.1-3.3,1.6-5.7,1.6c-2.6,0-4.6-0.6-6-1.8
		c-1.5-1.2-2.2-2.7-2.1-4.4l0-0.1h2.1c0.1,1.5,0.7,2.6,1.9,3.3c1.2,0.7,2.5,1,4.1,1c1.7,0,3-0.4,4-1.1
		C382.1,46.8,382.6,45.9,382.6,44.8z"/>
	<path class="st0" d="M415.4,40.2c0,3.2-0.7,5.7-2.1,7.6c-1.4,1.9-3.4,2.8-5.9,2.8c-1.5,0-2.8-0.3-3.9-0.8s-2-1.4-2.7-2.4v11h-2.3
		V29.1h2l0.3,3.3c0.7-1.2,1.6-2.1,2.7-2.7c1.1-0.6,2.4-1,3.9-1c2.5,0,4.5,1,6,3c1.4,2,2.1,4.7,2.1,8.1V40.2z M413.1,39.8
		c0-2.7-0.5-4.9-1.6-6.6c-1.1-1.7-2.6-2.5-4.7-2.5c-1.6,0-2.9,0.4-3.8,1.1c-1,0.8-1.7,1.7-2.2,2.9v10.2c0.5,1.2,1.3,2.1,2.3,2.7
		c1,0.7,2.3,1,3.8,1c2,0,3.6-0.8,4.7-2.3c1.1-1.5,1.6-3.6,1.6-6.1V39.8z"/>
	<path class="st0" d="M429.6,31.1l-1.7-0.1c-1.5,0-2.7,0.4-3.6,1.2c-0.9,0.8-1.6,2-2,3.4v14.6h-2.3V29.1h2.1l0.3,3.5v0.2
		c0.6-1.3,1.4-2.3,2.5-3c1-0.7,2.3-1.1,3.7-1.1c0.3,0,0.6,0,0.9,0.1c0.3,0,0.5,0.1,0.7,0.1L429.6,31.1z"/>
	<path class="st0" d="M431,39.3c0-3.1,0.9-5.7,2.6-7.7c1.7-2,4-3,6.8-3c2.8,0,5.1,1,6.8,3c1.7,2,2.6,4.5,2.6,7.7V40
		c0,3.1-0.8,5.7-2.5,7.7c-1.7,2-4,3-6.8,3c-2.8,0-5.1-1-6.8-3c-1.7-2-2.6-4.5-2.6-7.7V39.3z M433.3,40c0,2.4,0.6,4.5,1.9,6.2
		c1.2,1.7,3,2.5,5.2,2.5c2.2,0,3.9-0.8,5.1-2.5c1.2-1.7,1.9-3.7,1.9-6.2v-0.6c0-2.4-0.6-4.4-1.9-6.1c-1.2-1.7-3-2.5-5.2-2.5
		s-3.9,0.8-5.1,2.5c-1.2,1.7-1.9,3.7-1.9,6.1V40z"/>
	<path class="st0" d="M459.5,44.5l0.7,2.5h0.1l6.4-17.9h2.6l-9.2,24.5c-0.5,1.4-1.3,2.6-2.1,3.7c-0.9,1-2.1,1.5-3.8,1.5
		c-0.3,0-0.6,0-1-0.1s-0.7-0.1-0.9-0.2l0.3-2c0.2,0,0.4,0.1,0.8,0.1c0.3,0,0.6,0,0.8,0c1,0,1.8-0.4,2.4-1.1c0.6-0.7,1.1-1.7,1.6-2.8
		l1.1-2.9l-8.2-20.9h2.6L459.5,44.5z"/>
	<path class="st0" d="M479.9,50.6c-2.6,0-4.8-1-6.6-2.9c-1.8-2-2.6-4.4-2.6-7.4v-1.1c0-3,0.9-5.5,2.6-7.5s3.8-3,6.3-3
		c2.6,0,4.6,0.8,6.1,2.5s2.2,3.8,2.2,6.6v2H473v0.6c0,2.4,0.6,4.4,1.9,6c1.3,1.6,2.9,2.4,5,2.4c1.5,0,2.7-0.2,3.7-0.6
		c1-0.4,1.9-1,2.6-1.7l1,1.6c-0.8,0.8-1.8,1.5-3,2C483,50.4,481.6,50.6,479.9,50.6z M479.6,30.7c-1.7,0-3.2,0.7-4.4,2s-1.9,3-2.1,5
		l0,0.1h12.4v-0.6c0-1.8-0.5-3.4-1.6-4.6C482.9,31.3,481.5,30.7,479.6,30.7z"/>
	<path class="st0" d="M499.6,48.6c1.5,0,2.9-0.4,4.1-1.3c1.2-0.9,1.8-2.1,1.8-3.7h2.1l0,0.1c0.1,2-0.7,3.6-2.3,4.9
		c-1.6,1.3-3.5,2-5.6,2c-2.9,0-5.1-1-6.7-3c-1.6-2-2.4-4.5-2.4-7.6v-0.8c0-3.1,0.8-5.6,2.4-7.6c1.6-2,3.8-3,6.6-3
		c2.3,0,4.2,0.7,5.8,2.1s2.3,3.2,2.2,5.4l0,0.1h-2.1c0-1.7-0.6-3-1.7-4.1c-1.1-1-2.5-1.5-4.2-1.5c-2.3,0-3.9,0.8-5,2.4
		c-1.1,1.6-1.6,3.7-1.6,6.1V40c0,2.5,0.5,4.6,1.6,6.2C495.6,47.8,497.3,48.6,499.6,48.6z"/>
	<path class="st0" d="M515.4,23.7v5.4h4.6V31h-4.6v13.8c0,1.4,0.3,2.4,0.8,2.9c0.5,0.6,1.2,0.9,2,0.9c0.4,0,0.7,0,1.1,0
		c0.4,0,0.8-0.1,1.2-0.2l0.4,1.7c-0.4,0.2-0.9,0.3-1.4,0.4c-0.6,0.1-1.1,0.1-1.7,0.1c-1.5,0-2.6-0.5-3.5-1.4
		c-0.8-0.9-1.2-2.4-1.2-4.5V31h-3.7v-1.9h3.7v-5.4H515.4z"/>
	<path class="st0" d="M522.5,39.3c0-3.1,0.9-5.7,2.6-7.7c1.7-2,4-3,6.8-3c2.8,0,5.1,1,6.8,3c1.7,2,2.6,4.5,2.6,7.7V40
		c0,3.1-0.8,5.7-2.5,7.7c-1.7,2-4,3-6.8,3c-2.8,0-5.1-1-6.8-3c-1.7-2-2.6-4.5-2.6-7.7V39.3z M524.8,40c0,2.4,0.6,4.5,1.9,6.2
		c1.2,1.7,3,2.5,5.2,2.5c2.2,0,3.9-0.8,5.1-2.5c1.2-1.7,1.9-3.7,1.9-6.2v-0.6c0-2.4-0.6-4.4-1.9-6.1c-1.2-1.7-3-2.5-5.2-2.5
		s-3.9,0.8-5.1,2.5c-1.2,1.7-1.9,3.7-1.9,6.1V40z"/>
	<path class="st0" d="M557.9,44.8c0-1-0.4-1.9-1.2-2.6c-0.8-0.7-2.3-1.3-4.4-1.8c-2.5-0.5-4.4-1.3-5.6-2.2c-1.2-0.9-1.8-2.2-1.8-3.8
		c0-1.6,0.7-3,2-4.1c1.4-1.1,3.2-1.7,5.4-1.7c2.4,0,4.3,0.6,5.7,1.8c1.4,1.2,2.1,2.7,2,4.4l0,0.1h-2.2c0-1.2-0.5-2.2-1.5-3
		c-1-0.9-2.3-1.3-4-1.3c-1.7,0-3,0.4-3.8,1.1c-0.9,0.7-1.3,1.6-1.3,2.6c0,1,0.4,1.8,1.1,2.4c0.7,0.6,2.2,1.2,4.4,1.7
		c2.5,0.6,4.4,1.3,5.6,2.3c1.2,1,1.9,2.3,1.9,4c0,1.8-0.7,3.2-2.1,4.3c-1.4,1.1-3.3,1.6-5.7,1.6c-2.6,0-4.6-0.6-6-1.8
		c-1.5-1.2-2.2-2.7-2.1-4.4l0-0.1h2.1c0.1,1.5,0.7,2.6,1.9,3.3c1.2,0.7,2.5,1,4.1,1c1.7,0,3-0.4,4-1.1
		C557.4,46.8,557.9,45.9,557.9,44.8z"/>
	<path class="st0" d="M590.8,40.2c0,3.2-0.7,5.7-2.1,7.6c-1.4,1.9-3.4,2.8-5.9,2.8c-1.5,0-2.8-0.3-3.9-0.8s-2-1.4-2.7-2.4v11h-2.3
		V29.1h2l0.3,3.3c0.7-1.2,1.6-2.1,2.7-2.7c1.1-0.6,2.4-1,3.9-1c2.5,0,4.5,1,6,3c1.4,2,2.1,4.7,2.1,8.1V40.2z M588.4,39.8
		c0-2.7-0.5-4.9-1.6-6.6c-1.1-1.7-2.6-2.5-4.7-2.5c-1.6,0-2.9,0.4-3.8,1.1c-1,0.8-1.7,1.7-2.2,2.9v10.2c0.5,1.2,1.3,2.1,2.3,2.7
		c1,0.7,2.3,1,3.8,1c2,0,3.6-0.8,4.7-2.3c1.1-1.5,1.6-3.6,1.6-6.1V39.8z"/>
	<path class="st0" d="M603.2,50.6c-2.6,0-4.8-1-6.6-2.9c-1.8-2-2.6-4.4-2.6-7.4v-1.1c0-3,0.9-5.5,2.6-7.5s3.8-3,6.3-3
		c2.6,0,4.6,0.8,6.1,2.5s2.2,3.8,2.2,6.6v2h-14.9v0.6c0,2.4,0.6,4.4,1.9,6c1.3,1.6,2.9,2.4,5,2.4c1.5,0,2.7-0.2,3.7-0.6
		c1-0.4,1.9-1,2.6-1.7l1,1.6c-0.8,0.8-1.8,1.5-3,2C606.3,50.4,604.8,50.6,603.2,50.6z M602.9,30.7c-1.7,0-3.2,0.7-4.4,2
		s-1.9,3-2.1,5l0,0.1h12.4v-0.6c0-1.8-0.5-3.4-1.6-4.6C606.2,31.3,604.7,30.7,602.9,30.7z"/>
	<path class="st0" d="M624.8,31.1L623,31c-1.5,0-2.7,0.4-3.6,1.2c-0.9,0.8-1.6,2-2,3.4v14.6H615V29.1h2.1l0.3,3.5v0.2
		c0.6-1.3,1.4-2.3,2.5-3c1-0.7,2.3-1.1,3.7-1.1c0.3,0,0.6,0,0.9,0.1c0.3,0,0.5,0.1,0.7,0.1L624.8,31.1z"/>
	<path class="st0" d="M629.8,29.1l0.2,3.5c0.7-1.2,1.6-2.2,2.7-2.9c1.1-0.7,2.5-1,4-1c1.6,0,3,0.4,4.1,1.2s1.9,2,2.3,3.6
		c0.6-1.5,1.5-2.6,2.7-3.5s2.6-1.3,4.3-1.3c2.3,0,4,0.7,5.2,2.2c1.2,1.5,1.8,3.8,1.8,7v12.3h-2.3V37.8c0-2.6-0.5-4.5-1.4-5.5
		c-0.9-1.1-2.2-1.6-3.8-1.6c-1.8,0-3.2,0.6-4.2,1.7s-1.6,2.6-1.8,4.4c0,0.1,0,0.2,0,0.4c0,0.2,0,0.3,0,0.4v12.7h-2.4V37.8
		c0-2.6-0.5-4.4-1.4-5.5s-2.2-1.7-3.8-1.7c-1.7,0-3,0.4-3.9,1.3c-1,0.8-1.7,2-2,3.4v14.9h-2.4V29.1H629.8z"/>
	<path class="st0" d="M665.1,23h-2.3v-3.3h2.3V23z M665.1,50.2h-2.3V29.1h2.3V50.2z"/>
	<path class="st0" d="M674.4,23.7v5.4h4.6V31h-4.6v13.8c0,1.4,0.3,2.4,0.8,2.9c0.5,0.6,1.2,0.9,2,0.9c0.4,0,0.7,0,1.1,0
		c0.4,0,0.8-0.1,1.2-0.2l0.4,1.7c-0.4,0.2-0.9,0.3-1.4,0.4c-0.6,0.1-1.1,0.1-1.7,0.1c-1.5,0-2.6-0.5-3.5-1.4s-1.2-2.4-1.2-4.5V31
		h-3.7v-1.9h3.7v-5.4H674.4z"/>
	<path class="st0" d="M685.9,23h-2.3v-3.3h2.3V23z M685.9,50.2h-2.3V29.1h2.3V50.2z"/>
	<path class="st0" d="M690.2,39.3c0-3.1,0.9-5.7,2.6-7.7s4-3,6.8-3c2.8,0,5.1,1,6.8,3s2.6,4.5,2.6,7.7V40c0,3.1-0.8,5.7-2.5,7.7
		c-1.7,2-4,3-6.8,3c-2.8,0-5.1-1-6.8-3c-1.7-2-2.6-4.5-2.6-7.7V39.3z M692.6,40c0,2.4,0.6,4.5,1.9,6.2s3,2.5,5.2,2.5
		c2.2,0,3.9-0.8,5.1-2.5s1.9-3.7,1.9-6.2v-0.6c0-2.4-0.6-4.4-1.9-6.1c-1.2-1.7-3-2.5-5.2-2.5s-3.9,0.8-5.1,2.5
		c-1.2,1.7-1.9,3.7-1.9,6.1V40z M702.4,20.9h2.9l0.1,0.1l-4.9,5.1h-2.1L702.4,20.9z"/>
	<path class="st0" d="M732.1,34l-2.1-0.1c-0.8,0-1.5,0.2-2.1,0.5s-1,0.8-1.2,1.5v14.3H721V29.1h5.3l0.3,3.1c0.5-1.1,1.1-2,1.9-2.6
		c0.8-0.6,1.7-0.9,2.7-0.9c0.3,0,0.5,0,0.8,0.1c0.2,0,0.5,0.1,0.7,0.2L732.1,34z"/>
	<path class="st0" d="M743.1,50.6c-3.2,0-5.6-1-7.4-2.9s-2.7-4.4-2.7-7.5v-0.8c0-3.2,0.9-5.8,2.6-7.8c1.7-2,4.1-3,7.1-3
		c2.8,0,5,0.9,6.5,2.6s2.3,4.1,2.3,7v2.9h-12.6l-0.1,0.1c0.1,1.4,0.5,2.6,1.3,3.5s2,1.3,3.5,1.3c1.3,0,2.4-0.1,3.3-0.4
		c0.9-0.3,1.8-0.7,2.8-1.2l1.5,3.5c-0.8,0.7-2,1.3-3.4,1.7S744.8,50.6,743.1,50.6z M742.7,33.1c-1.1,0-2,0.4-2.6,1.2
		c-0.6,0.8-1,1.8-1.1,3.1l0,0.1h7v-0.4c0-1.2-0.3-2.2-0.8-2.9C744.7,33.4,743.9,33.1,742.7,33.1z"/>
	<path class="st0" d="M765.5,44.4c0-0.6-0.3-1.2-0.9-1.6s-1.7-0.8-3.4-1.2c-2.5-0.5-4.4-1.2-5.6-2.2c-1.3-1-1.9-2.4-1.9-4.1
		c0-1.8,0.8-3.4,2.3-4.6c1.5-1.3,3.6-1.9,6.1-1.9c2.7,0,4.8,0.6,6.4,1.9c1.6,1.3,2.4,2.9,2.3,4.8l0,0.1h-5.5c0-0.8-0.3-1.5-0.8-2.1
		c-0.5-0.5-1.3-0.8-2.4-0.8c-0.9,0-1.6,0.2-2.2,0.7c-0.5,0.5-0.8,1-0.8,1.7c0,0.7,0.3,1.2,0.8,1.6s1.7,0.8,3.4,1.1
		c2.6,0.5,4.5,1.3,5.8,2.3c1.3,1,1.9,2.4,1.9,4.2c0,1.9-0.8,3.5-2.4,4.7s-3.8,1.8-6.4,1.8c-2.8,0-5-0.7-6.7-2.1s-2.4-3-2.3-4.9
		l0-0.1h5.2c0,1.1,0.4,2,1.1,2.5s1.6,0.8,2.8,0.8c1.1,0,1.9-0.2,2.4-0.6C765.2,45.7,765.5,45.1,765.5,44.4z"/>
	<path class="st0" d="M773,39.5c0-3.2,0.9-5.7,2.6-7.7s4.2-3,7.3-3c3.1,0,5.6,1,7.3,3c1.8,2,2.7,4.6,2.7,7.8v0.4
		c0,3.2-0.9,5.8-2.6,7.8c-1.8,2-4.2,3-7.3,3c-3.1,0-5.6-1-7.3-3c-1.8-2-2.6-4.6-2.6-7.8V39.5z M778.7,39.9c0,1.9,0.3,3.5,1,4.6
		c0.7,1.2,1.8,1.7,3.3,1.7c1.5,0,2.5-0.6,3.2-1.8s1-2.7,1-4.6v-0.4c0-1.9-0.3-3.4-1-4.6c-0.7-1.2-1.8-1.8-3.3-1.8
		c-1.5,0-2.5,0.6-3.2,1.8s-1,2.7-1,4.6V39.9z"/>
	<path class="st0" d="M801.7,50.2H796V19.7h5.7V50.2z"/>
	<path class="st0" d="M813.2,42.3l0.4,2h0.1l0.4-2l3.5-13.3h6l-7.2,21.1h-5.4l-7.2-21.1h6L813.2,42.3z"/>
	<path class="st0" d="M834.1,50.6c-3.2,0-5.6-1-7.4-2.9s-2.7-4.4-2.7-7.5v-0.8c0-3.2,0.9-5.8,2.6-7.8c1.7-2,4.1-3,7.1-3
		c2.8,0,5,0.9,6.5,2.6s2.3,4.1,2.3,7v2.9h-12.6l-0.1,0.1c0.1,1.4,0.5,2.6,1.3,3.5s2,1.3,3.5,1.3c1.3,0,2.4-0.1,3.3-0.4
		c0.9-0.3,1.8-0.7,2.8-1.2l1.5,3.5c-0.8,0.7-2,1.3-3.4,1.7S835.8,50.6,834.1,50.6z M833.7,33.1c-1.1,0-2,0.4-2.6,1.2
		c-0.6,0.8-1,1.8-1.1,3.1l0,0.1h7v-0.4c0-1.2-0.3-2.2-0.8-2.9C835.7,33.4,834.8,33.1,833.7,33.1z"/>
	<path class="st0" d="M856.2,34l-2.1-0.1c-0.8,0-1.5,0.2-2.1,0.5s-1,0.8-1.2,1.5v14.3H845V29.1h5.3l0.3,3.1c0.5-1.1,1.1-2,1.9-2.6
		c0.8-0.6,1.7-0.9,2.7-0.9c0.3,0,0.5,0,0.8,0.1c0.2,0,0.5,0.1,0.7,0.2L856.2,34z"/>
	<path class="st0" d="M882,46.8c-0.7,1.2-1.6,2.2-2.7,2.9s-2.5,1-4.1,1c-2.2,0-4-0.8-5.2-2.3c-1.3-1.5-1.9-3.9-1.9-7V29.1h2.3v12.3
		c0,2.6,0.4,4.4,1.3,5.6c0.9,1.1,2.1,1.7,3.7,1.7c1.8,0,3.2-0.4,4.2-1.2s1.8-1.9,2.2-3.3V29.1h2.3v21.1h-2.1L882,46.8z"/>
	<path class="st0" d="M891.7,29.1l0.2,3.7c0.7-1.3,1.6-2.3,2.7-3c1.2-0.7,2.5-1.1,4.1-1.1c2.3,0,4,0.7,5.2,2.1
		c1.2,1.4,1.8,3.6,1.8,6.6v12.9h-2.3V37.3c0-2.4-0.5-4.1-1.4-5.1c-0.9-1-2.2-1.5-3.9-1.5c-1.6,0-3,0.4-4,1.3c-1,0.9-1.8,2-2.2,3.5
		v14.8h-2.3V29.1H891.7z"/>
	<path class="st0" d="M924.5,50.2c-0.2-0.7-0.3-1.3-0.3-1.9c-0.1-0.5-0.1-1-0.1-1.6c-0.8,1.1-1.8,2-3.1,2.8s-2.8,1.1-4.4,1.1
		c-2.1,0-3.7-0.5-4.8-1.6s-1.7-2.6-1.7-4.4c0-2,0.8-3.5,2.5-4.7s4-1.8,6.8-1.8h4.7v-2.6c0-1.5-0.5-2.7-1.5-3.6s-2.3-1.3-4.1-1.3
		c-1.6,0-3,0.4-4.1,1.2s-1.6,1.8-1.6,3l-2.1,0l0-0.1c-0.1-1.6,0.6-3,2.2-4.2c1.5-1.2,3.4-1.9,5.8-1.9c2.3,0,4.2,0.6,5.6,1.8
		c1.4,1.2,2.1,2.9,2.1,5.1V46c0,0.7,0,1.5,0.1,2.2s0.2,1.4,0.4,2.1H924.5z M916.8,48.6c1.7,0,3.2-0.4,4.5-1.2c1.3-0.8,2.2-1.8,2.8-3
		v-4.4h-4.7c-2.1,0-3.8,0.5-5.1,1.4c-1.3,0.9-1.9,2-1.9,3.4c0,1.1,0.4,2.1,1.2,2.8S915.4,48.6,916.8,48.6z"/>
	<path class="st0" d="M939.8,39.8c0-3.4,0.7-6.1,2.1-8.1c1.4-2,3.4-3,6-3c1.5,0,2.7,0.3,3.8,0.9s2,1.5,2.7,2.7V19.7h2.3v30.5h-2.1
		l-0.2-3.1c-0.7,1.1-1.6,2-2.7,2.6s-2.4,0.9-3.9,0.9c-2.5,0-4.5-0.9-5.9-2.8c-1.4-1.9-2.1-4.4-2.1-7.6V39.8z M942.1,40.2
		c0,2.6,0.5,4.6,1.5,6.1s2.6,2.3,4.6,2.3c1.5,0,2.8-0.3,3.8-1c1-0.7,1.8-1.6,2.4-2.8v-10c-0.5-1.2-1.3-2.2-2.3-3s-2.3-1.1-3.8-1.1
		c-2.1,0-3.6,0.8-4.6,2.5c-1,1.7-1.6,3.9-1.6,6.6V40.2z"/>
	<path class="st0" d="M970.1,50.6c-2.6,0-4.8-1-6.6-2.9s-2.6-4.4-2.6-7.4v-1.1c0-3,0.9-5.5,2.6-7.5s3.8-3,6.3-3
		c2.6,0,4.6,0.8,6.1,2.5s2.2,3.8,2.2,6.6v2h-14.9v0.6c0,2.4,0.6,4.4,1.9,6s2.9,2.4,5,2.4c1.5,0,2.7-0.2,3.7-0.6c1-0.4,1.9-1,2.6-1.7
		l1,1.6c-0.8,0.8-1.8,1.5-3,2S971.8,50.6,970.1,50.6z M969.8,30.7c-1.7,0-3.2,0.7-4.4,2s-1.9,3-2.1,5l0,0.1h12.4v-0.6
		c0-1.8-0.5-3.4-1.6-4.6C973.1,31.3,971.7,30.7,969.8,30.7z"/>
	<path class="st0" d="M993.5,50.2h-2.3V19.7h2.3V50.2z"/>
	<path class="st0" d="M1012.6,50.2c-0.2-0.7-0.3-1.3-0.3-1.9c-0.1-0.5-0.1-1-0.1-1.6c-0.8,1.1-1.8,2-3.1,2.8s-2.8,1.1-4.4,1.1
		c-2.1,0-3.7-0.5-4.8-1.6s-1.7-2.6-1.7-4.4c0-2,0.8-3.5,2.5-4.7s4-1.8,6.8-1.8h4.7v-2.6c0-1.5-0.5-2.7-1.5-3.6s-2.3-1.3-4.1-1.3
		c-1.6,0-3,0.4-4.1,1.2s-1.6,1.8-1.6,3l-2.1,0l0-0.1c-0.1-1.6,0.6-3,2.2-4.2c1.5-1.2,3.4-1.9,5.8-1.9c2.3,0,4.2,0.6,5.6,1.8
		c1.4,1.2,2.1,2.9,2.1,5.1V46c0,0.7,0,1.5,0.1,2.2s0.2,1.4,0.4,2.1H1012.6z M1004.9,48.6c1.7,0,3.2-0.4,4.5-1.2
		c1.3-0.8,2.2-1.8,2.8-3v-4.4h-4.7c-2.1,0-3.8,0.5-5.1,1.4c-1.3,0.9-1.9,2-1.9,3.4c0,1.1,0.4,2.1,1.2,2.8S1003.5,48.6,1004.9,48.6z"
		/>
	<path class="st0" d="M1032.5,44.8c0-1-0.4-1.9-1.2-2.6c-0.8-0.7-2.3-1.3-4.4-1.8c-2.5-0.5-4.4-1.3-5.6-2.2s-1.8-2.2-1.8-3.8
		c0-1.6,0.7-3,2-4.1s3.2-1.7,5.4-1.7c2.4,0,4.3,0.6,5.7,1.8c1.4,1.2,2.1,2.7,2,4.4l0,0.1h-2.2c0-1.2-0.5-2.2-1.5-3s-2.3-1.3-4-1.3
		c-1.7,0-3,0.4-3.8,1.1s-1.3,1.6-1.3,2.6c0,1,0.4,1.8,1.1,2.4s2.2,1.2,4.4,1.7c2.5,0.6,4.4,1.3,5.6,2.3c1.2,1,1.9,2.3,1.9,4
		c0,1.8-0.7,3.2-2.1,4.3c-1.4,1.1-3.3,1.6-5.7,1.6c-2.6,0-4.6-0.6-6-1.8c-1.5-1.2-2.2-2.7-2.1-4.4l0-0.1h2.1
		c0.1,1.5,0.7,2.6,1.9,3.3c1.2,0.7,2.5,1,4.1,1c1.7,0,3-0.4,4-1.1C1032.1,46.8,1032.5,45.9,1032.5,44.8z"/>
	<path class="st0" d="M25.1,101.9c0,3.2-0.7,5.7-2.1,7.6c-1.4,1.9-3.4,2.8-5.9,2.8c-1.5,0-2.8-0.3-3.9-0.8s-2-1.4-2.7-2.4v11H8.1
		V90.7h2l0.3,3.3c0.7-1.2,1.6-2.1,2.7-2.7c1.1-0.6,2.4-1,3.9-1c2.5,0,4.5,1,6,3c1.4,2,2.1,4.7,2.1,8.1V101.9z M22.8,101.4
		c0-2.7-0.5-4.9-1.6-6.6c-1.1-1.7-2.6-2.5-4.7-2.5c-1.6,0-2.9,0.4-3.8,1.1c-1,0.8-1.7,1.7-2.2,2.9v10.2c0.5,1.2,1.3,2.1,2.3,2.7
		c1,0.7,2.3,1,3.8,1c2,0,3.6-0.8,4.7-2.3c1.1-1.5,1.6-3.6,1.6-6.1V101.4z"/>
	<path class="st0" d="M39.3,92.7l-1.7-0.1c-1.5,0-2.7,0.4-3.6,1.2c-0.9,0.8-1.6,2-2,3.4v14.6h-2.3V90.7h2.1l0.3,3.5v0.2
		c0.6-1.3,1.4-2.3,2.5-3c1-0.7,2.3-1.1,3.7-1.1c0.3,0,0.6,0,0.9,0.1c0.3,0,0.5,0.1,0.7,0.1L39.3,92.7z"/>
	<path class="st0" d="M49.9,112.2c-2.6,0-4.8-1-6.6-2.9c-1.8-2-2.6-4.4-2.6-7.4v-1.1c0-3,0.9-5.5,2.6-7.5s3.8-3,6.3-3
		c2.6,0,4.6,0.8,6.1,2.5s2.2,3.8,2.2,6.6v2H43v0.6c0,2.4,0.6,4.4,1.9,6c1.3,1.6,2.9,2.4,5,2.4c1.5,0,2.7-0.2,3.7-0.6
		c1-0.4,1.9-1,2.6-1.7l1,1.6c-0.8,0.8-1.8,1.5-3,2C53.1,112,51.6,112.2,49.9,112.2z M49.6,92.3c-1.7,0-3.2,0.7-4.4,2s-1.9,3-2.1,5
		l0,0.1h12.4v-0.6c0-1.8-0.5-3.4-1.6-4.6C52.9,92.9,51.5,92.3,49.6,92.3z"/>
	<path class="st0" d="M60.5,101c0-3.1,0.9-5.7,2.6-7.7c1.7-2,4-3,6.8-3c2.8,0,5.1,1,6.8,3c1.7,2,2.6,4.5,2.6,7.7v0.6
		c0,3.1-0.8,5.7-2.5,7.7s-4,3-6.8,3c-2.8,0-5.1-1-6.8-3c-1.7-2-2.6-4.5-2.6-7.7V101z M62.8,101.6c0,2.4,0.6,4.5,1.9,6.2
		c1.2,1.7,3,2.5,5.2,2.5c2.2,0,3.9-0.8,5.1-2.5c1.2-1.7,1.9-3.7,1.9-6.2V101c0-2.4-0.6-4.4-1.9-6.1c-1.2-1.7-3-2.5-5.2-2.5
		s-3.9,0.8-5.1,2.5c-1.2,1.7-1.9,3.7-1.9,6.1V101.6z"/>
	<path class="st0" d="M91.1,110.3c1.5,0,2.9-0.4,4.1-1.3c1.2-0.9,1.8-2.1,1.8-3.7H99l0,0.1c0.1,2-0.7,3.6-2.3,4.9
		c-1.6,1.3-3.5,2-5.6,2c-2.9,0-5.1-1-6.7-3c-1.6-2-2.4-4.5-2.4-7.6v-0.8c0-3.1,0.8-5.6,2.4-7.6c1.6-2,3.8-3,6.6-3
		c2.3,0,4.2,0.7,5.8,2.1s2.3,3.2,2.2,5.4l0,0.1H97c0-1.7-0.6-3-1.7-4.1c-1.1-1-2.5-1.5-4.2-1.5c-2.3,0-3.9,0.8-5,2.4
		c-1.1,1.6-1.6,3.7-1.6,6.1v0.8c0,2.5,0.5,4.6,1.6,6.2C87.1,109.5,88.8,110.3,91.1,110.3z"/>
	<path class="st0" d="M117,108.4c-0.7,1.2-1.6,2.2-2.7,2.9c-1.1,0.7-2.5,1-4.1,1c-2.2,0-4-0.8-5.2-2.3c-1.3-1.5-1.9-3.9-1.9-7V90.7
		h2.3V103c0,2.6,0.4,4.4,1.3,5.6c0.9,1.1,2.1,1.7,3.7,1.7c1.8,0,3.2-0.4,4.2-1.2s1.8-1.9,2.2-3.3V90.7h2.3v21.1h-2.1L117,108.4z"/>
	<path class="st0" d="M141.7,101.9c0,3.2-0.7,5.7-2.1,7.6c-1.4,1.9-3.4,2.8-5.9,2.8c-1.5,0-2.8-0.3-3.9-0.8s-2-1.4-2.7-2.4v11h-2.3
		V90.7h2l0.3,3.3c0.7-1.2,1.6-2.1,2.7-2.7c1.1-0.6,2.4-1,3.9-1c2.5,0,4.5,1,6,3c1.4,2,2.1,4.7,2.1,8.1V101.9z M139.3,101.4
		c0-2.7-0.5-4.9-1.6-6.6c-1.1-1.7-2.6-2.5-4.7-2.5c-1.6,0-2.9,0.4-3.8,1.1c-1,0.8-1.7,1.7-2.2,2.9v10.2c0.5,1.2,1.3,2.1,2.3,2.7
		c1,0.7,2.3,1,3.8,1c2,0,3.6-0.8,4.7-2.3c1.1-1.5,1.6-3.6,1.6-6.1V101.4z"/>
	<path class="st0" d="M159.5,111.8c-0.2-0.7-0.3-1.3-0.3-1.9c-0.1-0.5-0.1-1-0.1-1.6c-0.8,1.1-1.8,2-3.1,2.8
		c-1.3,0.7-2.8,1.1-4.4,1.1c-2.1,0-3.7-0.5-4.8-1.6c-1.1-1.1-1.7-2.6-1.7-4.4c0-2,0.8-3.5,2.5-4.7c1.7-1.2,4-1.8,6.8-1.8h4.7v-2.6
		c0-1.5-0.5-2.7-1.5-3.6c-1-0.9-2.3-1.3-4.1-1.3c-1.6,0-3,0.4-4.1,1.2s-1.6,1.8-1.6,3l-2.1,0l0-0.1c-0.1-1.6,0.6-3,2.2-4.2
		c1.5-1.2,3.4-1.9,5.8-1.9c2.3,0,4.2,0.6,5.6,1.8c1.4,1.2,2.1,2.9,2.1,5.1v10.4c0,0.7,0,1.5,0.1,2.2c0.1,0.7,0.2,1.4,0.4,2.1H159.5z
		 M151.8,110.2c1.7,0,3.2-0.4,4.5-1.2s2.2-1.8,2.8-3v-4.4h-4.7c-2.1,0-3.8,0.5-5.1,1.4s-1.9,2-1.9,3.4c0,1.1,0.4,2.1,1.2,2.8
		C149.3,109.8,150.4,110.2,151.8,110.2z"/>
	<path class="st0" d="M174.7,110.3c1.5,0,2.9-0.4,4.1-1.3c1.2-0.9,1.8-2.1,1.8-3.7h2.1l0,0.1c0.1,2-0.7,3.6-2.3,4.9
		c-1.6,1.3-3.5,2-5.6,2c-2.9,0-5.1-1-6.7-3c-1.6-2-2.4-4.5-2.4-7.6v-0.8c0-3.1,0.8-5.6,2.4-7.6c1.6-2,3.8-3,6.6-3
		c2.3,0,4.2,0.7,5.8,2.1s2.3,3.2,2.2,5.4l0,0.1h-2.1c0-1.7-0.6-3-1.7-4.1c-1.1-1-2.5-1.5-4.2-1.5c-2.3,0-3.9,0.8-5,2.4
		c-1.1,1.6-1.6,3.7-1.6,6.1v0.8c0,2.5,0.5,4.6,1.6,6.2C170.7,109.5,172.4,110.3,174.7,110.3z"/>
	<path class="st0" d="M189.4,84.7H187v-3.3h2.3V84.7z M189.4,111.8H187V90.7h2.3V111.8z"/>
	<path class="st0" d="M193.7,101c0-3.1,0.9-5.7,2.6-7.7c1.7-2,4-3,6.8-3c2.8,0,5.1,1,6.8,3c1.7,2,2.6,4.5,2.6,7.7v0.6
		c0,3.1-0.8,5.7-2.5,7.7s-4,3-6.8,3c-2.8,0-5.1-1-6.8-3c-1.7-2-2.6-4.5-2.6-7.7V101z M196.1,101.6c0,2.4,0.6,4.5,1.9,6.2
		c1.2,1.7,3,2.5,5.2,2.5c2.2,0,3.9-0.8,5.1-2.5c1.2-1.7,1.9-3.7,1.9-6.2V101c0-2.4-0.6-4.4-1.9-6.1c-1.2-1.7-3-2.5-5.2-2.5
		s-3.9,0.8-5.1,2.5c-1.2,1.7-1.9,3.7-1.9,6.1V101.6z"/>
	<path class="st0" d="M218.6,90.7l0.2,3.7c0.7-1.3,1.6-2.3,2.7-3c1.2-0.7,2.5-1.1,4.1-1.1c2.3,0,4,0.7,5.2,2.1
		c1.2,1.4,1.8,3.6,1.8,6.6v12.9h-2.3V99c0-2.4-0.5-4.1-1.4-5.1c-0.9-1-2.2-1.5-3.9-1.5c-1.6,0-3,0.4-4,1.3c-1,0.9-1.8,2-2.2,3.5
		v14.8h-2.3V90.7H218.6z"/>
	<path class="st0" d="M245.9,112.2c-2.6,0-4.8-1-6.6-2.9c-1.8-2-2.6-4.4-2.6-7.4v-1.1c0-3,0.9-5.5,2.6-7.5s3.8-3,6.3-3
		c2.6,0,4.6,0.8,6.1,2.5s2.2,3.8,2.2,6.6v2H239v0.6c0,2.4,0.6,4.4,1.9,6c1.3,1.6,2.9,2.4,5,2.4c1.5,0,2.7-0.2,3.7-0.6
		c1-0.4,1.9-1,2.6-1.7l1,1.6c-0.8,0.8-1.8,1.5-3,2C249,112,247.6,112.2,245.9,112.2z M245.6,92.3c-1.7,0-3.2,0.7-4.4,2s-1.9,3-2.1,5
		l0,0.1h12.4v-0.6c0-1.8-0.5-3.4-1.6-4.6C248.9,92.9,247.4,92.3,245.6,92.3z"/>
	<path class="st0" d="M270.4,106.5c0-1-0.4-1.9-1.2-2.6c-0.8-0.7-2.3-1.3-4.4-1.8c-2.5-0.5-4.4-1.3-5.6-2.2
		c-1.2-0.9-1.8-2.2-1.8-3.8c0-1.6,0.7-3,2-4.1c1.4-1.1,3.2-1.7,5.4-1.7c2.4,0,4.3,0.6,5.7,1.8c1.4,1.2,2.1,2.7,2,4.4l0,0.1h-2.2
		c0-1.2-0.5-2.2-1.5-3c-1-0.9-2.3-1.3-4-1.3c-1.7,0-3,0.4-3.8,1.1c-0.9,0.7-1.3,1.6-1.3,2.6c0,1,0.4,1.8,1.1,2.4
		c0.7,0.6,2.2,1.2,4.4,1.7c2.5,0.6,4.4,1.3,5.6,2.3c1.2,1,1.9,2.3,1.9,4c0,1.8-0.7,3.2-2.1,4.3c-1.4,1.1-3.3,1.6-5.7,1.6
		c-2.6,0-4.6-0.6-6-1.8s-2.2-2.7-2.1-4.4l0-0.1h2.1c0.1,1.5,0.7,2.6,1.9,3.3c1.2,0.7,2.5,1,4.1,1c1.7,0,3-0.4,4-1.1
		C269.9,108.4,270.4,107.5,270.4,106.5z"/>
	<path class="st0" d="M288,111.8V92.6h-3.5v-1.9h3.5v-3.1c0-2.1,0.5-3.8,1.6-4.9c1.1-1.2,2.5-1.7,4.5-1.7c0.4,0,0.9,0,1.3,0.1
		c0.4,0.1,0.9,0.2,1.3,0.3l-0.3,1.9c-0.3-0.1-0.6-0.1-1-0.2c-0.3,0-0.7-0.1-1.2-0.1c-1.3,0-2.3,0.4-2.9,1.2c-0.7,0.8-1,1.9-1,3.4
		v3.1h5v1.9h-5v19.2H288z"/>
	<path class="st0" d="M312.5,108.4c-0.7,1.2-1.6,2.2-2.7,2.9c-1.1,0.7-2.5,1-4.1,1c-2.2,0-4-0.8-5.2-2.3c-1.3-1.5-1.9-3.9-1.9-7
		V90.7h2.3V103c0,2.6,0.4,4.4,1.3,5.6c0.9,1.1,2.1,1.7,3.7,1.7c1.8,0,3.2-0.4,4.2-1.2s1.8-1.9,2.2-3.3V90.7h2.3v21.1h-2.1
		L312.5,108.4z"/>
	<path class="st0" d="M322.1,90.7l0.2,3.7c0.7-1.3,1.6-2.3,2.7-3c1.2-0.7,2.5-1.1,4.1-1.1c2.3,0,4,0.7,5.2,2.1
		c1.2,1.4,1.8,3.6,1.8,6.6v12.9h-2.3V99c0-2.4-0.5-4.1-1.4-5.1c-0.9-1-2.2-1.5-3.9-1.5c-1.6,0-3,0.4-4,1.3c-1,0.9-1.8,2-2.2,3.5
		v14.8h-2.3V90.7H322.1z"/>
	<path class="st0" d="M340.6,101.4c0-3.4,0.7-6.1,2.1-8.1c1.4-2,3.4-3,6-3c1.5,0,2.7,0.3,3.8,0.9c1.1,0.6,2,1.5,2.7,2.7V81.4h2.3
		v30.5h-2.1l-0.2-3.1c-0.7,1.1-1.6,2-2.7,2.6c-1.1,0.6-2.4,0.9-3.9,0.9c-2.5,0-4.5-0.9-5.9-2.8s-2.1-4.4-2.1-7.6V101.4z M343,101.9
		c0,2.6,0.5,4.6,1.5,6.1c1,1.5,2.6,2.3,4.6,2.3c1.5,0,2.8-0.3,3.8-1c1-0.7,1.8-1.6,2.4-2.8v-10c-0.5-1.2-1.3-2.2-2.3-3
		s-2.3-1.1-3.8-1.1c-2.1,0-3.6,0.8-4.6,2.5c-1,1.7-1.6,3.9-1.6,6.6V101.9z"/>
	<path class="st0" d="M376.4,111.8c-0.2-0.7-0.3-1.3-0.3-1.9c-0.1-0.5-0.1-1-0.1-1.6c-0.8,1.1-1.8,2-3.1,2.8
		c-1.3,0.7-2.8,1.1-4.4,1.1c-2.1,0-3.7-0.5-4.8-1.6c-1.1-1.1-1.7-2.6-1.7-4.4c0-2,0.8-3.5,2.5-4.7c1.7-1.2,4-1.8,6.8-1.8h4.7v-2.6
		c0-1.5-0.5-2.7-1.5-3.6c-1-0.9-2.3-1.3-4.1-1.3c-1.6,0-3,0.4-4.1,1.2s-1.6,1.8-1.6,3l-2.1,0l0-0.1c-0.1-1.6,0.6-3,2.2-4.2
		c1.5-1.2,3.4-1.9,5.8-1.9c2.3,0,4.2,0.6,5.6,1.8c1.4,1.2,2.1,2.9,2.1,5.1v10.4c0,0.7,0,1.5,0.1,2.2c0.1,0.7,0.2,1.4,0.4,2.1H376.4z
		 M368.7,110.2c1.7,0,3.2-0.4,4.5-1.2s2.2-1.8,2.8-3v-4.4h-4.7c-2.1,0-3.8,0.5-5.1,1.4s-1.9,2-1.9,3.4c0,1.1,0.4,2.1,1.2,2.8
		C366.2,109.8,367.3,110.2,368.7,110.2z"/>
	<path class="st0" d="M385.7,90.7l0.2,3.5c0.7-1.2,1.6-2.2,2.7-2.9c1.1-0.7,2.5-1,4-1c1.6,0,3,0.4,4.1,1.2c1.1,0.8,1.9,2,2.3,3.6
		c0.6-1.5,1.5-2.6,2.7-3.5c1.2-0.8,2.6-1.3,4.3-1.3c2.3,0,4,0.7,5.2,2.2c1.2,1.5,1.8,3.8,1.8,7v12.3h-2.3V99.5
		c0-2.6-0.5-4.5-1.4-5.5c-0.9-1.1-2.2-1.6-3.8-1.6c-1.8,0-3.2,0.6-4.2,1.7c-1,1.1-1.6,2.6-1.8,4.4c0,0.1,0,0.2,0,0.4
		c0,0.2,0,0.3,0,0.4v12.7h-2.4V99.5c0-2.6-0.5-4.4-1.4-5.5c-0.9-1.1-2.2-1.7-3.8-1.7c-1.7,0-3,0.4-3.9,1.3c-1,0.8-1.7,2-2,3.4v14.9
		h-2.4V90.7H385.7z"/>
	<path class="st0" d="M426.3,112.2c-2.6,0-4.8-1-6.6-2.9c-1.8-2-2.6-4.4-2.6-7.4v-1.1c0-3,0.9-5.5,2.6-7.5s3.8-3,6.3-3
		c2.6,0,4.6,0.8,6.1,2.5s2.2,3.8,2.2,6.6v2h-14.9v0.6c0,2.4,0.6,4.4,1.9,6c1.3,1.6,2.9,2.4,5,2.4c1.5,0,2.7-0.2,3.7-0.6
		c1-0.4,1.9-1,2.6-1.7l1,1.6c-0.8,0.8-1.8,1.5-3,2C429.4,112,428,112.2,426.3,112.2z M426,92.3c-1.7,0-3.2,0.7-4.4,2s-1.9,3-2.1,5
		l0,0.1H432v-0.6c0-1.8-0.5-3.4-1.6-4.6C429.3,92.9,427.8,92.3,426,92.3z"/>
	<path class="st0" d="M440.2,90.7l0.2,3.7c0.7-1.3,1.6-2.3,2.7-3c1.2-0.7,2.5-1.1,4.1-1.1c2.3,0,4,0.7,5.2,2.1
		c1.2,1.4,1.8,3.6,1.8,6.6v12.9H452V99c0-2.4-0.5-4.1-1.4-5.1c-0.9-1-2.2-1.5-3.9-1.5c-1.6,0-3,0.4-4,1.3c-1,0.9-1.8,2-2.2,3.5v14.8
		h-2.3V90.7H440.2z"/>
	<path class="st0" d="M463.3,85.3v5.4h4.6v1.9h-4.6v13.8c0,1.4,0.3,2.4,0.8,2.9c0.5,0.6,1.2,0.9,2,0.9c0.4,0,0.7,0,1.1,0
		c0.4,0,0.8-0.1,1.2-0.2l0.4,1.7c-0.4,0.2-0.9,0.3-1.4,0.4c-0.6,0.1-1.1,0.1-1.7,0.1c-1.5,0-2.6-0.5-3.5-1.4
		c-0.8-0.9-1.2-2.4-1.2-4.5V92.6h-3.7v-1.9h3.7v-5.4H463.3z"/>
	<path class="st0" d="M485.5,111.8c-0.2-0.7-0.3-1.3-0.3-1.9c-0.1-0.5-0.1-1-0.1-1.6c-0.8,1.1-1.8,2-3.1,2.8
		c-1.3,0.7-2.8,1.1-4.4,1.1c-2.1,0-3.7-0.5-4.8-1.6c-1.1-1.1-1.7-2.6-1.7-4.4c0-2,0.8-3.5,2.5-4.7c1.7-1.2,4-1.8,6.8-1.8h4.7v-2.6
		c0-1.5-0.5-2.7-1.5-3.6c-1-0.9-2.3-1.3-4.1-1.3c-1.6,0-3,0.4-4.1,1.2s-1.6,1.8-1.6,3l-2.1,0l0-0.1c-0.1-1.6,0.6-3,2.2-4.2
		c1.5-1.2,3.4-1.9,5.8-1.9c2.3,0,4.2,0.6,5.6,1.8c1.4,1.2,2.1,2.9,2.1,5.1v10.4c0,0.7,0,1.5,0.1,2.2c0.1,0.7,0.2,1.4,0.4,2.1H485.5z
		 M477.8,110.2c1.7,0,3.2-0.4,4.5-1.2s2.2-1.8,2.8-3v-4.4h-4.7c-2.1,0-3.8,0.5-5.1,1.4s-1.9,2-1.9,3.4c0,1.1,0.4,2.1,1.2,2.8
		C475.3,109.8,476.4,110.2,477.8,110.2z"/>
	<path class="st0" d="M495.4,111.8h-2.3V81.4h2.3V111.8z"/>
	<path class="st0" d="M509,112.2c-2.6,0-4.8-1-6.6-2.9c-1.8-2-2.6-4.4-2.6-7.4v-1.1c0-3,0.9-5.5,2.6-7.5s3.8-3,6.3-3
		c2.6,0,4.6,0.8,6.1,2.5s2.2,3.8,2.2,6.6v2h-14.9v0.6c0,2.4,0.6,4.4,1.9,6c1.3,1.6,2.9,2.4,5,2.4c1.5,0,2.7-0.2,3.7-0.6
		c1-0.4,1.9-1,2.6-1.7l1,1.6c-0.8,0.8-1.8,1.5-3,2C512.2,112,510.7,112.2,509,112.2z M508.7,92.3c-1.7,0-3.2,0.7-4.4,2s-1.9,3-2.1,5
		l0,0.1h12.4v-0.6c0-1.8-0.5-3.4-1.6-4.6C512,92.9,510.6,92.3,508.7,92.3z"/>
	<path class="st0" d="M533.6,106.5c0-1-0.4-1.9-1.2-2.6c-0.8-0.7-2.3-1.3-4.4-1.8c-2.5-0.5-4.4-1.3-5.6-2.2
		c-1.2-0.9-1.8-2.2-1.8-3.8c0-1.6,0.7-3,2-4.1c1.4-1.1,3.2-1.7,5.4-1.7c2.4,0,4.3,0.6,5.7,1.8c1.4,1.2,2.1,2.7,2,4.4l0,0.1h-2.2
		c0-1.2-0.5-2.2-1.5-3c-1-0.9-2.3-1.3-4-1.3c-1.7,0-3,0.4-3.8,1.1c-0.9,0.7-1.3,1.6-1.3,2.6c0,1,0.4,1.8,1.1,2.4
		c0.7,0.6,2.2,1.2,4.4,1.7c2.5,0.6,4.4,1.3,5.6,2.3c1.2,1,1.9,2.3,1.9,4c0,1.8-0.7,3.2-2.1,4.3c-1.4,1.1-3.3,1.6-5.7,1.6
		c-2.6,0-4.6-0.6-6-1.8s-2.2-2.7-2.1-4.4l0-0.1h2.1c0.1,1.5,0.7,2.6,1.9,3.3c1.2,0.7,2.5,1,4.1,1c1.7,0,3-0.4,4-1.1
		C533.1,108.4,533.6,107.5,533.6,106.5z"/>
	<path class="st0" d="M557.3,112.2c-2.6,0-4.8-1-6.6-2.9c-1.8-2-2.6-4.4-2.6-7.4v-1.1c0-3,0.9-5.5,2.6-7.5s3.8-3,6.3-3
		c2.6,0,4.6,0.8,6.1,2.5s2.2,3.8,2.2,6.6v2h-14.9v0.6c0,2.4,0.6,4.4,1.9,6c1.3,1.6,2.9,2.4,5,2.4c1.5,0,2.7-0.2,3.7-0.6
		c1-0.4,1.9-1,2.6-1.7l1,1.6c-0.8,0.8-1.8,1.5-3,2C560.5,112,559,112.2,557.3,112.2z M557,92.3c-1.7,0-3.2,0.7-4.4,2s-1.9,3-2.1,5
		l0,0.1H563v-0.6c0-1.8-0.5-3.4-1.6-4.6C560.3,92.9,558.9,92.3,557,92.3z"/>
	<path class="st0" d="M575.8,99.3l5.7-8.6h2.8l-7.2,10.4l7.5,10.8h-2.7l-6-9l-6,9h-2.8l7.5-10.8l-7.2-10.4h2.8L575.8,99.3z"/>
	<path class="st0" d="M605,101.9c0,3.2-0.7,5.7-2.1,7.6c-1.4,1.9-3.4,2.8-5.9,2.8c-1.5,0-2.8-0.3-3.9-0.8s-2-1.4-2.7-2.4v11H588
		V90.7h2l0.3,3.3c0.7-1.2,1.6-2.1,2.7-2.7c1.1-0.6,2.4-1,3.9-1c2.5,0,4.5,1,6,3c1.4,2,2.1,4.7,2.1,8.1V101.9z M602.6,101.4
		c0-2.7-0.5-4.9-1.6-6.6c-1.1-1.7-2.6-2.5-4.7-2.5c-1.6,0-2.9,0.4-3.8,1.1c-1,0.8-1.7,1.7-2.2,2.9v10.2c0.5,1.2,1.3,2.1,2.3,2.7
		c1,0.7,2.3,1,3.8,1c2,0,3.6-0.8,4.7-2.3c1.1-1.5,1.6-3.6,1.6-6.1V101.4z"/>
	<path class="st0" d="M619.2,92.7l-1.7-0.1c-1.5,0-2.7,0.4-3.6,1.2c-0.9,0.8-1.6,2-2,3.4v14.6h-2.3V90.7h2.1l0.3,3.5v0.2
		c0.6-1.3,1.4-2.3,2.5-3c1-0.7,2.3-1.1,3.7-1.1c0.3,0,0.6,0,0.9,0.1c0.3,0,0.5,0.1,0.7,0.1L619.2,92.7z"/>
	<path class="st0" d="M629.8,112.2c-2.6,0-4.8-1-6.6-2.9c-1.8-2-2.6-4.4-2.6-7.4v-1.1c0-3,0.9-5.5,2.6-7.5s3.8-3,6.3-3
		c2.6,0,4.6,0.8,6.1,2.5s2.2,3.8,2.2,6.6v2h-14.9v0.6c0,2.4,0.6,4.4,1.9,6c1.3,1.6,2.9,2.4,5,2.4c1.5,0,2.7-0.2,3.7-0.6
		c1-0.4,1.9-1,2.6-1.7l1,1.6c-0.8,0.8-1.8,1.5-3,2C632.9,112,631.5,112.2,629.8,112.2z M629.5,92.3c-1.7,0-3.2,0.7-4.4,2
		s-1.9,3-2.1,5l0,0.1h12.4v-0.6c0-1.8-0.5-3.4-1.6-4.6C632.8,92.9,631.4,92.3,629.5,92.3z"/>
	<path class="st0" d="M654.3,106.5c0-1-0.4-1.9-1.2-2.6c-0.8-0.7-2.3-1.3-4.4-1.8c-2.5-0.5-4.4-1.3-5.6-2.2
		c-1.2-0.9-1.8-2.2-1.8-3.8c0-1.6,0.7-3,2-4.1s3.2-1.7,5.4-1.7c2.4,0,4.3,0.6,5.7,1.8c1.4,1.2,2.1,2.7,2,4.4l0,0.1h-2.2
		c0-1.2-0.5-2.2-1.5-3s-2.3-1.3-4-1.3c-1.7,0-3,0.4-3.8,1.1s-1.3,1.6-1.3,2.6c0,1,0.4,1.8,1.1,2.4c0.7,0.6,2.2,1.2,4.4,1.7
		c2.5,0.6,4.4,1.3,5.6,2.3c1.2,1,1.9,2.3,1.9,4c0,1.8-0.7,3.2-2.1,4.3c-1.4,1.1-3.3,1.6-5.7,1.6c-2.6,0-4.6-0.6-6-1.8
		s-2.2-2.7-2.1-4.4l0-0.1h2.1c0.1,1.5,0.7,2.6,1.9,3.3c1.2,0.7,2.5,1,4.1,1c1.7,0,3-0.4,4-1.1C653.9,108.4,654.3,107.5,654.3,106.5z
		"/>
	<path class="st0" d="M674.6,111.8c-0.2-0.7-0.3-1.3-0.3-1.9s-0.1-1-0.1-1.6c-0.8,1.1-1.8,2-3.1,2.8s-2.8,1.1-4.4,1.1
		c-2.1,0-3.7-0.5-4.8-1.6s-1.7-2.6-1.7-4.4c0-2,0.8-3.5,2.5-4.7s4-1.8,6.8-1.8h4.7v-2.6c0-1.5-0.5-2.7-1.5-3.6s-2.3-1.3-4.1-1.3
		c-1.6,0-3,0.4-4.1,1.2s-1.6,1.8-1.6,3l-2.1,0l0-0.1c-0.1-1.6,0.6-3,2.2-4.2c1.5-1.2,3.4-1.9,5.8-1.9c2.3,0,4.2,0.6,5.6,1.8
		c1.4,1.2,2.1,2.9,2.1,5.1v10.4c0,0.7,0,1.5,0.1,2.2s0.2,1.4,0.4,2.1H674.6z M667,110.2c1.7,0,3.2-0.4,4.5-1.2s2.2-1.8,2.8-3v-4.4
		h-4.7c-2.1,0-3.8,0.5-5.1,1.4s-1.9,2-1.9,3.4c0,1.1,0.4,2.1,1.2,2.8S665.6,110.2,667,110.2z"/>
	<path class="st0" d="M681,101.4c0-3.4,0.7-6.1,2.1-8.1c1.4-2,3.4-3,6-3c1.5,0,2.7,0.3,3.8,0.9s2,1.5,2.7,2.7V81.4h2.3v30.5h-2.1
		l-0.2-3.1c-0.7,1.1-1.6,2-2.7,2.6s-2.4,0.9-3.9,0.9c-2.5,0-4.5-0.9-5.9-2.8s-2.1-4.4-2.1-7.6V101.4z M683.4,101.9
		c0,2.6,0.5,4.6,1.5,6.1c1,1.5,2.6,2.3,4.6,2.3c1.5,0,2.8-0.3,3.8-1c1-0.7,1.8-1.6,2.4-2.8v-10c-0.5-1.2-1.3-2.2-2.3-3
		s-2.3-1.1-3.8-1.1c-2.1,0-3.6,0.8-4.6,2.5c-1,1.7-1.6,3.9-1.6,6.6V101.9z"/>
	<path class="st0" d="M716.8,111.8c-0.2-0.7-0.3-1.3-0.3-1.9s-0.1-1-0.1-1.6c-0.8,1.1-1.8,2-3.1,2.8s-2.8,1.1-4.4,1.1
		c-2.1,0-3.7-0.5-4.8-1.6s-1.7-2.6-1.7-4.4c0-2,0.8-3.5,2.5-4.7s4-1.8,6.8-1.8h4.7v-2.6c0-1.5-0.5-2.7-1.5-3.6s-2.3-1.3-4.1-1.3
		c-1.6,0-3,0.4-4.1,1.2s-1.6,1.8-1.6,3l-2.1,0l0-0.1c-0.1-1.6,0.6-3,2.2-4.2c1.5-1.2,3.4-1.9,5.8-1.9c2.3,0,4.2,0.6,5.6,1.8
		c1.4,1.2,2.1,2.9,2.1,5.1v10.4c0,0.7,0,1.5,0.1,2.2s0.2,1.4,0.4,2.1H716.8z M709.1,110.2c1.7,0,3.2-0.4,4.5-1.2s2.2-1.8,2.8-3v-4.4
		h-4.7c-2.1,0-3.8,0.5-5.1,1.4s-1.9,2-1.9,3.4c0,1.1,0.4,2.1,1.2,2.8S707.7,110.2,709.1,110.2z"/>
	<path class="st0" d="M736.8,106.5c0-1-0.4-1.9-1.2-2.6c-0.8-0.7-2.3-1.3-4.4-1.8c-2.5-0.5-4.4-1.3-5.6-2.2
		c-1.2-0.9-1.8-2.2-1.8-3.8c0-1.6,0.7-3,2-4.1s3.2-1.7,5.4-1.7c2.4,0,4.3,0.6,5.7,1.8c1.4,1.2,2.1,2.7,2,4.4l0,0.1h-2.2
		c0-1.2-0.5-2.2-1.5-3s-2.3-1.3-4-1.3c-1.7,0-3,0.4-3.8,1.1s-1.3,1.6-1.3,2.6c0,1,0.4,1.8,1.1,2.4c0.7,0.6,2.2,1.2,4.4,1.7
		c2.5,0.6,4.4,1.3,5.6,2.3c1.2,1,1.9,2.3,1.9,4c0,1.8-0.7,3.2-2.1,4.3c-1.4,1.1-3.3,1.6-5.7,1.6c-2.6,0-4.6-0.6-6-1.8
		s-2.2-2.7-2.1-4.4l0-0.1h2.1c0.1,1.5,0.7,2.6,1.9,3.3c1.2,0.7,2.5,1,4.1,1c1.7,0,3-0.4,4-1.1C736.3,108.4,736.8,107.5,736.8,106.5z
		"/>
	<path class="st0" d="M769.6,101.9c0,3.2-0.7,5.7-2.1,7.6s-3.4,2.8-5.9,2.8c-1.5,0-2.8-0.3-3.9-0.8s-2-1.4-2.7-2.4v11h-2.3V90.7h2
		l0.3,3.3c0.7-1.2,1.6-2.1,2.7-2.7c1.1-0.6,2.4-1,3.9-1c2.5,0,4.5,1,6,3c1.4,2,2.1,4.7,2.1,8.1V101.9z M767.3,101.4
		c0-2.7-0.5-4.9-1.6-6.6s-2.6-2.5-4.7-2.5c-1.6,0-2.9,0.4-3.8,1.1c-1,0.8-1.7,1.7-2.2,2.9v10.2c0.5,1.2,1.3,2.1,2.3,2.7
		c1,0.7,2.3,1,3.8,1c2,0,3.6-0.8,4.7-2.3s1.6-3.6,1.6-6.1V101.4z"/>
	<path class="st0" d="M772.8,101c0-3.1,0.9-5.7,2.6-7.7s4-3,6.8-3c2.8,0,5.1,1,6.8,3s2.6,4.5,2.6,7.7v0.6c0,3.1-0.8,5.7-2.5,7.7
		s-4,3-6.8,3c-2.8,0-5.1-1-6.8-3s-2.6-4.5-2.6-7.7V101z M775.1,101.6c0,2.4,0.6,4.5,1.9,6.2s3,2.5,5.2,2.5c2.2,0,3.9-0.8,5.1-2.5
		s1.9-3.7,1.9-6.2V101c0-2.4-0.6-4.4-1.9-6.1c-1.2-1.7-3-2.5-5.2-2.5s-3.9,0.8-5.1,2.5c-1.2,1.7-1.9,3.7-1.9,6.1V101.6z"/>
	<path class="st0" d="M805.3,92.7l-1.7-0.1c-1.5,0-2.7,0.4-3.6,1.2c-0.9,0.8-1.6,2-2,3.4v14.6h-2.3V90.7h2.1l0.3,3.5v0.2
		c0.6-1.3,1.4-2.3,2.5-3c1-0.7,2.3-1.1,3.7-1.1c0.3,0,0.6,0,0.9,0.1c0.3,0,0.5,0.1,0.7,0.1L805.3,92.7z"/>
	<path class="st0" d="M819.9,111.8h-2.3V81.4h2.3V111.8z"/>
	<path class="st0" d="M839,111.8c-0.2-0.7-0.3-1.3-0.3-1.9s-0.1-1-0.1-1.6c-0.8,1.1-1.8,2-3.1,2.8s-2.8,1.1-4.4,1.1
		c-2.1,0-3.7-0.5-4.8-1.6s-1.7-2.6-1.7-4.4c0-2,0.8-3.5,2.5-4.7s4-1.8,6.8-1.8h4.7v-2.6c0-1.5-0.5-2.7-1.5-3.6s-2.3-1.3-4.1-1.3
		c-1.6,0-3,0.4-4.1,1.2s-1.6,1.8-1.6,3l-2.1,0l0-0.1c-0.1-1.6,0.6-3,2.2-4.2c1.5-1.2,3.4-1.9,5.8-1.9c2.3,0,4.2,0.6,5.6,1.8
		c1.4,1.2,2.1,2.9,2.1,5.1v10.4c0,0.7,0,1.5,0.1,2.2s0.2,1.4,0.4,2.1H839z M831.3,110.2c1.7,0,3.2-0.4,4.5-1.2s2.2-1.8,2.8-3v-4.4
		h-4.7c-2.1,0-3.8,0.5-5.1,1.4s-1.9,2-1.9,3.4c0,1.1,0.4,2.1,1.2,2.8S829.9,110.2,831.3,110.2z"/>
	<path class="st0" d="M863.1,107.9c1,0,1.8-0.3,2.4-0.9s0.9-1.4,0.9-2.4h5.2l0,0.1c0.1,2.1-0.7,3.9-2.4,5.4s-3.7,2.2-6.1,2.2
		c-3.1,0-5.5-1-7.2-3s-2.6-4.6-2.6-7.7V101c0-3.1,0.8-5.7,2.5-7.7s4.1-3,7.2-3c2.6,0,4.7,0.7,6.2,2.2s2.3,3.4,2.3,5.9l0,0.1h-5.2
		c0-1.1-0.3-2-0.9-2.7s-1.4-1.1-2.4-1.1c-1.5,0-2.5,0.6-3.1,1.8c-0.6,1.2-0.9,2.7-0.9,4.5v0.6c0,1.9,0.3,3.4,0.9,4.6
		S861.6,107.9,863.1,107.9z"/>
	<path class="st0" d="M873.3,101.1c0-3.2,0.9-5.7,2.6-7.7s4.2-3,7.3-3c3.1,0,5.6,1,7.3,3c1.8,2,2.7,4.6,2.7,7.8v0.4
		c0,3.2-0.9,5.8-2.6,7.8s-4.2,3-7.3,3c-3.1,0-5.6-1-7.3-3s-2.6-4.6-2.6-7.8V101.1z M878.9,101.5c0,1.9,0.3,3.5,1,4.6
		s1.8,1.7,3.3,1.7c1.5,0,2.5-0.6,3.2-1.8s1-2.7,1-4.6v-0.4c0-1.9-0.3-3.4-1-4.6c-0.7-1.2-1.8-1.8-3.3-1.8c-1.5,0-2.5,0.6-3.2,1.8
		s-1,2.7-1,4.6V101.5z"/>
	<path class="st0" d="M901.2,90.7l0.2,2.8c0.7-1,1.5-1.8,2.5-2.4c1-0.6,2.2-0.8,3.5-0.8c1.4,0,2.5,0.3,3.5,0.9
		c1,0.6,1.7,1.5,2.2,2.7c0.7-1.1,1.5-2,2.5-2.7c1-0.6,2.3-1,3.7-1c2.1,0,3.7,0.7,4.9,2.2c1.2,1.5,1.8,3.7,1.8,6.8v12.5h-5.7V99.3
		c0-1.7-0.3-2.9-0.8-3.5s-1.3-1-2.3-1c-0.8,0-1.5,0.2-2.1,0.5c-0.6,0.4-1.1,0.9-1.4,1.5c0,0.2,0,0.5,0,0.6s0,0.4,0,0.5v13.9h-5.7
		V99.3c0-1.7-0.3-2.8-0.8-3.5s-1.3-1-2.3-1c-0.8,0-1.4,0.1-2,0.4s-1.1,0.7-1.4,1.2v15.4h-5.7V90.7H901.2z"/>
	<path class="st0" d="M942.7,108.7c-0.7,1.1-1.5,2-2.5,2.6s-2.2,0.9-3.5,0.9c-2.2,0-4-0.8-5.2-2.3s-1.9-3.9-1.9-7V90.7h5.7V103
		c0,1.8,0.3,3.1,0.8,3.8s1.3,1,2.3,1c0.9,0,1.7-0.1,2.3-0.4s1.2-0.7,1.6-1.3V90.7h5.7v21.1h-4.7L942.7,108.7z"/>
	<path class="st0" d="M956.7,90.7l0.3,3c0.7-1.1,1.6-1.9,2.6-2.5c1-0.6,2.2-0.9,3.5-0.9c2.1,0,3.8,0.7,5,2.1
		c1.2,1.4,1.8,3.5,1.8,6.5v12.9h-5.7V98.9c0-1.5-0.3-2.6-0.8-3.2c-0.5-0.6-1.3-0.9-2.4-0.9c-0.8,0-1.6,0.2-2.2,0.5
		c-0.6,0.3-1.2,0.8-1.6,1.3v15.3h-5.7V90.7H956.7z"/>
	<path class="st0" d="M979.3,85.6h-5.7v-4.3h5.7V85.6z M979.3,111.8h-5.7V90.7h5.7V111.8z"/>
	<path class="st0" d="M982.3,101.4c0-3.3,0.7-6,2.2-8.1c1.4-2,3.5-3.1,6.1-3.1c1.1,0,2,0.2,2.9,0.7c0.8,0.5,1.6,1.1,2.2,2V81.4h5.7
		v30.5h-4.9l-0.5-2.6c-0.7,1-1.5,1.7-2.4,2.2s-2,0.8-3.1,0.8c-2.6,0-4.6-1-6-2.9s-2.2-4.4-2.2-7.5V101.4z M988,101.9
		c0,1.8,0.3,3.3,0.9,4.4s1.6,1.6,3,1.6c0.8,0,1.5-0.2,2.1-0.5s1.1-0.8,1.5-1.5v-9c-0.4-0.7-0.9-1.2-1.5-1.6s-1.3-0.6-2.1-0.6
		c-1.4,0-2.4,0.6-3.1,1.9c-0.6,1.2-1,2.9-1,4.8V101.9z"/>
	<path class="st0" d="M1017.4,111.8c-0.2-0.5-0.4-1-0.5-1.5s-0.3-1.1-0.3-1.6c-0.6,1-1.4,1.9-2.3,2.6s-2.1,1-3.4,1
		c-2.2,0-3.9-0.6-5.1-1.7s-1.8-2.7-1.8-4.7c0-2.1,0.8-3.7,2.4-4.8s3.9-1.7,7-1.7h3.2v-1.7c0-1-0.3-1.8-0.8-2.4
		c-0.5-0.6-1.3-0.8-2.4-0.8c-0.9,0-1.6,0.2-2.1,0.7s-0.8,1.1-0.8,1.8h-5.5l0-0.1c-0.1-1.8,0.7-3.3,2.3-4.6c1.6-1.3,3.8-1.9,6.5-1.9
		c2.5,0,4.6,0.6,6.2,1.9c1.6,1.3,2.4,3.1,2.4,5.5v8.7c0,1,0.1,1.9,0.2,2.8s0.4,1.7,0.7,2.6H1017.4z M1012.2,108c1,0,1.9-0.2,2.7-0.7
		s1.3-1.1,1.6-1.7v-3h-3.2c-1.2,0-2.1,0.3-2.7,0.9s-0.9,1.3-0.9,2.2c0,0.7,0.2,1.3,0.7,1.7S1011.4,108,1012.2,108z"/>
	<path class="st0" d="M1024.8,101.4c0-3.3,0.7-6,2.2-8.1c1.4-2,3.5-3.1,6.1-3.1c1.1,0,2,0.2,2.9,0.7c0.8,0.5,1.6,1.1,2.2,2V81.4h5.7
		v30.5h-4.9l-0.5-2.6c-0.7,1-1.5,1.7-2.4,2.2s-2,0.8-3.1,0.8c-2.6,0-4.6-1-6-2.9s-2.2-4.4-2.2-7.5V101.4z M1030.4,101.9
		c0,1.8,0.3,3.3,0.9,4.4s1.6,1.6,3,1.6c0.8,0,1.5-0.2,2.1-0.5s1.1-0.8,1.5-1.5v-9c-0.4-0.7-0.9-1.2-1.5-1.6s-1.3-0.6-2.1-0.6
		c-1.4,0-2.4,0.6-3.1,1.9c-0.6,1.2-1,2.9-1,4.8V101.9z"/>
	<path class="st0" d="M1050.5,111.5l-2.1,5.4h-1.6l1.3-5.4v-3.3h2.3V111.5z"/>
	<path class="st0" d="M1073.8,92.7l-1.7-0.1c-1.5,0-2.7,0.4-3.6,1.2c-0.9,0.8-1.6,2-2,3.4v14.6h-2.3V90.7h2.1l0.3,3.5v0.2
		c0.6-1.3,1.4-2.3,2.5-3c1-0.7,2.3-1.1,3.7-1.1c0.3,0,0.6,0,0.9,0.1c0.3,0,0.5,0.1,0.7,0.1L1073.8,92.7z"/>
	<path class="st0" d="M1084.5,112.2c-2.6,0-4.8-1-6.6-2.9s-2.6-4.4-2.6-7.4v-1.1c0-3,0.9-5.5,2.6-7.5s3.8-3,6.3-3
		c2.6,0,4.6,0.8,6.1,2.5s2.2,3.8,2.2,6.6v2h-14.9v0.6c0,2.4,0.6,4.4,1.9,6c1.3,1.6,2.9,2.4,5,2.4c1.5,0,2.7-0.2,3.7-0.6
		s1.9-1,2.6-1.7l1,1.6c-0.8,0.8-1.8,1.5-3,2C1087.6,112,1086.1,112.2,1084.5,112.2z M1084.2,92.3c-1.7,0-3.2,0.7-4.4,2s-1.9,3-2.1,5
		l0,0.1h12.4v-0.6c0-1.8-0.5-3.4-1.6-4.6C1087.5,92.9,1086,92.3,1084.2,92.3z"/>
	<path class="st0" d="M1109,106.5c0-1-0.4-1.9-1.2-2.6c-0.8-0.7-2.3-1.3-4.4-1.8c-2.5-0.5-4.4-1.3-5.6-2.2c-1.2-0.9-1.8-2.2-1.8-3.8
		c0-1.6,0.7-3,2-4.1s3.2-1.7,5.4-1.7c2.4,0,4.3,0.6,5.7,1.8c1.4,1.2,2.1,2.7,2,4.4l0,0.1h-2.2c0-1.2-0.5-2.2-1.5-3s-2.3-1.3-4-1.3
		c-1.7,0-3,0.4-3.8,1.1s-1.3,1.6-1.3,2.6c0,1,0.4,1.8,1.1,2.4c0.7,0.6,2.2,1.2,4.4,1.7c2.5,0.6,4.4,1.3,5.6,2.3c1.2,1,1.9,2.3,1.9,4
		c0,1.8-0.7,3.2-2.1,4.3c-1.4,1.1-3.3,1.6-5.7,1.6c-2.6,0-4.6-0.6-6-1.8s-2.2-2.7-2.1-4.4l0-0.1h2.1c0.1,1.5,0.7,2.6,1.9,3.3
		c1.2,0.7,2.5,1,4.1,1c1.7,0,3-0.4,4-1.1C1108.5,108.4,1109,107.5,1109,106.5z"/>
	<path class="st0" d="M1132.9,101.9c0,3.2-0.7,5.7-2.1,7.6s-3.4,2.8-5.9,2.8c-1.5,0-2.8-0.3-3.9-0.8s-2-1.4-2.7-2.4v11h-2.3V90.7h2
		l0.3,3.3c0.7-1.2,1.6-2.1,2.7-2.7c1.1-0.6,2.4-1,3.9-1c2.5,0,4.5,1,6,3c1.4,2,2.1,4.7,2.1,8.1V101.9z M1130.6,101.4
		c0-2.7-0.5-4.9-1.6-6.6s-2.6-2.5-4.7-2.5c-1.6,0-2.9,0.4-3.8,1.1c-1,0.8-1.7,1.7-2.2,2.9v10.2c0.5,1.2,1.3,2.1,2.3,2.7
		c1,0.7,2.3,1,3.8,1c2,0,3.6-0.8,4.7-2.3s1.6-3.6,1.6-6.1V101.4z"/>
	<path class="st0" d="M1145.3,112.2c-2.6,0-4.8-1-6.6-2.9s-2.6-4.4-2.6-7.4v-1.1c0-3,0.9-5.5,2.6-7.5s3.8-3,6.3-3
		c2.6,0,4.6,0.8,6.1,2.5s2.2,3.8,2.2,6.6v2h-14.9v0.6c0,2.4,0.6,4.4,1.9,6c1.3,1.6,2.9,2.4,5,2.4c1.5,0,2.7-0.2,3.7-0.6
		s1.9-1,2.6-1.7l1,1.6c-0.8,0.8-1.8,1.5-3,2C1148.4,112,1147,112.2,1145.3,112.2z M1145,92.3c-1.7,0-3.2,0.7-4.4,2s-1.9,3-2.1,5
		l0,0.1h12.4v-0.6c0-1.8-0.5-3.4-1.6-4.6C1148.3,92.9,1146.9,92.3,1145,92.3z"/>
	<path class="st0" d="M1165,110.3c1.5,0,2.9-0.4,4.1-1.3s1.8-2.1,1.8-3.7h2.1l0,0.1c0.1,2-0.7,3.6-2.3,4.9s-3.5,2-5.6,2
		c-2.9,0-5.1-1-6.7-3s-2.4-4.5-2.4-7.6v-0.8c0-3.1,0.8-5.6,2.4-7.6c1.6-2,3.8-3,6.6-3c2.3,0,4.2,0.7,5.8,2.1s2.3,3.2,2.2,5.4l0,0.1
		h-2.1c0-1.7-0.6-3-1.7-4.1c-1.1-1-2.5-1.5-4.2-1.5c-2.3,0-3.9,0.8-5,2.4s-1.6,3.7-1.6,6.1v0.8c0,2.5,0.5,4.6,1.6,6.2
		C1161,109.5,1162.7,110.3,1165,110.3z"/>
	<path class="st0" d="M1180.8,85.3v5.4h4.6v1.9h-4.6v13.8c0,1.4,0.3,2.4,0.8,2.9s1.2,0.9,2,0.9c0.4,0,0.7,0,1.1,0s0.8-0.1,1.2-0.2
		l0.4,1.7c-0.4,0.2-0.9,0.3-1.4,0.4s-1.1,0.1-1.7,0.1c-1.5,0-2.6-0.5-3.5-1.4s-1.2-2.4-1.2-4.5V92.6h-3.7v-1.9h3.7v-5.4H1180.8z"/>
	<path class="st0" d="M1187.9,101c0-3.1,0.9-5.7,2.6-7.7s4-3,6.8-3c2.8,0,5.1,1,6.8,3s2.6,4.5,2.6,7.7v0.6c0,3.1-0.8,5.7-2.5,7.7
		s-4,3-6.8,3c-2.8,0-5.1-1-6.8-3s-2.6-4.5-2.6-7.7V101z M1190.2,101.6c0,2.4,0.6,4.5,1.9,6.2s3,2.5,5.2,2.5c2.2,0,3.9-0.8,5.1-2.5
		s1.9-3.7,1.9-6.2V101c0-2.4-0.6-4.4-1.9-6.1c-1.2-1.7-3-2.5-5.2-2.5s-3.9,0.8-5.1,2.5c-1.2,1.7-1.9,3.7-1.9,6.1V101.6z"/>
	<path class="st0" d="M7.2,163.1c0-3.4,0.7-6.1,2.1-8.1s3.4-3,6-3c1.5,0,2.7,0.3,3.8,0.9c1.1,0.6,2,1.5,2.7,2.7V143h2.3v30.5h-2.1
		l-0.2-3.1c-0.7,1.1-1.6,2-2.7,2.6c-1.1,0.6-2.4,0.9-3.9,0.9c-2.5,0-4.5-0.9-5.9-2.8s-2.1-4.4-2.1-7.6V163.1z M9.5,163.5
		c0,2.6,0.5,4.6,1.5,6.1c1,1.5,2.6,2.3,4.6,2.3c1.5,0,2.8-0.3,3.8-1c1-0.7,1.8-1.6,2.4-2.8v-10c-0.5-1.2-1.3-2.2-2.3-3
		c-1-0.8-2.3-1.1-3.8-1.1c-2.1,0-3.6,0.8-4.6,2.5c-1,1.7-1.6,3.9-1.6,6.6V163.5z"/>
	<path class="st0" d="M37.5,173.9c-2.6,0-4.8-1-6.6-2.9c-1.8-2-2.6-4.4-2.6-7.4v-1.1c0-3,0.9-5.5,2.6-7.5s3.8-3,6.3-3
		c2.6,0,4.6,0.8,6.1,2.5s2.2,3.8,2.2,6.6v2H30.6v0.6c0,2.4,0.6,4.4,1.9,6c1.3,1.6,2.9,2.4,5,2.4c1.5,0,2.7-0.2,3.7-0.6
		c1-0.4,1.9-1,2.6-1.7l1,1.6c-0.8,0.8-1.8,1.5-3,2C40.6,173.6,39.2,173.9,37.5,173.9z M37.2,153.9c-1.7,0-3.2,0.7-4.4,2
		c-1.2,1.3-1.9,3-2.1,5l0,0.1h12.4v-0.6c0-1.8-0.5-3.4-1.6-4.6C40.5,154.6,39,153.9,37.2,153.9z"/>
	<path class="st0" d="M60.4,152.3l0.2,3.7c0.7-1.3,1.6-2.3,2.7-3s2.5-1.1,4.1-1.1c2.3,0,4,0.7,5.2,2.1c1.2,1.4,1.8,3.6,1.8,6.6v12.9
		h-2.3v-12.9c0-2.4-0.5-4.1-1.4-5.1c-0.9-1-2.2-1.5-3.9-1.5c-1.6,0-3,0.4-4,1.3c-1,0.9-1.8,2-2.2,3.5v14.8h-2.3v-21.1H60.4z"/>
	<path class="st0" d="M78.4,162.6c0-3.1,0.9-5.7,2.6-7.7c1.7-2,4-3,6.8-3c2.8,0,5.1,1,6.8,3c1.7,2,2.6,4.5,2.6,7.7v0.6
		c0,3.1-0.8,5.7-2.5,7.7s-4,3-6.8,3c-2.8,0-5.1-1-6.8-3c-1.7-2-2.6-4.5-2.6-7.7V162.6z M80.8,163.2c0,2.4,0.6,4.5,1.9,6.2
		c1.2,1.7,3,2.5,5.2,2.5c2.2,0,3.9-0.8,5.1-2.5c1.2-1.7,1.9-3.7,1.9-6.2v-0.6c0-2.4-0.6-4.4-1.9-6.1s-3-2.5-5.2-2.5
		s-3.9,0.8-5.1,2.5c-1.2,1.7-1.9,3.7-1.9,6.1V163.2z"/>
	<path class="st0" d="M124,170c-0.7,1.2-1.6,2.2-2.7,2.9c-1.1,0.7-2.5,1-4.1,1c-2.2,0-4-0.8-5.2-2.3c-1.3-1.5-1.9-3.9-1.9-7v-12.2
		h2.3v12.3c0,2.6,0.4,4.4,1.3,5.6s2.1,1.7,3.7,1.7c1.8,0,3.2-0.4,4.2-1.2c1.1-0.8,1.8-1.9,2.2-3.3v-15.1h2.3v21.1h-2.1L124,170z"/>
	<path class="st0" d="M148.6,163.5c0,3.2-0.7,5.7-2.1,7.6c-1.4,1.9-3.4,2.8-5.9,2.8c-1.5,0-2.9-0.3-4-0.9c-1.1-0.6-2-1.5-2.7-2.7
		l-0.3,3.2h-2V143h2.3v12.7c0.7-1.2,1.6-2.1,2.7-2.7s2.4-1,3.9-1c2.5,0,4.5,1,6,3c1.4,2,2.1,4.7,2.1,8.1V163.5z M146.3,163.1
		c0-2.7-0.5-4.9-1.6-6.6c-1-1.7-2.6-2.5-4.6-2.5c-1.6,0-2.9,0.4-3.9,1.2c-1,0.8-1.7,1.9-2.2,3.1v9.6c0.5,1.2,1.3,2.2,2.3,2.9
		s2.3,1.1,3.9,1.1c2,0,3.6-0.8,4.6-2.3c1-1.5,1.5-3.6,1.5-6.1V163.1z"/>
	<path class="st0" d="M155.7,146.3h-2.3V143h2.3V146.3z M155.7,173.5h-2.3v-21.1h2.3V173.5z"/>
	<path class="st0" d="M169.2,171.9c1.5,0,2.9-0.4,4.1-1.3c1.2-0.9,1.8-2.1,1.8-3.7h2.1l0,0.1c0.1,2-0.7,3.6-2.3,4.9
		c-1.6,1.3-3.5,2-5.6,2c-2.9,0-5.1-1-6.7-3c-1.6-2-2.4-4.5-2.4-7.6v-0.8c0-3.1,0.8-5.6,2.4-7.6c1.6-2,3.8-3,6.6-3
		c2.3,0,4.2,0.7,5.8,2.1s2.3,3.2,2.2,5.4l0,0.1h-2.1c0-1.7-0.6-3-1.7-4.1c-1.1-1-2.5-1.5-4.2-1.5c-2.3,0-3.9,0.8-5,2.4
		c-1.1,1.6-1.6,3.7-1.6,6.1v0.8c0,2.5,0.5,4.6,1.6,6.2C165.2,171.1,166.9,171.9,169.2,171.9z"/>
	<path class="st0" d="M194.7,173.5c-0.2-0.7-0.3-1.3-0.3-1.9c-0.1-0.5-0.1-1-0.1-1.6c-0.8,1.1-1.8,2-3.1,2.8
		c-1.3,0.7-2.8,1.1-4.4,1.1c-2.1,0-3.7-0.5-4.8-1.6c-1.1-1.1-1.7-2.6-1.7-4.4c0-2,0.8-3.5,2.5-4.7c1.7-1.2,4-1.8,6.8-1.8h4.7v-2.6
		c0-1.5-0.5-2.7-1.5-3.6c-1-0.9-2.3-1.3-4.1-1.3c-1.6,0-3,0.4-4.1,1.2s-1.6,1.8-1.6,3l-2.1,0l0-0.1c-0.1-1.6,0.6-3,2.2-4.2
		c1.5-1.2,3.4-1.9,5.8-1.9c2.3,0,4.2,0.6,5.6,1.8c1.4,1.2,2.1,2.9,2.1,5.1v10.4c0,0.7,0,1.5,0.1,2.2c0.1,0.7,0.2,1.4,0.4,2.1H194.7z
		 M187,171.8c1.7,0,3.2-0.4,4.5-1.2s2.2-1.8,2.8-3v-4.4h-4.7c-2.1,0-3.8,0.5-5.1,1.4s-1.9,2-1.9,3.4c0,1.1,0.4,2.1,1.2,2.8
		C184.5,171.4,185.6,171.8,187,171.8z"/>
	<path class="st0" d="M211.7,154.3l-1.7-0.1c-1.5,0-2.7,0.4-3.6,1.2c-0.9,0.8-1.6,2-2,3.4v14.6H202v-21.1h2.1l0.3,3.5v0.2
		c0.6-1.3,1.4-2.3,2.5-3c1-0.7,2.3-1.1,3.7-1.1c0.3,0,0.6,0,0.9,0.1c0.3,0,0.5,0.1,0.7,0.1L211.7,154.3z"/>
	<path class="st0" d="M231.7,173.9c-2.6,0-4.8-1-6.6-2.9c-1.8-2-2.6-4.4-2.6-7.4v-1.1c0-3,0.9-5.5,2.6-7.5s3.8-3,6.3-3
		c2.6,0,4.6,0.8,6.1,2.5s2.2,3.8,2.2,6.6v2h-14.9v0.6c0,2.4,0.6,4.4,1.9,6c1.3,1.6,2.9,2.4,5,2.4c1.5,0,2.7-0.2,3.7-0.6
		c1-0.4,1.9-1,2.6-1.7l1,1.6c-0.8,0.8-1.8,1.5-3,2C234.8,173.6,233.3,173.9,231.7,173.9z M231.4,153.9c-1.7,0-3.2,0.7-4.4,2
		c-1.2,1.3-1.9,3-2.1,5l0,0.1h12.4v-0.6c0-1.8-0.5-3.4-1.6-4.6C234.7,154.6,233.2,153.9,231.4,153.9z"/>
	<path class="st0" d="M246.1,173.5h-2.3V143h2.3V173.5z"/>
	<path class="st0" d="M259.8,163.1c0-3.4,0.7-6.1,2.1-8.1s3.4-3,6-3c1.5,0,2.7,0.3,3.8,0.9c1.1,0.6,2,1.5,2.7,2.7V143h2.3v30.5h-2.1
		l-0.2-3.1c-0.7,1.1-1.6,2-2.7,2.6c-1.1,0.6-2.4,0.9-3.9,0.9c-2.5,0-4.5-0.9-5.9-2.8s-2.1-4.4-2.1-7.6V163.1z M262.2,163.5
		c0,2.6,0.5,4.6,1.5,6.1c1,1.5,2.6,2.3,4.6,2.3c1.5,0,2.8-0.3,3.8-1c1-0.7,1.8-1.6,2.4-2.8v-10c-0.5-1.2-1.3-2.2-2.3-3
		c-1-0.8-2.3-1.1-3.8-1.1c-2.1,0-3.6,0.8-4.6,2.5c-1,1.7-1.6,3.9-1.6,6.6V163.5z"/>
	<path class="st0" d="M290.1,173.9c-2.6,0-4.8-1-6.6-2.9c-1.8-2-2.6-4.4-2.6-7.4v-1.1c0-3,0.9-5.5,2.6-7.5s3.8-3,6.3-3
		c2.6,0,4.6,0.8,6.1,2.5s2.2,3.8,2.2,6.6v2h-14.9v0.6c0,2.4,0.6,4.4,1.9,6c1.3,1.6,2.9,2.4,5,2.4c1.5,0,2.7-0.2,3.7-0.6
		c1-0.4,1.9-1,2.6-1.7l1,1.6c-0.8,0.8-1.8,1.5-3,2C293.3,173.6,291.8,173.9,290.1,173.9z M289.8,153.9c-1.7,0-3.2,0.7-4.4,2
		c-1.2,1.3-1.9,3-2.1,5l0,0.1h12.4v-0.6c0-1.8-0.5-3.4-1.6-4.6C293.2,154.6,291.7,153.9,289.8,153.9z"/>
	<path class="st0" d="M319,163.5c0,3.2-0.7,5.7-2.1,7.6c-1.4,1.9-3.4,2.8-5.9,2.8c-1.5,0-2.8-0.3-3.9-0.8s-2-1.4-2.7-2.4v11H302
		v-29.3h2l0.3,3.3c0.7-1.2,1.6-2.1,2.7-2.7s2.4-1,3.9-1c2.5,0,4.5,1,6,3c1.4,2,2.1,4.7,2.1,8.1V163.5z M316.7,163
		c0-2.7-0.5-4.9-1.6-6.6c-1.1-1.7-2.6-2.5-4.7-2.5c-1.6,0-2.9,0.4-3.8,1.1c-1,0.8-1.7,1.7-2.2,2.9v10.2c0.5,1.2,1.3,2.1,2.3,2.7
		c1,0.7,2.3,1,3.8,1c2,0,3.6-0.8,4.7-2.3c1.1-1.5,1.6-3.6,1.6-6.1V163z"/>
	<path class="st0" d="M322.2,162.6c0-3.1,0.9-5.7,2.6-7.7c1.7-2,4-3,6.8-3c2.8,0,5.1,1,6.8,3c1.7,2,2.6,4.5,2.6,7.7v0.6
		c0,3.1-0.8,5.7-2.5,7.7s-4,3-6.8,3c-2.8,0-5.1-1-6.8-3c-1.7-2-2.6-4.5-2.6-7.7V162.6z M324.5,163.2c0,2.4,0.6,4.5,1.9,6.2
		c1.2,1.7,3,2.5,5.2,2.5c2.2,0,3.9-0.8,5.1-2.5c1.2-1.7,1.9-3.7,1.9-6.2v-0.6c0-2.4-0.6-4.4-1.9-6.1s-3-2.5-5.2-2.5
		s-3.9,0.8-5.1,2.5c-1.2,1.7-1.9,3.7-1.9,6.1V163.2z M334.3,144.1h2.9l0.1,0.1l-4.9,5.1h-2.1L334.3,144.1z"/>
	<path class="st0" d="M357.6,168.1c0-1-0.4-1.9-1.2-2.6c-0.8-0.7-2.3-1.3-4.4-1.8c-2.5-0.5-4.4-1.3-5.6-2.2
		c-1.2-0.9-1.8-2.2-1.8-3.8c0-1.6,0.7-3,2-4.1c1.4-1.1,3.2-1.7,5.4-1.7c2.4,0,4.3,0.6,5.7,1.8c1.4,1.2,2.1,2.7,2,4.4l0,0.1h-2.2
		c0-1.2-0.5-2.2-1.5-3c-1-0.9-2.3-1.3-4-1.3c-1.7,0-3,0.4-3.8,1.1c-0.9,0.7-1.3,1.6-1.3,2.6c0,1,0.4,1.8,1.1,2.4
		c0.7,0.6,2.2,1.2,4.4,1.7c2.5,0.6,4.4,1.3,5.6,2.3c1.2,1,1.9,2.3,1.9,4c0,1.8-0.7,3.2-2.1,4.3s-3.3,1.6-5.7,1.6
		c-2.6,0-4.6-0.6-6-1.8s-2.2-2.7-2.1-4.4l0-0.1h2.1c0.1,1.5,0.7,2.6,1.9,3.3c1.2,0.7,2.5,1,4.1,1c1.7,0,3-0.4,4-1.1
		S357.6,169.1,357.6,168.1z"/>
	<path class="st0" d="M367.1,146.3h-2.3V143h2.3V146.3z M367.1,173.5h-2.3v-21.1h2.3V173.5z"/>
	<path class="st0" d="M376.5,146.9v5.4h4.6v1.9h-4.6V168c0,1.4,0.3,2.4,0.8,2.9c0.5,0.6,1.2,0.9,2,0.9c0.4,0,0.7,0,1.1,0
		c0.4,0,0.8-0.1,1.2-0.2l0.4,1.7c-0.4,0.2-0.9,0.3-1.4,0.4c-0.6,0.1-1.1,0.1-1.7,0.1c-1.5,0-2.6-0.5-3.5-1.4
		c-0.8-0.9-1.2-2.4-1.2-4.5v-13.8h-3.7v-1.9h3.7v-5.4H376.5z"/>
	<path class="st0" d="M383.6,162.6c0-3.1,0.9-5.7,2.6-7.7c1.7-2,4-3,6.8-3c2.8,0,5.1,1,6.8,3c1.7,2,2.6,4.5,2.6,7.7v0.6
		c0,3.1-0.8,5.7-2.5,7.7s-4,3-6.8,3c-2.8,0-5.1-1-6.8-3c-1.7-2-2.6-4.5-2.6-7.7V162.6z M385.9,163.2c0,2.4,0.6,4.5,1.9,6.2
		c1.2,1.7,3,2.5,5.2,2.5c2.2,0,3.9-0.8,5.1-2.5c1.2-1.7,1.9-3.7,1.9-6.2v-0.6c0-2.4-0.6-4.4-1.9-6.1s-3-2.5-5.2-2.5
		s-3.9,0.8-5.1,2.5c-1.2,1.7-1.9,3.7-1.9,6.1V163.2z"/>
	<path class="st0" d="M414.4,163.1c0-3.4,0.7-6.1,2.1-8.1s3.4-3,6-3c1.5,0,2.7,0.3,3.8,0.9c1.1,0.6,2,1.5,2.7,2.7V143h2.3v30.5h-2.1
		l-0.2-3.1c-0.7,1.1-1.6,2-2.7,2.6c-1.1,0.6-2.4,0.9-3.9,0.9c-2.5,0-4.5-0.9-5.9-2.8s-2.1-4.4-2.1-7.6V163.1z M416.7,163.5
		c0,2.6,0.5,4.6,1.5,6.1c1,1.5,2.6,2.3,4.6,2.3c1.5,0,2.8-0.3,3.8-1c1-0.7,1.8-1.6,2.4-2.8v-10c-0.5-1.2-1.3-2.2-2.3-3
		c-1-0.8-2.3-1.1-3.8-1.1c-2.1,0-3.6,0.8-4.6,2.5c-1,1.7-1.6,3.9-1.6,6.6V163.5z"/>
	<path class="st0" d="M444.7,173.9c-2.6,0-4.8-1-6.6-2.9c-1.8-2-2.6-4.4-2.6-7.4v-1.1c0-3,0.9-5.5,2.6-7.5s3.8-3,6.3-3
		c2.6,0,4.6,0.8,6.1,2.5s2.2,3.8,2.2,6.6v2h-14.9v0.6c0,2.4,0.6,4.4,1.9,6c1.3,1.6,2.9,2.4,5,2.4c1.5,0,2.7-0.2,3.7-0.6
		c1-0.4,1.9-1,2.6-1.7l1,1.6c-0.8,0.8-1.8,1.5-3,2C447.8,173.6,446.3,173.9,444.7,173.9z M444.4,153.9c-1.7,0-3.2,0.7-4.4,2
		c-1.2,1.3-1.9,3-2.1,5l0,0.1h12.4v-0.6c0-1.8-0.5-3.4-1.6-4.6C447.7,154.6,446.2,153.9,444.4,153.9z"/>
	<path class="st0" d="M475.7,157.2l-2.1-0.1c-0.8,0-1.5,0.2-2.1,0.5s-1,0.8-1.2,1.5v14.3h-5.7v-21.1h5.3l0.3,3.1
		c0.5-1.1,1.1-2,1.9-2.6c0.8-0.6,1.7-0.9,2.7-0.9c0.3,0,0.5,0,0.8,0.1c0.2,0,0.5,0.1,0.7,0.2L475.7,157.2z"/>
	<path class="st0" d="M486.6,173.9c-3.2,0-5.6-1-7.4-2.9c-1.8-1.9-2.7-4.4-2.7-7.5v-0.8c0-3.2,0.9-5.8,2.6-7.8s4.1-3,7.1-3
		c2.8,0,5,0.9,6.5,2.6c1.5,1.7,2.3,4.1,2.3,7v2.9h-12.6l-0.1,0.1c0.1,1.4,0.5,2.6,1.3,3.5c0.8,0.9,2,1.3,3.5,1.3
		c1.3,0,2.4-0.1,3.3-0.4c0.9-0.3,1.8-0.7,2.8-1.2l1.5,3.5c-0.8,0.7-2,1.3-3.4,1.7S488.3,173.9,486.6,173.9z M486.3,156.3
		c-1.1,0-2,0.4-2.6,1.2c-0.6,0.8-1,1.8-1.1,3.1l0,0.1h7v-0.4c0-1.2-0.3-2.2-0.8-2.9S487.4,156.3,486.3,156.3z"/>
	<path class="st0" d="M503.6,173.5h-5.7V143h5.7V173.5z"/>
	<path class="st0" d="M519.9,173.5c-0.2-0.5-0.4-1-0.5-1.5c-0.1-0.5-0.3-1.1-0.3-1.6c-0.6,1-1.4,1.9-2.3,2.6c-1,0.7-2.1,1-3.4,1
		c-2.2,0-3.9-0.6-5.1-1.7c-1.2-1.1-1.8-2.7-1.8-4.7c0-2.1,0.8-3.7,2.4-4.8c1.6-1.1,3.9-1.7,7-1.7h3.2v-1.7c0-1-0.3-1.8-0.8-2.4
		c-0.5-0.6-1.3-0.8-2.4-0.8c-0.9,0-1.6,0.2-2.1,0.7c-0.5,0.4-0.8,1.1-0.8,1.8h-5.5l0-0.1c-0.1-1.8,0.7-3.3,2.3-4.6
		c1.6-1.3,3.8-1.9,6.5-1.9c2.5,0,4.6,0.6,6.2,1.9c1.6,1.3,2.4,3.1,2.4,5.5v8.7c0,1,0.1,1.9,0.2,2.8c0.1,0.9,0.4,1.7,0.7,2.6H519.9z
		 M514.7,169.7c1,0,1.9-0.2,2.7-0.7s1.3-1.1,1.6-1.7v-3h-3.2c-1.2,0-2.1,0.3-2.7,0.9c-0.6,0.6-0.9,1.3-0.9,2.2
		c0,0.7,0.2,1.3,0.7,1.7C513.3,169.4,513.9,169.7,514.7,169.7z"/>
	<path class="st0" d="M535.5,165.6l0.4,2h0.1l0.4-2l3.5-13.3h6l-7.2,21.1h-5.4l-7.2-21.1h6L535.5,165.6z"/>
	<path class="st0" d="M556.4,173.9c-3.2,0-5.6-1-7.4-2.9c-1.8-1.9-2.7-4.4-2.7-7.5v-0.8c0-3.2,0.9-5.8,2.6-7.8s4.1-3,7.1-3
		c2.8,0,5,0.9,6.5,2.6c1.5,1.7,2.3,4.1,2.3,7v2.9h-12.6l-0.1,0.1c0.1,1.4,0.5,2.6,1.3,3.5c0.8,0.9,2,1.3,3.5,1.3
		c1.3,0,2.4-0.1,3.3-0.4c0.9-0.3,1.8-0.7,2.8-1.2l1.5,3.5c-0.8,0.7-2,1.3-3.4,1.7S558.1,173.9,556.4,173.9z M556,156.3
		c-1.1,0-2,0.4-2.6,1.2c-0.6,0.8-1,1.8-1.1,3.1l0,0.1h7v-0.4c0-1.2-0.3-2.2-0.8-2.9S557.2,156.3,556,156.3z"/>
	<path class="st0" d="M578.8,167.6c0-0.6-0.3-1.2-0.9-1.6s-1.7-0.8-3.4-1.2c-2.5-0.5-4.4-1.2-5.6-2.2c-1.3-1-1.9-2.4-1.9-4.1
		c0-1.8,0.8-3.4,2.3-4.6c1.5-1.3,3.6-1.9,6.1-1.9c2.7,0,4.8,0.6,6.4,1.9c1.6,1.3,2.4,2.9,2.3,4.8l0,0.1h-5.5c0-0.8-0.3-1.5-0.8-2.1
		s-1.3-0.8-2.4-0.8c-0.9,0-1.6,0.2-2.2,0.7c-0.5,0.5-0.8,1-0.8,1.7c0,0.7,0.3,1.2,0.8,1.6c0.6,0.4,1.7,0.8,3.4,1.1
		c2.6,0.5,4.5,1.3,5.8,2.3s1.9,2.4,1.9,4.2c0,1.9-0.8,3.5-2.4,4.7c-1.6,1.2-3.8,1.8-6.4,1.8c-2.8,0-5-0.7-6.7-2.1
		c-1.6-1.4-2.4-3-2.3-4.9l0-0.1h5.2c0,1.1,0.4,2,1.1,2.5s1.6,0.8,2.8,0.8c1.1,0,1.9-0.2,2.4-0.6
		C578.5,168.9,578.8,168.3,578.8,167.6z"/>
	<path class="st0" d="M604.9,171.9c1.5,0,2.9-0.4,4.1-1.3c1.2-0.9,1.8-2.1,1.8-3.7h2.1l0,0.1c0.1,2-0.7,3.6-2.3,4.9
		c-1.6,1.3-3.5,2-5.6,2c-2.9,0-5.1-1-6.7-3c-1.6-2-2.4-4.5-2.4-7.6v-0.8c0-3.1,0.8-5.6,2.4-7.6c1.6-2,3.8-3,6.6-3
		c2.3,0,4.2,0.7,5.8,2.1s2.3,3.2,2.2,5.4l0,0.1h-2.1c0-1.7-0.6-3-1.7-4.1c-1.1-1-2.5-1.5-4.2-1.5c-2.3,0-3.9,0.8-5,2.4
		c-1.1,1.6-1.6,3.7-1.6,6.1v0.8c0,2.5,0.5,4.6,1.6,6.2C600.9,171.1,602.6,171.9,604.9,171.9z"/>
	<path class="st0" d="M624.9,173.9c-2.6,0-4.8-1-6.6-2.9c-1.8-2-2.6-4.4-2.6-7.4v-1.1c0-3,0.9-5.5,2.6-7.5s3.8-3,6.3-3
		c2.6,0,4.6,0.8,6.1,2.5s2.2,3.8,2.2,6.6v2H618v0.6c0,2.4,0.6,4.4,1.9,6c1.3,1.6,2.9,2.4,5,2.4c1.5,0,2.7-0.2,3.7-0.6
		c1-0.4,1.9-1,2.6-1.7l1,1.6c-0.8,0.8-1.8,1.5-3,2C628,173.6,626.6,173.9,624.9,173.9z M624.6,153.9c-1.7,0-3.2,0.7-4.4,2
		c-1.2,1.3-1.9,3-2.1,5l0,0.1h12.4v-0.6c0-1.8-0.5-3.4-1.6-4.6C627.9,154.6,626.4,153.9,624.6,153.9z"/>
	<path class="st0" d="M646.5,154.3l-1.7-0.1c-1.5,0-2.7,0.4-3.6,1.2s-1.6,2-2,3.4v14.6h-2.3v-21.1h2.1l0.3,3.5v0.2
		c0.6-1.3,1.4-2.3,2.5-3s2.3-1.1,3.7-1.1c0.3,0,0.6,0,0.9,0.1s0.5,0.1,0.7,0.1L646.5,154.3z"/>
	<path class="st0" d="M657,171.9c1.5,0,2.9-0.4,4.1-1.3s1.8-2.1,1.8-3.7h2.1l0,0.1c0.1,2-0.7,3.6-2.3,4.9s-3.5,2-5.6,2
		c-2.9,0-5.1-1-6.7-3s-2.4-4.5-2.4-7.6v-0.8c0-3.1,0.8-5.6,2.4-7.6s3.8-3,6.6-3c2.3,0,4.2,0.7,5.8,2.1s2.3,3.2,2.2,5.4l0,0.1h-2.1
		c0-1.7-0.6-3-1.7-4.1s-2.5-1.5-4.2-1.5c-2.3,0-3.9,0.8-5,2.4c-1.1,1.6-1.6,3.7-1.6,6.1v0.8c0,2.5,0.5,4.6,1.6,6.2
		C653,171.1,654.7,171.9,657,171.9z"/>
	<path class="st0" d="M682.5,173.5c-0.2-0.7-0.3-1.3-0.3-1.9s-0.1-1-0.1-1.6c-0.8,1.1-1.8,2-3.1,2.8s-2.8,1.1-4.4,1.1
		c-2.1,0-3.7-0.5-4.8-1.6s-1.7-2.6-1.7-4.4c0-2,0.8-3.5,2.5-4.7s4-1.8,6.8-1.8h4.7v-2.6c0-1.5-0.5-2.7-1.5-3.6s-2.3-1.3-4.1-1.3
		c-1.6,0-3,0.4-4.1,1.2s-1.6,1.8-1.6,3l-2.1,0l0-0.1c-0.1-1.6,0.6-3,2.2-4.2s3.4-1.9,5.8-1.9c2.3,0,4.2,0.6,5.6,1.8s2.1,2.9,2.1,5.1
		v10.4c0,0.7,0,1.5,0.1,2.2s0.2,1.4,0.4,2.1H682.5z M674.8,171.8c1.7,0,3.2-0.4,4.5-1.2s2.2-1.8,2.8-3v-4.4h-4.7
		c-2.1,0-3.8,0.5-5.1,1.4s-1.9,2-1.9,3.4c0,1.1,0.4,2.1,1.2,2.8S673.4,171.8,674.8,171.8z"/>
	<path class="st0" d="M697.8,163.1c0-3.4,0.7-6.1,2.1-8.1s3.4-3,6-3c1.5,0,2.7,0.3,3.8,0.9s2,1.5,2.7,2.7V143h2.3v30.5h-2.1
		l-0.2-3.1c-0.7,1.1-1.6,2-2.7,2.6s-2.4,0.9-3.9,0.9c-2.5,0-4.5-0.9-5.9-2.8s-2.1-4.4-2.1-7.6V163.1z M700.2,163.5
		c0,2.6,0.5,4.6,1.5,6.1s2.6,2.3,4.6,2.3c1.5,0,2.8-0.3,3.8-1c1-0.7,1.8-1.6,2.4-2.8v-10c-0.5-1.2-1.3-2.2-2.3-3
		c-1-0.8-2.3-1.1-3.8-1.1c-2.1,0-3.6,0.8-4.6,2.5c-1,1.7-1.6,3.9-1.6,6.6V163.5z"/>
	<path class="st0" d="M728.1,173.9c-2.6,0-4.8-1-6.6-2.9s-2.6-4.4-2.6-7.4v-1.1c0-3,0.9-5.5,2.6-7.5s3.8-3,6.3-3
		c2.6,0,4.6,0.8,6.1,2.5s2.2,3.8,2.2,6.6v2h-14.9v0.6c0,2.4,0.6,4.4,1.9,6c1.3,1.6,2.9,2.4,5,2.4c1.5,0,2.7-0.2,3.7-0.6
		s1.9-1,2.6-1.7l1,1.6c-0.8,0.8-1.8,1.5-3,2C731.3,173.6,729.8,173.9,728.1,173.9z M727.8,153.9c-1.7,0-3.2,0.7-4.4,2
		c-1.2,1.3-1.9,3-2.1,5l0,0.1h12.4v-0.6c0-1.8-0.5-3.4-1.6-4.6S729.7,153.9,727.8,153.9z"/>
	<path class="st0" d="M751.6,173.5h-2.3V143h2.3V173.5z"/>
	<path class="st0" d="M770.6,173.5c-0.2-0.7-0.3-1.3-0.3-1.9s-0.1-1-0.1-1.6c-0.8,1.1-1.8,2-3.1,2.8s-2.8,1.1-4.4,1.1
		c-2.1,0-3.7-0.5-4.8-1.6s-1.7-2.6-1.7-4.4c0-2,0.8-3.5,2.5-4.7s4-1.8,6.8-1.8h4.7v-2.6c0-1.5-0.5-2.7-1.5-3.6s-2.3-1.3-4.1-1.3
		c-1.6,0-3,0.4-4.1,1.2s-1.6,1.8-1.6,3l-2.1,0l0-0.1c-0.1-1.6,0.6-3,2.2-4.2s3.4-1.9,5.8-1.9c2.3,0,4.2,0.6,5.6,1.8s2.1,2.9,2.1,5.1
		v10.4c0,0.7,0,1.5,0.1,2.2s0.2,1.4,0.4,2.1H770.6z M762.9,171.8c1.7,0,3.2-0.4,4.5-1.2s2.2-1.8,2.8-3v-4.4h-4.7
		c-2.1,0-3.8,0.5-5.1,1.4s-1.9,2-1.9,3.4c0,1.1,0.4,2.1,1.2,2.8S761.5,171.8,762.9,171.8z"/>
	<path class="st0" d="M788.9,152.3l0.2,3.7c0.7-1.3,1.6-2.3,2.7-3s2.5-1.1,4.1-1.1c2.3,0,4,0.7,5.2,2.1s1.8,3.6,1.8,6.6v12.9h-2.3
		v-12.9c0-2.4-0.5-4.1-1.4-5.1s-2.2-1.5-3.9-1.5c-1.6,0-3,0.4-4,1.3c-1,0.9-1.8,2-2.2,3.5v14.8h-2.3v-21.1H788.9z"/>
	<path class="st0" d="M821.7,173.5c-0.2-0.7-0.3-1.3-0.3-1.9s-0.1-1-0.1-1.6c-0.8,1.1-1.8,2-3.1,2.8s-2.8,1.1-4.4,1.1
		c-2.1,0-3.7-0.5-4.8-1.6s-1.7-2.6-1.7-4.4c0-2,0.8-3.5,2.5-4.7s4-1.8,6.8-1.8h4.7v-2.6c0-1.5-0.5-2.7-1.5-3.6s-2.3-1.3-4.1-1.3
		c-1.6,0-3,0.4-4.1,1.2s-1.6,1.8-1.6,3l-2.1,0l0-0.1c-0.1-1.6,0.6-3,2.2-4.2s3.4-1.9,5.8-1.9c2.3,0,4.2,0.6,5.6,1.8s2.1,2.9,2.1,5.1
		v10.4c0,0.7,0,1.5,0.1,2.2s0.2,1.4,0.4,2.1H821.7z M814,171.8c1.7,0,3.2-0.4,4.5-1.2s2.2-1.8,2.8-3v-4.4h-4.7
		c-2.1,0-3.8,0.5-5.1,1.4s-1.9,2-1.9,3.4c0,1.1,0.4,2.1,1.2,2.8S812.6,171.8,814,171.8z"/>
	<path class="st0" d="M836.9,171.9c1.5,0,2.9-0.4,4.1-1.3s1.8-2.1,1.8-3.7h2.1l0,0.1c0.1,2-0.7,3.6-2.3,4.9s-3.5,2-5.6,2
		c-2.9,0-5.1-1-6.7-3s-2.4-4.5-2.4-7.6v-0.8c0-3.1,0.8-5.6,2.4-7.6s3.8-3,6.6-3c2.3,0,4.2,0.7,5.8,2.1s2.3,3.2,2.2,5.4l0,0.1h-2.1
		c0-1.7-0.6-3-1.7-4.1s-2.5-1.5-4.2-1.5c-2.3,0-3.9,0.8-5,2.4c-1.1,1.6-1.6,3.7-1.6,6.1v0.8c0,2.5,0.5,4.6,1.6,6.2
		C832.9,171.1,834.6,171.9,836.9,171.9z"/>
	<path class="st0" d="M851.6,146.3h-2.3V143h2.3V146.3z M851.6,173.5h-2.3v-21.1h2.3V173.5z"/>
	<path class="st0" d="M865.2,173.9c-2.6,0-4.8-1-6.6-2.9s-2.6-4.4-2.6-7.4v-1.1c0-3,0.9-5.5,2.6-7.5s3.8-3,6.3-3
		c2.6,0,4.6,0.8,6.1,2.5s2.2,3.8,2.2,6.6v2h-14.9v0.6c0,2.4,0.6,4.4,1.9,6c1.3,1.6,2.9,2.4,5,2.4c1.5,0,2.7-0.2,3.7-0.6
		s1.9-1,2.6-1.7l1,1.6c-0.8,0.8-1.8,1.5-3,2C868.3,173.6,866.8,173.9,865.2,173.9z M864.9,153.9c-1.7,0-3.2,0.7-4.4,2
		c-1.2,1.3-1.9,3-2.1,5l0,0.1h12.4v-0.6c0-1.8-0.5-3.4-1.6-4.6S866.7,153.9,864.9,153.9z"/>
	<path class="st0" d="M879.1,152.3l0.2,3.7c0.7-1.3,1.6-2.3,2.7-3s2.5-1.1,4.1-1.1c2.3,0,4,0.7,5.2,2.1s1.8,3.6,1.8,6.6v12.9h-2.3
		v-12.9c0-2.4-0.5-4.1-1.4-5.1s-2.2-1.5-3.9-1.5c-1.6,0-3,0.4-4,1.3c-1,0.9-1.8,2-2.2,3.5v14.8H877v-21.1H879.1z"/>
	<path class="st0" d="M902.2,146.9v5.4h4.6v1.9h-4.6V168c0,1.4,0.3,2.4,0.8,2.9s1.2,0.9,2,0.9c0.4,0,0.7,0,1.1,0s0.8-0.1,1.2-0.2
		l0.4,1.7c-0.4,0.2-0.9,0.3-1.4,0.4s-1.1,0.1-1.7,0.1c-1.5,0-2.6-0.5-3.5-1.4s-1.2-2.4-1.2-4.5v-13.8h-3.7v-1.9h3.7v-5.4H902.2z"/>
	<path class="st0" d="M918.9,173.9c-2.6,0-4.8-1-6.6-2.9s-2.6-4.4-2.6-7.4v-1.1c0-3,0.9-5.5,2.6-7.5s3.8-3,6.3-3
		c2.6,0,4.6,0.8,6.1,2.5s2.2,3.8,2.2,6.6v2H912v0.6c0,2.4,0.6,4.4,1.9,6c1.3,1.6,2.9,2.4,5,2.4c1.5,0,2.7-0.2,3.7-0.6s1.9-1,2.6-1.7
		l1,1.6c-0.8,0.8-1.8,1.5-3,2C922,173.6,920.6,173.9,918.9,173.9z M918.6,153.9c-1.7,0-3.2,0.7-4.4,2c-1.2,1.3-1.9,3-2.1,5l0,0.1
		h12.4v-0.6c0-1.8-0.5-3.4-1.6-4.6S920.5,153.9,918.6,153.9z"/>
	<path class="st0" d="M938.8,163.1c0-3.4,0.7-6.1,2.1-8.1s3.4-3,6-3c1.5,0,2.7,0.3,3.8,0.9s2,1.5,2.7,2.7V143h2.3v30.5h-2.1
		l-0.2-3.1c-0.7,1.1-1.6,2-2.7,2.6s-2.4,0.9-3.9,0.9c-2.5,0-4.5-0.9-5.9-2.8s-2.1-4.4-2.1-7.6V163.1z M941.1,163.5
		c0,2.6,0.5,4.6,1.5,6.1s2.6,2.3,4.6,2.3c1.5,0,2.8-0.3,3.8-1c1-0.7,1.8-1.6,2.4-2.8v-10c-0.5-1.2-1.3-2.2-2.3-3
		c-1-0.8-2.3-1.1-3.8-1.1c-2.1,0-3.6,0.8-4.6,2.5c-1,1.7-1.6,3.9-1.6,6.6V163.5z"/>
	<path class="st0" d="M969.1,173.9c-2.6,0-4.8-1-6.6-2.9s-2.6-4.4-2.6-7.4v-1.1c0-3,0.9-5.5,2.6-7.5s3.8-3,6.3-3
		c2.6,0,4.6,0.8,6.1,2.5s2.2,3.8,2.2,6.6v2h-14.9v0.6c0,2.4,0.6,4.4,1.9,6c1.3,1.6,2.9,2.4,5,2.4c1.5,0,2.7-0.2,3.7-0.6
		s1.9-1,2.6-1.7l1,1.6c-0.8,0.8-1.8,1.5-3,2C972.2,173.6,970.8,173.9,969.1,173.9z M968.8,153.9c-1.7,0-3.2,0.7-4.4,2
		c-1.2,1.3-1.9,3-2.1,5l0,0.1h12.4v-0.6c0-1.8-0.5-3.4-1.6-4.6S970.7,153.9,968.8,153.9z"/>
	<path class="st0" d="M983.6,173.5h-2.3V143h2.3V173.5z"/>
	<path class="st0" d="M1008.4,157.2l-2.1-0.1c-0.8,0-1.5,0.2-2.1,0.5s-1,0.8-1.2,1.5v14.3h-5.7v-21.1h5.3l0.3,3.1
		c0.5-1.1,1.1-2,1.9-2.6s1.7-0.9,2.7-0.9c0.3,0,0.5,0,0.8,0.1s0.5,0.1,0.7,0.2L1008.4,157.2z"/>
	<path class="st0" d="M1016.7,173.5h-5.7v-21.1h5.7V173.5z M1015,143.7h6.3l0,0.1l-5.4,5.1h-4.9L1015,143.7z"/>
	<path class="st0" d="M1019.9,162.7c0-3.2,0.9-5.7,2.6-7.7s4.2-3,7.3-3c3.1,0,5.6,1,7.3,3s2.7,4.6,2.7,7.8v0.4
		c0,3.2-0.9,5.8-2.6,7.8s-4.2,3-7.3,3c-3.1,0-5.6-1-7.3-3s-2.6-4.6-2.6-7.8V162.7z M1025.6,163.1c0,1.9,0.3,3.5,1,4.6
		s1.8,1.7,3.3,1.7c1.5,0,2.5-0.6,3.2-1.8s1-2.7,1-4.6v-0.4c0-1.9-0.3-3.4-1-4.6s-1.8-1.8-3.3-1.8c-1.5,0-2.5,0.6-3.2,1.8
		s-1,2.7-1,4.6V163.1z"/>
	<path class="st0" d="M1075.1,173.5h-5.7v-11.8h-11.6v11.8h-5.7V145h5.7v12.2h11.6V145h5.7V173.5z"/>
	<path class="st0" d="M1092.1,170.3c-0.7,1.1-1.5,2-2.5,2.6s-2.2,0.9-3.5,0.9c-2.2,0-4-0.8-5.2-2.3s-1.9-3.9-1.9-7v-12.2h5.7v12.3
		c0,1.8,0.3,3.1,0.8,3.8s1.3,1,2.3,1c0.9,0,1.7-0.1,2.3-0.4s1.2-0.7,1.6-1.3v-15.4h5.7v21.1h-4.7L1092.1,170.3z"/>
	<path class="st0" d="M1113.4,173.5c-0.2-0.5-0.4-1-0.5-1.5s-0.3-1.1-0.3-1.6c-0.6,1-1.4,1.9-2.3,2.6s-2.1,1-3.4,1
		c-2.2,0-3.9-0.6-5.1-1.7s-1.8-2.7-1.8-4.7c0-2.1,0.8-3.7,2.4-4.8s3.9-1.7,7-1.7h3.2v-1.7c0-1-0.3-1.8-0.8-2.4s-1.3-0.8-2.4-0.8
		c-0.9,0-1.6,0.2-2.1,0.7s-0.8,1.1-0.8,1.8h-5.5l0-0.1c-0.1-1.8,0.7-3.3,2.3-4.6s3.8-1.9,6.5-1.9c2.5,0,4.6,0.6,6.2,1.9
		s2.4,3.1,2.4,5.5v8.7c0,1,0.1,1.9,0.2,2.8s0.4,1.7,0.7,2.6H1113.4z M1108.1,169.7c1,0,1.9-0.2,2.7-0.7s1.3-1.1,1.6-1.7v-3h-3.2
		c-1.2,0-2.1,0.3-2.7,0.9s-0.9,1.3-0.9,2.2c0,0.7,0.2,1.3,0.7,1.7S1107.3,169.7,1108.1,169.7z"/>
	<path class="st0" d="M1133,167.6c0-0.6-0.3-1.2-0.9-1.6s-1.7-0.8-3.4-1.2c-2.5-0.5-4.4-1.2-5.6-2.2s-1.9-2.4-1.9-4.1
		c0-1.8,0.8-3.4,2.3-4.6s3.6-1.9,6.1-1.9c2.7,0,4.8,0.6,6.4,1.9s2.4,2.9,2.3,4.8l0,0.1h-5.5c0-0.8-0.3-1.5-0.8-2.1s-1.3-0.8-2.4-0.8
		c-0.9,0-1.6,0.2-2.2,0.7s-0.8,1-0.8,1.7c0,0.7,0.3,1.2,0.8,1.6s1.7,0.8,3.4,1.1c2.6,0.5,4.5,1.3,5.8,2.3s1.9,2.4,1.9,4.2
		c0,1.9-0.8,3.5-2.4,4.7s-3.8,1.8-6.4,1.8c-2.8,0-5-0.7-6.7-2.1s-2.4-3-2.3-4.9l0-0.1h5.2c0,1.1,0.4,2,1.1,2.5s1.6,0.8,2.8,0.8
		c1.1,0,1.9-0.2,2.4-0.6S1133,168.3,1133,167.6z"/>
	<path class="st0" d="M1150.2,169.5c1,0,1.8-0.3,2.4-0.9s0.9-1.4,0.9-2.4h5.2l0,0.1c0.1,2.1-0.7,3.9-2.4,5.4s-3.7,2.2-6.1,2.2
		c-3.1,0-5.5-1-7.2-3s-2.6-4.6-2.6-7.7v-0.6c0-3.1,0.8-5.7,2.5-7.7s4.1-3,7.2-3c2.6,0,4.7,0.7,6.2,2.2s2.3,3.4,2.3,5.9l0,0.1h-5.2
		c0-1.1-0.3-2-0.9-2.7s-1.4-1.1-2.4-1.1c-1.5,0-2.5,0.6-3.1,1.8s-0.9,2.7-0.9,4.5v0.6c0,1.9,0.3,3.4,0.9,4.6
		S1148.7,169.5,1150.2,169.5z"/>
	<path class="st0" d="M1160.3,162.7c0-3.2,0.9-5.7,2.6-7.7s4.2-3,7.3-3c3.1,0,5.6,1,7.3,3s2.7,4.6,2.7,7.8v0.4
		c0,3.2-0.9,5.8-2.6,7.8s-4.2,3-7.3,3c-3.1,0-5.6-1-7.3-3s-2.6-4.6-2.6-7.8V162.7z M1166,163.1c0,1.9,0.3,3.5,1,4.6s1.8,1.7,3.3,1.7
		c1.5,0,2.5-0.6,3.2-1.8s1-2.7,1-4.6v-0.4c0-1.9-0.3-3.4-1-4.6s-1.8-1.8-3.3-1.8c-1.5,0-2.5,0.6-3.2,1.8s-1,2.7-1,4.6V163.1z"/>
	<path class="st0" d="M1186.8,173.5h-2.7v-3.2h2.7V173.5z"/>
</g>
</svg>
