<?xml version="1.0" encoding="utf-8"?>
<!-- Generator: Adobe Illustrator 22.1.0, SVG Export Plug-In . SVG Version: 6.00 Build 0)  -->
<svg version="1.1" id="Layer_1" xmlns="http://www.w3.org/2000/svg" xmlns:xlink="http://www.w3.org/1999/xlink" x="0px" y="0px"
	 viewBox="0 0 512 512" style="enable-background:new 0 0 512 512;" xml:space="preserve">
<style type="text/css">
	.st0{fill:#54515C;}
</style>
<g>
	<path class="st0" d="M159.9,195.7c-4.3-0.1-7.8-3.6-7.7-8c0.1-4.3,3.7-7.8,8-7.7l40.9,0.7l-26.8-26.1l-56.9-1
		c-4.3-0.1-7.8-3.6-7.7-8c0.1-4.3,3.6-7.8,8-7.7l40.3,0.7l-57.7-56.3c-3.1-3-3.2-8-0.1-11.1c3-3.1,8-3.2,11.1-0.1l52.5,51.2
		l-6.4-31.9c-0.9-4.2,1.9-8.4,6.1-9.2c4.2-0.8,8.4,1.9,9.2,6.1l10.9,54.3l22.5,21.9l-6.2-31.1c-0.9-4.2,1.9-8.4,6.1-9.2
		c4.2-0.9,8.4,1.9,9.2,6.1l10.8,53.6l19.5,19c0.4-1.2,0.7-2.3,1.1-3.4c4.3-16.5,10-31.4,16.8-44.8c-3.6-7.3-7.6-14.3-12-20.9
		c-16.1-24.5-37-44.5-62.2-59.6C140.6,44.3,93.6,44,91.6,44l0,0c-2.8,0-9.5,0-15.1,5.6c-3.7,3.7-5.7,8.8-5.5,14
		c3.1,95.9,57,144.7,101.6,168.8c21.4,11.5,42.5,18.5,59.4,22.6c2.7-14.1,5.6-26.1,8.3-36l-22.9-22.3L159.9,195.7z"/>
</g>
<g>
	<path class="st0" d="M467.8,49.9c-3.9-4.1-9.3-6.2-14.9-5.9c-1.9,0.1-48.1,3.3-95.4,28.8c-36.3,19.6-78.7,55.5-95,119.8
		c-8.9,26.2-28.4,97.1-23.9,203.9c0.4,9.2,8,16.5,17.2,16.5c0.2,0,0.5,0,0.7,0c9.5-0.4,16.9-8.4,16.4-17.9
		c-2.4-55.3,2.2-100.5,8.1-133.9c13.2-0.8,52.6-5,92.9-29.2c25.2-15.1,46.1-35.1,62.2-59.6c19.4-29.6,31.8-65.6,36.7-107.1
		C473.5,59.6,471.7,54,467.8,49.9z M443,82.4l-57.7,56.3l40.3-0.7h0.1c4.3,0,7.8,3.4,7.8,7.7c0.1,4.3-3.4,7.9-7.7,8l-56.9,1
		l-26.8,26.1l40.9-0.7h0.1c4.3,0,7.8,3.4,7.8,7.7c0.1,4.3-3.4,7.9-7.7,8l-57.5,1l-38.3,37.4c-1.5,1.5-3.5,2.2-5.5,2.2
		s-4.1-0.8-5.6-2.4c-3-3.1-3-8.1,0.1-11.1l40.8-39.8l10.8-53.6c0.9-4.2,5-7,9.2-6.1s7,5,6.1,9.2l-6.2,31.1l22.5-21.9l10.9-54.3
		c0.9-4.2,5-7,9.2-6.1s7,5,6.1,9.2l-6.4,31.9L432,71.2c3.1-3,8.1-3,11.1,0.1C446.2,74.4,446.1,79.4,443,82.4z"/>
</g>
</svg>
