<?xml version="1.0" encoding="utf-8"?>
<!-- Generator: Adobe Illustrator 22.1.0, SVG Export Plug-In . SVG Version: 6.00 Build 0)  -->
<svg version="1.1" id="Capa_1" xmlns="http://www.w3.org/2000/svg" xmlns:xlink="http://www.w3.org/1999/xlink" x="0px" y="0px"
	 viewBox="0 0 57.6 55.4" style="enable-background:new 0 0 57.6 55.4;" xml:space="preserve">
<style type="text/css">
	.st0{fill:#54515C;}
</style>
<path class="st0" d="M26.1,25.6l5.3,1.4c-1-0.3-1.6-1.6-1.3-2.9c0.3-1.3,1.3-2.2,2.3-2.2L27,21.3c-1-0.2-1.9,0.6-2.1,1.8
	C24.6,24.3,25.2,25.5,26.1,25.6z"/>
<path class="st0" d="M31.9,27.1l1.5,0.4l-2.7-3.4l2.3-0.4l2.3,4.2l3,0.8c-1.2-0.4-1.9-1.9-1.6-3.4c0.3-1.6,1.5-2.7,2.8-2.6L33,21.9
	c-1.1-0.2-2.3,0.7-2.5,2.2C30.1,25.6,30.8,26.9,31.9,27.1z"/>
<path class="st0" d="M19.9,25.7c-2.1,0.5-3.4,2.8-2.8,5.3c0.5,2.5,2.7,4.1,4.8,3.6s3.4-2.8,2.8-5.3C24.1,26.9,22,25.3,19.9,25.7z
	 M21.2,26.6c0.1,0,0.3,0.1,0.3,0.2s-0.1,0.3-0.2,0.3S21,27,21,26.9C20.9,26.7,21,26.6,21.2,26.6z M20,26.5c0.1,0,0.3,0.1,0.3,0.2
	S20.2,27,20.1,27s-0.3-0.1-0.3-0.2C19.8,26.7,19.9,26.6,20,26.5z M18.9,27.1c0.1,0,0.3,0.1,0.3,0.2s-0.1,0.3-0.2,0.3
	s-0.3-0.1-0.3-0.2C18.6,27.2,18.7,27.1,18.9,27.1z M18.2,28c0.1,0,0.3,0.1,0.3,0.2s-0.1,0.3-0.2,0.3S18,28.4,18,28.3
	C18,28.2,18.1,28.1,18.2,28z M17.8,29.2c0.1,0,0.3,0.1,0.3,0.2s-0.1,0.3-0.2,0.3s-0.3-0.1-0.3-0.2C17.6,29.4,17.7,29.3,17.8,29.2z
	 M17.6,30.9c0-0.1,0.1-0.3,0.2-0.3s0.3,0.1,0.3,0.2s-0.1,0.3-0.2,0.3C17.8,31.2,17.6,31.1,17.6,30.9z M18.5,32.4
	c-0.1,0-0.3-0.1-0.3-0.2c0-0.1,0.1-0.3,0.2-0.3s0.3,0.1,0.3,0.2C18.7,32.2,18.6,32.4,18.5,32.4z M19.3,33.4c-0.1,0-0.3-0.1-0.3-0.2
	c0-0.1,0.1-0.3,0.2-0.3s0.3,0.1,0.3,0.2C19.5,33.3,19.4,33.4,19.3,33.4z M20.4,33.9c-0.1,0-0.3-0.1-0.3-0.2c0-0.1,0.1-0.3,0.2-0.3
	s0.3,0.1,0.3,0.2C20.6,33.7,20.5,33.8,20.4,33.9z M21.7,33.9c-0.1,0-0.3-0.1-0.3-0.2c0-0.1,0.1-0.3,0.2-0.3s0.3,0.1,0.3,0.2
	C21.9,33.8,21.8,33.9,21.7,33.9z M22.7,33.5c-0.1,0-0.3-0.1-0.3-0.2c0-0.1,0.1-0.3,0.2-0.3s0.3,0.1,0.3,0.2
	C22.9,33.3,22.8,33.5,22.7,33.5z M21.4,32.8c-1.2,0.3-2.5-0.7-2.8-2.1s0.4-2.8,1.7-3.1c1.2-0.3,2.5,0.7,2.8,2.1
	C23.4,31.2,22.6,32.6,21.4,32.8z M23.5,32.5c-0.1,0-0.3-0.1-0.3-0.2c0-0.1,0.1-0.3,0.2-0.3s0.3,0.1,0.3,0.2
	C23.8,32.3,23.7,32.5,23.5,32.5z M22.4,27.6c-0.1,0-0.3-0.1-0.3-0.2s0.1-0.3,0.2-0.3s0.3,0.1,0.3,0.2C22.7,27.4,22.6,27.5,22.4,27.6
	z M23.1,28.4c0-0.1,0.1-0.3,0.2-0.3s0.3,0.1,0.3,0.2s-0.1,0.3-0.2,0.3S23.1,28.5,23.1,28.4z M24.1,31.2c-0.1,0-0.3-0.1-0.3-0.2
	s0.1-0.3,0.2-0.3s0.3,0.1,0.3,0.2C24.3,31,24.3,31.1,24.1,31.2z M24,29.8c-0.1,0-0.3-0.1-0.3-0.2s0.1-0.3,0.2-0.3s0.3,0.1,0.3,0.2
	S24.1,29.8,24,29.8z"/>
<path class="st0" d="M31.9,31.7l-9.2,2.8c1.7-0.6,2.7-2.8,2.2-5.1s-2.3-3.9-4.2-3.7l9.5-1.4c0.1,0,0.1,0,0.2,0
	c1.6-0.3,3.2,1.1,3.7,3.1c0,0.2,0.1,0.3,0.1,0.5C34.4,29.7,33.4,31.4,31.9,31.7z"/>
<path class="st0" d="M42.2,25.5c-0.4-1.7-1.8-2.9-3.2-2.6L38.5,23L31,24.1c1.5-0.1,3.1,1.2,3.5,3.1c0.1,0.2,0.1,0.5,0.1,0.7
	c0.1,1.7-0.7,3.1-2,3.6l7.7-2.3C41.7,28.9,42.6,27.3,42.2,25.5z"/>
<path class="st0" d="M29.1,2.3C15,2.3,3.6,13.7,3.6,27.8S15,53.3,29.1,53.3s25.5-11.4,25.5-25.5S43.2,2.3,29.1,2.3z M29.1,49.8
	c-12.1,0-22-9.8-22-22c0-12.1,9.8-22,22-22c12.1,0,22,9.8,22,22C51.1,39.9,41.2,49.8,29.1,49.8z"/>
</svg>
